<svg xmlns="http://www.w3.org/2000/svg" xmlns:xlink="http://www.w3.org/1999/xlink" width="609.899" height="125.137" viewBox="0 0 609.899 125.137">
  <defs>
    <linearGradient id="linear-gradient" x1="0.5" x2="0.5" y2="1" gradientUnits="objectBoundingBox">
      <stop offset="0" stop-color="#fff" stop-opacity="0"/>
      <stop offset="1" stop-color="#fff"/>
    </linearGradient>
    <clipPath id="clip-path">
      <rect id="Rectángulo_11823" data-name="Rectángulo 11823" width="165.782" height="15.414" transform="translate(0 0)" fill="none"/>
    </clipPath>
  </defs>
  <g id="Grupo_71358" data-name="Grupo 71358" transform="translate(-495.051 -531.863)">
    <g id="Grupo_71356" data-name="Grupo 71356" transform="translate(495 531.813)">
      <g id="Grupo_71357" data-name="Grupo 71357" transform="translate(0 0)">
        <path id="Trazado_158760" data-name="Trazado 158760" d="M9.26,0H598.639a9.26,9.26,0,0,1,9.26,9.26V93.986a9.26,9.26,0,0,1-9.26,9.26H9.26A9.26,9.26,0,0,1,0,93.986V9.26A9.26,9.26,0,0,1,9.26,0Z" transform="translate(1.051 1.051)" stroke="#d44f4a" stroke-width="2" fill="url(#linear-gradient)"/>
        <path id="Trazado_158737" data-name="Trazado 158737" d="M22.12,44.124a11.989,11.989,0,0,1,3.9-8.729q4.255-4.255,4.255-7.521V26.351h4.572V28.37A11.885,11.885,0,0,1,30.946,37q-4.255,4.217-4.253,7.264v3.9q0,3.347,3.106,3.345h.04q3.146,0,3.148-3.345V43.39h4.57v4.77q0,7.858-7.739,7.857-7.7,0-7.7-7.857ZM35.182,21.8H29.739V16.357h5.442Z" transform="translate(24.361 18.014)" fill="#636363"/>
        <path id="Trazado_158738" data-name="Trazado 158738" d="M47.636,46.251q0,7.029-6.394,7.819.18,2.452,6.394,2.492v3.623q-4.394,0-6.176-.95-2.178-1.109-2.236-5.146Q32.2,53.572,32.2,46.251v-24.6q0-7.839,7.718-7.838t7.72,7.838Zm-4.572-24.6q0-3.325-3.127-3.345H39.9q-3.13,0-3.127,3.345v24.6q0,3.347,3.146,3.345t3.148-3.345Z" transform="translate(35.46 15.213)" fill="#636363"/>
        <path id="Trazado_158739" data-name="Trazado 158739" d="M57.148,44.417q0,6.887-7.718,6.907-7.722,0-7.72-6.907V16.432h4.572V44.417q0,2.928,3.148,2.929t3.146-2.929V16.432h4.572Z" transform="translate(45.936 18.097)" fill="#636363"/>
        <path id="Trazado_158740" data-name="Trazado 158740" d="M51.412,19.516H65.226v3.959H55.984V34.7H63.94v3.978H55.984V49.9h9.242v3.938H51.412Zm13-5.344L59.229,17.5H56.438l4.3-3.94h3.681Z" transform="translate(56.621 14.933)" fill="#636363"/>
        <path id="Trazado_158741" data-name="Trazado 158741" d="M64.937,23.056q0-6.887,7.718-6.888t7.72,6.888v4.236H75.8V23.056q0-2.928-3.127-2.929h-.04q-3.13,0-3.127,2.929v3.207q0,2.651,5.7,6.235,5.166,3.243,5.167,7.737v4.474q0,6.909-7.7,6.907-7.738-.019-7.739-6.907V40.493h4.572v4.215q0,2.95,3.167,2.95,3.127,0,3.127-2.95V40.671q0-2.83-5.7-6.432-5.166-3.247-5.165-7.857Z" transform="translate(71.516 17.806)" fill="#636363"/>
        <path id="Trazado_158742" data-name="Trazado 158742" d="M74.544,16.394H88.358v3.959H79.116V31.574h7.956v3.978H79.116V46.775h9.242v3.938H74.544Z" transform="translate(82.096 18.055)" fill="#636363"/>
        <path id="Trazado_158743" data-name="Trazado 158743" d="M99.738,50.713H92.831l-4.018-22.4-1.78-11.914h4.61l4.631,30.875,4.631-30.875h4.652l-1.822,11.954Z" transform="translate(95.851 18.055)" fill="#636363"/>
        <path id="Trazado_158744" data-name="Trazado 158744" d="M113.307,38.779l1.82,11.933h-4.65l-1.128-7.5h-6.987l-1.147,7.5H96.6l1.782-11.9L102.4,16.394h6.907Zm-4.554.454-2.908-19.4-2.91,19.4Z" transform="translate(106.389 18.055)" fill="#636363"/>
        <path id="Trazado_158745" data-name="Trazado 158745" d="M127.661,38.779l1.82,11.933h-4.65l-1.128-7.5h-6.987l-1.147,7.5h-4.612l1.782-11.9,4.018-22.423h6.907Zm-4.554.454-2.908-19.4-2.91,19.4Z" transform="translate(122.197 18.055)" fill="#636363"/>
        <path id="Trazado_158746" data-name="Trazado 158746" d="M126.158,16.394h4.572v15.18h6.293V16.394h4.57V50.713h-4.57V35.552h-6.293V50.713h-4.572Z" transform="translate(138.939 18.055)" fill="#636363"/>
        <path id="Trazado_158747" data-name="Trazado 158747" d="M151.811,38.779l1.82,11.933h-4.65l-1.128-7.5h-6.987l-1.147,7.5h-4.612l1.782-11.9,4.018-22.423h6.907Zm-4.553.454-2.908-19.4-2.91,19.4Z" transform="translate(148.794 18.055)" fill="#636363"/>
        <path id="Trazado_158748" data-name="Trazado 158748" d="M160.772,44.708q0,6.887-7.72,6.907-7.716,0-7.716-6.907V23.056q0-6.887,7.716-6.888t7.72,6.888V27.29H156.2V23.056q0-2.928-3.127-2.929h-.038q-3.127,0-3.127,2.929V44.708q0,2.95,3.144,2.948t3.148-2.948V40.493h4.572Z" transform="translate(160.06 17.806)" fill="#636363"/>
        <path id="Trazado_158749" data-name="Trazado 158749" d="M154.849,16.394h13.814v3.959h-9.242V31.574h7.956v3.978h-7.956V46.775h9.242v3.938H154.849Z" transform="translate(170.537 18.055)" fill="#636363"/>
        <path id="Trazado_158750" data-name="Trazado 158750" d="M163.4,16.394h7.838q7.1.022,7.107,6.907v5.325q0,4.3-4.73,5.837l6.43,16.249H175L169.754,35.1l-1.782.219v15.4H163.4Zm4.572,3.959V31.574h1.939a7.173,7.173,0,0,0,1.9-.177,2.723,2.723,0,0,0,1.961-2.772V23.3q0-2.947-3.129-2.948Z" transform="translate(179.954 18.055)" fill="#636363"/>
        <path id="Trazado_158751" data-name="Trazado 158751" d="M181.3,16.394l4.434,15.478,4.453-15.478h4.85l-7.008,19.891V50.713h-4.572V36.285l-6.985-19.891Z" transform="translate(194.352 18.055)" fill="#636363"/>
        <path id="Trazado_158752" data-name="Trazado 158752" d="M191.694,16.394h7.838q7.1.022,7.107,6.907v5.325q0,5.087-5.127,6.552a13.6,13.6,0,0,1-3.681.374h-1.563V50.713h-4.572Zm4.572,3.959V31.574h1.94a7.173,7.173,0,0,0,1.9-.177,2.723,2.723,0,0,0,1.961-2.772V23.3q0-2.947-3.129-2.948Z" transform="translate(211.115 18.055)" fill="#636363"/>
        <path id="Trazado_158753" data-name="Trazado 158753" d="M216.639,38.779l1.82,11.933h-4.65l-1.128-7.5h-6.987l-1.147,7.5h-4.61l1.78-11.9,4.02-22.423h6.907Zm-4.551.454-2.91-19.4-2.91,19.4Z" transform="translate(220.192 18.055)" fill="#636363"/>
        <path id="Trazado_158754" data-name="Trazado 158754" d="M210.352,16.394h7.838q7.1.022,7.107,6.907v5.325q0,4.3-4.73,5.837L227,50.713h-5.045L216.706,35.1l-1.782.219v15.4h-4.572Zm4.572,3.959V31.574h1.94a7.173,7.173,0,0,0,1.9-.177,2.723,2.723,0,0,0,1.961-2.772V23.3q0-2.947-3.129-2.948Z" transform="translate(231.663 18.055)" fill="#636363"/>
        <path id="Trazado_158755" data-name="Trazado 158755" d="M235.636,38.779l1.82,11.933h-4.65l-1.128-7.5h-6.987l-1.147,7.5h-4.61l1.78-11.9,4.02-22.423h6.907Zm-4.551.454-2.91-19.4-2.91,19.4Z" transform="translate(241.113 18.055)" fill="#636363"/>
        <path id="Trazado_158756" data-name="Trazado 158756" d="M249.384,45.019q0,6.156-6.392,6.867.173,2.159,6.392,2.2V57.27a16.092,16.092,0,0,1-6.176-.83q-2.178-.971-2.236-4.533-7.029-.454-7.027-6.888V23.367q0-6.906,7.718-6.907t7.72,6.907Zm-4.572-21.652q0-2.928-3.127-2.948h-.04q-3.127,0-3.127,2.948V45.019q0,2.928,3.146,2.929t3.148-2.929Z" transform="translate(257.647 18.128)" fill="#636363"/>
        <path id="Trazado_158757" data-name="Trazado 158757" d="M258.9,44.417q0,6.887-7.718,6.907-7.719,0-7.72-6.907V16.432h4.572V44.417q0,2.928,3.148,2.929t3.146-2.929V16.432H258.9Z" transform="translate(268.124 18.097)" fill="#636363"/>
        <path id="Trazado_158758" data-name="Trazado 158758" d="M253.161,19.516h13.814v3.959h-9.244V34.7h7.956v3.978h-7.956V49.9h9.244v3.938H253.161Zm13-5.344L260.976,17.5h-2.788l4.293-3.94h3.681Z" transform="translate(278.809 14.933)" fill="#636363"/>
        <path id="Trazado_158759" data-name="Trazado 158759" d="M277.432,25.756a11.983,11.983,0,0,1-3.9,8.729Q269.28,38.74,269.279,42v1.523h-4.572V41.511a11.878,11.878,0,0,1,3.9-8.63q4.252-4.217,4.253-7.264v-3.9q0-3.344-3.106-3.345h-.04q-3.149,0-3.148,3.345v4.77h-4.573v-4.77q0-7.858,7.739-7.859,7.7,0,7.7,7.859ZM264.371,48.082h5.442v5.442h-5.442Z" transform="translate(288.537 15.264)" fill="#636363"/>
        <rect id="Rectángulo_11817" data-name="Rectángulo 11817" width="294" height="35" rx="14" transform="translate(315 90.188)" fill="#d44f4a"/>
        <g id="Grupo_71370" data-name="Grupo 71370" transform="translate(379 99.188)">
          <g id="Grupo_71370-2" data-name="Grupo 71370" clip-path="url(#clip-path)">
            <path id="Trazado_158850" data-name="Trazado 158850" d="M9.688,6.571a6.848,6.848,0,0,1-.595,2.945,4.468,4.468,0,0,1-1.7,1.953,4.7,4.7,0,0,1-2.535.688,4.741,4.741,0,0,1-2.524-.68A4.518,4.518,0,0,1,.617,9.535,6.622,6.622,0,0,1,0,6.633V6.071A6.809,6.809,0,0,1,.606,3.114,4.5,4.5,0,0,1,2.317,1.153,4.7,4.7,0,0,1,4.843.469a4.709,4.709,0,0,1,2.528.684A4.516,4.516,0,0,1,9.082,3.114a6.82,6.82,0,0,1,.606,2.949ZM7.313,6.055a4.79,4.79,0,0,0-.642-2.719,2.086,2.086,0,0,0-1.828-.929,2.087,2.087,0,0,0-1.82.918,4.713,4.713,0,0,0-.647,2.691v.555a4.849,4.849,0,0,0,.64,2.7,2.082,2.082,0,0,0,1.843.961,2.063,2.063,0,0,0,1.812-.926,4.823,4.823,0,0,0,.642-2.7Z" fill="#fff"/>
            <path id="Trazado_158851" data-name="Trazado 158851" d="M19.179,7.851a5.118,5.118,0,0,1-.867,3.168,2.874,2.874,0,0,1-2.422,1.137,2.641,2.641,0,0,1-2.2-1.055l-.1.9H11.562V0h2.257V4.3a2.573,2.573,0,0,1,2.055-.914A2.9,2.9,0,0,1,18.3,4.527a5.125,5.125,0,0,1,.879,3.2Zm-2.258-.164a3.37,3.37,0,0,0-.406-1.871,1.373,1.373,0,0,0-1.211-.59,1.49,1.49,0,0,0-1.485.883V9.445a1.509,1.509,0,0,0,1.5.89,1.4,1.4,0,0,0,1.438-1.078,5.571,5.571,0,0,0,.164-1.57" fill="#fff"/>
            <path id="Trazado_158852" data-name="Trazado 158852" d="M23.28,3.547v8.914a3.021,3.021,0,0,1-.742,2.175,2.818,2.818,0,0,1-2.14.778,4.578,4.578,0,0,1-1.118-.133V13.492a4.225,4.225,0,0,0,.711.07q1.023,0,1.024-1.086V3.547ZM20.835,1.359a1.11,1.11,0,0,1,.34-.836,1.47,1.47,0,0,1,1.851,0,1.11,1.11,0,0,1,.34.836,1.111,1.111,0,0,1-.347.844,1.449,1.449,0,0,1-1.836,0,1.108,1.108,0,0,1-.348-.844" fill="#fff"/>
            <path id="Trazado_158853" data-name="Trazado 158853" d="M29.257,12.156a4.152,4.152,0,0,1-3.028-1.14,4.059,4.059,0,0,1-1.168-3.039V7.758a5.1,5.1,0,0,1,.493-2.277,3.616,3.616,0,0,1,1.394-1.547,3.907,3.907,0,0,1,2.059-.543,3.508,3.508,0,0,1,2.73,1.093,4.446,4.446,0,0,1,1,3.1v.922H27.351a2.093,2.093,0,0,0,.66,1.328,2,2,0,0,0,1.394.5,2.436,2.436,0,0,0,2.039-.945l1.11,1.242a3.4,3.4,0,0,1-1.375,1.121,4.5,4.5,0,0,1-1.922.4M29,5.211a1.408,1.408,0,0,0-1.09.455,2.356,2.356,0,0,0-.535,1.3h3.141V6.788a1.681,1.681,0,0,0-.407-1.165A1.457,1.457,0,0,0,29,5.211" fill="#fff"/>
            <path id="Trazado_158854" data-name="Trazado 158854" d="M37.038,1.469V3.547h1.445V5.2H37.038V9.422a1.007,1.007,0,0,0,.18.672.9.9,0,0,0,.687.2,3.554,3.554,0,0,0,.664-.055v1.711a4.629,4.629,0,0,1-1.367.2,2.156,2.156,0,0,1-2.422-2.4V5.2H33.546V3.547H34.78V1.469Z" fill="#fff"/>
            <path id="Trazado_158855" data-name="Trazado 158855" d="M40.045,1.359a1.114,1.114,0,0,1,.34-.836,1.465,1.465,0,0,1,1.848,0,1.106,1.106,0,0,1,.344.836,1.112,1.112,0,0,1-.348.844,1.449,1.449,0,0,1-1.836,0,1.108,1.108,0,0,1-.348-.844M42.444,12H40.178V3.547h2.266Z" fill="#fff"/>
            <path id="Trazado_158856" data-name="Trazado 158856" d="M47.787,9.242l1.57-5.695h2.36L48.865,12H46.709L43.857,3.547h2.36Z" fill="#fff"/>
            <path id="Trazado_158857" data-name="Trazado 158857" d="M52.56,7.7a5,5,0,0,1,.485-2.242,3.539,3.539,0,0,1,1.394-1.524,4.072,4.072,0,0,1,2.113-.539,3.848,3.848,0,0,1,2.793,1.047,4.2,4.2,0,0,1,1.207,2.844l.016.578a4.418,4.418,0,0,1-1.086,3.121,4.208,4.208,0,0,1-5.832,0A4.494,4.494,0,0,1,52.56,7.8Zm2.258.16A3.16,3.16,0,0,0,55.271,9.7a1.629,1.629,0,0,0,2.578.008,3.461,3.461,0,0,0,.461-2.015,3.13,3.13,0,0,0-.461-1.831,1.5,1.5,0,0,0-1.3-.65,1.472,1.472,0,0,0-1.281.646,3.518,3.518,0,0,0-.453,2" fill="#fff"/>
            <path id="Trazado_158858" data-name="Trazado 158858" d="M66.857,9.664a.728.728,0,0,0-.41-.652,4.634,4.634,0,0,0-1.317-.426q-3.015-.633-3.015-2.563a2.324,2.324,0,0,1,.933-1.879,3.769,3.769,0,0,1,2.442-.753,4.055,4.055,0,0,1,2.574.757,2.39,2.39,0,0,1,.965,1.969H66.771a1.094,1.094,0,0,0-.312-.8A1.325,1.325,0,0,0,65.482,5a1.351,1.351,0,0,0-.883.258.814.814,0,0,0-.312.656.694.694,0,0,0,.355.605,3.65,3.65,0,0,0,1.2.4,9.719,9.719,0,0,1,1.422.379A2.335,2.335,0,0,1,69.052,9.57a2.2,2.2,0,0,1-.992,1.871,4.274,4.274,0,0,1-2.562.715,4.462,4.462,0,0,1-1.887-.379,3.155,3.155,0,0,1-1.293-1.039,2.41,2.41,0,0,1-.469-1.426H63.99a1.176,1.176,0,0,0,.445.922,1.765,1.765,0,0,0,1.11.321,1.636,1.636,0,0,0,.98-.246.768.768,0,0,0,.332-.645" fill="#fff"/>
            <path id="Trazado_158859" data-name="Trazado 158859" d="M74.778,7.711a5.1,5.1,0,0,1,.887-3.148,2.874,2.874,0,0,1,2.426-1.172,2.59,2.59,0,0,1,2.039.922V0h2.265V12H80.356l-.109-.9a2.658,2.658,0,0,1-2.172,1.054,2.866,2.866,0,0,1-2.394-1.175,5.259,5.259,0,0,1-.9-3.27m2.258.168A3.338,3.338,0,0,0,77.45,9.7a1.348,1.348,0,0,0,1.2.634,1.512,1.512,0,0,0,1.477-.884V6.11a1.491,1.491,0,0,0-1.461-.883q-1.633,0-1.633,2.652" fill="#fff"/>
            <path id="Trazado_158860" data-name="Trazado 158860" d="M88.356,12.156a4.152,4.152,0,0,1-3.028-1.14A4.059,4.059,0,0,1,84.16,7.977V7.758a5.1,5.1,0,0,1,.493-2.277,3.616,3.616,0,0,1,1.394-1.547,3.907,3.907,0,0,1,2.059-.543,3.507,3.507,0,0,1,2.73,1.093,4.446,4.446,0,0,1,1,3.1v.922H86.45a2.093,2.093,0,0,0,.66,1.328,2,2,0,0,0,1.394.5,2.436,2.436,0,0,0,2.039-.945l1.11,1.242a3.4,3.4,0,0,1-1.375,1.121,4.5,4.5,0,0,1-1.922.4M88.1,5.211a1.408,1.408,0,0,0-1.09.455,2.356,2.356,0,0,0-.535,1.3h3.141V6.788a1.681,1.681,0,0,0-.407-1.165A1.457,1.457,0,0,0,88.1,5.211" fill="#fff"/>
            <rect id="Rectángulo_11822" data-name="Rectángulo 11822" width="2.266" height="12" transform="translate(93.55 0)" fill="#fff"/>
            <path id="Trazado_158861" data-name="Trazado 158861" d="M109.91,7.851a5.072,5.072,0,0,1-.887,3.129,2.843,2.843,0,0,1-2.394,1.176,2.633,2.633,0,0,1-2.071-.891v3.984H102.3V3.546h2.094l.078.828a2.655,2.655,0,0,1,2.141-.984,2.867,2.867,0,0,1,2.43,1.156,5.208,5.208,0,0,1,.867,3.188Zm-2.258-.164a3.33,3.33,0,0,0-.418-1.82,1.363,1.363,0,0,0-1.215-.641,1.479,1.479,0,0,0-1.461.813V9.5a1.5,1.5,0,0,0,1.477.836q1.617,0,1.617-2.648" fill="#fff"/>
            <path id="Trazado_158862" data-name="Trazado 158862" d="M116.378,5.664a6.075,6.075,0,0,0-.812-.062,1.653,1.653,0,0,0-1.68.867V12h-2.258V3.547h2.133l.062,1.008a2.09,2.09,0,0,1,1.883-1.164,2.384,2.384,0,0,1,.7.1Z" fill="#fff"/>
            <path id="Trazado_158863" data-name="Trazado 158863" d="M117.151,7.7a5,5,0,0,1,.485-2.242,3.538,3.538,0,0,1,1.394-1.524,4.072,4.072,0,0,1,2.113-.539,3.848,3.848,0,0,1,2.793,1.047,4.2,4.2,0,0,1,1.207,2.844l.016.578a4.418,4.418,0,0,1-1.086,3.121,4.208,4.208,0,0,1-5.832,0,4.494,4.494,0,0,1-1.09-3.188Zm2.258.16a3.16,3.16,0,0,0,.453,1.843,1.629,1.629,0,0,0,2.578.008,3.461,3.461,0,0,0,.461-2.015,3.13,3.13,0,0,0-.461-1.831,1.5,1.5,0,0,0-1.3-.65,1.472,1.472,0,0,0-1.281.646,3.518,3.518,0,0,0-.453,2" fill="#fff"/>
            <path id="Trazado_158864" data-name="Trazado 158864" d="M129.908,8.805l1.562-5.258h2.422l-3.4,9.766-.188.445a2.573,2.573,0,0,1-2.5,1.656,3.548,3.548,0,0,1-1-.148V13.555l.344.008a1.855,1.855,0,0,0,.956-.2,1.278,1.278,0,0,0,.5-.648l.266-.695-2.961-8.477h2.43Z" fill="#fff"/>
            <path id="Trazado_158865" data-name="Trazado 158865" d="M138.893,12.156a4.152,4.152,0,0,1-3.028-1.14A4.055,4.055,0,0,1,134.7,7.977V7.758a5.1,5.1,0,0,1,.493-2.277,3.616,3.616,0,0,1,1.394-1.547,3.9,3.9,0,0,1,2.059-.543,3.508,3.508,0,0,1,2.73,1.093,4.446,4.446,0,0,1,1,3.1v.922h-5.382a2.093,2.093,0,0,0,.66,1.328,2,2,0,0,0,1.394.5,2.439,2.439,0,0,0,2.039-.945l1.11,1.242a3.4,3.4,0,0,1-1.375,1.121,4.5,4.5,0,0,1-1.922.4m-.258-6.945a1.408,1.408,0,0,0-1.09.455,2.356,2.356,0,0,0-.535,1.3h3.141V6.788a1.686,1.686,0,0,0-.407-1.165,1.457,1.457,0,0,0-1.109-.412" fill="#fff"/>
            <path id="Trazado_158866" data-name="Trazado 158866" d="M147.486,10.336a1.48,1.48,0,0,0,1.016-.344,1.211,1.211,0,0,0,.406-.914h2.117a2.9,2.9,0,0,1-.469,1.574,3.093,3.093,0,0,1-1.261,1.11,3.967,3.967,0,0,1-1.77.394A3.664,3.664,0,0,1,144.666,11a4.556,4.556,0,0,1-1.047-3.184V7.672a4.506,4.506,0,0,1,1.039-3.117,3.621,3.621,0,0,1,2.851-1.164,3.554,3.554,0,0,1,2.543.9,3.2,3.2,0,0,1,.973,2.4h-2.117a1.564,1.564,0,0,0-.406-1.072,1.511,1.511,0,0,0-2.223.163,3.327,3.327,0,0,0-.4,1.866v.235a3.374,3.374,0,0,0,.4,1.878,1.376,1.376,0,0,0,1.211.571" fill="#fff"/>
            <path id="Trazado_158867" data-name="Trazado 158867" d="M155.337,1.469V3.547h1.445V5.2h-1.445V9.422a1.007,1.007,0,0,0,.18.672.9.9,0,0,0,.687.2,3.546,3.546,0,0,0,.664-.055v1.711a4.624,4.624,0,0,1-1.367.2,2.156,2.156,0,0,1-2.422-2.4V5.2h-1.234V3.547h1.234V1.469Z" fill="#fff"/>
            <path id="Trazado_158868" data-name="Trazado 158868" d="M157.774,7.7a5,5,0,0,1,.485-2.242,3.551,3.551,0,0,1,1.394-1.524,4.074,4.074,0,0,1,2.113-.539,3.848,3.848,0,0,1,2.793,1.047,4.2,4.2,0,0,1,1.207,2.844l.016.578A4.418,4.418,0,0,1,164.7,10.98a4.208,4.208,0,0,1-5.832,0,4.494,4.494,0,0,1-1.09-3.188Zm2.258.16a3.16,3.16,0,0,0,.453,1.843,1.629,1.629,0,0,0,2.578.008,3.454,3.454,0,0,0,.461-2.015,3.122,3.122,0,0,0-.461-1.831,1.5,1.5,0,0,0-1.3-.65,1.474,1.474,0,0,0-1.281.646,3.518,3.518,0,0,0-.453,2" fill="#fff"/>
          </g>
        </g>
      </g>
    </g>
  </g>
</svg>
