<svg xmlns="http://www.w3.org/2000/svg" xmlns:xlink="http://www.w3.org/1999/xlink" width="609.899" height="124.698" viewBox="0 0 609.899 124.698">
  <defs>
    <linearGradient id="linear-gradient" x1="0.5" x2="0.5" y2="1" gradientUnits="objectBoundingBox">
      <stop offset="0" stop-color="#fff" stop-opacity="0"/>
      <stop offset="1" stop-color="#fff"/>
    </linearGradient>
    <clipPath id="clip-path">
      <rect id="Rectángulo_11830" data-name="Rectángulo 11830" width="161.494" height="15.414" transform="translate(0 0)" fill="none"/>
    </clipPath>
  </defs>
  <g id="Grupo_71385" data-name="Grupo 71385" transform="translate(-368 10787.698)">
    <path id="Trazado_158760" data-name="Trazado 158760" d="M9.26,0H598.639a9.26,9.26,0,0,1,9.26,9.26V93.986a9.26,9.26,0,0,1-9.26,9.26H9.26A9.26,9.26,0,0,1,0,93.986V9.26A9.26,9.26,0,0,1,9.26,0Z" transform="translate(369 -10786.698)" stroke="#d44f4a" stroke-width="2" fill="url(#linear-gradient)"/>
    <rect id="Rectángulo_11817" data-name="Rectángulo 11817" width="294" height="35" rx="14" transform="translate(683 -10698)" fill="#d44f4a"/>
    <g id="Grupo_71366" data-name="Grupo 71366" transform="translate(-77 -95.418)">
      <path id="Trazado_158798" data-name="Trazado 158798" d="M0,111.04a11.728,11.728,0,0,1,3.814-8.54q4.164-4.164,4.164-7.36V93.648h4.475v1.976a11.636,11.636,0,0,1-3.814,8.443q-4.164,4.127-4.164,7.109v3.814q0,3.276,3.039,3.274h.039q3.078,0,3.08-3.274v-4.668h4.475v4.668q0,7.69-7.573,7.691Q0,122.681,0,114.99ZM12.782,89.194H7.456V83.868h5.326Z" transform="translate(503 -10743.395)" fill="#636363"/>
      <path id="Trazado_158799" data-name="Trazado 158799" d="M22.526,98.552v4.415H14.741v12.474h9.044v4.4H10.267V81.682H23.785v4.4H14.741V98.552Z" transform="translate(513.845 -10745.703)" fill="#636363"/>
      <path id="Trazado_158800" data-name="Trazado 158800" d="M18.818,83.905h4.59l6.469,24.133V83.983l4.047-.06v33.565h-4.59L23.079,93.977v23.512H18.818Z" transform="translate(522.878 -10743.355)" fill="#636363"/>
      <path id="Trazado_158801" data-name="Trazado 158801" d="M48.318,111.918q0,6.024-6.257,6.72.176,2.113,6.257,2.151v3.117a15.755,15.755,0,0,1-6.044-.812q-2.131-.95-2.188-4.436-6.878-.444-6.876-6.741V90.73q0-6.758,7.553-6.759t7.555,6.759ZM43.843,90.73q0-2.865-3.06-2.885h-.039q-3.063,0-3.06,2.885v21.188q0,2.865,3.078,2.867t3.08-2.867Z" transform="translate(538.08 -10743.286)" fill="#636363"/>
      <path id="Trazado_158802" data-name="Trazado 158802" d="M57.831,111.329q0,6.74-7.553,6.759-7.557,0-7.555-6.759V83.943H47.2v27.386q0,2.865,3.08,2.867t3.078-2.867V83.943h4.475Z" transform="translate(548.129 -10743.315)" fill="#636363"/>
      <path id="Trazado_158803" data-name="Trazado 158803" d="M52.424,86.9H65.942v3.874H56.9v10.981h7.785v3.893H56.9V116.63h9.044v3.854H52.424ZM65.149,81.67l-5.075,3.255H57.343l4.2-3.856h3.6Z" transform="translate(558.377 -10746.351)" fill="#636363"/>
      <path id="Trazado_158804" data-name="Trazado 158804" d="M80.492,83.905v3.874H75.184v29.71H70.712V87.779H65.384V83.905Z" transform="translate(572.066 -10743.355)" fill="#636363"/>
      <rect id="Rectángulo_11819" data-name="Rectángulo 11819" width="4.475" height="33.584" transform="translate(656.14 -10659.451)" fill="#636363"/>
      <path id="Trazado_158805" data-name="Trazado 158805" d="M79.145,83.905H92.663v3.874H83.62V98.76H91.4v3.893H83.62v10.983h9.044v3.854H79.145Z" transform="translate(586.602 -10743.355)" fill="#636363"/>
      <path id="Trazado_158806" data-name="Trazado 158806" d="M99.453,109.316l7.088-25.41h4.592V117.49h-4.242V93.706l-5.926,23.783H98.079L92,93.842V117.49H87.7V83.906h4.61Z" transform="translate(595.636 -10743.355)" fill="#636363"/>
      <path id="Trazado_158807" data-name="Trazado 158807" d="M101.543,83.9h7.67q6.952.022,6.952,6.759v5.211q0,4.978-5.015,6.412a13.332,13.332,0,0,1-3.6.366h-1.53v14.836h-4.475Zm4.475,3.874V98.76h1.9a7.029,7.029,0,0,0,1.859-.173,2.661,2.661,0,0,0,1.916-2.712V90.664q0-2.884-3.06-2.885Z" transform="translate(610.262 -10743.355)" fill="#636363"/>
      <path id="Trazado_158808" data-name="Trazado 158808" d="M125.551,111.608q0,6.74-7.555,6.759-7.554,0-7.553-6.759V90.42q0-6.74,7.553-6.741t7.555,6.741ZM121.076,90.42q0-2.865-3.06-2.867h-.039q-3.063,0-3.06,2.867v21.188q0,2.887,3.078,2.887t3.08-2.887Z" transform="translate(619.663 -10743.595)" fill="#636363"/>
      <path id="Trazado_158809" data-name="Trazado 158809" d="M124.646,90.42q0-6.74,7.553-6.741t7.555,6.741v4.146h-4.475V90.42q0-2.865-3.06-2.867h-.037q-3.063,0-3.062,2.867v3.138q0,2.594,5.579,6.1,5.055,3.174,5.054,7.571v4.378q0,6.761-7.534,6.759-7.572-.018-7.573-6.759v-4.125h4.475v4.125q0,2.887,3.1,2.887,3.06,0,3.06-2.887v-3.95q0-2.77-5.579-6.294-5.055-3.177-5.054-7.689Z" transform="translate(634.666 -10743.595)" fill="#636363"/>
      <path id="Trazado_158810" data-name="Trazado 158810" d="M134.254,83.905h13.518v3.874h-9.044V98.76h7.785v3.893h-7.785v10.983h9.044v3.854H134.254Z" transform="translate(644.816 -10743.355)" fill="#636363"/>
      <path id="Trazado_158811" data-name="Trazado 158811" d="M159.178,117.489h-6.759l-3.932-21.924-1.744-11.659h4.512l4.534,30.214,4.532-30.214h4.551l-1.783,11.7Z" transform="translate(658.008 -10743.355)" fill="#636363"/>
      <path id="Trazado_158812" data-name="Trazado 158812" d="M172.659,105.811l1.781,11.678h-4.551l-1.1-7.341h-6.837l-1.123,7.341h-4.512l1.742-11.641L161.988,83.9h6.759Zm-4.454.444-2.848-18.98-2.848,18.98Z" transform="translate(668.117 -10743.355)" fill="#636363"/>
      <path id="Trazado_158813" data-name="Trazado 158813" d="M187.014,105.811l1.781,11.678h-4.551l-1.1-7.341H176.3l-1.123,7.341h-4.512l1.742-11.641L176.343,83.9H183.1Zm-4.454.444-2.848-18.98-2.848,18.98Z" transform="translate(683.28 -10743.355)" fill="#636363"/>
      <path id="Trazado_158814" data-name="Trazado 158814" d="M185.869,83.905h4.475V98.76H196.5V83.905h4.475v33.584H196.5V102.653h-6.159v14.836h-4.475Z" transform="translate(699.337 -10743.355)" fill="#636363"/>
      <path id="Trazado_158815" data-name="Trazado 158815" d="M211.163,105.811l1.781,11.678h-4.551l-1.1-7.341h-6.837l-1.123,7.341h-4.512l1.742-11.641L200.492,83.9h6.759Zm-4.454.444-2.848-18.98-2.848,18.98Z" transform="translate(708.789 -10743.355)" fill="#636363"/>
      <path id="Trazado_158816" data-name="Trazado 158816" d="M220.153,111.608q0,6.74-7.555,6.759-7.551,0-7.553-6.759V90.42q0-6.74,7.553-6.741t7.555,6.741v4.143h-4.475V90.42q0-2.865-3.06-2.867h-.039q-3.06,0-3.06,2.867v21.188q0,2.887,3.078,2.885t3.08-2.885v-4.125h4.475Z" transform="translate(719.593 -10743.595)" fill="#636363"/>
      <path id="Trazado_158817" data-name="Trazado 158817" d="M214.558,83.905h13.518v3.874h-9.044V98.76h7.785v3.893h-7.785v10.983h9.044v3.854H214.558Z" transform="translate(729.642 -10743.355)" fill="#636363"/>
      <path id="Trazado_158818" data-name="Trazado 158818" d="M223.11,83.9h7.67q6.952.022,6.955,6.759v5.211q0,4.2-4.629,5.712l6.292,15.9h-4.937l-5.133-15.281-1.744.214v15.067H223.11Zm4.475,3.874V98.76h1.9a7.019,7.019,0,0,0,1.859-.173,2.665,2.665,0,0,0,1.919-2.712V90.664q0-2.884-3.062-2.885Z" transform="translate(738.676 -10743.355)" fill="#636363"/>
      <path id="Trazado_158819" data-name="Trazado 158819" d="M247.552,93.011a11.735,11.735,0,0,1-3.817,8.542q-4.164,4.164-4.162,7.36V110.4H235.1v-1.974a11.633,11.633,0,0,1,3.814-8.445q4.164-4.127,4.164-7.109V89.061q0-3.273-3.041-3.274H240q-3.081,0-3.08,3.274v4.668h-4.475V89.061q0-7.69,7.571-7.689,7.538,0,7.536,7.689ZM234.77,114.859H240.1v5.326H234.77Z" transform="translate(748.535 -10746.031)" fill="#636363"/>
    </g>
    <g id="Grupo_71377" data-name="Grupo 71377" transform="translate(749 -10688)">
      <g id="Grupo_71376" data-name="Grupo 71376" clip-path="url(#clip-path)">
        <path id="Trazado_158920" data-name="Trazado 158920" d="M0,12V.625H3.5A5.321,5.321,0,0,1,6.184,1.3,4.708,4.708,0,0,1,8.031,3.222,5.915,5.915,0,0,1,8.7,6.054v.524A5.932,5.932,0,0,1,8.043,9.4,4.663,4.663,0,0,1,6.2,11.312,5.35,5.35,0,0,1,3.524,12ZM2.344,2.523v7.594H3.477a2.543,2.543,0,0,0,2.1-.9,4.052,4.052,0,0,0,.743-2.57v-.6A4.122,4.122,0,0,0,5.6,3.418a2.535,2.535,0,0,0-2.1-.895Z" fill="#fff"/>
        <path id="Trazado_158921" data-name="Trazado 158921" d="M15.633,11.141a2.833,2.833,0,0,1-2.313,1.016,2.671,2.671,0,0,1-2.074-.782,3.334,3.334,0,0,1-.73-2.289V3.547h2.258V9.014q0,1.323,1.2,1.322a1.629,1.629,0,0,0,1.578-.8V3.547h2.266V12H15.695Z" fill="#fff"/>
        <path id="Trazado_158922" data-name="Trazado 158922" d="M24.594,5.664a6.075,6.075,0,0,0-.812-.062,1.653,1.653,0,0,0-1.68.867V12H19.844V3.547h2.133l.062,1.008a2.089,2.089,0,0,1,1.883-1.164,2.384,2.384,0,0,1,.7.1Z" fill="#fff"/>
        <path id="Trazado_158923" data-name="Trazado 158923" d="M30.664,12a2.461,2.461,0,0,1-.226-.758,2.731,2.731,0,0,1-2.133.915,3,3,0,0,1-2.059-.719,2.31,2.31,0,0,1-.816-1.813,2.389,2.389,0,0,1,1-2.062,4.906,4.906,0,0,1,2.879-.727h1.039V6.352a1.4,1.4,0,0,0-.3-.938,1.185,1.185,0,0,0-.949-.351,1.345,1.345,0,0,0-.9.273.931.931,0,0,0-.324.75H25.617a2.269,2.269,0,0,1,.453-1.359,2.992,2.992,0,0,1,1.282-.981,4.662,4.662,0,0,1,1.859-.355,3.7,3.7,0,0,1,2.481.785,2.75,2.75,0,0,1,.918,2.207v3.664a4.02,4.02,0,0,0,.335,1.82V12ZM28.8,10.43a1.942,1.942,0,0,0,.922-.223,1.469,1.469,0,0,0,.625-.6V8.157H29.5q-1.7,0-1.805,1.171l-.007.133a.9.9,0,0,0,.3.7,1.151,1.151,0,0,0,.812.273" fill="#fff"/>
        <path id="Trazado_158924" data-name="Trazado 158924" d="M38.179,10.336a1.478,1.478,0,0,0,1.016-.344,1.208,1.208,0,0,0,.406-.914h2.117a2.886,2.886,0,0,1-.469,1.574,3.086,3.086,0,0,1-1.261,1.11,3.967,3.967,0,0,1-1.77.394A3.667,3.667,0,0,1,35.359,11,4.556,4.556,0,0,1,34.312,7.82V7.672a4.506,4.506,0,0,1,1.039-3.117A3.622,3.622,0,0,1,38.2,3.391a3.551,3.551,0,0,1,2.543.9,3.2,3.2,0,0,1,.973,2.4H39.6a1.559,1.559,0,0,0-.406-1.072,1.511,1.511,0,0,0-2.223.163,3.327,3.327,0,0,0-.4,1.866v.235a3.374,3.374,0,0,0,.4,1.878,1.376,1.376,0,0,0,1.211.571" fill="#fff"/>
        <path id="Trazado_158925" data-name="Trazado 158925" d="M43.312,1.359a1.113,1.113,0,0,1,.339-.836,1.465,1.465,0,0,1,1.848,0,1.1,1.1,0,0,1,.344.836,1.108,1.108,0,0,1-.348.844,1.449,1.449,0,0,1-1.836,0,1.111,1.111,0,0,1-.347-.844M45.71,12H43.444V3.547H45.71Z" fill="#fff"/>
        <path id="Trazado_158926" data-name="Trazado 158926" d="M47.538,7.7a5.023,5.023,0,0,1,.484-2.242A3.548,3.548,0,0,1,49.416,3.93a4.068,4.068,0,0,1,2.114-.539,3.849,3.849,0,0,1,2.793,1.046A4.2,4.2,0,0,1,55.53,7.281l.015.578a4.413,4.413,0,0,1-1.086,3.121,4.208,4.208,0,0,1-5.832,0A4.5,4.5,0,0,1,47.538,7.8Zm2.257.16A3.167,3.167,0,0,0,50.248,9.7a1.628,1.628,0,0,0,2.579.008,3.462,3.462,0,0,0,.46-2.015,3.13,3.13,0,0,0-.46-1.831,1.5,1.5,0,0,0-1.3-.649,1.477,1.477,0,0,0-1.282.645,3.527,3.527,0,0,0-.453,2M51.975,0h2.461L52.272,2.422H50.436Z" fill="#fff"/>
        <path id="Trazado_158927" data-name="Trazado 158927" d="M59.334,3.547l.07.977a2.953,2.953,0,0,1,2.43-1.133,2.45,2.45,0,0,1,2,.789,3.68,3.68,0,0,1,.672,2.359V12H62.248V6.594a1.46,1.46,0,0,0-.312-1.043,1.4,1.4,0,0,0-1.04-.324,1.553,1.553,0,0,0-1.429.812V12H57.209V3.547Z" fill="#fff"/>
        <path id="Trazado_158928" data-name="Trazado 158928" d="M70.49,7.711a5.088,5.088,0,0,1,.887-3.148A2.872,2.872,0,0,1,73.8,3.391a2.59,2.59,0,0,1,2.039.922V0h2.265V12H76.068l-.109-.9a2.658,2.658,0,0,1-2.172,1.054,2.865,2.865,0,0,1-2.394-1.175,5.259,5.259,0,0,1-.9-3.27m2.258.168A3.329,3.329,0,0,0,73.162,9.7a1.346,1.346,0,0,0,1.2.634,1.513,1.513,0,0,0,1.477-.884V6.11a1.492,1.492,0,0,0-1.461-.883q-1.635,0-1.633,2.652" fill="#fff"/>
        <path id="Trazado_158929" data-name="Trazado 158929" d="M84.068,12.156a4.151,4.151,0,0,1-3.028-1.14,4.055,4.055,0,0,1-1.168-3.039V7.758a5.1,5.1,0,0,1,.493-2.277,3.622,3.622,0,0,1,1.394-1.547,3.9,3.9,0,0,1,2.059-.543,3.511,3.511,0,0,1,2.731,1.093,4.451,4.451,0,0,1,.995,3.1v.922H82.162a2.093,2.093,0,0,0,.66,1.328,2,2,0,0,0,1.394.5,2.442,2.442,0,0,0,2.04-.945l1.109,1.242a3.407,3.407,0,0,1-1.375,1.121,4.5,4.5,0,0,1-1.922.4m-.257-6.945a1.407,1.407,0,0,0-1.091.455,2.349,2.349,0,0,0-.534,1.3h3.14V6.788a1.691,1.691,0,0,0-.407-1.165,1.456,1.456,0,0,0-1.108-.412" fill="#fff"/>
        <rect id="Rectángulo_11829" data-name="Rectángulo 11829" width="2.266" height="12" transform="translate(89.262 0)" fill="#fff"/>
        <path id="Trazado_158930" data-name="Trazado 158930" d="M105.621,7.851a5.065,5.065,0,0,1-.887,3.129,2.842,2.842,0,0,1-2.394,1.176,2.636,2.636,0,0,1-2.071-.891v3.984H98.011V3.546h2.094l.078.828a2.655,2.655,0,0,1,2.141-.984,2.865,2.865,0,0,1,2.43,1.156,5.208,5.208,0,0,1,.867,3.188Zm-2.258-.164a3.321,3.321,0,0,0-.418-1.82,1.362,1.362,0,0,0-1.215-.641,1.479,1.479,0,0,0-1.461.813V9.5a1.5,1.5,0,0,0,1.477.836q1.617,0,1.617-2.648" fill="#fff"/>
        <path id="Trazado_158931" data-name="Trazado 158931" d="M112.09,5.664a6.075,6.075,0,0,0-.812-.062,1.653,1.653,0,0,0-1.68.867V12H107.34V3.547h2.133l.062,1.008a2.089,2.089,0,0,1,1.883-1.164,2.385,2.385,0,0,1,.7.1Z" fill="#fff"/>
        <path id="Trazado_158932" data-name="Trazado 158932" d="M112.863,7.7a4.983,4.983,0,0,1,.485-2.242,3.539,3.539,0,0,1,1.394-1.524,4.069,4.069,0,0,1,2.113-.539,3.849,3.849,0,0,1,2.793,1.047,4.207,4.207,0,0,1,1.207,2.844l.016.578a4.422,4.422,0,0,1-1.086,3.121,4.208,4.208,0,0,1-5.832,0,4.494,4.494,0,0,1-1.09-3.188Zm2.258.16a3.152,3.152,0,0,0,.453,1.843,1.629,1.629,0,0,0,2.578.008,3.461,3.461,0,0,0,.461-2.015,3.13,3.13,0,0,0-.461-1.831,1.5,1.5,0,0,0-1.3-.65,1.471,1.471,0,0,0-1.281.646,3.51,3.51,0,0,0-.453,2" fill="#fff"/>
        <path id="Trazado_158933" data-name="Trazado 158933" d="M125.621,8.805l1.562-5.258H129.6l-3.4,9.766-.188.445a2.576,2.576,0,0,1-2.5,1.656,3.548,3.548,0,0,1-1-.148V13.555l.344.008a1.861,1.861,0,0,0,.957-.2,1.283,1.283,0,0,0,.5-.648l.266-.695-2.961-8.477h2.43Z" fill="#fff"/>
        <path id="Trazado_158934" data-name="Trazado 158934" d="M134.6,12.156a4.154,4.154,0,0,1-3.028-1.14,4.059,4.059,0,0,1-1.168-3.039V7.758a5.1,5.1,0,0,1,.493-2.277A3.616,3.616,0,0,1,132.3,3.934a3.907,3.907,0,0,1,2.059-.543,3.508,3.508,0,0,1,2.73,1.093,4.447,4.447,0,0,1,1,3.1v.922H132.7a2.1,2.1,0,0,0,.66,1.328,2,2,0,0,0,1.394.5,2.436,2.436,0,0,0,2.039-.945l1.11,1.242a3.4,3.4,0,0,1-1.375,1.121,4.5,4.5,0,0,1-1.922.4m-.258-6.945a1.408,1.408,0,0,0-1.09.455,2.364,2.364,0,0,0-.535,1.3h3.141V6.788a1.681,1.681,0,0,0-.407-1.165,1.457,1.457,0,0,0-1.109-.412" fill="#fff"/>
        <path id="Trazado_158935" data-name="Trazado 158935" d="M143.2,10.336a1.477,1.477,0,0,0,1.016-.344,1.2,1.2,0,0,0,.406-.914h2.117a2.886,2.886,0,0,1-.469,1.574,3.08,3.08,0,0,1-1.261,1.11,3.961,3.961,0,0,1-1.77.394A3.667,3.667,0,0,1,140.377,11,4.561,4.561,0,0,1,139.33,7.82V7.672a4.506,4.506,0,0,1,1.039-3.117,3.624,3.624,0,0,1,2.851-1.164,3.551,3.551,0,0,1,2.543.9,3.19,3.19,0,0,1,.973,2.4h-2.117a1.555,1.555,0,0,0-.406-1.072,1.511,1.511,0,0,0-2.223.163,3.335,3.335,0,0,0-.4,1.866v.235a3.374,3.374,0,0,0,.4,1.878,1.378,1.378,0,0,0,1.211.571" fill="#fff"/>
        <path id="Trazado_158936" data-name="Trazado 158936" d="M151.049,1.469V3.547h1.445V5.2h-1.445V9.422a1.012,1.012,0,0,0,.18.672.9.9,0,0,0,.687.2,3.546,3.546,0,0,0,.664-.055v1.711a4.624,4.624,0,0,1-1.367.2,2.156,2.156,0,0,1-2.422-2.4V5.2h-1.234V3.547h1.234V1.469Z" fill="#fff"/>
        <path id="Trazado_158937" data-name="Trazado 158937" d="M153.486,7.7a5,5,0,0,1,.485-2.242,3.539,3.539,0,0,1,1.394-1.524,4.072,4.072,0,0,1,2.113-.539,3.848,3.848,0,0,1,2.793,1.047,4.207,4.207,0,0,1,1.207,2.844l.016.578a4.418,4.418,0,0,1-1.086,3.121,4.208,4.208,0,0,1-5.832,0,4.494,4.494,0,0,1-1.09-3.188Zm2.258.16A3.152,3.152,0,0,0,156.2,9.7a1.629,1.629,0,0,0,2.578.008,3.461,3.461,0,0,0,.461-2.015,3.13,3.13,0,0,0-.461-1.831,1.5,1.5,0,0,0-1.3-.65,1.472,1.472,0,0,0-1.281.646,3.51,3.51,0,0,0-.453,2" fill="#fff"/>
      </g>
    </g>
  </g>
</svg>
