<svg xmlns="http://www.w3.org/2000/svg" xmlns:xlink="http://www.w3.org/1999/xlink" width="609.899" height="124.664" viewBox="0 0 609.899 124.664">
  <defs>
    <linearGradient id="linear-gradient" x1="0.5" x2="0.5" y2="1" gradientUnits="objectBoundingBox">
      <stop offset="0" stop-color="#fff" stop-opacity="0"/>
      <stop offset="1" stop-color="#fff"/>
    </linearGradient>
    <clipPath id="clip-path">
      <rect id="Rectángulo_11825" data-name="Rectángulo 11825" width="172.682" height="15.414" transform="translate(0 0)" fill="none"/>
    </clipPath>
  </defs>
  <g id="Grupo_71383" data-name="Grupo 71383" transform="translate(-368 11202.226)">
    <g id="Grupo_71357" data-name="Grupo 71357" transform="translate(367.949 -11202.276)">
      <path id="Trazado_158760" data-name="Trazado 158760" d="M9.26,0H598.639a9.26,9.26,0,0,1,9.26,9.26V93.986a9.26,9.26,0,0,1-9.26,9.26H9.26A9.26,9.26,0,0,1,0,93.986V9.26A9.26,9.26,0,0,1,9.26,0Z" transform="translate(1.051 1.051)" stroke="#d44f4a" stroke-width="2" fill="url(#linear-gradient)"/>
      <rect id="Rectángulo_11817" data-name="Rectángulo 11817" width="294" height="35" rx="14" transform="translate(315 89.715)" fill="#d44f4a"/>
    </g>
    <g id="Grupo_71364" data-name="Grupo 71364" transform="translate(-39 -343.394)">
      <path id="Trazado_158762" data-name="Trazado 158762" d="M0,29.969a11.728,11.728,0,0,1,3.814-8.54q4.164-4.164,4.164-7.36V12.577h4.475v1.976A11.644,11.644,0,0,1,8.639,23Q4.475,27.122,4.475,30.1v3.817q0,3.273,3.039,3.272h.039q3.078,0,3.08-3.272V29.254h4.475v4.668q0,7.687-7.573,7.689Q0,41.61,0,33.921ZM12.782,8.123H7.456V2.8h5.326Z" transform="translate(503 -10829.032)" fill="#636363"/>
      <path id="Trazado_158763" data-name="Trazado 158763" d="M25.186,32q0,6.878-6.257,7.652.176,2.4,6.257,2.439v3.545q-4.3,0-6.044-.929-2.131-1.086-2.188-5.036-6.878-.506-6.876-7.67V7.924q0-7.671,7.553-7.67t7.555,7.67ZM20.711,7.924q0-3.254-3.06-3.274h-.039q-3.063,0-3.06,3.274V32q0,3.276,3.078,3.274T20.711,32Z" transform="translate(513.646 -10831.718)" fill="#636363"/>
      <path id="Trazado_158764" data-name="Trazado 158764" d="M34.7,30.259q0,6.74-7.555,6.759-7.557,0-7.555-6.759V2.873h4.475V30.259q0,2.865,3.08,2.867t3.078-2.867V2.873H34.7Z" transform="translate(523.693 -10828.951)" fill="#636363"/>
      <path id="Trazado_158765" data-name="Trazado 158765" d="M29.292,5.83H42.81V9.7H33.767V20.685h7.785v3.893H33.767V35.56H42.81v3.854H29.292ZM42.017.6,36.942,3.856H34.211L38.414,0h3.6Z" transform="translate(533.942 -10831.986)" fill="#636363"/>
      <path id="Trazado_158766" data-name="Trazado 158766" d="M43.006,2.835H56.524V6.709H47.48V17.689h7.785v3.893H47.48V32.565h9.044v3.854H43.006Z" transform="translate(548.428 -10828.992)" fill="#636363"/>
      <path id="Trazado_158767" data-name="Trazado 158767" d="M51.37,9.349q0-6.74,7.553-6.741t7.555,6.741v4.146H62V9.349q0-2.865-3.06-2.867H58.9q-3.063,0-3.06,2.867v3.138q0,2.594,5.577,6.1,5.055,3.174,5.056,7.571v4.378q0,6.761-7.534,6.759-7.572-.019-7.573-6.759V26.412h4.475v4.125q0,2.887,3.1,2.887,3.06,0,3.06-2.887v-3.95q0-2.77-5.579-6.294Q51.369,17.115,51.37,12.6Z" transform="translate(557.263 -10829.231)" fill="#636363"/>
      <path id="Trazado_158768" data-name="Trazado 158768" d="M65.761,2.835h4.59L76.82,26.968V2.913l4.047-.06V36.418h-4.59L70.022,12.906V36.418H65.761Z" transform="translate(572.465 -10828.992)" fill="#636363"/>
      <path id="Trazado_158769" data-name="Trazado 158769" d="M75.557,2.835H89.075V6.709H80.031V17.689h7.785v3.893H80.031V32.565h9.044v3.854H75.557Z" transform="translate(582.812 -10828.992)" fill="#636363"/>
      <path id="Trazado_158770" data-name="Trazado 158770" d="M99.028,30.538q0,6.74-7.553,6.759-7.557,0-7.555-6.759V9.35q0-6.74,7.555-6.741T99.028,9.35v4.143H94.553V9.35q0-2.865-3.06-2.867h-.039q-3.06,0-3.06,2.867V30.538q0,2.887,3.08,2.885t3.078-2.885V26.413h4.475Z" transform="translate(591.646 -10829.23)" fill="#636363"/>
      <path id="Trazado_158771" data-name="Trazado 158771" d="M93.434,2.835h13.518V6.709H97.908V17.689h7.785v3.893H97.908V32.565h9.044v3.854H93.434Z" transform="translate(601.696 -10828.992)" fill="#636363"/>
      <path id="Trazado_158772" data-name="Trazado 158772" d="M101.8,9.349q0-6.74,7.553-6.741T116.9,9.349v4.146H112.43V9.349q0-2.865-3.06-2.867h-.039q-3.063,0-3.06,2.867v3.138q0,2.594,5.577,6.1,5.055,3.174,5.057,7.571v4.378q0,6.761-7.534,6.759-7.572-.019-7.573-6.759V26.412h4.475v4.125q0,2.887,3.1,2.887,3.06,0,3.06-2.887v-3.95q0-2.77-5.579-6.294Q101.8,17.115,101.8,12.6Z" transform="translate(610.53 -10829.231)" fill="#636363"/>
      <path id="Trazado_158773" data-name="Trazado 158773" d="M126.9,24.741l1.781,11.678h-4.551l-1.1-7.341h-6.837l-1.123,7.341h-4.514L112.3,24.778l3.932-21.943h6.759Zm-4.456.444L119.6,6.205l-2.848,18.98Z" transform="translate(619.783 -10828.991)" fill="#636363"/>
      <path id="Trazado_158774" data-name="Trazado 158774" d="M120.973,2.834h7.67q6.952.022,6.954,6.759V14.8q0,4.2-4.629,5.712l6.294,15.9h-4.939l-5.133-15.281-1.744.214V36.418h-4.475Zm4.475,3.874V17.689h1.9a7.019,7.019,0,0,0,1.859-.173,2.665,2.665,0,0,0,1.919-2.712V9.593q0-2.884-3.062-2.885Z" transform="translate(630.786 -10828.993)" fill="#636363"/>
      <rect id="Rectángulo_11818" data-name="Rectángulo 11818" width="4.475" height="33.584" transform="translate(771.245 -10826.156)" fill="#636363"/>
      <path id="Trazado_158775" data-name="Trazado 158775" d="M150.04,30.537q0,6.74-7.555,6.759-7.551,0-7.553-6.759V9.349q0-6.74,7.553-6.741t7.555,6.741ZM145.565,9.349q0-2.865-3.06-2.867h-.039q-3.06,0-3.06,2.867V30.537q0,2.887,3.078,2.887t3.08-2.887Z" transform="translate(645.531 -10829.231)" fill="#636363"/>
      <path id="Trazado_158776" data-name="Trazado 158776" d="M149.325,2.835H153.8V17.689h6.159V2.835h4.475V36.418h-4.475V21.582H153.8V36.418h-4.475Z" transform="translate(660.735 -10828.992)" fill="#636363"/>
      <path id="Trazado_158777" data-name="Trazado 158777" d="M174.618,24.741,176.4,36.419h-4.551l-1.1-7.341h-6.837l-1.123,7.341h-4.512l1.742-11.641,3.934-21.943h6.759Zm-4.454.444-2.848-18.98-2.848,18.98Z" transform="translate(670.186 -10828.991)" fill="#636363"/>
      <path id="Trazado_158778" data-name="Trazado 158778" d="M183.608,30.538q0,6.74-7.555,6.759-7.551,0-7.553-6.759V9.35q0-6.74,7.553-6.741t7.555,6.741v4.143h-4.475V9.35q0-2.865-3.06-2.867h-.039q-3.06,0-3.06,2.867V30.538q0,2.887,3.078,2.885t3.08-2.885V26.413h4.475Z" transform="translate(680.99 -10829.23)" fill="#636363"/>
      <path id="Trazado_158779" data-name="Trazado 158779" d="M178.013,2.835h13.518V6.709h-9.044V17.689h7.785v3.893h-7.785V32.565h9.044v3.854H178.013Z" transform="translate(691.039 -10828.992)" fill="#636363"/>
      <path id="Trazado_158780" data-name="Trazado 158780" d="M186.566,2.834h7.67q6.952.022,6.954,6.759V14.8q0,4.2-4.629,5.712l6.292,15.9h-4.937l-5.133-15.281-1.744.214V36.418h-4.475Zm4.475,3.874V17.689h1.9a7.02,7.02,0,0,0,1.859-.173,2.665,2.665,0,0,0,1.919-2.712V9.593q0-2.884-3.062-2.885Z" transform="translate(700.074 -10828.993)" fill="#636363"/>
      <path id="Trazado_158781" data-name="Trazado 158781" d="M211.007,11.94a11.731,11.731,0,0,1-3.817,8.542q-4.161,4.164-4.162,7.36v1.491h-4.475V27.358a11.628,11.628,0,0,1,3.814-8.443q4.164-4.127,4.164-7.109V7.99q0-3.273-3.041-3.274h-.037q-3.081,0-3.08,3.274v4.668H195.9V7.99Q195.9.3,203.472.3q7.535,0,7.534,7.689ZM198.225,33.788h5.326v5.326h-5.326Z" transform="translate(709.932 -10831.668)" fill="#636363"/>
    </g>
    <g id="Grupo_71372" data-name="Grupo 71372" transform="translate(763.923 -11103.266)">
      <g id="Grupo_71371" data-name="Grupo 71371" clip-path="url(#clip-path)">
        <path id="Trazado_158869" data-name="Trazado 158869" d="M2.344,7.992V12H0V.625H4.438a5.144,5.144,0,0,1,2.254.469,3.463,3.463,0,0,1,1.5,1.332,3.72,3.72,0,0,1,.523,1.965A3.271,3.271,0,0,1,7.567,7.028,4.77,4.77,0,0,1,4.4,7.992Zm0-1.9H4.438a2.061,2.061,0,0,0,1.418-.437,1.594,1.594,0,0,0,.488-1.25,1.877,1.877,0,0,0-.492-1.352,1.836,1.836,0,0,0-1.36-.531H2.344Z" fill="#fff"/>
        <path id="Trazado_158870" data-name="Trazado 158870" d="M15.242,5.664A6.075,6.075,0,0,0,14.43,5.6a1.653,1.653,0,0,0-1.68.867V12H10.492V3.547h2.133l.062,1.008A2.089,2.089,0,0,1,14.57,3.391a2.384,2.384,0,0,1,.7.1Z" fill="#fff"/>
        <path id="Trazado_158871" data-name="Trazado 158871" d="M16.015,7.7A5,5,0,0,1,16.5,5.453a3.539,3.539,0,0,1,1.394-1.524,4.072,4.072,0,0,1,2.113-.539A3.848,3.848,0,0,1,22.8,4.437a4.207,4.207,0,0,1,1.207,2.844l.016.578a4.418,4.418,0,0,1-1.086,3.121,3.775,3.775,0,0,1-2.914,1.176A3.8,3.8,0,0,1,17.1,10.984,4.494,4.494,0,0,1,16.015,7.8Zm2.258.16A3.152,3.152,0,0,0,18.726,9.7a1.629,1.629,0,0,0,2.578.008,3.461,3.461,0,0,0,.461-2.015A3.13,3.13,0,0,0,21.3,5.86a1.5,1.5,0,0,0-1.3-.65,1.472,1.472,0,0,0-1.281.646,3.51,3.51,0,0,0-.453,2" fill="#fff"/>
        <path id="Trazado_158872" data-name="Trazado 158872" d="M25.382,7.711a5.1,5.1,0,0,1,.887-3.148,2.874,2.874,0,0,1,2.426-1.172,2.587,2.587,0,0,1,2.039.922V0H33V12H30.96l-.109-.9a2.657,2.657,0,0,1-2.172,1.054,2.866,2.866,0,0,1-2.394-1.175,5.259,5.259,0,0,1-.9-3.27m2.258.168A3.338,3.338,0,0,0,28.054,9.7a1.348,1.348,0,0,0,1.2.634,1.511,1.511,0,0,0,1.477-.884V6.11a1.491,1.491,0,0,0-1.461-.883q-1.634,0-1.633,2.652" fill="#fff"/>
        <path id="Trazado_158873" data-name="Trazado 158873" d="M40.132,11.141a2.833,2.833,0,0,1-2.313,1.016,2.671,2.671,0,0,1-2.074-.782,3.334,3.334,0,0,1-.73-2.289V3.547h2.258V9.014q0,1.323,1.2,1.322a1.629,1.629,0,0,0,1.578-.8V3.547H42.32V12H40.194Z" fill="#fff"/>
        <path id="Trazado_158874" data-name="Trazado 158874" d="M47.858,10.336a1.48,1.48,0,0,0,1.016-.344,1.211,1.211,0,0,0,.406-.914H51.4a2.9,2.9,0,0,1-.469,1.574,3.093,3.093,0,0,1-1.261,1.11,3.967,3.967,0,0,1-1.77.394A3.664,3.664,0,0,1,45.038,11,4.556,4.556,0,0,1,43.991,7.82V7.672A4.506,4.506,0,0,1,45.03,4.555a3.621,3.621,0,0,1,2.851-1.164,3.554,3.554,0,0,1,2.543.9A3.2,3.2,0,0,1,51.4,6.7H49.28a1.564,1.564,0,0,0-.406-1.072,1.511,1.511,0,0,0-2.223.163,3.327,3.327,0,0,0-.4,1.866v.235a3.374,3.374,0,0,0,.4,1.878,1.376,1.376,0,0,0,1.211.571" fill="#fff"/>
        <path id="Trazado_158875" data-name="Trazado 158875" d="M55.709,1.469V3.547h1.445V5.2H55.709V9.422a1.007,1.007,0,0,0,.18.672.9.9,0,0,0,.687.2,3.546,3.546,0,0,0,.664-.055v1.711a4.624,4.624,0,0,1-1.367.2,2.156,2.156,0,0,1-2.422-2.4V5.2H52.217V3.547h1.234V1.469Z" fill="#fff"/>
        <path id="Trazado_158876" data-name="Trazado 158876" d="M58.146,7.7a5,5,0,0,1,.485-2.242,3.551,3.551,0,0,1,1.394-1.524,4.074,4.074,0,0,1,2.113-.539,3.848,3.848,0,0,1,2.793,1.047,4.2,4.2,0,0,1,1.207,2.844l.016.578a4.418,4.418,0,0,1-1.086,3.121,4.208,4.208,0,0,1-5.832,0A4.494,4.494,0,0,1,58.146,7.8Zm2.258.16A3.16,3.16,0,0,0,60.857,9.7a1.629,1.629,0,0,0,2.578.008A3.454,3.454,0,0,0,63.9,7.691a3.122,3.122,0,0,0-.461-1.831,1.5,1.5,0,0,0-1.3-.65,1.474,1.474,0,0,0-1.281.646,3.518,3.518,0,0,0-.453,2" fill="#fff"/>
        <path id="Trazado_158877" data-name="Trazado 158877" d="M72.443,9.664a.728.728,0,0,0-.41-.652,4.634,4.634,0,0,0-1.317-.426Q67.7,7.953,67.7,6.023a2.321,2.321,0,0,1,.933-1.879,3.769,3.769,0,0,1,2.442-.753,4.057,4.057,0,0,1,2.574.757,2.39,2.39,0,0,1,.965,1.969H72.357a1.094,1.094,0,0,0-.312-.8A1.325,1.325,0,0,0,71.068,5a1.349,1.349,0,0,0-.883.258.811.811,0,0,0-.312.656.694.694,0,0,0,.355.605,3.641,3.641,0,0,0,1.2.4,9.719,9.719,0,0,1,1.422.379A2.335,2.335,0,0,1,74.638,9.57a2.2,2.2,0,0,1-.992,1.871,4.276,4.276,0,0,1-2.562.715,4.462,4.462,0,0,1-1.887-.379A3.155,3.155,0,0,1,67.9,10.738a2.41,2.41,0,0,1-.469-1.426h2.141a1.176,1.176,0,0,0,.445.922,1.765,1.765,0,0,0,1.11.321,1.638,1.638,0,0,0,.98-.246.768.768,0,0,0,.332-.645" fill="#fff"/>
        <path id="Trazado_158878" data-name="Trazado 158878" d="M80.364,7.711a5.1,5.1,0,0,1,.887-3.148,2.874,2.874,0,0,1,2.426-1.172,2.587,2.587,0,0,1,2.039.922V0h2.265V12H85.942l-.109-.9a2.657,2.657,0,0,1-2.172,1.054,2.866,2.866,0,0,1-2.394-1.175,5.259,5.259,0,0,1-.9-3.27m2.258.168A3.338,3.338,0,0,0,83.036,9.7a1.348,1.348,0,0,0,1.2.634,1.511,1.511,0,0,0,1.477-.884V6.11a1.491,1.491,0,0,0-1.461-.883q-1.633,0-1.633,2.652" fill="#fff"/>
        <path id="Trazado_158879" data-name="Trazado 158879" d="M93.943,12.156a4.152,4.152,0,0,1-3.028-1.14,4.055,4.055,0,0,1-1.168-3.039V7.758a5.1,5.1,0,0,1,.493-2.277,3.616,3.616,0,0,1,1.394-1.547,3.9,3.9,0,0,1,2.059-.543,3.507,3.507,0,0,1,2.73,1.093,4.446,4.446,0,0,1,1,3.1v.922H92.037a2.093,2.093,0,0,0,.66,1.328,2,2,0,0,0,1.394.5,2.439,2.439,0,0,0,2.039-.945l1.11,1.242a3.4,3.4,0,0,1-1.375,1.121,4.5,4.5,0,0,1-1.922.4m-.258-6.945a1.408,1.408,0,0,0-1.09.455,2.356,2.356,0,0,0-.535,1.3H95.2V6.788a1.686,1.686,0,0,0-.407-1.165,1.457,1.457,0,0,0-1.109-.412" fill="#fff"/>
        <rect id="Rectángulo_11824" data-name="Rectángulo 11824" width="2.266" height="12" transform="translate(99.136 0)" fill="#fff"/>
        <path id="Trazado_158880" data-name="Trazado 158880" d="M110.379,7.992V12h-2.344V.625h4.438a5.147,5.147,0,0,1,2.254.469,3.469,3.469,0,0,1,1.5,1.332,3.72,3.72,0,0,1,.523,1.965A3.271,3.271,0,0,1,115.6,7.028a4.772,4.772,0,0,1-3.168.964Zm0-1.9h2.094a2.064,2.064,0,0,0,1.418-.437,1.594,1.594,0,0,0,.488-1.25,1.877,1.877,0,0,0-.492-1.352,1.836,1.836,0,0,0-1.36-.531h-2.148Z" fill="#fff"/>
        <path id="Trazado_158881" data-name="Trazado 158881" d="M123.276,5.664a6.076,6.076,0,0,0-.812-.062,1.653,1.653,0,0,0-1.68.867V12h-2.258V3.547h2.133l.062,1.008A2.09,2.09,0,0,1,122.6,3.391a2.385,2.385,0,0,1,.7.1Z" fill="#fff"/>
        <path id="Trazado_158882" data-name="Trazado 158882" d="M124.05,7.7a5,5,0,0,1,.485-2.242,3.551,3.551,0,0,1,1.394-1.524,4.074,4.074,0,0,1,2.113-.539,3.848,3.848,0,0,1,2.793,1.047,4.2,4.2,0,0,1,1.207,2.844l.016.578a4.418,4.418,0,0,1-1.086,3.121,4.208,4.208,0,0,1-5.832,0A4.494,4.494,0,0,1,124.05,7.8Zm2.258.16a3.16,3.16,0,0,0,.453,1.843,1.629,1.629,0,0,0,2.578.008,3.454,3.454,0,0,0,.461-2.015,3.122,3.122,0,0,0-.461-1.831,1.5,1.5,0,0,0-1.3-.65,1.474,1.474,0,0,0-1.281.646,3.518,3.518,0,0,0-.453,2" fill="#fff"/>
        <path id="Trazado_158883" data-name="Trazado 158883" d="M136.808,8.805l1.562-5.258h2.422l-3.4,9.766-.188.445a2.575,2.575,0,0,1-2.5,1.656,3.548,3.548,0,0,1-1-.148V13.555l.344.008a1.859,1.859,0,0,0,.957-.2,1.278,1.278,0,0,0,.5-.648l.266-.695-2.961-8.477h2.43Z" fill="#fff"/>
        <path id="Trazado_158884" data-name="Trazado 158884" d="M145.791,12.156a4.154,4.154,0,0,1-3.028-1.14A4.059,4.059,0,0,1,141.6,7.977V7.758a5.1,5.1,0,0,1,.493-2.277,3.616,3.616,0,0,1,1.394-1.547,3.907,3.907,0,0,1,2.059-.543,3.507,3.507,0,0,1,2.73,1.093,4.446,4.446,0,0,1,1,3.1v.922h-5.382a2.1,2.1,0,0,0,.66,1.328,2,2,0,0,0,1.394.5,2.436,2.436,0,0,0,2.039-.945l1.11,1.242a3.4,3.4,0,0,1-1.375,1.121,4.5,4.5,0,0,1-1.922.4m-.258-6.945a1.408,1.408,0,0,0-1.09.455,2.363,2.363,0,0,0-.535,1.3h3.141V6.788a1.681,1.681,0,0,0-.407-1.165,1.457,1.457,0,0,0-1.109-.412" fill="#fff"/>
        <path id="Trazado_158885" data-name="Trazado 158885" d="M154.385,10.336a1.478,1.478,0,0,0,1.016-.344,1.208,1.208,0,0,0,.406-.914h2.117a2.886,2.886,0,0,1-.469,1.574,3.086,3.086,0,0,1-1.261,1.11,3.967,3.967,0,0,1-1.77.394A3.667,3.667,0,0,1,151.565,11a4.556,4.556,0,0,1-1.047-3.184V7.672a4.506,4.506,0,0,1,1.039-3.117,3.622,3.622,0,0,1,2.851-1.164,3.551,3.551,0,0,1,2.543.9,3.2,3.2,0,0,1,.973,2.4h-2.117a1.559,1.559,0,0,0-.406-1.072,1.511,1.511,0,0,0-2.223.163,3.327,3.327,0,0,0-.4,1.866v.235a3.374,3.374,0,0,0,.4,1.878,1.376,1.376,0,0,0,1.211.571" fill="#fff"/>
        <path id="Trazado_158886" data-name="Trazado 158886" d="M162.236,1.469V3.547h1.445V5.2h-1.445V9.422a1.007,1.007,0,0,0,.18.672.9.9,0,0,0,.687.2,3.554,3.554,0,0,0,.664-.055v1.711a4.629,4.629,0,0,1-1.367.2,2.156,2.156,0,0,1-2.422-2.4V5.2h-1.234V3.547h1.234V1.469Z" fill="#fff"/>
        <path id="Trazado_158887" data-name="Trazado 158887" d="M164.674,7.7a5,5,0,0,1,.485-2.242,3.539,3.539,0,0,1,1.394-1.524,4.072,4.072,0,0,1,2.113-.539,3.848,3.848,0,0,1,2.793,1.047,4.207,4.207,0,0,1,1.207,2.844l.016.578A4.418,4.418,0,0,1,171.6,10.98a4.208,4.208,0,0,1-5.832,0,4.494,4.494,0,0,1-1.09-3.188Zm2.258.16a3.152,3.152,0,0,0,.453,1.843,1.629,1.629,0,0,0,2.578.008,3.461,3.461,0,0,0,.461-2.015,3.13,3.13,0,0,0-.461-1.831,1.5,1.5,0,0,0-1.3-.65,1.472,1.472,0,0,0-1.281.646,3.51,3.51,0,0,0-.453,2" fill="#fff"/>
      </g>
    </g>
  </g>
</svg>
