<svg xmlns="http://www.w3.org/2000/svg" xmlns:xlink="http://www.w3.org/1999/xlink" width="609.899" height="124.226" viewBox="0 0 609.899 124.226">
  <defs>
    <linearGradient id="linear-gradient" x1="0.5" x2="0.5" y2="1" gradientUnits="objectBoundingBox">
      <stop offset="0" stop-color="#fff" stop-opacity="0"/>
      <stop offset="1" stop-color="#fff"/>
    </linearGradient>
    <clipPath id="clip-path">
      <rect id="Rectángulo_11828" data-name="Rectángulo 11828" width="291.52" height="15.414" transform="translate(0 0)" fill="none"/>
    </clipPath>
  </defs>
  <g id="Grupo_71384" data-name="Grupo 71384" transform="translate(-368 10974.226)">
    <path id="Trazado_158760" data-name="Trazado 158760" d="M9.26,0H598.639a9.26,9.26,0,0,1,9.26,9.26V93.986a9.26,9.26,0,0,1-9.26,9.26H9.26A9.26,9.26,0,0,1,0,93.986V9.26A9.26,9.26,0,0,1,9.26,0Z" transform="translate(369 -10973.226)" stroke="#d44f4a" stroke-width="2" fill="url(#linear-gradient)"/>
    <rect id="Rectángulo_11817" data-name="Rectángulo 11817" width="357.322" height="35" rx="14" transform="translate(620 -10885)" fill="#d44f4a"/>
    <g id="Grupo_71365" data-name="Grupo 71365" transform="translate(-8 -181.519)">
      <path id="Trazado_158782" data-name="Trazado 158782" d="M0,62.851a11.728,11.728,0,0,1,3.814-8.54q4.164-4.164,4.164-7.36V45.459h4.475v1.976a11.636,11.636,0,0,1-3.814,8.443q-4.164,4.127-4.164,7.109V66.8q0,3.276,3.039,3.274h.039q3.078,0,3.08-3.274V62.134h4.475V66.8q0,7.69-7.573,7.691Q0,74.492,0,66.8ZM12.782,41H7.456V35.679h5.326Z" transform="translate(503 -10794.298)" fill="#636363"/>
      <path id="Trazado_158783" data-name="Trazado 158783" d="M25.186,64.935q0,7.65-7.553,7.67-7.557,0-7.555-7.67V40.842q0-7.65,7.555-7.65t7.553,7.65v4.707H20.711V40.842q0-3.233-3.06-3.253h-.039q-3.06,0-3.06,3.253V64.935q0,3.254,3.08,3.255t3.078-3.255V60.229h4.475Z" transform="translate(513.646 -10796.925)" fill="#636363"/>
      <path id="Trazado_158784" data-name="Trazado 158784" d="M34.6,66.175q0,6.74-7.553,6.759-7.554,0-7.553-6.759V44.987q0-6.74,7.553-6.741T34.6,44.987ZM30.13,44.987q0-2.865-3.062-2.867h-.039q-3.06,0-3.058,2.867V66.175q0,2.884,3.078,2.885t3.08-2.885Zm2.885-11.505L27.94,36.737H25.209l4.2-3.856h3.6Z" transform="translate(523.595 -10797.254)" fill="#636363"/>
      <path id="Trazado_158785" data-name="Trazado 158785" d="M41.519,61.127l7.088-25.41H53.2V69.3H48.957V45.517L43.03,69.3H40.145L34.063,45.653V69.3h-4.3V35.717h4.61Z" transform="translate(534.439 -10794.258)" fill="#636363"/>
      <path id="Trazado_158786" data-name="Trazado 158786" d="M58.528,63.419q0,6.74-7.555,6.759-7.554,0-7.553-6.759V42.231q0-6.74,7.553-6.741t7.555,6.741ZM54.053,42.231q0-2.865-3.06-2.867h-.039q-3.063,0-3.06,2.867V63.419q0,2.887,3.078,2.887t3.08-2.887Z" transform="translate(548.865 -10794.497)" fill="#636363"/>
      <path id="Trazado_158787" data-name="Trazado 158787" d="M57.624,42.231q0-6.74,7.551-6.741t7.555,6.741v4.146H68.255V42.231q0-2.865-3.06-2.867h-.039q-3.063,0-3.06,2.867v3.138q0,2.594,5.577,6.1,5.055,3.174,5.057,7.571v4.378q0,6.761-7.534,6.759-7.572-.019-7.571-6.759V59.294H62.1v4.125q0,2.887,3.1,2.887,3.063,0,3.06-2.887v-3.95q0-2.77-5.579-6.294Q57.621,50,57.624,45.486Z" transform="translate(563.869 -10794.497)" fill="#636363"/>
      <path id="Trazado_158788" data-name="Trazado 158788" d="M67.23,35.716H80.749V39.59H71.705V50.571H79.49v3.893H71.705V65.447h9.044V69.3H67.23Z" transform="translate(574.017 -10794.259)" fill="#636363"/>
      <path id="Trazado_158789" data-name="Trazado 158789" d="M92.153,69.3H85.393L81.462,47.376,79.72,35.716h4.512L88.764,65.93,93.3,35.716h4.553l-1.783,11.7Z" transform="translate(587.21 -10794.259)" fill="#636363"/>
      <path id="Trazado_158790" data-name="Trazado 158790" d="M105.637,57.623,107.418,69.3h-4.551l-1.1-7.341H94.925L93.8,69.3H89.289l1.744-11.643,3.932-21.941h6.759Zm-4.456.442-2.846-18.98-2.848,18.98Z" transform="translate(597.318 -10794.258)" fill="#636363"/>
      <path id="Trazado_158791" data-name="Trazado 158791" d="M119.991,57.623,121.772,69.3h-4.551l-1.1-7.341h-6.837L108.157,69.3h-4.514l1.744-11.643,3.932-21.941h6.759Zm-4.456.442-2.846-18.98-2.848,18.98Z" transform="translate(612.48 -10794.258)" fill="#636363"/>
      <path id="Trazado_158792" data-name="Trazado 158792" d="M118.845,35.716h4.475V50.571h6.159V35.716h4.475V69.3h-4.475V54.464h-6.159V69.3h-4.475Z" transform="translate(628.538 -10794.259)" fill="#636363"/>
      <path id="Trazado_158793" data-name="Trazado 158793" d="M144.14,57.623,145.92,69.3H141.37l-1.1-7.341h-6.837L132.306,69.3h-4.512l1.742-11.643,3.934-21.941h6.759Zm-4.454.442-2.848-18.98-2.848,18.98Z" transform="translate(637.991 -10794.258)" fill="#636363"/>
      <path id="Trazado_158794" data-name="Trazado 158794" d="M153.13,63.419q0,6.74-7.555,6.759-7.551,0-7.553-6.759V42.231q0-6.74,7.553-6.741t7.555,6.741v4.143h-4.475V42.231q0-2.865-3.06-2.867h-.039q-3.06,0-3.06,2.867V63.419q0,2.887,3.078,2.885t3.08-2.885V59.294h4.475Z" transform="translate(648.796 -10794.497)" fill="#636363"/>
      <path id="Trazado_158795" data-name="Trazado 158795" d="M147.535,35.716h13.518V39.59h-9.044V50.571h7.785v3.893h-7.785V65.447h9.044V69.3H147.535Z" transform="translate(658.844 -10794.259)" fill="#636363"/>
      <path id="Trazado_158796" data-name="Trazado 158796" d="M156.087,35.716h7.67q6.952.022,6.954,6.759v5.211q0,4.2-4.629,5.712l6.292,15.9h-4.937l-5.133-15.281-1.744.214V69.3h-4.475Zm4.475,3.874V50.571h1.9a7.019,7.019,0,0,0,1.859-.173,2.665,2.665,0,0,0,1.919-2.712V42.475q0-2.884-3.062-2.885Z" transform="translate(667.878 -10794.259)" fill="#636363"/>
      <path id="Trazado_158797" data-name="Trazado 158797" d="M180.528,44.822a11.732,11.732,0,0,1-3.814,8.542q-4.164,4.164-4.164,7.36v1.491h-4.475V60.24a11.638,11.638,0,0,1,3.817-8.445q4.164-4.124,4.162-7.109V40.872q0-3.273-3.039-3.274h-.039q-3.081,0-3.08,3.274v4.668H165.42V40.872q0-7.69,7.573-7.689,7.535,0,7.534,7.689ZM167.746,66.67h5.326V72h-5.326Z" transform="translate(677.737 -10796.935)" fill="#636363"/>
    </g>
    <g id="Grupo_71375" data-name="Grupo 71375" transform="translate(653 -10875)">
      <path id="Trazado_158888" data-name="Trazado 158888" d="M8.89.625,5.984,8.874,3.063.625H0V12H2.343V8.891l-.234-5.36L5.172,12H6.781l3.07-8.477L9.617,8.891V12h2.352V.625Z" fill="#fff"/>
      <g id="Grupo_71374" data-name="Grupo 71374">
        <g id="Grupo_71373" data-name="Grupo 71373" clip-path="url(#clip-path)">
          <path id="Trazado_158889" data-name="Trazado 158889" d="M18.078,12.156a4.152,4.152,0,0,1-3.028-1.14,4.055,4.055,0,0,1-1.168-3.039V7.758a5.1,5.1,0,0,1,.493-2.277,3.616,3.616,0,0,1,1.394-1.547,3.9,3.9,0,0,1,2.059-.543,3.508,3.508,0,0,1,2.73,1.093,4.446,4.446,0,0,1,1,3.1v.922H16.172a2.093,2.093,0,0,0,.66,1.328,2,2,0,0,0,1.394.5,2.439,2.439,0,0,0,2.039-.945l1.11,1.242A3.4,3.4,0,0,1,20,11.754a4.5,4.5,0,0,1-1.922.4M17.82,5.211a1.408,1.408,0,0,0-1.09.455,2.356,2.356,0,0,0-.535,1.3h3.141V6.788a1.686,1.686,0,0,0-.407-1.165,1.457,1.457,0,0,0-1.109-.412" fill="#fff"/>
          <path id="Trazado_158890" data-name="Trazado 158890" d="M25.859,1.469V3.547H27.3V5.2H25.859V9.422a1.007,1.007,0,0,0,.18.672.9.9,0,0,0,.687.2,3.554,3.554,0,0,0,.664-.055v1.711a4.629,4.629,0,0,1-1.367.2,2.156,2.156,0,0,1-2.422-2.4V5.2H22.367V3.547H23.6V1.469Z" fill="#fff"/>
          <path id="Trazado_158891" data-name="Trazado 158891" d="M28.3,7.7a5,5,0,0,1,.485-2.242,3.551,3.551,0,0,1,1.394-1.524,4.074,4.074,0,0,1,2.113-.539,3.848,3.848,0,0,1,2.793,1.047,4.2,4.2,0,0,1,1.207,2.844l.016.578a4.418,4.418,0,0,1-1.086,3.121A3.774,3.774,0,0,1,32.3,12.156a3.8,3.8,0,0,1-2.918-1.172A4.494,4.494,0,0,1,28.3,7.8Zm2.258.16A3.16,3.16,0,0,0,31.007,9.7a1.629,1.629,0,0,0,2.578.008,3.453,3.453,0,0,0,.461-2.015,3.122,3.122,0,0,0-.461-1.831,1.5,1.5,0,0,0-1.3-.65,1.474,1.474,0,0,0-1.281.646,3.518,3.518,0,0,0-.453,2" fill="#fff"/>
          <path id="Trazado_158892" data-name="Trazado 158892" d="M37.663,7.711a5.088,5.088,0,0,1,.887-3.148,2.874,2.874,0,0,1,2.426-1.172,2.59,2.59,0,0,1,2.039.922V0H45.28V12H43.241l-.109-.9a2.658,2.658,0,0,1-2.172,1.054,2.866,2.866,0,0,1-2.394-1.175,5.259,5.259,0,0,1-.9-3.27m2.258.168A3.338,3.338,0,0,0,40.335,9.7a1.347,1.347,0,0,0,1.2.634,1.513,1.513,0,0,0,1.477-.884V6.11a1.491,1.491,0,0,0-1.461-.883q-1.634,0-1.633,2.652" fill="#fff"/>
          <path id="Trazado_158893" data-name="Trazado 158893" d="M47,7.7a5,5,0,0,1,.485-2.242,3.538,3.538,0,0,1,1.394-1.524,4.072,4.072,0,0,1,2.113-.539,3.848,3.848,0,0,1,2.793,1.047,4.207,4.207,0,0,1,1.207,2.844l.016.578a4.418,4.418,0,0,1-1.086,3.121,4.208,4.208,0,0,1-5.832,0A4.494,4.494,0,0,1,47,7.8Zm2.258.16A3.152,3.152,0,0,0,49.71,9.7a1.629,1.629,0,0,0,2.578.008,3.461,3.461,0,0,0,.461-2.015,3.13,3.13,0,0,0-.461-1.831,1.5,1.5,0,0,0-1.3-.65,1.472,1.472,0,0,0-1.281.646,3.51,3.51,0,0,0-.453,2" fill="#fff"/>
          <rect id="Rectángulo_11826" data-name="Rectángulo 11826" width="2.266" height="12" transform="translate(56.834 0)" fill="#fff"/>
          <path id="Trazado_158894" data-name="Trazado 158894" d="M60.927,7.7a5.009,5.009,0,0,1,.485-2.242,3.563,3.563,0,0,1,1.394-1.524,4.074,4.074,0,0,1,2.113-.539,3.845,3.845,0,0,1,2.793,1.047,4.2,4.2,0,0,1,1.207,2.844l.017.578a4.418,4.418,0,0,1-1.087,3.121,4.208,4.208,0,0,1-5.832,0A4.5,4.5,0,0,1,60.927,7.8Zm2.259.16A3.152,3.152,0,0,0,63.639,9.7a1.628,1.628,0,0,0,2.577.008,3.454,3.454,0,0,0,.461-2.015,3.122,3.122,0,0,0-.461-1.831,1.5,1.5,0,0,0-1.3-.65,1.471,1.471,0,0,0-1.28.646,3.51,3.51,0,0,0-.453,2" fill="#fff"/>
          <path id="Trazado_158895" data-name="Trazado 158895" d="M70.318,7.711a4.956,4.956,0,0,1,.926-3.133,3,3,0,0,1,2.5-1.187,2.628,2.628,0,0,1,2.164.953l.094-.8h2.047v8.172a3.615,3.615,0,0,1-.5,1.93,3.247,3.247,0,0,1-1.418,1.25,4.991,4.991,0,0,1-2.141.429,4.637,4.637,0,0,1-1.812-.371A3.207,3.207,0,0,1,70.834,14l1-1.375a2.643,2.643,0,0,0,2.047.945,1.938,1.938,0,0,0,1.4-.48,1.8,1.8,0,0,0,.5-1.363v-.453a2.613,2.613,0,0,1-2.055.882,2.991,2.991,0,0,1-2.464-1.191,4.951,4.951,0,0,1-.942-3.16Zm2.258.168a3.081,3.081,0,0,0,.461,1.8,1.466,1.466,0,0,0,1.266.653,1.568,1.568,0,0,0,1.476-.774V6a1.564,1.564,0,0,0-1.461-.774,1.472,1.472,0,0,0-1.277.665,3.467,3.467,0,0,0-.465,1.987" fill="#fff"/>
          <path id="Trazado_158896" data-name="Trazado 158896" d="M82.536,12H80.278V3.547h2.258ZM81.872.117h2.461L82.169,2.539H80.333Z" fill="#fff"/>
          <path id="Trazado_158897" data-name="Trazado 158897" d="M89.7,12a2.489,2.489,0,0,1-.226-.758,2.731,2.731,0,0,1-2.133.915,3,3,0,0,1-2.059-.719,2.313,2.313,0,0,1-.816-1.813,2.389,2.389,0,0,1,1-2.062,4.908,4.908,0,0,1,2.879-.727H89.38V6.352a1.4,1.4,0,0,0-.3-.938,1.183,1.183,0,0,0-.949-.351,1.348,1.348,0,0,0-.895.273.934.934,0,0,0-.324.75H84.653a2.276,2.276,0,0,1,.453-1.359,3,3,0,0,1,1.282-.981,4.665,4.665,0,0,1,1.859-.355,3.694,3.694,0,0,1,2.481.785,2.747,2.747,0,0,1,.918,2.207v3.664a4.034,4.034,0,0,0,.335,1.82V12Zm-1.867-1.57a1.939,1.939,0,0,0,.922-.223,1.463,1.463,0,0,0,.625-.6V8.157h-.844q-1.7,0-1.805,1.171l-.007.133a.9.9,0,0,0,.3.7,1.153,1.153,0,0,0,.812.273" fill="#fff"/>
          <path id="Trazado_158898" data-name="Trazado 158898" d="M101.16,8.805l1.562-5.258h2.422l-3.4,9.766-.188.445a2.574,2.574,0,0,1-2.5,1.656,3.553,3.553,0,0,1-1-.148V13.555l.344.008a1.859,1.859,0,0,0,.957-.2,1.278,1.278,0,0,0,.5-.648l.266-.695L97.16,3.547h2.43Z" fill="#fff"/>
          <path id="Trazado_158899" data-name="Trazado 158899" d="M115.558,12a2.489,2.489,0,0,1-.226-.758,2.731,2.731,0,0,1-2.133.915,3,3,0,0,1-2.059-.719,2.31,2.31,0,0,1-.816-1.813,2.389,2.389,0,0,1,1-2.062,4.906,4.906,0,0,1,2.879-.727h1.039V6.352a1.4,1.4,0,0,0-.3-.938,1.185,1.185,0,0,0-.949-.351,1.346,1.346,0,0,0-.895.273.931.931,0,0,0-.324.75h-2.258a2.269,2.269,0,0,1,.453-1.359,3,3,0,0,1,1.282-.981,4.665,4.665,0,0,1,1.859-.355,3.7,3.7,0,0,1,2.481.785,2.75,2.75,0,0,1,.918,2.207v3.664a4.034,4.034,0,0,0,.335,1.82V12Zm-1.867-1.57a1.939,1.939,0,0,0,.922-.223,1.463,1.463,0,0,0,.625-.6V8.157h-.844q-1.7,0-1.805,1.171l-.007.133a.9.9,0,0,0,.3.7,1.151,1.151,0,0,0,.812.273" fill="#fff"/>
          <path id="Trazado_158900" data-name="Trazado 158900" d="M123.073,10.336a1.478,1.478,0,0,0,1.016-.344,1.208,1.208,0,0,0,.406-.914h2.117a2.886,2.886,0,0,1-.469,1.574,3.086,3.086,0,0,1-1.261,1.11,3.967,3.967,0,0,1-1.77.394A3.667,3.667,0,0,1,120.253,11a4.556,4.556,0,0,1-1.047-3.184V7.672a4.506,4.506,0,0,1,1.039-3.117A3.622,3.622,0,0,1,123.1,3.391a3.551,3.551,0,0,1,2.543.9,3.2,3.2,0,0,1,.973,2.4H124.5a1.559,1.559,0,0,0-.406-1.072,1.511,1.511,0,0,0-2.223.163,3.327,3.327,0,0,0-.4,1.866v.235a3.374,3.374,0,0,0,.4,1.878,1.376,1.376,0,0,0,1.211.571" fill="#fff"/>
          <path id="Trazado_158901" data-name="Trazado 158901" d="M130.925,1.469V3.547h1.445V5.2h-1.445V9.422a1.007,1.007,0,0,0,.18.672.9.9,0,0,0,.687.2,3.546,3.546,0,0,0,.664-.055v1.711a4.624,4.624,0,0,1-1.367.2,2.156,2.156,0,0,1-2.422-2.4V5.2h-1.234V3.547h1.234V1.469Z" fill="#fff"/>
          <path id="Trazado_158902" data-name="Trazado 158902" d="M133.933,1.359a1.113,1.113,0,0,1,.339-.836,1.465,1.465,0,0,1,1.848,0,1.106,1.106,0,0,1,.344.836,1.108,1.108,0,0,1-.348.844,1.449,1.449,0,0,1-1.836,0,1.108,1.108,0,0,1-.347-.844M136.331,12h-2.266V3.547h2.266Z" fill="#fff"/>
          <path id="Trazado_158903" data-name="Trazado 158903" d="M141.674,9.242l1.57-5.695h2.36L142.752,12H140.6l-2.852-8.453h2.36Z" fill="#fff"/>
          <path id="Trazado_158904" data-name="Trazado 158904" d="M146.9,1.359a1.114,1.114,0,0,1,.34-.836,1.465,1.465,0,0,1,1.848,0,1.106,1.106,0,0,1,.344.836,1.112,1.112,0,0,1-.348.844,1.449,1.449,0,0,1-1.836,0,1.112,1.112,0,0,1-.348-.844M149.3,12h-2.266V3.547H149.3Z" fill="#fff"/>
          <path id="Trazado_158905" data-name="Trazado 158905" d="M151.127,7.711a5.088,5.088,0,0,1,.887-3.148,2.874,2.874,0,0,1,2.426-1.172,2.59,2.59,0,0,1,2.039.922V0h2.265V12h-2.039l-.109-.9a2.658,2.658,0,0,1-2.172,1.054,2.866,2.866,0,0,1-2.394-1.175,5.259,5.259,0,0,1-.9-3.27m2.258.168A3.338,3.338,0,0,0,153.8,9.7a1.347,1.347,0,0,0,1.2.634,1.513,1.513,0,0,0,1.477-.884V6.11a1.491,1.491,0,0,0-1.461-.883q-1.634,0-1.633,2.652" fill="#fff"/>
          <path id="Trazado_158906" data-name="Trazado 158906" d="M165.713,12a2.489,2.489,0,0,1-.226-.758,2.731,2.731,0,0,1-2.133.915,3,3,0,0,1-2.059-.719,2.31,2.31,0,0,1-.816-1.813,2.389,2.389,0,0,1,1-2.062,4.906,4.906,0,0,1,2.879-.727h1.039V6.352a1.4,1.4,0,0,0-.3-.938,1.185,1.185,0,0,0-.949-.351,1.346,1.346,0,0,0-.9.273.931.931,0,0,0-.324.75h-2.258a2.269,2.269,0,0,1,.453-1.359,3,3,0,0,1,1.282-.981,4.665,4.665,0,0,1,1.859-.355,3.7,3.7,0,0,1,2.481.785,2.75,2.75,0,0,1,.918,2.207v3.664a4.034,4.034,0,0,0,.335,1.82V12Zm-1.867-1.57a1.939,1.939,0,0,0,.922-.223,1.463,1.463,0,0,0,.625-.6V8.157h-.844q-1.7,0-1.8,1.171l-.007.133a.9.9,0,0,0,.3.7,1.151,1.151,0,0,0,.812.273" fill="#fff"/>
          <path id="Trazado_158907" data-name="Trazado 158907" d="M169.36,7.711a5.1,5.1,0,0,1,.887-3.148,2.874,2.874,0,0,1,2.426-1.172,2.587,2.587,0,0,1,2.039.922V0h2.265V12h-2.039l-.109-.9a2.657,2.657,0,0,1-2.172,1.054,2.866,2.866,0,0,1-2.394-1.175,5.259,5.259,0,0,1-.9-3.27m2.258.168a3.338,3.338,0,0,0,.414,1.823,1.348,1.348,0,0,0,1.2.634,1.511,1.511,0,0,0,1.477-.884V6.11a1.491,1.491,0,0,0-1.461-.883q-1.634,0-1.633,2.652" fill="#fff"/>
          <path id="Trazado_158908" data-name="Trazado 158908" d="M182.939,12.156a4.152,4.152,0,0,1-3.028-1.14,4.055,4.055,0,0,1-1.168-3.039V7.758a5.1,5.1,0,0,1,.493-2.277,3.616,3.616,0,0,1,1.394-1.547,3.9,3.9,0,0,1,2.059-.543,3.508,3.508,0,0,1,2.73,1.093,4.447,4.447,0,0,1,1,3.1v.922h-5.382a2.093,2.093,0,0,0,.66,1.328,2,2,0,0,0,1.394.5,2.439,2.439,0,0,0,2.039-.945l1.11,1.242a3.4,3.4,0,0,1-1.375,1.121,4.5,4.5,0,0,1-1.922.4m-.258-6.945a1.408,1.408,0,0,0-1.09.455,2.356,2.356,0,0,0-.535,1.3H184.2V6.788a1.686,1.686,0,0,0-.407-1.165,1.457,1.457,0,0,0-1.109-.412" fill="#fff"/>
          <path id="Trazado_158909" data-name="Trazado 158909" d="M192.6,9.664a.728.728,0,0,0-.41-.652,4.634,4.634,0,0,0-1.317-.426q-3.015-.633-3.015-2.563a2.321,2.321,0,0,1,.933-1.879,3.769,3.769,0,0,1,2.442-.753,4.057,4.057,0,0,1,2.574.757,2.39,2.39,0,0,1,.965,1.969h-2.258a1.094,1.094,0,0,0-.312-.8A1.325,1.325,0,0,0,191.22,5a1.349,1.349,0,0,0-.883.258.811.811,0,0,0-.312.656.694.694,0,0,0,.355.605,3.641,3.641,0,0,0,1.2.4A9.719,9.719,0,0,1,193,7.3,2.335,2.335,0,0,1,194.79,9.57a2.2,2.2,0,0,1-.992,1.871,4.276,4.276,0,0,1-2.562.715,4.462,4.462,0,0,1-1.887-.379,3.155,3.155,0,0,1-1.293-1.039,2.41,2.41,0,0,1-.469-1.426h2.141a1.176,1.176,0,0,0,.445.922,1.765,1.765,0,0,0,1.11.321,1.638,1.638,0,0,0,.98-.246.768.768,0,0,0,.332-.645" fill="#fff"/>
          <path id="Trazado_158910" data-name="Trazado 158910" d="M200.515,7.711a5.088,5.088,0,0,1,.887-3.148,2.874,2.874,0,0,1,2.426-1.172,2.59,2.59,0,0,1,2.039.922V0h2.265V12h-2.039l-.109-.9a2.658,2.658,0,0,1-2.172,1.054,2.866,2.866,0,0,1-2.394-1.175,5.259,5.259,0,0,1-.9-3.27m2.258.168a3.338,3.338,0,0,0,.414,1.823,1.347,1.347,0,0,0,1.2.634,1.513,1.513,0,0,0,1.477-.884V6.11a1.491,1.491,0,0,0-1.461-.883q-1.634,0-1.633,2.652" fill="#fff"/>
          <path id="Trazado_158911" data-name="Trazado 158911" d="M214.094,12.156a4.152,4.152,0,0,1-3.028-1.14A4.055,4.055,0,0,1,209.9,7.977V7.758a5.1,5.1,0,0,1,.493-2.277,3.616,3.616,0,0,1,1.394-1.547,3.9,3.9,0,0,1,2.059-.543,3.508,3.508,0,0,1,2.73,1.093,4.446,4.446,0,0,1,1,3.1v.922h-5.382a2.093,2.093,0,0,0,.66,1.328,2,2,0,0,0,1.394.5,2.439,2.439,0,0,0,2.039-.945l1.11,1.242a3.4,3.4,0,0,1-1.375,1.121,4.5,4.5,0,0,1-1.922.4m-.258-6.945a1.408,1.408,0,0,0-1.09.455,2.356,2.356,0,0,0-.535,1.3h3.141V6.788a1.686,1.686,0,0,0-.407-1.165,1.457,1.457,0,0,0-1.109-.412" fill="#fff"/>
          <rect id="Rectángulo_11827" data-name="Rectángulo 11827" width="2.266" height="12" transform="translate(219.288 0)" fill="#fff"/>
          <path id="Trazado_158912" data-name="Trazado 158912" d="M235.648,7.851a5.071,5.071,0,0,1-.887,3.129,2.844,2.844,0,0,1-2.394,1.176,2.633,2.633,0,0,1-2.071-.891v3.984h-2.258V3.546h2.094l.078.828a2.654,2.654,0,0,1,2.141-.984,2.867,2.867,0,0,1,2.43,1.156,5.208,5.208,0,0,1,.867,3.188Zm-2.258-.164a3.33,3.33,0,0,0-.418-1.82,1.363,1.363,0,0,0-1.215-.641,1.478,1.478,0,0,0-1.461.813V9.5a1.5,1.5,0,0,0,1.477.836q1.617,0,1.617-2.648" fill="#fff"/>
          <path id="Trazado_158913" data-name="Trazado 158913" d="M242.115,5.664A6.076,6.076,0,0,0,241.3,5.6a1.653,1.653,0,0,0-1.68.867V12h-2.258V3.547H239.5l.062,1.008a2.09,2.09,0,0,1,1.883-1.164,2.385,2.385,0,0,1,.7.1Z" fill="#fff"/>
          <path id="Trazado_158914" data-name="Trazado 158914" d="M242.888,7.7a5,5,0,0,1,.485-2.242,3.551,3.551,0,0,1,1.394-1.524,4.074,4.074,0,0,1,2.113-.539,3.848,3.848,0,0,1,2.793,1.047,4.2,4.2,0,0,1,1.207,2.844l.016.578a4.418,4.418,0,0,1-1.086,3.121,4.208,4.208,0,0,1-5.832,0,4.494,4.494,0,0,1-1.09-3.188Zm2.258.16A3.16,3.16,0,0,0,245.6,9.7a1.629,1.629,0,0,0,2.578.008,3.454,3.454,0,0,0,.461-2.015,3.122,3.122,0,0,0-.461-1.831,1.5,1.5,0,0,0-1.3-.65,1.474,1.474,0,0,0-1.281.646,3.518,3.518,0,0,0-.453,2" fill="#fff"/>
          <path id="Trazado_158915" data-name="Trazado 158915" d="M255.646,8.805l1.562-5.258h2.422l-3.4,9.766-.188.445a2.575,2.575,0,0,1-2.5,1.656,3.548,3.548,0,0,1-1-.148V13.555l.344.008a1.859,1.859,0,0,0,.957-.2,1.278,1.278,0,0,0,.5-.648l.266-.695-2.961-8.477h2.43Z" fill="#fff"/>
          <path id="Trazado_158916" data-name="Trazado 158916" d="M264.63,12.156a4.154,4.154,0,0,1-3.028-1.14,4.059,4.059,0,0,1-1.168-3.039V7.758a5.1,5.1,0,0,1,.493-2.277,3.616,3.616,0,0,1,1.394-1.547,3.907,3.907,0,0,1,2.059-.543,3.507,3.507,0,0,1,2.73,1.093,4.446,4.446,0,0,1,1,3.1v.922h-5.382a2.1,2.1,0,0,0,.66,1.328,2,2,0,0,0,1.394.5,2.436,2.436,0,0,0,2.039-.945l1.11,1.242a3.4,3.4,0,0,1-1.375,1.121,4.5,4.5,0,0,1-1.922.4m-.258-6.945a1.408,1.408,0,0,0-1.09.455,2.363,2.363,0,0,0-.535,1.3h3.141V6.788a1.681,1.681,0,0,0-.407-1.165,1.457,1.457,0,0,0-1.109-.412" fill="#fff"/>
          <path id="Trazado_158917" data-name="Trazado 158917" d="M273.224,10.336a1.478,1.478,0,0,0,1.016-.344,1.208,1.208,0,0,0,.406-.914h2.117a2.887,2.887,0,0,1-.469,1.574,3.086,3.086,0,0,1-1.261,1.11,3.967,3.967,0,0,1-1.77.394A3.667,3.667,0,0,1,270.4,11a4.556,4.556,0,0,1-1.047-3.184V7.672A4.506,4.506,0,0,1,270.4,4.555a3.622,3.622,0,0,1,2.851-1.164,3.551,3.551,0,0,1,2.543.9,3.2,3.2,0,0,1,.973,2.4h-2.117a1.559,1.559,0,0,0-.406-1.072,1.511,1.511,0,0,0-2.223.163,3.327,3.327,0,0,0-.4,1.866v.235a3.374,3.374,0,0,0,.4,1.878,1.376,1.376,0,0,0,1.211.571" fill="#fff"/>
          <path id="Trazado_158918" data-name="Trazado 158918" d="M281.075,1.469V3.547h1.445V5.2h-1.445V9.422a1.007,1.007,0,0,0,.18.672.9.9,0,0,0,.687.2,3.554,3.554,0,0,0,.664-.055v1.711a4.628,4.628,0,0,1-1.367.2,2.156,2.156,0,0,1-2.422-2.4V5.2h-1.234V3.547h1.234V1.469Z" fill="#fff"/>
          <path id="Trazado_158919" data-name="Trazado 158919" d="M283.511,7.7A5,5,0,0,1,284,5.453a3.551,3.551,0,0,1,1.394-1.524A4.074,4.074,0,0,1,287.5,3.39,3.845,3.845,0,0,1,290.3,4.437,4.2,4.2,0,0,1,291.5,7.281l.017.578a4.418,4.418,0,0,1-1.087,3.121,4.208,4.208,0,0,1-5.832,0,4.494,4.494,0,0,1-1.09-3.188Zm2.259.16a3.16,3.16,0,0,0,.452,1.843,1.629,1.629,0,0,0,2.578.008,3.453,3.453,0,0,0,.461-2.015A3.122,3.122,0,0,0,288.8,5.86a1.5,1.5,0,0,0-1.3-.65,1.474,1.474,0,0,0-1.281.646,3.519,3.519,0,0,0-.452,2" fill="#fff"/>
        </g>
      </g>
    </g>
  </g>
</svg>
