<svg xmlns="http://www.w3.org/2000/svg" width="820" height="160" viewBox="0 0 820 160">
  <g id="Grupo_71558" data-name="Grupo 71558" transform="translate(-488 6408)">
    <g id="Grupo_71557" data-name="Grupo 71557" transform="translate(0 -11)">
      <g id="Grupo_71547" data-name="Grupo 71547" transform="translate(-107 -888)">
        <g id="Elipse_5356" data-name="Elipse 5356" transform="translate(674 -5497)" fill="none" stroke="#707070" stroke-width="1.5">
          <circle cx="52" cy="52" r="52" stroke="none"/>
          <circle cx="52" cy="52" r="51.25" fill="none"/>
        </g>
        <ellipse id="Elipse_5355" data-name="Elipse 5355" cx="40.49" cy="40.49" rx="40.49" ry="40.49" transform="translate(685.812 -5485.65)" fill="#c04b48"/>
        <g id="Grupo_71546" data-name="Grupo 71546" transform="translate(672 -5499.461)">
          <path id="Trazado_103785" data-name="Trazado 103785" d="M234.813,1288.7h-5.878a54.3,54.3,0,0,1,54.3-54.3v5.878A48.478,48.478,0,0,0,234.813,1288.7Z" transform="translate(-228.935 -1234.403)" fill="#c04b48"/>
        </g>
      </g>
      <g id="Grupo_71553" data-name="Grupo 71553" transform="translate(39 -888)">
        <g id="Elipse_5356-2" data-name="Elipse 5356" transform="translate(674 -5497)" fill="none" stroke="#707070" stroke-width="1.5">
          <circle cx="52" cy="52" r="52" stroke="none"/>
          <circle cx="52" cy="52" r="51.25" fill="none"/>
        </g>
        <ellipse id="Elipse_5355-2" data-name="Elipse 5355" cx="40.49" cy="40.49" rx="40.49" ry="40.49" transform="translate(685.812 -5485.65)" fill="#e94b46"/>
        <g id="Grupo_71546-2" data-name="Grupo 71546" transform="translate(672 -5499.461)">
          <path id="Trazado_103785-2" data-name="Trazado 103785" d="M234.813,1288.7h-5.878a54.3,54.3,0,0,1,54.3-54.3v5.878A48.478,48.478,0,0,0,234.813,1288.7Z" transform="translate(-228.935 -1234.403)" fill="#e94b46"/>
        </g>
      </g>
      <g id="Grupo_71554" data-name="Grupo 71554" transform="translate(185 -888)">
        <g id="Elipse_5356-3" data-name="Elipse 5356" transform="translate(674 -5497)" fill="none" stroke="#707070" stroke-width="1.5">
          <circle cx="52" cy="52" r="52" stroke="none"/>
          <circle cx="52" cy="52" r="51.25" fill="none"/>
        </g>
        <ellipse id="Elipse_5355-3" data-name="Elipse 5355" cx="40.49" cy="40.49" rx="40.49" ry="40.49" transform="translate(685.812 -5485.65)" fill="#fa9300"/>
        <g id="Grupo_71546-3" data-name="Grupo 71546" transform="translate(672 -5499.461)">
          <path id="Trazado_103785-3" data-name="Trazado 103785" d="M234.813,1288.7h-5.878a54.3,54.3,0,0,1,54.3-54.3v5.878A48.478,48.478,0,0,0,234.813,1288.7Z" transform="translate(-228.935 -1234.403)" fill="#fa9300"/>
        </g>
      </g>
      <g id="Grupo_71555" data-name="Grupo 71555" transform="translate(331 -888)">
        <g id="Elipse_5356-4" data-name="Elipse 5356" transform="translate(674 -5497)" fill="none" stroke="#707070" stroke-width="1.5">
          <circle cx="52" cy="52" r="52" stroke="none"/>
          <circle cx="52" cy="52" r="51.25" fill="none"/>
        </g>
        <ellipse id="Elipse_5355-4" data-name="Elipse 5355" cx="40.49" cy="40.49" rx="40.49" ry="40.49" transform="translate(685.812 -5485.65)" fill="#daa363"/>
        <g id="Grupo_71546-4" data-name="Grupo 71546" transform="translate(672 -5499.461)">
          <path id="Trazado_103785-4" data-name="Trazado 103785" d="M234.813,1288.7h-5.878a54.3,54.3,0,0,1,54.3-54.3v5.878A48.478,48.478,0,0,0,234.813,1288.7Z" transform="translate(-228.935 -1234.403)" fill="#daa363"/>
        </g>
      </g>
      <g id="Grupo_71556" data-name="Grupo 71556" transform="translate(477 -888)">
        <g id="Elipse_5356-5" data-name="Elipse 5356" transform="translate(674 -5497)" fill="none" stroke="#707070" stroke-width="1.5">
          <circle cx="52" cy="52" r="52" stroke="none"/>
          <circle cx="52" cy="52" r="51.25" fill="none"/>
        </g>
        <ellipse id="Elipse_5355-5" data-name="Elipse 5355" cx="40.49" cy="40.49" rx="40.49" ry="40.49" transform="translate(685.812 -5485.65)" fill="#69787d"/>
        <g id="Grupo_71546-5" data-name="Grupo 71546" transform="translate(672 -5499.461)">
          <path id="Trazado_103785-5" data-name="Trazado 103785" d="M234.813,1288.7h-5.878a54.3,54.3,0,0,1,54.3-54.3v5.878A48.478,48.478,0,0,0,234.813,1288.7Z" transform="translate(-228.935 -1234.403)" fill="#69787d"/>
        </g>
      </g>
      <g id="Grupo_71552" data-name="Grupo 71552" transform="translate(-29.406)">
        <path id="Trazado_159350" data-name="Trazado 159350" d="M0,12.164V.789H3.36a5.281,5.281,0,0,1,2.676.672A4.589,4.589,0,0,1,7.844,3.367,6.057,6.057,0,0,1,8.485,6.2v.57A6.025,6.025,0,0,1,7.84,9.61,4.516,4.516,0,0,1,6,11.5a5.5,5.5,0,0,1-2.73.664ZM1.977,2.383v8.2H3.266a2.968,2.968,0,0,0,2.387-.973A4.237,4.237,0,0,0,6.5,6.82V6.188A4.348,4.348,0,0,0,5.7,3.36,2.854,2.854,0,0,0,3.36,2.383Z" transform="translate(618 -6267)"/>
        <path id="Trazado_159351" data-name="Trazado 159351" d="M13.993,12.32a3.926,3.926,0,0,1-2.926-1.137A4.122,4.122,0,0,1,9.946,8.156V7.922a5.08,5.08,0,0,1,.488-2.262,3.712,3.712,0,0,1,1.371-1.551,3.633,3.633,0,0,1,1.969-.554,3.319,3.319,0,0,1,2.668,1.1,4.656,4.656,0,0,1,.941,3.117v.766H11.86a2.535,2.535,0,0,0,.7,1.656,2.1,2.1,0,0,0,1.543.61A2.571,2.571,0,0,0,16.227,9.75l1.023.976A3.4,3.4,0,0,1,15.9,11.9a4.24,4.24,0,0,1-1.9.418m-.227-7.242a1.6,1.6,0,0,0-1.262.547,2.844,2.844,0,0,0-.613,1.523h3.617v-.14A2.313,2.313,0,0,0,15,5.566a1.588,1.588,0,0,0-1.234-.488" transform="translate(618 -6267)"/>
        <path id="Trazado_159352" data-name="Trazado 159352" d="M19.523,12.164V5.117H18.234V3.711h1.289V2.937A2.9,2.9,0,0,1,20.3.766,3,3,0,0,1,22.492,0a4.375,4.375,0,0,1,1.062.141l-.047,1.484a3.781,3.781,0,0,0-.726-.063,1.22,1.22,0,0,0-1.36,1.4v.75H23.14V5.117H21.421v7.047Z" transform="translate(618 -6267)"/>
        <path id="Trazado_159353" data-name="Trazado 159353" d="M24.531,1.515a1.008,1.008,0,0,1,.278-.726A1.045,1.045,0,0,1,25.6.5a1.058,1.058,0,0,1,.8.289,1,1,0,0,1,.282.726.971.971,0,0,1-.282.715,1.064,1.064,0,0,1-.8.285,1.051,1.051,0,0,1-.793-.285.98.98,0,0,1-.278-.715m2.016,10.649h-1.9V3.711h1.9Z" transform="translate(618 -6267)"/>
        <path id="Trazado_159354" data-name="Trazado 159354" d="M30.375,3.711l.055.977a3.04,3.04,0,0,1,2.461-1.133q2.64,0,2.687,3.023v5.586h-1.9V6.688A1.746,1.746,0,0,0,33.332,5.5a1.46,1.46,0,0,0-1.137-.387,1.83,1.83,0,0,0-1.711,1.04v6.015h-1.9V3.711Z" transform="translate(618 -6267)"/>
        <path id="Trazado_159355" data-name="Trazado 159355" d="M37.516,1.515a1.007,1.007,0,0,1,.277-.726A1.046,1.046,0,0,1,38.586.5a1.06,1.06,0,0,1,.8.289,1,1,0,0,1,.281.726.975.975,0,0,1-.281.715,1.066,1.066,0,0,1-.8.285,1.052,1.052,0,0,1-.793-.285.98.98,0,0,1-.277-.715m2.015,10.649h-1.9V3.711h1.9Z" transform="translate(618 -6267)"/>
        <path id="Trazado_159356" data-name="Trazado 159356" d="M46.023,5.445a4.772,4.772,0,0,0-.773-.062,1.741,1.741,0,0,0-1.758,1v5.782h-1.9V3.711h1.813l.047.945a2.139,2.139,0,0,1,1.906-1.1,1.778,1.778,0,0,1,.672.11Z" transform="translate(618 -6267)"/>
        <rect id="Rectángulo_11921" data-name="Rectángulo 11921" width="1.898" height="12" transform="translate(665.344 -6266.836)"/>
        <path id="Trazado_159357" data-name="Trazado 159357" d="M50.954,7.86a4.985,4.985,0,0,1,.492-2.238A3.6,3.6,0,0,1,52.829,4.09a3.9,3.9,0,0,1,2.046-.535,3.691,3.691,0,0,1,2.778,1.1,4.331,4.331,0,0,1,1.152,2.922l.008.445a5.015,5.015,0,0,1-.481,2.234,3.546,3.546,0,0,1-1.375,1.524,3.927,3.927,0,0,1-2.066.539,3.665,3.665,0,0,1-2.863-1.192,4.559,4.559,0,0,1-1.074-3.175Zm1.9.164a3.408,3.408,0,0,0,.539,2.043,1.752,1.752,0,0,0,1.5.738,1.732,1.732,0,0,0,1.5-.75,3.758,3.758,0,0,0,.535-2.2,3.363,3.363,0,0,0-.55-2.031,1.762,1.762,0,0,0-1.5-.75,1.741,1.741,0,0,0-1.476.738,3.7,3.7,0,0,0-.547,2.207" transform="translate(618 -6267)"/>
      </g>
      <g id="Grupo_71551" data-name="Grupo 71551" transform="translate(-17.317)">
        <path id="Trazado_159358" data-name="Trazado 159358" d="M127.356,8.461a4.1,4.1,0,0,1-1.344,2.84,4.578,4.578,0,0,1-3.117,1.019,4.431,4.431,0,0,1-2.394-.644,4.225,4.225,0,0,1-1.6-1.832,6.615,6.615,0,0,1-.586-2.758V6.023a6.662,6.662,0,0,1,.57-2.835A4.3,4.3,0,0,1,120.524,1.3a4.571,4.571,0,0,1,2.465-.664,4.4,4.4,0,0,1,3.031,1.019,4.262,4.262,0,0,1,1.336,2.887h-1.969a2.81,2.81,0,0,0-.715-1.769,2.361,2.361,0,0,0-1.683-.543,2.308,2.308,0,0,0-1.981.942,4.715,4.715,0,0,0-.707,2.765V6.942a5,5,0,0,0,.66,2.815,2.194,2.194,0,0,0,1.934.97,2.551,2.551,0,0,0,1.75-.524,2.725,2.725,0,0,0,.742-1.742Z" transform="translate(618 -6267)"/>
        <path id="Trazado_159359" data-name="Trazado 159359" d="M128.583,7.86a4.985,4.985,0,0,1,.492-2.238,3.6,3.6,0,0,1,1.383-1.532,3.9,3.9,0,0,1,2.046-.535,3.691,3.691,0,0,1,2.778,1.1,4.331,4.331,0,0,1,1.152,2.922l.008.445a5.015,5.015,0,0,1-.481,2.234,3.546,3.546,0,0,1-1.375,1.524,3.926,3.926,0,0,1-2.066.539,3.665,3.665,0,0,1-2.863-1.192,4.559,4.559,0,0,1-1.074-3.175Zm1.9.164a3.408,3.408,0,0,0,.539,2.043,1.752,1.752,0,0,0,1.5.738,1.732,1.732,0,0,0,1.5-.75,3.758,3.758,0,0,0,.535-2.2A3.363,3.363,0,0,0,134,5.829a1.762,1.762,0,0,0-1.5-.75,1.741,1.741,0,0,0-1.476.738,3.7,3.7,0,0,0-.547,2.207" transform="translate(618 -6267)"/>
        <path id="Trazado_159360" data-name="Trazado 159360" d="M139.833,3.711l.055.883a3.039,3.039,0,0,1,2.437-1.039,2.335,2.335,0,0,1,2.32,1.3,3,3,0,0,1,2.594-1.3,2.637,2.637,0,0,1,2.082.773,3.409,3.409,0,0,1,.7,2.281v5.555h-1.9v-5.5a1.68,1.68,0,0,0-.352-1.18,1.538,1.538,0,0,0-1.164-.375,1.583,1.583,0,0,0-1.058.348,1.832,1.832,0,0,0-.574.91l.007,5.8h-1.9V6.6a1.355,1.355,0,0,0-1.523-1.493,1.674,1.674,0,0,0-1.618.93v6.125h-1.9V3.711Z" transform="translate(618 -6267)"/>
        <path id="Trazado_159361" data-name="Trazado 159361" d="M157.091,11.336a2.946,2.946,0,0,1-2.375.984,2.622,2.622,0,0,1-2.082-.8,3.42,3.42,0,0,1-.707-2.328V3.711h1.9V9.164q0,1.61,1.336,1.61a1.878,1.878,0,0,0,1.868-.993V3.711h1.9v8.453h-1.789Z" transform="translate(618 -6267)"/>
        <path id="Trazado_159362" data-name="Trazado 159362" d="M162.622,3.711l.055.977a3.04,3.04,0,0,1,2.461-1.133q2.64,0,2.687,3.023v5.586h-1.9V6.688a1.746,1.746,0,0,0-.348-1.192,1.46,1.46,0,0,0-1.137-.387,1.83,1.83,0,0,0-1.711,1.04v6.015h-1.9V3.711Z" transform="translate(618 -6267)"/>
        <path id="Trazado_159363" data-name="Trazado 159363" d="M169.763,1.515a1.007,1.007,0,0,1,.277-.726A1.046,1.046,0,0,1,170.833.5a1.06,1.06,0,0,1,.8.289,1,1,0,0,1,.281.726.975.975,0,0,1-.281.715,1.066,1.066,0,0,1-.8.285,1.052,1.052,0,0,1-.793-.285.98.98,0,0,1-.277-.715m2.015,10.649h-1.9V3.711h1.9Z" transform="translate(618 -6267)"/>
        <path id="Trazado_159364" data-name="Trazado 159364" d="M177.317,10.805a1.718,1.718,0,0,0,1.18-.414,1.415,1.415,0,0,0,.5-1.023h1.789a2.788,2.788,0,0,1-.492,1.472,3.226,3.226,0,0,1-1.25,1.082,3.725,3.725,0,0,1-1.7.4,3.6,3.6,0,0,1-2.812-1.149A4.556,4.556,0,0,1,173.489,8V7.8a4.484,4.484,0,0,1,1.031-3.09,3.574,3.574,0,0,1,2.813-1.16,3.473,3.473,0,0,1,2.457.879,3.15,3.15,0,0,1,1,2.309H179a1.745,1.745,0,0,0-.5-1.2,1.6,1.6,0,0,0-1.184-.469,1.672,1.672,0,0,0-1.422.668,3.411,3.411,0,0,0-.508,2.028v.3a3.462,3.462,0,0,0,.5,2.051,1.669,1.669,0,0,0,1.434.676" transform="translate(618 -6267)"/>
        <path id="Trazado_159365" data-name="Trazado 159365" d="M187.271,12.164a2.949,2.949,0,0,1-.219-.789,2.952,2.952,0,0,1-2.219.945,2.984,2.984,0,0,1-2.078-.726,2.326,2.326,0,0,1-.8-1.8,2.4,2.4,0,0,1,1-2.074A4.86,4.86,0,0,1,185.826,7h1.164V6.445a1.475,1.475,0,0,0-.368-1.05A1.456,1.456,0,0,0,185.505,5a1.678,1.678,0,0,0-1.062.324,1,1,0,0,0-.414.825h-1.9a2.111,2.111,0,0,1,.461-1.3,3.075,3.075,0,0,1,1.254-.949,4.4,4.4,0,0,1,1.77-.344,3.55,3.55,0,0,1,2.367.746,2.659,2.659,0,0,1,.906,2.1v3.812a4.326,4.326,0,0,0,.32,1.82v.133ZM185.185,10.8a2.165,2.165,0,0,0,1.059-.273,1.822,1.822,0,0,0,.746-.735V8.195h-1.024a2.8,2.8,0,0,0-1.586.368,1.19,1.19,0,0,0-.531,1.039,1.109,1.109,0,0,0,.363.871,1.405,1.405,0,0,0,.973.324" transform="translate(618 -6267)"/>
        <path id="Trazado_159366" data-name="Trazado 159366" d="M195.3,5.445a4.772,4.772,0,0,0-.773-.062,1.741,1.741,0,0,0-1.758,1v5.782h-1.9V3.711h1.813l.047.945a2.139,2.139,0,0,1,1.906-1.1,1.778,1.778,0,0,1,.672.11Z" transform="translate(618 -6267)"/>
        <rect id="Rectángulo_11922" data-name="Rectángulo 11922" width="1.898" height="12" transform="translate(814.623 -6266.836)"/>
        <path id="Trazado_159367" data-name="Trazado 159367" d="M200.232,7.86a4.985,4.985,0,0,1,.492-2.238,3.6,3.6,0,0,1,1.383-1.532,3.9,3.9,0,0,1,2.046-.535,3.691,3.691,0,0,1,2.778,1.1,4.331,4.331,0,0,1,1.152,2.922l.008.445a5.015,5.015,0,0,1-.481,2.234,3.546,3.546,0,0,1-1.375,1.524,3.926,3.926,0,0,1-2.066.539,3.665,3.665,0,0,1-2.863-1.192,4.559,4.559,0,0,1-1.074-3.175Zm1.9.164a3.408,3.408,0,0,0,.539,2.043,1.752,1.752,0,0,0,1.5.738,1.732,1.732,0,0,0,1.5-.75,3.758,3.758,0,0,0,.535-2.2,3.363,3.363,0,0,0-.55-2.031,1.762,1.762,0,0,0-1.5-.75,1.741,1.741,0,0,0-1.476.738,3.7,3.7,0,0,0-.547,2.207" transform="translate(618 -6267)"/>
      </g>
      <g id="Grupo_71550" data-name="Grupo 71550" transform="translate(15.917)">
        <path id="Trazado_159368" data-name="Trazado 159368" d="M242.645,12.164V.789h3.36a5.281,5.281,0,0,1,2.676.672,4.589,4.589,0,0,1,1.808,1.906A6.057,6.057,0,0,1,251.13,6.2v.57a6.025,6.025,0,0,1-.645,2.844,4.517,4.517,0,0,1-1.836,1.89,5.5,5.5,0,0,1-2.73.664Zm1.977-9.781v8.2h1.289a2.968,2.968,0,0,0,2.387-.973,4.237,4.237,0,0,0,.847-2.793V6.188a4.348,4.348,0,0,0-.8-2.828,2.854,2.854,0,0,0-2.336-.977Z" transform="translate(618 -6267)"/>
        <path id="Trazado_159369" data-name="Trazado 159369" d="M256.638,12.32a3.926,3.926,0,0,1-2.926-1.137,4.122,4.122,0,0,1-1.121-3.027V7.922a5.08,5.08,0,0,1,.488-2.262,3.712,3.712,0,0,1,1.371-1.551,3.633,3.633,0,0,1,1.969-.554,3.319,3.319,0,0,1,2.668,1.1,4.656,4.656,0,0,1,.941,3.117v.766h-5.523a2.535,2.535,0,0,0,.7,1.656,2.1,2.1,0,0,0,1.543.61,2.571,2.571,0,0,0,2.125-1.055l1.023.976A3.4,3.4,0,0,1,258.54,11.9a4.24,4.24,0,0,1-1.9.418m-.227-7.242a1.6,1.6,0,0,0-1.262.547,2.844,2.844,0,0,0-.613,1.523h3.617v-.14a2.313,2.313,0,0,0-.508-1.442,1.587,1.587,0,0,0-1.234-.488" transform="translate(618 -6267)"/>
        <path id="Trazado_159370" data-name="Trazado 159370" d="M263.88,1.656V3.711h1.492V5.117H263.88V9.836a1.036,1.036,0,0,0,.191.7.89.89,0,0,0,.684.215,2.927,2.927,0,0,0,.664-.078V12.14a4.672,4.672,0,0,1-1.25.18q-2.187,0-2.187-2.414V5.117h-1.391V3.711h1.391V1.656Z" transform="translate(618 -6267)"/>
        <path id="Trazado_159371" data-name="Trazado 159371" d="M271.872,12.164a2.948,2.948,0,0,1-.219-.789,2.952,2.952,0,0,1-2.219.945,2.984,2.984,0,0,1-2.078-.726,2.326,2.326,0,0,1-.8-1.8,2.4,2.4,0,0,1,1-2.074A4.86,4.86,0,0,1,270.427,7h1.164V6.445a1.475,1.475,0,0,0-.368-1.05A1.456,1.456,0,0,0,270.106,5a1.678,1.678,0,0,0-1.062.324,1,1,0,0,0-.414.825h-1.9a2.111,2.111,0,0,1,.461-1.3,3.075,3.075,0,0,1,1.254-.949,4.4,4.4,0,0,1,1.77-.344,3.55,3.55,0,0,1,2.367.746,2.659,2.659,0,0,1,.906,2.1v3.812a4.326,4.326,0,0,0,.32,1.82v.133ZM269.786,10.8a2.164,2.164,0,0,0,1.059-.273,1.822,1.822,0,0,0,.746-.735V8.195h-1.024a2.8,2.8,0,0,0-1.586.368A1.19,1.19,0,0,0,268.45,9.6a1.109,1.109,0,0,0,.363.871,1.405,1.405,0,0,0,.973.324" transform="translate(618 -6267)"/>
        <rect id="Rectángulo_11923" data-name="Rectángulo 11923" width="1.898" height="12" transform="translate(893.599 -6266.836)"/>
        <rect id="Rectángulo_11924" data-name="Rectángulo 11924" width="1.898" height="12" transform="translate(897.685 -6266.836)"/>
        <path id="Trazado_159372" data-name="Trazado 159372" d="M288.7,12.164a2.949,2.949,0,0,1-.219-.789,2.952,2.952,0,0,1-2.219.945,2.984,2.984,0,0,1-2.078-.726,2.326,2.326,0,0,1-.8-1.8,2.4,2.4,0,0,1,1-2.074A4.86,4.86,0,0,1,287.255,7h1.164V6.445a1.475,1.475,0,0,0-.368-1.05A1.456,1.456,0,0,0,286.934,5a1.678,1.678,0,0,0-1.062.324,1,1,0,0,0-.414.825h-1.9a2.111,2.111,0,0,1,.461-1.3,3.075,3.075,0,0,1,1.254-.949,4.4,4.4,0,0,1,1.77-.344,3.55,3.55,0,0,1,2.367.746,2.659,2.659,0,0,1,.906,2.1v3.812a4.326,4.326,0,0,0,.32,1.82v.133ZM286.614,10.8a2.164,2.164,0,0,0,1.059-.273,1.822,1.822,0,0,0,.746-.735V8.195h-1.024a2.8,2.8,0,0,0-1.586.368,1.19,1.19,0,0,0-.531,1.039,1.109,1.109,0,0,0,.363.871,1.405,1.405,0,0,0,.973.324" transform="translate(618 -6267)"/>
        <path id="Trazado_159373" data-name="Trazado 159373" d="M296.731,5.445a4.772,4.772,0,0,0-.773-.062,1.741,1.741,0,0,0-1.758,1v5.782h-1.9V3.711h1.813l.047.945a2.139,2.139,0,0,1,1.906-1.1,1.778,1.778,0,0,1,.672.11Z" transform="translate(618 -6267)"/>
        <rect id="Rectángulo_11925" data-name="Rectángulo 11925" width="1.898" height="12" transform="translate(916.052 -6266.836)"/>
        <path id="Trazado_159374" data-name="Trazado 159374" d="M301.662,7.86a4.985,4.985,0,0,1,.492-2.238,3.6,3.6,0,0,1,1.383-1.532,3.9,3.9,0,0,1,2.046-.535,3.691,3.691,0,0,1,2.778,1.1,4.331,4.331,0,0,1,1.152,2.922l.008.445a5.016,5.016,0,0,1-.481,2.234,3.546,3.546,0,0,1-1.375,1.524,3.927,3.927,0,0,1-2.066.539,3.665,3.665,0,0,1-2.863-1.192,4.559,4.559,0,0,1-1.074-3.175Zm1.9.164a3.408,3.408,0,0,0,.539,2.043,1.752,1.752,0,0,0,1.5.738,1.732,1.732,0,0,0,1.5-.75,3.758,3.758,0,0,0,.535-2.2,3.363,3.363,0,0,0-.55-2.031,1.761,1.761,0,0,0-1.5-.75,1.741,1.741,0,0,0-1.476.738,3.7,3.7,0,0,0-.547,2.207" transform="translate(618 -6267)"/>
      </g>
      <g id="Grupo_71549" data-name="Grupo 71549" transform="translate(35.995)">
        <path id="Trazado_159375" data-name="Trazado 159375" d="M357.06,12.164V.789h3.36a5.281,5.281,0,0,1,2.676.672A4.589,4.589,0,0,1,364.9,3.367a6.057,6.057,0,0,1,.641,2.829v.57A6.025,6.025,0,0,1,364.9,9.61a4.516,4.516,0,0,1-1.836,1.89,5.5,5.5,0,0,1-2.73.664Zm1.977-9.781v8.2h1.289a2.968,2.968,0,0,0,2.387-.973,4.237,4.237,0,0,0,.847-2.793V6.188a4.349,4.349,0,0,0-.8-2.828,2.854,2.854,0,0,0-2.336-.977Z" transform="translate(618 -6267)"/>
        <path id="Trazado_159376" data-name="Trazado 159376" d="M371.053,12.32a3.926,3.926,0,0,1-2.926-1.137,4.122,4.122,0,0,1-1.121-3.027V7.922a5.08,5.08,0,0,1,.488-2.262,3.712,3.712,0,0,1,1.371-1.551,3.633,3.633,0,0,1,1.969-.554,3.319,3.319,0,0,1,2.668,1.1,4.656,4.656,0,0,1,.941,3.117v.766H368.92a2.535,2.535,0,0,0,.7,1.656,2.1,2.1,0,0,0,1.543.61,2.571,2.571,0,0,0,2.125-1.055l1.023.976a3.4,3.4,0,0,1-1.355,1.176,4.24,4.24,0,0,1-1.9.418m-.227-7.242a1.6,1.6,0,0,0-1.262.547,2.844,2.844,0,0,0-.613,1.523h3.617v-.14a2.313,2.313,0,0,0-.508-1.442,1.588,1.588,0,0,0-1.234-.488" transform="translate(618 -6267)"/>
        <path id="Trazado_159377" data-name="Trazado 159377" d="M380.654,9.867a.862.862,0,0,0-.418-.773,4.456,4.456,0,0,0-1.387-.469,7.1,7.1,0,0,1-1.617-.516,2.158,2.158,0,0,1-1.422-1.992,2.252,2.252,0,0,1,.922-1.828,3.647,3.647,0,0,1,2.344-.734,3.79,3.79,0,0,1,2.449.75,2.381,2.381,0,0,1,.934,1.945h-1.9a1.169,1.169,0,0,0-.406-.91,1.553,1.553,0,0,0-1.078-.364,1.688,1.688,0,0,0-1.02.289.917.917,0,0,0-.394.774.77.77,0,0,0,.367.68,5.03,5.03,0,0,0,1.484.488,7.011,7.011,0,0,1,1.754.586,2.485,2.485,0,0,1,.946.816,2.082,2.082,0,0,1,.308,1.156,2.2,2.2,0,0,1-.945,1.848,4.027,4.027,0,0,1-2.477.707,4.372,4.372,0,0,1-1.851-.375,3.049,3.049,0,0,1-1.266-1.031,2.441,2.441,0,0,1-.453-1.414h1.844a1.335,1.335,0,0,0,.508,1.035,1.972,1.972,0,0,0,1.242.363,1.91,1.91,0,0,0,1.14-.285.879.879,0,0,0,.391-.746" transform="translate(618 -6267)"/>
        <path id="Trazado_159378" data-name="Trazado 159378" d="M389.225,12.164a2.948,2.948,0,0,1-.219-.789,2.952,2.952,0,0,1-2.219.945,2.984,2.984,0,0,1-2.078-.726,2.326,2.326,0,0,1-.8-1.8,2.4,2.4,0,0,1,1-2.074A4.86,4.86,0,0,1,387.78,7h1.164V6.445a1.475,1.475,0,0,0-.368-1.05A1.456,1.456,0,0,0,387.459,5a1.678,1.678,0,0,0-1.062.324,1,1,0,0,0-.414.825h-1.9a2.111,2.111,0,0,1,.461-1.3A3.075,3.075,0,0,1,385.8,3.9a4.4,4.4,0,0,1,1.77-.344,3.55,3.55,0,0,1,2.367.746,2.659,2.659,0,0,1,.906,2.1v3.812a4.326,4.326,0,0,0,.32,1.82v.133ZM387.139,10.8a2.164,2.164,0,0,0,1.059-.273,1.822,1.822,0,0,0,.746-.735V8.195H387.92a2.8,2.8,0,0,0-1.586.368A1.19,1.19,0,0,0,385.8,9.6a1.109,1.109,0,0,0,.363.871,1.405,1.405,0,0,0,.973.324" transform="translate(618 -6267)"/>
        <path id="Trazado_159379" data-name="Trazado 159379" d="M397.256,5.445a4.773,4.773,0,0,0-.773-.062,1.741,1.741,0,0,0-1.758,1v5.782h-1.9V3.711h1.813l.047.945a2.139,2.139,0,0,1,1.906-1.1,1.778,1.778,0,0,1,.672.11Z" transform="translate(618 -6267)"/>
        <path id="Trazado_159380" data-name="Trazado 159380" d="M402.881,5.445a4.773,4.773,0,0,0-.773-.062,1.741,1.741,0,0,0-1.758,1v5.782h-1.9V3.711h1.813l.047.945a2.139,2.139,0,0,1,1.906-1.1,1.778,1.778,0,0,1,.672.11Z" transform="translate(618 -6267)"/>
        <path id="Trazado_159381" data-name="Trazado 159381" d="M403.444,7.86a4.985,4.985,0,0,1,.492-2.238,3.6,3.6,0,0,1,1.383-1.532,3.9,3.9,0,0,1,2.046-.535,3.691,3.691,0,0,1,2.778,1.1A4.331,4.331,0,0,1,411.3,7.579l.008.445a5.015,5.015,0,0,1-.481,2.234,3.546,3.546,0,0,1-1.375,1.524,3.926,3.926,0,0,1-2.066.539,3.665,3.665,0,0,1-2.863-1.192,4.559,4.559,0,0,1-1.074-3.175Zm1.9.164a3.408,3.408,0,0,0,.539,2.043,1.752,1.752,0,0,0,1.5.738,1.732,1.732,0,0,0,1.5-.75,3.758,3.758,0,0,0,.535-2.2,3.363,3.363,0,0,0-.55-2.031,1.762,1.762,0,0,0-1.5-.75,1.741,1.741,0,0,0-1.476.738,3.7,3.7,0,0,0-.547,2.207" transform="translate(618 -6267)"/>
        <rect id="Rectángulo_11926" data-name="Rectángulo 11926" width="1.898" height="12" transform="translate(1031.03 -6266.836)"/>
        <rect id="Rectángulo_11927" data-name="Rectángulo 11927" width="1.898" height="12" transform="translate(1035.116 -6266.836)"/>
        <path id="Trazado_159382" data-name="Trazado 159382" d="M426.131,12.164a2.949,2.949,0,0,1-.219-.789,2.952,2.952,0,0,1-2.219.945,2.984,2.984,0,0,1-2.078-.726,2.326,2.326,0,0,1-.8-1.8,2.4,2.4,0,0,1,1-2.074A4.86,4.86,0,0,1,424.686,7h1.164V6.445a1.475,1.475,0,0,0-.368-1.05A1.456,1.456,0,0,0,424.365,5a1.678,1.678,0,0,0-1.062.324,1,1,0,0,0-.414.825h-1.9a2.111,2.111,0,0,1,.461-1.3A3.075,3.075,0,0,1,422.7,3.9a4.4,4.4,0,0,1,1.77-.344,3.55,3.55,0,0,1,2.367.746,2.659,2.659,0,0,1,.906,2.1v3.812a4.326,4.326,0,0,0,.32,1.82v.133ZM424.045,10.8a2.164,2.164,0,0,0,1.059-.273,1.822,1.822,0,0,0,.746-.735V8.195h-1.024a2.8,2.8,0,0,0-1.586.368,1.19,1.19,0,0,0-.531,1.039,1.109,1.109,0,0,0,.363.871,1.405,1.405,0,0,0,.973.324" transform="translate(618 -6267)"/>
        <path id="Trazado_159383" data-name="Trazado 159383" d="M434.162,5.445a4.772,4.772,0,0,0-.773-.062,1.741,1.741,0,0,0-1.758,1v5.782h-1.9V3.711h1.813l.047.945a2.139,2.139,0,0,1,1.906-1.1,1.778,1.778,0,0,1,.672.11Z" transform="translate(618 -6267)"/>
        <rect id="Rectángulo_11928" data-name="Rectángulo 11928" width="1.898" height="12" transform="translate(1053.483 -6266.836)"/>
        <path id="Trazado_159384" data-name="Trazado 159384" d="M439.092,7.86a4.985,4.985,0,0,1,.492-2.238,3.6,3.6,0,0,1,1.383-1.532,3.9,3.9,0,0,1,2.046-.535,3.691,3.691,0,0,1,2.778,1.1,4.331,4.331,0,0,1,1.152,2.922l.008.445a5.016,5.016,0,0,1-.481,2.234,3.546,3.546,0,0,1-1.375,1.524,3.927,3.927,0,0,1-2.066.539,3.665,3.665,0,0,1-2.863-1.192,4.559,4.559,0,0,1-1.074-3.175Zm1.9.164a3.408,3.408,0,0,0,.539,2.043,1.752,1.752,0,0,0,1.5.738,1.732,1.732,0,0,0,1.5-.75,3.758,3.758,0,0,0,.535-2.2,3.363,3.363,0,0,0-.55-2.031,1.762,1.762,0,0,0-1.5-.75,1.741,1.741,0,0,0-1.476.738,3.7,3.7,0,0,0-.547,2.207" transform="translate(618 -6267)"/>
      </g>
      <g id="Grupo_71548" data-name="Grupo 71548" transform="translate(57.22)">
        <path id="Trazado_159385" data-name="Trazado 159385" d="M495.39,9.516h-4.407l-.922,2.648h-2.054L492.3.789h1.773l4.3,11.375h-2.063Zm-3.852-1.594h3.3L493.186,3.2Z" transform="translate(618 -6267)"/>
        <path id="Trazado_159386" data-name="Trazado 159386" d="M504.226,9.867a.862.862,0,0,0-.418-.773,4.456,4.456,0,0,0-1.387-.469,7.1,7.1,0,0,1-1.617-.516,2.158,2.158,0,0,1-1.422-1.992,2.252,2.252,0,0,1,.922-1.828,3.647,3.647,0,0,1,2.344-.734,3.79,3.79,0,0,1,2.449.75,2.381,2.381,0,0,1,.934,1.945h-1.9a1.169,1.169,0,0,0-.406-.91,1.553,1.553,0,0,0-1.078-.364,1.688,1.688,0,0,0-1.02.289.917.917,0,0,0-.394.774.77.77,0,0,0,.367.68,5.029,5.029,0,0,0,1.484.488,7.011,7.011,0,0,1,1.754.586,2.485,2.485,0,0,1,.946.816,2.082,2.082,0,0,1,.308,1.156,2.2,2.2,0,0,1-.945,1.848,4.027,4.027,0,0,1-2.477.707,4.372,4.372,0,0,1-1.851-.375,3.049,3.049,0,0,1-1.266-1.031A2.441,2.441,0,0,1,499.1,9.5h1.844a1.335,1.335,0,0,0,.508,1.035,1.972,1.972,0,0,0,1.242.363,1.91,1.91,0,0,0,1.14-.285.879.879,0,0,0,.391-.746" transform="translate(618 -6267)"/>
        <path id="Trazado_159387" data-name="Trazado 159387" d="M511.468,12.32a3.926,3.926,0,0,1-2.926-1.137,4.122,4.122,0,0,1-1.121-3.027V7.922a5.08,5.08,0,0,1,.488-2.262,3.712,3.712,0,0,1,1.371-1.551,3.633,3.633,0,0,1,1.969-.554,3.319,3.319,0,0,1,2.668,1.1,4.656,4.656,0,0,1,.941,3.117v.766h-5.523a2.535,2.535,0,0,0,.7,1.656,2.1,2.1,0,0,0,1.543.61A2.571,2.571,0,0,0,513.7,9.75l1.023.976A3.4,3.4,0,0,1,513.37,11.9a4.24,4.24,0,0,1-1.9.418m-.227-7.242a1.6,1.6,0,0,0-1.262.547,2.844,2.844,0,0,0-.613,1.523h3.617v-.14a2.313,2.313,0,0,0-.508-1.442,1.587,1.587,0,0,0-1.234-.488" transform="translate(618 -6267)"/>
        <path id="Trazado_159388" data-name="Trazado 159388" d="M516,7.875a4.948,4.948,0,0,1,.926-3.145,2.974,2.974,0,0,1,2.457-1.175,2.786,2.786,0,0,1,2.274,1.007l.086-.851h1.71v8.2a3.4,3.4,0,0,1-1.035,2.625,3.941,3.941,0,0,1-2.793.961,4.5,4.5,0,0,1-1.816-.387,3.223,3.223,0,0,1-1.348-1.011l.9-1.141a2.715,2.715,0,0,0,2.156,1.039,2.1,2.1,0,0,0,1.492-.512,1.96,1.96,0,0,0,.547-1.5v-.571a2.793,2.793,0,0,1-2.187.914,2.963,2.963,0,0,1-2.426-1.179A5.1,5.1,0,0,1,516,7.875m1.891.164a3.4,3.4,0,0,0,.52,2,1.67,1.67,0,0,0,1.441.73,1.827,1.827,0,0,0,1.7-.984V6.07a1.8,1.8,0,0,0-1.687-.961,1.678,1.678,0,0,0-1.457.742,3.811,3.811,0,0,0-.52,2.188" transform="translate(618 -6267)"/>
        <path id="Trazado_159389" data-name="Trazado 159389" d="M530.523,11.336a2.949,2.949,0,0,1-2.375.984,2.623,2.623,0,0,1-2.083-.8,3.425,3.425,0,0,1-.706-2.328V3.711h1.9V9.164c0,1.073.447,1.61,1.336,1.61a1.88,1.88,0,0,0,1.869-.993V3.711h1.9v8.453H530.57Z" transform="translate(618 -6267)"/>
        <path id="Trazado_159390" data-name="Trazado 159390" d="M538.718,5.445a4.772,4.772,0,0,0-.773-.062,1.741,1.741,0,0,0-1.758,1v5.782h-1.9V3.711H536.1l.047.945a2.139,2.139,0,0,1,1.906-1.1,1.778,1.778,0,0,1,.672.11Z" transform="translate(618 -6267)"/>
        <path id="Trazado_159391" data-name="Trazado 159391" d="M544.734,12.164a2.981,2.981,0,0,1-.22-.789,2.952,2.952,0,0,1-2.219.945,2.986,2.986,0,0,1-2.078-.726,2.328,2.328,0,0,1-.8-1.8,2.4,2.4,0,0,1,1-2.074A4.865,4.865,0,0,1,543.289,7h1.164V6.445a1.471,1.471,0,0,0-.369-1.05A1.456,1.456,0,0,0,542.967,5a1.675,1.675,0,0,0-1.061.324,1,1,0,0,0-.414.825h-1.9a2.118,2.118,0,0,1,.461-1.3,3.082,3.082,0,0,1,1.254-.949,4.409,4.409,0,0,1,1.771-.344,3.554,3.554,0,0,1,2.367.746,2.655,2.655,0,0,1,.9,2.1v3.812a4.342,4.342,0,0,0,.32,1.82v.133ZM542.648,10.8a2.161,2.161,0,0,0,1.058-.273,1.831,1.831,0,0,0,.747-.735V8.195h-1.025a2.8,2.8,0,0,0-1.586.368,1.19,1.19,0,0,0-.531,1.039,1.109,1.109,0,0,0,.363.871,1.408,1.408,0,0,0,.974.324" transform="translate(618 -6267)"/>
        <path id="Trazado_159392" data-name="Trazado 159392" d="M552.765,5.445a4.772,4.772,0,0,0-.773-.062,1.741,1.741,0,0,0-1.758,1v5.782h-1.9V3.711h1.813l.047.945a2.139,2.139,0,0,1,1.906-1.1,1.778,1.778,0,0,1,.672.11Z" transform="translate(618 -6267)"/>
        <rect id="Rectángulo_11929" data-name="Rectángulo 11929" width="1.898" height="12" transform="translate(1172.085 -6266.836)"/>
        <path id="Trazado_159393" data-name="Trazado 159393" d="M557.7,7.86a4.985,4.985,0,0,1,.492-2.238A3.6,3.6,0,0,1,559.57,4.09a3.9,3.9,0,0,1,2.046-.535,3.691,3.691,0,0,1,2.778,1.1,4.331,4.331,0,0,1,1.152,2.922l.008.445a5.016,5.016,0,0,1-.481,2.234,3.546,3.546,0,0,1-1.375,1.524,3.926,3.926,0,0,1-2.066.539,3.665,3.665,0,0,1-2.863-1.192A4.559,4.559,0,0,1,557.7,7.954Zm1.9.164a3.408,3.408,0,0,0,.539,2.043,1.752,1.752,0,0,0,1.5.738,1.732,1.732,0,0,0,1.5-.75,3.758,3.758,0,0,0,.535-2.2,3.363,3.363,0,0,0-.55-2.031,1.762,1.762,0,0,0-1.5-.75,1.741,1.741,0,0,0-1.476.738,3.7,3.7,0,0,0-.547,2.207" transform="translate(618 -6267)"/>
      </g>
    </g>
    <g id="caja-de-carga" transform="translate(590.169 -6368.831)">
      <path id="Trazado_159394" data-name="Trazado 159394" d="M82.755,78.276a.688.688,0,0,0-.816-.526l-1.253.27a.686.686,0,1,0,.289,1.342l1.253-.27A.686.686,0,0,0,82.755,78.276Z" transform="translate(-45.939 -44.475)" fill="#fff"/>
      <path id="Trazado_159395" data-name="Trazado 159395" d="M69.215,79.752l-3.473.749a.686.686,0,1,0,.289,1.342l3.473-.749a.686.686,0,1,0-.289-1.342Z" transform="translate(-36.856 -45.691)" fill="#fff"/>
      <path id="Trazado_159396" data-name="Trazado 159396" d="M42.453,91.617a4.325,4.325,0,1,0,5.138,3.316,4.325,4.325,0,0,0-5.138-3.316Zm1.534,7.112a2.952,2.952,0,1,1,2.263-3.508A2.952,2.952,0,0,1,43.987,98.729Z" transform="translate(-20.956 -52.853)" fill="#fff"/>
      <path id="Trazado_159397" data-name="Trazado 159397" d="M51.172,36.788l-.586-2.716a.686.686,0,0,0-.816-.526l-2.586.558-4.625-21.45a.687.687,0,0,0-.815-.526L27.99,15.093l-7.7,1.66L17.781,5.1a.687.687,0,0,0-.671-.542H5.243a.686.686,0,0,0-.686.686V8.022a.686.686,0,0,0,.686.686h9.069l5.7,26.451a8.193,8.193,0,1,0,10.512,6.783L50.645,37.6a.686.686,0,0,0,.526-.815Zm-26.94-1.776-2.439-11.3,7.026-1.515,1.031,4.776a.685.685,0,0,0,.54.529.676.676,0,0,0,.131.013.687.687,0,0,0,.569-.3l1.846-2.73,2.586,1.751a.686.686,0,0,0,1.056-.712l-1.03-4.776,7.026-1.515,3.271,15.165L28.928,38.041a8.237,8.237,0,0,0-4.7-3.029Zm8.763-19.593,1.066,4.942.814,3.773-1.738-1.177a.687.687,0,0,0-.954.184l-1.329,1.967-1.9-8.818Zm9.289,2.468L35.258,19.4l-.921-4.271,7.026-1.515ZM27.609,16.58l.921,4.272L21.5,22.368,20.583,18.1ZM14.866,7.335H5.93V5.93H16.555L19.1,17.714l3.687,17.1a8.149,8.149,0,0,0-1.426.056L15.537,7.877a.686.686,0,0,0-.671-.542Zm8.982,42.326a6.825,6.825,0,1,1,5.229-8.108,6.825,6.825,0,0,1-5.229,8.108ZM30.242,40.6a8.135,8.135,0,0,0-.537-1.322l19.686-4.246.3,1.373Z" fill="#fff"/>
    </g>
    <g id="layer1" transform="translate(747.483 -6649.906)">
      <path id="rect5745" d="M2.238,284.565a.915.915,0,0,0-.915.915v31.126a.916.916,0,1,0,1.831,0V286.4H9.562a.916.916,0,0,0,0-1.831Zm25.633,0a.916.916,0,1,0,0,1.831H34.28v38.449H3.154v-4.577a.916.916,0,1,0-1.831,0v5.493a.916.916,0,0,0,.915.915H35.195a.916.916,0,0,0,.915-.915v-40.28a.916.916,0,0,0-.915-.916Z" transform="translate(0 0)" fill="#fff" fill-rule="evenodd"/>
      <path id="rect5747" d="M10.634.265a.917.917,0,0,0-.913.92V3.933H3.3a.917.917,0,0,0-.917.917V37.858a.917.917,0,0,0,.917.917H28.975a.917.917,0,0,0,.917-.917V4.85a.917.917,0,0,0-.917-.917H22.553V1.185a.917.917,0,0,0-.913-.92ZM11.556,2.1h9.171V7.6H11.556ZM4.219,5.766h5.5V8.515a.917.917,0,0,0,.913.92H21.64a.917.917,0,0,0,.913-.92V5.766h5.5V36.941H4.219Zm10.07,7.324a.917.917,0,0,0-.636.278l-3.019,3.019L9.45,15.2a.917.917,0,1,0-1.293,1.3l1.834,1.834a.917.917,0,0,0,1.293,0l3.669-3.668a.917.917,0,0,0-.664-1.578Zm9.287,1.845a.919.919,0,0,0-.1,0h-5.5q-.044,0-.088,0a.917.917,0,0,0,.088,1.827h5.5A.917.917,0,1,0,23.576,14.935Zm-9.287,5.492a.917.917,0,0,0-.636.278l-3.019,3.019L9.45,22.539a.917.917,0,1,0-1.293,1.3l1.834,1.827a.917.917,0,0,0,1.293,0l3.669-3.66a.917.917,0,0,0-.664-1.578Zm3.682,1.841a.917.917,0,1,0,0,1.834h5.5a.917.917,0,1,0,0-1.834Zm-3.682,5.5a.917.917,0,0,0-.636.278l-3.019,3.019L9.45,29.876a.917.917,0,1,0-1.293,1.293L9.991,33a.917.917,0,0,0,1.293,0l3.669-3.668a.917.917,0,0,0-.664-1.571Zm3.594,1.841a.918.918,0,0,0,.088,1.834h5.5a.917.917,0,1,0,0-1.834h-5.5q-.044,0-.088,0Z" transform="translate(2.613 284.3)" fill="#fff" fill-rule="evenodd"/>
    </g>
    <g id="paquete" transform="translate(886.081 -6369.899)">
      <path id="Trazado_159398" data-name="Trazado 159398" d="M46.659,65.81l-2.369-11.2a.62.62,0,0,0-.606-.491H7.549a.62.62,0,0,0-.606.491L4.575,65.81a.62.62,0,0,0,.606.748H6.93v11.5a.62.62,0,0,0,.62.62H43.684a.62.62,0,0,0,.62-.62v-11.5h1.749a.62.62,0,0,0,.606-.748ZM8.051,55.363h16.8l-2.107,9.956H5.945Zm.117,11.2H23.247a.619.619,0,0,0,.606-.492L25,60.666V77.438H8.168Zm34.9,10.879H26.236V60.666l1.143,5.4a.619.619,0,0,0,.606.492H43.064ZM28.487,65.319l-2.107-9.956h16.8l2.107,9.956Z" transform="translate(0 -32.008)" fill="#fff"/>
      <path id="Trazado_159399" data-name="Trazado 159399" d="M25.418,110.813H20.7a.62.62,0,1,0,0,1.24h4.72a.62.62,0,1,0,0-1.24Z" transform="translate(-10.02 -68.617)" fill="#fff"/>
      <path id="Trazado_159400" data-name="Trazado 159400" d="M42.362,110.813h-1.4a.62.62,0,0,0,0,1.24h1.4a.62.62,0,1,0,0-1.24Z" transform="translate(-23.107 -68.617)" fill="#fff"/>
      <path id="Trazado_159401" data-name="Trazado 159401" d="M98.522,63.155H93.8a.62.62,0,0,0,0,1.24h4.72a.62.62,0,1,0,0-1.24Z" transform="translate(-57.229 -37.841)" fill="#fff"/>
      <path id="Trazado_159402" data-name="Trazado 159402" d="M84.311,63.155h-1.4a.62.62,0,1,0,0,1.24h1.4a.62.62,0,1,0,0-1.24Z" transform="translate(-50.196 -37.841)" fill="#fff"/>
      <path id="Trazado_159403" data-name="Trazado 159403" d="M49.909,20.017a7.729,7.729,0,1,0-7.729-7.729,7.729,7.729,0,0,0,7.729,7.729Zm0-14.219a6.49,6.49,0,1,1-6.49,6.49,6.49,6.49,0,0,1,6.49-6.49Z" transform="translate(-24.292)" fill="#fff"/>
      <path id="Trazado_159404" data-name="Trazado 159404" d="M55.805,23.848a.62.62,0,0,0,.877,0l4.125-4.127a.62.62,0,1,0-.876-.876l-3.688,3.688-1.515-1.515a.62.62,0,0,0-.876.876Z" transform="translate(-31.712 -9.108)" fill="#fff"/>
    </g>
    <g id="almacen" transform="translate(1032.443 -6370.051)">
      <path id="Trazado_159405" data-name="Trazado 159405" d="M46.2,42.47h-2.05V17.854a.623.623,0,0,0-.262-.507L26.05,4.672a.623.623,0,0,0-.721,0L7.491,17.347a.623.623,0,0,0-.262.507V42.47H5.179a.622.622,0,0,0-.622.622V46.2a.622.622,0,0,0,.622.622H46.2a.622.622,0,0,0,.622-.622V43.092a.622.622,0,0,0-.622-.622ZM8.473,18.175,25.69,5.942,42.907,18.175V42.47H40.283V21.749a.622.622,0,0,0-.622-.622H11.718a.622.622,0,0,0-.622.622V42.47H8.473Zm25.9,24.295V35.032a.622.622,0,0,0-.622-.622H30.343V26.97a.622.622,0,0,0-.622-.622H21.659a.622.622,0,0,0-.622.622v7.44H17.628a.622.622,0,0,0-.622.622V42.47H12.342v-20.1h26.7v20.1Zm-16.123,0V38.127h6.817V42.47ZM33.13,36.883H26.312V35.654H33.13ZM29.1,28.821H22.281V27.592H29.1Zm-6.817,1.244H29.1V34.41H22.281Zm2.787,5.589v1.229H18.25V35.654Zm1.244,2.473H33.13V42.47H26.312Zm19.267,7.452H5.8V43.715H45.579Z" transform="translate(0)" fill="#fff"/>
      <path id="Trazado_159406" data-name="Trazado 159406" d="M56.055,40.46H60.9a.622.622,0,0,0,.622-.622V37.393a.623.623,0,0,0-.622-.622H56.055a.623.623,0,0,0-.622.622v2.446a.622.622,0,0,0,.622.621Zm.622-2.445h3.6v1.2h-3.6Z" transform="translate(-32.789 -20.762)" fill="#fff"/>
      <path id="Trazado_159407" data-name="Trazado 159407" d="M76.94,40.46h4.846a.622.622,0,0,0,.622-.622V37.393a.623.623,0,0,0-.622-.622H76.94a.623.623,0,0,0-.622.622v2.446A.622.622,0,0,0,76.94,40.46Zm.622-2.445h3.6v1.2h-3.6Z" transform="translate(-46.249 -20.762)" fill="#fff"/>
      <path id="Trazado_159408" data-name="Trazado 159408" d="M35.172,40.46h4.846a.622.622,0,0,0,.622-.622V37.393a.623.623,0,0,0-.622-.622H35.172a.623.623,0,0,0-.622.622v2.446A.622.622,0,0,0,35.172,40.46Zm.622-2.445h3.6v1.2h-3.6Z" transform="translate(-19.33 -20.762)" fill="#fff"/>
    </g>
    <g id="la-seguridad" transform="translate(1170.3 -6370.051)">
      <path id="Trazado_159409" data-name="Trazado 159409" d="M49.232,10.915,32.185,4.6a.62.62,0,0,0-.432,0L14.7,10.915a.622.622,0,0,0-.4.583v10.83A24.977,24.977,0,0,0,26.718,43.875l4.94,2.862a.624.624,0,0,0,.624,0l4.939-2.862A24.977,24.977,0,0,0,49.637,22.329V11.5a.622.622,0,0,0-.4-.583Zm-.839,11.414A23.728,23.728,0,0,1,36.6,42.8L31.969,45.48,27.341,42.8a23.728,23.728,0,0,1-11.8-20.47v-10.4L31.969,5.842l16.424,6.089Z" fill="#fff"/>
      <path id="Trazado_159410" data-name="Trazado 159410" d="M38.709,17.041,25.5,21.939a.622.622,0,0,0-.406.583v8.265A20.385,20.385,0,0,0,35.228,48.373l3.384,1.961a.621.621,0,0,0,.624,0l3.384-1.961A20.386,20.386,0,0,0,52.755,30.787V22.522a.622.622,0,0,0-.406-.583l-13.208-4.9A.62.62,0,0,0,38.709,17.041Zm12.8,5.913v7.832A19.14,19.14,0,0,1,42,47.3l-3.073,1.78L35.853,47.3a19.137,19.137,0,0,1-9.515-16.51V22.955l12.587-4.666Z" transform="translate(-6.957 -8.021)" fill="#fff"/>
      <path id="Trazado_159411" data-name="Trazado 159411" d="M47.262,40.518v4.743H42.518a.622.622,0,0,0-.622.622v3.741a.622.622,0,0,0,.622.622h4.743V54.99a.622.622,0,0,0,.622.622h3.741a.622.622,0,0,0,.622-.622V50.247H56.99a.622.622,0,0,0,.622-.622V45.883a.622.622,0,0,0-.622-.622H52.247V40.518a.622.622,0,0,0-.622-.622H47.884A.622.622,0,0,0,47.262,40.518Zm1.244,5.365V41.142H51v4.742a.622.622,0,0,0,.622.622h4.742V49H51.625a.622.622,0,0,0-.622.622v4.742h-2.5V49.625A.622.622,0,0,0,47.884,49H43.142v-2.5h4.742A.622.622,0,0,0,48.506,45.883Z" transform="translate(-17.786 -22.776)" fill="#fff"/>
    </g>
    <rect id="Rectángulo_11930" data-name="Rectángulo 11930" width="820" height="160" transform="translate(488 -6408)" fill="none"/>
  </g>
</svg>
