<svg xmlns="http://www.w3.org/2000/svg" width="84" height="84.102" viewBox="0 0 84 84.102">
  <g id="Grupo_72136" data-name="Grupo 72136" transform="translate(-9596.27 8743)">
    <g id="Grupo_72107" data-name="Grupo 72107" transform="translate(701.27)">
      <circle id="Elipse_5371" data-name="Elipse 5371" cx="42" cy="42" r="42" transform="translate(8895 -8743)" fill="#d44f4a"/>
      <path id="Intersección_1" data-name="Intersección 1" d="M13.277,80.456c20.575,3.355,59.423,3.549,75.1-37.651a42.009,42.009,0,0,1-75.1,37.651Z" transform="translate(8886.407 -8762.061)" fill="#b1403c"/>
    </g>
    <path id="Trazado_159988" data-name="Trazado 159988" d="M9258.961-8723.69s7.41-13.471,23.573-15.491" transform="translate(349.009 2)" fill="none" stroke="#e67a76" stroke-linecap="round" stroke-width="3"/>
    <g id="telefono" transform="translate(9619.757 -8725.753)">
      <g id="Grupo_72088" data-name="Grupo 72088">
        <g id="Grupo_72087" data-name="Grupo 72087">
          <path id="Trazado_159983" data-name="Trazado 159983" d="M33.072,6.2V3.1a3.1,3.1,0,0,0-3.1-3.1H3.1A3.1,3.1,0,0,0,0,3.1V46.507a3.1,3.1,0,0,0,3.1,3.1H29.971a3.1,3.1,0,0,0,3.1-3.1v-3.1H31v3.1a1.034,1.034,0,0,1-1.034,1.034H3.1a1.034,1.034,0,0,1-1.034-1.034V3.1A1.034,1.034,0,0,1,3.1,2.067H29.971A1.034,1.034,0,0,1,31,3.1V6.2Z" fill="#fff"/>
        </g>
      </g>
      <g id="Grupo_72090" data-name="Grupo 72090" transform="translate(13.435 4.134)">
        <g id="Grupo_72089" data-name="Grupo 72089">
          <rect id="Rectángulo_12279" data-name="Rectángulo 12279" width="6.201" height="2.067" fill="#fff"/>
        </g>
      </g>
      <g id="Grupo_72092" data-name="Grupo 72092" transform="translate(13.435 43.406)">
        <g id="Grupo_72091" data-name="Grupo 72091">
          <rect id="Rectángulo_12280" data-name="Rectángulo 12280" width="6.201" height="2.067" fill="#fff"/>
        </g>
      </g>
      <g id="Grupo_72098" data-name="Grupo 72098" transform="translate(29.971 14.469)">
        <g id="Grupo_72097" data-name="Grupo 72097">
          <path id="Trazado_159985" data-name="Trazado 159985" d="M314.5,149.333a5.167,5.167,0,1,0,5.167,5.167A5.167,5.167,0,0,0,314.5,149.333Zm0,8.268a3.1,3.1,0,1,1,3.1-3.1A3.1,3.1,0,0,1,314.5,157.6Z" transform="translate(-309.334 -149.333)" fill="#fff"/>
        </g>
      </g>
      <g id="Grupo_72100" data-name="Grupo 72100" transform="translate(27.904 22.737)">
        <g id="Grupo_72099" data-name="Grupo 72099">
          <path id="Trazado_159986" data-name="Trazado 159986" d="M295.234,234.667A7.234,7.234,0,0,0,288,241.9v6.2a1.034,1.034,0,0,0,1.034,1.034h12.4a1.034,1.034,0,0,0,1.034-1.034v-6.2A7.234,7.234,0,0,0,295.234,234.667Zm5.167,12.4H290.067V241.9a5.167,5.167,0,0,1,10.335,0Z" transform="translate(-288 -234.667)" fill="#fff"/>
        </g>
      </g>
      <g id="Grupo_72102" data-name="Grupo 72102" transform="translate(14.469 8.268)">
        <g id="Grupo_72101" data-name="Grupo 72101">
          <path id="Trazado_159987" data-name="Trazado 159987" d="M179.307,85.333H160.7a5.174,5.174,0,0,0-5.167,5.167v16.108l-5.9,5.9a1.033,1.033,0,0,0,.731,1.764h5.271A5.176,5.176,0,0,0,160.7,118.4h18.6a5.174,5.174,0,0,0,5.167-5.167V90.5A5.174,5.174,0,0,0,179.307,85.333Zm3.1,27.9a3.1,3.1,0,0,1-3.1,3.1H160.7a3.1,3.1,0,0,1-3.1-3.1,1.034,1.034,0,0,0-1.034-1.034h-3.706l4.437-4.437a1.033,1.033,0,0,0,.3-.731V90.5a3.1,3.1,0,0,1,3.1-3.1h18.6a3.1,3.1,0,0,1,3.1,3.1v22.737Z" transform="translate(-149.336 -85.333)" fill="#fff"/>
        </g>
      </g>
      <g id="Grupo_72104" data-name="Grupo 72104" transform="translate(1.034 39.273)">
        <g id="Grupo_72103" data-name="Grupo 72103">
          <rect id="Rectángulo_12282" data-name="Rectángulo 12282" width="17.569" height="2.067" fill="#fff"/>
        </g>
      </g>
      <g id="Grupo_72106" data-name="Grupo 72106" transform="translate(1.034 8.268)">
        <g id="Grupo_72105" data-name="Grupo 72105">
          <rect id="Rectángulo_12283" data-name="Rectángulo 12283" width="17.569" height="2.067" fill="#fff"/>
        </g>
      </g>
    </g>
    <g id="Grupo_72108" data-name="Grupo 72108" transform="translate(9626.162 -8700.949)">
      <g id="Grupo_72081" data-name="Grupo 72081">
        <path id="Trazado_159980" data-name="Trazado 159980" d="M151.094,207.413l-5.47,5.47-2.37-2.37-1.461,1.461,3.1,3.1a1.033,1.033,0,0,0,1.461,0l6.2-6.2Z" transform="translate(-141.792 -207.413)" fill="#fff"/>
      </g>
    </g>
  </g>
</svg>
