<svg xmlns="http://www.w3.org/2000/svg" xmlns:xlink="http://www.w3.org/1999/xlink" width="609.899" height="110.5" viewBox="0 0 609.899 110.5">
  <defs>
    <linearGradient id="linear-gradient" x1="0.5" x2="0.5" y2="1" gradientUnits="objectBoundingBox">
      <stop offset="0" stop-color="#fff" stop-opacity="0"/>
      <stop offset="1" stop-color="#fff"/>
    </linearGradient>
  </defs>
  <g id="Grupo_72148" data-name="Grupo 72148" transform="translate(-495.5 -743.5)">
    <g id="Grupo_71813" data-name="Grupo 71813" transform="translate(0 212)">
      <g id="Grupo_71356" data-name="Grupo 71356" transform="translate(495 531.813)">
        <g id="Grupo_71357" data-name="Grupo 71357" transform="translate(0 0)">
          <path id="Trazado_158760" data-name="Trazado 158760" d="M9.26,0H598.639a9.26,9.26,0,0,1,9.26,9.26V93.986a9.26,9.26,0,0,1-9.26,9.26H9.26A9.26,9.26,0,0,1,0,93.986V9.26A9.26,9.26,0,0,1,9.26,0Z" transform="translate(1.5 0.687)" stroke="#d44f4a" stroke-width="2" fill="url(#linear-gradient)"/>
          <rect id="Rectángulo_11817" data-name="Rectángulo 11817" width="190" height="11" rx="5.5" transform="translate(420 99.188)" fill="#d44f4a"/>
          <g id="Grupo_72147" data-name="Grupo 72147" transform="translate(-13895.052 10964.422)">
            <path id="Trazado_160000" data-name="Trazado 160000" d="M0,26.807a10.369,10.369,0,0,1,3.371-7.546q3.679-3.677,3.679-6.5V11.439H11v1.746a10.286,10.286,0,0,1-3.371,7.463q-3.679,3.647-3.679,6.281V30.3q0,2.895,2.686,2.893h.035q2.72,0,2.722-2.893V26.175H13.35V30.3q0,6.795-6.692,6.8Q0,37.1,0,30.3ZM11.295,7.5H6.589V2.8h4.706Z" transform="translate(13954 -10929.715)" fill="#636363"/>
            <path id="Trazado_160001" data-name="Trazado 160001" d="M23.428,28.3q0,6.078-5.529,6.761.155,2.12,5.529,2.155v3.133a12.319,12.319,0,0,1-5.34-.821q-1.883-.959-1.933-4.448-6.078-.45-6.076-6.779V7.031q0-6.776,6.674-6.776t6.676,6.776ZM19.474,7.031q0-2.875-2.7-2.893h-.035q-2.706,0-2.7,2.893V28.3q0,2.895,2.72,2.893T19.474,28.3Z" transform="translate(13962.234 -10931.792)" fill="#636363"/>
            <path id="Trazado_160002" data-name="Trazado 160002" d="M32.942,27.072q0,5.955-6.676,5.973-6.678,0-6.676-5.973V2.873h3.954v24.2q0,2.532,2.722,2.533t2.72-2.533V2.873h3.956Z" transform="translate(13970.006 -10929.652)" fill="#636363"/>
            <path id="Trazado_160003" data-name="Trazado 160003" d="M29.292,5.151H41.237V8.575H33.244v9.7h6.881v3.438H33.244v9.7h7.993v3.405H29.292ZM40.536.531,36.051,3.407H33.638L37.352,0h3.183Z" transform="translate(13977.933 -10932)" fill="#636363"/>
            <path id="Trazado_160004" data-name="Trazado 160004" d="M42.817,8.564q0-5.955,6.674-5.954t6.676,5.954v3.663H52.213V8.564q0-2.532-2.7-2.533h-.035q-2.706,0-2.7,2.533v2.773q0,2.292,4.928,5.391,4.467,2.8,4.468,6.692v3.868q0,5.972-6.658,5.973-6.691-.019-6.692-5.973V23.642h3.954v3.647q0,2.548,2.738,2.549,2.7,0,2.7-2.549V23.8q0-2.448-4.93-5.562-4.467-2.807-4.466-6.794Z" transform="translate(13988.982 -10929.867)" fill="#636363"/>
            <path id="Trazado_160005" data-name="Trazado 160005" d="M52.424,2.835H64.369V6.258H56.376v9.7h6.881V19.4H56.376v9.7h7.993v3.405H52.424Z" transform="translate(13996.833 -10929.684)" fill="#636363"/>
            <path id="Trazado_160006" data-name="Trazado 160006" d="M75.9,32.511H69.927L66.453,13.137l-1.539-10.3H68.9l4,26.7,4-26.7h4.023L79.358,13.172Z" transform="translate(14007.037 -10929.684)" fill="#636363"/>
            <path id="Trazado_160007" data-name="Trazado 160007" d="M88.928,22.192,90.5,32.511H86.479l-.974-6.485H79.463l-.992,6.485H74.483l1.541-10.284L79.5,2.835h5.973Zm-3.938.392L82.476,5.815,79.96,22.584Z" transform="translate(14014.855 -10929.684)" fill="#636363"/>
            <path id="Trazado_160008" data-name="Trazado 160008" d="M103.282,22.192l1.574,10.319h-4.023l-.974-6.485H93.818l-.992,6.485H88.837l1.541-10.284L93.852,2.835h5.973Zm-3.938.392L96.83,5.815,94.314,22.584Z" transform="translate(14026.583 -10929.684)" fill="#636363"/>
            <path id="Trazado_160009" data-name="Trazado 160009" d="M117.2,27.289q0,5.953-6.676,5.973-6.675,0-6.674-5.973V8.564q0-5.955,6.674-5.954T117.2,8.564ZM113.246,8.564q0-2.532-2.7-2.533h-.035q-2.706,0-2.7,2.533V27.289q0,2.548,2.72,2.549t2.722-2.549Z" transform="translate(14038.849 -10929.867)" fill="#636363"/>
            <path id="Trazado_160010" data-name="Trazado 160010" d="M113.458,2.835H125.4V6.258H117.41v9.7h6.881V19.4H117.41v13.11h-3.952Z" transform="translate(14046.699 -10929.684)" fill="#636363"/>
            <path id="Trazado_160011" data-name="Trazado 160011" d="M121.821,2.835H128.6q6.143.016,6.145,5.973v4.6q0,3.712-4.092,5.048l5.564,14.051h-4.364l-4.535-13.5-1.541.187V32.511h-3.954Zm3.954,3.421v9.7h1.677a6.2,6.2,0,0,0,1.643-.153,2.353,2.353,0,0,0,1.7-2.4v-4.6q0-2.551-2.706-2.551Z" transform="translate(14053.532 -10929.684)" fill="#636363"/>
            <path id="Trazado_160012" data-name="Trazado 160012" d="M130.742,2.835h11.945V6.258H134.7v9.7h6.879V19.4H134.7v9.7h7.991v3.405H130.742Z" transform="translate(14060.821 -10929.684)" fill="#636363"/>
            <path id="Trazado_160013" data-name="Trazado 160013" d="M152.455,27.288q0,5.955-6.676,5.973-6.672,0-6.674-5.973V8.563q0-5.953,6.674-5.954t6.676,5.954v3.663H148.5V8.563q0-2.529-2.7-2.531h-.035q-2.7,0-2.7,2.531V27.288q0,2.551,2.72,2.549t2.722-2.549V23.641h3.954Z" transform="translate(14067.654 -10929.868)" fill="#636363"/>
            <path id="Trazado_160014" data-name="Trazado 160014" d="M148.618,2.835h11.945V6.258h-7.991v9.7h6.879V19.4h-6.879v9.7h7.991v3.405H148.618Z" transform="translate(14075.426 -10929.684)" fill="#636363"/>
            <path id="Trazado_160015" data-name="Trazado 160015" d="M157.17,2.835h6.778q6.143.016,6.145,5.973v4.6q0,3.712-4.092,5.048l5.562,14.051H167.2l-4.535-13.5-1.541.187V32.511H157.17Zm3.954,3.421v9.7H162.8a6.2,6.2,0,0,0,1.643-.153,2.355,2.355,0,0,0,1.7-2.4v-4.6q0-2.551-2.706-2.551Z" transform="translate(14082.414 -10929.684)" fill="#636363"/>
            <path id="Trazado_160016" data-name="Trazado 160016" d="M184.688,22.192l1.574,10.319H182.24l-.976-6.485h-6.042l-.992,6.485h-3.987l1.539-10.284,3.476-19.391h5.973Zm-3.936.392L178.235,5.815l-2.517,16.769Z" transform="translate(14093.095 -10929.684)" fill="#636363"/>
            <path id="Trazado_160017" data-name="Trazado 160017" d="M180.661,32.511V2.835h3.954V29.106h7.991v3.405Z" transform="translate(14101.606 -10929.684)" fill="#636363"/>
            <path id="Trazado_160018" data-name="Trazado 160018" d="M204.008,25.288l6.263-22.453h4.057V32.511h-3.749V11.5l-5.238,21.016h-2.549l-5.373-20.9v20.9h-3.8V2.835h4.072Z" transform="translate(14112.195 -10929.684)" fill="#636363"/>
            <path id="Trazado_160019" data-name="Trazado 160019" d="M207.466,2.835h11.945V6.258H211.42v9.7H218.3V19.4H211.42v9.7h7.991v3.405H207.466Z" transform="translate(14123.507 -10929.684)" fill="#636363"/>
            <path id="Trazado_160020" data-name="Trazado 160020" d="M216.018,2.835H222.8q6.143.016,6.145,5.973v4.6q0,3.712-4.092,5.048l5.562,14.051h-4.363l-4.535-13.5-1.541.187V32.511h-3.954Zm3.954,3.421v9.7h1.677a6.2,6.2,0,0,0,1.643-.153,2.355,2.355,0,0,0,1.7-2.4v-4.6q0-2.551-2.706-2.551Z" transform="translate(14130.494 -10929.684)" fill="#636363"/>
            <path id="Trazado_160021" data-name="Trazado 160021" d="M238.39,27.288q0,5.955-6.676,5.973-6.672,0-6.674-5.973V8.563q0-5.953,6.674-5.954t6.676,5.954v3.663h-3.954V8.563q0-2.529-2.7-2.531H231.7q-2.7,0-2.7,2.531V27.288q0,2.551,2.72,2.549t2.722-2.549V23.641h3.954Z" transform="translate(14137.866 -10929.868)" fill="#636363"/>
            <path id="Trazado_160022" data-name="Trazado 160022" d="M248.151,22.192l1.574,10.319H245.7l-.976-6.485h-6.042l-.992,6.485h-3.987l1.539-10.284,3.476-19.391h5.973Zm-3.936.392L241.7,5.815l-2.517,16.769Z" transform="translate(14144.946 -10929.684)" fill="#636363"/>
            <path id="Trazado_160023" data-name="Trazado 160023" d="M244.123,2.835h7.2q6.146.016,6.145,5.973V26.555q0,5.939-6.487,5.956h-6.863Zm3.954,3.421V29.1h2.738q2.7,0,2.7-2.549V8.808q0-2.551-2.7-2.551Z" transform="translate(14153.457 -10929.684)" fill="#636363"/>
            <path id="Trazado_160024" data-name="Trazado 160024" d="M266.891,27.289q0,5.953-6.676,5.973-6.672,0-6.674-5.973V8.564q0-5.955,6.674-5.954t6.676,5.954ZM262.937,8.564q0-2.532-2.7-2.533H260.2q-2.7,0-2.7,2.533V27.289q0,2.548,2.72,2.549t2.722-2.549Z" transform="translate(14161.152 -10929.867)" fill="#636363"/>
            <path id="Trazado_160025" data-name="Trazado 160025" d="M276.4,10.586a10.362,10.362,0,0,1-3.372,7.548q-3.677,3.679-3.678,6.5v1.317H265.4V24.211a10.271,10.271,0,0,1,3.372-7.463q3.677-3.647,3.678-6.281V7.1q0-2.895-2.686-2.893h-.035q-2.723,0-2.722,2.893v4.123h-3.954V7.1Q263.054.3,269.746.3,276.4.3,276.4,7.1ZM265.109,29.892h4.706V34.6h-4.706Z" transform="translate(14168.925 -10931.753)" fill="#636363"/>
          </g>
        </g>
      </g>
    </g>
  </g>
</svg>
