<svg xmlns="http://www.w3.org/2000/svg" xmlns:xlink="http://www.w3.org/1999/xlink" width="609.949" height="110.137" viewBox="0 0 609.949 110.137">
  <defs>
    <linearGradient id="linear-gradient" x1="0.5" x2="0.5" y2="1" gradientUnits="objectBoundingBox">
      <stop offset="0" stop-color="#fff" stop-opacity="0"/>
      <stop offset="1" stop-color="#fff"/>
    </linearGradient>
  </defs>
  <g id="Grupo_72153" data-name="Grupo 72153" transform="translate(-13987 10835)">
    <g id="Grupo_72150" data-name="Grupo 72150" transform="translate(13491.949 -11366.863)">
      <g id="Grupo_71356" data-name="Grupo 71356" transform="translate(495 531.813)">
        <g id="Grupo_71357" data-name="Grupo 71357" transform="translate(0 0)">
          <path id="Trazado_158760" data-name="Trazado 158760" d="M9.26,0H598.639a9.26,9.26,0,0,1,9.26,9.26V93.986a9.26,9.26,0,0,1-9.26,9.26H9.26A9.26,9.26,0,0,1,0,93.986V9.26A9.26,9.26,0,0,1,9.26,0Z" transform="translate(1.051 1.051)" stroke="#d44f4a" stroke-width="2" fill="url(#linear-gradient)"/>
          <rect id="Rectángulo_11817" data-name="Rectángulo 11817" width="190" height="11" rx="5.5" transform="translate(420 99.188)" fill="#d44f4a"/>
        </g>
      </g>
    </g>
    <g id="Grupo_72144" data-name="Grupo 72144" transform="translate(173.729 -18.003)">
      <path id="Trazado_160071" data-name="Trazado 160071" d="M0,177.252a10.343,10.343,0,0,1,3.366-7.535q3.674-3.677,3.674-6.494v-1.317h3.948v1.744a10.267,10.267,0,0,1-3.366,7.45q-3.674,3.639-3.674,6.271v3.368q0,2.888,2.682,2.889h.034q2.716,0,2.718-2.889v-4.119h3.948v4.119q0,6.785-6.683,6.784Q0,187.522,0,180.737Zm11.279-19.277h-4.7v-4.7h4.7Z" transform="translate(13954 -10929.722)" fill="#636363"/>
      <path id="Trazado_160072" data-name="Trazado 160072" d="M23.409,178.8q0,6.75-6.664,6.766-6.668,0-6.666-6.766v-21.26q0-6.75,6.666-6.751t6.664,6.751v4.151H19.46v-4.151q0-2.855-2.7-2.872h-.034q-2.7,0-2.7,2.872V178.8q0,2.871,2.718,2.87t2.716-2.87v-4.153h3.948Z" transform="translate(13962.208 -10931.748)" fill="#636363"/>
      <path id="Trazado_160073" data-name="Trazado 160073" d="M32.826,179.853q0,5.95-6.664,5.966-6.665,0-6.664-5.966V161.159q0-5.95,6.664-5.95t6.664,5.95Zm-3.946-18.694q0-2.531-2.7-2.531h-.034q-2.7,0-2.7,2.531v18.694q0,2.547,2.716,2.547t2.718-2.547Zm2.546-10.152-4.478,2.87h-2.41l3.709-3.4h3.179Z" transform="translate(13969.879 -10932)" fill="#636363"/>
      <path id="Trazado_160074" data-name="Trazado 160074" d="M40.136,175.734l6.254-22.421h4.052v29.633H46.7V161.958L41.47,182.946H38.924L33.557,162.08v20.866H29.763V153.313h4.068Z" transform="translate(13978.24 -10929.69)" fill="#636363"/>
      <path id="Trazado_160075" data-name="Trazado 160075" d="M56.751,177.73q0,5.947-6.666,5.964-6.665,0-6.664-5.964v-18.7q0-5.95,6.664-5.948t6.666,5.948Zm-3.948-18.7q0-2.531-2.7-2.531h-.034q-2.7,0-2.7,2.531v18.7q0,2.545,2.716,2.546T52.8,177.73Z" transform="translate(13989.363 -10929.875)" fill="#636363"/>
      <path id="Trazado_160076" data-name="Trazado 160076" d="M57.624,159.034q0-5.95,6.663-5.948t6.666,5.948v3.658H67v-3.658q0-2.531-2.7-2.531H64.27q-2.7,0-2.7,2.531V161.8q0,2.292,4.921,5.383,4.461,2.8,4.462,6.683v3.863q0,5.963-6.648,5.964-6.682-.016-6.681-5.964v-3.64H61.57v3.64q0,2.545,2.734,2.546,2.7,0,2.7-2.546v-3.486q0-2.447-4.923-5.556-4.461-2.8-4.458-6.784Z" transform="translate(14000.932 -10929.875)" fill="#636363"/>
      <path id="Trazado_160077" data-name="Trazado 160077" d="M67.231,153.312H79.159v3.418H71.177v9.689h6.871v3.435H71.177v9.691h7.982v3.4H67.231Z" transform="translate(14008.755 -10929.69)" fill="#636363"/>
      <path id="Trazado_160078" data-name="Trazado 160078" d="M90.69,182.946H84.726L81.257,163.6,79.72,153.312H83.7l4,26.66,4-26.66h4.017l-1.573,10.321Z" transform="translate(14018.927 -10929.69)" fill="#636363"/>
      <path id="Trazado_160079" data-name="Trazado 160079" d="M103.714,172.639l1.571,10.306h-4.017l-.973-6.478H94.262l-.991,6.478H89.289l1.539-10.272L94.3,153.312h5.964Zm-3.932.394-2.511-16.747-2.513,16.747Z" transform="translate(14026.721 -10929.69)" fill="#636363"/>
      <path id="Trazado_160080" data-name="Trazado 160080" d="M118.068,172.639l1.571,10.306h-4.017l-.973-6.478h-6.033l-.991,6.478h-3.983l1.539-10.272,3.469-19.362h5.964Zm-3.932.394-2.511-16.747-2.513,16.747Z" transform="translate(14038.411 -10929.69)" fill="#636363"/>
      <path id="Trazado_160081" data-name="Trazado 160081" d="M128.969,182.946H123L119.536,163.6,118,153.312h3.981l4,26.66,4-26.66h4.015l-1.573,10.321Z" transform="translate(14050.101 -10929.69)" fill="#636363"/>
      <path id="Trazado_160082" data-name="Trazado 160082" d="M128.415,153.312h11.928v3.418h-7.98v9.689h6.869v3.435h-6.869v9.691h7.98v3.4H128.415Z" transform="translate(14058.586 -10929.69)" fill="#636363"/>
      <path id="Trazado_160083" data-name="Trazado 160083" d="M136.967,153.312h4.05l5.708,21.292V153.379l3.573-.049v29.615h-4.052l-5.52-20.748v20.748h-3.76Z" transform="translate(14065.552 -10929.69)" fill="#636363"/>
      <path id="Trazado_160084" data-name="Trazado 160084" d="M146.762,153.312h7.194q6.137.016,6.136,5.964V177q0,5.933-6.478,5.948h-6.853Zm3.948,3.418v22.815h2.734q2.7,0,2.7-2.547V159.276q0-2.545-2.7-2.546Z" transform="translate(14073.529 -10929.69)" fill="#636363"/>
      <path id="Trazado_160085" data-name="Trazado 160085" d="M156.37,153.312H168.3v3.418h-7.98v9.689h6.869v3.435h-6.869v9.691h7.98v3.4H156.37Z" transform="translate(14081.354 -10929.69)" fill="#636363"/>
      <path id="Trazado_160086" data-name="Trazado 160086" d="M164.921,153.312h6.768q6.135.016,6.136,5.964v4.6q0,3.71-4.086,5.042l5.554,14.029h-4.356l-4.529-13.483-1.539.187v13.3h-3.948Zm3.948,3.418v9.689h1.675a6.193,6.193,0,0,0,1.64-.152,2.353,2.353,0,0,0,1.693-2.393v-4.6q0-2.545-2.7-2.546Z" transform="translate(14088.318 -10929.69)" fill="#636363"/>
      <path id="Trazado_160087" data-name="Trazado 160087" d="M187.586,161.05a10.352,10.352,0,0,1-3.366,7.537q-3.674,3.674-3.674,6.494V176.4H176.6v-1.744a10.266,10.266,0,0,1,3.368-7.45q3.672-3.642,3.672-6.273v-3.368q0-2.885-2.682-2.887h-.034q-2.719,0-2.718,2.887v4.121h-3.948v-4.121q0-6.782,6.683-6.784,6.649,0,6.648,6.784Zm-11.279,19.277h4.7v4.7h-4.7Z" transform="translate(14095.921 -10931.754)" fill="#636363"/>
    </g>
  </g>
</svg>
