<svg xmlns="http://www.w3.org/2000/svg" xmlns:xlink="http://www.w3.org/1999/xlink" width="295" height="249.065" viewBox="0 0 295 249.065">
  <defs>
    <clipPath id="clip-path">
      <rect id="Rectángulo_12374" data-name="Rectángulo 12374" width="257.568" height="248.66" fill="none"/>
    </clipPath>
    <clipPath id="clip-path-3">
      <rect id="Rectángulo_12341" data-name="Rectángulo 12341" width="250.001" height="12.735" fill="none"/>
    </clipPath>
    <clipPath id="clip-path-4">
      <rect id="Rectángulo_12343" data-name="Rectángulo 12343" width="83.404" height="49.142" fill="none"/>
    </clipPath>
    <clipPath id="clip-path-5">
      <rect id="Rectángulo_12345" data-name="Rectángulo 12345" width="84.728" height="26.608" fill="none"/>
    </clipPath>
    <clipPath id="clip-path-6">
      <rect id="Rectángulo_12347" data-name="Rectángulo 12347" width="39.13" height="26.608" fill="none"/>
    </clipPath>
    <clipPath id="clip-path-7">
      <rect id="Rectángulo_12349" data-name="Rectángulo 12349" width="39.025" height="26.608" fill="none"/>
    </clipPath>
    <clipPath id="clip-path-10">
      <rect id="Rectángulo_12354" data-name="Rectángulo 12354" width="17.662" height="21.898" fill="none"/>
    </clipPath>
    <clipPath id="clip-path-11">
      <rect id="Rectángulo_12356" data-name="Rectángulo 12356" width="17.607" height="28.297" fill="none"/>
    </clipPath>
    <clipPath id="clip-path-12">
      <rect id="Rectángulo_12357" data-name="Rectángulo 12357" width="21.843" height="16.812" fill="none"/>
    </clipPath>
    <clipPath id="clip-path-13">
      <rect id="Rectángulo_12358" data-name="Rectángulo 12358" width="35.647" height="29.495" fill="none"/>
    </clipPath>
    <clipPath id="clip-path-15">
      <rect id="Rectángulo_12360" data-name="Rectángulo 12360" width="5.001" height="14.748" fill="none"/>
    </clipPath>
  </defs>
  <g id="Grupo_72219" data-name="Grupo 72219" transform="translate(-390 -1104.935)">
    <g id="Grupo_72218" data-name="Grupo 72218" transform="translate(9.875 20.732)">
      <g id="Grupo_72217" data-name="Grupo 72217" transform="translate(399.926 1084.202)">
        <g id="Grupo_72216" data-name="Grupo 72216" clip-path="url(#clip-path)">
          <g id="Grupo_72215" data-name="Grupo 72215">
            <g id="Grupo_72214" data-name="Grupo 72214" clip-path="url(#clip-path)">
              <g id="Grupo_72177" data-name="Grupo 72177" transform="translate(7.567 235.926)" opacity="0.17">
                <g id="Grupo_72176" data-name="Grupo 72176">
                  <g id="Grupo_72175" data-name="Grupo 72175" clip-path="url(#clip-path-3)">
                    <path id="Trazado_160290" data-name="Trazado 160290" d="M261,349.128c0,3.517-55.964,6.368-125,6.368s-125-2.851-125-6.368,55.964-6.368,125-6.368,125,2.851,125,6.368" transform="translate(-10.994 -342.76)" fill="#44004e"/>
                  </g>
                </g>
              </g>
              <path id="Trazado_160291" data-name="Trazado 160291" d="M257.625,309.9s5.15,8.64,13.114,8.172,6.043-10.689,12.377-20.668,8.821-6.872,16.237-11.689,3.221-10.113,8.323-20.611A26.7,26.7,0,0,1,322.6,251.684s-16.358-5.127-25.441,3.1-5.743,14.934-14.389,19.232-31.71,2.229-34,13.616,8.863,22.263,8.863,22.263" transform="translate(-77.44 -77.956)" fill="#87c487"/>
              <path id="Trazado_160292" data-name="Trazado 160292" d="M255.114,306.48A25.628,25.628,0,0,1,268.3,293.723c9.157-3.549,17.107-4.166,23-13.117,4.287-6.342,7.936-13.178,13.222-18.8,5.074-5.637,12.29-10.283,20.154-9.455-7.84-.516-14.795,4.135-19.762,9.812-5.19,5.69-8.812,12.473-13.055,18.838-6.038,9.035-14.049,9.757-23.382,13.138a26.145,26.145,0,0,0-13.361,12.337" transform="translate(-79.516 -78.626)" fill="#fff"/>
              <path id="Trazado_160293" data-name="Trazado 160293" d="M247.945,318.029s-4.885-7.767-.6-13.407,12.091.481,23.716.421,10.178-3.32,17.913-6.554,10.224,2.292,21.693,3.376a27.478,27.478,0,0,0,18.753-4.789s-3.582,14.39-15.051,17.276-15.577-2.658-23.467,1.719-17.356,22.289-28.217,18.73-14.734-16.773-14.734-16.773" transform="translate(-76.546 -92.596)" fill="#487c48"/>
              <path id="Trazado_160294" data-name="Trazado 160294" d="M250.853,323.285a27.515,27.515,0,0,0,20.2-6.491c6.357-5.173,11.135-8.628,19.7-8.842,10.791-.264,22.19.84,32.271-3.764a17.949,17.949,0,0,0,8.036-7.112,17.8,17.8,0,0,1-7.887,7.414c-10.058,4.864-21.549,3.848-32.386,4.148-8.536.173-12.984,3.547-19.409,8.574a27.056,27.056,0,0,1-20.523,6.074" transform="translate(-78.188 -92.596)" fill="#d3a2dd"/>
              <path id="Trazado_160295" data-name="Trazado 160295" d="M248.676,292.14s7.534,6.517,14.962,3.488,2.481-12.091,5.453-23.6,6.287-9.375,11.866-16.347-.028-10.63,1.616-22.233a27.42,27.42,0,0,1,10.086-17.56s-17.117.45-23.237,11.2-.9,16.015-7.8,22.894-29.464,12.4-28.167,23.938,15.225,18.222,15.225,18.222" transform="translate(-72.747 -67.29)" fill="#66a366"/>
              <path id="Trazado_160296" data-name="Trazado 160296" d="M247.444,289.754a26.268,26.268,0,0,1,8.632-16.367c7.609-6.33,14.981-9.494,17.853-19.877,2.145-7.412,3.528-15.1,6.839-22.131,3.107-6.984,8.51-13.707,16.269-15.492-7.636,2.071-12.792,8.72-15.786,15.709-2.728,6.173-4.29,12.774-5.878,19.315-.172.71-.562,2.113-.788,2.806-2.971,10.486-10.392,13.8-18.207,20.011a26.817,26.817,0,0,0-8.934,16.025" transform="translate(-77.126 -67.29)" fill="#d3a2dd"/>
              <path id="Trazado_160297" data-name="Trazado 160297" d="M106.362,310.262s-4.241,8.123-10.8,7.683-4.976-10.05-10.192-19.432-7.264-6.46-13.37-10.99-2.651-9.508-6.853-19.378-12.286-12.617-12.286-12.617,13.47-4.82,20.949,2.919,4.728,14.041,11.848,18.082,26.112,2.1,28,12.8-7.3,20.932-7.3,20.932" transform="translate(-16.477 -79.184)" fill="#87c487"/>
              <path id="Trazado_160298" data-name="Trazado 160298" d="M110.14,307.051A22.95,22.95,0,0,0,95.784,294.17c-7.255-2.428-12.065-4.409-16.109-11.314-4.959-8.5-9.041-18.255-17.4-24.02a15.25,15.25,0,0,0-9.412-2.672c6.942-.794,12.9,4.085,16.925,9.248,4.218,5.226,7.094,11.334,10.474,17.083,4.954,8.645,10.968,8.969,19.194,12.632a22.5,22.5,0,0,1,10.685,11.925" transform="translate(-16.477 -79.817)" fill="#d3a2dd"/>
              <path id="Trazado_160299" data-name="Trazado 160299" d="M110.721,317.907s4.022-7.3.5-12.6-9.956.451-19.528.4-8.382-3.122-14.75-6.162-8.418,2.155-17.862,3.174a20.76,20.76,0,0,1-15.442-4.5s2.949,13.529,12.394,16.242,12.827-2.5,19.324,1.617,14.291,20.956,23.235,17.61,12.133-15.77,12.133-15.77" transform="translate(-13.601 -92.948)" fill="#487c48"/>
              <path id="Trazado_160300" data-name="Trazado 160300" d="M109.678,322.849a19.936,19.936,0,0,1-15.2-4.259c-5.75-4.742-9.53-9.354-17.609-9.487-9.088-.285-18.932.663-27.11-4.121a15.505,15.505,0,0,1-6.121-6.774,15.681,15.681,0,0,0,6.293,6.484c8.215,4.519,17.941,3.474,26.978,3.725,8.179.193,12.193,4.854,17.872,9.8a20.34,20.34,0,0,0,14.9,4.631" transform="translate(-13.601 -92.948)" fill="#d3a2dd"/>
              <path id="Trazado_160301" data-name="Trazado 160301" d="M119.281,293.567s-6.2,6.127-12.32,3.28-2.043-11.368-4.49-22.191-5.177-8.814-9.771-15.369.023-9.994-1.331-20.9a26.362,26.362,0,0,0-8.3-16.509S97.159,222.3,102.2,232.4s.739,15.058,6.426,21.526,24.262,11.661,23.193,22.506-12.537,17.132-12.537,17.132" transform="translate(-25.891 -69.156)" fill="#66a366"/>
              <path id="Trazado_160302" data-name="Trazado 160302" d="M123.9,291.323a26.341,26.341,0,0,0-10.19-17.5,55.792,55.792,0,0,1-7.716-7.107,24.75,24.75,0,0,1-4.554-9.464c-2.465-10-3.784-20.848-10.121-29.313a17.172,17.172,0,0,0-8.255-6.062,17.016,17.016,0,0,1,8.519,5.852c6.586,8.386,8.009,19.3,10.52,29.341,1.911,7.91,5.961,11.38,11.946,16.349a25.939,25.939,0,0,1,9.851,17.906" transform="translate(-25.89 -69.156)" fill="#d3a2dd"/>
              <path id="Trazado_160303" data-name="Trazado 160303" d="M220.467,253.157H132.556a9.609,9.609,0,0,1-9.609-9.609V41.958a9.609,9.609,0,0,1,9.609-9.609h87.911a9.609,9.609,0,0,1,9.61,9.609V243.548a9.609,9.609,0,0,1-9.61,9.609" transform="translate(-38.321 -10.083)" fill="#545454"/>
              <path id="Trazado_160304" data-name="Trazado 160304" d="M176.654,253.157H122.946V42.2a9.85,9.85,0,0,1,9.85-9.85h43.858Z" transform="translate(-38.321 -10.083)" fill="#6d6d6d"/>
              <path id="Trazado_160305" data-name="Trazado 160305" d="M226.043,222.688H129.756a1.91,1.91,0,0,1-1.91-1.91V43.258a1.91,1.91,0,0,1,1.91-1.911h96.287a1.911,1.911,0,0,1,1.911,1.911v177.52a1.911,1.911,0,0,1-1.911,1.91" transform="translate(-39.848 -12.887)" fill="#faf0fc"/>
              <path id="Trazado_160306" data-name="Trazado 160306" d="M204.358,46.68H177.919a8.969,8.969,0,0,1-8.969-8.969v-.25h44.377v.25a8.969,8.969,0,0,1-8.969,8.969" transform="translate(-52.66 -11.676)" fill="#545454"/>
              <path id="Trazado_160307" data-name="Trazado 160307" d="M204.762,325.289A7.762,7.762,0,1,1,197,317.763a7.645,7.645,0,0,1,7.759,7.526" transform="translate(-58.986 -99.044)" fill="#fa9300"/>
              <g id="Grupo_72180" data-name="Grupo 72180" transform="translate(96.044 42.853)" opacity="0.09">
                <g id="Grupo_72179" data-name="Grupo 72179">
                  <g id="Grupo_72178" data-name="Grupo 72178" clip-path="url(#clip-path-4)">
                    <rect id="Rectángulo_12342" data-name="Rectángulo 12342" width="83.403" height="49.142" transform="translate(0.001)" fill="#986aa3"/>
                  </g>
                </g>
              </g>
              <g id="Grupo_72183" data-name="Grupo 72183" transform="translate(95.383 133.2)" opacity="0.43">
                <g id="Grupo_72182" data-name="Grupo 72182">
                  <g id="Grupo_72181" data-name="Grupo 72181" clip-path="url(#clip-path-5)">
                    <rect id="Rectángulo_12344" data-name="Rectángulo 12344" width="84.728" height="26.608" transform="translate(0)" fill="#986aa3"/>
                  </g>
                </g>
              </g>
              <g id="Grupo_72186" data-name="Grupo 72186" transform="translate(94.853 168.016)" opacity="0.28">
                <g id="Grupo_72185" data-name="Grupo 72185">
                  <g id="Grupo_72184" data-name="Grupo 72184" clip-path="url(#clip-path-6)">
                    <rect id="Rectángulo_12346" data-name="Rectángulo 12346" width="39.13" height="26.608" fill="#986aa3"/>
                  </g>
                </g>
              </g>
              <g id="Grupo_72189" data-name="Grupo 72189" transform="translate(139.85 168.016)" opacity="0.28">
                <g id="Grupo_72188" data-name="Grupo 72188">
                  <g id="Grupo_72187" data-name="Grupo 72187" clip-path="url(#clip-path-7)">
                    <rect id="Rectángulo_12348" data-name="Rectángulo 12348" width="39.025" height="26.608" transform="translate(0)" fill="#986aa3"/>
                  </g>
                </g>
              </g>
              <g id="Grupo_72192" data-name="Grupo 72192" transform="translate(96.044 98.914)" opacity="0.28">
                <g id="Grupo_72191" data-name="Grupo 72191">
                  <g id="Grupo_72190" data-name="Grupo 72190" clip-path="url(#clip-path-6)">
                    <rect id="Rectángulo_12350" data-name="Rectángulo 12350" width="39.13" height="26.608" transform="translate(0)" fill="#986aa3"/>
                  </g>
                </g>
              </g>
              <g id="Grupo_72195" data-name="Grupo 72195" transform="translate(141.042 98.914)" opacity="0.28">
                <g id="Grupo_72194" data-name="Grupo 72194">
                  <g id="Grupo_72193" data-name="Grupo 72193" clip-path="url(#clip-path-7)">
                    <rect id="Rectángulo_12352" data-name="Rectángulo 12352" width="39.025" height="26.608" fill="#986aa3"/>
                  </g>
                </g>
              </g>
              <path id="Trazado_160308" data-name="Trazado 160308" d="M60.307,346.778l-29.429-.629s.374-1.42.828-3.135c.53-2,1.165-4.4,1.436-5.416.5-1.887,2.137-4.654,3.9-4.4s4.9-.88,7.924,1.258S51,339.61,55.653,341.119a6.506,6.506,0,0,1,4.027,3.3,5.866,5.866,0,0,1,.627,2.357" transform="translate(-9.624 -103.829)" fill="#380042"/>
              <path id="Trazado_160309" data-name="Trazado 160309" d="M120.471,121.9s-8.174,24.859-9.683,26.494c-.452.488-2.352.553-4.8.406-5.731-.348-14.446-1.874-14.446-1.874a36.689,36.689,0,0,1-2.39-8.8c-.361-2.27-.631-6.739-.827-11.221-.279-6.447-.4-12.925-.4-12.925s14.556,17.356,17.2,18.613l8.174-14.212Z" transform="translate(-27.407 -35.525)" fill="#d44f4a"/>
              <g id="Grupo_72198" data-name="Grupo 72198" transform="translate(60.923 91.376)" opacity="0.5">
                <g id="Grupo_72197" data-name="Grupo 72197">
                  <g id="Grupo_72196" data-name="Grupo 72196" clip-path="url(#clip-path-10)">
                    <path id="Trazado_160310" data-name="Trazado 160310" d="M106.174,154.652c-5.731-.348-14.447-1.874-14.447-1.874a36.724,36.724,0,0,1-2.389-8.8c-.361-2.27-.631-6.739-.827-11.221a12.115,12.115,0,0,1,5.1,7.448c1.509,6.666,1.384,7.168,5.659,8.3,3.057.809,5.663,4.252,6.9,6.149" transform="translate(-88.511 -132.754)" fill="#461782"/>
                  </g>
                </g>
              </g>
              <path id="Trazado_160311" data-name="Trazado 160311" d="M40.347,308.623l-.659,18.054a3.813,3.813,0,0,0,3.084,3.915A2.987,2.987,0,0,0,44,330.57c2.11-.511,2.3-3.422,2.3-3.422l.6-18.436Z" transform="translate(-12.369 -96.195)" fill="#f6b6a6"/>
              <path id="Trazado_160312" data-name="Trazado 160312" d="M110.088,346.5l-32.069-.251s.261-1.093.507-2.594A23.855,23.855,0,0,0,78.9,337.7c-.378-3.269,1.132-4.654,2.39-5.155s4.275-.253,6.539-.253,4.025,1.762,7.545,4.654,8.8,2.893,11.067,3.269c1.195.2,2.145,1.942,2.776,3.541a22.369,22.369,0,0,1,.872,2.748" transform="translate(-24.318 -103.552)" fill="#380042"/>
              <path id="Trazado_160313" data-name="Trazado 160313" d="M80.576,309.194l1.563,16.084a2.908,2.908,0,0,0,3.388,2.614,2.579,2.579,0,0,0,.33-.085c.1-.034.2-.071.3-.109a2.925,2.925,0,0,0,1.813-2.777l-.348-16.356Z" transform="translate(-25.115 -96.177)" fill="#f6b6a6"/>
              <path id="Trazado_160314" data-name="Trazado 160314" d="M53.024,334.328l-3.144,5.031,5.282,2.264,1.887-3.9Z" transform="translate(-15.547 -104.207)" fill="#fa9300"/>
              <path id="Trazado_160315" data-name="Trazado 160315" d="M60.307,351.261l-29.429-.629s.374-1.42.828-3.135l27.846,1.374.127.032a5.866,5.866,0,0,1,.627,2.357" transform="translate(-9.624 -108.311)" fill="#fa9300"/>
              <path id="Trazado_160316" data-name="Trazado 160316" d="M110.088,351.541l-32.069-.251s.261-1.093.507-2.594l3.347-.3,27.342.4a22.37,22.37,0,0,1,.872,2.748" transform="translate(-24.318 -108.592)" fill="#fa9300"/>
              <path id="Trazado_160317" data-name="Trazado 160317" d="M97.558,333.357l-2.852,4.8,6.093,2.074,1.62-3.889Z" transform="translate(-29.519 -103.904)" fill="#fa9300"/>
              <path id="Trazado_160318" data-name="Trazado 160318" d="M63.857,201.867s4.716,38.295,5.094,48.293,2.264,14.337,2.264,19.053.377,8.49.377,8.49l15.28-.377s-.377-38.107-.566-41.314-1.887-34.334-1.887-34.334Z" transform="translate(-19.904 -62.861)" fill="#c97106"/>
              <path id="Trazado_160319" data-name="Trazado 160319" d="M67.321,201.667a147.922,147.922,0,0,1-4.528,19.053c-2.641,7.735-11.7,44.9-12.45,48.482s-1.7,7.734-1.7,7.734H35.628s.189-8.489.189-14.9-.566-18.676.754-26.033.566-19.053.377-25.467a65.979,65.979,0,0,1,1.7-14.337Z" transform="translate(-11.105 -61.152)" fill="#fa9300"/>
              <path id="Trazado_160320" data-name="Trazado 160320" d="M77.044,180.214a12.059,12.059,0,0,1-5.093,2.264c-3.4.755-7.358-.942-12.639-3.961s-6.792,3.961-13.206,1.886-10.753-11.129-10.753-11.129a83.193,83.193,0,0,1,2.264-12.641c1.886-7.545,2.64-29.05,3.773-34.144s2.64-6.6,6.225-10.187a21.085,21.085,0,0,1,8.359-4.66c.554-.167.884-.246.884-.246s6.73,1.608,10.882,2.845a15.624,15.624,0,0,1,3.079,1.119,8.994,8.994,0,0,1,3.584,5.281,67.486,67.486,0,0,1,.942,16.977c-.565,4.718-.187,20-.187,24.525s1.886,22.071,1.886,22.071" transform="translate(-11.019 -33.474)" fill="#d44f4a"/>
              <path id="Trazado_160321" data-name="Trazado 160321" d="M52.062,123.23s-4.528-4.15-8.678-1.887-6.393,12.22-6.959,21.841.733,25.132,6.2,24.943S73,150.583,73,150.583l-4.9-7.734-18.3,6.6s4.528-22.26,2.264-26.222" transform="translate(-11.316 -37.611)" fill="#d44f4a"/>
              <path id="Trazado_160322" data-name="Trazado 160322" d="M82.494,152.324l3.584-1.258,3.208,6.917L87.4,160.058Z" transform="translate(-25.713 -47.086)" fill="#461782"/>
              <path id="Trazado_160323" data-name="Trazado 160323" d="M99.03,143.94l-10.69,5.408,2.452,5.722s7.986-4.025,8.615-6.728a6.3,6.3,0,0,0-.377-4.4" transform="translate(-27.535 -44.865)" fill="#f6b6a6"/>
              <path id="Trazado_160324" data-name="Trazado 160324" d="M124.792,118.974l2.264-3.082,5.6,2.578-.692,4.025Z" transform="translate(-38.897 -36.123)" fill="#461782"/>
              <path id="Trazado_160325" data-name="Trazado 160325" d="M136.032,102.958s-1.446-1.446-2.83-.251-5.031,9.306-5.031,9.306l5.408,2.327s1.446-5.974,2.075-7.861a8.3,8.3,0,0,0,.377-3.521" transform="translate(-39.95 -31.865)" fill="#f6b6a6"/>
              <path id="Trazado_160326" data-name="Trazado 160326" d="M77.079,110.24C72.927,109,66.2,107.4,66.2,107.4s-.33.078-.884.245a32.4,32.4,0,0,0,3.148,7.112c2.326,3.774,8.049,3.459,9.055,1.509.973-1.884-.345-5.76-.436-6.023" transform="translate(-20.357 -33.475)" fill="#461782"/>
              <path id="Trazado_160327" data-name="Trazado 160327" d="M68.174,89.126,67.42,102.08s2.452,6.036,5.219,7.043,4.025.251,4.465-.692-1.006-4.276-1.006-4.276L75.909,99l.189-1.949Z" transform="translate(-21.014 -27.78)" fill="#f6b6a6"/>
              <path id="Trazado_160328" data-name="Trazado 160328" d="M67.427,70.217s-1.7,17.418,5.156,20.059,14.9-6.1,14.274-16.349S77.928,63.048,75.979,63.174s-8.049,2.39-8.552,7.043" transform="translate(-20.958 -19.687)" fill="#f6b6a6"/>
              <path id="Trazado_160329" data-name="Trazado 160329" d="M66.356,78.077a7.394,7.394,0,0,0,2.2-9.307l1.95,3.585L70.13,66.57s2.892,4.716,6.35,5.345c0,0-1.886-2.767-1.949-4.653,0,0,3.962,4.59,9.936,4.4S94.59,70.28,95.659,65.249c0,0-9.746-1.635-12.827-4.59,0,0,4.968-.189,6.351-1.761,0,0-5.974.754-9.559-.566s-10.312-.943-11.7.377a6.09,6.09,0,0,0-1.572,3.459s-4.213.063-5.219,2.578S61.106,82.353,65.821,84.8l.252-3.364-.409-2.547Z" transform="translate(-18.944 -17.925)" fill="#44004e"/>
              <path id="Trazado_160330" data-name="Trazado 160330" d="M69.834,84.084a4.244,4.244,0,1,1-4.245-4.245,4.245,4.245,0,0,1,4.245,4.245" transform="translate(-19.121 -24.885)" fill="#f6b6a6"/>
              <path id="Trazado_160331" data-name="Trazado 160331" d="M83.327,82.828A1.132,1.132,0,1,1,82.195,81.7a1.132,1.132,0,0,1,1.132,1.132" transform="translate(-25.267 -25.464)" fill="#36203a"/>
              <path id="Trazado_160332" data-name="Trazado 160332" d="M93.181,86.872a.943.943,0,1,1-.943-.943.943.943,0,0,1,.943.943" transform="translate(-28.455 -26.783)" fill="#36203a"/>
              <path id="Trazado_160333" data-name="Trazado 160333" d="M80.491,85.347a4.163,4.163,0,1,1,4.163-4.163,4.168,4.168,0,0,1-4.163,4.163m0-7.928a3.765,3.765,0,1,0,3.764,3.765,3.769,3.769,0,0,0-3.764-3.765" transform="translate(-23.791 -24.007)" fill="#36203a"/>
              <path id="Trazado_160334" data-name="Trazado 160334" d="M92.811,90.1a3.856,3.856,0,1,1,3.857-3.856A3.86,3.86,0,0,1,92.811,90.1m0-7.314a3.458,3.458,0,1,0,3.458,3.458,3.462,3.462,0,0,0-3.458-3.458" transform="translate(-27.726 -25.681)" fill="#36203a"/>
              <rect id="Rectángulo_12355" data-name="Rectángulo 12355" width="0.398" height="1.339" transform="translate(60.423 58.766) rotate(-69.861)" fill="#36203a"/>
              <path id="Trazado_160335" data-name="Trazado 160335" d="M80.409,94l2.6,1.425s-1.09,1.761-2.683,1.006S80.409,94,80.409,94" transform="translate(-24.822 -29.298)" fill="#36203a"/>
              <path id="Trazado_160336" data-name="Trazado 160336" d="M78.049,89.888c-.22.485-1.074.571-1.907.193S74.814,89,75.034,88.518s1.074-.571,1.907-.193,1.328,1.079,1.108,1.563" transform="translate(-23.371 -27.457)" fill="#fa9300"/>
              <path id="Trazado_160337" data-name="Trazado 160337" d="M90.754,96.185c-.22.485-1.074.571-1.907.192s-1.328-1.079-1.108-1.564,1.074-.571,1.907-.191,1.328,1.079,1.108,1.563" transform="translate(-27.331 -29.419)" fill="#fa9300"/>
              <path id="Trazado_160338" data-name="Trazado 160338" d="M38.671,284.834l-1.107-.443A36.9,36.9,0,0,0,39.6,271.234a87.879,87.879,0,0,1,.524-14.192l.233-2.479c.448-4.813,1.278-10.778,1.945-15.571.452-3.244.808-5.807.884-6.865.191-2.678,2.565-10.371,2.666-10.7l1.138.352c-.024.079-2.434,7.887-2.616,10.431-.078,1.1-.438,3.678-.891,6.944-.666,4.781-1.494,10.731-1.939,15.517l-.234,2.481a87.059,87.059,0,0,0-.518,14.05,37.376,37.376,0,0,1-2.117,13.629" transform="translate(-11.708 -69.017)" fill="#fa9300"/>
              <path id="Trazado_160339" data-name="Trazado 160339" d="M49.158,212.785l-1.593,10.229s5.449-1.258,6.791-4.109a15.668,15.668,0,0,0,1.258-6.2s-5.2,1.509-6.455.084" transform="translate(-14.826 -66.297)" fill="#380042"/>
              <g id="Grupo_72201" data-name="Grupo 72201" transform="translate(37.854 84.109)" opacity="0.5">
                <g id="Grupo_72200" data-name="Grupo 72200">
                  <g id="Grupo_72199" data-name="Grupo 72199" clip-path="url(#clip-path-11)">
                    <path id="Trazado_160340" data-name="Trazado 160340" d="M56.5,122.2s3.018,2.264,3.018,7.546-4.528,20.751-4.528,20.751L72.6,143.829l-14.84,3.521s7.42-20.877-1.258-25.153" transform="translate(-54.995 -122.197)" fill="#461782"/>
                  </g>
                </g>
              </g>
              <path id="Trazado_160341" data-name="Trazado 160341" d="M70.1,92.719s1.048,6.246,6.644,7.4l.189,5.156s-6.665.608-6.833-12.555" transform="translate(-21.849 -28.9)" fill="#dd988a"/>
              <path id="Trazado_160342" data-name="Trazado 160342" d="M68.561,85.272S66.737,83.2,65.354,83.7a1.267,1.267,0,0,0-.818,1.761s1.258-1.509,1.824-.88-.378,1.446-.378,1.446-.189,1.069.5.692a23.471,23.471,0,0,0,2.075-1.446" transform="translate(-20.08 -26.064)" fill="#dd988a"/>
              <path id="Trazado_160343" data-name="Trazado 160343" d="M91.3,149.6l-.5,7.231-2.452-5.722Z" transform="translate(-27.535 -46.63)" fill="#dd988a"/>
              <path id="Trazado_160344" data-name="Trazado 160344" d="M129.324,112.483l3.983,5.114L127.9,115.27Z" transform="translate(-39.865 -35.06)" fill="#dd988a"/>
              <path id="Trazado_160345" data-name="Trazado 160345" d="M40.2,313.568l6.666,4.9.126-5.156Z" transform="translate(-12.529 -97.658)" fill="#dd988a"/>
              <path id="Trazado_160346" data-name="Trazado 160346" d="M80.849,312.043l6.792,7.546.189-7.735Z" transform="translate(-25.2 -97.202)" fill="#dd988a"/>
              <g id="Grupo_72204" data-name="Grupo 72204" transform="translate(24.162 123.139)" opacity="0.5">
                <g id="Grupo_72203" data-name="Grupo 72203">
                  <g id="Grupo_72202" data-name="Grupo 72202" clip-path="url(#clip-path-12)">
                    <path id="Trazado_160347" data-name="Trazado 160347" d="M35.1,191.08l2.383-11.65s1.986,9,5.3,8.87,14.165-9.4,14.165-9.4-8.34,11.385-12.312,12.708a20.625,20.625,0,0,0-6.884,4.1Z" transform="translate(-35.104 -178.901)" fill="#461782"/>
                  </g>
                </g>
              </g>
              <path id="Trazado_160348" data-name="Trazado 160348" d="M109.044,83.308l1.883,9.13,2.918.471L111.3,81.9Z" transform="translate(-33.988 -25.526)" fill="#d44f4a"/>
              <path id="Trazado_160349" data-name="Trazado 160349" d="M109.34,86.05l1.694-.439.063,1.13-1.443.439Z" transform="translate(-34.08 -26.684)" fill="#44004e"/>
              <path id="Trazado_160350" data-name="Trazado 160350" d="M110.161,89.469l1.694-.439.063,1.13-1.443.439Z" transform="translate(-34.336 -27.75)" fill="#44004e"/>
              <path id="Trazado_160351" data-name="Trazado 160351" d="M110.845,92.682l1.694-.439.063,1.13-1.443.439Z" transform="translate(-34.549 -28.751)" fill="#44004e"/>
              <path id="Trazado_160352" data-name="Trazado 160352" d="M158.064,85.439l-10.312-.191-6.7-.119-4.22-.078-.62-.012-12.136-.221-5.449-.1-1.788-12.7,16.3-7.7.459-.221,3.6-1.7,5.472-2.587,9.49-4.482.322,1.645Z" transform="translate(-36.417 -17.244)" fill="#d44f4a"/>
              <g id="Grupo_72207" data-name="Grupo 72207" transform="translate(80.42 38.079)" opacity="0.33">
                <g id="Grupo_72206" data-name="Grupo 72206">
                  <g id="Grupo_72205" data-name="Grupo 72205" clip-path="url(#clip-path-13)">
                    <path id="Trazado_160353" data-name="Trazado 160353" d="M152.484,56.969c-1.073,1.24-2.909,3.243-6,6.384-6.5,6.587-11.392,4.519-14.026,8.375s-.1,6.968-3.762,8.662a10.5,10.5,0,0,0-4.625,4.429l-5.449-.1-1.788-12.7,16.3-7.7.459-.221,3.6-1.7,5.472-2.587,9.49-4.482Z" transform="translate(-116.837 -55.323)" fill="#44004e"/>
                  </g>
                </g>
              </g>
              <path id="Trazado_160354" data-name="Trazado 160354" d="M135.827,98.086l-.215,14.5-1.7.149-1.609.143-1.335-4.972-3.135-9.973,3,.054Z" transform="translate(-39.843 -30.526)" fill="#fa9300"/>
              <path id="Trazado_160355" data-name="Trazado 160355" d="M172.857,85.575c-.8.176-1.695-.3-2.609-1.3-2.034-2.221-4.146-7.009-5.436-12.765-1.2-5.351-1.392-10.241-.7-13.22v-.006c.388-1.658,1.053-2.717,1.98-2.923,2.572-.581,6.173,5.72,8.037,14.061s1.3,15.58-1.277,16.155" transform="translate(-51.028 -17.243)" fill="#44004e"/>
              <path id="Trazado_160356" data-name="Trazado 160356" d="M170.249,85.616c-2.034-2.221-4.146-7.009-5.436-12.765-1.2-5.35-1.392-10.241-.7-13.219,2.034,2.227,4.146,7,5.436,12.759,1.2,5.356,1.386,10.253.7,13.225" transform="translate(-51.028 -18.587)" fill="#290030"/>
              <path id="Trazado_160357" data-name="Trazado 160357" d="M164.151,71l6.81-1.223,2.428,8.36-6.979,3A37.657,37.657,0,0,1,164.151,71" transform="translate(-51.164 -21.747)" fill="#fa9300"/>
              <path id="Trazado_160358" data-name="Trazado 160358" d="M176.3,73.571c.67,2.309.637,4.348-.074,4.555s-1.831-1.5-2.5-3.806-.637-4.348.074-4.555,1.832,1.5,2.5,3.806" transform="translate(-53.996 -21.74)" fill="#fa9300"/>
              <path id="Trazado_160359" data-name="Trazado 160359" d="M156.183,87.348l-6.7-.118c-1.669-4.729-4.2-13.492-3.851-22.431l5.472-2.553-.048.159s-.56,8.169,1.133,14.762a45.787,45.787,0,0,0,3.994,10.181" transform="translate(-45.382 -19.401)" fill="#44004e"/>
              <path id="Trazado_160360" data-name="Trazado 160360" d="M156.958,87.278l-6.7-.118c-1.669-4.793-4.2-13.675-3.851-22.736l5.472-2.587-.048.16s-.56,8.28,1.132,14.962a46.747,46.747,0,0,0,3.994,10.318" transform="translate(-45.623 -19.274)" fill="#fa9300"/>
              <path id="Trazado_160361" data-name="Trazado 160361" d="M144.213,89.022l-.62-.012c-.787-3.428-2.837-13.054-3.07-20.726l.459-.221c.078,1.675.745,15.064,3.231,20.959" transform="translate(-43.8 -21.215)" fill="#fa9300"/>
              <g id="Grupo_72210" data-name="Grupo 72210" transform="translate(80.42 38.079)" opacity="0.33">
                <g id="Grupo_72209" data-name="Grupo 72209">
                  <g id="Grupo_72208" data-name="Grupo 72208" clip-path="url(#clip-path-13)">
                    <path id="Trazado_160362" data-name="Trazado 160362" d="M152.484,56.969c-1.073,1.24-2.909,3.243-6,6.384-6.5,6.587-11.392,4.519-14.026,8.375s-.1,6.968-3.762,8.662a10.5,10.5,0,0,0-4.625,4.429l-5.449-.1-1.788-12.7,16.3-7.7.459-.221,3.6-1.7,5.472-2.587,9.49-4.482Z" transform="translate(-116.837 -55.323)" fill="#44004e"/>
                  </g>
                </g>
              </g>
              <path id="Trazado_160363" data-name="Trazado 160363" d="M117.164,75.742l3.89,16.942H115.03l-3.388-14.558Z" transform="translate(-34.798 -23.608)" fill="#fa9300"/>
              <g id="Grupo_72213" data-name="Grupo 72213" transform="translate(90.984 67.465)" opacity="0.33">
                <g id="Grupo_72212" data-name="Grupo 72212">
                  <g id="Grupo_72211" data-name="Grupo 72211" clip-path="url(#clip-path-15)">
                    <path id="Trazado_160364" data-name="Trazado 160364" d="M137.185,98.111l-.215,14.5-1.7.149a24.067,24.067,0,0,1-.781-4.036,13.42,13.42,0,0,0-1.127-6.342,17.669,17.669,0,0,1-1.174-4.37Z" transform="translate(-132.184 -98.015)" fill="#44004e"/>
                  </g>
                </g>
              </g>
              <path id="Trazado_160365" data-name="Trazado 160365" d="M137.918,102.635a2.811,2.811,0,0,0-2.7,2.573c-.5,2.635,1.694,4.517,2.823,4.016s2.384-6.589-.125-6.589" transform="translate(-42.124 -31.99)" fill="#f6b6a6"/>
              <path id="Trazado_160366" data-name="Trazado 160366" d="M303.218,61.2H204.131V99.22h.006l-.059,8.84,7.772-8.84h91.368Z" transform="translate(-63.609 -19.075)" fill="#fa9300"/>
              <path id="Trazado_160367" data-name="Trazado 160367" d="M239.743,83.606A12.311,12.311,0,1,1,227.432,71.3a12.311,12.311,0,0,1,12.311,12.31" transform="translate(-67.051 -22.222)" fill="#44004e"/>
              <path id="Trazado_160368" data-name="Trazado 160368" d="M229.352,81.969l.132,9.531,7.414-5.3Z" transform="translate(-71.487 -25.549)" fill="#fff"/>
              <rect id="Rectángulo_12361" data-name="Rectángulo 12361" width="56.483" height="2.877" transform="translate(175.207 59.696)" fill="#fff"/>
              <rect id="Rectángulo_12362" data-name="Rectángulo 12362" width="26.338" height="2.985" transform="translate(175.207 59.589)" fill="#44004e"/>
              <path id="Trazado_160369" data-name="Trazado 160369" d="M289.118,176.216a13.974,13.974,0,1,1-13.973-13.974,13.973,13.973,0,0,1,13.973,13.974" transform="translate(-81.404 -50.569)" fill="#d44f4a"/>
              <path id="Trazado_160370" data-name="Trazado 160370" d="M276.8,177.965s-4.865-2.317-5.56.58,1.506,5.1,4.634,5.791a30.505,30.505,0,0,0,6.6.579s1.969-7.413.811-10.193-3.243-3.012-4.633-2.317-1.854,5.56-1.854,5.56" transform="translate(-84.504 -53.633)" fill="#fff"/>
              <path id="Trazado_160371" data-name="Trazado 160371" d="M126.312,35.457a10.594,10.594,0,1,1,3.361-14.6,10.593,10.593,0,0,1-3.361,14.6" transform="translate(-34.316 -4.95)" fill="#fa9300"/>
              <rect id="Rectángulo_12363" data-name="Rectángulo 12363" width="2.559" height="7.41" transform="translate(82.752 17.883)" fill="#fff"/>
              <rect id="Rectángulo_12364" data-name="Rectángulo 12364" width="2.559" height="7.41" transform="translate(87.248 17.882)" fill="#fff"/>
              <path id="Trazado_160372" data-name="Trazado 160372" d="M315.7,140.416v11.016a3.058,3.058,0,0,0,3.057,3.058h18l4.885,4.4.08-4.4V140.416a3.058,3.058,0,0,0-3.057-3.057H318.762a3.058,3.058,0,0,0-3.057,3.057" transform="translate(-98.402 -42.813)" fill="#b69d80"/>
              <path id="Trazado_160373" data-name="Trazado 160373" d="M326.72,148.807a1.41,1.41,0,1,1-1.41-1.41,1.41,1.41,0,0,1,1.41,1.41" transform="translate(-100.956 -45.942)" fill="#fff"/>
              <path id="Trazado_160374" data-name="Trazado 160374" d="M335.574,148.841a1.41,1.41,0,1,1-1.41-1.41,1.41,1.41,0,0,1,1.41,1.41" transform="translate(-103.716 -45.953)" fill="#fff"/>
              <path id="Trazado_160375" data-name="Trazado 160375" d="M344.079,148.843a1.41,1.41,0,1,1-1.41-1.41,1.41,1.41,0,0,1,1.41,1.41" transform="translate(-106.367 -45.953)" fill="#fff"/>
              <path id="Trazado_160376" data-name="Trazado 160376" d="M36.069,72.876V83.893a3.058,3.058,0,0,1-3.057,3.058h-18l-4.885,4.4-.08-4.4V72.876A3.057,3.057,0,0,1,13.1,69.819H33.012a3.058,3.058,0,0,1,3.057,3.057" transform="translate(-3.13 -21.762)" fill="#b69d80"/>
              <path id="Trazado_160377" data-name="Trazado 160377" d="M35.562,81.268a1.41,1.41,0,1,0,1.41-1.41,1.41,1.41,0,0,0-1.41,1.41" transform="translate(-11.084 -24.891)" fill="#fff"/>
              <path id="Trazado_160378" data-name="Trazado 160378" d="M26.708,81.3a1.41,1.41,0,1,0,1.41-1.41,1.41,1.41,0,0,0-1.41,1.41" transform="translate(-8.325 -24.901)" fill="#fff"/>
              <path id="Trazado_160379" data-name="Trazado 160379" d="M18.2,81.3a1.41,1.41,0,1,0,1.41-1.41A1.41,1.41,0,0,0,18.2,81.3" transform="translate(-5.674 -24.902)" fill="#fff"/>
              <path id="Trazado_160380" data-name="Trazado 160380" d="M138.193,214.524v11.016a3.058,3.058,0,0,1-3.057,3.058h-18l-4.886,4.4-.08-4.4V214.524a3.057,3.057,0,0,1,3.057-3.057h19.912a3.058,3.058,0,0,1,3.057,3.057" transform="translate(-34.961 -65.912)" fill="#fa9300"/>
              <path id="Trazado_160381" data-name="Trazado 160381" d="M137.687,222.915a1.41,1.41,0,1,0,1.41-1.41,1.41,1.41,0,0,0-1.41,1.41" transform="translate(-42.916 -69.041)" fill="#fff"/>
              <path id="Trazado_160382" data-name="Trazado 160382" d="M128.833,222.948a1.41,1.41,0,1,0,1.41-1.41,1.41,1.41,0,0,0-1.41,1.41" transform="translate(-40.156 -69.051)" fill="#fff"/>
              <path id="Trazado_160383" data-name="Trazado 160383" d="M120.328,222.95a1.41,1.41,0,1,0,1.41-1.41,1.41,1.41,0,0,0-1.41,1.41" transform="translate(-37.505 -69.052)" fill="#fff"/>
              <path id="Trazado_160384" data-name="Trazado 160384" d="M109.245,69.952v0Z" transform="translate(-34.051 -21.773)" fill="#986aa3"/>
              <rect id="Rectángulo_12365" data-name="Rectángulo 12365" width="5.031" height="5.031" transform="translate(199.318 100.785) rotate(-45)" fill="#fff"/>
              <rect id="Rectángulo_12366" data-name="Rectángulo 12366" width="5.031" height="5.031" transform="matrix(0.707, -0.707, 0.707, 0.707, 70.883, 139.133)" fill="#fff"/>
              <rect id="Rectángulo_12367" data-name="Rectángulo 12367" width="5.031" height="5.031" transform="matrix(0.707, -0.707, 0.707, 0.707, 61.512, 15.354)" fill="#fff"/>
              <rect id="Rectángulo_12368" data-name="Rectángulo 12368" width="5.031" height="5.031" transform="translate(194.501 20.455) rotate(-45)" fill="#fff"/>
              <rect id="Rectángulo_12369" data-name="Rectángulo 12369" width="5.031" height="5.031" transform="matrix(0.707, -0.707, 0.707, 0.707, 138.61, 3.557)" fill="#fff"/>
              <rect id="Rectángulo_12370" data-name="Rectángulo 12370" width="5.031" height="5.031" transform="translate(232.701 152.332) rotate(-45)" fill="#fff"/>
              <rect id="Rectángulo_12371" data-name="Rectángulo 12371" width="5.031" height="5.031" transform="translate(6.237 180.351) rotate(-45)" fill="#fff"/>
              <rect id="Rectángulo_12372" data-name="Rectángulo 12372" width="5.031" height="5.031" transform="translate(7.899 100.978) rotate(-45)" fill="#fff"/>
              <path id="Trazado_160385" data-name="Trazado 160385" d="M17.358,195.538a1.41,1.41,0,1,0,1.41-1.41,1.41,1.41,0,0,0-1.41,1.41" transform="translate(-5.41 -60.508)" fill="#fa9300"/>
              <path id="Trazado_160386" data-name="Trazado 160386" d="M8.5,195.571a1.41,1.41,0,1,0,1.41-1.41,1.41,1.41,0,0,0-1.41,1.41" transform="translate(-2.651 -60.518)" fill="#fa9300"/>
              <path id="Trazado_160387" data-name="Trazado 160387" d="M0,195.573a1.41,1.41,0,1,0,1.41-1.41A1.41,1.41,0,0,0,0,195.573" transform="translate(0 -60.519)" fill="#fa9300"/>
              <path id="Trazado_160388" data-name="Trazado 160388" d="M316.229,45.453a2.2,2.2,0,1,0,2.2-2.2,2.2,2.2,0,0,0-2.2,2.2" transform="translate(-98.565 -13.481)" fill="#fa9300"/>
              <path id="Trazado_160389" data-name="Trazado 160389" d="M302.409,45.505a2.2,2.2,0,1,0,2.2-2.2,2.2,2.2,0,0,0-2.2,2.2" transform="translate(-94.258 -13.497)" fill="#fa9300"/>
              <path id="Trazado_160390" data-name="Trazado 160390" d="M289.135,45.508a2.2,2.2,0,1,0,2.2-2.2,2.2,2.2,0,0,0-2.2,2.2" transform="translate(-90.12 -13.498)" fill="#fa9300"/>
              <path id="Trazado_160391" data-name="Trazado 160391" d="M344.6,232.665a2.2,2.2,0,1,0,2.2-2.2,2.2,2.2,0,0,0-2.2,2.2" transform="translate(-107.408 -71.833)" fill="#fa9300"/>
              <path id="Trazado_160392" data-name="Trazado 160392" d="M330.779,232.717a2.2,2.2,0,1,0,2.2-2.2,2.2,2.2,0,0,0-2.2,2.2" transform="translate(-103.101 -71.85)" fill="#fa9300"/>
              <path id="Trazado_160393" data-name="Trazado 160393" d="M317.5,232.72a2.2,2.2,0,1,0,2.2-2.2,2.2,2.2,0,0,0-2.2,2.2" transform="translate(-98.963 -71.85)" fill="#fa9300"/>
              <path id="Trazado_160394" data-name="Trazado 160394" d="M71.689,42.84a2.2,2.2,0,1,0,2.2-2.2,2.2,2.2,0,0,0-2.2,2.2" transform="translate(-22.345 -12.667)" fill="#fa9300"/>
              <path id="Trazado_160395" data-name="Trazado 160395" d="M57.87,42.892a2.2,2.2,0,1,0,2.2-2.2,2.2,2.2,0,0,0-2.2,2.2" transform="translate(-18.038 -12.683)" fill="#fa9300"/>
              <path id="Trazado_160396" data-name="Trazado 160396" d="M44.6,42.9a2.2,2.2,0,1,0,2.2-2.2,2.2,2.2,0,0,0-2.2,2.2" transform="translate(-13.9 -12.684)" fill="#fa9300"/>
            </g>
          </g>
        </g>
      </g>
    </g>
    <rect id="Rectángulo_12375" data-name="Rectángulo 12375" width="295" height="249" transform="translate(390 1105)" fill="none"/>
  </g>
</svg>
