<svg xmlns="http://www.w3.org/2000/svg" width="26.737" height="35.65" viewBox="0 0 26.737 35.65">
  <g id="archivo" transform="translate(0 0)">
    <g id="Grupo_71762" data-name="Grupo 71762" transform="translate(5.94 5.942)">
      <g id="Grupo_71761" data-name="Grupo 71761" transform="translate(0)">
        <rect id="Rect치ngulo_12046" data-name="Rect치ngulo 12046" width="5.942" height="2.971" fill="#fff"/>
      </g>
    </g>
    <g id="Grupo_71764" data-name="Grupo 71764" transform="translate(5.94 11.883)">
      <g id="Grupo_71763" data-name="Grupo 71763" transform="translate(0)">
        <rect id="Rect치ngulo_12047" data-name="Rect치ngulo 12047" width="5.942" height="2.971" fill="#fff"/>
      </g>
    </g>
    <g id="Grupo_71766" data-name="Grupo 71766" transform="translate(5.942 17.825)">
      <g id="Grupo_71765" data-name="Grupo 71765" transform="translate(0)">
        <path id="Trazado_159788" data-name="Trazado 159788" d="M119.465,204.8v11.883h14.854V204.8Zm11.883,8.912h-8.912v-5.941h8.912Z" transform="translate(-119.465 -204.8)" fill="#fff"/>
      </g>
    </g>
    <g id="Grupo_71768" data-name="Grupo 71768" transform="translate(0 0)">
      <g id="Grupo_71767" data-name="Grupo 71767" transform="translate(0)">
        <path id="Trazado_159789" data-name="Trazado 159789" d="M69.025,0H54.171A2.97,2.97,0,0,0,51.2,2.971V32.679a2.972,2.972,0,0,0,2.971,2.971h20.8a2.971,2.971,0,0,0,2.971-2.971V8.912Zm0,4.2,4.712,4.71H69.025Zm5.941,28.476h-20.8V2.971H66.054V8.912a2.972,2.972,0,0,0,2.971,2.971h5.941v20.8Z" transform="translate(-51.2)" fill="#fff"/>
      </g>
    </g>
  </g>
</svg>
