<svg xmlns="http://www.w3.org/2000/svg" width="820" height="189.127" viewBox="0 0 820 189.127">
  <g id="Grupo_71518" data-name="Grupo 71518" transform="translate(-390 -817.539)">
    <g id="Grupo_71422" data-name="Grupo 71422" transform="translate(390 817.539)">
      <g id="Grupo_53778" data-name="Grupo 53778" transform="translate(0 0)">
        <ellipse id="Elipse_4253" data-name="Elipse 4253" cx="40.49" cy="40.49" rx="40.49" ry="40.49" transform="translate(433.229 84.517) rotate(-76.717)" fill="#c59191"/>
        <ellipse id="Elipse_5347" data-name="Elipse 5347" cx="40.49" cy="40.49" rx="40.49" ry="40.49" transform="translate(719.144 84.517) rotate(-76.717)" fill="#afafaf"/>
        <g id="Grupo_53759" data-name="Grupo 53759" transform="translate(429.793 2.268)">
          <path id="Trazado_103781" data-name="Trazado 103781" d="M924.19,1355.534a.783.783,0,0,1-.678-.392l-7.949-13.766a52.159,52.159,0,0,1-43.519-51.433h1.567a50.315,50.315,0,0,0,42.568,49.945.786.786,0,0,1,.556.382l7.455,12.913,7.456-12.913a.785.785,0,0,1,.555-.382,50.581,50.581,0,0,0-8.011-100.524V1237.8a52.15,52.15,0,0,1,8.627,103.58l-7.948,13.766A.784.784,0,0,1,924.19,1355.534Z" transform="translate(-872.044 -1237.796)" fill="#606060"/>
        </g>
        <g id="Grupo_71424" data-name="Grupo 71424" transform="translate(715.708 2.268)">
          <path id="Trazado_103781-2" data-name="Trazado 103781" d="M924.19,1355.534a.783.783,0,0,1-.678-.392l-7.949-13.766a52.159,52.159,0,0,1-43.519-51.433h1.567a50.315,50.315,0,0,0,42.568,49.945.786.786,0,0,1,.556.382l7.455,12.913,7.456-12.913a.785.785,0,0,1,.555-.382,50.581,50.581,0,0,0-8.011-100.524V1237.8a52.15,52.15,0,0,1,8.627,103.58l-7.948,13.766A.784.784,0,0,1,924.19,1355.534Z" transform="translate(-872.044 -1237.796)" fill="#606060"/>
        </g>
        <g id="Grupo_53760" data-name="Grupo 53760" transform="translate(427.637 0.112)">
          <path id="Trazado_103782" data-name="Trazado 103782" d="M874.7,1288.873h-5.878a54.3,54.3,0,0,1,54.3-54.3v5.878A48.478,48.478,0,0,0,874.7,1288.873Z" transform="translate(-868.819 -1234.571)" fill="#c59191"/>
        </g>
        <g id="Grupo_71423" data-name="Grupo 71423" transform="translate(713.553 0.112)">
          <path id="Trazado_103782-2" data-name="Trazado 103782" d="M874.7,1288.873h-5.878a54.3,54.3,0,0,1,54.3-54.3v5.878A48.478,48.478,0,0,0,874.7,1288.873Z" transform="translate(-868.819 -1234.571)" fill="#afafaf"/>
        </g>
        <ellipse id="Elipse_4254" data-name="Elipse 4254" cx="40.49" cy="40.49" rx="40.49" ry="40.49" transform="translate(574.349 81.423) rotate(-73.155)" fill="#69787d"/>
        <g id="Grupo_53761" data-name="Grupo 53761" transform="translate(572.689 2.258)">
          <path id="Trazado_103783" data-name="Trazado 103783" d="M1138.009,1355.53a.785.785,0,0,1-.679-.392l-7.954-13.777a52.157,52.157,0,0,1-43.512-51.434h1.567a50.319,50.319,0,0,0,42.562,49.946.783.783,0,0,1,.555.382l7.462,12.923,7.462-12.923a.782.782,0,0,1,.555-.382,50.582,50.582,0,0,0-8.017-100.524v-1.568a52.15,52.15,0,0,1,8.633,103.579l-7.954,13.777A.785.785,0,0,1,1138.009,1355.53Z" transform="translate(-1085.863 -1237.781)" fill="#606060"/>
        </g>
        <g id="Grupo_53762" data-name="Grupo 53762" transform="translate(570.533 0.102)">
          <path id="Trazado_103784" data-name="Trazado 103784" d="M1088.515,1288.857h-5.878a54.3,54.3,0,0,1,54.3-54.3v5.879A48.478,48.478,0,0,0,1088.515,1288.857Z" transform="translate(-1082.637 -1234.556)" fill="#69787d"/>
        </g>
        <ellipse id="Elipse_4255" data-name="Elipse 4255" cx="40.49" cy="40.49" rx="40.49" ry="40.49" transform="translate(13.811 13.811)" fill="#e94b46"/>
        <g id="Grupo_53763" data-name="Grupo 53763">
          <path id="Trazado_103785" data-name="Trazado 103785" d="M234.813,1288.7h-5.878a54.3,54.3,0,0,1,54.3-54.3v5.878A48.478,48.478,0,0,0,234.813,1288.7Z" transform="translate(-228.935 -1234.403)" fill="#e94b46"/>
        </g>
        <g id="Grupo_53764" data-name="Grupo 53764" transform="translate(2.155 2.155)">
          <path id="Trazado_103786" data-name="Trazado 103786" d="M284.306,1355.479a.785.785,0,0,1-.679-.392l-8.02-13.89a52.157,52.157,0,0,1-43.447-51.423h1.568a50.33,50.33,0,0,0,42.5,49.936.783.783,0,0,1,.555.382l7.527,13.036,7.526-13.036a.786.786,0,0,1,.555-.382,50.582,50.582,0,0,0-8.081-100.514v-1.568a52.15,52.15,0,0,1,8.7,103.568l-8.02,13.89A.783.783,0,0,1,284.306,1355.479Z" transform="translate(-232.16 -1237.628)" fill="#606060"/>
        </g>
        <ellipse id="Elipse_4256" data-name="Elipse 4256" cx="40.49" cy="40.49" rx="40.49" ry="40.49" transform="matrix(0.23, -0.973, 0.973, 0.23, 290.99, 84.508)" fill="#daa363"/>
        <g id="Grupo_53765" data-name="Grupo 53765" transform="translate(287.555 2.258)">
          <path id="Trazado_103787" data-name="Trazado 103787" d="M711.356,1355.53a.785.785,0,0,1-.679-.392l-7.954-13.777a52.156,52.156,0,0,1-43.513-51.434h1.567a50.319,50.319,0,0,0,42.562,49.946.783.783,0,0,1,.555.382l7.462,12.923,7.462-12.923a.784.784,0,0,1,.555-.382,50.582,50.582,0,0,0-8.017-100.524v-1.568a52.15,52.15,0,0,1,8.633,103.579l-7.954,13.777A.785.785,0,0,1,711.356,1355.53Z" transform="translate(-659.21 -1237.781)" fill="#606060"/>
        </g>
        <g id="Grupo_53766" data-name="Grupo 53766" transform="translate(285.4 0.102)">
          <path id="Trazado_103788" data-name="Trazado 103788" d="M661.863,1288.857h-5.878a54.3,54.3,0,0,1,54.3-54.3v5.879A48.478,48.478,0,0,0,661.863,1288.857Z" transform="translate(-655.985 -1234.556)" fill="#daa363"/>
        </g>
        <ellipse id="Elipse_4257" data-name="Elipse 4257" cx="40.49" cy="40.49" rx="40.49" ry="40.49" transform="translate(146.904 82.322) rotate(-74.238)" fill="#fa9300"/>
        <g id="Grupo_53767" data-name="Grupo 53767" transform="translate(144.723 2.206)">
          <path id="Trazado_103789" data-name="Trazado 103789" d="M497.634,1355.5h0a.784.784,0,0,1-.679-.392l-7.987-13.835a52.155,52.155,0,0,1-43.48-51.427h1.567a50.322,50.322,0,0,0,42.53,49.939.784.784,0,0,1,.555.382l7.494,12.981,7.5-12.981a.784.784,0,0,1,.555-.382,50.582,50.582,0,0,0-8.051-100.518V1237.7a52.15,52.15,0,0,1,8.668,103.573l-7.989,13.835A.785.785,0,0,1,497.634,1355.5Z" transform="translate(-445.488 -1237.704)" fill="#606060"/>
        </g>
        <g id="Grupo_53768" data-name="Grupo 53768" transform="translate(142.568 0.051)">
          <path id="Trazado_103790" data-name="Trazado 103790" d="M448.141,1288.781h-5.878a54.3,54.3,0,0,1,54.3-54.3v5.879A48.478,48.478,0,0,0,448.141,1288.781Z" transform="translate(-442.263 -1234.479)" fill="#fa9300"/>
        </g>
        <ellipse id="Elipse_4258" data-name="Elipse 4258" cx="4.311" cy="4.311" rx="4.311" ry="4.311" transform="translate(50.063 133.093)" fill="#d44f4a"/>
        <ellipse id="Elipse_4259" data-name="Elipse 4259" cx="4.311" cy="4.311" rx="4.311" ry="4.311" transform="translate(192.318 133.093)" fill="#fa9300"/>
        <ellipse id="Elipse_4260" data-name="Elipse 4260" cx="4.311" cy="4.311" rx="4.311" ry="4.311" transform="translate(335.551 133.093)" fill="#daa363"/>
        <ellipse id="Elipse_4261" data-name="Elipse 4261" cx="4.311" cy="4.311" rx="4.311" ry="4.311" transform="translate(477.806 133.093)" fill="#c59191"/>
        <ellipse id="Elipse_5348" data-name="Elipse 5348" cx="4.311" cy="4.311" rx="4.311" ry="4.311" transform="translate(763.205 133.356)" fill="#afafaf"/>
        <path id="Trazado_103791" data-name="Trazado 103791" d="M876.6,1428.275a7.847,7.847,0,0,0-7.813,7.25H741.962a7.835,7.835,0,0,0-15.627,0H599.708a7.835,7.835,0,0,0-15.627,0H456.474a7.835,7.835,0,0,0-15.627,0H314.22a7.838,7.838,0,1,0-.039,1.568H440.887a7.835,7.835,0,0,0,15.548,0H584.12a7.835,7.835,0,0,0,15.548,0H726.374a7.836,7.836,0,0,0,15.549,0h126.9a7.837,7.837,0,1,0,7.774-8.818Zm-570.192,14.108a6.27,6.27,0,1,1,6.271-6.27A6.277,6.277,0,0,1,306.406,1442.383Zm142.255,0a6.27,6.27,0,1,1,6.27-6.27A6.278,6.278,0,0,1,448.661,1442.383Zm143.234,0a6.27,6.27,0,1,1,6.27-6.27A6.277,6.277,0,0,1,591.895,1442.383Zm142.254,0a6.27,6.27,0,1,1,6.27-6.27A6.277,6.277,0,0,1,734.149,1442.383Zm142.45,0a6.27,6.27,0,1,1,6.27-6.27A6.277,6.277,0,0,1,876.6,1442.383Z" transform="translate(-252.032 -1298.709)" fill="#606060"/>
        <ellipse id="Elipse_4262" data-name="Elipse 4262" cx="4.311" cy="4.311" rx="4.311" ry="4.311" transform="translate(620.255 133.093)" fill="#69787d"/>
        <path id="Trazado_159073" data-name="Trazado 159073" d="M876.6,1428.275a7.847,7.847,0,0,0-7.813,7.25H741.962a7.835,7.835,0,0,0-15.627,0H599.708a7.835,7.835,0,0,0-15.627,0H456.474a7.835,7.835,0,0,0-15.627,0H314.22a7.838,7.838,0,1,0-.039,1.568H440.887a7.835,7.835,0,0,0,15.548,0H584.12a7.835,7.835,0,0,0,15.548,0H726.374a7.836,7.836,0,0,0,15.549,0h126.9a7.837,7.837,0,1,0,7.774-8.818Zm-570.192,14.108a6.27,6.27,0,1,1,6.271-6.27A6.277,6.277,0,0,1,306.406,1442.383Zm142.255,0a6.27,6.27,0,1,1,6.27-6.27A6.278,6.278,0,0,1,448.661,1442.383Zm143.234,0a6.27,6.27,0,1,1,6.27-6.27A6.277,6.277,0,0,1,591.895,1442.383Zm142.254,0a6.27,6.27,0,1,1,6.27-6.27A6.277,6.277,0,0,1,734.149,1442.383Zm142.45,0a6.27,6.27,0,1,1,6.27-6.27A6.277,6.277,0,0,1,876.6,1442.383Z" transform="translate(-252.032 -1298.709)" fill="#606060"/>
        <g id="Elipse_5349" data-name="Elipse 5349" transform="translate(760 129.461)" fill="none" stroke="#606060" stroke-width="1.5">
          <ellipse cx="7.5" cy="8" rx="7.5" ry="8" stroke="none"/>
          <ellipse cx="7.5" cy="8" rx="6.75" ry="7.25" fill="none"/>
        </g>
      </g>
    </g>
    <g id="Grupo_71421" data-name="Grupo 71421" transform="translate(1117 975)">
      <path id="Trazado_159032" data-name="Trazado 159032" d="M16.606,851.21l3.313,8.8,3.306-8.8h2.58V862.7H23.817V858.91l.2-5.065L20.622,862.7H19.194l-3.385-8.844.2,5.057V862.7H14.018V851.21Z" transform="translate(-14.018 -850.918)" fill="#86403e"/>
      <path id="Trazado_159033" data-name="Trazado 159033" d="M34.175,859.7a5.023,5.023,0,0,1,.5-2.26,3.628,3.628,0,0,1,1.4-1.547,3.934,3.934,0,0,1,2.067-.541,3.731,3.731,0,0,1,2.805,1.113,4.379,4.379,0,0,1,1.163,2.95l.008.45a5.076,5.076,0,0,1-.486,2.257,3.586,3.586,0,0,1-1.388,1.539,3.968,3.968,0,0,1-2.086.544A3.7,3.7,0,0,1,35.26,863a4.6,4.6,0,0,1-1.085-3.207Zm1.917.166a3.438,3.438,0,0,0,.545,2.063,1.771,1.771,0,0,0,1.515.746,1.749,1.749,0,0,0,1.51-.757A3.8,3.8,0,0,0,40.2,859.7a3.4,3.4,0,0,0-.556-2.051,1.875,1.875,0,0,0-3-.011,3.727,3.727,0,0,0-.552,2.229" transform="translate(-20.574 -852.264)" fill="#86403e"/>
      <path id="Trazado_159034" data-name="Trazado 159034" d="M50.1,855.507l.055.986a3.072,3.072,0,0,1,2.485-1.144q2.666,0,2.714,3.053v5.64H53.441v-5.53a1.761,1.761,0,0,0-.35-1.2,1.478,1.478,0,0,0-1.148-.391,1.847,1.847,0,0,0-1.728,1.049v6.074H48.3v-8.536Z" transform="translate(-25.167 -852.264)" fill="#86403e"/>
      <path id="Trazado_159035" data-name="Trazado 159035" d="M61.662,851.8a1.018,1.018,0,0,1,.28-.734,1.059,1.059,0,0,1,.8-.292,1.072,1.072,0,0,1,.8.292,1.013,1.013,0,0,1,.284.734.987.987,0,0,1-.284.721,1.078,1.078,0,0,1-.8.288,1.065,1.065,0,0,1-.8-.288.992.992,0,0,1-.28-.721M63.7,862.556H61.78V854.02H63.7Z" transform="translate(-29.513 -850.778)" fill="#86403e"/>
      <path id="Trazado_159036" data-name="Trazado 159036" d="M69.729,852.508v2.075h1.507V856H69.729v4.765a1.054,1.054,0,0,0,.193.706.9.9,0,0,0,.691.217,2.959,2.959,0,0,0,.671-.079V863.1a4.735,4.735,0,0,1-1.263.181q-2.21,0-2.209-2.438V856h-1.4v-1.42h1.4v-2.075Z" transform="translate(-31.056 -851.34)" fill="#86403e"/>
      <path id="Trazado_159037" data-name="Trazado 159037" d="M74.849,859.7a5.023,5.023,0,0,1,.5-2.26,3.628,3.628,0,0,1,1.4-1.547,3.934,3.934,0,0,1,2.067-.541,3.731,3.731,0,0,1,2.805,1.113,4.379,4.379,0,0,1,1.163,2.95l.008.45a5.076,5.076,0,0,1-.486,2.257,3.586,3.586,0,0,1-1.388,1.539,3.968,3.968,0,0,1-2.086.544,3.7,3.7,0,0,1-2.891-1.2,4.6,4.6,0,0,1-1.085-3.207Zm1.917.166a3.438,3.438,0,0,0,.545,2.063,1.771,1.771,0,0,0,1.515.746,1.749,1.749,0,0,0,1.51-.757,3.8,3.8,0,0,0,.541-2.217,3.4,3.4,0,0,0-.556-2.051,1.875,1.875,0,0,0-3-.011,3.727,3.727,0,0,0-.552,2.229" transform="translate(-33.801 -852.264)" fill="#86403e"/>
      <path id="Trazado_159038" data-name="Trazado 159038" d="M93.481,857.259a4.774,4.774,0,0,0-.781-.063,1.758,1.758,0,0,0-1.775,1.01v5.838H89.008v-8.537h1.83l.047.955a2.161,2.161,0,0,1,1.925-1.113,1.8,1.8,0,0,1,.679.111Z" transform="translate(-38.406 -852.264)" fill="#86403e"/>
      <path id="Trazado_159039" data-name="Trazado 159039" d="M100.811,864.2a3.966,3.966,0,0,1-2.954-1.148A4.164,4.164,0,0,1,96.724,860v-.237a5.114,5.114,0,0,1,.493-2.284,3.757,3.757,0,0,1,1.384-1.566,3.666,3.666,0,0,1,1.989-.56,3.35,3.35,0,0,1,2.694,1.113,4.7,4.7,0,0,1,.951,3.147v.773H98.657a2.567,2.567,0,0,0,.706,1.673,2.122,2.122,0,0,0,1.559.615,2.6,2.6,0,0,0,2.146-1.065l1.034.987a3.456,3.456,0,0,1-1.369,1.187,4.284,4.284,0,0,1-1.921.422m-.229-7.313a1.615,1.615,0,0,0-1.274.552,2.864,2.864,0,0,0-.619,1.539h3.653v-.142a2.333,2.333,0,0,0-.512-1.456,1.607,1.607,0,0,0-1.247-.493" transform="translate(-40.915 -852.264)" fill="#86403e"/>
      <path id="Trazado_159040" data-name="Trazado 159040" d="M109.526,859.7a5.023,5.023,0,0,1,.5-2.26,3.628,3.628,0,0,1,1.4-1.547,3.934,3.934,0,0,1,2.067-.541,3.731,3.731,0,0,1,2.805,1.113,4.379,4.379,0,0,1,1.163,2.95l.008.45a5.076,5.076,0,0,1-.486,2.257,3.586,3.586,0,0,1-1.388,1.539,3.968,3.968,0,0,1-2.086.544,3.7,3.7,0,0,1-2.891-1.2,4.6,4.6,0,0,1-1.085-3.207Zm1.917.166a3.438,3.438,0,0,0,.545,2.063,1.771,1.771,0,0,0,1.515.746,1.749,1.749,0,0,0,1.51-.757,3.8,3.8,0,0,0,.541-2.217,3.4,3.4,0,0,0-.556-2.051,1.875,1.875,0,0,0-3-.011,3.727,3.727,0,0,0-.552,2.229" transform="translate(-45.078 -852.264)" fill="#86403e"/>
      <path id="Trazado_159041" data-name="Trazado 159041" d="M132.211,861.373l1.736-5.791h2.044l-3.393,9.83a2.757,2.757,0,0,1-2.651,2.154,3.424,3.424,0,0,1-.924-.143v-1.49l.363.024a1.869,1.869,0,0,0,1.093-.264,1.75,1.75,0,0,0,.58-.887l.276-.733-3-8.491H130.4Z" transform="translate(-51.196 -852.34)" fill="#86403e"/>
      <path id="Trazado_159042" data-name="Trazado 159042" d="M23.484,892.934a3.966,3.966,0,0,1-2.954-1.148,4.164,4.164,0,0,1-1.132-3.057v-.237a5.114,5.114,0,0,1,.493-2.284,3.757,3.757,0,0,1,1.384-1.566,3.666,3.666,0,0,1,1.989-.56,3.35,3.35,0,0,1,2.694,1.113,4.7,4.7,0,0,1,.951,3.147v.773H21.33a2.567,2.567,0,0,0,.706,1.673,2.122,2.122,0,0,0,1.559.615,2.6,2.6,0,0,0,2.146-1.065l1.034.987a3.457,3.457,0,0,1-1.369,1.187,4.285,4.285,0,0,1-1.921.422m-.229-7.313a1.615,1.615,0,0,0-1.274.552,2.864,2.864,0,0,0-.619,1.539h3.653v-.142a2.333,2.333,0,0,0-.512-1.456,1.606,1.606,0,0,0-1.247-.493" transform="translate(-15.768 -861.609)" fill="#86403e"/>
      <path id="Trazado_159043" data-name="Trazado 159043" d="M35.2,890.422l1.806-6.106h1.98l-2.958,8.536H34.364l-2.983-8.536h1.988Z" transform="translate(-19.665 -861.685)" fill="#86403e"/>
      <path id="Trazado_159044" data-name="Trazado 159044" d="M49.217,892.776a2.991,2.991,0,0,1-.221-.8,3.224,3.224,0,0,1-4.339.221,2.346,2.346,0,0,1-.813-1.815,2.424,2.424,0,0,1,1.014-2.095,4.913,4.913,0,0,1,2.9-.729h1.175V887a1.494,1.494,0,0,0-.37-1.061,1.468,1.468,0,0,0-1.128-.4,1.688,1.688,0,0,0-1.072.327,1.012,1.012,0,0,0-.418.832H44.026a2.126,2.126,0,0,1,.465-1.313,3.111,3.111,0,0,1,1.267-.959,4.447,4.447,0,0,1,1.787-.347,3.584,3.584,0,0,1,2.391.753,2.688,2.688,0,0,1,.915,2.118v3.85a4.359,4.359,0,0,0,.323,1.838v.134ZM47.111,891.4a2.177,2.177,0,0,0,1.069-.276,1.843,1.843,0,0,0,.753-.742v-1.61H47.9a2.826,2.826,0,0,0-1.6.371,1.2,1.2,0,0,0-.536,1.049,1.122,1.122,0,0,0,.366.88,1.423,1.423,0,0,0,.982.327" transform="translate(-23.718 -861.609)" fill="#86403e"/>
      <rect id="Rectángulo_11861" data-name="Rectángulo 11861" width="1.917" height="12.118" transform="translate(29.262 19.049)" fill="#86403e"/>
      <path id="Trazado_159045" data-name="Trazado 159045" d="M68.466,892.016a2.973,2.973,0,0,1-2.4.994,2.649,2.649,0,0,1-2.1-.812,3.458,3.458,0,0,1-.714-2.351v-5.531h1.917v5.507q0,1.625,1.349,1.625a1.894,1.894,0,0,0,1.885-1v-6.13H70.32v8.536H68.513Z" transform="translate(-30.029 -861.685)" fill="#86403e"/>
      <path id="Trazado_159046" data-name="Trazado 159046" d="M81.591,892.776a2.991,2.991,0,0,1-.221-.8,3.224,3.224,0,0,1-4.339.221,2.346,2.346,0,0,1-.813-1.815,2.424,2.424,0,0,1,1.014-2.095,4.913,4.913,0,0,1,2.9-.729h1.175V887a1.494,1.494,0,0,0-.37-1.061,1.468,1.468,0,0,0-1.128-.4,1.688,1.688,0,0,0-1.072.327,1.012,1.012,0,0,0-.418.832H76.4a2.126,2.126,0,0,1,.465-1.313,3.111,3.111,0,0,1,1.267-.959,4.447,4.447,0,0,1,1.787-.347,3.584,3.584,0,0,1,2.391.753,2.688,2.688,0,0,1,.915,2.118v3.85a4.359,4.359,0,0,0,.323,1.838v.134ZM79.485,891.4a2.177,2.177,0,0,0,1.069-.276,1.843,1.843,0,0,0,.753-.742v-1.61H80.273a2.826,2.826,0,0,0-1.6.371,1.2,1.2,0,0,0-.536,1.049,1.122,1.122,0,0,0,.366.88,1.423,1.423,0,0,0,.982.327" transform="translate(-34.246 -861.609)" fill="#86403e"/>
      <path id="Trazado_159047" data-name="Trazado 159047" d="M92.909,891.4a1.735,1.735,0,0,0,1.192-.418,1.431,1.431,0,0,0,.5-1.033h1.806a2.816,2.816,0,0,1-.5,1.487,3.271,3.271,0,0,1-1.263,1.093,3.767,3.767,0,0,1-1.72.4,3.639,3.639,0,0,1-2.84-1.16,4.6,4.6,0,0,1-1.049-3.2v-.2a4.527,4.527,0,0,1,1.041-3.12,3.609,3.609,0,0,1,2.84-1.171,3.506,3.506,0,0,1,2.481.887,3.178,3.178,0,0,1,1.006,2.331H94.605a1.758,1.758,0,0,0-.5-1.207,1.612,1.612,0,0,0-1.2-.473,1.687,1.687,0,0,0-1.436.675,3.44,3.44,0,0,0-.513,2.047v.308a3.5,3.5,0,0,0,.5,2.072,1.687,1.687,0,0,0,1.448.682" transform="translate(-38.417 -861.609)" fill="#86403e"/>
      <path id="Trazado_159048" data-name="Trazado 159048" d="M102.115,880.537a1.017,1.017,0,0,1,.28-.734,1.059,1.059,0,0,1,.8-.292,1.072,1.072,0,0,1,.8.292,1.012,1.012,0,0,1,.284.734.987.987,0,0,1-.284.721,1.078,1.078,0,0,1-.8.288,1.065,1.065,0,0,1-.8-.288.992.992,0,0,1-.28-.721m2.035,10.753h-1.917v-8.536h1.917Z" transform="translate(-42.668 -860.122)" fill="#86403e"/>
      <path id="Trazado_159049" data-name="Trazado 159049" d="M107.692,886.779a5.031,5.031,0,0,1,.5-2.26,3.628,3.628,0,0,1,1.4-1.547,3.936,3.936,0,0,1,2.068-.54,3.728,3.728,0,0,1,2.8,1.113,4.374,4.374,0,0,1,1.164,2.95l.007.45a5.079,5.079,0,0,1-.485,2.256,3.585,3.585,0,0,1-1.389,1.539,3.963,3.963,0,0,1-2.086.545,3.7,3.7,0,0,1-2.891-1.2,4.608,4.608,0,0,1-1.084-3.207Zm1.916.166a3.44,3.44,0,0,0,.545,2.063,1.771,1.771,0,0,0,1.515.746,1.752,1.752,0,0,0,1.511-.758,3.8,3.8,0,0,0,.54-2.217,3.4,3.4,0,0,0-.556-2.051,1.875,1.875,0,0,0-3-.012,3.728,3.728,0,0,0-.553,2.229m2.572-7.937h2.185l-2.185,2.39-1.539,0Z" transform="translate(-44.482 -859.958)" fill="#86403e"/>
      <path id="Trazado_159050" data-name="Trazado 159050" d="M123.621,884.24l.055.986a3.072,3.072,0,0,1,2.485-1.144q2.666,0,2.714,3.053v5.641h-1.918v-5.53a1.761,1.761,0,0,0-.35-1.2,1.478,1.478,0,0,0-1.148-.391,1.847,1.847,0,0,0-1.728,1.049v6.074h-1.917V884.24Z" transform="translate(-49.075 -861.609)" fill="#86403e"/>
    </g>
    <g id="Grupo_71418" data-name="Grupo 71418" transform="translate(686 975)">
      <path id="Trazado_159002" data-name="Trazado 159002" d="M17.54,332.347H12.917v4.868h-2V325.728h7.3v1.609h-5.3v3.416H17.54Z" transform="translate(-10.92 -325.097)" fill="#bf403b"/>
      <path id="Trazado_159003" data-name="Trazado 159003" d="M23.021,334.214a5.022,5.022,0,0,1,.5-2.26,3.628,3.628,0,0,1,1.4-1.547,3.934,3.934,0,0,1,2.067-.54,3.731,3.731,0,0,1,2.805,1.113,4.379,4.379,0,0,1,1.163,2.95l.008.45a5.075,5.075,0,0,1-.486,2.256,3.586,3.586,0,0,1-1.388,1.539,3.968,3.968,0,0,1-2.086.544,3.7,3.7,0,0,1-2.891-1.2,4.6,4.6,0,0,1-1.085-3.207Zm1.917.166a3.438,3.438,0,0,0,.545,2.063,1.771,1.771,0,0,0,1.515.746,1.749,1.749,0,0,0,1.51-.757,3.8,3.8,0,0,0,.541-2.217,3.4,3.4,0,0,0-.556-2.051,1.875,1.875,0,0,0-3-.012,3.727,3.727,0,0,0-.552,2.229" transform="translate(-14.856 -326.443)" fill="#bf403b"/>
      <path id="Trazado_159004" data-name="Trazado 159004" d="M41.654,331.776a4.77,4.77,0,0,0-.781-.063,1.758,1.758,0,0,0-1.775,1.01v5.838H37.181v-8.537h1.83l.047.955a2.161,2.161,0,0,1,1.925-1.113,1.8,1.8,0,0,1,.679.111Z" transform="translate(-19.461 -326.443)" fill="#bf403b"/>
      <path id="Trazado_159005" data-name="Trazado 159005" d="M47.4,330.024l.055.891a3.074,3.074,0,0,1,2.461-1.049,2.361,2.361,0,0,1,2.344,1.31,3.03,3.03,0,0,1,2.62-1.31,2.659,2.659,0,0,1,2.1.781,3.435,3.435,0,0,1,.707,2.3v5.609H55.775v-5.554a1.7,1.7,0,0,0-.355-1.191,1.555,1.555,0,0,0-1.175-.379,1.6,1.6,0,0,0-1.069.351,1.851,1.851,0,0,0-.58.919l.008,5.854H50.687v-5.617a1.368,1.368,0,0,0-1.539-1.507,1.688,1.688,0,0,0-1.633.939v6.185H45.6v-8.536Z" transform="translate(-22.198 -326.443)" fill="#bf403b"/>
      <path id="Trazado_159006" data-name="Trazado 159006" d="M71.589,337.8a2.974,2.974,0,0,1-2.4.994,2.649,2.649,0,0,1-2.1-.812,3.458,3.458,0,0,1-.714-2.351V330.1h1.917v5.507q0,1.625,1.349,1.625a1.894,1.894,0,0,0,1.885-1V330.1h1.918v8.536H71.636Z" transform="translate(-28.954 -326.519)" fill="#bf403b"/>
      <rect id="Rectángulo_11860" data-name="Rectángulo 11860" width="1.917" height="12.118" transform="translate(46.563 0)" fill="#bf403b"/>
      <path id="Trazado_159007" data-name="Trazado 159007" d="M90.827,338.561a2.991,2.991,0,0,1-.221-.8,3.224,3.224,0,0,1-4.339.221,2.346,2.346,0,0,1-.813-1.814,2.424,2.424,0,0,1,1.014-2.095,4.913,4.913,0,0,1,2.9-.729h1.175v-.56a1.494,1.494,0,0,0-.37-1.061,1.468,1.468,0,0,0-1.128-.4,1.688,1.688,0,0,0-1.072.327,1.012,1.012,0,0,0-.418.832H85.636a2.126,2.126,0,0,1,.465-1.313,3.11,3.11,0,0,1,1.267-.959,4.446,4.446,0,0,1,1.787-.347,3.584,3.584,0,0,1,2.391.753,2.688,2.688,0,0,1,.915,2.118v3.85a4.359,4.359,0,0,0,.323,1.838v.134Zm-2.106-1.381a2.177,2.177,0,0,0,1.069-.276,1.842,1.842,0,0,0,.753-.742v-1.61H89.509a2.826,2.826,0,0,0-1.6.371,1.2,1.2,0,0,0-.536,1.049,1.122,1.122,0,0,0,.366.88,1.423,1.423,0,0,0,.982.327" transform="translate(-35.159 -326.443)" fill="#bf403b"/>
      <path id="Trazado_159008" data-name="Trazado 159008" d="M102.146,337.189a1.735,1.735,0,0,0,1.192-.418,1.431,1.431,0,0,0,.5-1.033h1.806a2.816,2.816,0,0,1-.5,1.487,3.271,3.271,0,0,1-1.263,1.093,3.766,3.766,0,0,1-1.72.4,3.639,3.639,0,0,1-2.84-1.16,4.6,4.6,0,0,1-1.049-3.2v-.2a4.527,4.527,0,0,1,1.041-3.12,3.609,3.609,0,0,1,2.84-1.171,3.506,3.506,0,0,1,2.481.887,3.178,3.178,0,0,1,1.006,2.331h-1.806a1.758,1.758,0,0,0-.5-1.207,1.612,1.612,0,0,0-1.2-.473,1.686,1.686,0,0,0-1.436.675,3.44,3.44,0,0,0-.513,2.047v.308a3.5,3.5,0,0,0,.5,2.072,1.687,1.687,0,0,0,1.448.682" transform="translate(-39.331 -326.443)" fill="#bf403b"/>
      <path id="Trazado_159009" data-name="Trazado 159009" d="M111.352,326.321a1.013,1.013,0,0,1,.28-.734,1.057,1.057,0,0,1,.8-.292,1.074,1.074,0,0,1,.805.292,1.011,1.011,0,0,1,.283.734.988.988,0,0,1-.283.722,1.08,1.08,0,0,1-.805.288,1.062,1.062,0,0,1-.8-.288.991.991,0,0,1-.28-.722m2.035,10.753h-1.917v-8.536h1.917Z" transform="translate(-43.582 -324.956)" fill="#bf403b"/>
      <path id="Trazado_159010" data-name="Trazado 159010" d="M116.928,332.564a5.031,5.031,0,0,1,.5-2.26,3.628,3.628,0,0,1,1.4-1.547,3.936,3.936,0,0,1,2.068-.541,3.728,3.728,0,0,1,2.8,1.113,4.374,4.374,0,0,1,1.164,2.95l.007.45a5.079,5.079,0,0,1-.485,2.256,3.585,3.585,0,0,1-1.389,1.539,3.962,3.962,0,0,1-2.086.545,3.7,3.7,0,0,1-2.891-1.2,4.608,4.608,0,0,1-1.084-3.207Zm1.916.166a3.44,3.44,0,0,0,.545,2.063,1.771,1.771,0,0,0,1.515.746,1.752,1.752,0,0,0,1.511-.758,3.8,3.8,0,0,0,.54-2.217,3.4,3.4,0,0,0-.556-2.051,1.875,1.875,0,0,0-3-.012,3.728,3.728,0,0,0-.553,2.23m2.572-7.937H123.6l-2.185,2.39-1.539,0Z" transform="translate(-45.395 -324.793)" fill="#bf403b"/>
      <path id="Trazado_159011" data-name="Trazado 159011" d="M132.858,330.024l.055.986a3.072,3.072,0,0,1,2.485-1.144q2.666,0,2.714,3.053v5.641h-1.918v-5.53a1.761,1.761,0,0,0-.35-1.2,1.477,1.477,0,0,0-1.148-.391,1.847,1.847,0,0,0-1.728,1.049v6.074h-1.917v-8.536Z" transform="translate(-49.988 -326.443)" fill="#bf403b"/>
    </g>
    <g id="Grupo_71419" data-name="Grupo 71419" transform="translate(828.545 975)">
      <path id="Trazado_159012" data-name="Trazado 159012" d="M19.787,520.983h-2l-5.12-8.149v8.149h-2V509.5h2l5.136,8.181V509.5h1.981Z" transform="translate(-10.675 -508.865)" fill="#86403e"/>
      <path id="Trazado_159013" data-name="Trazado 159013" d="M31,522.487a3.965,3.965,0,0,1-2.954-1.148,4.164,4.164,0,0,1-1.132-3.057v-.237a5.114,5.114,0,0,1,.493-2.283,3.756,3.756,0,0,1,1.384-1.566,3.666,3.666,0,0,1,1.989-.56,3.35,3.35,0,0,1,2.694,1.113,4.7,4.7,0,0,1,.951,3.147v.773H28.847a2.567,2.567,0,0,0,.706,1.673,2.122,2.122,0,0,0,1.559.615,2.6,2.6,0,0,0,2.146-1.065l1.034.987a3.455,3.455,0,0,1-1.369,1.187,4.284,4.284,0,0,1-1.921.422m-.229-7.313a1.615,1.615,0,0,0-1.274.552,2.863,2.863,0,0,0-.619,1.538h3.653v-.142a2.333,2.333,0,0,0-.512-1.456,1.606,1.606,0,0,0-1.247-.493" transform="translate(-15.956 -510.211)" fill="#86403e"/>
      <path id="Trazado_159014" data-name="Trazado 159014" d="M39.752,518a5,5,0,0,1,.935-3.176,3,3,0,0,1,2.481-1.188,2.814,2.814,0,0,1,2.3,1.018l.086-.86h1.727v8.276a3.439,3.439,0,0,1-1.045,2.651,3.98,3.98,0,0,1-2.82.97,4.547,4.547,0,0,1-1.835-.391,3.258,3.258,0,0,1-1.361-1.022l.908-1.152a2.739,2.739,0,0,0,2.178,1.049,2.119,2.119,0,0,0,1.507-.516,1.983,1.983,0,0,0,.552-1.519v-.576a2.822,2.822,0,0,1-2.209.923A3,3,0,0,1,40.7,521.3a5.155,5.155,0,0,1-.95-3.3m1.909.165a3.437,3.437,0,0,0,.524,2.024,1.688,1.688,0,0,0,1.456.738,1.845,1.845,0,0,0,1.719-.994v-3.755a1.818,1.818,0,0,0-1.7-.97,1.694,1.694,0,0,0-1.472.75,3.848,3.848,0,0,0-.524,2.209" transform="translate(-20.131 -510.211)" fill="#86403e"/>
      <path id="Trazado_159015" data-name="Trazado 159015" d="M53.29,517.982a5.022,5.022,0,0,1,.5-2.26,3.628,3.628,0,0,1,1.4-1.547,3.934,3.934,0,0,1,2.067-.54,3.731,3.731,0,0,1,2.805,1.113,4.379,4.379,0,0,1,1.163,2.95l.008.45a5.075,5.075,0,0,1-.486,2.257,3.586,3.586,0,0,1-1.388,1.539,3.968,3.968,0,0,1-2.086.544,3.7,3.7,0,0,1-2.891-1.2,4.6,4.6,0,0,1-1.085-3.207Zm1.917.166a3.438,3.438,0,0,0,.545,2.063,1.771,1.771,0,0,0,1.515.746,1.749,1.749,0,0,0,1.51-.757,3.8,3.8,0,0,0,.541-2.217,3.4,3.4,0,0,0-.556-2.051,1.875,1.875,0,0,0-3-.011,3.727,3.727,0,0,0-.552,2.229" transform="translate(-24.534 -510.211)" fill="#86403e"/>
      <path id="Trazado_159016" data-name="Trazado 159016" d="M70.788,520.956a1.735,1.735,0,0,0,1.192-.418,1.431,1.431,0,0,0,.5-1.033h1.806a2.817,2.817,0,0,1-.5,1.487,3.272,3.272,0,0,1-1.263,1.093,3.766,3.766,0,0,1-1.72.4,3.639,3.639,0,0,1-2.84-1.16,4.6,4.6,0,0,1-1.049-3.2v-.2a4.527,4.527,0,0,1,1.041-3.12,3.609,3.609,0,0,1,2.84-1.171,3.506,3.506,0,0,1,2.481.887,3.178,3.178,0,0,1,1.006,2.331H72.484a1.758,1.758,0,0,0-.5-1.207,1.612,1.612,0,0,0-1.2-.473,1.686,1.686,0,0,0-1.436.675,3.44,3.44,0,0,0-.513,2.047v.308a3.5,3.5,0,0,0,.5,2.072,1.687,1.687,0,0,0,1.448.682" transform="translate(-28.967 -510.211)" fill="#86403e"/>
      <path id="Trazado_159017" data-name="Trazado 159017" d="M79.994,510.09a1.018,1.018,0,0,1,.28-.734,1.059,1.059,0,0,1,.8-.292,1.072,1.072,0,0,1,.8.292,1.013,1.013,0,0,1,.284.734.988.988,0,0,1-.284.722,1.081,1.081,0,0,1-.8.287,1.067,1.067,0,0,1-.8-.287.993.993,0,0,1-.28-.722m2.035,10.753H80.112v-8.536h1.917Z" transform="translate(-33.218 -508.724)" fill="#86403e"/>
      <path id="Trazado_159018" data-name="Trazado 159018" d="M91.071,522.329a2.991,2.991,0,0,1-.221-.8,3.224,3.224,0,0,1-4.339.221,2.346,2.346,0,0,1-.813-1.815,2.424,2.424,0,0,1,1.014-2.094,4.912,4.912,0,0,1,2.9-.729h1.175v-.56a1.494,1.494,0,0,0-.37-1.061,1.468,1.468,0,0,0-1.128-.4,1.688,1.688,0,0,0-1.072.327,1.012,1.012,0,0,0-.418.832H85.88a2.127,2.127,0,0,1,.465-1.313,3.111,3.111,0,0,1,1.267-.959,4.448,4.448,0,0,1,1.787-.347,3.584,3.584,0,0,1,2.391.753,2.688,2.688,0,0,1,.915,2.118v3.85a4.358,4.358,0,0,0,.323,1.838v.134Zm-2.106-1.381a2.178,2.178,0,0,0,1.069-.276,1.843,1.843,0,0,0,.753-.742v-1.61H89.753a2.825,2.825,0,0,0-1.6.371,1.2,1.2,0,0,0-.536,1.049,1.122,1.122,0,0,0,.366.88,1.423,1.423,0,0,0,.982.327" transform="translate(-35.073 -510.211)" fill="#86403e"/>
      <path id="Trazado_159019" data-name="Trazado 159019" d="M102.39,520.956a1.735,1.735,0,0,0,1.192-.418,1.43,1.43,0,0,0,.5-1.033h1.806a2.817,2.817,0,0,1-.5,1.487,3.272,3.272,0,0,1-1.263,1.093,3.766,3.766,0,0,1-1.72.4,3.639,3.639,0,0,1-2.84-1.16,4.6,4.6,0,0,1-1.049-3.2v-.2a4.527,4.527,0,0,1,1.041-3.12,3.609,3.609,0,0,1,2.84-1.171,3.506,3.506,0,0,1,2.481.887,3.178,3.178,0,0,1,1.006,2.331h-1.806a1.758,1.758,0,0,0-.5-1.207,1.612,1.612,0,0,0-1.2-.473,1.686,1.686,0,0,0-1.436.675,3.44,3.44,0,0,0-.513,2.047v.308a3.5,3.5,0,0,0,.5,2.072,1.687,1.687,0,0,0,1.448.682" transform="translate(-39.244 -510.211)" fill="#86403e"/>
      <path id="Trazado_159020" data-name="Trazado 159020" d="M111.6,510.09a1.015,1.015,0,0,1,.28-.734,1.057,1.057,0,0,1,.8-.292,1.074,1.074,0,0,1,.805.292,1.013,1.013,0,0,1,.284.734.988.988,0,0,1-.284.722,1.082,1.082,0,0,1-.805.287,1.066,1.066,0,0,1-.8-.287.991.991,0,0,1-.28-.722m2.034,10.753h-1.917v-8.536h1.917Z" transform="translate(-43.496 -508.724)" fill="#86403e"/>
      <path id="Trazado_159021" data-name="Trazado 159021" d="M117.173,516.332a5.031,5.031,0,0,1,.5-2.26,3.628,3.628,0,0,1,1.4-1.547,3.936,3.936,0,0,1,2.068-.54,3.728,3.728,0,0,1,2.8,1.113,4.374,4.374,0,0,1,1.164,2.95l.007.45a5.079,5.079,0,0,1-.485,2.256,3.584,3.584,0,0,1-1.389,1.539,3.962,3.962,0,0,1-2.086.545,3.7,3.7,0,0,1-2.891-1.2,4.608,4.608,0,0,1-1.084-3.207Zm1.916.166a3.439,3.439,0,0,0,.545,2.063,1.771,1.771,0,0,0,1.515.746,1.752,1.752,0,0,0,1.511-.758,3.8,3.8,0,0,0,.54-2.217,3.4,3.4,0,0,0-.556-2.051,1.875,1.875,0,0,0-3-.012,3.728,3.728,0,0,0-.553,2.23m2.572-7.937h2.185l-2.185,2.39-1.539,0Z" transform="translate(-45.309 -508.56)" fill="#86403e"/>
      <path id="Trazado_159022" data-name="Trazado 159022" d="M133.1,513.793l.055.986a3.072,3.072,0,0,1,2.485-1.144q2.666,0,2.714,3.053v5.641h-1.918V516.8a1.761,1.761,0,0,0-.35-1.2,1.477,1.477,0,0,0-1.148-.391,1.847,1.847,0,0,0-1.728,1.049v6.074H131.3v-8.536Z" transform="translate(-49.902 -510.211)" fill="#86403e"/>
    </g>
    <g id="Grupo_71420" data-name="Grupo 71420" transform="translate(979 975.001)">
      <path id="Trazado_159023" data-name="Trazado 159023" d="M32.605,700.728H27.888v3.535H33.4v1.594h-7.51V694.369h7.456v1.609h-5.46v3.172h4.717Z" transform="translate(-25.892 -693.738)" fill="#bf403b"/>
      <path id="Trazado_159024" data-name="Trazado 159024" d="M40.4,697.178v9.294a2.809,2.809,0,0,1-.651,2,2.5,2.5,0,0,1-1.906.69,3.815,3.815,0,0,1-1.018-.134v-1.515a2.964,2.964,0,0,0,.679.072q.953,0,.978-1.042v-9.365Zm-2.082-2.217a1.015,1.015,0,0,1,.28-.733,1.058,1.058,0,0,1,.8-.292,1.071,1.071,0,0,1,.8.292,1.01,1.01,0,0,1,.284.733.988.988,0,0,1-.284.722,1.08,1.08,0,0,1-.8.288,1.066,1.066,0,0,1-.8-.288.993.993,0,0,1-.28-.722" transform="translate(-29.447 -693.597)" fill="#bf403b"/>
      <path id="Trazado_159025" data-name="Trazado 159025" d="M48.755,707.36a3.966,3.966,0,0,1-2.954-1.148,4.164,4.164,0,0,1-1.132-3.058v-.237a5.115,5.115,0,0,1,.493-2.284,3.757,3.757,0,0,1,1.384-1.566,3.665,3.665,0,0,1,1.989-.56,3.35,3.35,0,0,1,2.694,1.113,4.7,4.7,0,0,1,.951,3.147v.773H46.6a2.567,2.567,0,0,0,.706,1.673,2.122,2.122,0,0,0,1.559.615,2.6,2.6,0,0,0,2.146-1.065l1.034.987a3.458,3.458,0,0,1-1.369,1.187,4.286,4.286,0,0,1-1.921.422m-.229-7.313a1.615,1.615,0,0,0-1.274.552,2.864,2.864,0,0,0-.619,1.539h3.653V702a2.332,2.332,0,0,0-.512-1.456,1.606,1.606,0,0,0-1.247-.493" transform="translate(-31.998 -695.084)" fill="#bf403b"/>
      <path id="Trazado_159026" data-name="Trazado 159026" d="M61.336,705.829a1.736,1.736,0,0,0,1.192-.418,1.431,1.431,0,0,0,.5-1.033h1.806a2.816,2.816,0,0,1-.5,1.487,3.271,3.271,0,0,1-1.263,1.093,3.766,3.766,0,0,1-1.72.4,3.638,3.638,0,0,1-2.84-1.16A4.6,4.6,0,0,1,57.47,703v-.2a4.527,4.527,0,0,1,1.041-3.12,3.608,3.608,0,0,1,2.84-1.171,3.506,3.506,0,0,1,2.481.887,3.178,3.178,0,0,1,1.006,2.331H63.032a1.758,1.758,0,0,0-.5-1.207,1.612,1.612,0,0,0-1.2-.473,1.686,1.686,0,0,0-1.436.675,3.44,3.44,0,0,0-.513,2.047v.308a3.5,3.5,0,0,0,.5,2.072,1.687,1.687,0,0,0,1.448.682" transform="translate(-36.161 -695.084)" fill="#bf403b"/>
      <path id="Trazado_159027" data-name="Trazado 159027" d="M75.686,706.442a2.973,2.973,0,0,1-2.4.994,2.649,2.649,0,0,1-2.1-.812,3.458,3.458,0,0,1-.714-2.351v-5.531h1.917v5.507q0,1.625,1.349,1.625a1.894,1.894,0,0,0,1.885-1v-6.13H77.54v8.536H75.733Z" transform="translate(-40.389 -695.16)" fill="#bf403b"/>
      <path id="Trazado_159028" data-name="Trazado 159028" d="M87.174,705.829a1.736,1.736,0,0,0,1.192-.418,1.431,1.431,0,0,0,.5-1.033h1.806a2.816,2.816,0,0,1-.5,1.487,3.271,3.271,0,0,1-1.263,1.093,3.766,3.766,0,0,1-1.72.4,3.638,3.638,0,0,1-2.84-1.16,4.6,4.6,0,0,1-1.049-3.2v-.2a4.527,4.527,0,0,1,1.041-3.12,3.608,3.608,0,0,1,2.84-1.171,3.506,3.506,0,0,1,2.481.887,3.179,3.179,0,0,1,1.006,2.331H88.87a1.758,1.758,0,0,0-.5-1.207,1.612,1.612,0,0,0-1.2-.473,1.686,1.686,0,0,0-1.436.675,3.44,3.44,0,0,0-.513,2.047v.308a3.5,3.5,0,0,0,.5,2.072,1.687,1.687,0,0,0,1.448.682" transform="translate(-44.564 -695.084)" fill="#bf403b"/>
      <path id="Trazado_159029" data-name="Trazado 159029" d="M96.38,694.962a1.017,1.017,0,0,1,.28-.733,1.057,1.057,0,0,1,.8-.292,1.073,1.073,0,0,1,.805.292,1.012,1.012,0,0,1,.284.733.987.987,0,0,1-.284.722,1.079,1.079,0,0,1-.805.288,1.063,1.063,0,0,1-.8-.288.992.992,0,0,1-.28-.722m2.035,10.753H96.5v-8.536h1.917Z" transform="translate(-48.815 -693.597)" fill="#bf403b"/>
      <path id="Trazado_159030" data-name="Trazado 159030" d="M101.957,701.2a5.031,5.031,0,0,1,.5-2.26,3.628,3.628,0,0,1,1.4-1.547,3.936,3.936,0,0,1,2.068-.541,3.728,3.728,0,0,1,2.8,1.113,4.374,4.374,0,0,1,1.164,2.95l.007.45a5.079,5.079,0,0,1-.485,2.256,3.583,3.583,0,0,1-1.389,1.538,3.962,3.962,0,0,1-2.086.545,3.7,3.7,0,0,1-2.891-1.2,4.608,4.608,0,0,1-1.084-3.207Zm1.916.166a3.439,3.439,0,0,0,.545,2.063,1.771,1.771,0,0,0,1.515.746,1.752,1.752,0,0,0,1.511-.758,3.8,3.8,0,0,0,.54-2.217,3.4,3.4,0,0,0-.556-2.051,1.875,1.875,0,0,0-3-.012,3.727,3.727,0,0,0-.553,2.229m2.572-7.937h2.185l-2.185,2.39-1.539,0Z" transform="translate(-50.629 -693.434)" fill="#bf403b"/>
      <path id="Trazado_159031" data-name="Trazado 159031" d="M117.886,698.666l.055.986a3.072,3.072,0,0,1,2.485-1.144q2.666,0,2.714,3.053V707.2h-1.918v-5.53a1.761,1.761,0,0,0-.35-1.2,1.478,1.478,0,0,0-1.148-.391A1.847,1.847,0,0,0,118,701.128V707.2H116.08v-8.536Z" transform="translate(-55.222 -695.084)" fill="#bf403b"/>
    </g>
    <g id="Grupo_71416" data-name="Grupo 71416" transform="translate(395 975)">
      <rect id="Rectángulo_11859" data-name="Rectángulo 11859" width="1.988" height="11.487" transform="translate(0 0.797)" fill="#bf403b"/>
      <path id="Trazado_158989" data-name="Trazado 158989" d="M10.651,8.033a5.07,5.07,0,0,1,.916-3.167,2.931,2.931,0,0,1,2.453-1.2,2.786,2.786,0,0,1,2.193.947V.246H18.13V12.364H16.394l-.094-.883A2.825,2.825,0,0,1,14,12.522a2.913,2.913,0,0,1-2.426-1.207,5.258,5.258,0,0,1-.927-3.282m1.917.165a3.554,3.554,0,0,0,.5,2.032,1.625,1.625,0,0,0,1.424.729A1.81,1.81,0,0,0,16.213,9.91V6.266a1.783,1.783,0,0,0-1.7-1.026,1.637,1.637,0,0,0-1.436.738,3.957,3.957,0,0,0-.5,2.221" transform="translate(-6.753 -0.08)" fill="#bf403b"/>
      <path id="Trazado_158990" data-name="Trazado 158990" d="M28.3,14.172a3.966,3.966,0,0,1-2.954-1.148,4.164,4.164,0,0,1-1.132-3.057V9.73a5.114,5.114,0,0,1,.493-2.283A3.756,3.756,0,0,1,26.091,5.88a3.665,3.665,0,0,1,1.989-.56,3.35,3.35,0,0,1,2.694,1.113,4.7,4.7,0,0,1,.951,3.147v.773H26.147a2.567,2.567,0,0,0,.706,1.673,2.122,2.122,0,0,0,1.559.615,2.6,2.6,0,0,0,2.146-1.065l1.034.987a3.457,3.457,0,0,1-1.369,1.187,4.285,4.285,0,0,1-1.921.422m-.229-7.313a1.615,1.615,0,0,0-1.274.552,2.864,2.864,0,0,0-.619,1.539h3.653V8.807a2.333,2.333,0,0,0-.512-1.456,1.606,1.606,0,0,0-1.247-.493" transform="translate(-11.164 -1.73)" fill="#bf403b"/>
      <path id="Trazado_158991" data-name="Trazado 158991" d="M39.313,5.478l.055.986A3.072,3.072,0,0,1,41.854,5.32q2.666,0,2.714,3.053v5.641H42.65V8.484a1.761,1.761,0,0,0-.35-1.2,1.478,1.478,0,0,0-1.148-.391A1.847,1.847,0,0,0,39.424,7.94v6.074H37.507V5.478Z" transform="translate(-15.487 -1.73)" fill="#bf403b"/>
      <path id="Trazado_158992" data-name="Trazado 158992" d="M52.823,2.479V4.554H54.33v1.42H52.823v4.765a1.054,1.054,0,0,0,.193.707.9.9,0,0,0,.691.217,2.958,2.958,0,0,0,.671-.079v1.483a4.736,4.736,0,0,1-1.263.182q-2.21,0-2.209-2.438V5.974H49.5V4.554h1.4V2.479Z" transform="translate(-19.388 -0.806)" fill="#bf403b"/>
      <path id="Trazado_158993" data-name="Trazado 158993" d="M58.832,1.774a1.017,1.017,0,0,1,.28-.733,1.058,1.058,0,0,1,.8-.292,1.072,1.072,0,0,1,.8.292A1.012,1.012,0,0,1,61,1.774a.987.987,0,0,1-.284.722,1.078,1.078,0,0,1-.8.288,1.064,1.064,0,0,1-.8-.288.992.992,0,0,1-.28-.722m2.035,10.753H58.95V3.991h1.917Z" transform="translate(-22.422 -0.243)" fill="#bf403b"/>
      <path id="Trazado_158994" data-name="Trazado 158994" d="M65.313,12.284V5.168h-1.3V3.748h1.3V2.966A2.934,2.934,0,0,1,66.1.773,3.022,3.022,0,0,1,68.311,0a4.445,4.445,0,0,1,1.073.142l-.047,1.5a3.8,3.8,0,0,0-.733-.063A1.231,1.231,0,0,0,67.23,2.991v.757h1.736v1.42H67.23v7.116Z" transform="translate(-24.107 0)" fill="#bf403b"/>
      <path id="Trazado_158995" data-name="Trazado 158995" d="M73.435,1.774a1.015,1.015,0,0,1,.28-.733,1.057,1.057,0,0,1,.8-.292,1.074,1.074,0,0,1,.805.292,1.012,1.012,0,0,1,.283.733.987.987,0,0,1-.283.722,1.08,1.08,0,0,1-.805.288,1.062,1.062,0,0,1-.8-.288.99.99,0,0,1-.28-.722m2.034,10.753H73.552V3.991h1.917Z" transform="translate(-27.171 -0.243)" fill="#bf403b"/>
      <path id="Trazado_158996" data-name="Trazado 158996" d="M82.877,12.641a1.736,1.736,0,0,0,1.192-.418,1.431,1.431,0,0,0,.5-1.033H86.38a2.816,2.816,0,0,1-.5,1.487,3.271,3.271,0,0,1-1.263,1.093,3.766,3.766,0,0,1-1.72.4,3.639,3.639,0,0,1-2.84-1.16,4.6,4.6,0,0,1-1.049-3.2v-.2a4.527,4.527,0,0,1,1.041-3.12,3.609,3.609,0,0,1,2.84-1.171,3.506,3.506,0,0,1,2.481.887A3.178,3.178,0,0,1,86.38,8.539H84.573a1.758,1.758,0,0,0-.5-1.207,1.612,1.612,0,0,0-1.2-.473,1.686,1.686,0,0,0-1.436.675,3.44,3.44,0,0,0-.513,2.047v.308a3.5,3.5,0,0,0,.5,2.072,1.687,1.687,0,0,0,1.448.682" transform="translate(-28.985 -1.73)" fill="#bf403b"/>
      <path id="Trazado_158997" data-name="Trazado 158997" d="M97.046,14.014a2.991,2.991,0,0,1-.221-.8,3.224,3.224,0,0,1-4.339.221,2.346,2.346,0,0,1-.813-1.815,2.424,2.424,0,0,1,1.014-2.095,4.913,4.913,0,0,1,2.9-.729h1.175v-.56a1.494,1.494,0,0,0-.37-1.061,1.468,1.468,0,0,0-1.128-.4,1.688,1.688,0,0,0-1.072.327,1.012,1.012,0,0,0-.418.832H91.855a2.126,2.126,0,0,1,.465-1.313,3.11,3.11,0,0,1,1.267-.959,4.447,4.447,0,0,1,1.787-.347,3.584,3.584,0,0,1,2.391.753,2.688,2.688,0,0,1,.915,2.118v3.85A4.358,4.358,0,0,0,99,13.88v.134ZM94.94,12.633a2.177,2.177,0,0,0,1.069-.276,1.842,1.842,0,0,0,.753-.742v-1.61H95.728a2.825,2.825,0,0,0-1.6.371,1.2,1.2,0,0,0-.536,1.049,1.122,1.122,0,0,0,.366.88,1.423,1.423,0,0,0,.982.327" transform="translate(-33.103 -1.73)" fill="#bf403b"/>
      <path id="Trazado_158998" data-name="Trazado 158998" d="M108.365,12.641a1.734,1.734,0,0,0,1.191-.418,1.434,1.434,0,0,0,.505-1.033h1.806a2.816,2.816,0,0,1-.5,1.487,3.274,3.274,0,0,1-1.262,1.093,3.771,3.771,0,0,1-1.721.4,3.64,3.64,0,0,1-2.84-1.16,4.6,4.6,0,0,1-1.049-3.2v-.2a4.527,4.527,0,0,1,1.041-3.12,3.609,3.609,0,0,1,2.84-1.171,3.506,3.506,0,0,1,2.481.887,3.178,3.178,0,0,1,1.006,2.331h-1.806a1.762,1.762,0,0,0-.5-1.207,1.612,1.612,0,0,0-1.194-.473,1.687,1.687,0,0,0-1.437.675,3.435,3.435,0,0,0-.512,2.047v.308a3.5,3.5,0,0,0,.5,2.072,1.687,1.687,0,0,0,1.449.682" transform="translate(-37.273 -1.73)" fill="#bf403b"/>
      <path id="Trazado_158999" data-name="Trazado 158999" d="M117.57,1.774a1.017,1.017,0,0,1,.28-.733,1.059,1.059,0,0,1,.8-.292,1.071,1.071,0,0,1,.8.292,1.009,1.009,0,0,1,.284.733.985.985,0,0,1-.284.722,1.077,1.077,0,0,1-.8.288,1.065,1.065,0,0,1-.8-.288.992.992,0,0,1-.28-.722m2.035,10.753h-1.917V3.991h1.917Z" transform="translate(-41.524 -0.243)" fill="#bf403b"/>
      <path id="Trazado_159000" data-name="Trazado 159000" d="M123.147,8.017a5.031,5.031,0,0,1,.5-2.26,3.628,3.628,0,0,1,1.4-1.547,3.936,3.936,0,0,1,2.068-.541,3.728,3.728,0,0,1,2.8,1.113,4.374,4.374,0,0,1,1.164,2.95l.007.45a5.079,5.079,0,0,1-.485,2.256,3.584,3.584,0,0,1-1.389,1.539,3.962,3.962,0,0,1-2.086.545,3.7,3.7,0,0,1-2.891-1.2,4.608,4.608,0,0,1-1.084-3.207Zm1.916.166a3.439,3.439,0,0,0,.545,2.063,1.771,1.771,0,0,0,1.515.746,1.752,1.752,0,0,0,1.511-.758,3.8,3.8,0,0,0,.54-2.217,3.4,3.4,0,0,0-.556-2.051,1.875,1.875,0,0,0-3-.012,3.728,3.728,0,0,0-.553,2.23M127.636.246h2.185l-2.185,2.39-1.538,0Z" transform="translate(-43.338 -0.08)" fill="#bf403b"/>
      <path id="Trazado_159001" data-name="Trazado 159001" d="M139.076,5.478l.055.986a3.072,3.072,0,0,1,2.485-1.144q2.666,0,2.714,3.053v5.641h-1.918V8.484a1.761,1.761,0,0,0-.35-1.2,1.478,1.478,0,0,0-1.148-.391,1.847,1.847,0,0,0-1.728,1.049v6.074H137.27V5.478Z" transform="translate(-47.931 -1.73)" fill="#bf403b"/>
    </g>
    <g id="Grupo_71417" data-name="Grupo 71417" transform="translate(539 975)">
      <path id="Trazado_159051" data-name="Trazado 159051" d="M5.073,154.734l2.918-8.986h2.193L6.051,157.235H4.119L0,145.748H2.186Z" transform="translate(0 -145.116)" fill="#86403e"/>
      <path id="Trazado_159052" data-name="Trazado 159052" d="M21.168,158.581a2.991,2.991,0,0,1-.221-.8,3.224,3.224,0,0,1-4.339.221,2.346,2.346,0,0,1-.813-1.815,2.424,2.424,0,0,1,1.014-2.095,4.913,4.913,0,0,1,2.9-.729h1.175v-.56a1.494,1.494,0,0,0-.37-1.061,1.468,1.468,0,0,0-1.128-.4,1.688,1.688,0,0,0-1.072.327,1.012,1.012,0,0,0-.418.832H15.977a2.126,2.126,0,0,1,.465-1.313,3.11,3.11,0,0,1,1.267-.959,4.447,4.447,0,0,1,1.787-.347,3.584,3.584,0,0,1,2.391.753,2.688,2.688,0,0,1,.915,2.118v3.85a4.358,4.358,0,0,0,.323,1.838v.134ZM19.062,157.2a2.177,2.177,0,0,0,1.069-.276,1.842,1.842,0,0,0,.753-.742v-1.61H19.85a2.826,2.826,0,0,0-1.6.371,1.2,1.2,0,0,0-.536,1.049,1.122,1.122,0,0,0,.366.88,1.423,1.423,0,0,0,.982.327" transform="translate(-5.136 -146.462)" fill="#86403e"/>
      <rect id="Rectángulo_11862" data-name="Rectángulo 11862" width="1.917" height="12.118" transform="translate(19.795 0)" fill="#86403e"/>
      <path id="Trazado_159053" data-name="Trazado 159053" d="M34.736,154.234a5.022,5.022,0,0,1,.5-2.26,3.628,3.628,0,0,1,1.4-1.547,3.934,3.934,0,0,1,2.067-.54A3.731,3.731,0,0,1,41.5,151a4.379,4.379,0,0,1,1.163,2.95l.008.45a5.076,5.076,0,0,1-.486,2.257A3.587,3.587,0,0,1,40.8,158.2a3.969,3.969,0,0,1-2.086.544,3.7,3.7,0,0,1-2.891-1.2,4.6,4.6,0,0,1-1.085-3.207Zm1.917.166a3.438,3.438,0,0,0,.545,2.063,1.771,1.771,0,0,0,1.515.746,1.749,1.749,0,0,0,1.51-.757,3.8,3.8,0,0,0,.541-2.217,3.4,3.4,0,0,0-.556-2.051,1.875,1.875,0,0,0-3-.011,3.727,3.727,0,0,0-.552,2.229" transform="translate(-11.296 -146.462)" fill="#86403e"/>
      <path id="Trazado_159054" data-name="Trazado 159054" d="M53.367,151.8a4.772,4.772,0,0,0-.781-.063,1.758,1.758,0,0,0-1.775,1.01v5.838H48.894v-8.537h1.83l.047.955a2.161,2.161,0,0,1,1.925-1.113,1.8,1.8,0,0,1,.679.111Z" transform="translate(-15.901 -146.462)" fill="#86403e"/>
      <path id="Trazado_159055" data-name="Trazado 159055" d="M61.936,158.581a2.991,2.991,0,0,1-.221-.8,3.224,3.224,0,0,1-4.339.221,2.346,2.346,0,0,1-.813-1.815,2.424,2.424,0,0,1,1.014-2.095,4.913,4.913,0,0,1,2.9-.729h1.175v-.56a1.494,1.494,0,0,0-.37-1.061,1.468,1.468,0,0,0-1.128-.4,1.688,1.688,0,0,0-1.072.327,1.012,1.012,0,0,0-.418.832H56.745a2.126,2.126,0,0,1,.465-1.313,3.11,3.11,0,0,1,1.267-.959,4.447,4.447,0,0,1,1.787-.347,3.584,3.584,0,0,1,2.391.753,2.688,2.688,0,0,1,.915,2.118v3.85a4.358,4.358,0,0,0,.323,1.838v.134ZM59.83,157.2a2.177,2.177,0,0,0,1.069-.276,1.842,1.842,0,0,0,.753-.742v-1.61H60.618a2.826,2.826,0,0,0-1.6.371,1.2,1.2,0,0,0-.536,1.049,1.122,1.122,0,0,0,.366.88,1.423,1.423,0,0,0,.982.327" transform="translate(-18.395 -146.462)" fill="#86403e"/>
      <path id="Trazado_159056" data-name="Trazado 159056" d="M73.255,157.208a1.736,1.736,0,0,0,1.192-.418,1.431,1.431,0,0,0,.5-1.033h1.806a2.816,2.816,0,0,1-.5,1.487A3.271,3.271,0,0,1,75,158.337a3.766,3.766,0,0,1-1.72.4,3.639,3.639,0,0,1-2.84-1.16,4.6,4.6,0,0,1-1.049-3.2v-.2a4.527,4.527,0,0,1,1.041-3.12,3.609,3.609,0,0,1,2.84-1.171,3.506,3.506,0,0,1,2.481.887,3.178,3.178,0,0,1,1.006,2.331H74.951a1.758,1.758,0,0,0-.5-1.207,1.612,1.612,0,0,0-1.2-.473,1.686,1.686,0,0,0-1.436.675,3.44,3.44,0,0,0-.513,2.047v.308a3.5,3.5,0,0,0,.5,2.072,1.687,1.687,0,0,0,1.448.682" transform="translate(-22.566 -146.462)" fill="#86403e"/>
      <path id="Trazado_159057" data-name="Trazado 159057" d="M82.461,146.341a1.016,1.016,0,0,1,.28-.734,1.058,1.058,0,0,1,.8-.292,1.072,1.072,0,0,1,.8.292,1.011,1.011,0,0,1,.284.734.989.989,0,0,1-.284.722,1.078,1.078,0,0,1-.8.288,1.064,1.064,0,0,1-.8-.288.993.993,0,0,1-.28-.722M84.5,157.094H82.579v-8.536H84.5Z" transform="translate(-26.817 -144.976)" fill="#86403e"/>
      <path id="Trazado_159058" data-name="Trazado 159058" d="M88.038,152.584a5.031,5.031,0,0,1,.5-2.26,3.628,3.628,0,0,1,1.4-1.547A3.936,3.936,0,0,1,92,148.237a3.728,3.728,0,0,1,2.8,1.113,4.374,4.374,0,0,1,1.164,2.95l.007.45a5.079,5.079,0,0,1-.485,2.256,3.584,3.584,0,0,1-1.389,1.539,3.963,3.963,0,0,1-2.086.545,3.7,3.7,0,0,1-2.891-1.2,4.608,4.608,0,0,1-1.084-3.207Zm1.916.166a3.439,3.439,0,0,0,.545,2.063,1.771,1.771,0,0,0,1.515.746,1.752,1.752,0,0,0,1.511-.758,3.8,3.8,0,0,0,.54-2.217,3.4,3.4,0,0,0-.556-2.051,1.875,1.875,0,0,0-3-.012,3.727,3.727,0,0,0-.553,2.23m2.572-7.937h2.185l-2.185,2.39-1.539,0Z" transform="translate(-28.631 -144.812)" fill="#86403e"/>
      <path id="Trazado_159059" data-name="Trazado 159059" d="M103.967,150.044l.055.986a3.072,3.072,0,0,1,2.485-1.144q2.666,0,2.714,3.053v5.641H107.3v-5.53a1.761,1.761,0,0,0-.35-1.2,1.477,1.477,0,0,0-1.148-.391,1.847,1.847,0,0,0-1.728,1.049v6.074h-1.917v-8.536Z" transform="translate(-33.223 -146.462)" fill="#86403e"/>
      <path id="Trazado_159060" data-name="Trazado 159060" d="M120.949,152.6a5.07,5.07,0,0,1,.916-3.167,2.931,2.931,0,0,1,2.453-1.2,2.786,2.786,0,0,1,2.193.947v-4.371h1.917v12.118h-1.736l-.094-.883a2.825,2.825,0,0,1-2.3,1.041,2.913,2.913,0,0,1-2.426-1.207,5.258,5.258,0,0,1-.927-3.282m1.917.165a3.554,3.554,0,0,0,.5,2.032,1.625,1.625,0,0,0,1.424.729,1.81,1.81,0,0,0,1.719-1.049v-3.645a1.783,1.783,0,0,0-1.7-1.026,1.637,1.637,0,0,0-1.436.738,3.956,3.956,0,0,0-.5,2.221" transform="translate(-39.333 -144.812)" fill="#86403e"/>
      <path id="Trazado_159061" data-name="Trazado 159061" d="M138.6,158.739a3.966,3.966,0,0,1-2.954-1.148,4.164,4.164,0,0,1-1.132-3.057V154.3a5.115,5.115,0,0,1,.493-2.283,3.757,3.757,0,0,1,1.384-1.566,3.666,3.666,0,0,1,1.989-.56A3.35,3.35,0,0,1,141.071,151a4.7,4.7,0,0,1,.951,3.147v.773h-5.578a2.567,2.567,0,0,0,.706,1.673,2.123,2.123,0,0,0,1.559.615,2.6,2.6,0,0,0,2.146-1.065l1.034.987a3.456,3.456,0,0,1-1.369,1.187,4.285,4.285,0,0,1-1.921.422m-.228-7.313a1.616,1.616,0,0,0-1.275.552,2.863,2.863,0,0,0-.619,1.539h3.653v-.142a2.333,2.333,0,0,0-.512-1.456,1.605,1.605,0,0,0-1.246-.493" transform="translate(-43.744 -146.462)" fill="#86403e"/>
      <path id="Trazado_159062" data-name="Trazado 159062" d="M17.969,185.584v-7.116h-1.3v-1.42h1.3v-.781a2.934,2.934,0,0,1,.789-2.193,3.022,3.022,0,0,1,2.209-.773,4.444,4.444,0,0,1,1.073.142l-.047,1.5a3.8,3.8,0,0,0-.733-.063,1.231,1.231,0,0,0-1.373,1.412v.757h1.736v1.42H19.886v7.116Z" transform="translate(-5.42 -154.077)" fill="#86403e"/>
      <path id="Trazado_159063" data-name="Trazado 159063" d="M31.053,187.314a2.991,2.991,0,0,1-.221-.8,3.224,3.224,0,0,1-4.339.221,2.346,2.346,0,0,1-.813-1.814,2.424,2.424,0,0,1,1.014-2.095,4.913,4.913,0,0,1,2.9-.729h1.175v-.56a1.494,1.494,0,0,0-.37-1.061,1.468,1.468,0,0,0-1.128-.4,1.688,1.688,0,0,0-1.072.327,1.012,1.012,0,0,0-.418.832H25.862a2.126,2.126,0,0,1,.465-1.313,3.11,3.11,0,0,1,1.267-.959,4.447,4.447,0,0,1,1.787-.347,3.584,3.584,0,0,1,2.391.753,2.688,2.688,0,0,1,.915,2.118v3.85a4.358,4.358,0,0,0,.323,1.838v.134Zm-2.106-1.381a2.177,2.177,0,0,0,1.069-.276,1.842,1.842,0,0,0,.753-.742v-1.61H29.735a2.826,2.826,0,0,0-1.6.371,1.2,1.2,0,0,0-.536,1.049,1.122,1.122,0,0,0,.366.88,1.423,1.423,0,0,0,.982.327" transform="translate(-8.351 -155.807)" fill="#86403e"/>
      <path id="Trazado_159064" data-name="Trazado 159064" d="M42.372,185.941a1.732,1.732,0,0,0,1.192-.418,1.428,1.428,0,0,0,.5-1.032h1.806a2.812,2.812,0,0,1-.5,1.486,3.273,3.273,0,0,1-1.263,1.094,3.766,3.766,0,0,1-1.72.4,3.639,3.639,0,0,1-2.84-1.16,4.594,4.594,0,0,1-1.049-3.2v-.2a4.525,4.525,0,0,1,1.041-3.12,3.606,3.606,0,0,1,2.84-1.171,3.5,3.5,0,0,1,2.481.887,3.178,3.178,0,0,1,1.006,2.331H44.068a1.757,1.757,0,0,0-.5-1.207,1.61,1.61,0,0,0-1.2-.473,1.685,1.685,0,0,0-1.436.675,3.437,3.437,0,0,0-.513,2.046v.308a3.5,3.5,0,0,0,.5,2.072,1.685,1.685,0,0,0,1.448.682" transform="translate(-12.522 -155.807)" fill="#86403e"/>
      <path id="Trazado_159065" data-name="Trazado 159065" d="M53.531,175.779v2.075h1.507v1.42H53.531v4.765a1.054,1.054,0,0,0,.193.706.9.9,0,0,0,.691.217,2.957,2.957,0,0,0,.671-.079v1.483a4.735,4.735,0,0,1-1.263.182q-2.21,0-2.209-2.438v-4.836h-1.4v-1.42h1.4v-2.075Z" transform="translate(-16.328 -154.883)" fill="#86403e"/>
      <path id="Trazado_159066" data-name="Trazado 159066" d="M59.54,175.074a1.016,1.016,0,0,1,.28-.734,1.058,1.058,0,0,1,.8-.292,1.072,1.072,0,0,1,.8.292,1.011,1.011,0,0,1,.284.734.989.989,0,0,1-.284.722,1.078,1.078,0,0,1-.8.288,1.064,1.064,0,0,1-.8-.288.994.994,0,0,1-.28-.722m2.035,10.753H59.658v-8.536h1.917Z" transform="translate(-19.363 -154.32)" fill="#86403e"/>
      <path id="Trazado_159067" data-name="Trazado 159067" d="M73.137,181.483a5.129,5.129,0,0,1-.888,3.163,2.892,2.892,0,0,1-2.441,1.175,2.785,2.785,0,0,1-2.335-1.081l-.094.923H65.642V173.546h1.917v4.4a2.774,2.774,0,0,1,2.233-.978,2.926,2.926,0,0,1,2.454,1.159,5.218,5.218,0,0,1,.891,3.243Zm-1.917-.166a3.626,3.626,0,0,0-.489-2.083,1.63,1.63,0,0,0-1.42-.694,1.779,1.779,0,0,0-1.752,1.089v3.518a1.8,1.8,0,0,0,1.767,1.113,1.617,1.617,0,0,0,1.389-.671,3.52,3.52,0,0,0,.5-2.028Z" transform="translate(-21.347 -154.157)" fill="#86403e"/>
      <path id="Trazado_159068" data-name="Trazado 159068" d="M79.135,175.074a1.013,1.013,0,0,1,.28-.734,1.058,1.058,0,0,1,.8-.292,1.074,1.074,0,0,1,.805.292,1.011,1.011,0,0,1,.284.734.989.989,0,0,1-.284.722,1.08,1.08,0,0,1-.805.288,1.064,1.064,0,0,1-.8-.288.991.991,0,0,1-.28-.722m2.034,10.753H79.252v-8.536h1.917Z" transform="translate(-25.735 -154.32)" fill="#86403e"/>
      <rect id="Rectángulo_11863" data-name="Rectángulo 11863" width="1.917" height="12.118" transform="translate(57.644 19.389)" fill="#86403e"/>
      <path id="Trazado_159069" data-name="Trazado 159069" d="M91.364,175.074a1.016,1.016,0,0,1,.28-.734,1.059,1.059,0,0,1,.8-.292,1.072,1.072,0,0,1,.8.292,1.011,1.011,0,0,1,.284.734.989.989,0,0,1-.284.722,1.078,1.078,0,0,1-.8.288,1.065,1.065,0,0,1-.8-.288.994.994,0,0,1-.28-.722M93.4,185.827H91.482v-8.536H93.4Z" transform="translate(-29.712 -154.32)" fill="#86403e"/>
      <path id="Trazado_159070" data-name="Trazado 159070" d="M96.94,181.332a5.07,5.07,0,0,1,.916-3.167,2.931,2.931,0,0,1,2.453-1.2,2.786,2.786,0,0,1,2.193.947v-4.371h1.917v12.118h-1.736l-.094-.883a2.825,2.825,0,0,1-2.3,1.041,2.913,2.913,0,0,1-2.426-1.207,5.258,5.258,0,0,1-.927-3.282m1.917.165a3.554,3.554,0,0,0,.5,2.032,1.625,1.625,0,0,0,1.424.729,1.81,1.81,0,0,0,1.719-1.049v-3.645a1.783,1.783,0,0,0-1.7-1.026,1.637,1.637,0,0,0-1.436.738,3.957,3.957,0,0,0-.5,2.221" transform="translate(-31.526 -154.156)" fill="#86403e"/>
      <path id="Trazado_159071" data-name="Trazado 159071" d="M115.957,187.314a2.991,2.991,0,0,1-.221-.8,3.224,3.224,0,0,1-4.339.221,2.346,2.346,0,0,1-.813-1.814,2.424,2.424,0,0,1,1.014-2.095,4.913,4.913,0,0,1,2.9-.729h1.175v-.56a1.494,1.494,0,0,0-.37-1.061,1.468,1.468,0,0,0-1.128-.4,1.688,1.688,0,0,0-1.072.327,1.012,1.012,0,0,0-.418.832h-1.917a2.126,2.126,0,0,1,.465-1.313,3.11,3.11,0,0,1,1.267-.959,4.447,4.447,0,0,1,1.787-.347,3.584,3.584,0,0,1,2.391.753,2.688,2.688,0,0,1,.915,2.118v3.85a4.358,4.358,0,0,0,.323,1.838v.134Zm-2.106-1.381a2.177,2.177,0,0,0,1.069-.276,1.842,1.842,0,0,0,.753-.742v-1.61h-1.033a2.826,2.826,0,0,0-1.6.371,1.2,1.2,0,0,0-.536,1.049,1.122,1.122,0,0,0,.366.88,1.423,1.423,0,0,0,.982.327" transform="translate(-35.963 -155.807)" fill="#86403e"/>
      <path id="Trazado_159072" data-name="Trazado 159072" d="M123.41,181.332a5.07,5.07,0,0,1,.916-3.167,2.931,2.931,0,0,1,2.453-1.2,2.786,2.786,0,0,1,2.193.947v-4.371h1.917v12.118h-1.736l-.094-.883a2.825,2.825,0,0,1-2.3,1.041,2.913,2.913,0,0,1-2.426-1.207,5.258,5.258,0,0,1-.927-3.282m1.917.165a3.554,3.554,0,0,0,.5,2.032,1.625,1.625,0,0,0,1.424.729,1.81,1.81,0,0,0,1.719-1.049v-3.645a1.783,1.783,0,0,0-1.7-1.026,1.637,1.637,0,0,0-1.436.738,3.957,3.957,0,0,0-.5,2.221" transform="translate(-40.134 -154.156)" fill="#86403e"/>
    </g>
    <path id="Trazado_159074" data-name="Trazado 159074" d="M-560.208-10744.609h127.777" transform="translate(1582.364 11699.701)" fill="none" stroke="#606060" stroke-width="1.5"/>
    <g id="layer1" transform="translate(570.962 565.911)">
      <path id="rect828" d="M1.191,284.564a.923.923,0,0,0-.927.927v29.543a.924.924,0,1,0,1.847,0V286.411H31.66v8.309a.924.924,0,0,0,1.847,0v-9.23a.924.924,0,0,0-.92-.927Zm31.383,27.689a.923.923,0,0,0-.913.941v12H2.111v-6.469a.924.924,0,1,0-1.847,0v7.389a.923.923,0,0,0,.927.927h31.4a.923.923,0,0,0,.92-.927V313.193a.923.923,0,0,0-.934-.941Z" transform="translate(0 0)" fill="#fff" fill-rule="evenodd"/>
      <g id="Grupo_71425" data-name="Grupo 71425" transform="translate(7.648 290.102)">
        <path id="path832" d="M32.908,2.916a.925.925,0,0,0-.641.266l-14.8,14.8a.925.925,0,0,0-.267.656V20.1l-3.434,3.432a.925.925,0,0,0-.266.648v1.467l-1.311,1.313H9.259L7.675,25.383a.925.925,0,0,0-1.3,0L4.787,26.962H3.325a.925.925,0,1,0,0,1.85H5.177a.925.925,0,0,0,.648-.273l1.2-1.2,1.194,1.2a.925.925,0,0,0,.648.273h3.7a.925.925,0,0,0,.656-.273L14.8,26.962H16.27a.925.925,0,0,0,.656-.275l3.428-3.427h1.467a.925.925,0,0,0,.656-.273L34.769,10.7l.542.542-6.745,6.745a.925.925,0,1,0,1.311,1.3l7.393-7.393a.926.926,0,0,0,0-1.311L36.077,9.388l1.194-1.194a.925.925,0,0,0,0-1.311l-3.7-3.7a.925.925,0,0,0-.663-.266Zm.013,2.233,2.39,2.39-4.243,4.243L28.681,9.388ZM27.372,10.7l2.39,2.388-8.324,8.324H20.352l-1.3-1.3V19.021Zm-9.25,11.095.542.542L15.889,25.11h-.54v-.538Z" transform="translate(-2.38 0.8)" fill="#fff"/>
        <path id="path845" d="M12.548,1.851a.924.924,0,0,0-.916.936v.928h-.921a2.775,2.775,0,1,0,0,5.549h.921v1.852h-.921a.909.909,0,0,1-.928-.928.925.925,0,1,0-1.85,0,2.8,2.8,0,0,0,2.778,2.778h.921v.921a.926.926,0,0,0,1.852,0v-.921h.928a2.775,2.775,0,0,0,0-5.551h-.928V5.565h.928a.9.9,0,0,1,.921.921.925.925,0,0,0,1.85,0,2.783,2.783,0,0,0-2.771-2.771h-.928V2.787a.925.925,0,0,0-.936-.936ZM10.711,5.565h.921v1.85h-.921a.925.925,0,1,1,0-1.85Zm2.773,3.7h.928a.926.926,0,0,1,0,1.852h-.928Zm-6.47,7.4a.926.926,0,1,0,0,1.852h9.245a.926.926,0,1,0,0-1.852Zm-3.7,0a.925.925,0,1,0,.925.925A.925.925,0,0,0,3.31,16.663Zm3.7,3.7a.926.926,0,1,0,0,1.852h7.4a.926.926,0,1,0,0-1.852Zm-3.7,0a.925.925,0,1,0,.925.925A.925.925,0,0,0,3.31,20.363Zm3.7,3.7a.926.926,0,1,0,0,1.852h4.621a.926.926,0,1,0,0-1.852Zm-3.7,0a.925.925,0,1,0,.925.925A.925.925,0,0,0,3.31,24.062Z" transform="translate(-2.366 -1.851)" fill="#fff" fill-rule="evenodd"/>
      </g>
    </g>
    <g id="layer1-2" data-name="layer1" transform="translate(424.164 565.707)">
      <path id="rect5745" d="M2.255,284.565a.932.932,0,0,0-.932.932v31.7a.932.932,0,1,0,1.865,0V286.43H9.713a.932.932,0,0,0,0-1.865Zm26.1,0a.932.932,0,1,0,0,1.865h6.526v39.156H3.188v-4.661a.932.932,0,1,0-1.865,0v5.594a.932.932,0,0,0,.932.932H35.817a.933.933,0,0,0,.932-.932V285.5a.933.933,0,0,0-.932-.932Z" transform="translate(0 0)" fill="#fff" fill-rule="evenodd"/>
      <path id="rect5747" d="M10.785.265a.934.934,0,0,0-.93.937V4H3.319a.934.934,0,0,0-.934.934V38.549a.934.934,0,0,0,.934.934H29.464a.934.934,0,0,0,.934-.934V4.934A.934.934,0,0,0,29.464,4h-6.54V1.2a.934.934,0,0,0-.93-.937Zm.939,1.867h9.339v5.6H11.724ZM4.252,5.867h5.6v2.8a.934.934,0,0,0,.93.937H21.994a.934.934,0,0,0,.93-.937v-2.8H28.53V37.615H4.252Zm10.255,7.459a.934.934,0,0,0-.647.283l-3.075,3.075L9.58,15.477A.934.934,0,1,0,8.263,16.8l1.867,1.867a.934.934,0,0,0,1.317,0l3.737-3.735a.934.934,0,0,0-.677-1.607ZM23.965,15.2a.935.935,0,0,0-.1,0h-5.6q-.045,0-.089,0a.934.934,0,0,0,.089,1.86h5.6A.934.934,0,1,0,23.965,15.2ZM14.507,20.8a.934.934,0,0,0-.647.283l-3.075,3.075L9.58,22.948a.934.934,0,1,0-1.317,1.324l1.867,1.86a.934.934,0,0,0,1.317,0l3.737-3.728a.934.934,0,0,0-.677-1.607Zm3.75,1.875a.934.934,0,1,0,0,1.867h5.6a.934.934,0,1,0,0-1.867Zm-3.75,5.6a.934.934,0,0,0-.647.283l-3.075,3.075L9.58,30.42a.934.934,0,1,0-1.317,1.317L10.13,33.6a.934.934,0,0,0,1.317,0l3.737-3.735a.934.934,0,0,0-.677-1.6Zm3.66,1.875a.935.935,0,0,0,.089,1.867h5.6a.934.934,0,1,0,0-1.867h-5.6q-.045,0-.089,0Z" transform="translate(2.68 284.3)" fill="#fff" fill-rule="evenodd"/>
    </g>
    <g id="nota" transform="translate(643.68 527)">
      <g id="Icon" transform="translate(67 323)">
        <path id="Trazado_159075" data-name="Trazado 159075" d="M75,345.243a2.244,2.244,0,0,0,2.243,2.243H95.187a2.243,2.243,0,0,0,0-4.486H77.243A2.244,2.244,0,0,0,75,345.243Zm20.934,0a.748.748,0,0,0-.748-.748H77.243a.748.748,0,0,0,0,1.5H95.187a.748.748,0,0,0,.748-.748Z" transform="translate(-69.019 -328.047)" fill="#fff" fill-rule="evenodd"/>
        <g id="Grupo_71426" data-name="Grupo 71426" transform="translate(5.981 20.934)">
          <path id="Trazado_159076" data-name="Trazado 159076" d="M75,345.243a2.244,2.244,0,0,0,2.243,2.243H89.205a2.243,2.243,0,0,0,0-4.486H77.243A2.244,2.244,0,0,0,75,345.243Zm14.953,0a.748.748,0,0,0-.748-.748H77.243a.748.748,0,0,0,0,1.5H89.205a.748.748,0,0,0,.748-.748Z" transform="translate(-75 -343)" fill="#fff" fill-rule="evenodd"/>
        </g>
        <g id="Grupo_71427" data-name="Grupo 71427" transform="translate(5.981 26.915)">
          <path id="Trazado_159077" data-name="Trazado 159077" d="M75,345.243a2.244,2.244,0,0,0,2.243,2.243h5.981a2.243,2.243,0,0,0,0-4.486H77.243A2.244,2.244,0,0,0,75,345.243Zm8.972,0a.748.748,0,0,0-.748-.748H77.243a.748.748,0,0,0,0,1.5h5.981a.748.748,0,0,0,.748-.748Z" transform="translate(-75 -343)" fill="#fff" fill-rule="evenodd"/>
        </g>
        <path id="Trazado_159078" data-name="Trazado 159078" d="M104.382,346.487l5.453-5.453a2.242,2.242,0,0,0,0-3.172l-2.372-2.372a2.241,2.241,0,0,0-3.081-.085v-5.677a3.739,3.739,0,0,0-3.738-3.738H98.4v-.748A2.243,2.243,0,0,0,96.158,323H93.168a2.243,2.243,0,0,0-2.243,2.243v.748h-1.5v-.748A2.243,2.243,0,0,0,87.187,323H84.2a2.243,2.243,0,0,0-2.243,2.243v.748h-1.5v-.748A2.243,2.243,0,0,0,78.215,323H75.224a2.243,2.243,0,0,0-2.243,2.243v.748H70.738A3.739,3.739,0,0,0,67,329.729v32.9a3.739,3.739,0,0,0,3.738,3.738h29.906a3.739,3.739,0,0,0,3.738-3.738Zm-1.5-9.591v-3.429H97.654a.748.748,0,0,1,0-1.5h5.234v-2.243a2.243,2.243,0,0,0-2.243-2.243H92.42v.748a.748.748,0,0,0,.748.748h1.5a.748.748,0,1,1,0,1.5h-1.5a2.243,2.243,0,0,1-2.243-2.243v-.748H83.448v.748a.748.748,0,0,0,.748.748h1.5a.748.748,0,1,1,0,1.5H84.2a2.243,2.243,0,0,1-2.243-2.243v-.748H74.476v.748a.748.748,0,0,0,.748.748h1.5a.748.748,0,1,1,0,1.5h-1.5a2.243,2.243,0,0,1-2.243-2.243v-.748H70.738a2.243,2.243,0,0,0-2.243,2.243v2.243H94.663a.748.748,0,0,1,0,1.5H68.5v29.158a2.243,2.243,0,0,0,2.243,2.243h29.906a2.243,2.243,0,0,0,2.243-2.243V347.982L91.144,359.725a2.243,2.243,0,0,1-1.586.657h-2.97a1.644,1.644,0,0,1-1.645-1.645v-2.97a2.243,2.243,0,0,1,.657-1.586ZM86.439,356.954l1.933,1.933H86.588a.151.151,0,0,1-.15-.15Zm.31-1.8,3.429,3.429,14.643-14.643-3.429-3.429Zm19.129-12.272-3.429-3.429,2.9-2.9a.747.747,0,0,1,1.057,0l2.372,2.372a.747.747,0,0,1,0,1.057Zm-8.972-16.886v-.748a.748.748,0,0,0-.748-.748H93.168a.748.748,0,0,0-.748.748v.748Zm-8.972,0v-.748a.748.748,0,0,0-.748-.748H84.2a.748.748,0,0,0-.748.748v.748Zm-8.972,0v-.748a.748.748,0,0,0-.748-.748H75.224a.748.748,0,0,0-.748.748v.748Z" transform="translate(-67 -323)" fill="#fff" fill-rule="evenodd"/>
      </g>
    </g>
    <g id="negociacion" transform="translate(849.721 850)">
      <g id="Grupo_71429" data-name="Grupo 71429" transform="translate(24.479 21.267)">
        <g id="Grupo_71428" data-name="Grupo 71428">
          <path id="Trazado_159079" data-name="Trazado 159079" d="M278.212,247.4c-1.98,0-2.2-.88-2.2-1.32a7.3,7.3,0,0,0,4.4-6.967V238.6a6.573,6.573,0,0,0-6.6-6.6h-8.8a.693.693,0,0,0-.733.733,6.584,6.584,0,0,0,1.76,4.473,10.6,10.6,0,0,0-.293,2.127,7.411,7.411,0,0,0,4.4,6.747c0,.44-.22,1.32-2.2,1.32a3.631,3.631,0,0,0-3.667,3.667v3.667h1.467v-3.667a2.161,2.161,0,0,1,2.2-2.2c2.273,0,3.667-1.1,3.667-2.933v-.367a.7.7,0,0,0-.513-.66,5.938,5.938,0,0,1-3.887-5.573,4.51,4.51,0,0,1,.073-1.027,6.641,6.641,0,0,0,3.593,1.027h8.067a5.773,5.773,0,0,1-3.887,5.5.7.7,0,0,0-.513.66v.44c0,1.833,1.393,2.933,3.667,2.933a2.161,2.161,0,0,1,2.2,2.2v3.667h1.467v-3.667A3.631,3.631,0,0,0,278.212,247.4Zm-7.333-9.533a5.131,5.131,0,0,1-5.06-4.4h7.993a5.131,5.131,0,0,1,5.06,4.4Z" transform="translate(-264.279 -232)" fill="#fff"/>
        </g>
      </g>
      <g id="Grupo_71431" data-name="Grupo 71431" transform="translate(0.279)">
        <g id="Grupo_71430" data-name="Grupo 71430">
          <path id="Trazado_159080" data-name="Trazado 159080" d="M44.206,19.8V7.333A2.835,2.835,0,0,0,41.346,4.4H26.679V2.933A2.942,2.942,0,0,0,23.746,0H3.212A2.942,2.942,0,0,0,.279,2.933V19.067q0,4.62,3.3,6.6l.733-1.247c-1.687-1.1-2.567-2.787-2.567-5.353V2.933A1.471,1.471,0,0,1,3.212,1.467H23.746a1.471,1.471,0,0,1,1.467,1.467V16.867a1.471,1.471,0,0,1-1.467,1.467H10.692a4.585,4.585,0,0,0-4.547,3.96v.44H7.612V22.44a3.085,3.085,0,0,1,3.08-2.64H23.746a2.942,2.942,0,0,0,2.933-2.933h8.8a3.631,3.631,0,0,1,3.667,3.667h1.467A5.1,5.1,0,0,0,35.479,15.4h-8.8V5.867H41.346a1.471,1.471,0,0,1,1.467,1.467V19.8a6.393,6.393,0,0,1-1.32,4.253l1.1.953A7.38,7.38,0,0,0,44.206,19.8Z" transform="translate(-0.279)" fill="#fff"/>
        </g>
      </g>
      <g id="Grupo_71433" data-name="Grupo 71433" transform="translate(4.679 21.242)">
        <g id="Grupo_71432" data-name="Grupo 71432">
          <path id="Trazado_159081" data-name="Trazado 159081" d="M62.212,247.891a2.179,2.179,0,0,1-2.2-2.053,7.357,7.357,0,1,0-9.68-3.813,7.443,7.443,0,0,0,3.813,3.813,2.179,2.179,0,0,1-2.2,2.053,3.631,3.631,0,0,0-3.667,3.667v2.933h1.467v-2.933a2.161,2.161,0,0,1,2.2-2.2,3.631,3.631,0,0,0,3.667-3.667v-.367a.7.7,0,0,0-.513-.66,5.934,5.934,0,0,1-3.887-4.767h2.2a1.042,1.042,0,0,0,.44-.147l1.76-1.173,1.76,1.173a1.042,1.042,0,0,0,.44.147h5.06a5.811,5.811,0,0,1-3.887,4.767.7.7,0,0,0-.513.66v.367a3.631,3.631,0,0,0,3.667,3.667,2.161,2.161,0,0,1,2.2,2.2v2.933h1.467v-2.933A3.526,3.526,0,0,0,62.212,247.891Zm-4.18-9.533-1.98-1.32a.794.794,0,0,0-.807,0l-2.053,1.32H51.286a5.761,5.761,0,0,1,6.527-5.06,5.837,5.837,0,0,1,5.06,5.06Z" transform="translate(-48.279 -231.733)" fill="#fff"/>
        </g>
      </g>
      <g id="Grupo_71435" data-name="Grupo 71435" transform="translate(3.487 3.954)">
        <g id="Grupo_71434" data-name="Grupo 71434" transform="translate(0 0)">
          <rect id="Rectángulo_11866" data-name="Rectángulo 11866" width="16.042" height="1.069" fill="#fff"/>
        </g>
      </g>
      <g id="Grupo_71437" data-name="Grupo 71437" transform="translate(3.487 6.092)">
        <g id="Grupo_71436" data-name="Grupo 71436" transform="translate(0 0)">
          <rect id="Rectángulo_11867" data-name="Rectángulo 11867" width="5.347" height="2.139" fill="#fff"/>
        </g>
      </g>
      <g id="Grupo_71439" data-name="Grupo 71439" transform="translate(9.904 6.092)">
        <g id="Grupo_71438" data-name="Grupo 71438" transform="translate(0 0)">
          <rect id="Rectángulo_11868" data-name="Rectángulo 11868" width="10.695" height="2.139" transform="translate(0)" fill="#fff"/>
        </g>
      </g>
      <g id="Grupo_71441" data-name="Grupo 71441" transform="translate(3.487 9.301)">
        <g id="Grupo_71440" data-name="Grupo 71440" transform="translate(0 0)">
          <rect id="Rectángulo_11869" data-name="Rectángulo 11869" width="2.139" height="2.139" transform="translate(0 0)" fill="#fff"/>
        </g>
      </g>
      <g id="Grupo_71443" data-name="Grupo 71443" transform="translate(6.696 9.301)">
        <g id="Grupo_71442" data-name="Grupo 71442" transform="translate(0 0)">
          <rect id="Rectángulo_11870" data-name="Rectángulo 11870" width="6.417" height="2.139" transform="translate(0 0)" fill="#fff"/>
        </g>
      </g>
      <g id="Grupo_71445" data-name="Grupo 71445" transform="translate(14.182 9.301)">
        <g id="Grupo_71444" data-name="Grupo 71444" transform="translate(0 0)">
          <rect id="Rectángulo_11871" data-name="Rectángulo 11871" width="6.417" height="2.139" transform="translate(0 0)" fill="#fff"/>
        </g>
      </g>
      <g id="Grupo_71447" data-name="Grupo 71447" transform="translate(31.294 8.232)">
        <g id="Grupo_71446" data-name="Grupo 71446" transform="translate(0 0)">
          <rect id="Rectángulo_11872" data-name="Rectángulo 11872" width="9.625" height="2.139" fill="#fff"/>
        </g>
      </g>
      <g id="Grupo_71449" data-name="Grupo 71449" transform="translate(28.085 11.44)">
        <g id="Grupo_71448" data-name="Grupo 71448" transform="translate(0 0)">
          <rect id="Rectángulo_11873" data-name="Rectángulo 11873" width="5.347" height="2.139" fill="#fff"/>
        </g>
      </g>
      <g id="Grupo_71451" data-name="Grupo 71451" transform="translate(34.502 11.44)">
        <g id="Grupo_71450" data-name="Grupo 71450" transform="translate(0 0)">
          <rect id="Rectángulo_11874" data-name="Rectángulo 11874" width="6.417" height="2.139" transform="translate(0)" fill="#fff"/>
        </g>
      </g>
      <g id="Grupo_71453" data-name="Grupo 71453" transform="translate(28.085 8.232)">
        <g id="Grupo_71452" data-name="Grupo 71452" transform="translate(0 0)">
          <rect id="Rectángulo_11875" data-name="Rectángulo 11875" width="1.069" height="2.139" fill="#fff"/>
        </g>
      </g>
    </g>
    <g id="crecimiento" transform="translate(993 849.999)">
      <g id="Grupo_71455" data-name="Grupo 71455" transform="translate(0 0.001)">
        <g id="Grupo_71454" data-name="Grupo 71454">
          <path id="Trazado_159082" data-name="Trazado 159082" d="M43.708,30.39h0v0l-2.861-.408a.736.736,0,0,1-.338-1.318l.938-.7h1.963a.736.736,0,0,0,.736-.736V.737A.736.736,0,0,0,43.409,0H.736A.736.736,0,0,0,0,.737V27.224a.736.736,0,0,0,.736.736h1.9l-.951.951a.736.736,0,0,0-.085.937L3,31.882l-2.418.508A.736.736,0,0,0,0,33.11v2.943a.736.736,0,0,0,.584.72L3,37.281,1.6,39.314a.736.736,0,0,0,.085.937L3.9,42.459a.736.736,0,0,0,.937.085l2.033-1.4.508,2.418a.736.736,0,0,0,.717.581h2.943a.736.736,0,0,0,.72-.584l.508-2.419,2.033,1.4a.736.736,0,0,0,.937-.085l2.207-2.207a.736.736,0,0,0,.085-.937l-1.4-2.034,2.418-.508a.736.736,0,0,0,.581-.72V33.11a.736.736,0,0,0-.584-.72l-2.418-.508,1.4-2.033a.736.736,0,0,0-.085-.937l-.948-.951h3.036l-.589,4.094a.736.736,0,0,0,.622.834h.009l2.861.408a.736.736,0,0,1,.338,1.318l-2.316,1.732a.736.736,0,0,0-.147,1.03l2.649,3.532a.736.736,0,0,0,1.03.147L26.3,39.321a.736.736,0,0,1,1.17.693l-.409,2.861a.736.736,0,0,0,.624.833h0l4.37.624a.71.71,0,0,0,.1.008.736.736,0,0,0,.728-.632l.409-2.861a.736.736,0,0,1,1.317-.338l1.734,2.312a.736.736,0,0,0,1.03.147l3.532-2.649a.736.736,0,0,0,.147-1.03L39.32,36.977a.736.736,0,0,1,.693-1.17l2.861.408a.736.736,0,0,0,.833-.624h0l.625-4.37A.736.736,0,0,0,43.708,30.39Zm-26.05,3.317v1.748l-1.834.386a1.472,1.472,0,0,0-.909,2.276l1.051,1.528-1.338,1.338L13.1,39.929a1.471,1.471,0,0,0-2.275.909l-.386,1.837H8.691L8.3,40.841a1.471,1.471,0,0,0-2.271-.909L4.5,40.982,3.164,39.645l1.054-1.528a1.471,1.471,0,0,0-.909-2.276l-1.837-.386V33.707l1.834-.386a1.472,1.472,0,0,0,.909-2.272L3.164,29.518,4.5,28.18l1.532,1.051a1.471,1.471,0,0,0,2.275-.909l.383-1.834h1.748l.386,1.833a1.471,1.471,0,0,0,2.275.909l1.528-1.051,1.338,1.338L14.915,31.05a1.471,1.471,0,0,0,.909,2.276ZM12.7,27.716l-.441.3L11.754,25.6a.736.736,0,0,0-.718-.584H9.565v-5.15h2.943v7.357A.727.727,0,0,0,12.7,27.716Zm3.482-12.264a.736.736,0,0,0-.736.736v10.3H13.979V19.13a.736.736,0,0,0-.736-.736H8.829a.736.736,0,0,0-.736.736v5.886a.736.736,0,0,0-.72.584L6.865,28.02l-2.033-1.4a.721.721,0,0,0-.417-.122v-.008H1.471V1.472h41.2V25.507l-2.354-3.139a.736.736,0,0,0-1.03-.147l-2.312,1.735a.736.736,0,0,1-1.17-.693l.409-2.861a.727.727,0,0,0-.164-.567V6.623a.736.736,0,0,0-.736-.736H30.9a.736.736,0,0,0-.736.736v14.5l-.186,1.3a.73.73,0,0,1-1.285.368V10.3a.736.736,0,0,0-.736-.736H23.544a.736.736,0,0,0-.736.736V22.625l-.441.331a.736.736,0,0,0-.147,1.03L23.954,26.3a.736.736,0,0,1-.693,1.17l-1.925-.274V16.187a.736.736,0,0,0-.736-.736ZM34.58,7.358V19.425L31.637,19V7.358Zm-7.357,3.679v9.81l-.294-.393a.736.736,0,0,0-1.03-.147L24.28,21.522V11.037h2.943ZM19.865,26.488H16.922V16.923h2.943Zm22.489,8.167-2.134-.3a2.207,2.207,0,0,0-2.078,3.51l1.293,1.725L37.082,41.35l-1.293-1.724a2.207,2.207,0,0,0-3.952,1.012l-.3,2.134-2.912-.416.3-2.134a2.207,2.207,0,0,0-3.509-2.078l-1.725,1.293-1.766-2.354,1.723-1.293a2.207,2.207,0,0,0-1.012-3.951L20.5,31.534l.416-2.913,2.134.3a2.207,2.207,0,0,0,2.078-3.51l-1.293-1.724,2.354-1.766,1.293,1.724a2.207,2.207,0,0,0,3.952-1.012l.3-2.134,2.913.416-.3,2.134a2.207,2.207,0,0,0,3.509,2.078l1.725-1.293,1.766,2.354-1.723,1.293a2.207,2.207,0,0,0,1.012,3.951l2.134.305Z" transform="translate(0 -0.001)" fill="#fff"/>
        </g>
      </g>
      <g id="Grupo_71457" data-name="Grupo 71457" transform="translate(5.15 30.167)">
        <g id="Grupo_71456" data-name="Grupo 71456">
          <path id="Trazado_159083" data-name="Trazado 159083" d="M60.414,328a4.414,4.414,0,1,0,4.414,4.414A4.414,4.414,0,0,0,60.414,328Zm0,7.357a2.943,2.943,0,1,1,2.943-2.943A2.943,2.943,0,0,1,60.414,335.358Z" transform="translate(-56 -328.001)" fill="#fff"/>
        </g>
      </g>
      <g id="Grupo_71459" data-name="Grupo 71459" transform="translate(25.751 25.752)">
        <g id="Grupo_71458" data-name="Grupo 71458">
          <path id="Trazado_159084" data-name="Trazado 159084" d="M285.886,280a5.886,5.886,0,1,0,5.886,5.886A5.886,5.886,0,0,0,285.886,280Zm0,10.3a4.414,4.414,0,1,1,4.415-4.414A4.414,4.414,0,0,1,285.886,290.3Z" transform="translate(-280 -280.001)" fill="#fff"/>
        </g>
      </g>
      <g id="Grupo_71461" data-name="Grupo 71461" transform="translate(7.721 2.223)">
        <g id="Grupo_71460" data-name="Grupo 71460">
          <path id="Trazado_159085" data-name="Trazado 159085" d="M105.808,24.9l-3.679-.736-.294,1.442,1.783.358L83.952,37.491l.745,1.27,19.921-11.678-.413,2.067,1.442.288.736-3.679A.736.736,0,0,0,105.808,24.9Z" transform="translate(-83.952 -24.161)" fill="#fff"/>
        </g>
      </g>
      <g id="Grupo_71463" data-name="Grupo 71463" transform="translate(2.96 19.844)">
        <g id="Grupo_71462" data-name="Grupo 71462" transform="translate(0 0)">
          <rect id="Rectángulo_11876" data-name="Rectángulo 11876" width="1.49" height="5.131" fill="#fff"/>
        </g>
      </g>
      <g id="Grupo_71465" data-name="Grupo 71465" transform="translate(2.96 16.865)">
        <g id="Grupo_71464" data-name="Grupo 71464" transform="translate(0 0)">
          <rect id="Rectángulo_11877" data-name="Rectángulo 11877" width="1.49" height="1.49" fill="#fff"/>
        </g>
      </g>
      <g id="Grupo_71467" data-name="Grupo 71467" transform="translate(39.705 9.582)">
        <g id="Grupo_71466" data-name="Grupo 71466" transform="translate(0 0)">
          <rect id="Rectángulo_11878" data-name="Rectángulo 11878" width="1.49" height="11.09" fill="#fff"/>
        </g>
      </g>
      <g id="Grupo_71469" data-name="Grupo 71469" transform="translate(39.705 6.603)">
        <g id="Grupo_71468" data-name="Grupo 71468" transform="translate(0 0)">
          <rect id="Rectángulo_11879" data-name="Rectángulo 11879" width="1.49" height="1.49" fill="#fff"/>
        </g>
      </g>
      <g id="Grupo_71471" data-name="Grupo 71471" transform="translate(16.864 41.858)">
        <g id="Grupo_71470" data-name="Grupo 71470" transform="translate(0 0)">
          <rect id="Rectángulo_11880" data-name="Rectángulo 11880" width="1.49" height="1.49" fill="#fff"/>
        </g>
      </g>
      <g id="Grupo_71473" data-name="Grupo 71473" transform="translate(19.843 41.858)">
        <g id="Grupo_71472" data-name="Grupo 71472" transform="translate(0 0)">
          <rect id="Rectángulo_11881" data-name="Rectángulo 11881" width="1.49" height="1.49" fill="#fff"/>
        </g>
      </g>
      <g id="Grupo_71475" data-name="Grupo 71475" transform="translate(22.822 41.858)">
        <g id="Grupo_71474" data-name="Grupo 71474" transform="translate(0 0)">
          <rect id="Rectángulo_11882" data-name="Rectángulo 11882" width="1.49" height="1.49" fill="#fff"/>
        </g>
      </g>
    </g>
    <g id="planificacion_1_" data-name="planificacion (1)" transform="translate(1137.206 838)">
      <g id="Grupo_71477" data-name="Grupo 71477" transform="translate(0 12)">
        <g id="Grupo_71476" data-name="Grupo 71476">
          <path id="Trazado_159086" data-name="Trazado 159086" d="M42.551,12H3.868A3.873,3.873,0,0,0,0,15.868v26.3a3.873,3.873,0,0,0,3.868,3.868H31.72V44.494H3.868a2.321,2.321,0,0,1-2.321-2.321v-26.3a2.321,2.321,0,0,1,2.321-2.321H42.551a2.321,2.321,0,0,1,2.321,2.321v26.3a2.321,2.321,0,0,1-2.321,2.321H36.362v1.547h6.189a3.873,3.873,0,0,0,3.868-3.868v-26.3A3.873,3.873,0,0,0,42.551,12Z" transform="translate(0 -12)" fill="#fff"/>
        </g>
      </g>
      <g id="Grupo_71479" data-name="Grupo 71479" transform="translate(3.095 15.095)">
        <g id="Grupo_71478" data-name="Grupo 71478">
          <path id="Trazado_159087" data-name="Trazado 159087" d="M68.362,44H32.774a.774.774,0,0,0-.774.774v26.3a.774.774,0,0,0,.774.774H60.625V70.3H33.547V45.547H67.588V70.3H65.267v1.547h3.095a.774.774,0,0,0,.774-.774v-26.3A.774.774,0,0,0,68.362,44Z" transform="translate(-32 -44)" fill="#fff"/>
        </g>
      </g>
      <g id="Grupo_71481" data-name="Grupo 71481" transform="translate(42.235 25.281)">
        <g id="Grupo_71480" data-name="Grupo 71480" transform="translate(0 0)">
          <rect id="Rectángulo_11883" data-name="Rectángulo 11883" width="1.226" height="7.354" transform="translate(0 0)" fill="#fff"/>
        </g>
      </g>
      <g id="Grupo_71483" data-name="Grupo 71483" transform="translate(4.641 51.457)">
        <g id="Grupo_71482" data-name="Grupo 71482">
          <path id="Trazado_159088" data-name="Trazado 159088" d="M87.449,420H51.86a.773.773,0,0,0-.346.077l-3.095,1.547a.774.774,0,0,0,0,1.385l3.095,1.547a.774.774,0,0,0,.346.085H87.449a2.321,2.321,0,0,0,0-4.642Zm-4.642,3.095H52.043l-1.547-.774,1.547-.774H82.807Zm4.642,0H84.354v-1.547h3.095a.774.774,0,0,1,0,1.547Z" transform="translate(-47.991 -419.999)" fill="#fff"/>
        </g>
      </g>
      <g id="Grupo_71485" data-name="Grupo 71485" transform="translate(6.189 18.189)">
        <g id="Grupo_71484" data-name="Grupo 71484">
          <path id="Trazado_159089" data-name="Trazado 159089" d="M93.4,89.926H91.078V87.6a.774.774,0,0,0-.774-.774H83.341v-.774a.774.774,0,0,0-.774-.774H80.247V82.963a.774.774,0,0,0-.774-.774H74.831V80.642h3.095a.774.774,0,0,0,.774-.774V76.774A.774.774,0,0,0,77.926,76H70.189a.774.774,0,0,0-.774.774v3.095a.774.774,0,0,0,.774.774h3.095v1.547H67.868a.774.774,0,0,0-.774.774v2.321H64.774a.774.774,0,0,0-.774.774v3.095a.774.774,0,0,0,.774.774h6.189a.774.774,0,0,0,.774-.774V86.058a.774.774,0,0,0-.774-.774H68.642V83.737H78.7v1.547H76.379a.774.774,0,0,0-.774.774v3.095a.774.774,0,0,0,.774.774H78.7v2.321H76.379a.774.774,0,0,0-.774.774v3.095a.774.774,0,0,0,.774.774h6.189a.774.774,0,0,0,.774-.774V93.021a.774.774,0,0,0-.774-.774H80.247V89.926h2.321a.774.774,0,0,0,.774-.774v-.774h6.189v1.547H87.21a.774.774,0,0,0-.774.774v3.095a.774.774,0,0,0,.774.774H93.4a.774.774,0,0,0,.774-.774V90.7A.774.774,0,0,0,93.4,89.926Zm-23.21-3.095v1.547H65.547V86.831Zm.774-7.737V77.547h6.189v1.547Zm10.831,14.7v1.547H77.152V93.794Zm0-5.416H77.152V86.831h4.642Zm10.831,4.642H87.983V91.473h4.642Z" transform="translate(-64 -76)" fill="#fff"/>
        </g>
      </g>
      <g id="Grupo_71487" data-name="Grupo 71487" transform="translate(0 53.004)">
        <g id="Grupo_71486" data-name="Grupo 71486">
          <path id="Trazado_159090" data-name="Trazado 159090" d="M0,436v.774a.774.774,0,0,0,.774.774h.774V436Z" transform="translate(0 -436)" fill="#fff"/>
        </g>
      </g>
      <g id="Grupo_71489" data-name="Grupo 71489" transform="translate(31.971 46.133)">
        <g id="Grupo_71488" data-name="Grupo 71488">
          <path id="Trazado_159091" data-name="Trazado 159091" d="M331.421,364.952a3.1,3.1,0,0,1-.829.88l.9,1.259a4.642,4.642,0,0,0,1.238-1.315Z" transform="translate(-330.592 -364.952)" fill="#fff"/>
        </g>
      </g>
      <g id="Grupo_71491" data-name="Grupo 71491" transform="translate(33.223 43.636)">
        <g id="Grupo_71490" data-name="Grupo 71490">
          <path id="Trazado_159092" data-name="Trazado 159092" d="M343.588,339.128v.858a3.133,3.133,0,0,1-.044.523l1.526.256a4.7,4.7,0,0,0,.065-.779v-.858Z" transform="translate(-343.544 -339.128)" fill="#fff"/>
        </g>
      </g>
      <g id="Grupo_71493" data-name="Grupo 71493" transform="translate(26.521 47.588)">
        <g id="Grupo_71492" data-name="Grupo 71492">
          <rect id="Rectángulo_11884" data-name="Rectángulo 11884" width="1.512" height="1.547" fill="#fff"/>
        </g>
      </g>
      <g id="Grupo_71495" data-name="Grupo 71495" transform="translate(29.548 47.511)">
        <g id="Grupo_71494" data-name="Grupo 71494">
          <path id="Trazado_159093" data-name="Trazado 159093" d="M306.873,379.2a3.106,3.106,0,0,1-.7.077h-.624v1.547h.624a4.631,4.631,0,0,0,1.055-.121Z" transform="translate(-305.544 -379.2)" fill="#fff"/>
        </g>
      </g>
      <g id="Grupo_71497" data-name="Grupo 71497" transform="translate(2.029 47.686)">
        <g id="Grupo_71496" data-name="Grupo 71496">
          <path id="Trazado_159094" data-name="Trazado 159094" d="M22.636,381.008a4.612,4.612,0,0,0-1.66.708l.872,1.278a3.055,3.055,0,0,1,1.1-.471Z" transform="translate(-20.976 -381.008)" fill="#fff"/>
        </g>
      </g>
      <g id="Grupo_71499" data-name="Grupo 71499" transform="translate(0.083 49.677)">
        <g id="Grupo_71498" data-name="Grupo 71498">
          <path id="Trazado_159095" data-name="Trazado 159095" d="M1.538,401.6a4.613,4.613,0,0,0-.682,1.671l1.52.292a3.047,3.047,0,0,1,.453-1.113Z" transform="translate(-0.856 -401.6)" fill="#fff"/>
        </g>
      </g>
      <g id="Grupo_71501" data-name="Grupo 71501" transform="translate(20.475 47.588)">
        <g id="Grupo_71500" data-name="Grupo 71500">
          <rect id="Rectángulo_11885" data-name="Rectángulo 11885" width="1.513" height="1.547" fill="#fff"/>
        </g>
      </g>
      <g id="Grupo_71503" data-name="Grupo 71503" transform="translate(23.5 47.588)">
        <g id="Grupo_71502" data-name="Grupo 71502">
          <rect id="Rectángulo_11886" data-name="Rectángulo 11886" width="1.512" height="1.547" fill="#fff"/>
        </g>
      </g>
      <g id="Grupo_71505" data-name="Grupo 71505" transform="translate(11.401 47.588)">
        <g id="Grupo_71504" data-name="Grupo 71504">
          <rect id="Rectángulo_11887" data-name="Rectángulo 11887" width="1.513" height="1.547" fill="#fff"/>
        </g>
      </g>
      <g id="Grupo_71507" data-name="Grupo 71507" transform="translate(8.377 47.588)">
        <g id="Grupo_71506" data-name="Grupo 71506">
          <rect id="Rectángulo_11888" data-name="Rectángulo 11888" width="1.513" height="1.547" fill="#fff"/>
        </g>
      </g>
      <g id="Grupo_71509" data-name="Grupo 71509" transform="translate(33.267 40.611)">
        <g id="Grupo_71508" data-name="Grupo 71508">
          <rect id="Rectángulo_11889" data-name="Rectángulo 11889" width="1.547" height="1.513" fill="#fff"/>
        </g>
      </g>
      <g id="Grupo_71511" data-name="Grupo 71511" transform="translate(5.353 47.588)">
        <g id="Grupo_71510" data-name="Grupo 71510">
          <rect id="Rectángulo_11890" data-name="Rectángulo 11890" width="1.512" height="1.547" fill="#fff"/>
        </g>
      </g>
      <g id="Grupo_71513" data-name="Grupo 71513" transform="translate(14.426 47.588)">
        <g id="Grupo_71512" data-name="Grupo 71512">
          <rect id="Rectángulo_11891" data-name="Rectángulo 11891" width="1.513" height="1.547" fill="#fff"/>
        </g>
      </g>
      <g id="Grupo_71515" data-name="Grupo 71515" transform="translate(17.451 47.588)">
        <g id="Grupo_71514" data-name="Grupo 71514">
          <rect id="Rectángulo_11892" data-name="Rectángulo 11892" width="1.513" height="1.547" fill="#fff"/>
        </g>
      </g>
      <g id="Grupo_71517" data-name="Grupo 71517" transform="translate(33.655 37.537)">
        <g id="Grupo_71516" data-name="Grupo 71516" transform="translate(0 0)">
          <rect id="Rectángulo_11893" data-name="Rectángulo 11893" width="1.226" height="1.226" fill="#fff"/>
        </g>
      </g>
    </g>
  </g>
</svg>
