<svg xmlns="http://www.w3.org/2000/svg" xmlns:xlink="http://www.w3.org/1999/xlink" width="609.899" height="124.394" viewBox="0 0 609.899 124.394">
  <defs>
    <linearGradient id="linear-gradient" x1="0.5" x2="0.5" y2="1" gradientUnits="objectBoundingBox">
      <stop offset="0" stop-color="#fff" stop-opacity="0"/>
      <stop offset="1" stop-color="#fff"/>
    </linearGradient>
    <clipPath id="clip-path">
      <rect id="Rectángulo_11832" data-name="Rectángulo 11832" width="189.219" height="15.414" transform="translate(0 0)" fill="none"/>
    </clipPath>
  </defs>
  <g id="Grupo_71386" data-name="Grupo 71386" transform="translate(-368 10571.394)">
    <path id="Trazado_158760" data-name="Trazado 158760" d="M9.26,0H598.639a9.26,9.26,0,0,1,9.26,9.26V93.986a9.26,9.26,0,0,1-9.26,9.26H9.26A9.26,9.26,0,0,1,0,93.986V9.26A9.26,9.26,0,0,1,9.26,0Z" transform="translate(369 -10570.394)" stroke="#d44f4a" stroke-width="2" fill="url(#linear-gradient)"/>
    <rect id="Rectángulo_11817" data-name="Rectángulo 11817" width="294" height="35" rx="14" transform="translate(683 -10482)" fill="#d44f4a"/>
    <g id="Grupo_71367" data-name="Grupo 71367" transform="translate(27 2.829)">
      <path id="Trazado_158820" data-name="Trazado 158820" d="M0,168.452a11.725,11.725,0,0,1,3.814-8.54q4.164-4.167,4.164-7.36V151.06h4.475v1.976a11.644,11.644,0,0,1-3.814,8.445q-4.164,4.121-4.164,7.107V172.4q0,3.276,3.039,3.274h.039q3.078,0,3.08-3.274v-4.666h4.475V172.4q0,7.69-7.573,7.689Q0,180.091,0,172.4Zm12.782-21.846H7.456v-5.328h5.326Z" transform="translate(503 -10682.751)" fill="#636363"/>
      <path id="Trazado_158821" data-name="Trazado 158821" d="M25.186,170.535q0,7.653-7.553,7.668-7.557,0-7.555-7.668V146.444q0-7.65,7.555-7.652t7.553,7.652v4.7H20.711v-4.7q0-3.236-3.06-3.255h-.039q-3.06,0-3.06,3.255v24.092q0,3.257,3.08,3.255t3.078-3.255v-4.7h4.475Z" transform="translate(513.646 -10685.377)" fill="#636363"/>
      <path id="Trazado_158822" data-name="Trazado 158822" d="M34.51,169.019q0,6.74-7.555,6.759-7.554,0-7.553-6.759V147.831q0-6.743,7.553-6.741t7.555,6.741Zm-4.475-21.188q0-2.869-3.06-2.869h-.039q-3.063,0-3.06,2.869v21.188q0,2.884,3.078,2.885t3.08-2.885Z" transform="translate(523.495 -10682.95)" fill="#636363"/>
      <path id="Trazado_158823" data-name="Trazado 158823" d="M29.01,141.316H33.6l6.469,24.131V141.392l4.047-.058V174.9h-4.59L33.27,151.386V174.9H29.01Z" transform="translate(533.644 -10682.711)" fill="#636363"/>
      <path id="Trazado_158824" data-name="Trazado 158824" d="M58.509,169.331q0,6.021-6.257,6.718.176,2.113,6.257,2.151v3.119a15.706,15.706,0,0,1-6.044-.814q-2.131-.947-2.188-4.435-6.878-.444-6.876-6.739v-21.19q0-6.758,7.553-6.759t7.555,6.759Zm-4.475-21.19q0-2.865-3.06-2.885h-.039q-3.063,0-3.06,2.885v21.19q0,2.862,3.078,2.865t3.08-2.865Z" transform="translate(548.845 -10682.642)" fill="#636363"/>
      <path id="Trazado_158825" data-name="Trazado 158825" d="M68.022,168.74q0,6.743-7.553,6.759-7.557,0-7.555-6.759V141.354h4.475V168.74q0,2.869,3.08,2.869t3.078-2.869V141.354h4.475Z" transform="translate(558.894 -10682.671)" fill="#636363"/>
      <path id="Trazado_158826" data-name="Trazado 158826" d="M62.615,144.313H76.133v3.874H67.09v10.981h7.785v3.891H67.09v10.983h9.044v3.854H62.615Zm12.725-5.231-5.075,3.253H67.534l4.2-3.854h3.6Z" transform="translate(569.142 -10685.706)" fill="#636363"/>
      <path id="Trazado_158827" data-name="Trazado 158827" d="M91.248,169.019q0,6.743-7.553,6.759-7.557,0-7.555-6.759V147.831q0-6.74,7.555-6.741t7.553,6.741v4.146H86.773v-4.146q0-2.865-3.06-2.867h-.039q-3.06,0-3.06,2.867v21.188q0,2.887,3.08,2.885t3.078-2.885v-4.125h4.475Z" transform="translate(583.428 -10682.95)" fill="#636363"/>
      <path id="Trazado_158828" data-name="Trazado 158828" d="M100.573,169.019q0,6.74-7.555,6.759-7.554,0-7.553-6.759V147.831q0-6.743,7.553-6.741t7.555,6.741ZM96.1,147.831q0-2.869-3.06-2.869H93q-3.063,0-3.06,2.869v21.188q0,2.884,3.078,2.885t3.08-2.885Z" transform="translate(593.278 -10682.95)" fill="#636363"/>
      <path id="Trazado_158829" data-name="Trazado 158829" d="M94.884,147.831q0-6.743,7.553-6.741t7.555,6.741v4.146h-4.475v-4.146q0-2.869-3.06-2.869h-.039q-3.063,0-3.06,2.869v3.136q0,2.6,5.577,6.1,5.055,3.177,5.056,7.573v4.378q0,6.758-7.534,6.759-7.572-.018-7.573-6.759v-4.125h4.475v4.125q0,2.884,3.1,2.885,3.06,0,3.06-2.885v-3.95q0-2.773-5.579-6.3-5.055-3.174-5.054-7.689Z" transform="translate(603.228 -10682.95)" fill="#636363"/>
      <path id="Trazado_158830" data-name="Trazado 158830" d="M118.844,141.316v3.874h-5.307V174.9h-4.473v-29.71h-5.328v-3.874Z" transform="translate(612.579 -10682.711)" fill="#636363"/>
      <path id="Trazado_158831" data-name="Trazado 158831" d="M127.7,169.019q0,6.74-7.555,6.759-7.554,0-7.553-6.759V147.831q0-6.743,7.553-6.741t7.555,6.741Zm-4.475-21.188q0-2.869-3.06-2.869h-.039q-3.063,0-3.06,2.869v21.188q0,2.884,3.078,2.885t3.08-2.885Z" transform="translate(621.932 -10682.95)" fill="#636363"/>
      <path id="Trazado_158832" data-name="Trazado 158832" d="M122.01,147.831q0-6.743,7.553-6.741t7.555,6.741v4.146h-4.475v-4.146q0-2.869-3.06-2.869h-.039q-3.06,0-3.06,2.869v3.136q0,2.6,5.579,6.1,5.055,3.177,5.054,7.573v4.378q0,6.758-7.534,6.759-7.572-.018-7.573-6.759v-4.125h4.475v4.125q0,2.884,3.1,2.885,3.06,0,3.06-2.885v-3.95q0-2.773-5.579-6.3-5.055-3.174-5.054-7.689Z" transform="translate(631.882 -10682.95)" fill="#636363"/>
      <path id="Trazado_158833" data-name="Trazado 158833" d="M146.631,150.423a11.735,11.735,0,0,1-3.817,8.542q-4.161,4.164-4.162,7.36v1.491h-4.475v-1.976a11.635,11.635,0,0,1,3.814-8.443q4.164-4.127,4.164-7.109v-3.814q0-3.273-3.041-3.274h-.037q-3.081,0-3.08,3.274v4.668h-4.475v-4.668q0-7.69,7.573-7.691,7.535,0,7.534,7.691Zm-12.782,21.846h5.326V177.6h-5.326Z" transform="translate(641.93 -10685.388)" fill="#636363"/>
    </g>
    <g id="Grupo_71379" data-name="Grupo 71379" transform="translate(735 -10472)">
      <g id="Grupo_71378" data-name="Grupo 71378" clip-path="url(#clip-path)">
        <path id="Trazado_158938" data-name="Trazado 158938" d="M2.344,7.992V12H0V.625H4.438a5.147,5.147,0,0,1,2.254.469,3.469,3.469,0,0,1,1.5,1.332,3.72,3.72,0,0,1,.523,1.965A3.271,3.271,0,0,1,7.567,7.028,4.772,4.772,0,0,1,4.4,7.992Zm0-1.9H4.438a2.064,2.064,0,0,0,1.418-.437,1.594,1.594,0,0,0,.488-1.25,1.877,1.877,0,0,0-.492-1.352,1.836,1.836,0,0,0-1.36-.531H2.344Z" fill="#fff"/>
        <path id="Trazado_158939" data-name="Trazado 158939" d="M15.241,5.664a6.075,6.075,0,0,0-.812-.062,1.653,1.653,0,0,0-1.68.867V12H10.491V3.547h2.133l.062,1.008a2.09,2.09,0,0,1,1.883-1.164,2.384,2.384,0,0,1,.7.1Z" fill="#fff"/>
        <path id="Trazado_158940" data-name="Trazado 158940" d="M20.39,12.156a4.154,4.154,0,0,1-3.028-1.14,4.059,4.059,0,0,1-1.168-3.039V7.758a5.1,5.1,0,0,1,.493-2.277,3.616,3.616,0,0,1,1.394-1.547,3.907,3.907,0,0,1,2.059-.543,3.508,3.508,0,0,1,2.73,1.093,4.446,4.446,0,0,1,1,3.1v.922H18.484a2.1,2.1,0,0,0,.66,1.328,2,2,0,0,0,1.394.5,2.436,2.436,0,0,0,2.039-.945l1.11,1.242a3.4,3.4,0,0,1-1.375,1.121,4.5,4.5,0,0,1-1.922.4m-.258-6.945a1.408,1.408,0,0,0-1.09.455,2.364,2.364,0,0,0-.535,1.3h3.141V6.788a1.681,1.681,0,0,0-.407-1.165,1.457,1.457,0,0,0-1.109-.412" fill="#fff"/>
        <path id="Trazado_158941" data-name="Trazado 158941" d="M30.046,9.664a.728.728,0,0,0-.41-.652,4.634,4.634,0,0,0-1.317-.426Q25.3,7.953,25.3,6.023a2.321,2.321,0,0,1,.933-1.879,3.769,3.769,0,0,1,2.442-.753,4.057,4.057,0,0,1,2.574.757,2.39,2.39,0,0,1,.965,1.969H29.96a1.094,1.094,0,0,0-.312-.8A1.325,1.325,0,0,0,28.671,5a1.349,1.349,0,0,0-.883.258.811.811,0,0,0-.312.656.694.694,0,0,0,.355.605,3.641,3.641,0,0,0,1.2.4,9.719,9.719,0,0,1,1.422.379A2.335,2.335,0,0,1,32.241,9.57a2.2,2.2,0,0,1-.992,1.871,4.276,4.276,0,0,1-2.562.715,4.462,4.462,0,0,1-1.887-.379,3.155,3.155,0,0,1-1.293-1.039,2.41,2.41,0,0,1-.469-1.426h2.141a1.176,1.176,0,0,0,.445.922,1.765,1.765,0,0,0,1.11.321,1.638,1.638,0,0,0,.98-.246.768.768,0,0,0,.332-.645" fill="#fff"/>
        <path id="Trazado_158942" data-name="Trazado 158942" d="M39.076,11.141a2.833,2.833,0,0,1-2.313,1.016,2.671,2.671,0,0,1-2.074-.782,3.339,3.339,0,0,1-.73-2.289V3.547h2.258V9.014q0,1.323,1.2,1.322A1.628,1.628,0,0,0,39,9.538V3.547h2.266V12H39.138Z" fill="#fff"/>
        <path id="Trazado_158943" data-name="Trazado 158943" d="M50.9,7.851a5.071,5.071,0,0,1-.887,3.129,2.843,2.843,0,0,1-2.394,1.176,2.635,2.635,0,0,1-2.071-.891v3.984H43.287V3.546h2.094l.078.828A2.655,2.655,0,0,1,47.6,3.39a2.866,2.866,0,0,1,2.43,1.156A5.208,5.208,0,0,1,50.9,7.734Zm-2.258-.164a3.33,3.33,0,0,0-.418-1.82,1.362,1.362,0,0,0-1.215-.641,1.479,1.479,0,0,0-1.461.813V9.5a1.5,1.5,0,0,0,1.477.836q1.617,0,1.617-2.648" fill="#fff"/>
        <path id="Trazado_158944" data-name="Trazado 158944" d="M57.678,11.141a2.833,2.833,0,0,1-2.313,1.016,2.671,2.671,0,0,1-2.074-.782,3.334,3.334,0,0,1-.73-2.289V3.547h2.258V9.014q0,1.323,1.2,1.322a1.629,1.629,0,0,0,1.578-.8V3.547h2.266V12H57.74Z" fill="#fff"/>
        <path id="Trazado_158945" data-name="Trazado 158945" d="M65.779,12.156a4.152,4.152,0,0,1-3.028-1.14,4.055,4.055,0,0,1-1.168-3.039V7.758a5.1,5.1,0,0,1,.493-2.277A3.616,3.616,0,0,1,63.47,3.934a3.9,3.9,0,0,1,2.059-.543,3.508,3.508,0,0,1,2.73,1.093,4.446,4.446,0,0,1,1,3.1v.922H63.873a2.093,2.093,0,0,0,.66,1.328,2,2,0,0,0,1.394.5,2.439,2.439,0,0,0,2.039-.945l1.11,1.242A3.4,3.4,0,0,1,67.7,11.754a4.5,4.5,0,0,1-1.922.4m-.258-6.945a1.408,1.408,0,0,0-1.09.455,2.356,2.356,0,0,0-.535,1.3h3.141V6.788a1.686,1.686,0,0,0-.407-1.165,1.457,1.457,0,0,0-1.109-.412" fill="#fff"/>
        <path id="Trazado_158946" data-name="Trazado 158946" d="M75.435,9.664a.728.728,0,0,0-.41-.652,4.623,4.623,0,0,0-1.317-.426q-3.015-.633-3.015-2.563a2.324,2.324,0,0,1,.933-1.879,3.77,3.77,0,0,1,2.442-.753,4.055,4.055,0,0,1,2.574.757,2.387,2.387,0,0,1,.965,1.969H75.349a1.094,1.094,0,0,0-.312-.8A1.324,1.324,0,0,0,74.06,5a1.351,1.351,0,0,0-.883.258.814.814,0,0,0-.312.656.694.694,0,0,0,.355.605,3.65,3.65,0,0,0,1.2.4,9.719,9.719,0,0,1,1.422.379A2.335,2.335,0,0,1,77.63,9.57a2.2,2.2,0,0,1-.992,1.871,4.274,4.274,0,0,1-2.562.715,4.468,4.468,0,0,1-1.887-.379A3.155,3.155,0,0,1,70.9,10.738a2.41,2.41,0,0,1-.469-1.426h2.141a1.176,1.176,0,0,0,.445.922,1.765,1.765,0,0,0,1.11.321,1.636,1.636,0,0,0,.98-.246.766.766,0,0,0,.332-.645" fill="#fff"/>
        <path id="Trazado_158947" data-name="Trazado 158947" d="M82.106,1.469V3.547h1.445V5.2H82.106V9.422a1.007,1.007,0,0,0,.18.672.9.9,0,0,0,.687.2,3.554,3.554,0,0,0,.664-.055v1.711a4.629,4.629,0,0,1-1.367.2,2.156,2.156,0,0,1-2.422-2.4V5.2H78.614V3.547h1.234V1.469Z" fill="#fff"/>
        <path id="Trazado_158948" data-name="Trazado 158948" d="M84.544,7.7a5,5,0,0,1,.485-2.242,3.539,3.539,0,0,1,1.394-1.524,4.072,4.072,0,0,1,2.113-.539,3.848,3.848,0,0,1,2.793,1.047,4.207,4.207,0,0,1,1.207,2.844l.016.578a4.418,4.418,0,0,1-1.086,3.121,4.208,4.208,0,0,1-5.832,0A4.494,4.494,0,0,1,84.544,7.8Zm2.258.16A3.152,3.152,0,0,0,87.255,9.7a1.629,1.629,0,0,0,2.578.008,3.461,3.461,0,0,0,.461-2.015,3.13,3.13,0,0,0-.461-1.831,1.5,1.5,0,0,0-1.3-.65,1.472,1.472,0,0,0-1.281.646,3.51,3.51,0,0,0-.453,2" fill="#fff"/>
        <path id="Trazado_158949" data-name="Trazado 158949" d="M98.215,7.711A5.088,5.088,0,0,1,99.1,4.563a2.874,2.874,0,0,1,2.426-1.172,2.59,2.59,0,0,1,2.039.922V0h2.265V12h-2.039l-.109-.9a2.658,2.658,0,0,1-2.172,1.054,2.866,2.866,0,0,1-2.394-1.175,5.259,5.259,0,0,1-.9-3.27m2.258.168a3.338,3.338,0,0,0,.414,1.823,1.347,1.347,0,0,0,1.2.634,1.513,1.513,0,0,0,1.477-.884V6.11a1.491,1.491,0,0,0-1.461-.883q-1.634,0-1.633,2.652" fill="#fff"/>
        <path id="Trazado_158950" data-name="Trazado 158950" d="M111.793,12.156a4.152,4.152,0,0,1-3.028-1.14A4.055,4.055,0,0,1,107.6,7.977V7.758a5.1,5.1,0,0,1,.493-2.277,3.616,3.616,0,0,1,1.394-1.547,3.9,3.9,0,0,1,2.059-.543,3.508,3.508,0,0,1,2.73,1.093,4.446,4.446,0,0,1,1,3.1v.922h-5.382a2.093,2.093,0,0,0,.66,1.328,2,2,0,0,0,1.394.5,2.439,2.439,0,0,0,2.039-.945l1.11,1.242a3.4,3.4,0,0,1-1.375,1.121,4.5,4.5,0,0,1-1.922.4m-.258-6.945a1.408,1.408,0,0,0-1.09.455,2.356,2.356,0,0,0-.535,1.3h3.141V6.788a1.686,1.686,0,0,0-.407-1.165,1.457,1.457,0,0,0-1.109-.412" fill="#fff"/>
        <rect id="Rectángulo_11831" data-name="Rectángulo 11831" width="2.266" height="12" transform="translate(116.987 0)" fill="#fff"/>
        <path id="Trazado_158951" data-name="Trazado 158951" d="M133.347,7.851a5.072,5.072,0,0,1-.887,3.129,2.844,2.844,0,0,1-2.394,1.176A2.633,2.633,0,0,1,128,11.265v3.984h-2.258V3.546h2.094l.078.828a2.654,2.654,0,0,1,2.141-.984,2.867,2.867,0,0,1,2.43,1.156,5.208,5.208,0,0,1,.867,3.188Zm-2.258-.164a3.33,3.33,0,0,0-.418-1.82,1.363,1.363,0,0,0-1.215-.641A1.478,1.478,0,0,0,128,6.039V9.5a1.5,1.5,0,0,0,1.477.836q1.617,0,1.617-2.648" fill="#fff"/>
        <path id="Trazado_158952" data-name="Trazado 158952" d="M139.814,5.664A6.075,6.075,0,0,0,139,5.6a1.653,1.653,0,0,0-1.68.867V12h-2.258V3.547H137.2l.062,1.008a2.09,2.09,0,0,1,1.883-1.164,2.385,2.385,0,0,1,.7.1Z" fill="#fff"/>
        <path id="Trazado_158953" data-name="Trazado 158953" d="M140.588,7.7a5,5,0,0,1,.485-2.242,3.539,3.539,0,0,1,1.394-1.524,4.072,4.072,0,0,1,2.113-.539,3.848,3.848,0,0,1,2.793,1.047,4.207,4.207,0,0,1,1.207,2.844l.016.578a4.418,4.418,0,0,1-1.086,3.121,4.208,4.208,0,0,1-5.832,0,4.494,4.494,0,0,1-1.09-3.188Zm2.258.16A3.152,3.152,0,0,0,143.3,9.7a1.629,1.629,0,0,0,2.578.008,3.461,3.461,0,0,0,.461-2.015,3.13,3.13,0,0,0-.461-1.831,1.5,1.5,0,0,0-1.3-.65,1.472,1.472,0,0,0-1.281.646,3.51,3.51,0,0,0-.453,2" fill="#fff"/>
        <path id="Trazado_158954" data-name="Trazado 158954" d="M153.346,8.805l1.562-5.258h2.422l-3.4,9.766-.188.445a2.575,2.575,0,0,1-2.5,1.656,3.548,3.548,0,0,1-1-.148V13.555l.344.008a1.859,1.859,0,0,0,.957-.2,1.278,1.278,0,0,0,.5-.648l.266-.695-2.961-8.477h2.43Z" fill="#fff"/>
        <path id="Trazado_158955" data-name="Trazado 158955" d="M162.329,12.156a4.154,4.154,0,0,1-3.028-1.14,4.059,4.059,0,0,1-1.168-3.039V7.758a5.1,5.1,0,0,1,.493-2.277,3.616,3.616,0,0,1,1.394-1.547,3.907,3.907,0,0,1,2.059-.543,3.508,3.508,0,0,1,2.73,1.093,4.446,4.446,0,0,1,1,3.1v.922h-5.382a2.1,2.1,0,0,0,.66,1.328,2,2,0,0,0,1.394.5,2.436,2.436,0,0,0,2.039-.945l1.11,1.242a3.4,3.4,0,0,1-1.375,1.121,4.5,4.5,0,0,1-1.922.4m-.258-6.945a1.408,1.408,0,0,0-1.09.455,2.364,2.364,0,0,0-.535,1.3h3.141V6.788a1.681,1.681,0,0,0-.407-1.165,1.457,1.457,0,0,0-1.109-.412" fill="#fff"/>
        <path id="Trazado_158956" data-name="Trazado 158956" d="M170.923,10.336a1.478,1.478,0,0,0,1.016-.344,1.208,1.208,0,0,0,.406-.914h2.117a2.886,2.886,0,0,1-.469,1.574,3.086,3.086,0,0,1-1.261,1.11,3.967,3.967,0,0,1-1.77.394A3.667,3.667,0,0,1,168.1,11a4.556,4.556,0,0,1-1.047-3.184V7.672A4.506,4.506,0,0,1,168.1,4.555a3.622,3.622,0,0,1,2.851-1.164,3.551,3.551,0,0,1,2.543.9,3.2,3.2,0,0,1,.973,2.4h-2.117a1.559,1.559,0,0,0-.406-1.072,1.511,1.511,0,0,0-2.223.163,3.327,3.327,0,0,0-.4,1.866v.235a3.374,3.374,0,0,0,.4,1.878,1.376,1.376,0,0,0,1.211.571" fill="#fff"/>
        <path id="Trazado_158957" data-name="Trazado 158957" d="M178.774,1.469V3.547h1.445V5.2h-1.445V9.422a1.007,1.007,0,0,0,.18.672.9.9,0,0,0,.687.2,3.553,3.553,0,0,0,.664-.055v1.711a4.628,4.628,0,0,1-1.367.2,2.156,2.156,0,0,1-2.422-2.4V5.2h-1.234V3.547h1.234V1.469Z" fill="#fff"/>
        <path id="Trazado_158958" data-name="Trazado 158958" d="M181.211,7.7a5,5,0,0,1,.485-2.242,3.551,3.551,0,0,1,1.394-1.524A4.074,4.074,0,0,1,185.2,3.39,3.848,3.848,0,0,1,188,4.437,4.2,4.2,0,0,1,189.2,7.281l.016.578a4.418,4.418,0,0,1-1.086,3.121,4.208,4.208,0,0,1-5.832,0,4.494,4.494,0,0,1-1.09-3.188Zm2.258.16a3.16,3.16,0,0,0,.453,1.843,1.629,1.629,0,0,0,2.578.008,3.454,3.454,0,0,0,.461-2.015A3.122,3.122,0,0,0,186.5,5.86a1.5,1.5,0,0,0-1.3-.65,1.474,1.474,0,0,0-1.281.646,3.518,3.518,0,0,0-.453,2" fill="#fff"/>
      </g>
    </g>
  </g>
</svg>
