<svg xmlns="http://www.w3.org/2000/svg" xmlns:xlink="http://www.w3.org/1999/xlink" width="609.899" height="124.394" viewBox="0 0 609.899 124.394">
  <defs>
    <linearGradient id="linear-gradient" x1="0.5" x2="0.5" y2="1" gradientUnits="objectBoundingBox">
      <stop offset="0" stop-color="#fff" stop-opacity="0"/>
      <stop offset="1" stop-color="#fff"/>
    </linearGradient>
    <clipPath id="clip-path">
      <rect id="Rectángulo_11835" data-name="Rectángulo 11835" width="241.975" height="15.414" transform="translate(0 0)" fill="none"/>
    </clipPath>
  </defs>
  <g id="Grupo_71388" data-name="Grupo 71388" transform="translate(-368 10368.394)">
    <path id="Trazado_158760" data-name="Trazado 158760" d="M9.26,0H598.639a9.26,9.26,0,0,1,9.26,9.26V93.986a9.26,9.26,0,0,1-9.26,9.26H9.26A9.26,9.26,0,0,1,0,93.986V9.26A9.26,9.26,0,0,1,9.26,0Z" transform="translate(369 -10367.394)" stroke="#d44f4a" stroke-width="2" fill="url(#linear-gradient)"/>
    <g id="Grupo_71387" data-name="Grupo 71387">
      <rect id="Rectángulo_11817" data-name="Rectángulo 11817" width="294" height="35" rx="14" transform="translate(683 -10279)" fill="#d44f4a"/>
      <g id="Grupo_71368" data-name="Grupo 71368" transform="translate(-7 102.522)">
        <path id="Trazado_158834" data-name="Trazado 158834" d="M0,218.69a11.735,11.735,0,0,1,3.814-8.54q4.164-4.161,4.164-7.36V201.3h4.475v1.976a11.64,11.64,0,0,1-3.814,8.445q-4.164,4.127-4.164,7.109v3.814q0,3.276,3.039,3.274h.039q3.078,0,3.08-3.274v-4.668h4.475v4.668q0,7.69-7.573,7.691Q0,230.333,0,222.642Zm12.782-21.846H7.456v-5.326h5.326Z" transform="translate(503 -10629.682)" fill="#636363"/>
        <path id="Trazado_158835" data-name="Trazado 158835" d="M25.186,220.717q0,6.878-6.257,7.652.176,2.4,6.257,2.439v3.545q-4.3,0-6.044-.929-2.131-1.086-2.188-5.034-6.878-.509-6.876-7.672V196.644q0-7.668,7.553-7.668t7.555,7.668Zm-4.475-24.073q0-3.254-3.06-3.274h-.039q-3.063,0-3.06,3.274v24.073q0,3.276,3.078,3.274t3.08-3.274Z" transform="translate(513.646 -10632.367)" fill="#636363"/>
        <path id="Trazado_158836" data-name="Trazado 158836" d="M34.7,218.98q0,6.74-7.555,6.759-7.557,0-7.555-6.759V191.594h4.475V218.98q0,2.865,3.08,2.866t3.078-2.866V191.594H34.7Z" transform="translate(523.693 -10629.602)" fill="#636363"/>
        <rect id="Rectángulo_11820" data-name="Rectángulo 11820" width="4.475" height="33.584" transform="translate(563.33 -10438.086)" fill="#636363"/>
        <path id="Trazado_158837" data-name="Trazado 158837" d="M34.011,194.551H47.529v3.874H38.486v10.983h7.785V213.3H38.486v10.983h9.044v3.854H34.011Zm12.725-5.229-5.075,3.255H38.93l4.2-3.856h3.6Z" transform="translate(538.927 -10632.637)" fill="#636363"/>
        <path id="Trazado_158838" data-name="Trazado 158838" d="M42.94,191.556h4.59L54,215.689V191.634l4.047-.058V225.14h-4.59L47.2,201.628V225.14H42.94Z" transform="translate(548.358 -10629.642)" fill="#636363"/>
        <path id="Trazado_158839" data-name="Trazado 158839" d="M57.52,225.14V191.556h4.475v29.73h9.044v3.854Z" transform="translate(563.76 -10629.642)" fill="#636363"/>
        <path id="Trazado_158840" data-name="Trazado 158840" d="M80.615,219.26q0,6.737-7.555,6.759-7.554,0-7.553-6.759V198.07q0-6.74,7.553-6.739t7.555,6.739ZM76.14,198.07q0-2.866-3.06-2.867h-.039q-3.063,0-3.06,2.867v21.19q0,2.881,3.078,2.885t3.08-2.885Z" transform="translate(572.196 -10629.88)" fill="#636363"/>
        <path id="Trazado_158841" data-name="Trazado 158841" d="M91.484,225.14H84.725l-3.932-21.924-1.742-11.659h4.512L88.1,221.769l4.532-30.214H97.18l-1.783,11.7Z" transform="translate(586.504 -10629.642)" fill="#636363"/>
        <path id="Trazado_158842" data-name="Trazado 158842" d="M104.968,213.462l1.781,11.678H102.2l-1.1-7.339H94.256l-1.123,7.339H88.62L90.364,213.5,94.3,191.556h6.759Zm-4.456.444-2.846-18.978-2.848,18.978Z" transform="translate(596.611 -10629.642)" fill="#636363"/>
        <path id="Trazado_158843" data-name="Trazado 158843" d="M119.322,213.462,121.1,225.14h-4.551l-1.1-7.339H108.61l-1.123,7.339h-4.514l1.744-11.639,3.932-21.945h6.759Zm-4.456.444-2.846-18.978-2.848,18.978Z" transform="translate(611.774 -10629.642)" fill="#636363"/>
        <path id="Trazado_158844" data-name="Trazado 158844" d="M118.176,191.556h4.475v14.857h6.157V191.556h4.475V225.14h-4.475V210.3h-6.157V225.14h-4.475Z" transform="translate(627.832 -10629.642)" fill="#636363"/>
        <path id="Trazado_158845" data-name="Trazado 158845" d="M143.471,213.462l1.781,11.678H140.7l-1.1-7.339h-6.837l-1.123,7.339h-4.512l1.742-11.639,3.934-21.945h6.759Zm-4.454.444-2.848-18.978-2.848,18.978Z" transform="translate(637.285 -10629.642)" fill="#636363"/>
        <path id="Trazado_158846" data-name="Trazado 158846" d="M152.461,219.259q0,6.74-7.555,6.759-7.551,0-7.553-6.759v-21.19q0-6.736,7.553-6.739t7.555,6.739v4.146h-4.475v-4.146q0-2.862-3.06-2.864h-.039q-3.06,0-3.06,2.864v21.19q0,2.887,3.078,2.885t3.08-2.885v-4.127h4.475Z" transform="translate(648.089 -10629.881)" fill="#636363"/>
        <path id="Trazado_158847" data-name="Trazado 158847" d="M146.866,191.556h13.518v3.874H151.34v10.983h7.785V210.3H151.34v10.983h9.044v3.854H146.866Z" transform="translate(658.137 -10629.642)" fill="#636363"/>
        <path id="Trazado_158848" data-name="Trazado 158848" d="M155.418,191.556h7.67q6.952.022,6.954,6.759v5.211q0,4.2-4.629,5.712l6.292,15.9h-4.937l-5.133-15.278-1.744.212v15.067h-4.475Zm4.475,3.872v10.983h1.9a7,7,0,0,0,1.859-.175,2.662,2.662,0,0,0,1.919-2.71v-5.211q0-2.887-3.062-2.887Z" transform="translate(667.171 -10629.642)" fill="#636363"/>
        <path id="Trazado_158849" data-name="Trazado 158849" d="M179.859,200.663a11.732,11.732,0,0,1-3.815,8.542q-4.164,4.164-4.164,7.36v1.491h-4.475v-1.974a11.632,11.632,0,0,1,3.817-8.445q4.164-4.127,4.162-7.109v-3.815q0-3.276-3.039-3.274h-.039q-3.081,0-3.08,3.274v4.666h-4.475v-4.666q0-7.69,7.573-7.691,7.535,0,7.534,7.691Zm-12.782,21.848H172.4v5.326h-5.326Z" transform="translate(677.03 -10632.318)" fill="#636363"/>
      </g>
      <g id="Grupo_71382" data-name="Grupo 71382" transform="translate(709 -10269)">
        <path id="Trazado_158959" data-name="Trazado 158959" d="M0,.625V12H7.625V10.117H2.344V7.07h4.5V5.234h-4.5V2.523H7.609V.625Z" fill="#fff"/>
        <g id="Grupo_71381" data-name="Grupo 71381">
          <g id="Grupo_71380" data-name="Grupo 71380" clip-path="url(#clip-path)">
            <path id="Trazado_158960" data-name="Trazado 158960" d="M8.671,7.7a5.056,5.056,0,0,1,.887-3.149A2.9,2.9,0,0,1,11.991,3.39a2.6,2.6,0,0,1,2.165,1.039l.148-.883h1.984v11.7H14.023V11.273a2.6,2.6,0,0,1-2.047.883A2.877,2.877,0,0,1,9.57,10.984a5.3,5.3,0,0,1-.9-3.289m2.258.16A3.315,3.315,0,0,0,11.355,9.7a1.361,1.361,0,0,0,1.2.633,1.519,1.519,0,0,0,1.469-.829v-3.5a1.506,1.506,0,0,0-1.453-.8,1.378,1.378,0,0,0-1.211.634,3.666,3.666,0,0,0-.43,2.011" fill="#fff"/>
            <path id="Trazado_158961" data-name="Trazado 158961" d="M23.444,11.141a2.833,2.833,0,0,1-2.313,1.016,2.671,2.671,0,0,1-2.074-.782,3.339,3.339,0,0,1-.73-2.289V3.547h2.258V9.014q0,1.323,1.2,1.322a1.628,1.628,0,0,0,1.578-.8V3.547h2.266V12H23.506Z" fill="#fff"/>
            <path id="Trazado_158962" data-name="Trazado 158962" d="M27.64,1.359a1.113,1.113,0,0,1,.339-.836,1.465,1.465,0,0,1,1.848,0,1.106,1.106,0,0,1,.344.836,1.108,1.108,0,0,1-.348.844,1.449,1.449,0,0,1-1.836,0,1.108,1.108,0,0,1-.347-.844M30.038,12H27.772V3.547h2.266Z" fill="#fff"/>
            <path id="Trazado_158963" data-name="Trazado 158963" d="M39.826,7.851a5.071,5.071,0,0,1-.887,3.129,2.843,2.843,0,0,1-2.394,1.176,2.635,2.635,0,0,1-2.071-.891v3.984H32.216V3.546H34.31l.078.828a2.655,2.655,0,0,1,2.141-.984,2.866,2.866,0,0,1,2.43,1.156,5.208,5.208,0,0,1,.867,3.188Zm-2.258-.164a3.33,3.33,0,0,0-.418-1.82,1.362,1.362,0,0,0-1.215-.641,1.479,1.479,0,0,0-1.461.813V9.5a1.5,1.5,0,0,0,1.477.836q1.617,0,1.617-2.648" fill="#fff"/>
            <path id="Trazado_158964" data-name="Trazado 158964" d="M41.193,7.7a5,5,0,0,1,.485-2.242,3.551,3.551,0,0,1,1.394-1.524,4.074,4.074,0,0,1,2.113-.539,3.848,3.848,0,0,1,2.793,1.047,4.2,4.2,0,0,1,1.207,2.844l.016.578a4.418,4.418,0,0,1-1.086,3.121,4.208,4.208,0,0,1-5.832,0A4.494,4.494,0,0,1,41.193,7.8Zm2.258.16A3.16,3.16,0,0,0,43.9,9.7a1.629,1.629,0,0,0,2.578.008,3.453,3.453,0,0,0,.461-2.015,3.122,3.122,0,0,0-.461-1.831,1.5,1.5,0,0,0-1.3-.65,1.474,1.474,0,0,0-1.281.646,3.518,3.518,0,0,0-.453,2" fill="#fff"/>
            <path id="Trazado_158965" data-name="Trazado 158965" d="M59.967,5.664a6.075,6.075,0,0,0-.812-.062,1.653,1.653,0,0,0-1.68.867V12H55.217V3.547H57.35l.062,1.008a2.089,2.089,0,0,1,1.883-1.164,2.385,2.385,0,0,1,.7.1Z" fill="#fff"/>
            <path id="Trazado_158966" data-name="Trazado 158966" d="M65.114,12.156a4.154,4.154,0,0,1-3.028-1.14,4.059,4.059,0,0,1-1.168-3.039V7.758a5.1,5.1,0,0,1,.493-2.277,3.616,3.616,0,0,1,1.394-1.547,3.907,3.907,0,0,1,2.059-.543,3.508,3.508,0,0,1,2.73,1.093,4.446,4.446,0,0,1,1,3.1v.922H63.208a2.1,2.1,0,0,0,.66,1.328,2,2,0,0,0,1.394.5A2.436,2.436,0,0,0,67.3,9.391l1.11,1.242a3.4,3.4,0,0,1-1.375,1.121,4.5,4.5,0,0,1-1.922.4m-.258-6.945a1.408,1.408,0,0,0-1.09.455,2.364,2.364,0,0,0-.535,1.3h3.141V6.788a1.681,1.681,0,0,0-.407-1.165,1.457,1.457,0,0,0-1.109-.412" fill="#fff"/>
            <path id="Trazado_158967" data-name="Trazado 158967" d="M74.771,9.664a.729.729,0,0,0-.411-.652,4.634,4.634,0,0,0-1.317-.426q-3.015-.633-3.015-2.563a2.321,2.321,0,0,1,.933-1.879A3.769,3.769,0,0,1,73.4,3.391a4.057,4.057,0,0,1,2.574.757,2.39,2.39,0,0,1,.965,1.969H74.684a1.094,1.094,0,0,0-.312-.8A1.324,1.324,0,0,0,73.4,5a1.35,1.35,0,0,0-.884.258.811.811,0,0,0-.312.656.694.694,0,0,0,.355.605,3.641,3.641,0,0,0,1.2.4,9.719,9.719,0,0,1,1.422.379A2.335,2.335,0,0,1,76.965,9.57a2.2,2.2,0,0,1-.992,1.871,4.276,4.276,0,0,1-2.562.715,4.462,4.462,0,0,1-1.887-.379,3.155,3.155,0,0,1-1.293-1.039,2.41,2.41,0,0,1-.469-1.426H71.9a1.179,1.179,0,0,0,.445.922,1.765,1.765,0,0,0,1.11.321,1.638,1.638,0,0,0,.98-.246.767.767,0,0,0,.333-.645" fill="#fff"/>
            <path id="Trazado_158968" data-name="Trazado 158968" d="M86.349,7.851a5.071,5.071,0,0,1-.887,3.129,2.844,2.844,0,0,1-2.394,1.176A2.633,2.633,0,0,1,81,11.265v3.984H78.739V3.546h2.094l.078.828a2.654,2.654,0,0,1,2.141-.984,2.867,2.867,0,0,1,2.43,1.156,5.208,5.208,0,0,1,.867,3.188Zm-2.258-.164a3.33,3.33,0,0,0-.418-1.82,1.363,1.363,0,0,0-1.215-.641A1.478,1.478,0,0,0,81,6.039V9.5a1.5,1.5,0,0,0,1.477.836q1.617,0,1.617-2.648" fill="#fff"/>
            <path id="Trazado_158969" data-name="Trazado 158969" d="M87.715,7.7A5,5,0,0,1,88.2,5.453a3.551,3.551,0,0,1,1.394-1.524,4.074,4.074,0,0,1,2.113-.539A3.848,3.848,0,0,1,94.5,4.437a4.2,4.2,0,0,1,1.207,2.844l.016.578a4.418,4.418,0,0,1-1.086,3.121,4.208,4.208,0,0,1-5.832,0A4.494,4.494,0,0,1,87.715,7.8Zm2.258.16A3.16,3.16,0,0,0,90.426,9.7,1.629,1.629,0,0,0,93,9.706a3.454,3.454,0,0,0,.461-2.015A3.122,3.122,0,0,0,93,5.86a1.5,1.5,0,0,0-1.3-.65,1.473,1.473,0,0,0-1.281.646,3.518,3.518,0,0,0-.453,2" fill="#fff"/>
            <path id="Trazado_158970" data-name="Trazado 158970" d="M99.512,3.547l.07.977a2.952,2.952,0,0,1,2.43-1.133,2.45,2.45,0,0,1,2,.789,3.687,3.687,0,0,1,.672,2.359V12h-2.258V6.594a1.465,1.465,0,0,0-.312-1.043,1.4,1.4,0,0,0-1.04-.324,1.551,1.551,0,0,0-1.429.812V12H97.387V3.547Z" fill="#fff"/>
            <path id="Trazado_158971" data-name="Trazado 158971" d="M111.293,9.664a.728.728,0,0,0-.41-.652,4.635,4.635,0,0,0-1.317-.426q-3.015-.633-3.015-2.563a2.321,2.321,0,0,1,.933-1.879,3.769,3.769,0,0,1,2.442-.753,4.057,4.057,0,0,1,2.574.757,2.39,2.39,0,0,1,.965,1.969h-2.258a1.094,1.094,0,0,0-.312-.8A1.325,1.325,0,0,0,109.918,5a1.349,1.349,0,0,0-.883.258.811.811,0,0,0-.312.656.694.694,0,0,0,.355.605,3.641,3.641,0,0,0,1.2.4A9.719,9.719,0,0,1,111.7,7.3a2.335,2.335,0,0,1,1.789,2.273,2.2,2.2,0,0,1-.992,1.871,4.276,4.276,0,0,1-2.562.715,4.462,4.462,0,0,1-1.887-.379,3.155,3.155,0,0,1-1.293-1.039,2.41,2.41,0,0,1-.469-1.426h2.141a1.176,1.176,0,0,0,.445.922,1.765,1.765,0,0,0,1.11.321,1.638,1.638,0,0,0,.98-.246.768.768,0,0,0,.332-.645" fill="#fff"/>
            <path id="Trazado_158972" data-name="Trazado 158972" d="M120.159,12a2.489,2.489,0,0,1-.226-.758,2.731,2.731,0,0,1-2.133.915,3,3,0,0,1-2.059-.719,2.313,2.313,0,0,1-.816-1.813,2.389,2.389,0,0,1,1-2.062,4.908,4.908,0,0,1,2.879-.727h1.039V6.352a1.4,1.4,0,0,0-.3-.938,1.183,1.183,0,0,0-.949-.351,1.348,1.348,0,0,0-.895.273.934.934,0,0,0-.324.75h-2.258a2.276,2.276,0,0,1,.453-1.359,3,3,0,0,1,1.282-.981,4.665,4.665,0,0,1,1.859-.355,3.694,3.694,0,0,1,2.481.785,2.747,2.747,0,0,1,.918,2.207v3.664a4.034,4.034,0,0,0,.335,1.82V12Zm-1.867-1.57a1.939,1.939,0,0,0,.922-.223,1.463,1.463,0,0,0,.625-.6V8.157H119q-1.7,0-1.805,1.171l-.007.133a.9.9,0,0,0,.3.7,1.153,1.153,0,0,0,.812.273" fill="#fff"/>
            <path id="Trazado_158973" data-name="Trazado 158973" d="M131.777,7.851a5.118,5.118,0,0,1-.867,3.168,2.874,2.874,0,0,1-2.422,1.137,2.641,2.641,0,0,1-2.2-1.055l-.1.9H124.16V0h2.257V4.3a2.573,2.573,0,0,1,2.055-.914A2.9,2.9,0,0,1,130.9,4.527a5.125,5.125,0,0,1,.879,3.2Zm-2.258-.164a3.37,3.37,0,0,0-.406-1.871,1.374,1.374,0,0,0-1.211-.59,1.49,1.49,0,0,0-1.485.883V9.445a1.509,1.509,0,0,0,1.5.89,1.4,1.4,0,0,0,1.438-1.078,5.57,5.57,0,0,0,.164-1.57" fill="#fff"/>
            <rect id="Rectángulo_11833" data-name="Rectángulo 11833" width="2.266" height="12" transform="translate(133.604 0)" fill="#fff"/>
            <path id="Trazado_158974" data-name="Trazado 158974" d="M141.94,12.156a4.154,4.154,0,0,1-3.028-1.14,4.059,4.059,0,0,1-1.168-3.039V7.758a5.1,5.1,0,0,1,.493-2.277,3.616,3.616,0,0,1,1.394-1.547,3.907,3.907,0,0,1,2.059-.543,3.508,3.508,0,0,1,2.73,1.093,4.446,4.446,0,0,1,1,3.1v.922h-5.382a2.1,2.1,0,0,0,.66,1.328,2,2,0,0,0,1.394.5,2.436,2.436,0,0,0,2.039-.945l1.11,1.242a3.4,3.4,0,0,1-1.375,1.121,4.5,4.5,0,0,1-1.922.4m-.258-6.945a1.408,1.408,0,0,0-1.09.455,2.363,2.363,0,0,0-.535,1.3H143.2V6.788a1.681,1.681,0,0,0-.407-1.165,1.457,1.457,0,0,0-1.109-.412" fill="#fff"/>
            <path id="Trazado_158975" data-name="Trazado 158975" d="M150.97,7.711a5.088,5.088,0,0,1,.887-3.148,2.876,2.876,0,0,1,2.426-1.172,2.59,2.59,0,0,1,2.039.922V0h2.265V12h-2.039l-.109-.9a2.658,2.658,0,0,1-2.172,1.054,2.866,2.866,0,0,1-2.394-1.175,5.259,5.259,0,0,1-.9-3.27m2.259.168a3.338,3.338,0,0,0,.413,1.823,1.347,1.347,0,0,0,1.2.634,1.513,1.513,0,0,0,1.477-.884V6.11a1.491,1.491,0,0,0-1.461-.883q-1.633,0-1.632,2.652" fill="#fff"/>
            <path id="Trazado_158976" data-name="Trazado 158976" d="M164.548,12.156a4.154,4.154,0,0,1-3.028-1.14,4.059,4.059,0,0,1-1.168-3.039V7.758a5.1,5.1,0,0,1,.493-2.277,3.616,3.616,0,0,1,1.394-1.547,3.907,3.907,0,0,1,2.059-.543,3.508,3.508,0,0,1,2.73,1.093,4.446,4.446,0,0,1,1,3.1v.922h-5.382a2.1,2.1,0,0,0,.66,1.328,2,2,0,0,0,1.394.5,2.436,2.436,0,0,0,2.039-.945l1.11,1.242a3.4,3.4,0,0,1-1.375,1.121,4.5,4.5,0,0,1-1.922.4m-.258-6.945a1.408,1.408,0,0,0-1.09.455,2.364,2.364,0,0,0-.535,1.3h3.141V6.788a1.681,1.681,0,0,0-.407-1.165,1.457,1.457,0,0,0-1.109-.412" fill="#fff"/>
            <rect id="Rectángulo_11834" data-name="Rectángulo 11834" width="2.266" height="12" transform="translate(169.743 0)" fill="#fff"/>
            <path id="Trazado_158977" data-name="Trazado 158977" d="M186.1,7.851a5.071,5.071,0,0,1-.887,3.129,2.843,2.843,0,0,1-2.394,1.176,2.635,2.635,0,0,1-2.071-.891v3.984h-2.258V3.546h2.094l.078.828A2.655,2.655,0,0,1,182.8,3.39a2.866,2.866,0,0,1,2.43,1.156,5.208,5.208,0,0,1,.867,3.188Zm-2.258-.164a3.33,3.33,0,0,0-.418-1.82,1.362,1.362,0,0,0-1.215-.641,1.479,1.479,0,0,0-1.461.813V9.5a1.5,1.5,0,0,0,1.477.836q1.617,0,1.617-2.648" fill="#fff"/>
            <path id="Trazado_158978" data-name="Trazado 158978" d="M192.57,5.664a6.076,6.076,0,0,0-.812-.062,1.653,1.653,0,0,0-1.68.867V12H187.82V3.547h2.133l.062,1.008A2.09,2.09,0,0,1,191.9,3.391a2.385,2.385,0,0,1,.7.1Z" fill="#fff"/>
            <path id="Trazado_158979" data-name="Trazado 158979" d="M193.344,7.7a5,5,0,0,1,.485-2.242,3.539,3.539,0,0,1,1.394-1.524,4.072,4.072,0,0,1,2.113-.539,3.848,3.848,0,0,1,2.793,1.047,4.207,4.207,0,0,1,1.207,2.844l.016.578a4.418,4.418,0,0,1-1.086,3.121,4.208,4.208,0,0,1-5.832,0,4.494,4.494,0,0,1-1.09-3.188Zm2.258.16a3.152,3.152,0,0,0,.453,1.843,1.629,1.629,0,0,0,2.578.008,3.461,3.461,0,0,0,.461-2.015,3.13,3.13,0,0,0-.461-1.831,1.5,1.5,0,0,0-1.3-.65,1.472,1.472,0,0,0-1.281.646,3.51,3.51,0,0,0-.453,2" fill="#fff"/>
            <path id="Trazado_158980" data-name="Trazado 158980" d="M206.1,8.805l1.562-5.258h2.422l-3.4,9.766-.188.445a2.574,2.574,0,0,1-2.5,1.656,3.553,3.553,0,0,1-1-.148V13.555l.344.008a1.859,1.859,0,0,0,.957-.2,1.278,1.278,0,0,0,.5-.648l.266-.695L202.1,3.547h2.43Z" fill="#fff"/>
            <path id="Trazado_158981" data-name="Trazado 158981" d="M215.085,12.156a4.154,4.154,0,0,1-3.028-1.14,4.059,4.059,0,0,1-1.168-3.039V7.758a5.1,5.1,0,0,1,.493-2.277,3.616,3.616,0,0,1,1.394-1.547,3.907,3.907,0,0,1,2.059-.543,3.508,3.508,0,0,1,2.73,1.093,4.446,4.446,0,0,1,1,3.1v.922h-5.382a2.1,2.1,0,0,0,.66,1.328,2,2,0,0,0,1.394.5,2.436,2.436,0,0,0,2.039-.945l1.11,1.242a3.4,3.4,0,0,1-1.375,1.121,4.5,4.5,0,0,1-1.922.4m-.258-6.945a1.408,1.408,0,0,0-1.09.455,2.364,2.364,0,0,0-.535,1.3h3.141V6.788a1.681,1.681,0,0,0-.407-1.165,1.457,1.457,0,0,0-1.109-.412" fill="#fff"/>
            <path id="Trazado_158982" data-name="Trazado 158982" d="M223.679,10.336a1.48,1.48,0,0,0,1.016-.344,1.211,1.211,0,0,0,.406-.914h2.117a2.9,2.9,0,0,1-.469,1.574,3.093,3.093,0,0,1-1.261,1.11,3.967,3.967,0,0,1-1.77.394A3.664,3.664,0,0,1,220.859,11a4.556,4.556,0,0,1-1.047-3.184V7.672a4.506,4.506,0,0,1,1.039-3.117A3.621,3.621,0,0,1,223.7,3.391a3.554,3.554,0,0,1,2.543.9,3.2,3.2,0,0,1,.973,2.4H225.1a1.564,1.564,0,0,0-.406-1.072,1.511,1.511,0,0,0-2.223.163,3.327,3.327,0,0,0-.4,1.866v.235a3.374,3.374,0,0,0,.4,1.878,1.376,1.376,0,0,0,1.211.571" fill="#fff"/>
            <path id="Trazado_158983" data-name="Trazado 158983" d="M231.529,1.469V3.547h1.445V5.2h-1.445V9.422a1.007,1.007,0,0,0,.18.672.9.9,0,0,0,.687.2,3.546,3.546,0,0,0,.664-.055v1.711a4.624,4.624,0,0,1-1.367.2,2.156,2.156,0,0,1-2.422-2.4V5.2h-1.234V3.547h1.234V1.469Z" fill="#fff"/>
            <path id="Trazado_158984" data-name="Trazado 158984" d="M233.967,7.7a5,5,0,0,1,.485-2.242,3.551,3.551,0,0,1,1.394-1.524,4.074,4.074,0,0,1,2.113-.539,3.848,3.848,0,0,1,2.793,1.047,4.2,4.2,0,0,1,1.207,2.844l.016.578a4.418,4.418,0,0,1-1.086,3.121,4.208,4.208,0,0,1-5.832,0,4.494,4.494,0,0,1-1.09-3.188Zm2.258.16a3.16,3.16,0,0,0,.453,1.843,1.629,1.629,0,0,0,2.578.008,3.454,3.454,0,0,0,.461-2.015,3.122,3.122,0,0,0-.461-1.831,1.5,1.5,0,0,0-1.3-.65,1.474,1.474,0,0,0-1.281.646,3.519,3.519,0,0,0-.453,2" fill="#fff"/>
          </g>
        </g>
      </g>
    </g>
  </g>
</svg>
