<svg xmlns="http://www.w3.org/2000/svg" xmlns:xlink="http://www.w3.org/1999/xlink" width="820" height="197.731" viewBox="0 0 820 197.731">
  <defs>
    <clipPath id="clip-path">
      <rect id="Rectángulo_11903" data-name="Rectángulo 11903" width="820" height="197.731" fill="#fff"/>
    </clipPath>
  </defs>
  <g id="Grupo_71534" data-name="Grupo 71534" transform="translate(-390 -4524.269)">
    <g id="Grupo_71521" data-name="Grupo 71521" transform="translate(390 4524.269)">
      <g id="Enmascarar_grupo_71520" data-name="Enmascarar grupo 71520" clip-path="url(#clip-path)">
        <path id="Sustracción_2" data-name="Sustracción 2" d="M1238.635,7234.968H1130.5V7182.01a6.973,6.973,0,0,0,1.01,2.153,5.994,5.994,0,0,0,8.993-.045c.957-1.361,1.442-3.473,1.442-6.277v-3.12c-.025-2.707-.524-4.737-1.482-6.035a4.469,4.469,0,0,0-1.1-1.061h11.253l-4.953,1.859v2.184l4.848-1.781v16.022h2.417v-18.285h85.712a12.7,12.7,0,0,1,10.408,5.507l14.268,20.567a13.386,13.386,0,0,1,0,15.192l-14.268,20.569A12.7,12.7,0,0,1,1238.635,7234.968Zm-102.646-50.759a2.958,2.958,0,0,1-2.7-1.461,9,9,0,0,1-.89-4.53v-3.846a8.633,8.633,0,0,1,.872-4.274,2.923,2.923,0,0,1,2.689-1.391,2.965,2.965,0,0,1,2.716,1.4,8.871,8.871,0,0,1,.857,4.452v3.937a8.656,8.656,0,0,1-.9,4.342A2.92,2.92,0,0,1,1135.989,7184.209Zm-5.491-13.417h0v-3.166h2.1a4.516,4.516,0,0,0-1.152,1.133A6.756,6.756,0,0,0,1130.5,7170.792Z" transform="translate(-1130 -7103.272)" fill="#d44f4a" stroke="rgba(0,0,0,0)" stroke-miterlimit="10" stroke-width="1" opacity="0.51"/>
        <path id="Sustracción_4" data-name="Sustracción 4" d="M1251.566,7234.966H1130a13.518,13.518,0,0,0,3.03-3.323l14.268-22.165a15.355,15.355,0,0,0,0-16.367l-14.268-22.165a13.466,13.466,0,0,0-3.03-3.323h19.207a4.521,4.521,0,0,0-1.155,1.135c-.957,1.343-1.442,3.428-1.442,6.2v3.21a10.475,10.475,0,0,0,1.505,6,5.994,5.994,0,0,0,8.993-.045c.958-1.363,1.443-3.475,1.443-6.277v-3.119c-.027-2.707-.526-4.738-1.482-6.036a4.5,4.5,0,0,0-1.1-1.062h7.917a5.385,5.385,0,0,0-.933.717,5.61,5.61,0,0,0-1.681,4.223h2.4a3.912,3.912,0,0,1,.993-2.84,3.732,3.732,0,0,1,2.787-1.021,3.154,3.154,0,0,1,2.391.95,3.421,3.421,0,0,1,.9,2.43,4.533,4.533,0,0,1-.552,2.139,15.747,15.747,0,0,1-2.008,2.684l-6.549,7.276v1.729h12.4v-1.961h-9.5l5.068-5.5c2.363-2.561,3.561-4.8,3.561-6.653a4.739,4.739,0,0,0-1.532-3.684,4.83,4.83,0,0,0-.646-.49h80.586a12.7,12.7,0,0,1,10.408,5.505l14.268,20.57a13.389,13.389,0,0,1,0,15.19l-14.268,20.569A12.706,12.706,0,0,1,1251.566,7234.966Zm-98.965-50.757a2.954,2.954,0,0,1-2.7-1.462,8.992,8.992,0,0,1-.891-4.53v-3.846a8.646,8.646,0,0,1,.872-4.274,2.923,2.923,0,0,1,2.689-1.391,2.964,2.964,0,0,1,2.716,1.4,8.854,8.854,0,0,1,.857,4.452v3.937a8.639,8.639,0,0,1-.9,4.339A2.916,2.916,0,0,1,1152.6,7184.209Z" transform="translate(-1007.751 -7103.272)" fill="#fa9300" stroke="rgba(0,0,0,0)" stroke-miterlimit="10" stroke-width="1" opacity="0.51"/>
        <path id="Sustracción_6" data-name="Sustracción 6" d="M1251.566,7234.966H1130a13.489,13.489,0,0,0,3.03-3.323l14.268-22.163a15.356,15.356,0,0,0,0-16.369l-14.268-22.165a13.606,13.606,0,0,0-3.03-3.323h32.679a4.526,4.526,0,0,0-1.156,1.135c-.958,1.345-1.443,3.43-1.443,6.2v3.208a10.5,10.5,0,0,0,1.507,6,6,6,0,0,0,8.993-.045c.957-1.363,1.442-3.476,1.442-6.279v-3.118c-.025-2.707-.524-4.738-1.482-6.038a4.475,4.475,0,0,0-1.1-1.062h7.913a5.552,5.552,0,0,0-.784.6,4.845,4.845,0,0,0-1.643,3.735h2.4a3.121,3.121,0,0,1,.928-2.356,3.461,3.461,0,0,1,2.489-.892,2.935,2.935,0,0,1,3.314,3.327,3.014,3.014,0,0,1-.975,2.353,3.991,3.991,0,0,1-2.676.9H1178.6v1.961h1.807a4.457,4.457,0,0,1,2.923.91,3.2,3.2,0,0,1,1.013,2.535,3.527,3.527,0,0,1-.922,2.613,3.668,3.668,0,0,1-2.664.91,3.719,3.719,0,0,1-2.611-.9,3.1,3.1,0,0,1-.975-2.392h-2.419a4.806,4.806,0,0,0,1.671,3.808,6.42,6.42,0,0,0,4.334,1.442,6.25,6.25,0,0,0,4.327-1.495,5.176,5.176,0,0,0,1.665-4.042,4.577,4.577,0,0,0-.852-2.794,4.666,4.666,0,0,0-2.411-1.636,4.858,4.858,0,0,0,2.177-1.729,4.175,4.175,0,0,0,.8-2.391,5.145,5.145,0,0,0-1.52-3.938,4.71,4.71,0,0,0-.675-.523h67.3a12.7,12.7,0,0,1,10.408,5.507l14.268,20.568a13.388,13.388,0,0,1,0,15.192l-14.268,20.569A12.705,12.705,0,0,1,1251.566,7234.966Zm-85.5-50.755a2.959,2.959,0,0,1-2.7-1.463,8.992,8.992,0,0,1-.89-4.529v-3.847a8.64,8.64,0,0,1,.872-4.274,2.922,2.922,0,0,1,2.689-1.391,2.965,2.965,0,0,1,2.716,1.4,8.849,8.849,0,0,1,.857,4.45v3.937a8.653,8.653,0,0,1-.9,4.341A2.92,2.92,0,0,1,1166.07,7184.21Z" transform="translate(-872.617 -7103.272)" fill="#edc596" stroke="rgba(0,0,0,0)" stroke-miterlimit="10" stroke-width="1" opacity="0.51"/>
        <path id="Sustracción_8" data-name="Sustracción 8" d="M1251.566,7234.966H1130a13.565,13.565,0,0,0,3.032-3.323l14.266-22.165a15.344,15.344,0,0,0,0-16.367l-14.266-22.165a13.55,13.55,0,0,0-3.032-3.323h31.363a4.526,4.526,0,0,0-1.156,1.135c-.957,1.343-1.442,3.429-1.442,6.2v3.208a10.487,10.487,0,0,0,1.505,6,6,6,0,0,0,8.993-.045c.958-1.365,1.443-3.477,1.443-6.279v-3.118c-.027-2.707-.526-4.738-1.482-6.038a4.493,4.493,0,0,0-1.1-1.062h12.844L1172.9,7180.1v1.417h8.618v4.392h2.417v-4.392h2.625v-1.963h-2.625v-11.933h67.629a12.7,12.7,0,0,1,10.408,5.507l14.27,20.568a13.394,13.394,0,0,1,0,15.19l-14.27,20.571A12.705,12.705,0,0,1,1251.566,7234.966Zm-86.812-50.755a2.954,2.954,0,0,1-2.695-1.463,8.975,8.975,0,0,1-.891-4.529v-3.847a8.654,8.654,0,0,1,.872-4.274,2.922,2.922,0,0,1,2.689-1.391,2.965,2.965,0,0,1,2.716,1.4,8.849,8.849,0,0,1,.857,4.45v3.937a8.653,8.653,0,0,1-.9,4.341A2.92,2.92,0,0,1,1164.754,7184.21Zm16.767-4.654h-5.889l5.6-8.759.287-.519v9.276l0,0Z" transform="translate(-738.184 -7103.272)" fill="#c59191" stroke="rgba(0,0,0,0)" stroke-miterlimit="10" stroke-width="1" opacity="0.51"/>
        <path id="Sustracción_12" data-name="Sustracción 12" d="M1333.68,7265.73H1162.038a98.079,98.079,0,0,1,2.174-99h167.3a97.985,97.985,0,0,1,2.174,99Z" transform="translate(-526 -7118.5)" fill="#d44f4a" stroke="rgba(0,0,0,0)" stroke-miterlimit="10" stroke-width="1"/>
        <path id="Trazado_159101" data-name="Trazado 159101" d="M20.487,117.041v3.884h-1.82V110.452h4.007a4.051,4.051,0,0,1,2.787.914,3.076,3.076,0,0,1,1.032,2.42,2.976,2.976,0,0,1-1.01,2.4,4.246,4.246,0,0,1-2.831.857Zm0-1.468h2.187a2.152,2.152,0,0,0,1.482-.457,1.68,1.68,0,0,0,.511-1.32,1.81,1.81,0,0,0-.517-1.355,2,2,0,0,0-1.424-.522H20.487Z" transform="translate(-1.478 -8.748)"/>
        <rect id="Rectángulo_11899" data-name="Rectángulo 11899" width="1.748" height="11.05" transform="translate(26.548 101.129)"/>
        <path id="Trazado_159102" data-name="Trazado 159102" d="M37.426,121.145a2.715,2.715,0,0,1-.2-.727,2.942,2.942,0,0,1-3.957.2,2.142,2.142,0,0,1-.74-1.655,2.211,2.211,0,0,1,.924-1.91,4.475,4.475,0,0,1,2.644-.666h1.072v-.511a1.358,1.358,0,0,0-.339-.967,1.34,1.34,0,0,0-1.029-.364,1.545,1.545,0,0,0-.978.3.924.924,0,0,0-.381.76H32.692a1.942,1.942,0,0,1,.424-1.2,2.832,2.832,0,0,1,1.155-.874,4.055,4.055,0,0,1,1.63-.317,3.269,3.269,0,0,1,2.18.687,2.447,2.447,0,0,1,.834,1.932v3.51a3.983,3.983,0,0,0,.295,1.676v.122ZM35.5,119.886a1.993,1.993,0,0,0,.975-.251,1.684,1.684,0,0,0,.687-.677v-1.468h-.943a2.577,2.577,0,0,0-1.46.339,1.1,1.1,0,0,0-.489.957,1.022,1.022,0,0,0,.334.8,1.3,1.3,0,0,0,.9.3" transform="translate(-2.576 -8.967)"/>
        <path id="Trazado_159103" data-name="Trazado 159103" d="M43.072,113.362l.051.9a2.8,2.8,0,0,1,2.266-1.043q2.431,0,2.474,2.784v5.144H46.116V116.1a1.608,1.608,0,0,0-.32-1.1,1.344,1.344,0,0,0-1.047-.356,1.685,1.685,0,0,0-1.575.958v5.539H41.425v-7.784Z" transform="translate(-3.281 -8.967)"/>
        <path id="Trazado_159104" data-name="Trazado 159104" d="M53.753,121.289a3.615,3.615,0,0,1-2.694-1.047,3.8,3.8,0,0,1-1.032-2.787v-.215a4.677,4.677,0,0,1,.449-2.083,3.418,3.418,0,0,1,1.262-1.428,3.345,3.345,0,0,1,1.813-.51,3.056,3.056,0,0,1,2.457,1.014,4.287,4.287,0,0,1,.866,2.87v.705H51.789a2.334,2.334,0,0,0,.644,1.525,1.934,1.934,0,0,0,1.421.562,2.367,2.367,0,0,0,1.957-.971l.942.9A3.133,3.133,0,0,1,55.5,120.9a3.9,3.9,0,0,1-1.751.385m-.209-6.668a1.475,1.475,0,0,0-1.162.5,2.616,2.616,0,0,0-.564,1.4h3.331V116.4a2.127,2.127,0,0,0-.468-1.328,1.462,1.462,0,0,0-1.136-.449" transform="translate(-3.962 -8.967)"/>
        <path id="Trazado_159105" data-name="Trazado 159105" d="M63.566,121.145a2.716,2.716,0,0,1-.2-.727,2.942,2.942,0,0,1-3.957.2,2.142,2.142,0,0,1-.74-1.655,2.211,2.211,0,0,1,.924-1.91,4.475,4.475,0,0,1,2.644-.666h1.072v-.511a1.358,1.358,0,0,0-.339-.967,1.34,1.34,0,0,0-1.029-.364,1.545,1.545,0,0,0-.978.3.924.924,0,0,0-.381.76H58.832a1.942,1.942,0,0,1,.424-1.2,2.832,2.832,0,0,1,1.155-.874,4.055,4.055,0,0,1,1.63-.317,3.269,3.269,0,0,1,2.18.687,2.447,2.447,0,0,1,.834,1.932v3.51a3.983,3.983,0,0,0,.295,1.676v.122Zm-1.921-1.259a1.993,1.993,0,0,0,.975-.251,1.683,1.683,0,0,0,.687-.677v-1.468h-.943a2.577,2.577,0,0,0-1.46.339,1.1,1.1,0,0,0-.489.957,1.022,1.022,0,0,0,.334.8,1.3,1.3,0,0,0,.9.3" transform="translate(-4.646 -8.967)"/>
        <path id="Trazado_159106" data-name="Trazado 159106" d="M69.236,113.362l.051.813a2.8,2.8,0,0,1,2.244-.957,2.15,2.15,0,0,1,2.136,1.194,2.761,2.761,0,0,1,2.389-1.194,2.428,2.428,0,0,1,1.917.712,3.139,3.139,0,0,1,.645,2.1v5.115H76.869v-5.064a1.547,1.547,0,0,0-.324-1.087,1.416,1.416,0,0,0-1.072-.345,1.458,1.458,0,0,0-.974.32,1.682,1.682,0,0,0-.529.838l.006,5.338H72.229v-5.121a1.247,1.247,0,0,0-1.4-1.375,1.54,1.54,0,0,0-1.49.856v5.64H67.589v-7.784Z" transform="translate(-5.353 -8.967)"/>
        <path id="Trazado_159107" data-name="Trazado 159107" d="M81.519,111.1a.927.927,0,0,1,.255-.669.962.962,0,0,1,.73-.266.976.976,0,0,1,.734.266.923.923,0,0,1,.259.669.9.9,0,0,1-.259.658.985.985,0,0,1-.734.262.971.971,0,0,1-.73-.262.9.9,0,0,1-.255-.658m1.855,9.806H81.627V113.12h1.748Z" transform="translate(-6.456 -8.725)"/>
        <path id="Trazado_159108" data-name="Trazado 159108" d="M89,121.289a3.615,3.615,0,0,1-2.694-1.047,3.8,3.8,0,0,1-1.032-2.787v-.215a4.677,4.677,0,0,1,.449-2.083,3.418,3.418,0,0,1,1.262-1.428,3.345,3.345,0,0,1,1.813-.51,3.056,3.056,0,0,1,2.457,1.014,4.287,4.287,0,0,1,.866,2.87v.705H87.039a2.334,2.334,0,0,0,.644,1.525,1.934,1.934,0,0,0,1.421.562,2.367,2.367,0,0,0,1.957-.971l.942.9a3.133,3.133,0,0,1-1.248,1.083,3.9,3.9,0,0,1-1.751.385m-.209-6.668a1.475,1.475,0,0,0-1.162.5,2.616,2.616,0,0,0-.564,1.4H90.4V116.4a2.127,2.127,0,0,0-.468-1.328,1.462,1.462,0,0,0-1.136-.449" transform="translate(-6.754 -8.967)"/>
        <path id="Trazado_159109" data-name="Trazado 159109" d="M95.806,113.362l.051.9a2.8,2.8,0,0,1,2.266-1.043q2.431,0,2.474,2.784v5.144H98.85V116.1a1.608,1.608,0,0,0-.32-1.1,1.344,1.344,0,0,0-1.047-.356,1.685,1.685,0,0,0-1.575.958v5.539H94.159v-7.784Z" transform="translate(-7.457 -8.967)"/>
        <path id="Trazado_159110" data-name="Trazado 159110" d="M105.2,111.319v1.892h1.374v1.295H105.2v4.345a.954.954,0,0,0,.176.644.82.82,0,0,0,.63.2,2.7,2.7,0,0,0,.611-.072v1.352a4.3,4.3,0,0,1-1.151.166q-2.014,0-2.014-2.223v-4.41h-1.281v-1.295h1.281v-1.892Z" transform="translate(-8.092 -8.816)"/>
        <path id="Trazado_159111" data-name="Trazado 159111" d="M107.816,117.181a4.59,4.59,0,0,1,.453-2.061,3.312,3.312,0,0,1,1.273-1.411,3.592,3.592,0,0,1,1.884-.493,3.4,3.4,0,0,1,2.558,1.015,3.987,3.987,0,0,1,1.061,2.691l.007.41a4.621,4.621,0,0,1-.443,2.057,3.266,3.266,0,0,1-1.266,1.4,3.616,3.616,0,0,1-1.9.5,3.375,3.375,0,0,1-2.636-1.1,4.2,4.2,0,0,1-.989-2.924Zm1.748.151a3.138,3.138,0,0,0,.5,1.881,1.613,1.613,0,0,0,1.381.68,1.6,1.6,0,0,0,1.378-.691,3.461,3.461,0,0,0,.493-2.021,3.1,3.1,0,0,0-.506-1.87,1.622,1.622,0,0,0-1.378-.691,1.6,1.6,0,0,0-1.359.68,3.4,3.4,0,0,0-.5,2.032" transform="translate(-8.539 -8.967)"/>
        <path id="Trazado_159112" data-name="Trazado 159112" d="M6.228.625,9.653,9.171,13.076.625h1.792V11.1H13.487V7.02l.129-4.4L10.178,11.1H9.121L5.689,2.64l.137,4.38V11.1H4.445V.625Z" transform="translate(-0.352 -0.05)"/>
        <path id="Trazado_159113" data-name="Trazado 159113" d="M21.388,11.462a3.4,3.4,0,0,1-2.575-1.04,3.856,3.856,0,0,1-.993-2.78V7.4a4.676,4.676,0,0,1,.442-2.068A3.456,3.456,0,0,1,19.5,3.9a3.112,3.112,0,0,1,1.723-.514,2.919,2.919,0,0,1,2.36,1,4.335,4.335,0,0,1,.842,2.864v.553H19.151a2.772,2.772,0,0,0,.672,1.86,2.115,2.115,0,0,0,1.637.708,2.322,2.322,0,0,0,1.194-.287,2.984,2.984,0,0,0,.855-.762l.813.633a3.266,3.266,0,0,1-2.935,1.5m-.166-6.978a1.775,1.775,0,0,0-1.353.587,2.856,2.856,0,0,0-.676,1.644h3.9v-.1a2.534,2.534,0,0,0-.547-1.573,1.672,1.672,0,0,0-1.323-.557" transform="translate(-1.411 -0.269)"/>
        <path id="Trazado_159114" data-name="Trazado 159114" d="M28.388,1.5V3.385h1.453V4.413H28.388V9.247a1.08,1.08,0,0,0,.194.7.819.819,0,0,0,.662.234,3.258,3.258,0,0,0,.633-.087v1.073a3.9,3.9,0,0,1-1.021.143,1.656,1.656,0,0,1-1.345-.54,2.317,2.317,0,0,1-.453-1.532V4.413H25.64V3.385h1.417V1.5Z" transform="translate(-2.031 -0.119)"/>
        <path id="Trazado_159115" data-name="Trazado 159115" d="M31.351,7.354A4.6,4.6,0,0,1,31.8,5.3a3.352,3.352,0,0,1,1.252-1.411,3.41,3.41,0,0,1,1.831-.5,3.283,3.283,0,0,1,2.572,1.1,4.234,4.234,0,0,1,.982,2.927v.094A4.637,4.637,0,0,1,38,9.552a3.3,3.3,0,0,1-1.245,1.406,3.444,3.444,0,0,1-1.86.5,3.275,3.275,0,0,1-2.564-1.1,4.214,4.214,0,0,1-.982-2.913Zm1.338.158a3.337,3.337,0,0,0,.6,2.079,2.036,2.036,0,0,0,3.219-.011,3.635,3.635,0,0,0,.6-2.226A3.326,3.326,0,0,0,36.5,5.279a1.935,1.935,0,0,0-1.615-.795,1.913,1.913,0,0,0-1.59.784,3.62,3.62,0,0,0-.6,2.245" transform="translate(-2.483 -0.268)"/>
        <path id="Trazado_159116" data-name="Trazado 159116" d="M40.507,7.093a4.557,4.557,0,0,1,.849-2.881,2.887,2.887,0,0,1,4.388-.155V0h1.331V11.05H45.851l-.064-.834a2.711,2.711,0,0,1-2.223.978,2.661,2.661,0,0,1-2.205-1.108,4.613,4.613,0,0,1-.852-2.892Zm1.331.151a3.453,3.453,0,0,0,.547,2.072,1.765,1.765,0,0,0,1.51.749,1.942,1.942,0,0,0,1.849-1.137V5.352a1.955,1.955,0,0,0-1.834-1.1,1.774,1.774,0,0,0-1.525.755,3.8,3.8,0,0,0-.547,2.238" transform="translate(-3.208)"/>
        <path id="Trazado_159117" data-name="Trazado 159117" d="M49.5,7.354A4.6,4.6,0,0,1,49.948,5.3,3.352,3.352,0,0,1,51.2,3.886a3.41,3.41,0,0,1,1.831-.5,3.283,3.283,0,0,1,2.572,1.1,4.234,4.234,0,0,1,.982,2.927v.094a4.637,4.637,0,0,1-.435,2.04,3.3,3.3,0,0,1-1.245,1.406,3.444,3.444,0,0,1-1.86.5,3.275,3.275,0,0,1-2.564-1.1A4.213,4.213,0,0,1,49.5,7.448Zm1.338.158a3.337,3.337,0,0,0,.6,2.079,2.036,2.036,0,0,0,3.219-.011,3.635,3.635,0,0,0,.6-2.226,3.326,3.326,0,0,0-.608-2.075,1.935,1.935,0,0,0-1.615-.795,1.913,1.913,0,0,0-1.59.784,3.62,3.62,0,0,0-.6,2.245" transform="translate(-3.92 -0.268)"/>
        <rect id="Rectángulo_11900" data-name="Rectángulo 11900" width="1.331" height="11.05" transform="translate(54.449)"/>
        <path id="Trazado_159118" data-name="Trazado 159118" d="M62.507,7.354A4.6,4.6,0,0,1,62.956,5.3a3.352,3.352,0,0,1,1.252-1.411,3.41,3.41,0,0,1,1.831-.5,3.283,3.283,0,0,1,2.572,1.1,4.234,4.234,0,0,1,.982,2.927v.094a4.637,4.637,0,0,1-.435,2.04,3.3,3.3,0,0,1-1.245,1.406,3.444,3.444,0,0,1-1.86.5,3.275,3.275,0,0,1-2.564-1.1,4.213,4.213,0,0,1-.982-2.913Zm1.338.158a3.337,3.337,0,0,0,.6,2.079,2.036,2.036,0,0,0,3.219-.011,3.635,3.635,0,0,0,.6-2.226,3.326,3.326,0,0,0-.608-2.075,1.935,1.935,0,0,0-1.615-.795,1.913,1.913,0,0,0-1.59.784,3.62,3.62,0,0,0-.6,2.245" transform="translate(-4.951 -0.268)"/>
        <path id="Trazado_159119" data-name="Trazado 159119" d="M71.671,7.361a4.58,4.58,0,0,1,.842-2.9A2.9,2.9,0,0,1,76.966,4.4l.064-.863h1.215v7.6a3.17,3.17,0,0,1-.9,2.381,3.307,3.307,0,0,1-2.406.87,4,4,0,0,1-1.648-.36,2.831,2.831,0,0,1-1.229-.985l.691-.8A2.6,2.6,0,0,0,74.851,13.3a2.041,2.041,0,0,0,1.515-.547,2.088,2.088,0,0,0,.542-1.539v-.669a2.734,2.734,0,0,1-2.18.921,2.658,2.658,0,0,1-2.212-1.1,4.81,4.81,0,0,1-.845-3m1.338.151a3.487,3.487,0,0,0,.54,2.068,1.752,1.752,0,0,0,1.511.752,1.949,1.949,0,0,0,1.848-1.145V5.635A1.971,1.971,0,0,0,75.073,4.52a1.767,1.767,0,0,0-1.517.755,3.8,3.8,0,0,0-.547,2.238" transform="translate(-5.676 -0.268)"/>
        <path id="Trazado_159120" data-name="Trazado 159120" d="M82.458.008h1.611L82.141,2.123l-1.072,0ZM82.444,11.05H81.106V3.267h1.338Z" transform="translate(-6.421 -0.001)"/>
        <path id="Trazado_159121" data-name="Trazado 159121" d="M89.73,11.318a2.81,2.81,0,0,1-.187-.82,2.968,2.968,0,0,1-2.215.964,2.75,2.75,0,0,1-1.889-.651A2.106,2.106,0,0,1,84.7,9.16a2.2,2.2,0,0,1,.924-1.889,4.359,4.359,0,0,1,2.6-.672h1.295V5.988a1.5,1.5,0,0,0-.417-1.112,1.678,1.678,0,0,0-1.23-.413,1.943,1.943,0,0,0-1.194.36,1.06,1.06,0,0,0-.482.87H84.86a1.832,1.832,0,0,1,.414-1.125,2.817,2.817,0,0,1,1.122-.86,3.779,3.779,0,0,1,1.558-.317,3.078,3.078,0,0,1,2.108.673,2.423,2.423,0,0,1,.791,1.852V9.5a4.38,4.38,0,0,0,.273,1.705v.115ZM87.522,10.3a2.333,2.333,0,0,0,1.187-.324,1.962,1.962,0,0,0,.813-.842v-1.6H88.479q-2.445,0-2.446,1.432a1.211,1.211,0,0,0,.417.978,1.6,1.6,0,0,0,1.072.353" transform="translate(-6.708 -0.268)"/>
        <path id="Trazado_159122" data-name="Trazado 159122" d="M98.151,9.254a.979.979,0,0,0-.406-.838A3.93,3.93,0,0,0,96.328,7.9a6.69,6.69,0,0,1-1.6-.517,2.284,2.284,0,0,1-.878-.72,1.715,1.715,0,0,1-.284-.993,2.018,2.018,0,0,1,.809-1.618,3.159,3.159,0,0,1,2.068-.662,3.253,3.253,0,0,1,2.147.683,2.172,2.172,0,0,1,.823,1.748H98.072a1.2,1.2,0,0,0-.464-.942,1.74,1.74,0,0,0-1.168-.4A1.821,1.821,0,0,0,95.3,4.8a1,1,0,0,0-.41.827.808.808,0,0,0,.381.727,4.677,4.677,0,0,0,1.378.467,7.241,7.241,0,0,1,1.615.532,2.364,2.364,0,0,1,.917.745,1.833,1.833,0,0,1,.3,1.061,1.99,1.99,0,0,1-.834,1.673,3.5,3.5,0,0,1-2.165.629,3.926,3.926,0,0,1-1.655-.331,2.684,2.684,0,0,1-1.126-.924A2.229,2.229,0,0,1,93.3,8.923h1.331a1.378,1.378,0,0,0,.536,1.061,2.079,2.079,0,0,0,1.32.392,2.15,2.15,0,0,0,1.212-.306.939.939,0,0,0,.457-.817" transform="translate(-7.389 -0.269)"/>
        <path id="Trazado_159123" data-name="Trazado 159123" d="M18.559,23.285h-5.82V39.337H9.522V23.285H3.752V20.67H18.559Z" transform="translate(-0.297 -1.637)" fill="#d44f4a"/>
        <path id="Trazado_159124" data-name="Trazado 159124" d="M28.523,28.7a7.73,7.73,0,0,0-1.269-.1,2.857,2.857,0,0,0-2.885,1.641v9.488H21.253V25.855h2.975l.076,1.552A3.51,3.51,0,0,1,27.432,25.6a2.919,2.919,0,0,1,1.1.18Z" transform="translate(-1.683 -2.027)" fill="#d44f4a"/>
        <path id="Trazado_159125" data-name="Trazado 159125" d="M39.119,39.728a4.784,4.784,0,0,1-.359-1.3,5.24,5.24,0,0,1-7.051.359,3.816,3.816,0,0,1-1.321-2.948,3.941,3.941,0,0,1,1.647-3.4,7.993,7.993,0,0,1,4.713-1.186h1.91v-.91a2.43,2.43,0,0,0-.6-1.725,2.39,2.39,0,0,0-1.834-.648,2.74,2.74,0,0,0-1.743.533,1.649,1.649,0,0,0-.68,1.352H30.683a3.456,3.456,0,0,1,.756-2.134A5.042,5.042,0,0,1,33.5,26.163a7.218,7.218,0,0,1,2.9-.564,5.82,5.82,0,0,1,3.884,1.224,4.369,4.369,0,0,1,1.488,3.443v6.257A7.086,7.086,0,0,0,42.3,39.51v.218ZM35.7,37.484a3.556,3.556,0,0,0,1.738-.448,3,3,0,0,0,1.224-1.205V33.214H36.978a4.6,4.6,0,0,0-2.6.6,1.953,1.953,0,0,0-.871,1.705,1.818,1.818,0,0,0,.6,1.429,2.307,2.307,0,0,0,1.6.532" transform="translate(-2.407 -2.027)" fill="#d44f4a"/>
        <path id="Trazado_159126" data-name="Trazado 159126" d="M45.661,32.211a8.252,8.252,0,0,1,1.487-5.148,4.768,4.768,0,0,1,3.988-1.942A4.527,4.527,0,0,1,54.7,26.659v-7.1h3.115V39.249H55l-.154-1.436a4.591,4.591,0,0,1-3.731,1.692,4.738,4.738,0,0,1-3.942-1.961,8.547,8.547,0,0,1-1.507-5.333m3.116.269a5.776,5.776,0,0,0,.814,3.3A2.642,2.642,0,0,0,51.9,36.966a2.943,2.943,0,0,0,2.8-1.705V29.338a2.9,2.9,0,0,0-2.77-1.667,2.657,2.657,0,0,0-2.332,1.2,6.42,6.42,0,0,0-.821,3.609" transform="translate(-3.616 -1.549)" fill="#d44f4a"/>
        <path id="Trazado_159127" data-name="Trazado 159127" d="M62.4,21.821a1.658,1.658,0,0,1,.456-1.192,1.721,1.721,0,0,1,1.3-.474,1.743,1.743,0,0,1,1.308.474,1.643,1.643,0,0,1,.461,1.192,1.6,1.6,0,0,1-.461,1.173,1.751,1.751,0,0,1-1.308.469,1.729,1.729,0,0,1-1.3-.469,1.616,1.616,0,0,1-.456-1.173M65.705,39.3H62.589V25.424h3.116Z" transform="translate(-4.942 -1.596)" fill="#d44f4a"/>
        <path id="Trazado_159128" data-name="Trazado 159128" d="M75.322,37.5a2.819,2.819,0,0,0,1.936-.68,2.322,2.322,0,0,0,.82-1.68h2.936a4.574,4.574,0,0,1-.808,2.417,5.3,5.3,0,0,1-2.052,1.775,6.107,6.107,0,0,1-2.8.654A5.917,5.917,0,0,1,70.744,38.1a7.475,7.475,0,0,1-1.705-5.206v-.32A7.355,7.355,0,0,1,70.731,27.5a5.861,5.861,0,0,1,4.615-1.9,5.7,5.7,0,0,1,4.032,1.443,5.166,5.166,0,0,1,1.635,3.788H78.078a2.856,2.856,0,0,0-.814-1.962,2.621,2.621,0,0,0-1.942-.769,2.742,2.742,0,0,0-2.333,1.1,5.58,5.58,0,0,0-.833,3.328v.5a5.691,5.691,0,0,0,.813,3.366A2.741,2.741,0,0,0,75.322,37.5" transform="translate(-5.468 -2.027)" fill="#d44f4a"/>
        <path id="Trazado_159129" data-name="Trazado 159129" d="M84.6,21.821a1.658,1.658,0,0,1,.456-1.192,1.721,1.721,0,0,1,1.3-.474,1.743,1.743,0,0,1,1.308.474,1.644,1.644,0,0,1,.461,1.192,1.6,1.6,0,0,1-.461,1.173,1.751,1.751,0,0,1-1.308.469,1.729,1.729,0,0,1-1.3-.469,1.616,1.616,0,0,1-.456-1.173M87.913,39.3H84.8V25.424h3.116Z" transform="translate(-6.701 -1.596)" fill="#d44f4a"/>
        <path id="Trazado_159130" data-name="Trazado 159130" d="M91.247,32.663a8.179,8.179,0,0,1,.808-3.674,5.9,5.9,0,0,1,2.269-2.513,6.4,6.4,0,0,1,3.359-.878,6.059,6.059,0,0,1,4.558,1.808,7.1,7.1,0,0,1,1.89,4.795l.014.731a8.262,8.262,0,0,1-.788,3.667,5.826,5.826,0,0,1-2.258,2.5,6.441,6.441,0,0,1-3.39.885,6.021,6.021,0,0,1-4.7-1.955,7.492,7.492,0,0,1-1.763-5.212Zm3.116.269a5.586,5.586,0,0,0,.885,3.353,3.085,3.085,0,0,0,4.917-.019,6.172,6.172,0,0,0,.878-3.6,5.517,5.517,0,0,0-.9-3.334,3.045,3.045,0,0,0-4.877-.019,6.059,6.059,0,0,0-.9,3.622" transform="translate(-7.227 -2.027)" fill="#d44f4a"/>
        <path id="Trazado_159131" data-name="Trazado 159131" d="M111,25.855l.09,1.6a4.988,4.988,0,0,1,4.038-1.859q4.334,0,4.411,4.961v9.167h-3.115V30.74a2.855,2.855,0,0,0-.57-1.955,2.4,2.4,0,0,0-1.866-.635,3,3,0,0,0-2.808,1.705v9.872h-3.115V25.855Z" transform="translate(-8.559 -2.027)" fill="#d44f4a"/>
        <path id="Trazado_159132" data-name="Trazado 159132" d="M132.226,39.728a4.783,4.783,0,0,1-.359-1.3,5.24,5.24,0,0,1-7.051.359,3.816,3.816,0,0,1-1.321-2.948,3.941,3.941,0,0,1,1.647-3.4,7.993,7.993,0,0,1,4.713-1.186h1.91v-.91a2.43,2.43,0,0,0-.6-1.725,2.39,2.39,0,0,0-1.834-.648,2.74,2.74,0,0,0-1.743.533,1.649,1.649,0,0,0-.68,1.352H123.79a3.456,3.456,0,0,1,.756-2.134,5.042,5.042,0,0,1,2.058-1.557,7.218,7.218,0,0,1,2.9-.564,5.82,5.82,0,0,1,3.884,1.224,4.368,4.368,0,0,1,1.488,3.443v6.257a7.085,7.085,0,0,0,.526,2.987v.218ZM128.8,37.484a3.556,3.556,0,0,0,1.738-.448,3,3,0,0,0,1.224-1.205V33.214h-1.679a4.6,4.6,0,0,0-2.6.6,1.953,1.953,0,0,0-.871,1.705,1.818,1.818,0,0,0,.6,1.429,2.307,2.307,0,0,0,1.6.532" transform="translate(-9.781 -2.027)" fill="#d44f4a"/>
        <rect id="Rectángulo_11901" data-name="Rectángulo 11901" width="3.116" height="19.693" transform="translate(128.56 18.006)" fill="#d44f4a"/>
        <path id="Trazado_159133" data-name="Trazado 159133" d="M152.748,39.984a6.446,6.446,0,0,1-4.8-1.866,6.766,6.766,0,0,1-1.84-4.968v-.385a8.3,8.3,0,0,1,.8-3.711,6.1,6.1,0,0,1,2.249-2.546,5.956,5.956,0,0,1,3.231-.91,5.446,5.446,0,0,1,4.378,1.808,7.644,7.644,0,0,1,1.544,5.115v1.256h-9.063A4.155,4.155,0,0,0,150.4,36.5a3.442,3.442,0,0,0,2.532,1,4.22,4.22,0,0,0,3.487-1.73l1.679,1.6a5.618,5.618,0,0,1-2.224,1.93,6.976,6.976,0,0,1-3.122.685M152.376,28.1a2.621,2.621,0,0,0-2.07.9,4.646,4.646,0,0,0-1.006,2.5h5.936v-.231A3.784,3.784,0,0,0,154.4,28.9a2.605,2.605,0,0,0-2.026-.8" transform="translate(-11.572 -2.027)" fill="#d44f4a"/>
        <path id="Trazado_159134" data-name="Trazado 159134" d="M169.708,35.958a1.413,1.413,0,0,0-.685-1.269,7.307,7.307,0,0,0-2.276-.77,11.642,11.642,0,0,1-2.654-.846,3.54,3.54,0,0,1-2.333-3.269,3.691,3.691,0,0,1,1.513-3,5.979,5.979,0,0,1,3.845-1.205,6.227,6.227,0,0,1,4.02,1.23,3.908,3.908,0,0,1,1.532,3.193h-3.116a1.918,1.918,0,0,0-.667-1.494,2.553,2.553,0,0,0-1.77-.6,2.762,2.762,0,0,0-1.672.474,1.5,1.5,0,0,0-.647,1.27,1.261,1.261,0,0,0,.6,1.115,8.265,8.265,0,0,0,2.436.8,11.556,11.556,0,0,1,2.878.962,4.073,4.073,0,0,1,1.551,1.339,3.418,3.418,0,0,1,.506,1.9,3.613,3.613,0,0,1-1.551,3.032,6.617,6.617,0,0,1-4.065,1.16,7.18,7.18,0,0,1-3.038-.615,5,5,0,0,1-2.077-1.692,4.01,4.01,0,0,1-.744-2.32h3.026a2.2,2.2,0,0,0,.834,1.7,3.239,3.239,0,0,0,2.038.6,3.155,3.155,0,0,0,1.873-.468,1.448,1.448,0,0,0,.64-1.225" transform="translate(-12.775 -2.027)" fill="#d44f4a"/>
        <path id="Trazado_159143" data-name="Trazado 159143" d="M192.1,118.488h-4.058l-.849,2.438H185.3l3.957-10.474h1.633l3.964,10.474h-1.9Zm-3.547-1.468h3.036l-1.518-4.345Z" transform="translate(-14.676 -8.748)"/>
        <path id="Trazado_159144" data-name="Trazado 159144" d="M198.023,113.362l.051.9a2.8,2.8,0,0,1,2.266-1.043q2.431,0,2.474,2.784v5.144h-1.748V116.1a1.608,1.608,0,0,0-.32-1.1,1.344,1.344,0,0,0-1.047-.356,1.685,1.685,0,0,0-1.576.958v5.539h-1.748v-7.784Z" transform="translate(-15.553 -8.967)"/>
        <path id="Trazado_159145" data-name="Trazado 159145" d="M209.931,120.877a2.715,2.715,0,0,1-.2-.727,2.941,2.941,0,0,1-3.956.2,2.14,2.14,0,0,1-.741-1.655,2.211,2.211,0,0,1,.924-1.91,4.477,4.477,0,0,1,2.644-.666h1.072v-.511a1.365,1.365,0,0,0-.338-.968,1.343,1.343,0,0,0-1.029-.363,1.541,1.541,0,0,0-.979.3.924.924,0,0,0-.381.759H205.2a1.934,1.934,0,0,1,.424-1.2,2.832,2.832,0,0,1,1.154-.875,4.062,4.062,0,0,1,1.63-.316,3.269,3.269,0,0,1,2.18.687,2.445,2.445,0,0,1,.834,1.931v3.511a3.968,3.968,0,0,0,.3,1.676v.122Zm-1.921-1.259a1.984,1.984,0,0,0,.975-.252,1.676,1.676,0,0,0,.687-.676v-1.468h-.942a2.581,2.581,0,0,0-1.46.338,1.1,1.1,0,0,0-.49.958,1.02,1.02,0,0,0,.335.8,1.294,1.294,0,0,0,.9.3m.971-9.791h1.993l-1.993,2.18-1.4,0Z" transform="translate(-16.239 -8.698)"/>
        <rect id="Rectángulo_11902" data-name="Rectángulo 11902" width="1.748" height="11.05" transform="translate(197.125 101.129)"/>
        <path id="Trazado_159146" data-name="Trazado 159146" d="M218.048,111.1a.931.931,0,0,1,.255-.669.963.963,0,0,1,.73-.266.975.975,0,0,1,.734.266.919.919,0,0,1,.259.669.9.9,0,0,1-.259.658.984.984,0,0,1-.734.262.972.972,0,0,1-.73-.262.909.909,0,0,1-.255-.658M219.9,120.9h-1.748V113.12H219.9Z" transform="translate(-17.269 -8.725)"/>
        <path id="Trazado_159147" data-name="Trazado 159147" d="M226.462,119.03a.794.794,0,0,0-.385-.712,4.1,4.1,0,0,0-1.277-.432,6.534,6.534,0,0,1-1.489-.475A1.987,1.987,0,0,1,222,115.577a2.074,2.074,0,0,1,.849-1.683,3.358,3.358,0,0,1,2.158-.676,3.489,3.489,0,0,1,2.255.691,2.192,2.192,0,0,1,.86,1.791h-1.749a1.077,1.077,0,0,0-.374-.838,1.43,1.43,0,0,0-.993-.335,1.554,1.554,0,0,0-.939.266.842.842,0,0,0-.363.713.709.709,0,0,0,.338.626,4.66,4.66,0,0,0,1.366.449,6.455,6.455,0,0,1,1.615.54,2.288,2.288,0,0,1,.871.751,1.915,1.915,0,0,1,.284,1.064,2.028,2.028,0,0,1-.87,1.7,3.708,3.708,0,0,1-2.281.651,4.026,4.026,0,0,1-1.7-.345,2.807,2.807,0,0,1-1.166-.949,2.249,2.249,0,0,1-.417-1.3h1.7a1.23,1.23,0,0,0,.468.953,1.816,1.816,0,0,0,1.144.334,1.759,1.759,0,0,0,1.05-.262.811.811,0,0,0,.36-.687" transform="translate(-17.562 -8.967)"/>
        <path id="Trazado_159148" data-name="Trazado 159148" d="M230.392,111.1a.927.927,0,0,1,.255-.669.963.963,0,0,1,.73-.266.976.976,0,0,1,.734.266.923.923,0,0,1,.259.669.9.9,0,0,1-.259.658.985.985,0,0,1-.734.262.972.972,0,0,1-.73-.262.905.905,0,0,1-.255-.658m1.855,9.806H230.5V113.12h1.748Z" transform="translate(-18.247 -8.725)"/>
        <path id="Trazado_159149" data-name="Trazado 159149" d="M238.806,119.03a.794.794,0,0,0-.385-.712,4.1,4.1,0,0,0-1.277-.432,6.535,6.535,0,0,1-1.489-.475,1.987,1.987,0,0,1-1.309-1.834,2.074,2.074,0,0,1,.849-1.683,3.358,3.358,0,0,1,2.158-.676,3.49,3.49,0,0,1,2.255.691,2.192,2.192,0,0,1,.86,1.791H238.72a1.077,1.077,0,0,0-.374-.838,1.43,1.43,0,0,0-.993-.335,1.554,1.554,0,0,0-.939.266.842.842,0,0,0-.363.713.709.709,0,0,0,.338.626,4.659,4.659,0,0,0,1.366.449,6.455,6.455,0,0,1,1.615.54,2.288,2.288,0,0,1,.871.751,1.915,1.915,0,0,1,.284,1.064,2.028,2.028,0,0,1-.87,1.7,3.708,3.708,0,0,1-2.281.651,4.026,4.026,0,0,1-1.7-.345,2.808,2.808,0,0,1-1.166-.949,2.25,2.25,0,0,1-.417-1.3h1.7a1.23,1.23,0,0,0,.468.953,1.816,1.816,0,0,0,1.144.334,1.759,1.759,0,0,0,1.05-.262.811.811,0,0,0,.36-.687" transform="translate(-18.54 -8.967)"/>
        <path id="Trazado_159150" data-name="Trazado 159150" d="M336.675,120.925V110.451h3.094a4.853,4.853,0,0,1,2.464.619,4.225,4.225,0,0,1,1.665,1.755,5.577,5.577,0,0,1,.59,2.6v.525a5.548,5.548,0,0,1-.594,2.619,4.164,4.164,0,0,1-1.691,1.74,5.071,5.071,0,0,1-2.514.611Zm1.82-9.006v7.553h1.187a2.733,2.733,0,0,0,2.2-.9,3.9,3.9,0,0,0,.78-2.572v-.582a4,4,0,0,0-.74-2.6,2.628,2.628,0,0,0-2.151-.9Z" transform="translate(-26.665 -8.748)"/>
        <path id="Trazado_159151" data-name="Trazado 159151" d="M346.949,111.1a.928.928,0,0,1,.256-.669.962.962,0,0,1,.73-.266.974.974,0,0,1,.733.266.92.92,0,0,1,.26.669.9.9,0,0,1-.26.658.983.983,0,0,1-.733.262.971.971,0,0,1-.73-.262.906.906,0,0,1-.256-.658m1.856,9.806h-1.748V113.12h1.748Z" transform="translate(-27.478 -8.725)"/>
        <path id="Trazado_159152" data-name="Trazado 159152" d="M355.364,119.03a.794.794,0,0,0-.386-.712,4.1,4.1,0,0,0-1.277-.432,6.535,6.535,0,0,1-1.489-.475,1.987,1.987,0,0,1-1.309-1.834,2.074,2.074,0,0,1,.849-1.683,3.358,3.358,0,0,1,2.158-.676,3.49,3.49,0,0,1,2.255.691,2.192,2.192,0,0,1,.86,1.791h-1.749a1.079,1.079,0,0,0-.373-.838,1.434,1.434,0,0,0-.994-.335,1.554,1.554,0,0,0-.939.266.842.842,0,0,0-.363.713.708.708,0,0,0,.339.626,4.641,4.641,0,0,0,1.366.449,6.455,6.455,0,0,1,1.615.54,2.288,2.288,0,0,1,.871.751,1.915,1.915,0,0,1,.284,1.064,2.028,2.028,0,0,1-.87,1.7,3.708,3.708,0,0,1-2.281.651,4.026,4.026,0,0,1-1.7-.345,2.808,2.808,0,0,1-1.166-.949,2.248,2.248,0,0,1-.416-1.3h1.7a1.23,1.23,0,0,0,.468.953,1.816,1.816,0,0,0,1.144.334,1.759,1.759,0,0,0,1.05-.262.812.812,0,0,0,.361-.687" transform="translate(-27.771 -8.967)"/>
        <path id="Trazado_159153" data-name="Trazado 159153" d="M362.691,121.289A3.615,3.615,0,0,1,360,120.242a3.8,3.8,0,0,1-1.032-2.787v-.215a4.677,4.677,0,0,1,.449-2.083,3.418,3.418,0,0,1,1.262-1.428,3.345,3.345,0,0,1,1.813-.51,3.056,3.056,0,0,1,2.457,1.014,4.287,4.287,0,0,1,.866,2.87v.705h-5.086a2.334,2.334,0,0,0,.644,1.525,1.934,1.934,0,0,0,1.421.562,2.368,2.368,0,0,0,1.957-.971l.942.9a3.133,3.133,0,0,1-1.248,1.083,3.9,3.9,0,0,1-1.751.385m-.209-6.668a1.475,1.475,0,0,0-1.162.5,2.615,2.615,0,0,0-.564,1.4h3.331V116.4a2.127,2.127,0,0,0-.468-1.328,1.462,1.462,0,0,0-1.136-.449" transform="translate(-28.43 -8.967)"/>
        <path id="Trazado_159154" data-name="Trazado 159154" d="M369.5,113.1l.05.9a2.8,2.8,0,0,1,2.266-1.043q2.432,0,2.475,2.784v5.144h-1.749V115.84a1.608,1.608,0,0,0-.32-1.1,1.347,1.347,0,0,0-1.047-.356,1.685,1.685,0,0,0-1.576.957v5.54h-1.748V113.1Zm4.244-3.108a1.933,1.933,0,0,1-.457,1.317,1.457,1.457,0,0,1-1.147.525,1.726,1.726,0,0,1-.486-.061,3.089,3.089,0,0,1-.582-.277,2.889,2.889,0,0,0-.532-.259,1.251,1.251,0,0,0-.343-.043.608.608,0,0,0-.463.2.757.757,0,0,0-.191.536l-1.073-.057a1.982,1.982,0,0,1,.458-1.331,1.432,1.432,0,0,1,1.14-.54,2.123,2.123,0,0,1,.989.323,2.087,2.087,0,0,0,.953.324.62.62,0,0,0,.468-.205.755.755,0,0,0,.194-.543Z" transform="translate(-29.134 -8.704)"/>
        <path id="Trazado_159155" data-name="Trazado 159155" d="M376.418,117.181a4.59,4.59,0,0,1,.453-2.061,3.312,3.312,0,0,1,1.273-1.411,3.592,3.592,0,0,1,1.884-.493,3.4,3.4,0,0,1,2.558,1.015,3.986,3.986,0,0,1,1.061,2.691l.007.41a4.621,4.621,0,0,1-.443,2.057,3.265,3.265,0,0,1-1.266,1.4,3.615,3.615,0,0,1-1.9.5,3.375,3.375,0,0,1-2.636-1.1,4.2,4.2,0,0,1-.989-2.924Zm1.748.151a3.138,3.138,0,0,0,.5,1.881,1.613,1.613,0,0,0,1.381.68,1.6,1.6,0,0,0,1.378-.691,3.461,3.461,0,0,0,.493-2.021,3.1,3.1,0,0,0-.506-1.87,1.622,1.622,0,0,0-1.378-.691,1.6,1.6,0,0,0-1.359.68,3.4,3.4,0,0,0-.5,2.032" transform="translate(-29.812 -8.967)"/>
        <path id="Trazado_159156" data-name="Trazado 159156" d="M465.037,117.041v3.884h-1.82V110.452h4.007a4.051,4.051,0,0,1,2.787.914,3.076,3.076,0,0,1,1.032,2.42,2.976,2.976,0,0,1-1.01,2.4,4.246,4.246,0,0,1-2.831.857Zm0-1.468h2.187a2.152,2.152,0,0,0,1.482-.457,1.679,1.679,0,0,0,.511-1.32,1.81,1.81,0,0,0-.518-1.355,2,2,0,0,0-1.424-.522h-2.238Z" transform="translate(-36.687 -8.748)"/>
        <path id="Trazado_159157" data-name="Trazado 159157" d="M477.335,114.958a4.3,4.3,0,0,0-.712-.057,1.6,1.6,0,0,0-1.619.92v5.324h-1.749v-7.784h1.669l.043.87a1.969,1.969,0,0,1,1.755-1.015,1.637,1.637,0,0,1,.619.1Z" transform="translate(-37.482 -8.967)"/>
        <path id="Trazado_159158" data-name="Trazado 159158" d="M478.249,117.181a4.59,4.59,0,0,1,.453-2.061,3.311,3.311,0,0,1,1.273-1.411,3.592,3.592,0,0,1,1.884-.493,3.4,3.4,0,0,1,2.558,1.015,3.987,3.987,0,0,1,1.061,2.691l.007.41a4.622,4.622,0,0,1-.443,2.057,3.266,3.266,0,0,1-1.266,1.4,3.616,3.616,0,0,1-1.9.5,3.375,3.375,0,0,1-2.636-1.1,4.2,4.2,0,0,1-.989-2.924Zm1.748.151a3.138,3.138,0,0,0,.5,1.881,1.613,1.613,0,0,0,1.381.68,1.6,1.6,0,0,0,1.378-.691,3.461,3.461,0,0,0,.493-2.021,3.1,3.1,0,0,0-.506-1.87,1.622,1.622,0,0,0-1.378-.691,1.6,1.6,0,0,0-1.359.68,3.4,3.4,0,0,0-.5,2.032" transform="translate(-37.877 -8.967)"/>
        <path id="Trazado_159159" data-name="Trazado 159159" d="M487.381,117.2a4.556,4.556,0,0,1,.853-2.9,2.738,2.738,0,0,1,2.262-1.082,2.565,2.565,0,0,1,2.094.927l.079-.784h1.575v7.546a3.132,3.132,0,0,1-.953,2.417,3.629,3.629,0,0,1-2.572.885,4.139,4.139,0,0,1-1.672-.356,2.976,2.976,0,0,1-1.241-.931l.828-1.051a2.5,2.5,0,0,0,1.985.957,1.93,1.93,0,0,0,1.374-.471,1.806,1.806,0,0,0,.5-1.384v-.526a2.572,2.572,0,0,1-2.014.842,2.73,2.73,0,0,1-2.234-1.086,4.7,4.7,0,0,1-.867-3.007m1.741.151a3.13,3.13,0,0,0,.479,1.845,1.538,1.538,0,0,0,1.327.672,1.682,1.682,0,0,0,1.568-.906v-3.424a1.659,1.659,0,0,0-1.553-.885,1.545,1.545,0,0,0-1.342.683,3.51,3.51,0,0,0-.479,2.015" transform="translate(-38.601 -8.967)"/>
        <path id="Trazado_159160" data-name="Trazado 159160" d="M500.859,114.958a4.3,4.3,0,0,0-.712-.057,1.6,1.6,0,0,0-1.619.92v5.324H496.78v-7.784h1.669l.043.87a1.969,1.969,0,0,1,1.755-1.015,1.637,1.637,0,0,1,.619.1Z" transform="translate(-39.345 -8.967)"/>
        <path id="Trazado_159161" data-name="Trazado 159161" d="M506.8,121.145a2.714,2.714,0,0,1-.2-.727,2.942,2.942,0,0,1-3.957.2,2.142,2.142,0,0,1-.74-1.655,2.211,2.211,0,0,1,.924-1.91,4.475,4.475,0,0,1,2.644-.666h1.072v-.511a1.358,1.358,0,0,0-.339-.967,1.34,1.34,0,0,0-1.029-.364,1.545,1.545,0,0,0-.978.3.924.924,0,0,0-.381.76h-1.749a1.942,1.942,0,0,1,.424-1.2,2.832,2.832,0,0,1,1.155-.874,4.055,4.055,0,0,1,1.63-.317,3.269,3.269,0,0,1,2.18.687,2.447,2.447,0,0,1,.834,1.932v3.51a3.984,3.984,0,0,0,.295,1.676v.122Zm-1.921-1.259a1.993,1.993,0,0,0,.975-.251,1.684,1.684,0,0,0,.687-.677v-1.468H505.6a2.577,2.577,0,0,0-1.46.339,1.1,1.1,0,0,0-.489.957,1.022,1.022,0,0,0,.334.8,1.3,1.3,0,0,0,.9.3" transform="translate(-39.751 -8.967)"/>
        <path id="Trazado_159162" data-name="Trazado 159162" d="M512.474,113.362l.051.813a2.8,2.8,0,0,1,2.244-.957,2.15,2.15,0,0,1,2.136,1.194,2.762,2.762,0,0,1,2.389-1.194,2.428,2.428,0,0,1,1.917.712,3.14,3.14,0,0,1,.645,2.1v5.115h-1.749v-5.064a1.547,1.547,0,0,0-.324-1.087,1.416,1.416,0,0,0-1.072-.345,1.457,1.457,0,0,0-.974.32,1.682,1.682,0,0,0-.529.838l.006,5.338h-1.748v-5.121a1.247,1.247,0,0,0-1.4-1.375,1.54,1.54,0,0,0-1.49.856v5.64h-1.748v-7.784Z" transform="translate(-40.457 -8.967)"/>
        <path id="Trazado_159163" data-name="Trazado 159163" d="M529.383,121.145a2.712,2.712,0,0,1-.2-.727,2.942,2.942,0,0,1-3.957.2,2.142,2.142,0,0,1-.74-1.655,2.211,2.211,0,0,1,.924-1.91,4.475,4.475,0,0,1,2.644-.666h1.072v-.511a1.358,1.358,0,0,0-.339-.967,1.34,1.34,0,0,0-1.029-.364,1.545,1.545,0,0,0-.978.3.924.924,0,0,0-.381.76h-1.749a1.942,1.942,0,0,1,.424-1.2,2.832,2.832,0,0,1,1.155-.874,4.055,4.055,0,0,1,1.63-.317,3.269,3.269,0,0,1,2.18.687,2.447,2.447,0,0,1,.834,1.932v3.51a3.982,3.982,0,0,0,.295,1.676v.122Zm-1.921-1.259a1.993,1.993,0,0,0,.975-.251,1.684,1.684,0,0,0,.687-.677v-1.468h-.943a2.577,2.577,0,0,0-1.46.339,1.1,1.1,0,0,0-.489.957,1.022,1.022,0,0,0,.334.8,1.3,1.3,0,0,0,.9.3" transform="translate(-41.539 -8.967)"/>
        <path id="Trazado_159164" data-name="Trazado 159164" d="M536.579,119.893a1.582,1.582,0,0,0,1.087-.381,1.3,1.3,0,0,0,.46-.942h1.647a2.568,2.568,0,0,1-.453,1.355,2.971,2.971,0,0,1-1.151,1,3.43,3.43,0,0,1-1.569.367,3.316,3.316,0,0,1-2.589-1.058,4.2,4.2,0,0,1-.957-2.921v-.18a4.128,4.128,0,0,1,.949-2.845,3.291,3.291,0,0,1,2.59-1.068,3.2,3.2,0,0,1,2.262.809,2.9,2.9,0,0,1,.917,2.126h-1.647a1.607,1.607,0,0,0-.457-1.1,1.473,1.473,0,0,0-1.09-.432,1.54,1.54,0,0,0-1.309.615,3.141,3.141,0,0,0-.468,1.867v.28a3.188,3.188,0,0,0,.457,1.889,1.537,1.537,0,0,0,1.32.622" transform="translate(-42.218 -8.967)"/>
        <path id="Trazado_159165" data-name="Trazado 159165" d="M541.788,111.1a.931.931,0,0,1,.255-.669.964.964,0,0,1,.73-.266.975.975,0,0,1,.734.266.92.92,0,0,1,.26.669.9.9,0,0,1-.26.658.984.984,0,0,1-.734.262.973.973,0,0,1-.73-.262.908.908,0,0,1-.255-.658m1.856,9.806H541.9V113.12h1.748Z" transform="translate(-42.91 -8.725)"/>
        <path id="Trazado_159166" data-name="Trazado 159166" d="M545.515,116.913a4.59,4.59,0,0,1,.453-2.061,3.308,3.308,0,0,1,1.273-1.41,3.583,3.583,0,0,1,1.885-.493,3.4,3.4,0,0,1,2.557,1.014,3.99,3.99,0,0,1,1.061,2.691l.007.41a4.634,4.634,0,0,1-.442,2.058,3.273,3.273,0,0,1-1.266,1.4,3.612,3.612,0,0,1-1.9.5,3.377,3.377,0,0,1-2.636-1.1,4.2,4.2,0,0,1-.989-2.924Zm1.748.151a3.139,3.139,0,0,0,.5,1.881,1.614,1.614,0,0,0,1.381.68,1.6,1.6,0,0,0,1.378-.691,3.465,3.465,0,0,0,.493-2.022,3.1,3.1,0,0,0-.506-1.87,1.622,1.622,0,0,0-1.378-.691,1.6,1.6,0,0,0-1.36.68,3.4,3.4,0,0,0-.5,2.032m2.345-7.237H551.6l-1.993,2.18-1.4,0Z" transform="translate(-43.205 -8.698)"/>
        <path id="Trazado_159167" data-name="Trazado 159167" d="M556.6,113.362l.051.9a2.8,2.8,0,0,1,2.266-1.043q2.431,0,2.474,2.784v5.144h-1.748V116.1a1.608,1.608,0,0,0-.32-1.1,1.344,1.344,0,0,0-1.047-.356,1.686,1.686,0,0,0-1.576.958v5.539h-1.748v-7.784Z" transform="translate(-43.952 -8.967)"/>
        <path id="Trazado_159168" data-name="Trazado 159168" d="M749.142,109.429v4.377h-2.051V102h4.516a4.565,4.565,0,0,1,3.141,1.03,3.466,3.466,0,0,1,1.163,2.727,3.354,3.354,0,0,1-1.138,2.7,4.785,4.785,0,0,1-3.189.966Zm0-1.654h2.464a2.425,2.425,0,0,0,1.67-.515,1.893,1.893,0,0,0,.576-1.488,2.04,2.04,0,0,0-.583-1.527,2.25,2.25,0,0,0-1.605-.588h-2.521Z" transform="translate(-71.81 14.018)" fill="#fff"/>
        <path id="Trazado_159169" data-name="Trazado 159169" d="M762.45,112.838a3.057,3.057,0,0,1-2.464,1.021,2.724,2.724,0,0,1-2.16-.834,3.548,3.548,0,0,1-.734-2.416v-5.683h1.969v5.658q0,1.67,1.386,1.671a1.949,1.949,0,0,0,1.938-1.03v-6.3h1.969V113.7H762.5Z" transform="translate(-71.434 14.128)" fill="#fff"/>
        <path id="Trazado_159170" data-name="Trazado 159170" d="M769.9,113.865a4.073,4.073,0,0,1-3.036-1.18,4.277,4.277,0,0,1-1.163-3.141V109.3a5.268,5.268,0,0,1,.507-2.347,3.849,3.849,0,0,1,1.422-1.609,3.769,3.769,0,0,1,2.043-.575,3.444,3.444,0,0,1,2.768,1.142,4.831,4.831,0,0,1,.976,3.234v.795h-5.73a2.63,2.63,0,0,0,.725,1.718,2.18,2.18,0,0,0,1.6.633,2.668,2.668,0,0,0,2.2-1.095l1.061,1.013a3.53,3.53,0,0,1-1.406,1.22,4.4,4.4,0,0,1-1.974.434m-.235-7.514a1.662,1.662,0,0,0-1.31.568,2.949,2.949,0,0,0-.636,1.58h3.753v-.145a2.4,2.4,0,0,0-.527-1.5,1.647,1.647,0,0,0-1.28-.506" transform="translate(-71.11 14.122)" fill="#fff"/>
        <path id="Trazado_159171" data-name="Trazado 159171" d="M779.542,111.319a.894.894,0,0,0-.434-.8,4.624,4.624,0,0,0-1.439-.487,7.365,7.365,0,0,1-1.678-.535,2.239,2.239,0,0,1-1.476-2.067,2.337,2.337,0,0,1,.957-1.9,3.784,3.784,0,0,1,2.432-.762,3.932,3.932,0,0,1,2.541.778,2.47,2.47,0,0,1,.969,2.018h-1.971a1.213,1.213,0,0,0-.421-.944,1.612,1.612,0,0,0-1.119-.378,1.751,1.751,0,0,0-1.058.3.949.949,0,0,0-.409.8.8.8,0,0,0,.381.706,5.251,5.251,0,0,0,1.54.506,7.277,7.277,0,0,1,1.82.608,2.579,2.579,0,0,1,.982.847,2.158,2.158,0,0,1,.32,1.2,2.285,2.285,0,0,1-.981,1.918,4.179,4.179,0,0,1-2.57.734,4.537,4.537,0,0,1-1.921-.389,3.164,3.164,0,0,1-1.314-1.07,2.535,2.535,0,0,1-.47-1.467h1.913a1.386,1.386,0,0,0,.527,1.074,2.046,2.046,0,0,0,1.289.377,1.983,1.983,0,0,0,1.183-.3.914.914,0,0,0,.406-.774" transform="translate(-70.79 14.122)" fill="#fff"/>
        <path id="Trazado_159172" data-name="Trazado 159172" d="M785.371,102.871V105h1.548v1.459h-1.548v4.9a1.074,1.074,0,0,0,.2.725.923.923,0,0,0,.71.223,3.04,3.04,0,0,0,.689-.081v1.523a4.848,4.848,0,0,1-1.3.187q-2.269,0-2.269-2.5v-4.969h-1.443V105H783.4v-2.132Z" transform="translate(-70.499 14.05)" fill="#fff"/>
        <path id="Trazado_159173" data-name="Trazado 159173" d="M793.44,113.7a3.06,3.06,0,0,1-.227-.819,3.315,3.315,0,0,1-4.458.227,2.414,2.414,0,0,1-.834-1.865,2.491,2.491,0,0,1,1.042-2.152,5.042,5.042,0,0,1,2.979-.75h1.208v-.576a1.531,1.531,0,0,0-.382-1.089,1.511,1.511,0,0,0-1.159-.41,1.741,1.741,0,0,0-1.1.336,1.042,1.042,0,0,0-.429.856h-1.971a2.189,2.189,0,0,1,.479-1.35,3.191,3.191,0,0,1,1.3-.985,4.57,4.57,0,0,1,1.836-.357,3.684,3.684,0,0,1,2.456.774,2.757,2.757,0,0,1,.94,2.177v3.955a4.489,4.489,0,0,0,.332,1.888v.138Zm-2.164-1.418a2.246,2.246,0,0,0,1.1-.283,1.9,1.9,0,0,0,.774-.763v-1.654h-1.062a2.9,2.9,0,0,0-1.646.382,1.235,1.235,0,0,0-.551,1.078,1.152,1.152,0,0,0,.377.9,1.463,1.463,0,0,0,1.01.336" transform="translate(-70.275 14.122)" fill="#fff"/>
        <path id="Trazado_159174" data-name="Trazado 159174" d="M804.705,113.865a4.073,4.073,0,0,1-3.036-1.18,4.277,4.277,0,0,1-1.163-3.141V109.3a5.271,5.271,0,0,1,.506-2.347,3.85,3.85,0,0,1,1.422-1.609,3.769,3.769,0,0,1,2.043-.575,3.444,3.444,0,0,1,2.768,1.142,4.831,4.831,0,0,1,.976,3.234v.795h-5.731a2.63,2.63,0,0,0,.725,1.718,2.18,2.18,0,0,0,1.6.633,2.668,2.668,0,0,0,2.2-1.095l1.062,1.013a3.53,3.53,0,0,1-1.406,1.22,4.4,4.4,0,0,1-1.973.434m-.236-7.514a1.662,1.662,0,0,0-1.309.568,2.948,2.948,0,0,0-.636,1.58h3.753v-.145a2.4,2.4,0,0,0-.527-1.5,1.647,1.647,0,0,0-1.28-.506" transform="translate(-69.802 14.122)" fill="#fff"/>
        <path id="Trazado_159175" data-name="Trazado 159175" d="M811.245,104.932l.057,1.014a3.154,3.154,0,0,1,2.554-1.176q2.739,0,2.788,3.137v5.8h-1.969v-5.682a1.812,1.812,0,0,0-.361-1.237,1.515,1.515,0,0,0-1.18-.4,1.9,1.9,0,0,0-1.775,1.079V113.7h-1.969v-8.771Z" transform="translate(-69.468 14.122)" fill="#fff"/>
        <path id="Trazado_159176" data-name="Trazado 159176" d="M824.151,104.932l.057.916a3.153,3.153,0,0,1,2.529-1.078,2.423,2.423,0,0,1,2.407,1.346,3.112,3.112,0,0,1,2.692-1.346,2.736,2.736,0,0,1,2.16.8,3.537,3.537,0,0,1,.726,2.367V113.7h-1.97V108a1.743,1.743,0,0,0-.365-1.224,1.6,1.6,0,0,0-1.208-.389,1.643,1.643,0,0,0-1.1.361,1.9,1.9,0,0,0-.6.944l.007,6.015h-1.969v-5.771a1.405,1.405,0,0,0-1.58-1.549,1.735,1.735,0,0,0-1.679.965V113.7h-1.969v-8.771Z" transform="translate(-68.983 14.122)" fill="#fff"/>
        <path id="Trazado_159177" data-name="Trazado 159177" d="M841.471,113.7a3.058,3.058,0,0,1-.227-.819,3.315,3.315,0,0,1-4.459.227,2.413,2.413,0,0,1-.834-1.865,2.491,2.491,0,0,1,1.042-2.152,5.041,5.041,0,0,1,2.979-.75h1.208v-.576a1.53,1.53,0,0,0-.382-1.089,1.51,1.51,0,0,0-1.159-.41,1.74,1.74,0,0,0-1.1.336,1.042,1.042,0,0,0-.43.856h-1.97a2.189,2.189,0,0,1,.478-1.35,3.191,3.191,0,0,1,1.3-.985,4.57,4.57,0,0,1,1.837-.357,3.684,3.684,0,0,1,2.456.774,2.758,2.758,0,0,1,.94,2.177v3.955a4.489,4.489,0,0,0,.332,1.888v.138Zm-2.164-1.418a2.246,2.246,0,0,0,1.1-.283,1.9,1.9,0,0,0,.774-.763v-1.654h-1.063a2.9,2.9,0,0,0-1.646.382,1.234,1.234,0,0,0-.551,1.078,1.152,1.152,0,0,0,.376.9,1.463,1.463,0,0,0,1.01.336" transform="translate(-68.47 14.122)" fill="#fff"/>
        <path id="Trazado_159178" data-name="Trazado 159178" d="M849.469,106.731a4.838,4.838,0,0,0-.8-.064,1.806,1.806,0,0,0-1.824,1.037v6h-1.97v-8.771h1.881l.049.981a2.219,2.219,0,0,1,1.978-1.143,1.845,1.845,0,0,1,.7.114Z" transform="translate(-68.135 14.122)" fill="#fff"/>
        <path id="Trazado_159179" data-name="Trazado 159179" d="M853.97,112.293a1.783,1.783,0,0,0,1.224-.43,1.47,1.47,0,0,0,.519-1.061h1.856a2.893,2.893,0,0,1-.511,1.527,3.347,3.347,0,0,1-1.3,1.123,3.865,3.865,0,0,1-1.768.414,3.737,3.737,0,0,1-2.918-1.192A4.729,4.729,0,0,1,850,109.382v-.2a4.653,4.653,0,0,1,1.07-3.206,3.708,3.708,0,0,1,2.919-1.2,3.6,3.6,0,0,1,2.549.912,3.269,3.269,0,0,1,1.034,2.4h-1.856a1.81,1.81,0,0,0-.515-1.241,1.66,1.66,0,0,0-1.229-.487,1.735,1.735,0,0,0-1.475.693,3.54,3.54,0,0,0-.527,2.1v.315a3.592,3.592,0,0,0,.515,2.128,1.732,1.732,0,0,0,1.488.7" transform="translate(-67.942 14.122)" fill="#fff"/>
        <path id="Trazado_159180" data-name="Trazado 159180" d="M860.671,106.016a3.082,3.082,0,0,1,2.44-1.119q2.8,0,2.845,3.2v5.731h-1.97v-5.658a1.73,1.73,0,0,0-.393-1.285,1.609,1.609,0,0,0-1.155-.377,1.9,1.9,0,0,0-1.767,1.053v6.266H858.7V101.379h1.969Z" transform="translate(-67.615 13.994)" fill="#fff"/>
        <path id="Trazado_159181" data-name="Trazado 159181" d="M872.862,113.7a3.06,3.06,0,0,1-.227-.819,3.315,3.315,0,0,1-4.458.227,2.413,2.413,0,0,1-.834-1.865,2.491,2.491,0,0,1,1.042-2.152,5.042,5.042,0,0,1,2.979-.75h1.208v-.576a1.53,1.53,0,0,0-.382-1.089,1.51,1.51,0,0,0-1.159-.41,1.741,1.741,0,0,0-1.1.336,1.042,1.042,0,0,0-.43.856h-1.97a2.189,2.189,0,0,1,.478-1.35,3.192,3.192,0,0,1,1.3-.985,4.569,4.569,0,0,1,1.836-.357,3.683,3.683,0,0,1,2.456.774,2.758,2.758,0,0,1,.94,2.177v3.955a4.488,4.488,0,0,0,.332,1.888v.138Zm-2.164-1.418a2.246,2.246,0,0,0,1.1-.283,1.9,1.9,0,0,0,.774-.763v-1.654h-1.062a2.9,2.9,0,0,0-1.646.382,1.234,1.234,0,0,0-.551,1.078,1.152,1.152,0,0,0,.377.9,1.463,1.463,0,0,0,1.01.336" transform="translate(-67.29 14.122)" fill="#fff"/>
        <path id="Sustracción_10" data-name="Sustracción 10" d="M1251.566,7234.966H1130a13.565,13.565,0,0,0,3.032-3.323l14.266-22.165a15.344,15.344,0,0,0,0-16.367l-14.266-22.165a13.55,13.55,0,0,0-3.032-3.323h32.3a4.526,4.526,0,0,0-1.156,1.135c-.957,1.346-1.442,3.431-1.442,6.2v3.208a10.5,10.5,0,0,0,1.507,6,6,6,0,0,0,8.993-.045c.957-1.366,1.442-3.478,1.442-6.279v-3.118c-.025-2.707-.524-4.738-1.482-6.038a4.493,4.493,0,0,0-1.1-1.062h7.667l-.9,8.8,1.925.494.635-.52a3.992,3.992,0,0,1,2.469-.688,3.539,3.539,0,0,1,2.749,1.149,4.408,4.408,0,0,1,1.033,3.047,4.794,4.794,0,0,1-.955,3.157,3.258,3.258,0,0,1-2.631,1.146,3.6,3.6,0,0,1-2.469-.826,3.824,3.824,0,0,1-1.157-2.45h-2.273a5.554,5.554,0,0,0,1.8,3.846,6.007,6.007,0,0,0,4.095,1.391,5.786,5.786,0,0,0,4.412-1.683,6.5,6.5,0,0,0,1.578-4.606,6.73,6.73,0,0,0-1.52-4.62,5.245,5.245,0,0,0-4.107-1.71,6.147,6.147,0,0,0-3.157.819l.572-5.159h7.653v-1.589h65.078a12.7,12.7,0,0,1,10.408,5.507l14.27,20.568a13.388,13.388,0,0,1,0,15.19l-14.27,20.571A12.705,12.705,0,0,1,1251.566,7234.966Zm-85.87-50.755a2.955,2.955,0,0,1-2.7-1.463,8.988,8.988,0,0,1-.891-4.529v-3.847a8.654,8.654,0,0,1,.872-4.274,2.928,2.928,0,0,1,2.691-1.391,2.965,2.965,0,0,1,2.716,1.4,8.864,8.864,0,0,1,.857,4.45v3.937a8.693,8.693,0,0,1-.9,4.341A2.924,2.924,0,0,1,1165.7,7184.21Z" transform="translate(-603.325 -7103.272)" fill="#afafaf" stroke="rgba(0,0,0,0)" stroke-miterlimit="10" stroke-width="1" opacity="0.51"/>
        <path id="Trazado_159185" data-name="Trazado 159185" d="M626.022,117.041v3.884H624.2V110.452h4.007a4.051,4.051,0,0,1,2.787.914,3.076,3.076,0,0,1,1.032,2.42,2.976,2.976,0,0,1-1.01,2.4,4.246,4.246,0,0,1-2.831.857Zm0-1.468h2.187a2.152,2.152,0,0,0,1.482-.457,1.68,1.68,0,0,0,.511-1.32,1.81,1.81,0,0,0-.518-1.355,2,2,0,0,0-1.424-.522h-2.238Z" transform="translate(-49.437 -8.748)"/>
        <path id="Trazado_159186" data-name="Trazado 159186" d="M638.32,114.958a4.294,4.294,0,0,0-.712-.057,1.6,1.6,0,0,0-1.619.92v5.324h-1.749v-7.784h1.669l.043.87a1.969,1.969,0,0,1,1.755-1.015,1.637,1.637,0,0,1,.619.1Z" transform="translate(-50.232 -8.967)"/>
        <path id="Trazado_159187" data-name="Trazado 159187" d="M644.582,120.4a2.713,2.713,0,0,1-2.187.906,2.418,2.418,0,0,1-1.917-.74,3.149,3.149,0,0,1-.651-2.144v-5.043h1.748V118.4q0,1.482,1.23,1.482a1.729,1.729,0,0,0,1.72-.914v-5.589h1.748v7.784h-1.647Z" transform="translate(-50.674 -8.979)"/>
        <path id="Trazado_159188" data-name="Trazado 159188" d="M652.163,121.289a3.615,3.615,0,0,1-2.694-1.047,3.8,3.8,0,0,1-1.032-2.787v-.215a4.678,4.678,0,0,1,.449-2.083,3.417,3.417,0,0,1,1.262-1.428,3.345,3.345,0,0,1,1.813-.51,3.056,3.056,0,0,1,2.457,1.014,4.287,4.287,0,0,1,.867,2.87v.705H650.2a2.334,2.334,0,0,0,.644,1.525,1.934,1.934,0,0,0,1.421.562,2.367,2.367,0,0,0,1.957-.971l.942.9a3.133,3.133,0,0,1-1.248,1.083,3.9,3.9,0,0,1-1.751.385m-.209-6.668a1.475,1.475,0,0,0-1.162.5,2.615,2.615,0,0,0-.565,1.4h3.331V116.4a2.128,2.128,0,0,0-.468-1.328,1.462,1.462,0,0,0-1.136-.449" transform="translate(-51.356 -8.967)"/>
        <path id="Trazado_159189" data-name="Trazado 159189" d="M664.176,117.064a4.68,4.68,0,0,1-.808,2.885,2.636,2.636,0,0,1-2.226,1.072,2.541,2.541,0,0,1-2.13-.985l-.087.842h-1.582v-11.05h1.748v4.014a2.533,2.533,0,0,1,2.036-.892,2.667,2.667,0,0,1,2.238,1.058,4.756,4.756,0,0,1,.812,2.957Zm-1.748-.151a3.306,3.306,0,0,0-.446-1.9,1.487,1.487,0,0,0-1.3-.633,1.622,1.622,0,0,0-1.6.993v3.208A1.64,1.64,0,0,0,660.7,119.6a1.473,1.473,0,0,0,1.266-.611,3.2,3.2,0,0,0,.46-1.849Z" transform="translate(-52.062 -8.698)"/>
        <path id="Trazado_159190" data-name="Trazado 159190" d="M670.984,121.145a2.719,2.719,0,0,1-.2-.727,2.942,2.942,0,0,1-3.957.2,2.142,2.142,0,0,1-.74-1.655,2.211,2.211,0,0,1,.924-1.91,4.476,4.476,0,0,1,2.644-.666h1.072v-.511a1.357,1.357,0,0,0-.339-.967,1.34,1.34,0,0,0-1.029-.364,1.545,1.545,0,0,0-.978.3.924.924,0,0,0-.381.76H666.25a1.942,1.942,0,0,1,.424-1.2,2.832,2.832,0,0,1,1.155-.874,4.055,4.055,0,0,1,1.63-.317,3.27,3.27,0,0,1,2.18.687,2.447,2.447,0,0,1,.834,1.932v3.51a3.984,3.984,0,0,0,.295,1.676v.122Zm-1.921-1.259a1.993,1.993,0,0,0,.975-.251,1.683,1.683,0,0,0,.687-.677v-1.468h-.943a2.578,2.578,0,0,0-1.461.339,1.1,1.1,0,0,0-.489.957,1.022,1.022,0,0,0,.334.8,1.3,1.3,0,0,0,.9.3" transform="translate(-52.754 -8.967)"/>
        <path id="Trazado_159191" data-name="Trazado 159191" d="M679.343,119.03a.794.794,0,0,0-.385-.712,4.1,4.1,0,0,0-1.277-.432,6.531,6.531,0,0,1-1.489-.475,1.987,1.987,0,0,1-1.309-1.834,2.074,2.074,0,0,1,.849-1.683,3.358,3.358,0,0,1,2.158-.676,3.489,3.489,0,0,1,2.255.691,2.192,2.192,0,0,1,.86,1.791h-1.749a1.077,1.077,0,0,0-.374-.838,1.43,1.43,0,0,0-.993-.335,1.555,1.555,0,0,0-.939.266.842.842,0,0,0-.363.713.709.709,0,0,0,.338.626,4.661,4.661,0,0,0,1.366.449,6.457,6.457,0,0,1,1.615.54,2.289,2.289,0,0,1,.871.751,1.915,1.915,0,0,1,.284,1.064,2.028,2.028,0,0,1-.87,1.7,3.708,3.708,0,0,1-2.281.651,4.025,4.025,0,0,1-1.7-.345,2.808,2.808,0,0,1-1.166-.949,2.25,2.25,0,0,1-.417-1.3h1.7a1.23,1.23,0,0,0,.468.953,1.816,1.816,0,0,0,1.144.334,1.759,1.759,0,0,0,1.05-.262.811.811,0,0,0,.36-.687" transform="translate(-53.43 -8.967)"/>
      </g>
    </g>
    <g id="puesta-en-marcha" transform="translate(1093 4580.443)">
      <g id="Grupo_71525" data-name="Grupo 71525" transform="translate(0 53.472)">
        <g id="Grupo_71524" data-name="Grupo 71524" transform="translate(0)">
          <circle id="Elipse_5353" data-name="Elipse 5353" cx="1.07" cy="1.07" r="1.07" fill="#fff"/>
        </g>
      </g>
      <g id="Grupo_71527" data-name="Grupo 71527" transform="translate(27.321 26.348)">
        <g id="Grupo_71526" data-name="Grupo 71526">
          <circle id="Elipse_5354" data-name="Elipse 5354" cx="1.067" cy="1.067" r="1.067" fill="#fff"/>
        </g>
      </g>
      <g id="Grupo_71529" data-name="Grupo 71529" transform="translate(34.613 12.552)">
        <g id="Grupo_71528" data-name="Grupo 71528">
          <path id="Trazado_159192" data-name="Trazado 159192" d="M333.305,106.847a4.541,4.541,0,1,0,0,6.425A4.513,4.513,0,0,0,333.305,106.847Zm-1.509,4.916a2.409,2.409,0,1,1,0-3.406A2.411,2.411,0,0,1,331.8,111.762Z" transform="translate(-325.551 -105.516)" fill="#fff"/>
        </g>
      </g>
      <g id="Grupo_71531" data-name="Grupo 71531" transform="translate(3.44 41.801)">
        <g id="Grupo_71530" data-name="Grupo 71530">
          <path id="Trazado_159193" data-name="Trazado 159193" d="M42.244,383.894a1.067,1.067,0,0,0-1.431.48l-1.271,2.553a3.523,3.523,0,0,1-2.9,1.937l-1.479.1a.633.633,0,0,1-.674-.674l.1-1.479a3.523,3.523,0,0,1,1.937-2.9l2.553-1.271a1.067,1.067,0,0,0-.952-1.911L35.573,382a5.666,5.666,0,0,0-3.115,4.667l-.1,1.479a2.767,2.767,0,0,0,2.761,2.956c.063,0,.126,0,.189-.007l1.479-.1a5.665,5.665,0,0,0,4.667-3.115l1.271-2.553A1.067,1.067,0,0,0,42.244,383.894Z" transform="translate(-32.35 -380.616)" fill="#fff"/>
        </g>
      </g>
      <g id="Grupo_71533" data-name="Grupo 71533" transform="translate(0.002 1.492)">
        <g id="Grupo_71532" data-name="Grupo 71532" transform="translate(0 0)">
          <path id="Trazado_159194" data-name="Trazado 159194" d="M53.716,2.2A2.472,2.472,0,0,0,51.824,1.5l-.994.063a32.206,32.206,0,0,0-22.882,11.8l-2.339,2.88-6.122-.18h-.031A18.059,18.059,0,0,0,6.6,21.387L.331,27.658a1.067,1.067,0,0,0,.7,1.821l13.274.682-.541.666a1.067,1.067,0,0,0-.109,1.183q.312.573.653,1.129l-3.148,3.737a1.068,1.068,0,0,0-.149,1.144,13.9,13.9,0,0,0,6.673,6.673,1.067,1.067,0,0,0,1.129-.136c.678-.55,1.46-1.2,2.216-1.834.539-.45,1.09-.91,1.606-1.334q.461.278.935.536a1.067,1.067,0,0,0,1.164-.094l.728-.565.685,13.33a1.067,1.067,0,0,0,1.821.7l6.271-6.271a18.059,18.059,0,0,0,5.324-12.854V30.325l2.474-1.92A32.079,32.079,0,0,0,54.424,4.6l.025-.519A2.473,2.473,0,0,0,53.716,2.2ZM3.538,27.47,8.111,22.9A15.939,15.939,0,0,1,19.44,18.2l4.475.131-7.943,9.779ZM19.661,41.085c-.557.465-1.128.942-1.659,1.378a11.726,11.726,0,0,1-4.756-4.751l2.3-2.736a24.747,24.747,0,0,0,2.284,2.65l0,0h0a24.748,24.748,0,0,0,2.939,2.526C20.41,40.46,20.032,40.775,19.661,41.085Zm17.766-4.912a15.938,15.938,0,0,1-4.7,11.344L28.156,52.09l-.638-12.417,9.91-7.69v4.19ZM52.292,4.5A29.946,29.946,0,0,1,40.728,26.719L23.986,39.71a22.6,22.6,0,0,1-3.867-2.854l5.644-5.644a1.067,1.067,0,0,0-1.51-1.51l-5.639,5.639a22.6,22.6,0,0,1-2.737-3.732l13.727-16.9A30.065,30.065,0,0,1,50.966,3.692l.994-.063a.337.337,0,0,1,.358.352Z" transform="translate(-0.018 -1.492)" fill="#fff"/>
        </g>
      </g>
    </g>
  </g>
</svg>
