<svg xmlns="http://www.w3.org/2000/svg" xmlns:xlink="http://www.w3.org/1999/xlink" width="820" height="182" viewBox="0 0 820 182">
  <defs>
    <clipPath id="clip-path">
      <rect id="Rectángulo_12032" data-name="Rectángulo 12032" width="160.527" height="160.527" fill="#ffc200"/>
    </clipPath>
    <clipPath id="clip-path-2">
      <rect id="Rectángulo_12034" data-name="Rectángulo 12034" width="56.984" height="12.156" transform="translate(0 0)" fill="none"/>
    </clipPath>
    <clipPath id="clip-path-3">
      <rect id="Rectángulo_12035" data-name="Rectángulo 12035" width="40.578" height="11.688" transform="translate(0 0)" fill="none"/>
    </clipPath>
    <clipPath id="clip-path-4">
      <rect id="Rectángulo_12037" data-name="Rectángulo 12037" width="52.188" height="12.156" transform="translate(0 0)" fill="#636363"/>
    </clipPath>
    <clipPath id="clip-path-5">
      <rect id="Rectángulo_12038" data-name="Rectángulo 12038" width="53.438" height="14.914" transform="translate(0 0)" fill="none"/>
    </clipPath>
  </defs>
  <g id="Grupo_71757" data-name="Grupo 71757" transform="translate(-488 4019)">
    <g id="Grupo_71741" data-name="Grupo 71741" transform="translate(6 1637.626)">
      <g id="Grupo_71573" data-name="Grupo 71573" transform="translate(963.666 -5514.959)">
        <path id="Trazado_159458" data-name="Trazado 159458" d="M963.666-5609.291h56.474" transform="translate(-963.666 5613)" fill="none" stroke="#69787d" stroke-width="2"/>
        <circle id="Elipse_5357" data-name="Elipse 5357" cx="3.5" cy="3.5" r="3.5" transform="translate(53.334)" fill="#69787d"/>
      </g>
      <g id="Grupo_71574" data-name="Grupo 71574" transform="translate(963.666 -5616.376)">
        <path id="Trazado_159458-2" data-name="Trazado 159458" d="M963.666-5609.291h56.474" transform="translate(-963.666 5613)" fill="none" stroke="#d44f4a" stroke-width="2"/>
        <circle id="Elipse_5357-2" data-name="Elipse 5357" cx="3.5" cy="3.5" r="3.5" transform="translate(53.334 -0.25)" fill="#d44f4a"/>
      </g>
      <g id="Grupo_71576" data-name="Grupo 71576" transform="translate(834.05 -5545.61) rotate(180)">
        <path id="Trazado_159458-3" data-name="Trazado 159458" d="M0,0H56.474" transform="translate(0 3.709)" fill="none" stroke="#daa363" stroke-width="2"/>
        <circle id="Elipse_5357-3" data-name="Elipse 5357" cx="3.5" cy="3.5" r="3.5" transform="translate(53.334)" fill="#daa363"/>
      </g>
      <rect id="Rectángulo_11939" data-name="Rectángulo 11939" width="820" height="182" transform="translate(482 -5656.626)" fill="none"/>
    </g>
    <g id="Grupo_71745" data-name="Grupo 71745" transform="translate(835 -4009.264)">
      <g id="Grupo_71742" data-name="Grupo 71742" clip-path="url(#clip-path)">
        <path id="Trazado_159615" data-name="Trazado 159615" d="M27.777,37.512l6.344,11.01a55.995,55.995,0,0,1,93.352,1.617,2.978,2.978,0,0,1,1.427-.447l14.057-.634,5.443-11.2A80.246,80.246,0,0,0,13.113,36.315l11.988-.3a3.012,3.012,0,0,1,2.676,1.5" fill="#d44f4a"/>
        <path id="Trazado_159616" data-name="Trazado 159616" d="M76.239,152.015a3.012,3.012,0,0,1-.313-3.052l5.9-12.728c-.522.015-1.041.04-1.567.04A56,56,0,0,1,30.6,54.379c-.031-.048-.074-.083-.1-.133L23.469,42.054,9.48,42.41A80.274,80.274,0,0,0,80.263,160.527c.758,0,1.507-.036,2.26-.057Z" fill="#ffc200"/>
        <path id="Trazado_159617" data-name="Trazado 159617" d="M151.976,44.224l-4.4,9.062a3.017,3.017,0,0,1-2.564,1.686l-14.442.651A56.016,56.016,0,0,1,88.311,135.69a2.978,2.978,0,0,1-.27,1.414L82.12,149.868l7.5,10.1A80.243,80.243,0,0,0,151.976,44.224" fill="#69787d"/>
      </g>
    </g>
    <g id="Grupo_71748" data-name="Grupo 71748" transform="translate(1038.508 -3983.999)">
      <path id="Trazado_159618" data-name="Trazado 159618" d="M5.18,3.039,6.829,7.758h-3.3ZM4.3.625,0,12H2.055l.922-2.648H7.383L8.313,12h2.063L6.071.625Z"/>
      <rect id="Rectángulo_12033" data-name="Rectángulo 12033" width="1.898" height="12" transform="translate(11.602 -0.001)"/>
      <g id="Grupo_71747" data-name="Grupo 71747">
        <g id="Grupo_71746" data-name="Grupo 71746" clip-path="url(#clip-path-2)">
          <path id="Trazado_159619" data-name="Trazado 159619" d="M19.039,10.641a1.718,1.718,0,0,0,1.18-.414,1.416,1.416,0,0,0,.5-1.023h1.789a2.791,2.791,0,0,1-.492,1.472,3.226,3.226,0,0,1-1.25,1.082,3.725,3.725,0,0,1-1.7.4,3.6,3.6,0,0,1-2.812-1.149,4.558,4.558,0,0,1-1.039-3.172v-.2a4.484,4.484,0,0,1,1.031-3.09,3.574,3.574,0,0,1,2.813-1.16,3.473,3.473,0,0,1,2.457.879,3.15,3.15,0,0,1,1,2.309H20.719a1.745,1.745,0,0,0-.5-1.2,1.6,1.6,0,0,0-1.184-.469,1.672,1.672,0,0,0-1.422.668,3.411,3.411,0,0,0-.508,2.028v.3a3.462,3.462,0,0,0,.5,2.051,1.672,1.672,0,0,0,1.434.676"/>
          <path id="Trazado_159620" data-name="Trazado 159620" d="M28.992,12a2.96,2.96,0,0,1-.219-.789,3.195,3.195,0,0,1-4.3.219,2.326,2.326,0,0,1-.8-1.8,2.4,2.4,0,0,1,1-2.074,4.86,4.86,0,0,1,2.871-.723h1.164V6.281a1.473,1.473,0,0,0-.368-1.05,1.456,1.456,0,0,0-1.117-.395,1.678,1.678,0,0,0-1.062.324,1,1,0,0,0-.414.825h-1.9a2.107,2.107,0,0,1,.461-1.3,3.075,3.075,0,0,1,1.254-.949,4.387,4.387,0,0,1,1.77-.344,3.55,3.55,0,0,1,2.367.746,2.656,2.656,0,0,1,.906,2.1v3.812a4.326,4.326,0,0,0,.32,1.82V12Zm-2.086-1.367a2.164,2.164,0,0,0,1.059-.273,1.828,1.828,0,0,0,.746-.735V8.031H27.687A2.8,2.8,0,0,0,26.1,8.4a1.189,1.189,0,0,0-.531,1.039,1.11,1.11,0,0,0,.363.871,1.41,1.41,0,0,0,.973.324"/>
          <path id="Trazado_159621" data-name="Trazado 159621" d="M34.359,3.547l.055.977a3.04,3.04,0,0,1,2.461-1.133q2.64,0,2.687,3.023V12h-1.9V6.524a1.746,1.746,0,0,0-.348-1.192,1.46,1.46,0,0,0-1.137-.387,1.83,1.83,0,0,0-1.711,1.04V12h-1.9V3.547Z"/>
          <path id="Trazado_159622" data-name="Trazado 159622" d="M44.969,10.641a1.718,1.718,0,0,0,1.18-.414,1.416,1.416,0,0,0,.5-1.023h1.789a2.791,2.791,0,0,1-.492,1.472,3.226,3.226,0,0,1-1.25,1.082,3.725,3.725,0,0,1-1.7.4,3.6,3.6,0,0,1-2.812-1.149,4.558,4.558,0,0,1-1.039-3.172v-.2a4.484,4.484,0,0,1,1.031-3.09,3.574,3.574,0,0,1,2.813-1.16,3.473,3.473,0,0,1,2.457.879,3.15,3.15,0,0,1,1,2.309H46.649a1.745,1.745,0,0,0-.5-1.2,1.6,1.6,0,0,0-1.184-.469,1.672,1.672,0,0,0-1.422.668,3.411,3.411,0,0,0-.508,2.028v.3a3.462,3.462,0,0,0,.5,2.051,1.672,1.672,0,0,0,1.434.676"/>
          <path id="Trazado_159623" data-name="Trazado 159623" d="M53.594,12.156a3.926,3.926,0,0,1-2.926-1.137,4.122,4.122,0,0,1-1.121-3.027V7.758A5.08,5.08,0,0,1,50.035,5.5a3.712,3.712,0,0,1,1.371-1.551,3.624,3.624,0,0,1,1.969-.554,3.319,3.319,0,0,1,2.668,1.1,4.656,4.656,0,0,1,.941,3.117v.766H51.461a2.535,2.535,0,0,0,.7,1.656,2.1,2.1,0,0,0,1.543.61,2.571,2.571,0,0,0,2.125-1.055l1.023.976A3.411,3.411,0,0,1,55.5,11.738a4.24,4.24,0,0,1-1.9.418m-.227-7.242a1.6,1.6,0,0,0-1.262.547,2.837,2.837,0,0,0-.613,1.523h3.617v-.14A2.308,2.308,0,0,0,54.6,5.4a1.588,1.588,0,0,0-1.234-.488"/>
        </g>
      </g>
    </g>
    <g id="Grupo_71750" data-name="Grupo 71750" transform="translate(1038.508 -3883.58)">
      <g id="Grupo_71749" data-name="Grupo 71749" clip-path="url(#clip-path-3)">
        <path id="Trazado_159624" data-name="Trazado 159624" d="M9.039,7.828A4.1,4.1,0,0,1,7.7,10.668a4.578,4.578,0,0,1-3.117,1.019,4.434,4.434,0,0,1-2.394-.644,4.232,4.232,0,0,1-1.6-1.832A6.619,6.619,0,0,1,0,6.453V5.39A6.674,6.674,0,0,1,.57,2.555,4.3,4.3,0,0,1,2.207.664,4.573,4.573,0,0,1,4.672,0,4.4,4.4,0,0,1,7.7,1.019,4.26,4.26,0,0,1,9.039,3.906H7.07a2.81,2.81,0,0,0-.715-1.769,2.359,2.359,0,0,0-1.683-.543,2.309,2.309,0,0,0-1.981.942A4.721,4.721,0,0,0,1.984,5.3V6.309a5.007,5.007,0,0,0,.66,2.815,2.2,2.2,0,0,0,1.934.97,2.554,2.554,0,0,0,1.75-.524A2.72,2.72,0,0,0,7.07,7.828Z"/>
        <path id="Trazado_159625" data-name="Trazado 159625" d="M10.266,7.227a4.985,4.985,0,0,1,.492-2.238,3.6,3.6,0,0,1,1.383-1.532,3.9,3.9,0,0,1,2.046-.535,3.691,3.691,0,0,1,2.778,1.1,4.329,4.329,0,0,1,1.152,2.922l.008.445a5.018,5.018,0,0,1-.481,2.234,3.54,3.54,0,0,1-1.375,1.524,3.924,3.924,0,0,1-2.066.539A3.668,3.668,0,0,1,11.34,10.5a4.564,4.564,0,0,1-1.074-3.175Zm1.9.164A3.408,3.408,0,0,0,12.7,9.434a1.752,1.752,0,0,0,1.5.738,1.731,1.731,0,0,0,1.5-.75,3.751,3.751,0,0,0,.535-2.195,3.363,3.363,0,0,0-.55-2.031,1.857,1.857,0,0,0-2.973-.012,3.7,3.7,0,0,0-.547,2.207"/>
        <path id="Trazado_159626" data-name="Trazado 159626" d="M24.469,9.234a.86.86,0,0,0-.418-.773,4.437,4.437,0,0,0-1.387-.469,7.13,7.13,0,0,1-1.617-.516,2.159,2.159,0,0,1-1.422-1.992,2.255,2.255,0,0,1,.922-1.828,3.651,3.651,0,0,1,2.344-.734,3.786,3.786,0,0,1,2.449.75,2.378,2.378,0,0,1,.934,1.945h-1.9a1.169,1.169,0,0,0-.406-.91,1.55,1.55,0,0,0-1.078-.364,1.692,1.692,0,0,0-1.02.289.917.917,0,0,0-.394.774.772.772,0,0,0,.367.68,5.082,5.082,0,0,0,1.484.488,6.983,6.983,0,0,1,1.754.586,2.47,2.47,0,0,1,.946.816,2.071,2.071,0,0,1,.308,1.156,2.2,2.2,0,0,1-.945,1.848,4.023,4.023,0,0,1-2.477.707,4.378,4.378,0,0,1-1.851-.375A3.062,3.062,0,0,1,19.8,10.281a2.45,2.45,0,0,1-.453-1.414h1.844A1.339,1.339,0,0,0,21.7,9.9a1.972,1.972,0,0,0,1.242.363,1.908,1.908,0,0,0,1.14-.285.878.878,0,0,0,.391-.746"/>
        <path id="Trazado_159627" data-name="Trazado 159627" d="M30.367,1.023V3.078h1.492V4.484H30.367V9.2a1.041,1.041,0,0,0,.191.7.892.892,0,0,0,.684.215,2.92,2.92,0,0,0,.664-.078v1.468a4.661,4.661,0,0,1-1.25.18q-2.186,0-2.187-2.414V4.484H27.078V3.078h1.391V1.023Z"/>
        <path id="Trazado_159628" data-name="Trazado 159628" d="M32.719,7.227a4.985,4.985,0,0,1,.492-2.238,3.6,3.6,0,0,1,1.383-1.532,3.9,3.9,0,0,1,2.046-.535,3.691,3.691,0,0,1,2.778,1.1A4.329,4.329,0,0,1,40.57,6.946l.008.445A5.018,5.018,0,0,1,40.1,9.625a3.54,3.54,0,0,1-1.375,1.524,3.924,3.924,0,0,1-2.066.539A3.668,3.668,0,0,1,33.793,10.5a4.564,4.564,0,0,1-1.074-3.175Zm1.9.164a3.408,3.408,0,0,0,.539,2.043,1.752,1.752,0,0,0,1.5.738,1.731,1.731,0,0,0,1.5-.75,3.751,3.751,0,0,0,.535-2.195,3.363,3.363,0,0,0-.55-2.031,1.857,1.857,0,0,0-2.973-.012,3.7,3.7,0,0,0-.547,2.207"/>
      </g>
    </g>
    <g id="Grupo_71752" data-name="Grupo 71752" transform="translate(889.169 -3906.667)">
      <g id="Grupo_71751" data-name="Grupo 71751" clip-path="url(#clip-path-4)">
        <path id="Trazado_159629" data-name="Trazado 159629" d="M9.039,8.3A4.106,4.106,0,0,1,7.7,11.137a4.578,4.578,0,0,1-3.117,1.019,4.429,4.429,0,0,1-2.394-.644A4.219,4.219,0,0,1,.586,9.68,6.619,6.619,0,0,1,0,6.922V5.859A6.644,6.644,0,0,1,.57,3.024,4.292,4.292,0,0,1,2.207,1.133,4.568,4.568,0,0,1,4.672.469,4.4,4.4,0,0,1,7.7,1.488,4.26,4.26,0,0,1,9.039,4.375H7.07a2.81,2.81,0,0,0-.715-1.769,2.362,2.362,0,0,0-1.683-.543,2.309,2.309,0,0,0-1.981.942,4.706,4.706,0,0,0-.707,2.764V6.778a4.99,4.99,0,0,0,.66,2.815,2.191,2.191,0,0,0,1.934.97,2.558,2.558,0,0,0,1.75-.524A2.73,2.73,0,0,0,7.07,8.3Z" fill="#636363"/>
        <path id="Trazado_159630" data-name="Trazado 159630" d="M15.672,12a2.912,2.912,0,0,1-.219-.789,2.957,2.957,0,0,1-2.219.945,2.981,2.981,0,0,1-2.078-.726,2.323,2.323,0,0,1-.8-1.8,2.4,2.4,0,0,1,1-2.074,4.858,4.858,0,0,1,2.871-.723h1.164V6.281a1.479,1.479,0,0,0-.368-1.05,1.457,1.457,0,0,0-1.117-.395,1.674,1.674,0,0,0-1.062.324,1,1,0,0,0-.414.825h-1.9a2.1,2.1,0,0,1,.461-1.3,3.062,3.062,0,0,1,1.254-.949,4.4,4.4,0,0,1,1.77-.344,3.554,3.554,0,0,1,2.367.746,2.66,2.66,0,0,1,.906,2.1v3.812a4.31,4.31,0,0,0,.32,1.82V12Zm-2.086-1.367a2.167,2.167,0,0,0,1.059-.273,1.841,1.841,0,0,0,.746-.735V8.031H14.367a2.8,2.8,0,0,0-1.586.368,1.187,1.187,0,0,0-.531,1.039,1.11,1.11,0,0,0,.363.871,1.41,1.41,0,0,0,.973.324" fill="#636363"/>
        <rect id="Rectángulo_12036" data-name="Rectángulo 12036" width="1.898" height="12" transform="translate(19.399 0)" fill="#636363"/>
        <path id="Trazado_159631" data-name="Trazado 159631" d="M23.367,1.351a1,1,0,0,1,.278-.726,1.042,1.042,0,0,1,.792-.289,1.059,1.059,0,0,1,.8.289,1,1,0,0,1,.282.726.975.975,0,0,1-.282.715,1.065,1.065,0,0,1-.8.285,1.048,1.048,0,0,1-.792-.285.979.979,0,0,1-.278-.715M25.383,12h-1.9V3.547h1.9Z" fill="#636363"/>
        <path id="Trazado_159632" data-name="Trazado 159632" d="M27.094,7.711A5.015,5.015,0,0,1,28,4.574a2.9,2.9,0,0,1,2.429-1.183,2.76,2.76,0,0,1,2.172.937V0h1.9V12H32.781l-.094-.875a2.8,2.8,0,0,1-2.273,1.031,2.884,2.884,0,0,1-2.4-1.195,5.2,5.2,0,0,1-.918-3.25m1.9.164a3.511,3.511,0,0,0,.5,2.012,1.608,1.608,0,0,0,1.41.722A1.792,1.792,0,0,0,32.6,9.57V5.961a1.766,1.766,0,0,0-1.687-1.016,1.62,1.62,0,0,0-1.422.731,3.913,3.913,0,0,0-.5,2.2" fill="#636363"/>
        <path id="Trazado_159633" data-name="Trazado 159633" d="M41.531,12a2.912,2.912,0,0,1-.219-.789,3.195,3.195,0,0,1-4.3.219,2.323,2.323,0,0,1-.8-1.8,2.4,2.4,0,0,1,1-2.074,4.858,4.858,0,0,1,2.871-.723H41.25V6.281a1.479,1.479,0,0,0-.368-1.05,1.457,1.457,0,0,0-1.117-.395A1.674,1.674,0,0,0,38.7,5.16a1,1,0,0,0-.414.825h-1.9a2.1,2.1,0,0,1,.461-1.3A3.062,3.062,0,0,1,38.1,3.735a4.4,4.4,0,0,1,1.77-.344,3.554,3.554,0,0,1,2.367.746,2.66,2.66,0,0,1,.906,2.1v3.812a4.31,4.31,0,0,0,.32,1.82V12Zm-2.086-1.367A2.167,2.167,0,0,0,40.5,10.36a1.841,1.841,0,0,0,.746-.735V8.031H40.226A2.8,2.8,0,0,0,38.64,8.4a1.187,1.187,0,0,0-.531,1.039,1.11,1.11,0,0,0,.363.871,1.41,1.41,0,0,0,.973.324" fill="#636363"/>
        <path id="Trazado_159634" data-name="Trazado 159634" d="M44.782,7.711a5.015,5.015,0,0,1,.906-3.137,2.9,2.9,0,0,1,2.429-1.183,2.76,2.76,0,0,1,2.172.937V0h1.9V12H50.469l-.094-.875A2.8,2.8,0,0,1,48.1,12.156a2.884,2.884,0,0,1-2.4-1.195,5.2,5.2,0,0,1-.918-3.25m1.9.164a3.511,3.511,0,0,0,.5,2.012,1.608,1.608,0,0,0,1.41.722,1.792,1.792,0,0,0,1.7-1.039V5.961A1.766,1.766,0,0,0,48.6,4.945a1.62,1.62,0,0,0-1.422.731,3.913,3.913,0,0,0-.5,2.2" fill="#636363"/>
      </g>
    </g>
    <g id="Grupo_71755" data-name="Grupo 71755" transform="translate(718 -3921.581)">
      <path id="Trazado_159635" data-name="Trazado 159635" d="M0,.289V1.883H3.515v9.781H5.477V1.883H9.023V.289Z"/>
      <g id="Grupo_71754" data-name="Grupo 71754">
        <g id="Grupo_71753" data-name="Grupo 71753" clip-path="url(#clip-path-5)">
          <path id="Trazado_159636" data-name="Trazado 159636" d="M10.336,1.016a1.012,1.012,0,0,1,.277-.727A1.052,1.052,0,0,1,11.406,0a1.063,1.063,0,0,1,.8.289,1,1,0,0,1,.281.727.973.973,0,0,1-.281.714,1.065,1.065,0,0,1-.8.286,1.054,1.054,0,0,1-.793-.286.986.986,0,0,1-.277-.714m2.016,10.648h-1.9V3.211h1.9Z"/>
          <path id="Trazado_159637" data-name="Trazado 159637" d="M18.141,11.82a3.926,3.926,0,0,1-2.926-1.137,4.122,4.122,0,0,1-1.121-3.027V7.422a5.08,5.08,0,0,1,.488-2.262,3.712,3.712,0,0,1,1.371-1.551,3.633,3.633,0,0,1,1.969-.554,3.319,3.319,0,0,1,2.668,1.1,4.656,4.656,0,0,1,.941,3.117v.766H16.008a2.535,2.535,0,0,0,.7,1.656,2.1,2.1,0,0,0,1.543.61A2.571,2.571,0,0,0,20.375,9.25l1.023.976A3.4,3.4,0,0,1,20.043,11.4a4.24,4.24,0,0,1-1.9.418m-.227-7.242a1.6,1.6,0,0,0-1.262.547,2.84,2.84,0,0,0-.613,1.523h3.617v-.14a2.31,2.31,0,0,0-.508-1.442,1.588,1.588,0,0,0-1.234-.488"/>
          <path id="Trazado_159638" data-name="Trazado 159638" d="M24.789,3.211l.055.883a3.039,3.039,0,0,1,2.437-1.039,2.335,2.335,0,0,1,2.32,1.3,3,3,0,0,1,2.594-1.3,2.637,2.637,0,0,1,2.082.773,3.409,3.409,0,0,1,.7,2.281v5.555h-1.9v-5.5a1.68,1.68,0,0,0-.352-1.18,1.538,1.538,0,0,0-1.164-.375,1.583,1.583,0,0,0-1.058.348,1.827,1.827,0,0,0-.574.91l.007,5.8h-1.9V6.1a1.355,1.355,0,0,0-1.523-1.493,1.672,1.672,0,0,0-1.618.93v6.125H23V3.211Z"/>
          <path id="Trazado_159639" data-name="Trazado 159639" d="M44.328,7.523a5.035,5.035,0,0,1-.89,3.129,3.095,3.095,0,0,1-4.618.254v4.008h-1.9V3.211h1.75l.078.859a2.791,2.791,0,0,1,2.274-1.016,2.883,2.883,0,0,1,2.426,1.153,5.167,5.167,0,0,1,.879,3.2Zm-1.89-.164a3.526,3.526,0,0,0-.505-2.008,1.639,1.639,0,0,0-1.441-.742,1.746,1.746,0,0,0-1.672.961V9.32a1.763,1.763,0,0,0,1.687.984,1.635,1.635,0,0,0,1.418-.73,3.881,3.881,0,0,0,.513-2.215"/>
          <path id="Trazado_159640" data-name="Trazado 159640" d="M45.579,7.359a4.985,4.985,0,0,1,.492-2.238,3.6,3.6,0,0,1,1.383-1.532A3.9,3.9,0,0,1,49.5,3.054a3.691,3.691,0,0,1,2.778,1.1A4.329,4.329,0,0,1,53.43,7.078l.008.445a5.018,5.018,0,0,1-.481,2.234,3.546,3.546,0,0,1-1.375,1.524,3.927,3.927,0,0,1-2.066.539,3.665,3.665,0,0,1-2.863-1.192,4.559,4.559,0,0,1-1.074-3.175Zm1.9.164a3.408,3.408,0,0,0,.539,2.043,1.752,1.752,0,0,0,1.5.738,1.732,1.732,0,0,0,1.5-.75,3.758,3.758,0,0,0,.535-2.195A3.363,3.363,0,0,0,51,5.328a1.762,1.762,0,0,0-1.5-.75,1.741,1.741,0,0,0-1.476.738,3.7,3.7,0,0,0-.547,2.207"/>
        </g>
      </g>
    </g>
    <g id="_x31_3_Guaranteed" transform="translate(834.803 -3965.934)">
      <g id="Grupo_71756" data-name="Grupo 71756" transform="translate(60.323 0)">
        <path id="Trazado_159641" data-name="Trazado 159641" d="M177.962,388.275a1.189,1.189,0,0,0-1.189,1.19v8.612a2.717,2.717,0,0,0,4.414,2.119l3.6-2.88,3.6,2.879a2.717,2.717,0,0,0,4.416-2.118v-8.612a1.19,1.19,0,0,0-2.379,0v8.612a.338.338,0,0,1-.55.26l-4.346-3.473a1.19,1.19,0,0,0-1.485,0l-4.347,3.474a.338.338,0,0,1-.549-.261v-8.612A1.189,1.189,0,0,0,177.962,388.275Z" transform="translate(-164.989 -348.985)" fill="#636363"/>
        <path id="Trazado_159642" data-name="Trazado 159642" d="M97.476,22.58c1.148-.956,2.449-2.039,2.449-3.612,0-2.577-3.541-3.936-3.937-5.154a5.478,5.478,0,0,1,.292-2.23c.355-1.42.757-3.029-.137-4.256s-2.565-1.351-4.033-1.451c-2.352-.16-2.345-.147-3.217-2.329C87.242-.579,85.563-.794,82.2,1.31a5.5,5.5,0,0,1-2.076.982,5.5,5.5,0,0,1-2.076-.982C74.634-.826,72.986-.525,71.357,3.547c-.873,2.184-.869,2.17-3.218,2.33-1.468.1-3.132.213-4.033,1.451s-.491,2.836-.137,4.255a5.466,5.466,0,0,1,.292,2.23,5.47,5.47,0,0,1-1.488,1.543c-1.148.956-2.449,2.039-2.449,3.612s1.3,2.656,2.449,3.612c1.788,1.489,1.772,1.463,1.2,3.773-.354,1.42-.756,3.028.137,4.255s2.565,1.352,4.033,1.452c2.348.16,2.344.144,3.217,2.33,1.631,4.077,3.282,4.37,6.691,2.237a5.5,5.5,0,0,1,2.076-.982,5.5,5.5,0,0,1,2.076.982c3.418,2.139,5.064,1.831,6.692-2.237.874-2.186.868-2.169,3.217-2.329,1.468-.1,3.133-.214,4.033-1.452s.491-2.836.137-4.255c-.574-2.3-.6-2.282,1.2-3.773Zm-3.505,4.349c.194.777.487,1.951.248,2.28s-1.465.423-2.271.478c-3.363.229-4.051.789-5.265,3.819-1.038,2.6-1.094,2.432-3.221,1.1a6.635,6.635,0,0,0-3.338-1.345,6.634,6.634,0,0,0-3.338,1.345c-2.13,1.332-2.183,1.489-3.22-1.1-1.215-3.038-1.909-3.59-5.265-3.82-.806-.055-2.024-.138-2.271-.478s.053-1.5.247-2.28c.819-3.282.508-4.1-1.983-6.178-.672-.559-1.592-1.325-1.592-1.783s.92-1.224,1.592-1.783a6.376,6.376,0,0,0,2.229-2.637,6.566,6.566,0,0,0-.247-3.542c-.194-.777-.487-1.95-.248-2.279S67.494,8.3,68.3,8.25c3.351-.228,4.047-.775,5.265-3.819,1.006-2.514,1.032-2.472,3.22-1.1a6.634,6.634,0,0,0,3.338,1.345,6.634,6.634,0,0,0,3.338-1.344c2.225-1.393,2.229-1.378,3.221,1.1,1.214,3.032,1.9,3.59,5.265,3.819.806.055,2.024.138,2.271.478s-.053,1.5-.247,2.28a6.564,6.564,0,0,0-.247,3.541c.63,1.939,3.821,3.452,3.821,4.419,0,.458-.92,1.224-1.592,1.783-2.464,2.051-2.808,2.868-1.982,6.178Z" transform="translate(-60.323 0)" fill="#636363"/>
        <path id="Trazado_159643" data-name="Trazado 159643" d="M163.715,83.6a1.19,1.19,0,0,0-1.189,1.189,9.178,9.178,0,1,1-9.178-9.178,1.19,1.19,0,0,0,0-2.379A11.557,11.557,0,1,0,164.9,84.792,1.19,1.19,0,0,0,163.715,83.6Z" transform="translate(-133.547 -65.824)" fill="#636363"/>
        <path id="Trazado_159644" data-name="Trazado 159644" d="M212.9,154.484a1.189,1.189,0,0,0-1.682,1.682l1.723,1.723a1.189,1.189,0,0,0,1.682,0l5.032-5.033a1.189,1.189,0,0,0-1.682-1.682l-4.191,4.191Z" transform="translate(-195.633 -135.564)" fill="#636363"/>
      </g>
    </g>
  </g>
</svg>
