<svg xmlns="http://www.w3.org/2000/svg" xmlns:xlink="http://www.w3.org/1999/xlink" width="820" height="184" viewBox="0 0 820 184">
  <defs>
    <clipPath id="clip-path">
      <rect id="Rectángulo_11934" data-name="Rectángulo 11934" width="67.258" height="15.414" transform="translate(0 0)" fill="none"/>
    </clipPath>
    <clipPath id="clip-path-2">
      <rect id="Rectángulo_11935" data-name="Rectángulo 11935" width="105.063" height="11.82" transform="translate(0 0)" fill="none"/>
    </clipPath>
    <clipPath id="clip-path-3">
      <rect id="Rectángulo_11936" data-name="Rectángulo 11936" width="92.883" height="15.25" fill="none"/>
    </clipPath>
    <clipPath id="clip-path-4">
      <rect id="Rectángulo_11938" data-name="Rectángulo 11938" width="69.828" height="12.156" transform="translate(0 0)" fill="none"/>
    </clipPath>
  </defs>
  <g id="Grupo_71583" data-name="Grupo 71583" transform="translate(-482 5657)">
    <g id="Grupo_71563" data-name="Grupo 71563" transform="translate(1032.616 -5620)">
      <path id="Trazado_159412" data-name="Trazado 159412" d="M0,.625V12H7.438V10.422H1.976v-3.5H6.648V5.359H1.976V2.219H7.383V.625Z"/>
      <g id="Grupo_71562" data-name="Grupo 71562">
        <g id="Grupo_71561" data-name="Grupo 71561" clip-path="url(#clip-path)">
          <path id="Trazado_159413" data-name="Trazado 159413" d="M10.844,3.547v9.2a2.784,2.784,0,0,1-.645,1.981,2.475,2.475,0,0,1-1.887.684A3.829,3.829,0,0,1,7.3,15.282v-1.5a2.927,2.927,0,0,0,.672.07q.945,0,.969-1.031V3.547ZM8.781,1.352A1.012,1.012,0,0,1,9.058.625,1.048,1.048,0,0,1,9.851.336a1.059,1.059,0,0,1,.8.289,1,1,0,0,1,.281.727.977.977,0,0,1-.281.715,1.073,1.073,0,0,1-.8.285,1.061,1.061,0,0,1-.793-.285.99.99,0,0,1-.277-.715"/>
          <path id="Trazado_159414" data-name="Trazado 159414" d="M16.594,12.156a3.926,3.926,0,0,1-2.926-1.137,4.124,4.124,0,0,1-1.121-3.027V7.758A5.08,5.08,0,0,1,13.035,5.5a3.706,3.706,0,0,1,1.371-1.551,3.624,3.624,0,0,1,1.969-.554,3.319,3.319,0,0,1,2.668,1.1,4.656,4.656,0,0,1,.941,3.117v.766H14.461a2.537,2.537,0,0,0,.7,1.656,2.1,2.1,0,0,0,1.543.61,2.571,2.571,0,0,0,2.125-1.055l1.023.976A3.418,3.418,0,0,1,18.5,11.738a4.254,4.254,0,0,1-1.9.418m-.227-7.242a1.6,1.6,0,0,0-1.262.547,2.837,2.837,0,0,0-.613,1.523h3.617v-.14A2.308,2.308,0,0,0,17.6,5.4a1.584,1.584,0,0,0-1.234-.488"/>
          <path id="Trazado_159415" data-name="Trazado 159415" d="M24.93,10.641a1.723,1.723,0,0,0,1.18-.414,1.416,1.416,0,0,0,.5-1.023H28.4a2.794,2.794,0,0,1-.492,1.472,3.235,3.235,0,0,1-1.25,1.082,3.725,3.725,0,0,1-1.7.4,3.6,3.6,0,0,1-2.812-1.149A4.558,4.558,0,0,1,21.1,7.836v-.2a4.482,4.482,0,0,1,1.031-3.09,3.574,3.574,0,0,1,2.813-1.16A3.473,3.473,0,0,1,27.4,4.27a3.15,3.15,0,0,1,1,2.309H26.61a1.745,1.745,0,0,0-.5-1.2,1.6,1.6,0,0,0-1.184-.469,1.672,1.672,0,0,0-1.422.668A3.411,3.411,0,0,0,23,7.61v.3a3.466,3.466,0,0,0,.5,2.051,1.672,1.672,0,0,0,1.434.676"/>
          <path id="Trazado_159416" data-name="Trazado 159416" d="M34.953,11.172a2.946,2.946,0,0,1-2.375.984,2.626,2.626,0,0,1-2.082-.8,3.422,3.422,0,0,1-.707-2.328V3.547h1.9V9q0,1.608,1.336,1.61a1.879,1.879,0,0,0,1.868-.993V3.547h1.9V12H35Z"/>
          <path id="Trazado_159417" data-name="Trazado 159417" d="M42.195,10.641a1.723,1.723,0,0,0,1.18-.414,1.416,1.416,0,0,0,.5-1.023h1.789a2.794,2.794,0,0,1-.492,1.472,3.235,3.235,0,0,1-1.25,1.082,3.725,3.725,0,0,1-1.7.4,3.6,3.6,0,0,1-2.812-1.149,4.558,4.558,0,0,1-1.039-3.172v-.2A4.482,4.482,0,0,1,39.4,4.551a3.574,3.574,0,0,1,2.813-1.16,3.473,3.473,0,0,1,2.457.879,3.15,3.15,0,0,1,1,2.309H43.875a1.745,1.745,0,0,0-.5-1.2,1.6,1.6,0,0,0-1.184-.469,1.672,1.672,0,0,0-1.422.668,3.411,3.411,0,0,0-.508,2.028v.3a3.466,3.466,0,0,0,.5,2.051,1.672,1.672,0,0,0,1.434.676"/>
          <path id="Trazado_159418" data-name="Trazado 159418" d="M47.1,1.351a1,1,0,0,1,.277-.726,1.045,1.045,0,0,1,.793-.289,1.06,1.06,0,0,1,.8.289,1,1,0,0,1,.281.726.978.978,0,0,1-.281.715,1.07,1.07,0,0,1-.8.285,1.054,1.054,0,0,1-.793-.285.983.983,0,0,1-.277-.715M49.117,12h-1.9V3.547h1.9Z"/>
          <path id="Trazado_159419" data-name="Trazado 159419" d="M50.828,7.7a4.985,4.985,0,0,1,.492-2.238A3.588,3.588,0,0,1,52.7,3.926a3.883,3.883,0,0,1,2.047-.535,3.694,3.694,0,0,1,2.777,1.1,4.331,4.331,0,0,1,1.152,2.922l.008.445a5.036,5.036,0,0,1-.48,2.235,3.556,3.556,0,0,1-1.375,1.523,3.923,3.923,0,0,1-2.067.539A3.668,3.668,0,0,1,51.9,10.965a4.567,4.567,0,0,1-1.074-3.176Zm1.9.164A3.408,3.408,0,0,0,53.265,9.9a1.753,1.753,0,0,0,1.5.739,1.732,1.732,0,0,0,1.5-.75A3.764,3.764,0,0,0,56.8,7.7a3.363,3.363,0,0,0-.55-2.031,1.761,1.761,0,0,0-1.5-.75,1.741,1.741,0,0,0-1.477.738,3.7,3.7,0,0,0-.547,2.207M55.273,0h2.164L55.273,2.367l-1.523,0Z"/>
          <path id="Trazado_159420" data-name="Trazado 159420" d="M62.055,3.547l.055.977a3.037,3.037,0,0,1,2.461-1.133q2.64,0,2.687,3.023V12h-1.9V6.524a1.744,1.744,0,0,0-.348-1.192,1.46,1.46,0,0,0-1.137-.387,1.829,1.829,0,0,0-1.711,1.04V12h-1.9V3.547Z"/>
        </g>
      </g>
    </g>
    <g id="Grupo_71566" data-name="Grupo 71566" transform="translate(1027.616 -5519)">
      <path id="Trazado_159421" data-name="Trazado 159421" d="M9.117.289,5.844,9.007,2.562.289H0V11.663H1.968V7.914L1.773,2.905l3.352,8.758H6.539L9.9,2.9,9.7,7.914v3.749h1.969V.289Z"/>
      <g id="Grupo_71565" data-name="Grupo 71565">
        <g id="Grupo_71564" data-name="Grupo 71564" clip-path="url(#clip-path-2)">
          <path id="Trazado_159422" data-name="Trazado 159422" d="M13.469,7.359a4.985,4.985,0,0,1,.492-2.238,3.6,3.6,0,0,1,1.383-1.532,3.9,3.9,0,0,1,2.046-.535,3.691,3.691,0,0,1,2.778,1.1A4.331,4.331,0,0,1,21.32,7.078l.008.445a5.015,5.015,0,0,1-.481,2.234,3.546,3.546,0,0,1-1.375,1.524,3.927,3.927,0,0,1-2.066.539,3.665,3.665,0,0,1-2.863-1.192,4.559,4.559,0,0,1-1.074-3.175Zm1.9.164a3.408,3.408,0,0,0,.539,2.043,1.752,1.752,0,0,0,1.5.738,1.732,1.732,0,0,0,1.5-.75,3.758,3.758,0,0,0,.535-2.195,3.363,3.363,0,0,0-.55-2.031,1.762,1.762,0,0,0-1.5-.75,1.741,1.741,0,0,0-1.476.738,3.7,3.7,0,0,0-.547,2.207"/>
          <path id="Trazado_159423" data-name="Trazado 159423" d="M24.695,3.211l.055.977a3.04,3.04,0,0,1,2.461-1.133q2.64,0,2.687,3.023v5.586H28V6.188A1.746,1.746,0,0,0,27.652,5a1.46,1.46,0,0,0-1.137-.387A1.83,1.83,0,0,0,24.8,5.649v6.015h-1.9V3.211Z"/>
          <path id="Trazado_159424" data-name="Trazado 159424" d="M31.836,1.015a1.011,1.011,0,0,1,.277-.726A1.048,1.048,0,0,1,32.906,0a1.059,1.059,0,0,1,.8.289,1,1,0,0,1,.281.726.972.972,0,0,1-.281.715,1.065,1.065,0,0,1-.8.285,1.054,1.054,0,0,1-.793-.285.985.985,0,0,1-.277-.715m2.016,10.649h-1.9V3.211h1.9Z"/>
          <path id="Trazado_159425" data-name="Trazado 159425" d="M38.3,1.156V3.211h1.492V4.617H38.3V9.336a1.036,1.036,0,0,0,.191.7.89.89,0,0,0,.684.215,2.927,2.927,0,0,0,.664-.078V11.64a4.672,4.672,0,0,1-1.25.18q-2.187,0-2.187-2.414V4.617H35.008V3.211H36.4V1.156Z"/>
          <path id="Trazado_159426" data-name="Trazado 159426" d="M40.649,7.359a4.985,4.985,0,0,1,.492-2.238,3.6,3.6,0,0,1,1.383-1.532,3.9,3.9,0,0,1,2.046-.535,3.691,3.691,0,0,1,2.778,1.1A4.331,4.331,0,0,1,48.5,7.078l.008.445a5.015,5.015,0,0,1-.481,2.234,3.546,3.546,0,0,1-1.375,1.524,3.927,3.927,0,0,1-2.066.539,3.665,3.665,0,0,1-2.863-1.192,4.559,4.559,0,0,1-1.074-3.175Zm1.9.164a3.408,3.408,0,0,0,.539,2.043,1.752,1.752,0,0,0,1.5.738,1.732,1.732,0,0,0,1.5-.75,3.758,3.758,0,0,0,.535-2.195,3.363,3.363,0,0,0-.55-2.031,1.762,1.762,0,0,0-1.5-.75,1.741,1.741,0,0,0-1.476.738,3.7,3.7,0,0,0-.547,2.207"/>
          <path id="Trazado_159427" data-name="Trazado 159427" d="M54.539,4.945a4.772,4.772,0,0,0-.773-.062,1.741,1.741,0,0,0-1.758,1v5.782h-1.9V3.211h1.813l.047.945a2.139,2.139,0,0,1,1.906-1.1,1.778,1.778,0,0,1,.672.11Z"/>
          <path id="Trazado_159428" data-name="Trazado 159428" d="M55.742,1.015A1.008,1.008,0,0,1,56.02.289,1.045,1.045,0,0,1,56.813,0a1.058,1.058,0,0,1,.8.289,1,1,0,0,1,.282.726.973.973,0,0,1-.282.715,1.064,1.064,0,0,1-.8.285,1.051,1.051,0,0,1-.793-.285.982.982,0,0,1-.278-.715m2.016,10.649h-1.9V3.211h1.9Z"/>
          <path id="Trazado_159429" data-name="Trazado 159429" d="M61.852,10.148h4.5v1.516H59.493V10.421l4.289-5.679H59.571V3.211h6.617v1.2Z"/>
          <path id="Trazado_159430" data-name="Trazado 159430" d="M72.922,11.664a2.949,2.949,0,0,1-.219-.789,2.952,2.952,0,0,1-2.219.945,2.984,2.984,0,0,1-2.078-.726,2.326,2.326,0,0,1-.8-1.8,2.4,2.4,0,0,1,1-2.074A4.86,4.86,0,0,1,71.477,6.5h1.164V5.945a1.475,1.475,0,0,0-.368-1.05A1.456,1.456,0,0,0,71.156,4.5a1.678,1.678,0,0,0-1.062.324,1,1,0,0,0-.414.825h-1.9a2.111,2.111,0,0,1,.461-1.3A3.075,3.075,0,0,1,69.5,3.4a4.4,4.4,0,0,1,1.77-.344,3.55,3.55,0,0,1,2.367.746,2.659,2.659,0,0,1,.906,2.1V9.711a4.326,4.326,0,0,0,.32,1.82v.133ZM70.836,10.3a2.164,2.164,0,0,0,1.059-.273,1.822,1.822,0,0,0,.746-.735V7.7H71.617a2.8,2.8,0,0,0-1.586.368A1.19,1.19,0,0,0,69.5,9.1a1.109,1.109,0,0,0,.363.871,1.405,1.405,0,0,0,.973.324"/>
          <path id="Trazado_159431" data-name="Trazado 159431" d="M80,10.305a1.718,1.718,0,0,0,1.18-.414,1.415,1.415,0,0,0,.5-1.023h1.789a2.788,2.788,0,0,1-.492,1.472,3.226,3.226,0,0,1-1.25,1.082,3.725,3.725,0,0,1-1.7.4,3.6,3.6,0,0,1-2.812-1.149A4.556,4.556,0,0,1,76.172,7.5V7.3A4.484,4.484,0,0,1,77.2,4.215a3.574,3.574,0,0,1,2.813-1.16,3.473,3.473,0,0,1,2.457.879,3.15,3.15,0,0,1,1,2.309H81.68a1.745,1.745,0,0,0-.5-1.2A1.6,1.6,0,0,0,80,4.578a1.672,1.672,0,0,0-1.422.668,3.411,3.411,0,0,0-.508,2.028v.3a3.462,3.462,0,0,0,.5,2.051A1.669,1.669,0,0,0,80,10.305"/>
          <path id="Trazado_159432" data-name="Trazado 159432" d="M84.906,1.015a1.008,1.008,0,0,1,.278-.726A1.045,1.045,0,0,1,85.977,0a1.058,1.058,0,0,1,.8.289,1,1,0,0,1,.282.726.973.973,0,0,1-.282.715,1.064,1.064,0,0,1-.8.285,1.051,1.051,0,0,1-.793-.285.982.982,0,0,1-.278-.715m2.016,10.649h-1.9V3.211h1.9Z"/>
          <path id="Trazado_159433" data-name="Trazado 159433" d="M88.633,7.359a4.985,4.985,0,0,1,.492-2.238,3.6,3.6,0,0,1,1.383-1.532,3.9,3.9,0,0,1,2.046-.535,3.691,3.691,0,0,1,2.778,1.1,4.331,4.331,0,0,1,1.152,2.922l.008.445a5.015,5.015,0,0,1-.481,2.234,3.546,3.546,0,0,1-1.375,1.524,3.927,3.927,0,0,1-2.066.539,3.665,3.665,0,0,1-2.863-1.192,4.559,4.559,0,0,1-1.074-3.175Zm1.9.164a3.408,3.408,0,0,0,.539,2.043,1.752,1.752,0,0,0,1.5.738,1.732,1.732,0,0,0,1.5-.75A3.758,3.758,0,0,0,94.6,7.359a3.363,3.363,0,0,0-.55-2.031,1.762,1.762,0,0,0-1.5-.75,1.741,1.741,0,0,0-1.476.738,3.7,3.7,0,0,0-.547,2.207"/>
          <path id="Trazado_159434" data-name="Trazado 159434" d="M99.859,3.211l.055.977a3.04,3.04,0,0,1,2.461-1.133q2.64,0,2.687,3.023v5.586h-1.9V6.188A1.746,1.746,0,0,0,102.816,5a1.46,1.46,0,0,0-1.137-.387,1.83,1.83,0,0,0-1.711,1.04v6.015h-1.9V3.211Z"/>
        </g>
      </g>
    </g>
    <g id="Grupo_71568" data-name="Grupo 71568" transform="translate(695 -5519)">
      <g id="Grupo_71567" data-name="Grupo 71567" clip-path="url(#clip-path-3)">
        <path id="Trazado_159435" data-name="Trazado 159435" d="M9.438,6.61a6.965,6.965,0,0,1-.579,2.933,4.368,4.368,0,0,1-1.652,1.938,4.549,4.549,0,0,1-2.473.676,4.559,4.559,0,0,1-2.464-.676A4.433,4.433,0,0,1,.6,9.555,6.744,6.744,0,0,1,0,6.672v-.64A6.908,6.908,0,0,1,.59,3.094,4.429,4.429,0,0,1,2.254,1.145,4.536,4.536,0,0,1,4.719.469a4.574,4.574,0,0,1,2.465.668,4.384,4.384,0,0,1,1.66,1.922,6.912,6.912,0,0,1,.594,2.918ZM7.461,6.016a4.965,4.965,0,0,0-.715-2.9A2.337,2.337,0,0,0,4.719,2.11a2.331,2.331,0,0,0-2,1,4.872,4.872,0,0,0-.738,2.84V6.61a4.933,4.933,0,0,0,.73,2.9,2.351,2.351,0,0,0,2.027,1.024,2.325,2.325,0,0,0,2.02-1A5.038,5.038,0,0,0,7.461,6.61Z"/>
        <path id="Trazado_159436" data-name="Trazado 159436" d="M18.625,7.859a5.029,5.029,0,0,1-.891,3.129,2.855,2.855,0,0,1-2.391,1.168,2.873,2.873,0,0,1-2.226-.914V15.25h-1.9V3.547h1.75l.078.859A2.791,2.791,0,0,1,15.32,3.39a2.881,2.881,0,0,1,2.426,1.153,5.167,5.167,0,0,1,.879,3.2ZM16.734,7.7a3.526,3.526,0,0,0-.5-2.008,1.637,1.637,0,0,0-1.441-.742,1.746,1.746,0,0,0-1.672.961v3.75a1.763,1.763,0,0,0,1.687.984,1.635,1.635,0,0,0,1.418-.73A3.884,3.884,0,0,0,16.734,7.7"/>
        <path id="Trazado_159437" data-name="Trazado 159437" d="M22.609,1.492V3.547H24.1V4.953H22.609V9.672a1.038,1.038,0,0,0,.191.7.89.89,0,0,0,.684.215,2.985,2.985,0,0,0,.664-.078v1.468a4.672,4.672,0,0,1-1.25.18q-2.187,0-2.187-2.414V4.953H19.32V3.547h1.391V1.492Z"/>
        <path id="Trazado_159438" data-name="Trazado 159438" d="M25.555,1.352a1.006,1.006,0,0,1,.277-.727,1.05,1.05,0,0,1,.793-.289,1.064,1.064,0,0,1,.8.289,1,1,0,0,1,.281.727.977.977,0,0,1-.281.714,1.067,1.067,0,0,1-.8.286,1.052,1.052,0,0,1-.793-.286.982.982,0,0,1-.277-.714M27.57,12h-1.9V3.547h1.9Z"/>
        <path id="Trazado_159439" data-name="Trazado 159439" d="M31.422,3.547l.055.883a3.039,3.039,0,0,1,2.437-1.039,2.335,2.335,0,0,1,2.32,1.3,3,3,0,0,1,2.594-1.3,2.637,2.637,0,0,1,2.082.773,3.409,3.409,0,0,1,.7,2.281V12h-1.9V6.5a1.68,1.68,0,0,0-.352-1.18,1.538,1.538,0,0,0-1.164-.375,1.583,1.583,0,0,0-1.058.348,1.827,1.827,0,0,0-.574.91L36.57,12h-1.9V6.438a1.355,1.355,0,0,0-1.523-1.493,1.672,1.672,0,0,0-1.618.93V12h-1.9V3.547Z"/>
        <path id="Trazado_159440" data-name="Trazado 159440" d="M43.563,1.352A1.006,1.006,0,0,1,43.84.625a1.049,1.049,0,0,1,.793-.289,1.064,1.064,0,0,1,.8.289,1,1,0,0,1,.281.727.977.977,0,0,1-.281.714,1.067,1.067,0,0,1-.8.286,1.051,1.051,0,0,1-.793-.286.982.982,0,0,1-.277-.714M45.578,12h-1.9V3.547h1.9Z"/>
        <path id="Trazado_159441" data-name="Trazado 159441" d="M49.672,10.484h4.5V12H47.313V10.757L51.6,5.078H47.391V3.547h6.617v1.2Z"/>
        <path id="Trazado_159442" data-name="Trazado 159442" d="M60.742,12a2.96,2.96,0,0,1-.219-.789,3.195,3.195,0,0,1-4.3.219,2.326,2.326,0,0,1-.8-1.8,2.4,2.4,0,0,1,1-2.074A4.86,4.86,0,0,1,59.3,6.836h1.164V6.281a1.473,1.473,0,0,0-.368-1.05,1.456,1.456,0,0,0-1.117-.395,1.678,1.678,0,0,0-1.062.324,1,1,0,0,0-.414.825H55.6a2.107,2.107,0,0,1,.461-1.3,3.075,3.075,0,0,1,1.254-.949,4.387,4.387,0,0,1,1.77-.344,3.55,3.55,0,0,1,2.367.746,2.656,2.656,0,0,1,.906,2.1v3.812a4.326,4.326,0,0,0,.32,1.82V12Zm-2.086-1.367a2.165,2.165,0,0,0,1.059-.273,1.828,1.828,0,0,0,.746-.735V8.031H59.437a2.8,2.8,0,0,0-1.586.368,1.189,1.189,0,0,0-.531,1.039,1.11,1.11,0,0,0,.363.871,1.41,1.41,0,0,0,.973.324"/>
        <path id="Trazado_159443" data-name="Trazado 159443" d="M67.82,10.641A1.718,1.718,0,0,0,69,10.227,1.416,1.416,0,0,0,69.5,9.2h1.789a2.791,2.791,0,0,1-.492,1.472,3.226,3.226,0,0,1-1.25,1.082,3.725,3.725,0,0,1-1.7.4,3.6,3.6,0,0,1-2.812-1.149,4.558,4.558,0,0,1-1.039-3.172v-.2a4.484,4.484,0,0,1,1.031-3.09,3.574,3.574,0,0,1,2.813-1.16,3.473,3.473,0,0,1,2.457.879,3.15,3.15,0,0,1,1,2.309H69.5a1.745,1.745,0,0,0-.5-1.2,1.6,1.6,0,0,0-1.184-.469,1.672,1.672,0,0,0-1.422.668A3.411,3.411,0,0,0,65.89,7.61v.3a3.462,3.462,0,0,0,.5,2.051,1.672,1.672,0,0,0,1.434.676"/>
        <path id="Trazado_159444" data-name="Trazado 159444" d="M72.727,1.352A1.006,1.006,0,0,1,73,.625,1.049,1.049,0,0,1,73.8.336a1.064,1.064,0,0,1,.8.289,1,1,0,0,1,.281.727.977.977,0,0,1-.281.714,1.067,1.067,0,0,1-.8.286A1.051,1.051,0,0,1,73,2.066a.982.982,0,0,1-.277-.714M74.742,12h-1.9V3.547h1.9Z"/>
        <path id="Trazado_159445" data-name="Trazado 159445" d="M76.453,7.7a4.985,4.985,0,0,1,.492-2.238,3.588,3.588,0,0,1,1.383-1.531,3.892,3.892,0,0,1,2.047-.535,3.694,3.694,0,0,1,2.777,1.1A4.331,4.331,0,0,1,84.3,7.414l.008.445a5.036,5.036,0,0,1-.48,2.235,3.556,3.556,0,0,1-1.375,1.523,3.923,3.923,0,0,1-2.067.539,3.668,3.668,0,0,1-2.863-1.191,4.564,4.564,0,0,1-1.074-3.176Zm1.9.164A3.408,3.408,0,0,0,78.89,9.9a1.753,1.753,0,0,0,1.5.739,1.732,1.732,0,0,0,1.5-.75,3.762,3.762,0,0,0,.535-2.2,3.363,3.363,0,0,0-.55-2.031,1.761,1.761,0,0,0-1.5-.75,1.741,1.741,0,0,0-1.477.738,3.7,3.7,0,0,0-.547,2.207M80.9,0h2.164L80.9,2.367l-1.523,0Z"/>
        <path id="Trazado_159446" data-name="Trazado 159446" d="M87.68,3.547l.055.977A3.04,3.04,0,0,1,90.2,3.391q2.64,0,2.687,3.023V12h-1.9V6.524a1.746,1.746,0,0,0-.348-1.192A1.46,1.46,0,0,0,89.5,4.945a1.83,1.83,0,0,0-1.711,1.04V12h-1.9V3.547Z"/>
      </g>
    </g>
    <g id="Grupo_71571" data-name="Grupo 71571" transform="translate(718.055 -5620)">
      <path id="Trazado_159447" data-name="Trazado 159447" d="M9.117.625,5.844,9.343,2.562.625H0V12H1.968V8.25L1.773,3.241,5.125,12H6.539L9.9,3.234,9.7,8.25V12h1.969V.625Z"/>
      <g id="Grupo_71570" data-name="Grupo 71570">
        <g id="Grupo_71569" data-name="Grupo 71569" clip-path="url(#clip-path-4)">
          <path id="Trazado_159448" data-name="Trazado 159448" d="M13.469,7.7a4.985,4.985,0,0,1,.492-2.238,3.6,3.6,0,0,1,1.383-1.532A3.9,3.9,0,0,1,17.39,3.39a3.691,3.691,0,0,1,2.778,1.1A4.329,4.329,0,0,1,21.32,7.414l.008.445a5.018,5.018,0,0,1-.481,2.234,3.546,3.546,0,0,1-1.375,1.524,3.927,3.927,0,0,1-2.066.539,3.668,3.668,0,0,1-2.863-1.192,4.559,4.559,0,0,1-1.074-3.175Zm1.9.164A3.408,3.408,0,0,0,15.906,9.9a1.752,1.752,0,0,0,1.5.738,1.732,1.732,0,0,0,1.5-.75,3.758,3.758,0,0,0,.535-2.2,3.361,3.361,0,0,0-.55-2.031,1.762,1.762,0,0,0-1.5-.75,1.741,1.741,0,0,0-1.476.738,3.7,3.7,0,0,0-.547,2.207"/>
          <path id="Trazado_159449" data-name="Trazado 159449" d="M22.579,7.711a5.021,5.021,0,0,1,.906-3.137,2.9,2.9,0,0,1,2.429-1.183,2.757,2.757,0,0,1,2.172.937V0h1.9V12H28.266l-.094-.875A2.8,2.8,0,0,1,25.9,12.156a2.887,2.887,0,0,1-2.4-1.195,5.2,5.2,0,0,1-.918-3.25m1.9.164a3.519,3.519,0,0,0,.5,2.012,1.611,1.611,0,0,0,1.41.722,1.791,1.791,0,0,0,1.7-1.039V5.961A1.764,1.764,0,0,0,26.4,4.945a1.62,1.62,0,0,0-1.422.731,3.921,3.921,0,0,0-.5,2.2"/>
          <path id="Trazado_159450" data-name="Trazado 159450" d="M35.688,12.156a3.926,3.926,0,0,1-2.926-1.137,4.122,4.122,0,0,1-1.121-3.027V7.758A5.08,5.08,0,0,1,32.129,5.5,3.712,3.712,0,0,1,33.5,3.945a3.624,3.624,0,0,1,1.969-.554,3.319,3.319,0,0,1,2.668,1.1,4.656,4.656,0,0,1,.941,3.117v.766H33.555a2.535,2.535,0,0,0,.7,1.656,2.1,2.1,0,0,0,1.543.61,2.571,2.571,0,0,0,2.125-1.055l1.023.976a3.411,3.411,0,0,1-1.355,1.176,4.24,4.24,0,0,1-1.9.418m-.227-7.242a1.6,1.6,0,0,0-1.262.547,2.837,2.837,0,0,0-.613,1.523H37.2v-.14A2.308,2.308,0,0,0,36.695,5.4a1.588,1.588,0,0,0-1.234-.488"/>
          <rect id="Rectángulo_11937" data-name="Rectángulo 11937" width="1.898" height="12" transform="translate(40.672 0)"/>
          <path id="Trazado_159451" data-name="Trazado 159451" d="M49.688,12a2.96,2.96,0,0,1-.219-.789,3.195,3.195,0,0,1-4.3.219,2.326,2.326,0,0,1-.8-1.8,2.4,2.4,0,0,1,1-2.074,4.86,4.86,0,0,1,2.871-.723h1.164V6.281a1.473,1.473,0,0,0-.368-1.05,1.456,1.456,0,0,0-1.117-.395,1.678,1.678,0,0,0-1.062.324,1,1,0,0,0-.414.825h-1.9a2.107,2.107,0,0,1,.461-1.3,3.075,3.075,0,0,1,1.254-.949,4.387,4.387,0,0,1,1.77-.344,3.55,3.55,0,0,1,2.367.746,2.656,2.656,0,0,1,.906,2.1v3.812a4.326,4.326,0,0,0,.32,1.82V12ZM47.6,10.633a2.164,2.164,0,0,0,1.059-.273,1.828,1.828,0,0,0,.746-.735V8.031H48.383A2.8,2.8,0,0,0,46.8,8.4a1.189,1.189,0,0,0-.531,1.039,1.11,1.11,0,0,0,.363.871,1.41,1.41,0,0,0,.973.324"/>
          <path id="Trazado_159452" data-name="Trazado 159452" d="M52.938,7.711a5.021,5.021,0,0,1,.906-3.137,2.9,2.9,0,0,1,2.429-1.183,2.757,2.757,0,0,1,2.172.937V0h1.9V12H58.625l-.094-.875a2.8,2.8,0,0,1-2.273,1.031,2.887,2.887,0,0,1-2.4-1.195,5.2,5.2,0,0,1-.918-3.25m1.9.164a3.519,3.519,0,0,0,.5,2.012,1.611,1.611,0,0,0,1.41.722,1.791,1.791,0,0,0,1.7-1.039V5.961a1.764,1.764,0,0,0-1.687-1.016,1.62,1.62,0,0,0-1.422.731,3.921,3.921,0,0,0-.5,2.2"/>
          <path id="Trazado_159453" data-name="Trazado 159453" d="M61.969,7.7a4.985,4.985,0,0,1,.492-2.238,3.6,3.6,0,0,1,1.383-1.532A3.9,3.9,0,0,1,65.89,3.39a3.691,3.691,0,0,1,2.778,1.1A4.329,4.329,0,0,1,69.82,7.414l.008.445a5.018,5.018,0,0,1-.481,2.234,3.546,3.546,0,0,1-1.375,1.524,3.927,3.927,0,0,1-2.066.539,3.668,3.668,0,0,1-2.863-1.192,4.559,4.559,0,0,1-1.074-3.175Zm1.9.164A3.408,3.408,0,0,0,64.406,9.9a1.752,1.752,0,0,0,1.5.738,1.732,1.732,0,0,0,1.5-.75,3.758,3.758,0,0,0,.535-2.2,3.361,3.361,0,0,0-.55-2.031,1.762,1.762,0,0,0-1.5-.75,1.741,1.741,0,0,0-1.476.738,3.7,3.7,0,0,0-.547,2.207"/>
        </g>
      </g>
    </g>
    <g id="Grupo_71572" data-name="Grupo 71572" transform="translate(-216.789 246.563)">
      <path id="Trazado_159454" data-name="Trazado 159454" d="M374.055,24.732l9.8-13.44L371.264.41a80.144,80.144,0,0,0-69.475,72.978c4.276-5.321,12.331-13.151,12.331-13.151L326.5,72.4a55.676,55.676,0,0,1,47.551-47.668" transform="translate(745 -5891.563)" fill="#fa9300"/>
      <path id="Trazado_159455" data-name="Trazado 159455" d="M326.522,87.467l-13.441-9.8L302.2,90.258a80.144,80.144,0,0,0,72.979,69.475c-5.32-4.276-13.151-12.331-13.151-12.331l12.164-12.384a55.675,55.675,0,0,1-47.668-47.551" transform="translate(745 -5891.563)" fill="#daa363"/>
      <path id="Trazado_159456" data-name="Trazado 159456" d="M389.256,135l-9.8,13.441,12.588,10.882a80.144,80.144,0,0,0,69.475-72.979C457.246,91.666,449.191,99.5,449.191,99.5L436.807,87.333A55.675,55.675,0,0,1,389.256,135" transform="translate(745 -5891.563)" fill="#69787d"/>
      <path id="Trazado_159457" data-name="Trazado 159457" d="M436.79,72.266l13.441,9.8,10.882-12.588A80.144,80.144,0,0,0,388.134,0c5.321,4.276,13.152,12.331,13.152,12.331L389.122,24.715A55.675,55.675,0,0,1,436.79,72.266" transform="translate(745 -5891.563)" fill="#d44f4a"/>
    </g>
    <g id="Grupo_71573" data-name="Grupo 71573" transform="translate(0 99.358)">
      <path id="Trazado_159458" data-name="Trazado 159458" d="M963.666-5609.291h56.474" fill="none" stroke="#69787d" stroke-width="2"/>
      <circle id="Elipse_5357" data-name="Elipse 5357" cx="3.5" cy="3.5" r="3.5" transform="translate(1017 -5613)" fill="#69787d"/>
    </g>
    <g id="Grupo_71575" data-name="Grupo 71575" transform="translate(1817.716 -11222) rotate(180)">
      <path id="Trazado_159458-2" data-name="Trazado 159458" d="M963.666-5609.291h56.474" fill="none" stroke="#fa9300" stroke-width="2"/>
      <circle id="Elipse_5357-2" data-name="Elipse 5357" cx="3.5" cy="3.5" r="3.5" transform="translate(1017 -5613)" fill="#fa9300"/>
    </g>
    <g id="Grupo_71574" data-name="Grupo 71574" transform="translate(0 -3)">
      <path id="Trazado_159458-3" data-name="Trazado 159458" d="M963.666-5609.291h56.474" fill="none" stroke="#d44f4a" stroke-width="2"/>
      <circle id="Elipse_5357-3" data-name="Elipse 5357" cx="3.5" cy="3.5" r="3.5" transform="translate(1017 -5613)" fill="#d44f4a"/>
    </g>
    <g id="Grupo_71576" data-name="Grupo 71576" transform="translate(1817.716 -11119.643) rotate(180)">
      <path id="Trazado_159458-4" data-name="Trazado 159458" d="M963.666-5609.291h56.474" fill="none" stroke="#daa363" stroke-width="2"/>
      <circle id="Elipse_5357-4" data-name="Elipse 5357" cx="3.5" cy="3.5" r="3.5" transform="translate(1017 -5613)" fill="#daa363"/>
    </g>
    <g id="procesando" transform="translate(877.009 -5598.991)">
      <g id="Grupo_71577" data-name="Grupo 71577">
        <path id="Trazado_159459" data-name="Trazado 159459" d="M22.6,57.1,12.9,50a.92.92,0,0,0-1-.1,1.05,1.05,0,0,0-.5.9v3.5H11a4.705,4.705,0,0,1-4.8-4.2,4.5,4.5,0,0,1,2-4.1,1.148,1.148,0,0,0,.4-1.2,1.007,1.007,0,0,0-1.1-.6A8.674,8.674,0,0,0,.2,53.1a8.93,8.93,0,0,0,9.1,8.3h2.2V65a1.05,1.05,0,0,0,.5.9.92.92,0,0,0,1-.1l9.7-7.1a.909.909,0,0,0,.4-.8,1.02,1.02,0,0,0-.5-.8ZM13.3,63V60.4a.945.945,0,0,0-1-1H9.1A7.015,7.015,0,0,1,2,53a6.236,6.236,0,0,1,2.4-5.3,5.66,5.66,0,0,0-.3,2.6,6.692,6.692,0,0,0,6.8,6.1h1.4a.945.945,0,0,0,1-1V52.9l7,5.1Z" fill="#636363"/>
      </g>
      <g id="Grupo_71578" data-name="Grupo 71578">
        <path id="Trazado_159460" data-name="Trazado 159460" d="M65.8,53.1l-7.1-9.7a1.041,1.041,0,0,0-1.6,0L50,53.1a.92.92,0,0,0-.1,1,1.05,1.05,0,0,0,.9.5h3.5c0,3.3-2,5.1-4.2,5.3a4.725,4.725,0,0,1-4.1-2,1.148,1.148,0,0,0-1.2-.4,1.007,1.007,0,0,0-.6,1.1,8.705,8.705,0,0,0,8.6,7.3h.3a8.93,8.93,0,0,0,8.3-9.1V54.6H65a1.05,1.05,0,0,0,.9-.5.92.92,0,0,0-.1-1Zm-5.4-.4a.945.945,0,0,0-1,1v3.2A7.015,7.015,0,0,1,53,64h-.3a6.555,6.555,0,0,1-5.1-2.4,5.66,5.66,0,0,0,2.6.3,6.692,6.692,0,0,0,6.1-6.8V53.7a.945.945,0,0,0-1-1H52.8l5.1-7,5.1,7Z" fill="#636363"/>
      </g>
      <g id="Grupo_71579" data-name="Grupo 71579">
        <path id="Trazado_159461" data-name="Trazado 159461" d="M43.3,9.2,53.2,16a1.047,1.047,0,0,0,1.6-1l-.1-3.3h.6a4.7,4.7,0,0,1,4.8,4.1,4.422,4.422,0,0,1-1.9,4.1.954.954,0,0,0-.3,1.2,1.007,1.007,0,0,0,1.1.6,8.7,8.7,0,0,0,7.1-9.1,8.949,8.949,0,0,0-9-8.1l-2.4.1L54.4,1a.961.961,0,0,0-.6-.9.92.92,0,0,0-1,.1L43.3,7.5a.909.909,0,0,0-.4.8.975.975,0,0,0,.4.9ZM52.5,3l.1,2.6a1,1,0,0,0,1,1L57,6.5a6.823,6.823,0,0,1,7,6.2,6.687,6.687,0,0,1-2.2,5.4,5.66,5.66,0,0,0,.3-2.6,6.745,6.745,0,0,0-6.8-5.9H53.7a1.025,1.025,0,0,0-1,1l.1,2.5L45.6,8.2Z" fill="#636363"/>
      </g>
      <g id="Grupo_71580" data-name="Grupo 71580">
        <path id="Trazado_159462" data-name="Trazado 159462" d="M7.6,22.7a.67.67,0,0,0,.7.4,1.235,1.235,0,0,0,.8-.4l6.8-9.9a1.183,1.183,0,0,0,.1-1,1.05,1.05,0,0,0-.9-.5l-3.5.1V11a4.645,4.645,0,0,1,4.1-4.9A4.422,4.422,0,0,1,19.8,8a.909.909,0,0,0,.8.4A.986.986,0,0,0,21.5,7a8.752,8.752,0,0,0-9-6.9C8,.3,4.4,4.5,4.5,9.3l.1,2.2L1,11.6a.961.961,0,0,0-.9.6.92.92,0,0,0,.1,1Zm-2-9.2a1,1,0,0,0,1-1L6.5,9.2A6.875,6.875,0,0,1,12.7,2a6.687,6.687,0,0,1,5.4,2.2A6.883,6.883,0,0,0,15.6,4a6.715,6.715,0,0,0-5.9,7v1.4a1,1,0,0,0,1,1l2.5-.1L8.3,20.5,3,13.5Z" fill="#636363"/>
      </g>
      <g id="Grupo_71581" data-name="Grupo 71581">
        <path id="Trazado_159463" data-name="Trazado 159463" d="M46.8,51.4a1.135,1.135,0,0,0,.8-.3l3.5-3.5a.942.942,0,0,0,.1-1.3l-2.8-3.7a17.825,17.825,0,0,0,2.3-5.5l4.6-.6a1.063,1.063,0,0,0,.9-1v-5a1.063,1.063,0,0,0-.9-1l-4.6-.6a15.7,15.7,0,0,0-2.3-5.5l2.8-3.6a1.063,1.063,0,0,0-.1-1.4l-3.5-3.5a.942.942,0,0,0-1.3-.1l-3.7,2.8a17.825,17.825,0,0,0-5.5-2.3l-.6-4.6a1.063,1.063,0,0,0-1-.9h-5a1.063,1.063,0,0,0-1,.9l-.6,4.6a17.825,17.825,0,0,0-5.5,2.3l-3.7-2.8a.935.935,0,0,0-1.3.1l-3.5,3.5a.942.942,0,0,0-.1,1.3l2.8,3.7a17.825,17.825,0,0,0-2.3,5.5l-4.6.6a1.063,1.063,0,0,0-.9,1v5a1.063,1.063,0,0,0,.9,1l4.6.6a15.7,15.7,0,0,0,2.3,5.5l-2.8,3.7a.935.935,0,0,0,.1,1.3l3.5,3.5a.942.942,0,0,0,1.3.1l3.7-2.8a17.825,17.825,0,0,0,5.5,2.3l.6,4.6a1.063,1.063,0,0,0,1,.9h5a1.063,1.063,0,0,0,1-.9l.6-4.6a16.52,16.52,0,0,0,5.5-2.3l3.6,2.8a1.421,1.421,0,0,0,.6.2Zm-4.7-5.1a16.654,16.654,0,0,1-6,2.5,1.075,1.075,0,0,0-.8.9l-.6,4.4H31.5l-.6-4.4a1.22,1.22,0,0,0-.8-.9,15.95,15.95,0,0,1-6-2.5,1.275,1.275,0,0,0-1.2,0L19.4,49l-2.3-2.3,2.7-3.5a1.051,1.051,0,0,0,0-1.3,17.752,17.752,0,0,1-2.5-6,1.075,1.075,0,0,0-.9-.8L12,34.5V31.3l4.4-.6a1.22,1.22,0,0,0,.9-.8,15.95,15.95,0,0,1,2.5-6,1.275,1.275,0,0,0,0-1.2l-2.7-3.5,2.3-2.3,3.5,2.7a1.049,1.049,0,0,0,1.3,0,15.95,15.95,0,0,1,6-2.5,1.075,1.075,0,0,0,.8-.9l.6-4.4h3.2l.6,4.4a1.22,1.22,0,0,0,.8.9,15.95,15.95,0,0,1,6,2.5,1.275,1.275,0,0,0,1.2,0l3.5-2.7,2.3,2.3-2.7,3.5a.91.91,0,0,0,0,1.2,16.654,16.654,0,0,1,2.5,6,1.075,1.075,0,0,0,.9.8l4.4.6v3.2l-4.4.6a1.22,1.22,0,0,0-.9.8,15.95,15.95,0,0,1-2.5,6,1.275,1.275,0,0,0,0,1.2l2.7,3.5-2.3,2.3-3.5-2.7A1.844,1.844,0,0,0,42.1,46.3Z" fill="#636363"/>
      </g>
      <g id="Grupo_71582" data-name="Grupo 71582">
        <path id="Trazado_159464" data-name="Trazado 159464" d="M33,22A11,11,0,1,0,44,33,10.968,10.968,0,0,0,33,22Zm0,20a9,9,0,1,1,9-9A8.963,8.963,0,0,1,33,42Z" fill="#636363"/>
      </g>
    </g>
    <rect id="Rectángulo_11939" data-name="Rectángulo 11939" width="820" height="184" transform="translate(482 -5657)" fill="none"/>
  </g>
</svg>
