<svg xmlns="http://www.w3.org/2000/svg" xmlns:xlink="http://www.w3.org/1999/xlink" width="820" height="183.17" viewBox="0 0 820 183.17">
  <defs>
    <clipPath id="clip-path">
      <rect id="Rectángulo_11916" data-name="Rectángulo 11916" width="96.639" height="46.874" transform="translate(0 0)" fill="#636363"/>
    </clipPath>
    <clipPath id="clip-path-2">
      <rect id="Rectángulo_11908" data-name="Rectángulo 11908" width="504.427" height="159.733" fill="#e79994"/>
    </clipPath>
  </defs>
  <g id="Grupo_71543" data-name="Grupo 71543" transform="translate(-369 7128)">
    <rect id="Rectángulo_11917" data-name="Rectángulo 11917" width="820" height="183" transform="translate(369 -7128)" fill="none"/>
    <g id="Grupo_71542" data-name="Grupo 71542" transform="translate(47 6.73)">
      <g id="Grupo_71540" data-name="Grupo 71540" transform="translate(378 -7134.731)">
        <path id="Trazado_159334" data-name="Trazado 159334" d="M10.444.625,6.725,9.907,3.006.625H1.069V12h1.5V7.57L2.421,2.813,6.146,12H7.295L11.03,2.79l-.141,4.78V12h1.5V.625Z" fill="#636363"/>
        <g id="Grupo_71539" data-name="Grupo 71539">
          <g id="Grupo_71538" data-name="Grupo 71538" clip-path="url(#clip-path)">
            <path id="Trazado_159335" data-name="Trazado 159335" d="M18.319,12.156a3.692,3.692,0,0,1-2.8-1.129,4.187,4.187,0,0,1-1.078-3.019V7.742a5.078,5.078,0,0,1,.48-2.246,3.753,3.753,0,0,1,1.344-1.547,3.379,3.379,0,0,1,1.871-.558A3.17,3.17,0,0,1,20.7,4.476a4.707,4.707,0,0,1,.914,3.11v.6H15.889a3.011,3.011,0,0,0,.73,2.02,2.3,2.3,0,0,0,1.778.769,2.522,2.522,0,0,0,1.3-.312,3.241,3.241,0,0,0,.929-.828l.883.687a3.547,3.547,0,0,1-3.187,1.633m-.18-7.578a1.928,1.928,0,0,0-1.469.637A3.1,3.1,0,0,0,15.936,7H20.17V6.891a2.752,2.752,0,0,0-.594-1.708,1.816,1.816,0,0,0-1.437-.605" fill="#636363"/>
            <path id="Trazado_159336" data-name="Trazado 159336" d="M25.248,1.5V3.547h1.578V4.664H25.248V9.913a1.173,1.173,0,0,0,.211.763.89.89,0,0,0,.719.254,3.538,3.538,0,0,0,.687-.094V12a4.234,4.234,0,0,1-1.109.155A1.8,1.8,0,0,1,24.3,11.57,2.516,2.516,0,0,1,23.8,9.906V4.664H22.264V3.547H23.8V1.5Z" fill="#636363"/>
            <path id="Trazado_159337" data-name="Trazado 159337" d="M27.975,7.7a5,5,0,0,1,.488-2.234,3.64,3.64,0,0,1,1.36-1.532,3.7,3.7,0,0,1,1.988-.539,3.565,3.565,0,0,1,2.793,1.2A4.6,4.6,0,0,1,35.67,7.765v.1a5.036,5.036,0,0,1-.472,2.215,3.589,3.589,0,0,1-1.352,1.527,3.74,3.74,0,0,1-2.02.547,3.556,3.556,0,0,1-2.785-1.195A4.576,4.576,0,0,1,27.975,7.8Zm1.453.172a3.624,3.624,0,0,0,.652,2.258,2.211,2.211,0,0,0,3.5-.012A3.948,3.948,0,0,0,34.225,7.7a3.612,3.612,0,0,0-.66-2.254,2.1,2.1,0,0,0-1.754-.863,2.078,2.078,0,0,0-1.727.851,3.931,3.931,0,0,0-.656,2.438" fill="#636363"/>
            <path id="Trazado_159338" data-name="Trazado 159338" d="M37.131,7.7a4.949,4.949,0,0,1,.922-3.129,3.135,3.135,0,0,1,4.765-.168V0h1.445V12H42.935l-.07-.906a2.944,2.944,0,0,1-2.414,1.062,2.889,2.889,0,0,1-2.4-1.2,5.009,5.009,0,0,1-.925-3.141Zm1.445.164a3.75,3.75,0,0,0,.594,2.25,1.917,1.917,0,0,0,1.64.813,2.109,2.109,0,0,0,2.008-1.235V5.812a2.123,2.123,0,0,0-1.992-1.195,1.927,1.927,0,0,0-1.656.82,4.128,4.128,0,0,0-.594,2.43" fill="#636363"/>
            <path id="Trazado_159339" data-name="Trazado 159339" d="M46.123,7.7a5,5,0,0,1,.488-2.234,3.64,3.64,0,0,1,1.36-1.532,3.7,3.7,0,0,1,1.988-.539,3.565,3.565,0,0,1,2.793,1.2,4.6,4.6,0,0,1,1.066,3.179v.1a5.036,5.036,0,0,1-.472,2.215,3.589,3.589,0,0,1-1.352,1.527,3.74,3.74,0,0,1-2.02.547,3.556,3.556,0,0,1-2.785-1.195A4.576,4.576,0,0,1,46.123,7.8Zm1.453.172a3.624,3.624,0,0,0,.652,2.258,2.211,2.211,0,0,0,3.5-.012A3.948,3.948,0,0,0,52.373,7.7a3.612,3.612,0,0,0-.66-2.254,2.1,2.1,0,0,0-1.754-.863,2.078,2.078,0,0,0-1.727.851,3.931,3.931,0,0,0-.656,2.438" fill="#636363"/>
            <rect id="Rectángulo_11914" data-name="Rectángulo 11914" width="1.445" height="12" transform="translate(55.756 0)" fill="#636363"/>
            <path id="Trazado_159340" data-name="Trazado 159340" d="M59.131,7.7a5,5,0,0,1,.488-2.234,3.64,3.64,0,0,1,1.36-1.532,3.7,3.7,0,0,1,1.988-.539,3.565,3.565,0,0,1,2.793,1.2,4.6,4.6,0,0,1,1.066,3.179v.1a5.036,5.036,0,0,1-.472,2.215A3.589,3.589,0,0,1,65,11.609a3.74,3.74,0,0,1-2.02.547A3.556,3.556,0,0,1,60.2,10.961,4.576,4.576,0,0,1,59.131,7.8Zm1.453.172a3.624,3.624,0,0,0,.652,2.258,2.211,2.211,0,0,0,3.5-.012A3.948,3.948,0,0,0,65.381,7.7a3.612,3.612,0,0,0-.66-2.254,2.1,2.1,0,0,0-1.754-.863,2.078,2.078,0,0,0-1.727.851,3.931,3.931,0,0,0-.656,2.438" fill="#636363"/>
            <path id="Trazado_159341" data-name="Trazado 159341" d="M68.295,7.7a4.974,4.974,0,0,1,.914-3.145,3.151,3.151,0,0,1,4.836-.074l.07-.937h1.32V11.8a3.443,3.443,0,0,1-.972,2.586,3.591,3.591,0,0,1-2.613.945,4.343,4.343,0,0,1-1.79-.391,3.074,3.074,0,0,1-1.335-1.07l.75-.867a2.827,2.827,0,0,0,2.273,1.148,2.216,2.216,0,0,0,1.645-.594,2.268,2.268,0,0,0,.589-1.671v-.727a2.969,2.969,0,0,1-2.367,1,2.887,2.887,0,0,1-2.4-1.195A5.224,5.224,0,0,1,68.295,7.7m1.453.164a3.787,3.787,0,0,0,.586,2.246,1.9,1.9,0,0,0,1.641.817,2.116,2.116,0,0,0,2.007-1.243V5.828A2.141,2.141,0,0,0,71.99,4.617a1.919,1.919,0,0,0-1.648.82,4.128,4.128,0,0,0-.594,2.43" fill="#636363"/>
            <path id="Trazado_159342" data-name="Trazado 159342" d="M79.2.008h1.75l-2.094,2.3-1.164,0ZM79.186,12H77.733V3.547h1.453Z" fill="#636363"/>
            <path id="Trazado_159343" data-name="Trazado 159343" d="M86.787,12a3.052,3.052,0,0,1-.2-.891,3.223,3.223,0,0,1-2.406,1.047,2.987,2.987,0,0,1-2.051-.707,2.287,2.287,0,0,1-.8-1.793,2.391,2.391,0,0,1,1-2.051,4.734,4.734,0,0,1,2.825-.73h1.406V6.211A1.627,1.627,0,0,0,86.108,5a1.822,1.822,0,0,0-1.336-.449,2.11,2.11,0,0,0-1.3.391,1.152,1.152,0,0,0-.523.945H81.5a1.99,1.99,0,0,1,.45-1.222,3.06,3.06,0,0,1,1.218-.934,4.1,4.1,0,0,1,1.692-.344,3.343,3.343,0,0,1,2.289.731,2.631,2.631,0,0,1,.859,2.011v3.891a4.756,4.756,0,0,0,.3,1.852V12Zm-2.4-1.1a2.534,2.534,0,0,0,1.289-.352,2.13,2.13,0,0,0,.883-.914V7.9H85.428q-2.655,0-2.656,1.555a1.315,1.315,0,0,0,.453,1.062,1.737,1.737,0,0,0,1.164.383" fill="#636363"/>
            <path id="Trazado_159344" data-name="Trazado 159344" d="M95.193,9.758a1.063,1.063,0,0,0-.441-.91,4.268,4.268,0,0,0-1.539-.559,7.265,7.265,0,0,1-1.743-.562,2.481,2.481,0,0,1-.953-.782,1.863,1.863,0,0,1-.308-1.078,2.192,2.192,0,0,1,.879-1.757,3.43,3.43,0,0,1,2.246-.719,3.533,3.533,0,0,1,2.332.742,2.358,2.358,0,0,1,.894,1.9H95.107a1.306,1.306,0,0,0-.5-1.023,1.89,1.89,0,0,0-1.269-.43,1.977,1.977,0,0,0-1.235.344,1.083,1.083,0,0,0-.445.9.877.877,0,0,0,.414.79,5.08,5.08,0,0,0,1.5.507,7.863,7.863,0,0,1,1.754.578,2.567,2.567,0,0,1,1,.809,1.99,1.99,0,0,1,.324,1.152,2.161,2.161,0,0,1-.906,1.817,3.8,3.8,0,0,1-2.351.683,4.264,4.264,0,0,1-1.8-.359,2.914,2.914,0,0,1-1.223-1A2.42,2.42,0,0,1,89.92,9.4h1.445a1.5,1.5,0,0,0,.582,1.152,2.258,2.258,0,0,0,1.434.426,2.335,2.335,0,0,0,1.316-.332,1.019,1.019,0,0,0,.5-.887" fill="#636363"/>
            <path id="Trazado_159345" data-name="Trazado 159345" d="M13.157,36.222H5.3l-1.644,4.72H0L7.657,20.669h3.161L18.49,40.942H14.814Zm-6.864-2.84h5.876l-2.938-8.41Zm4-18.143h3.857l-3.857,4.219-2.715-.007Z" fill="#d44f4a"/>
            <path id="Trazado_159346" data-name="Trazado 159346" d="M19.868,33.3a8.811,8.811,0,0,1,1.65-5.6A5.3,5.3,0,0,1,25.9,25.6a4.96,4.96,0,0,1,4.052,1.8l.153-1.518h3.049V40.483a6.069,6.069,0,0,1-1.845,4.678,7.025,7.025,0,0,1-4.977,1.713,8.023,8.023,0,0,1-3.237-.689,5.765,5.765,0,0,1-2.4-1.8l1.6-2.033A4.836,4.836,0,0,0,26.134,44.2a3.737,3.737,0,0,0,2.659-.912,3.5,3.5,0,0,0,.974-2.68V39.592a4.978,4.978,0,0,1-3.9,1.629,5.282,5.282,0,0,1-4.323-2.1A9.09,9.09,0,0,1,19.868,33.3m3.37.292a6.057,6.057,0,0,0,.926,3.571,2.976,2.976,0,0,0,2.568,1.3,3.255,3.255,0,0,0,3.035-1.754V30.082a3.208,3.208,0,0,0-3.007-1.713,2.989,2.989,0,0,0-2.6,1.323,6.788,6.788,0,0,0-.926,3.9" fill="#d44f4a"/>
            <path id="Trazado_159347" data-name="Trazado 159347" d="M36.633,21.964a1.8,1.8,0,0,1,.494-1.3,1.871,1.871,0,0,1,1.414-.515,1.892,1.892,0,0,1,1.42.515,1.785,1.785,0,0,1,.5,1.3,1.739,1.739,0,0,1-.5,1.274,1.9,1.9,0,0,1-1.42.509,1.879,1.879,0,0,1-1.414-.509,1.754,1.754,0,0,1-.494-1.274m3.593,18.978H36.842V25.877h3.384Z" fill="#d44f4a"/>
            <rect id="Rectángulo_11915" data-name="Rectángulo 11915" width="3.384" height="21.387" transform="translate(44.123 19.555)" fill="#d44f4a"/>
            <path id="Trazado_159348" data-name="Trazado 159348" d="M57.824,41.221a7,7,0,0,1-5.215-2.026,7.348,7.348,0,0,1-2-5.4v-.418a9.009,9.009,0,0,1,.872-4.03,6.62,6.62,0,0,1,2.443-2.765,6.468,6.468,0,0,1,3.509-.988,5.914,5.914,0,0,1,4.755,1.964,8.3,8.3,0,0,1,1.677,5.555v1.364H54.024a4.512,4.512,0,0,0,1.246,2.952,3.738,3.738,0,0,0,2.75,1.086,4.583,4.583,0,0,0,3.787-1.879l1.823,1.74a6.1,6.1,0,0,1-2.415,2.1,7.576,7.576,0,0,1-3.391.744m-.4-12.907a2.846,2.846,0,0,0-2.248.975A5.046,5.046,0,0,0,54.079,32h6.446v-.251a4.109,4.109,0,0,0-.905-2.568,2.829,2.829,0,0,0-2.2-.871" fill="#d44f4a"/>
            <path id="Trazado_159349" data-name="Trazado 159349" d="M74.937,36.849a1.535,1.535,0,0,0-.745-1.378,7.935,7.935,0,0,0-2.472-.836,12.644,12.644,0,0,1-2.882-.919,3.844,3.844,0,0,1-2.534-3.55,4.008,4.008,0,0,1,1.643-3.258A6.494,6.494,0,0,1,72.123,25.6a6.763,6.763,0,0,1,4.366,1.336A4.244,4.244,0,0,1,78.153,30.4H74.769a2.083,2.083,0,0,0-.724-1.622,2.771,2.771,0,0,0-1.922-.648,3,3,0,0,0-1.816.515,1.624,1.624,0,0,0-.7,1.379,1.37,1.37,0,0,0,.654,1.211,8.976,8.976,0,0,0,2.646.87,12.55,12.55,0,0,1,3.126,1.045,4.435,4.435,0,0,1,1.685,1.454,3.72,3.72,0,0,1,.549,2.061,3.924,3.924,0,0,1-1.684,3.293,7.186,7.186,0,0,1-4.415,1.26,7.8,7.8,0,0,1-3.3-.668,5.427,5.427,0,0,1-2.256-1.838,4.355,4.355,0,0,1-.808-2.52h3.286a2.391,2.391,0,0,0,.906,1.845,3.518,3.518,0,0,0,2.213.647,3.426,3.426,0,0,0,2.034-.508,1.573,1.573,0,0,0,.7-1.33" fill="#d44f4a"/>
          </g>
        </g>
      </g>
      <g id="Grupo_71541" data-name="Grupo 71541" transform="translate(-171 -226.294)">
        <path id="Sustracción_22" data-name="Sustracción 22" d="M203.18,99H31.538A98.065,98.065,0,0,1,33.712,0H201.006a98,98,0,0,1,2.175,99Z" transform="translate(1043.782 -6854.634)" fill="#d44f4a" stroke="rgba(0,0,0,0)" stroke-miterlimit="10" stroke-width="1"/>
        <g id="Grupo_71536" data-name="Grupo 71536" transform="translate(546 -6885)">
          <g id="Grupo_71535" data-name="Grupo 71535" clip-path="url(#clip-path-2)">
            <path id="Trazado_159195" data-name="Trazado 159195" d="M7.575,42.612a9.341,9.341,0,0,0-.946,4.644v4.176A9.715,9.715,0,0,0,7.6,56.351a3.2,3.2,0,0,0,2.928,1.588,3.157,3.157,0,0,0,2.872-1.5,9.371,9.371,0,0,0,.981-4.714V47.453a9.581,9.581,0,0,0-.931-4.834A3.207,3.207,0,0,0,10.5,41.1a3.162,3.162,0,0,0-2.921,1.51" fill="#e69994"/>
            <path id="Trazado_159196" data-name="Trazado 159196" d="M144.237,68.245,128.742,45.907a13.772,13.772,0,0,0-11.3-5.98H28.913V59.788H26.288v-17.4L21.024,44.32V41.949l5.383-2.022H14.162a4.83,4.83,0,0,1,1.217,1.154q1.568,2.124,1.609,6.555v3.387q0,4.589-1.566,6.816a5.57,5.57,0,0,1-4.9,2.231,5.612,5.612,0,0,1-4.869-2.181Q4.074,55.71,4.018,51.376V47.89q0-4.53,1.567-6.731a4.884,4.884,0,0,1,1.269-1.232H0v73.134H117.439a13.771,13.771,0,0,0,11.3-5.979l15.495-22.338a14.527,14.527,0,0,0,0-16.5" fill="#e69994"/>
            <path id="Trazado_159197" data-name="Trazado 159197" d="M20.1,87.648v4.218H18.127V80.492h4.352a4.4,4.4,0,0,1,3.027.993,3.341,3.341,0,0,1,1.121,2.628,3.232,3.232,0,0,1-1.1,2.6,4.617,4.617,0,0,1-3.074.931Zm0-1.594h2.375a2.337,2.337,0,0,0,1.609-.5,1.824,1.824,0,0,0,.555-1.434,1.966,1.966,0,0,0-.562-1.472,2.168,2.168,0,0,0-1.547-.567H20.1Z"/>
            <rect id="Rectángulo_11906" data-name="Rectángulo 11906" width="1.898" height="12" transform="translate(28.292 79.867)"/>
            <path id="Trazado_159198" data-name="Trazado 159198" d="M37.307,91.867a2.96,2.96,0,0,1-.219-.789,3.195,3.195,0,0,1-4.3.219,2.326,2.326,0,0,1-.8-1.8,2.4,2.4,0,0,1,1-2.074,4.86,4.86,0,0,1,2.871-.723h1.164v-.555a1.473,1.473,0,0,0-.368-1.05,1.456,1.456,0,0,0-1.117-.395,1.678,1.678,0,0,0-1.062.324,1,1,0,0,0-.414.825h-1.9a2.107,2.107,0,0,1,.461-1.3,3.075,3.075,0,0,1,1.254-.949,4.387,4.387,0,0,1,1.77-.344A3.55,3.55,0,0,1,38.018,84a2.656,2.656,0,0,1,.906,2.1v3.812a4.326,4.326,0,0,0,.32,1.82v.133ZM35.221,90.5a2.164,2.164,0,0,0,1.059-.273,1.828,1.828,0,0,0,.746-.735V87.9H36a2.8,2.8,0,0,0-1.586.368,1.189,1.189,0,0,0-.531,1.039,1.11,1.11,0,0,0,.363.871,1.41,1.41,0,0,0,.973.324"/>
            <path id="Trazado_159199" data-name="Trazado 159199" d="M42.674,83.414l.055.977a3.04,3.04,0,0,1,2.461-1.133q2.64,0,2.687,3.023v5.586h-1.9V86.391a1.746,1.746,0,0,0-.348-1.192,1.46,1.46,0,0,0-1.137-.387,1.83,1.83,0,0,0-1.711,1.04v6.015h-1.9V83.414Z"/>
            <path id="Trazado_159200" data-name="Trazado 159200" d="M53.534,92.023a3.926,3.926,0,0,1-2.926-1.137,4.122,4.122,0,0,1-1.121-3.027v-.234a5.08,5.08,0,0,1,.488-2.262,3.712,3.712,0,0,1,1.371-1.551,3.624,3.624,0,0,1,1.969-.554,3.319,3.319,0,0,1,2.668,1.1,4.656,4.656,0,0,1,.941,3.117v.766H51.4a2.535,2.535,0,0,0,.7,1.656,2.1,2.1,0,0,0,1.543.61,2.571,2.571,0,0,0,2.125-1.055l1.023.976a3.411,3.411,0,0,1-1.355,1.176,4.24,4.24,0,0,1-1.9.418m-.227-7.242a1.6,1.6,0,0,0-1.262.547,2.837,2.837,0,0,0-.613,1.523h3.617v-.14a2.308,2.308,0,0,0-.508-1.442,1.588,1.588,0,0,0-1.234-.488"/>
            <path id="Trazado_159201" data-name="Trazado 159201" d="M63.447,91.867a2.96,2.96,0,0,1-.219-.789,3.195,3.195,0,0,1-4.3.219,2.326,2.326,0,0,1-.8-1.8,2.4,2.4,0,0,1,1-2.074A4.86,4.86,0,0,1,62,86.7h1.164v-.555A1.473,1.473,0,0,0,62.8,85.1a1.456,1.456,0,0,0-1.117-.395,1.678,1.678,0,0,0-1.062.324,1,1,0,0,0-.414.825h-1.9a2.107,2.107,0,0,1,.461-1.3,3.075,3.075,0,0,1,1.254-.949,4.387,4.387,0,0,1,1.77-.344A3.55,3.55,0,0,1,64.158,84a2.656,2.656,0,0,1,.906,2.1v3.812a4.326,4.326,0,0,0,.32,1.82v.133ZM61.361,90.5a2.164,2.164,0,0,0,1.059-.273,1.828,1.828,0,0,0,.746-.735V87.9H62.142a2.8,2.8,0,0,0-1.586.368,1.189,1.189,0,0,0-.531,1.039,1.11,1.11,0,0,0,.363.871,1.41,1.41,0,0,0,.973.324"/>
            <path id="Trazado_159202" data-name="Trazado 159202" d="M68.838,83.414l.055.883a3.039,3.039,0,0,1,2.437-1.039,2.335,2.335,0,0,1,2.32,1.3,3,3,0,0,1,2.594-1.3,2.637,2.637,0,0,1,2.082.773,3.409,3.409,0,0,1,.7,2.281v5.555h-1.9v-5.5a1.68,1.68,0,0,0-.352-1.18,1.538,1.538,0,0,0-1.164-.375,1.583,1.583,0,0,0-1.058.348,1.827,1.827,0,0,0-.574.91l.007,5.8h-1.9V86.305a1.355,1.355,0,0,0-1.523-1.493,1.672,1.672,0,0,0-1.618.93v6.125h-1.9V83.414Z"/>
            <path id="Trazado_159203" data-name="Trazado 159203" d="M80.979,81.218a1,1,0,0,1,.277-.726,1.046,1.046,0,0,1,.793-.289,1.06,1.06,0,0,1,.8.289,1,1,0,0,1,.281.726.979.979,0,0,1-.281.715,1.066,1.066,0,0,1-.8.285,1.052,1.052,0,0,1-.793-.285.984.984,0,0,1-.277-.715m2.015,10.649H81.1V83.414h1.9Z"/>
            <path id="Trazado_159204" data-name="Trazado 159204" d="M88.784,92.023a3.926,3.926,0,0,1-2.926-1.137,4.122,4.122,0,0,1-1.121-3.027v-.234a5.08,5.08,0,0,1,.488-2.262A3.712,3.712,0,0,1,86.6,83.812a3.624,3.624,0,0,1,1.969-.554,3.319,3.319,0,0,1,2.668,1.1,4.656,4.656,0,0,1,.941,3.117v.766H86.651a2.535,2.535,0,0,0,.7,1.656,2.1,2.1,0,0,0,1.543.61,2.571,2.571,0,0,0,2.125-1.055l1.023.976a3.411,3.411,0,0,1-1.355,1.176,4.24,4.24,0,0,1-1.9.418m-.227-7.242a1.6,1.6,0,0,0-1.262.547,2.837,2.837,0,0,0-.613,1.523H90.3v-.14a2.308,2.308,0,0,0-.508-1.442,1.588,1.588,0,0,0-1.234-.488"/>
            <path id="Trazado_159205" data-name="Trazado 159205" d="M95.408,83.414l.055.977a3.04,3.04,0,0,1,2.461-1.133q2.64,0,2.687,3.023v5.586h-1.9V86.391a1.746,1.746,0,0,0-.348-1.192,1.46,1.46,0,0,0-1.137-.387,1.83,1.83,0,0,0-1.711,1.04v6.015h-1.9V83.414Z"/>
            <path id="Trazado_159206" data-name="Trazado 159206" d="M104.924,81.359v2.055h1.492V84.82h-1.492v4.719a1.038,1.038,0,0,0,.191.7.89.89,0,0,0,.684.215,2.985,2.985,0,0,0,.664-.078v1.468a4.672,4.672,0,0,1-1.25.18q-2.187,0-2.187-2.414V84.82h-1.391V83.414h1.391V81.359Z"/>
            <path id="Trazado_159207" data-name="Trazado 159207" d="M107.276,87.562a4.985,4.985,0,0,1,.492-2.238,3.6,3.6,0,0,1,1.383-1.532,3.9,3.9,0,0,1,2.046-.535,3.691,3.691,0,0,1,2.778,1.1,4.329,4.329,0,0,1,1.152,2.922l.008.445a5.018,5.018,0,0,1-.481,2.234,3.546,3.546,0,0,1-1.375,1.524,3.926,3.926,0,0,1-2.066.539,3.668,3.668,0,0,1-2.863-1.192,4.559,4.559,0,0,1-1.074-3.175Zm1.9.164a3.408,3.408,0,0,0,.539,2.043,1.752,1.752,0,0,0,1.5.738,1.732,1.732,0,0,0,1.5-.75,3.758,3.758,0,0,0,.535-2.2,3.361,3.361,0,0,0-.55-2.031,1.762,1.762,0,0,0-1.5-.75,1.741,1.741,0,0,0-1.476.738,3.7,3.7,0,0,0-.547,2.207"/>
            <path id="Trazado_159208" data-name="Trazado 159208" d="M153.82,42.612a9.34,9.34,0,0,0-.947,4.644v4.176a9.715,9.715,0,0,0,.967,4.919,3.2,3.2,0,0,0,2.928,1.588,3.16,3.16,0,0,0,2.873-1.5,9.384,9.384,0,0,0,.98-4.714V47.453a9.57,9.57,0,0,0-.931-4.834,3.2,3.2,0,0,0-2.95-1.517,3.159,3.159,0,0,0-2.92,1.51" fill="#fabe6f"/>
            <path id="Trazado_159209" data-name="Trazado 159209" d="M291.044,68.245,275.549,45.907a13.772,13.772,0,0,0-11.3-5.98H176.7a5.312,5.312,0,0,1,.735.532,5.128,5.128,0,0,1,1.665,4q0,3.036-3.867,7.227l-5.5,5.97H180.04v2.131H166.577V57.911l7.113-7.9a16.943,16.943,0,0,0,2.18-2.914,4.863,4.863,0,0,0,.6-2.322,3.685,3.685,0,0,0-.974-2.639,3.408,3.408,0,0,0-2.6-1.03,4.035,4.035,0,0,0-3.027,1.107,4.234,4.234,0,0,0-1.079,3.084h-2.611a6.061,6.061,0,0,1,1.827-4.586,5.878,5.878,0,0,1,1.02-.78h-8.622a4.843,4.843,0,0,1,1.216,1.154q1.567,2.124,1.609,6.555v3.387q0,4.589-1.566,6.816a6.509,6.509,0,0,1-9.767.05q-1.58-2.179-1.636-6.513V47.89q0-4.53,1.566-6.731a4.888,4.888,0,0,1,1.27-1.232H132.223a14.658,14.658,0,0,1,3.292,3.609l15.5,24.07a16.663,16.663,0,0,1,0,17.777l-15.5,24.07a14.635,14.635,0,0,1-3.292,3.608H264.246a13.771,13.771,0,0,0,11.3-5.979l15.495-22.338a14.527,14.527,0,0,0,0-16.5" fill="#fabe6f"/>
            <path id="Trazado_159210" data-name="Trazado 159210" d="M168.568,79.044h-2.2v4.375h-1.977V72.044h4a4.651,4.651,0,0,1,3.039.884,3.122,3.122,0,0,1,1.071,2.556,3.2,3.2,0,0,1-.551,1.912,3.507,3.507,0,0,1-1.535,1.185l2.555,4.736v.1h-2.118Zm-2.2-1.594H168.4a2.26,2.26,0,0,0,1.563-.5,1.756,1.756,0,0,0,.562-1.379A1.873,1.873,0,0,0,170,74.153a2.214,2.214,0,0,0-1.551-.516h-2.086Z"/>
            <path id="Trazado_159211" data-name="Trazado 159211" d="M177.913,83.575a3.926,3.926,0,0,1-2.926-1.137,4.122,4.122,0,0,1-1.121-3.027v-.234a5.08,5.08,0,0,1,.488-2.262,3.712,3.712,0,0,1,1.371-1.551,3.633,3.633,0,0,1,1.969-.554,3.319,3.319,0,0,1,2.668,1.1,4.656,4.656,0,0,1,.941,3.117v.766H175.78a2.535,2.535,0,0,0,.7,1.656,2.1,2.1,0,0,0,1.543.61A2.571,2.571,0,0,0,180.147,81l1.023.976a3.4,3.4,0,0,1-1.355,1.176,4.24,4.24,0,0,1-1.9.418m-.227-7.242a1.6,1.6,0,0,0-1.262.547,2.844,2.844,0,0,0-.613,1.523h3.617v-.14a2.313,2.313,0,0,0-.508-1.442,1.588,1.588,0,0,0-1.234-.488"/>
            <path id="Trazado_159212" data-name="Trazado 159212" d="M182.42,79.122a5,5,0,0,1,.906-3.149,2.947,2.947,0,0,1,2.453-1.164,2.767,2.767,0,0,1,2.242.993l.11-.836h1.687v11.7h-1.9V82.7a2.832,2.832,0,0,1-2.157.875,2.914,2.914,0,0,1-2.429-1.184,5.223,5.223,0,0,1-.914-3.269m1.9.164a3.527,3.527,0,0,0,.512,2.035,1.63,1.63,0,0,0,1.418.738,1.8,1.8,0,0,0,1.672-.961V77.255a1.8,1.8,0,0,0-1.657-.922,1.658,1.658,0,0,0-1.425.726,3.846,3.846,0,0,0-.52,2.227"/>
            <path id="Trazado_159213" data-name="Trazado 159213" d="M196.982,82.59a2.946,2.946,0,0,1-2.375.984,2.622,2.622,0,0,1-2.082-.8,3.42,3.42,0,0,1-.707-2.328V74.965h1.9v5.453q0,1.609,1.336,1.61a1.878,1.878,0,0,0,1.868-.993v-6.07h1.9v8.453h-1.789Z"/>
            <path id="Trazado_159214" data-name="Trazado 159214" d="M204.475,83.575a3.926,3.926,0,0,1-2.926-1.137,4.122,4.122,0,0,1-1.121-3.027v-.234a5.08,5.08,0,0,1,.488-2.262,3.712,3.712,0,0,1,1.371-1.551,3.633,3.633,0,0,1,1.969-.554,3.319,3.319,0,0,1,2.668,1.1,4.656,4.656,0,0,1,.941,3.117v.766h-5.523a2.535,2.535,0,0,0,.7,1.656,2.1,2.1,0,0,0,1.543.61A2.571,2.571,0,0,0,206.709,81l1.023.976a3.4,3.4,0,0,1-1.355,1.176,4.24,4.24,0,0,1-1.9.418m-.227-7.242a1.6,1.6,0,0,0-1.262.547,2.844,2.844,0,0,0-.613,1.523h3.617v-.14a2.313,2.313,0,0,0-.508-1.442,1.588,1.588,0,0,0-1.234-.488"/>
            <path id="Trazado_159215" data-name="Trazado 159215" d="M213.764,76.7a4.772,4.772,0,0,0-.773-.062,1.741,1.741,0,0,0-1.758,1v5.782h-1.9V74.966h1.813l.047.945a2.139,2.139,0,0,1,1.906-1.1,1.778,1.778,0,0,1,.672.11Z"/>
            <path id="Trazado_159216" data-name="Trazado 159216" d="M214.967,72.77a1.015,1.015,0,0,1,.277-.727,1.05,1.05,0,0,1,.793-.289,1.063,1.063,0,0,1,.8.289,1,1,0,0,1,.281.727.974.974,0,0,1-.281.715,1.069,1.069,0,0,1-.8.285,1.056,1.056,0,0,1-.793-.285.987.987,0,0,1-.277-.715m2.016,10.648h-1.9V74.965h1.9Z"/>
            <path id="Trazado_159217" data-name="Trazado 159217" d="M220.834,74.965l.055.883a3.039,3.039,0,0,1,2.437-1.039,2.335,2.335,0,0,1,2.32,1.3,3,3,0,0,1,2.594-1.3,2.637,2.637,0,0,1,2.082.773,3.409,3.409,0,0,1,.7,2.281v5.555h-1.9v-5.5a1.68,1.68,0,0,0-.352-1.18,1.538,1.538,0,0,0-1.164-.375,1.583,1.583,0,0,0-1.058.348,1.832,1.832,0,0,0-.574.91l.007,5.8h-1.9V77.856a1.355,1.355,0,0,0-1.523-1.493,1.674,1.674,0,0,0-1.618.93v6.125h-1.9V74.965Z"/>
            <path id="Trazado_159218" data-name="Trazado 159218" d="M232.975,72.77a1.015,1.015,0,0,1,.277-.727,1.05,1.05,0,0,1,.793-.289,1.064,1.064,0,0,1,.8.289,1.006,1.006,0,0,1,.281.727.978.978,0,0,1-.281.715,1.07,1.07,0,0,1-.8.285,1.056,1.056,0,0,1-.793-.285.987.987,0,0,1-.277-.715m2.015,10.648h-1.9V74.965h1.9Z"/>
            <path id="Trazado_159219" data-name="Trazado 159219" d="M240.78,83.575a3.926,3.926,0,0,1-2.926-1.137,4.122,4.122,0,0,1-1.121-3.027v-.234a5.08,5.08,0,0,1,.488-2.262,3.712,3.712,0,0,1,1.371-1.551,3.633,3.633,0,0,1,1.969-.554,3.319,3.319,0,0,1,2.668,1.1,4.656,4.656,0,0,1,.941,3.117v.766h-5.523a2.535,2.535,0,0,0,.7,1.656,2.1,2.1,0,0,0,1.543.61A2.571,2.571,0,0,0,243.014,81l1.023.976a3.4,3.4,0,0,1-1.355,1.176,4.24,4.24,0,0,1-1.9.418m-.227-7.242a1.6,1.6,0,0,0-1.262.547,2.844,2.844,0,0,0-.613,1.523h3.617v-.14a2.313,2.313,0,0,0-.508-1.442,1.588,1.588,0,0,0-1.234-.488"/>
            <path id="Trazado_159220" data-name="Trazado 159220" d="M247.4,74.965l.055.977a3.04,3.04,0,0,1,2.461-1.133q2.64,0,2.687,3.023v5.586h-1.9V77.942a1.746,1.746,0,0,0-.348-1.192,1.46,1.46,0,0,0-1.137-.387,1.83,1.83,0,0,0-1.711,1.04v6.015h-1.9V74.965Z"/>
            <path id="Trazado_159221" data-name="Trazado 159221" d="M256.92,72.911v2.055h1.492v1.406H256.92v4.719a1.036,1.036,0,0,0,.191.7A.89.89,0,0,0,257.8,82a2.928,2.928,0,0,0,.664-.078v1.468a4.672,4.672,0,0,1-1.25.18q-2.187,0-2.187-2.414V76.372h-1.391V74.966h1.391V72.911Z"/>
            <path id="Trazado_159222" data-name="Trazado 159222" d="M259.272,79.114a4.985,4.985,0,0,1,.492-2.238,3.6,3.6,0,0,1,1.383-1.532,3.9,3.9,0,0,1,2.046-.535,3.691,3.691,0,0,1,2.778,1.1,4.331,4.331,0,0,1,1.152,2.922l.008.445a5.015,5.015,0,0,1-.481,2.234,3.546,3.546,0,0,1-1.375,1.524,3.927,3.927,0,0,1-2.066.539,3.665,3.665,0,0,1-2.863-1.192,4.559,4.559,0,0,1-1.074-3.175Zm1.9.164a3.408,3.408,0,0,0,.539,2.043,1.752,1.752,0,0,0,1.5.738,1.732,1.732,0,0,0,1.5-.75,3.758,3.758,0,0,0,.535-2.195,3.363,3.363,0,0,0-.55-2.031,1.762,1.762,0,0,0-1.5-.75,1.741,1.741,0,0,0-1.476.738,3.7,3.7,0,0,0-.547,2.207"/>
            <path id="Trazado_159223" data-name="Trazado 159223" d="M273.475,81.122a.862.862,0,0,0-.418-.773,4.456,4.456,0,0,0-1.387-.469,7.1,7.1,0,0,1-1.617-.516,2.158,2.158,0,0,1-1.422-1.992,2.252,2.252,0,0,1,.922-1.828,3.647,3.647,0,0,1,2.344-.734,3.79,3.79,0,0,1,2.449.75,2.381,2.381,0,0,1,.934,1.945h-1.9a1.169,1.169,0,0,0-.406-.91,1.553,1.553,0,0,0-1.078-.364,1.688,1.688,0,0,0-1.02.289.917.917,0,0,0-.394.774.77.77,0,0,0,.367.68,5.029,5.029,0,0,0,1.484.488,7.012,7.012,0,0,1,1.754.586,2.485,2.485,0,0,1,.946.816,2.082,2.082,0,0,1,.308,1.156,2.2,2.2,0,0,1-.945,1.848,4.027,4.027,0,0,1-2.477.707,4.372,4.372,0,0,1-1.851-.375,3.049,3.049,0,0,1-1.266-1.031,2.441,2.441,0,0,1-.453-1.414h1.844a1.335,1.335,0,0,0,.508,1.035,1.972,1.972,0,0,0,1.242.363,1.91,1.91,0,0,0,1.14-.285.879.879,0,0,0,.391-.746"/>
            <path id="Trazado_159224" data-name="Trazado 159224" d="M171.608,95.278a5.029,5.029,0,0,1-.891,3.129,3.094,3.094,0,0,1-4.617.254v4.008h-1.9v-11.7h1.75l.078.859a2.791,2.791,0,0,1,2.274-1.016,2.883,2.883,0,0,1,2.426,1.153,5.167,5.167,0,0,1,.879,3.2Zm-1.891-.164a3.526,3.526,0,0,0-.5-2.008,1.639,1.639,0,0,0-1.441-.742,1.746,1.746,0,0,0-1.672.961v3.75a1.763,1.763,0,0,0,1.687.984,1.635,1.635,0,0,0,1.418-.73,3.879,3.879,0,0,0,.512-2.215"/>
            <path id="Trazado_159225" data-name="Trazado 159225" d="M177.639,92.7a4.772,4.772,0,0,0-.773-.062,1.741,1.741,0,0,0-1.758,1v5.782h-1.9V90.966h1.813l.047.945a2.139,2.139,0,0,1,1.906-1.1,1.778,1.778,0,0,1,.672.11Z"/>
            <path id="Trazado_159226" data-name="Trazado 159226" d="M178.842,88.77a1.015,1.015,0,0,1,.277-.727,1.05,1.05,0,0,1,.793-.289,1.063,1.063,0,0,1,.8.289,1,1,0,0,1,.281.727.974.974,0,0,1-.281.715,1.069,1.069,0,0,1-.8.285,1.056,1.056,0,0,1-.793-.285.987.987,0,0,1-.277-.715m2.016,10.648h-1.9V90.965h1.9Z"/>
            <path id="Trazado_159227" data-name="Trazado 159227" d="M182.569,95.114a4.985,4.985,0,0,1,.492-2.238,3.6,3.6,0,0,1,1.383-1.532,3.9,3.9,0,0,1,2.046-.535,3.691,3.691,0,0,1,2.778,1.1,4.331,4.331,0,0,1,1.152,2.922l.008.445a5.015,5.015,0,0,1-.481,2.234,3.546,3.546,0,0,1-1.375,1.524,3.927,3.927,0,0,1-2.066.539,3.665,3.665,0,0,1-2.863-1.192,4.559,4.559,0,0,1-1.074-3.175Zm1.9.164a3.408,3.408,0,0,0,.539,2.043,1.752,1.752,0,0,0,1.5.738,1.732,1.732,0,0,0,1.5-.75,3.758,3.758,0,0,0,.535-2.195,3.363,3.363,0,0,0-.55-2.031,1.762,1.762,0,0,0-1.5-.75,1.741,1.741,0,0,0-1.476.738,3.7,3.7,0,0,0-.547,2.207"/>
            <path id="Trazado_159228" data-name="Trazado 159228" d="M196.459,92.7a4.772,4.772,0,0,0-.773-.062,1.741,1.741,0,0,0-1.758,1v5.782h-1.9V90.966h1.813l.047.945a2.139,2.139,0,0,1,1.906-1.1,1.778,1.778,0,0,1,.672.11Z"/>
            <path id="Trazado_159229" data-name="Trazado 159229" d="M197.662,88.77a1.012,1.012,0,0,1,.278-.727,1.049,1.049,0,0,1,.793-.289,1.062,1.062,0,0,1,.8.289,1,1,0,0,1,.282.727.975.975,0,0,1-.282.715,1.068,1.068,0,0,1-.8.285,1.054,1.054,0,0,1-.793-.285.984.984,0,0,1-.278-.715m2.016,10.648h-1.9V90.965h1.9Z"/>
            <path id="Trazado_159230" data-name="Trazado 159230" d="M203.772,97.9h4.5v1.516h-6.859V98.176L205.7,92.5h-4.211V90.966h6.617v1.2Z"/>
            <path id="Trazado_159231" data-name="Trazado 159231" d="M214.842,99.418a2.949,2.949,0,0,1-.219-.789,2.952,2.952,0,0,1-2.219.945,2.984,2.984,0,0,1-2.078-.726,2.326,2.326,0,0,1-.8-1.8,2.4,2.4,0,0,1,1-2.074,4.86,4.86,0,0,1,2.871-.723h1.164V93.7a1.475,1.475,0,0,0-.368-1.05,1.456,1.456,0,0,0-1.117-.4,1.678,1.678,0,0,0-1.062.324,1,1,0,0,0-.414.825h-1.9a2.111,2.111,0,0,1,.461-1.3,3.075,3.075,0,0,1,1.254-.949,4.4,4.4,0,0,1,1.77-.344,3.55,3.55,0,0,1,2.367.746,2.659,2.659,0,0,1,.906,2.1v3.812a4.326,4.326,0,0,0,.32,1.82v.133Zm-2.086-1.367a2.165,2.165,0,0,0,1.059-.273,1.822,1.822,0,0,0,.746-.735V95.449h-1.024a2.8,2.8,0,0,0-1.586.368,1.19,1.19,0,0,0-.531,1.039,1.109,1.109,0,0,0,.363.871,1.405,1.405,0,0,0,.973.324"/>
            <path id="Trazado_159232" data-name="Trazado 159232" d="M218.092,95.13A5.021,5.021,0,0,1,219,91.993a2.9,2.9,0,0,1,2.429-1.183,2.757,2.757,0,0,1,2.172.937V87.419h1.9v12h-1.719l-.094-.875a2.8,2.8,0,0,1-2.273,1.031,2.887,2.887,0,0,1-2.4-1.195,5.2,5.2,0,0,1-.918-3.25m1.9.164a3.519,3.519,0,0,0,.5,2.012,1.609,1.609,0,0,0,1.41.722,1.789,1.789,0,0,0,1.7-1.039V93.38a1.764,1.764,0,0,0-1.687-1.016,1.622,1.622,0,0,0-1.422.731,3.921,3.921,0,0,0-.5,2.2"/>
            <path id="Trazado_159233" data-name="Trazado 159233" d="M227.124,95.114a4.985,4.985,0,0,1,.492-2.238A3.6,3.6,0,0,1,229,91.344a3.9,3.9,0,0,1,2.046-.535,3.691,3.691,0,0,1,2.778,1.1,4.331,4.331,0,0,1,1.152,2.922l.008.445a5.015,5.015,0,0,1-.481,2.234,3.546,3.546,0,0,1-1.375,1.524,3.927,3.927,0,0,1-2.066.539,3.665,3.665,0,0,1-2.863-1.192,4.559,4.559,0,0,1-1.074-3.175Zm1.9.164a3.408,3.408,0,0,0,.539,2.043,1.752,1.752,0,0,0,1.5.738,1.732,1.732,0,0,0,1.5-.75,3.758,3.758,0,0,0,.535-2.195,3.363,3.363,0,0,0-.55-2.031,1.762,1.762,0,0,0-1.5-.75,1.741,1.741,0,0,0-1.476.738,3.7,3.7,0,0,0-.547,2.207"/>
            <path id="Trazado_159234" data-name="Trazado 159234" d="M241.326,97.122a.862.862,0,0,0-.418-.773,4.456,4.456,0,0,0-1.387-.469,7.1,7.1,0,0,1-1.617-.516,2.158,2.158,0,0,1-1.422-1.992,2.252,2.252,0,0,1,.922-1.828,3.647,3.647,0,0,1,2.344-.734,3.79,3.79,0,0,1,2.449.75,2.381,2.381,0,0,1,.934,1.945h-1.9a1.169,1.169,0,0,0-.406-.91,1.553,1.553,0,0,0-1.078-.364,1.688,1.688,0,0,0-1.02.289.917.917,0,0,0-.394.774.77.77,0,0,0,.367.68,5.029,5.029,0,0,0,1.484.488,7.011,7.011,0,0,1,1.754.586,2.485,2.485,0,0,1,.946.816,2.082,2.082,0,0,1,.308,1.156,2.2,2.2,0,0,1-.945,1.848,4.027,4.027,0,0,1-2.477.707,4.372,4.372,0,0,1-1.851-.375,3.049,3.049,0,0,1-1.266-1.031,2.441,2.441,0,0,1-.453-1.414h1.844a1.335,1.335,0,0,0,.508,1.035,1.972,1.972,0,0,0,1.242.363,1.91,1.91,0,0,0,1.14-.285.879.879,0,0,0,.391-.746"/>
            <rect id="Rectángulo_11907" data-name="Rectángulo 11907" width="2.137" height="12.343" transform="translate(350.268 71.473)"/>
            <path id="Trazado_159235" data-name="Trazado 159235" d="M357.424,72.414v2.229h1.619V76.17h-1.619v5.12a1.126,1.126,0,0,0,.208.759.965.965,0,0,0,.741.233,3.146,3.146,0,0,0,.721-.085v1.594a5.072,5.072,0,0,1-1.357.195q-2.373,0-2.373-2.62v-5.2h-1.509V74.643h1.509V72.414Z"/>
            <path id="Trazado_159236" data-name="Trazado 159236" d="M364.654,83.986a4.264,4.264,0,0,1-3.175-1.233,4.48,4.48,0,0,1-1.216-3.285v-.255a5.5,5.5,0,0,1,.53-2.454,4.032,4.032,0,0,1,1.488-1.683,3.936,3.936,0,0,1,2.136-.6,3.6,3.6,0,0,1,2.9,1.195,5.054,5.054,0,0,1,1.022,3.382v.831H362.34a2.755,2.755,0,0,0,.758,1.8,2.281,2.281,0,0,0,1.675.662,2.791,2.791,0,0,0,2.306-1.145l1.11,1.06a3.694,3.694,0,0,1-1.47,1.275,4.6,4.6,0,0,1-2.065.454m-.245-7.859a1.733,1.733,0,0,0-1.369.594,3.068,3.068,0,0,0-.666,1.653H366.3v-.152a2.507,2.507,0,0,0-.551-1.565,1.722,1.722,0,0,0-1.339-.53"/>
            <path id="Trazado_159237" data-name="Trazado 159237" d="M374.736,76.525a5.143,5.143,0,0,0-.841-.067,1.888,1.888,0,0,0-1.907,1.085v6.273h-2.061V74.643h1.968l.052,1.027a2.317,2.317,0,0,1,2.067-1.2,1.931,1.931,0,0,1,.729.118Z"/>
            <path id="Trazado_159238" data-name="Trazado 159238" d="M381.263,83.816a3.151,3.151,0,0,1-.238-.856,3.465,3.465,0,0,1-4.663.237,2.521,2.521,0,0,1-.873-1.949A2.606,2.606,0,0,1,376.579,79a5.284,5.284,0,0,1,3.115-.784h1.264v-.6a1.612,1.612,0,0,0-.4-1.14,1.584,1.584,0,0,0-1.213-.428,1.811,1.811,0,0,0-1.153.352,1.089,1.089,0,0,0-.45.894h-2.059a2.29,2.29,0,0,1,.5-1.412,3.33,3.33,0,0,1,1.36-1.029,4.777,4.777,0,0,1,1.921-.373,3.847,3.847,0,0,1,2.568.809,2.885,2.885,0,0,1,.984,2.276V81.7a4.7,4.7,0,0,0,.347,1.975v.144ZM379,82.333a2.336,2.336,0,0,0,1.148-.3,1.984,1.984,0,0,0,.811-.8V79.51h-1.111a3.044,3.044,0,0,0-1.721.4,1.29,1.29,0,0,0-.576,1.128,1.205,1.205,0,0,0,.393.945,1.529,1.529,0,0,0,1.056.352"/>
            <path id="Trazado_159239" data-name="Trazado 159239" d="M388.943,82.341a1.863,1.863,0,0,0,1.28-.45,1.531,1.531,0,0,0,.543-1.111h1.941a3.036,3.036,0,0,1-.535,1.6,3.507,3.507,0,0,1-1.356,1.174,4.047,4.047,0,0,1-1.848.433,3.908,3.908,0,0,1-3.051-1.247,4.942,4.942,0,0,1-1.128-3.442v-.212a4.858,4.858,0,0,1,1.119-3.352,3.873,3.873,0,0,1,3.052-1.259,3.769,3.769,0,0,1,2.666.953,3.42,3.42,0,0,1,1.081,2.5h-1.941a1.889,1.889,0,0,0-.539-1.3,1.73,1.73,0,0,0-1.284-.509,1.811,1.811,0,0,0-1.543.726,3.694,3.694,0,0,0-.552,2.2v.331a3.77,3.77,0,0,0,.539,2.226,1.813,1.813,0,0,0,1.556.733"/>
            <path id="Trazado_159240" data-name="Trazado 159240" d="M394.267,72.261a1.092,1.092,0,0,1,.3-.788,1.133,1.133,0,0,1,.86-.314,1.148,1.148,0,0,1,.865.314,1.086,1.086,0,0,1,.3.788,1.062,1.062,0,0,1-.3.776,1.161,1.161,0,0,1-.865.309,1.146,1.146,0,0,1-.86-.309,1.066,1.066,0,0,1-.3-.776m2.187,11.555h-2.061V74.643h2.061Z"/>
            <path id="Trazado_159241" data-name="Trazado 159241" d="M398.311,79.146a5.4,5.4,0,0,1,.534-2.429,3.887,3.887,0,0,1,1.5-1.662,4.23,4.23,0,0,1,2.222-.58,4,4,0,0,1,3.013,1.195,4.7,4.7,0,0,1,1.25,3.17l.009.483a5.464,5.464,0,0,1-.521,2.425,3.854,3.854,0,0,1-1.493,1.653,4.257,4.257,0,0,1-2.242.585,3.979,3.979,0,0,1-3.107-1.293,4.951,4.951,0,0,1-1.165-3.446Zm2.059.177a3.7,3.7,0,0,0,.585,2.217,1.9,1.9,0,0,0,1.628.8,1.878,1.878,0,0,0,1.623-.815,4.072,4.072,0,0,0,.581-2.381,3.653,3.653,0,0,0-.6-2.205,2.014,2.014,0,0,0-3.226-.012,4.007,4.007,0,0,0-.594,2.394m2.764-8.528h2.349l-2.349,2.568-1.653,0Z"/>
            <path id="Trazado_159242" data-name="Trazado 159242" d="M410.492,74.643l.06,1.06a3.3,3.3,0,0,1,2.67-1.229q2.867,0,2.916,3.28v6.062h-2.06V77.873a1.887,1.887,0,0,0-.377-1.293,1.585,1.585,0,0,0-1.233-.419,1.985,1.985,0,0,0-1.857,1.128v6.527h-2.06V74.643Z"/>
            <path id="Trazado_159243" data-name="Trazado 159243" d="M367.928,22.67l8.966-12.3L365.374.41A73.35,73.35,0,0,0,301.789,67.2c3.913-4.87,11.286-12.036,11.286-12.036L324.409,66.3a50.956,50.956,0,0,1,43.52-43.627" transform="translate(6.771 6.736)" fill="#d44f4a"/>
            <path id="Trazado_159244" data-name="Trazado 159244" d="M324.46,86.636l-12.3-8.966L302.2,89.191a73.35,73.35,0,0,0,66.792,63.585c-4.869-3.913-12.036-11.286-12.036-11.286l11.133-11.334a50.955,50.955,0,0,1-43.627-43.52" transform="translate(6.736 0.186)" fill="#d44f4a"/>
            <path id="Trazado_159245" data-name="Trazado 159245" d="M388.425,130.876l-8.966,12.3,11.521,9.959a73.35,73.35,0,0,0,63.585-66.792c-3.913,4.87-11.286,12.037-11.286,12.037L431.945,87.249a50.955,50.955,0,0,1-43.52,43.627" transform="translate(0.186 -0.549)" fill="#d44f4a"/>
            <path id="Trazado_159246" data-name="Trazado 159246" d="M432.665,66.139l12.3,8.966,9.959-11.521A73.35,73.35,0,0,0,388.134,0c4.87,3.913,12.037,11.286,12.037,11.286L389.038,22.62a50.955,50.955,0,0,1,43.627,43.52" transform="translate(-0.549 6.771)" fill="#d44f4a"/>
            <path id="Trazado_159247" data-name="Trazado 159247" d="M502.707,70.974,492.338,56.026a9.214,9.214,0,0,0-7.563-4h-9.268a10.552,10.552,0,0,1,1.2,1.528l11.008,16.976a11.677,11.677,0,0,1,0,12.538l-11.008,16.975a10.771,10.771,0,0,1-.672.922h8.736a9.213,9.213,0,0,0,7.563-4l10.369-14.948a9.722,9.722,0,0,0,0-11.04" fill="#e0bfb9"/>
          </g>
        </g>
        <g id="puesta-en-marcha" transform="translate(1134 -6846.69)">
          <g id="Grupo_71525" data-name="Grupo 71525" transform="translate(0 53.472)">
            <g id="Grupo_71524" data-name="Grupo 71524" transform="translate(0)">
              <circle id="Elipse_5353" data-name="Elipse 5353" cx="1.07" cy="1.07" r="1.07" fill="#fff"/>
            </g>
          </g>
          <g id="Grupo_71527" data-name="Grupo 71527" transform="translate(27.321 26.348)">
            <g id="Grupo_71526" data-name="Grupo 71526">
              <circle id="Elipse_5354" data-name="Elipse 5354" cx="1.067" cy="1.067" r="1.067" fill="#fff"/>
            </g>
          </g>
          <g id="Grupo_71529" data-name="Grupo 71529" transform="translate(34.613 12.552)">
            <g id="Grupo_71528" data-name="Grupo 71528">
              <path id="Trazado_159192" data-name="Trazado 159192" d="M333.305,106.847a4.541,4.541,0,1,0,0,6.425A4.513,4.513,0,0,0,333.305,106.847Zm-1.509,4.916a2.409,2.409,0,1,1,0-3.406A2.411,2.411,0,0,1,331.8,111.762Z" transform="translate(-325.551 -105.516)" fill="#fff"/>
            </g>
          </g>
          <g id="Grupo_71531" data-name="Grupo 71531" transform="translate(3.44 41.801)">
            <g id="Grupo_71530" data-name="Grupo 71530">
              <path id="Trazado_159193" data-name="Trazado 159193" d="M42.244,383.894a1.067,1.067,0,0,0-1.431.48l-1.271,2.553a3.523,3.523,0,0,1-2.9,1.937l-1.479.1a.633.633,0,0,1-.674-.674l.1-1.479a3.523,3.523,0,0,1,1.937-2.9l2.553-1.271a1.067,1.067,0,0,0-.952-1.911L35.573,382a5.666,5.666,0,0,0-3.115,4.667l-.1,1.479a2.767,2.767,0,0,0,2.761,2.956c.063,0,.126,0,.189-.007l1.479-.1a5.665,5.665,0,0,0,4.667-3.115l1.271-2.553A1.067,1.067,0,0,0,42.244,383.894Z" transform="translate(-32.35 -380.616)" fill="#fff"/>
            </g>
          </g>
          <g id="Grupo_71533" data-name="Grupo 71533" transform="translate(0.002 1.492)">
            <g id="Grupo_71532" data-name="Grupo 71532" transform="translate(0 0)">
              <path id="Trazado_159194" data-name="Trazado 159194" d="M53.716,2.2A2.472,2.472,0,0,0,51.824,1.5l-.994.063a32.206,32.206,0,0,0-22.882,11.8l-2.339,2.88-6.122-.18h-.031A18.059,18.059,0,0,0,6.6,21.387L.331,27.658a1.067,1.067,0,0,0,.7,1.821l13.274.682-.541.666a1.067,1.067,0,0,0-.109,1.183q.312.573.653,1.129l-3.148,3.737a1.068,1.068,0,0,0-.149,1.144,13.9,13.9,0,0,0,6.673,6.673,1.067,1.067,0,0,0,1.129-.136c.678-.55,1.46-1.2,2.216-1.834.539-.45,1.09-.91,1.606-1.334q.461.278.935.536a1.067,1.067,0,0,0,1.164-.094l.728-.565.685,13.33a1.067,1.067,0,0,0,1.821.7l6.271-6.271a18.059,18.059,0,0,0,5.324-12.854V30.325l2.474-1.92A32.079,32.079,0,0,0,54.424,4.6l.025-.519A2.473,2.473,0,0,0,53.716,2.2ZM3.538,27.47,8.111,22.9A15.939,15.939,0,0,1,19.44,18.2l4.475.131-7.943,9.779ZM19.661,41.085c-.557.465-1.128.942-1.659,1.378a11.726,11.726,0,0,1-4.756-4.751l2.3-2.736a24.747,24.747,0,0,0,2.284,2.65l0,0h0a24.748,24.748,0,0,0,2.939,2.526C20.41,40.46,20.032,40.775,19.661,41.085Zm17.766-4.912a15.938,15.938,0,0,1-4.7,11.344L28.156,52.09l-.638-12.417,9.91-7.69v4.19ZM52.292,4.5A29.946,29.946,0,0,1,40.728,26.719L23.986,39.71a22.6,22.6,0,0,1-3.867-2.854l5.644-5.644a1.067,1.067,0,0,0-1.51-1.51l-5.639,5.639a22.6,22.6,0,0,1-2.737-3.732l13.727-16.9A30.065,30.065,0,0,1,50.966,3.692l.994-.063a.337.337,0,0,1,.358.352Z" transform="translate(-0.018 -1.492)" fill="#fff"/>
            </g>
          </g>
        </g>
        <g id="Grupo_71537" data-name="Grupo 71537" transform="translate(-19.281)">
          <path id="Trazado_159320" data-name="Trazado 159320" d="M749.142,109.429v4.377h-2.051V102h4.516a4.565,4.565,0,0,1,3.141,1.03,3.466,3.466,0,0,1,1.163,2.727,3.354,3.354,0,0,1-1.138,2.7,4.785,4.785,0,0,1-3.189.966Zm0-1.654h2.464a2.425,2.425,0,0,0,1.67-.515,1.893,1.893,0,0,0,.576-1.488,2.04,2.04,0,0,0-.583-1.527,2.25,2.25,0,0,0-1.605-.588h-2.521Z" transform="translate(367.19 -6888.847)" fill="#fff"/>
          <path id="Trazado_159321" data-name="Trazado 159321" d="M762.45,112.838a3.057,3.057,0,0,1-2.464,1.021,2.724,2.724,0,0,1-2.16-.834,3.548,3.548,0,0,1-.734-2.416v-5.683h1.969v5.658q0,1.67,1.386,1.671a1.949,1.949,0,0,0,1.938-1.03v-6.3h1.969V113.7H762.5Z" transform="translate(367.566 -6888.736)" fill="#fff"/>
          <path id="Trazado_159322" data-name="Trazado 159322" d="M769.9,113.865a4.073,4.073,0,0,1-3.036-1.18,4.277,4.277,0,0,1-1.163-3.141V109.3a5.268,5.268,0,0,1,.507-2.347,3.849,3.849,0,0,1,1.422-1.609,3.769,3.769,0,0,1,2.043-.575,3.444,3.444,0,0,1,2.768,1.142,4.831,4.831,0,0,1,.976,3.234v.795h-5.73a2.63,2.63,0,0,0,.725,1.718,2.18,2.18,0,0,0,1.6.633,2.668,2.668,0,0,0,2.2-1.095l1.061,1.013a3.53,3.53,0,0,1-1.406,1.22,4.4,4.4,0,0,1-1.974.434m-.235-7.514a1.662,1.662,0,0,0-1.31.568,2.949,2.949,0,0,0-.636,1.58h3.753v-.145a2.4,2.4,0,0,0-.527-1.5,1.647,1.647,0,0,0-1.28-.506" transform="translate(367.89 -6888.742)" fill="#fff"/>
          <path id="Trazado_159323" data-name="Trazado 159323" d="M779.542,111.319a.894.894,0,0,0-.434-.8,4.624,4.624,0,0,0-1.439-.487,7.365,7.365,0,0,1-1.678-.535,2.239,2.239,0,0,1-1.476-2.067,2.337,2.337,0,0,1,.957-1.9,3.784,3.784,0,0,1,2.432-.762,3.932,3.932,0,0,1,2.541.778,2.47,2.47,0,0,1,.969,2.018h-1.971a1.213,1.213,0,0,0-.421-.944,1.612,1.612,0,0,0-1.119-.378,1.751,1.751,0,0,0-1.058.3.949.949,0,0,0-.409.8.8.8,0,0,0,.381.706,5.251,5.251,0,0,0,1.54.506,7.277,7.277,0,0,1,1.82.608,2.579,2.579,0,0,1,.982.847,2.158,2.158,0,0,1,.32,1.2,2.285,2.285,0,0,1-.981,1.918,4.179,4.179,0,0,1-2.57.734,4.537,4.537,0,0,1-1.921-.389,3.164,3.164,0,0,1-1.314-1.07,2.535,2.535,0,0,1-.47-1.467h1.913a1.386,1.386,0,0,0,.527,1.074,2.046,2.046,0,0,0,1.289.377,1.983,1.983,0,0,0,1.183-.3.914.914,0,0,0,.406-.774" transform="translate(368.21 -6888.742)" fill="#fff"/>
          <path id="Trazado_159324" data-name="Trazado 159324" d="M785.371,102.871V105h1.548v1.459h-1.548v4.9a1.074,1.074,0,0,0,.2.725.923.923,0,0,0,.71.223,3.04,3.04,0,0,0,.689-.081v1.523a4.848,4.848,0,0,1-1.3.187q-2.269,0-2.269-2.5v-4.969h-1.443V105H783.4v-2.132Z" transform="translate(368.501 -6888.814)" fill="#fff"/>
          <path id="Trazado_159325" data-name="Trazado 159325" d="M793.44,113.7a3.06,3.06,0,0,1-.227-.819,3.315,3.315,0,0,1-4.458.227,2.414,2.414,0,0,1-.834-1.865,2.491,2.491,0,0,1,1.042-2.152,5.042,5.042,0,0,1,2.979-.75h1.208v-.576a1.531,1.531,0,0,0-.382-1.089,1.511,1.511,0,0,0-1.159-.41,1.741,1.741,0,0,0-1.1.336,1.042,1.042,0,0,0-.429.856h-1.971a2.189,2.189,0,0,1,.479-1.35,3.191,3.191,0,0,1,1.3-.985,4.57,4.57,0,0,1,1.836-.357,3.684,3.684,0,0,1,2.456.774,2.757,2.757,0,0,1,.94,2.177v3.955a4.489,4.489,0,0,0,.332,1.888v.138Zm-2.164-1.418a2.246,2.246,0,0,0,1.1-.283,1.9,1.9,0,0,0,.774-.763v-1.654h-1.062a2.9,2.9,0,0,0-1.646.382,1.235,1.235,0,0,0-.551,1.078,1.152,1.152,0,0,0,.377.9,1.463,1.463,0,0,0,1.01.336" transform="translate(368.725 -6888.742)" fill="#fff"/>
          <path id="Trazado_159326" data-name="Trazado 159326" d="M804.705,113.865a4.073,4.073,0,0,1-3.036-1.18,4.277,4.277,0,0,1-1.163-3.141V109.3a5.271,5.271,0,0,1,.506-2.347,3.85,3.85,0,0,1,1.422-1.609,3.769,3.769,0,0,1,2.043-.575,3.444,3.444,0,0,1,2.768,1.142,4.831,4.831,0,0,1,.976,3.234v.795h-5.731a2.63,2.63,0,0,0,.725,1.718,2.18,2.18,0,0,0,1.6.633,2.668,2.668,0,0,0,2.2-1.095l1.062,1.013a3.53,3.53,0,0,1-1.406,1.22,4.4,4.4,0,0,1-1.973.434m-.236-7.514a1.662,1.662,0,0,0-1.309.568,2.948,2.948,0,0,0-.636,1.58h3.753v-.145a2.4,2.4,0,0,0-.527-1.5,1.647,1.647,0,0,0-1.28-.506" transform="translate(369.198 -6888.742)" fill="#fff"/>
          <path id="Trazado_159327" data-name="Trazado 159327" d="M811.245,104.932l.057,1.014a3.154,3.154,0,0,1,2.554-1.176q2.739,0,2.788,3.137v5.8h-1.969v-5.682a1.812,1.812,0,0,0-.361-1.237,1.515,1.515,0,0,0-1.18-.4,1.9,1.9,0,0,0-1.775,1.079V113.7h-1.969v-8.771Z" transform="translate(369.532 -6888.742)" fill="#fff"/>
          <path id="Trazado_159328" data-name="Trazado 159328" d="M824.151,104.932l.057.916a3.153,3.153,0,0,1,2.529-1.078,2.423,2.423,0,0,1,2.407,1.346,3.112,3.112,0,0,1,2.692-1.346,2.736,2.736,0,0,1,2.16.8,3.537,3.537,0,0,1,.726,2.367V113.7h-1.97V108a1.743,1.743,0,0,0-.365-1.224,1.6,1.6,0,0,0-1.208-.389,1.643,1.643,0,0,0-1.1.361,1.9,1.9,0,0,0-.6.944l.007,6.015h-1.969v-5.771a1.405,1.405,0,0,0-1.58-1.549,1.735,1.735,0,0,0-1.679.965V113.7h-1.969v-8.771Z" transform="translate(370.017 -6888.742)" fill="#fff"/>
          <path id="Trazado_159329" data-name="Trazado 159329" d="M841.471,113.7a3.058,3.058,0,0,1-.227-.819,3.315,3.315,0,0,1-4.459.227,2.413,2.413,0,0,1-.834-1.865,2.491,2.491,0,0,1,1.042-2.152,5.041,5.041,0,0,1,2.979-.75h1.208v-.576a1.53,1.53,0,0,0-.382-1.089,1.51,1.51,0,0,0-1.159-.41,1.74,1.74,0,0,0-1.1.336,1.042,1.042,0,0,0-.43.856h-1.97a2.189,2.189,0,0,1,.478-1.35,3.191,3.191,0,0,1,1.3-.985,4.57,4.57,0,0,1,1.837-.357,3.684,3.684,0,0,1,2.456.774,2.758,2.758,0,0,1,.94,2.177v3.955a4.489,4.489,0,0,0,.332,1.888v.138Zm-2.164-1.418a2.246,2.246,0,0,0,1.1-.283,1.9,1.9,0,0,0,.774-.763v-1.654h-1.063a2.9,2.9,0,0,0-1.646.382,1.234,1.234,0,0,0-.551,1.078,1.152,1.152,0,0,0,.376.9,1.463,1.463,0,0,0,1.01.336" transform="translate(370.53 -6888.742)" fill="#fff"/>
          <path id="Trazado_159330" data-name="Trazado 159330" d="M849.469,106.731a4.838,4.838,0,0,0-.8-.064,1.806,1.806,0,0,0-1.824,1.037v6h-1.97v-8.771h1.881l.049.981a2.219,2.219,0,0,1,1.978-1.143,1.845,1.845,0,0,1,.7.114Z" transform="translate(370.865 -6888.743)" fill="#fff"/>
          <path id="Trazado_159331" data-name="Trazado 159331" d="M853.97,112.293a1.783,1.783,0,0,0,1.224-.43,1.47,1.47,0,0,0,.519-1.061h1.856a2.893,2.893,0,0,1-.511,1.527,3.347,3.347,0,0,1-1.3,1.123,3.865,3.865,0,0,1-1.768.414,3.737,3.737,0,0,1-2.918-1.192A4.729,4.729,0,0,1,850,109.382v-.2a4.653,4.653,0,0,1,1.07-3.206,3.708,3.708,0,0,1,2.919-1.2,3.6,3.6,0,0,1,2.549.912,3.269,3.269,0,0,1,1.034,2.4h-1.856a1.81,1.81,0,0,0-.515-1.241,1.66,1.66,0,0,0-1.229-.487,1.735,1.735,0,0,0-1.475.693,3.54,3.54,0,0,0-.527,2.1v.315a3.592,3.592,0,0,0,.515,2.128,1.732,1.732,0,0,0,1.488.7" transform="translate(371.058 -6888.742)" fill="#fff"/>
          <path id="Trazado_159332" data-name="Trazado 159332" d="M860.671,106.016a3.082,3.082,0,0,1,2.44-1.119q2.8,0,2.845,3.2v5.731h-1.97v-5.658a1.73,1.73,0,0,0-.393-1.285,1.609,1.609,0,0,0-1.155-.377,1.9,1.9,0,0,0-1.767,1.053v6.266H858.7V101.379h1.969Z" transform="translate(371.385 -6888.87)" fill="#fff"/>
          <path id="Trazado_159333" data-name="Trazado 159333" d="M872.862,113.7a3.06,3.06,0,0,1-.227-.819,3.315,3.315,0,0,1-4.458.227,2.413,2.413,0,0,1-.834-1.865,2.491,2.491,0,0,1,1.042-2.152,5.042,5.042,0,0,1,2.979-.75h1.208v-.576a1.53,1.53,0,0,0-.382-1.089,1.51,1.51,0,0,0-1.159-.41,1.741,1.741,0,0,0-1.1.336,1.042,1.042,0,0,0-.43.856h-1.97a2.189,2.189,0,0,1,.478-1.35,3.192,3.192,0,0,1,1.3-.985,4.569,4.569,0,0,1,1.836-.357,3.683,3.683,0,0,1,2.456.774,2.758,2.758,0,0,1,.94,2.177v3.955a4.488,4.488,0,0,0,.332,1.888v.138Zm-2.164-1.418a2.246,2.246,0,0,0,1.1-.283,1.9,1.9,0,0,0,.774-.763v-1.654h-1.062a2.9,2.9,0,0,0-1.646.382,1.234,1.234,0,0,0-.551,1.078,1.152,1.152,0,0,0,.377.9,1.463,1.463,0,0,0,1.01.336" transform="translate(371.71 -6888.742)" fill="#fff"/>
        </g>
      </g>
    </g>
  </g>
</svg>
