<svg id="Grupo_71283" data-name="Grupo 71283" xmlns="http://www.w3.org/2000/svg" xmlns:xlink="http://www.w3.org/1999/xlink" width="400" height="127.278" viewBox="0 0 400 127.278">
  <defs>
    <clipPath id="clip-path">
      <rect id="Rectángulo_11761" data-name="Rectángulo 11761" width="400" height="127.278" fill="none"/>
    </clipPath>
    <clipPath id="clip-path-3">
      <rect id="Rectángulo_11754" data-name="Rectángulo 11754" width="118.641" height="11.736" fill="none"/>
    </clipPath>
    <clipPath id="clip-path-4">
      <rect id="Rectángulo_11759" data-name="Rectángulo 11759" width="400" height="5.535" fill="#afafaf"/>
    </clipPath>
  </defs>
  <g id="Grupo_71282" data-name="Grupo 71282" clip-path="url(#clip-path)">
    <g id="Grupo_71281" data-name="Grupo 71281">
      <g id="Grupo_71280" data-name="Grupo 71280" clip-path="url(#clip-path)">
        <path id="Trazado_158409" data-name="Trazado 158409" d="M18.67,64.623c-13.531,0-13.531,66.033,0,66.033H166.4v-7.32h-5.99V71.943h5.99v-7.32Z" transform="translate(-1.175 -8.914)" fill="#d44f4a"/>
        <path id="Trazado_158410" data-name="Trazado 158410" d="M131.12,64.623h-6.987c-13.531,0-13.531,66.033,0,66.033h6.987c-13.531,0-13.531-66.033,0-66.033" transform="translate(-15.722 -8.914)" fill="#ca9f4b"/>
        <path id="Trazado_158411" data-name="Trazado 158411" d="M37.6,64.623H30.617c-13.531,0-13.531,66.033,0,66.033H37.6c-13.531,0-13.531-66.033,0-66.033" transform="translate(-2.823 -8.914)" fill="#ca9f4b"/>
        <g id="Grupo_71276" data-name="Grupo 71276" transform="translate(9.302 110.006)" opacity="0.4" style="mix-blend-mode: multiply;isolation: isolate">
          <g id="Grupo_71275" data-name="Grupo 71275">
            <g id="Grupo_71274" data-name="Grupo 71274" clip-path="url(#clip-path-3)">
              <path id="Trazado_158412" data-name="Trazado 158412" d="M10.79,127.607c1.682,6.966,4.335,11.736,7.969,11.736H129.431V127.607Z" transform="translate(-10.79 -127.607)" fill="#092039"/>
            </g>
          </g>
        </g>
        <path id="Trazado_158413" data-name="Trazado 158413" d="M146.615,64.623c-13.531,0-13.531,66.033,0,66.033H271.558a2.821,2.821,0,0,0,2.822-2.822v-1.676a2.822,2.822,0,0,0-2.822-2.822h-3.167V71.943h3.167a2.821,2.821,0,0,0,2.822-2.822V67.445a2.821,2.821,0,0,0-2.822-2.822Z" transform="translate(-18.823 -8.914)" fill="#760904"/>
        <path id="Trazado_158414" data-name="Trazado 158414" d="M269.589,73.114h-115.2c-12.319,0-12.319,51.393,0,51.393h115.2Z" transform="translate(-20.021 -10.085)" fill="#bad1c7"/>
        <rect id="Rectángulo_11755" data-name="Rectángulo 11755" width="107.553" height="2.994" transform="translate(142.016 71.91)" fill="#729ba4"/>
        <rect id="Rectángulo_11756" data-name="Rectángulo 11756" width="89.918" height="2.994" transform="translate(159.65 100.857)" fill="#729ba4"/>
        <rect id="Rectángulo_11757" data-name="Rectángulo 11757" width="68.291" height="2.994" transform="translate(181.277 93.218)" fill="#729ba4"/>
        <path id="Trazado_158415" data-name="Trazado 158415" d="M344.308,56.028,183.591,113.037v0h0c-1.787.634-1.936,4.809-.334,9.324s4.35,7.66,6.137,7.027L350.109,72.381Z" transform="translate(-25.123 -7.728)" fill="#683424"/>
        <path id="Trazado_158416" data-name="Trazado 158416" d="M191.707,117.717h0a1.724,1.724,0,0,1,1.045-2.2L327.5,67.5l1.157,3.248L193.91,118.762a1.724,1.724,0,0,1-2.2-1.045" transform="translate(-26.428 -9.31)" fill="#955e37"/>
        <path id="Trazado_158417" data-name="Trazado 158417" d="M368.63,74.172c1.787-.634,1.936-4.809.334-9.323s-4.35-7.661-6.137-7.027l-12.464,4.423c-1.787.634-1.936,4.809-.334,9.324s4.35,7.66,6.137,7.027l12.464-4.424" transform="translate(-48.127 -7.964)" fill="#420010"/>
        <path id="Trazado_158418" data-name="Trazado 158418" d="M399.935,8.052C397.442,1.141,383.145-.032,368,5.43s-25.4,15.493-22.909,22.4l6.739,18.683a6.181,6.181,0,0,0,4.186,2.751c-.458,8.054,2.551,14.87,7.553,20.973l-.7,6.887,6.579,18.24,54.845-19.781-6.577-18.234-5.241-5.705c.457-7.943-2.709-14.584-7.442-20.663a6.815,6.815,0,0,0,1.4-4.915Z" transform="translate(-47.547 -0.275)" fill="#683424"/>
        <path id="Trazado_158419" data-name="Trazado 158419" d="M406.064,34.01a6.818,6.818,0,0,0,1.4-4.915l-.337-.932c-6.325-11.347-54.269,1.785-54.946,19.5l.678,1.877a6.129,6.129,0,0,0,3.892,2.68c.732-14.41,42.361-28.233,49.313-18.213" transform="translate(-48.577 -3.3)" fill="#420010"/>
        <path id="Trazado_158420" data-name="Trazado 158420" d="M396.255,83.769c-15.145,5.463-25.4,15.493-22.909,22.4s16.791,8.084,31.935,2.622,25.4-15.493,22.909-22.4-16.79-8.084-31.935-2.622" transform="translate(-51.445 -11.08)" fill="#420010"/>
        <path id="Trazado_158421" data-name="Trazado 158421" d="M420.821,65.795l-.434-.654a7.4,7.4,0,0,0-1.505-1.473,10.361,10.361,0,0,0-2.865-1.4,19.214,19.214,0,0,0-4.081-.763,42.518,42.518,0,0,0-10.5.682,72.418,72.418,0,0,0-11.753,3.2l-1.485.549-1.422.565c-.953.4-1.909.79-2.835,1.22-1.855.855-3.652,1.755-5.34,2.713a42.723,42.723,0,0,0-8.518,6.177,19.3,19.3,0,0,0-2.654,3.191,10.375,10.375,0,0,0-1.314,2.9,7.346,7.346,0,0,0-.218,2.1c.053.505.081.774.081.774a7.64,7.64,0,0,1-.345-.715,6.646,6.646,0,0,1-.448-2.255,9.766,9.766,0,0,1,.622-3.586,16.39,16.39,0,0,1,2.21-4.149,26.955,26.955,0,0,1,3.617-4.15,39.591,39.591,0,0,1,4.747-3.82,48.027,48.027,0,0,1,5.583-3.293c.984-.5,1.986-.976,3.013-1.41l1.571-.646,1.542-.589a52.55,52.55,0,0,1,12.8-2.9,39.439,39.439,0,0,1,6.091-.09,27.088,27.088,0,0,1,5.433.884,16.387,16.387,0,0,1,4.349,1.782A9.763,9.763,0,0,1,419.534,63a6.669,6.669,0,0,1,1.1,2.026c.142.494.19.765.19.765" transform="translate(-50.37 -7.986)" fill="#955e37"/>
        <path id="Trazado_158422" data-name="Trazado 158422" d="M400.13,7.895,399.7,7.24a7.374,7.374,0,0,0-1.505-1.473,10.325,10.325,0,0,0-2.865-1.4,19.265,19.265,0,0,0-4.081-.764,42.566,42.566,0,0,0-10.5.683,72.442,72.442,0,0,0-11.753,3.2l-1.485.549-1.422.564c-.953.4-1.909.791-2.835,1.221-1.856.855-3.653,1.755-5.341,2.713a42.723,42.723,0,0,0-8.518,6.177,19.3,19.3,0,0,0-2.654,3.191,10.375,10.375,0,0,0-1.314,2.9,7.344,7.344,0,0,0-.218,2.1c.053.505.081.774.081.774a7.934,7.934,0,0,1-.345-.715,6.668,6.668,0,0,1-.448-2.255,9.784,9.784,0,0,1,.622-3.586,16.39,16.39,0,0,1,2.21-4.149,26.954,26.954,0,0,1,3.617-4.15A39.452,39.452,0,0,1,355.69,9a48.018,48.018,0,0,1,5.582-3.293c.984-.5,1.987-.976,3.013-1.41l1.571-.646,1.542-.589a52.56,52.56,0,0,1,12.8-2.9,39.439,39.439,0,0,1,6.091-.09,27.088,27.088,0,0,1,5.433.884,16.36,16.36,0,0,1,4.349,1.782A9.763,9.763,0,0,1,398.843,5.1a6.64,6.64,0,0,1,1.1,2.026c.142.494.19.765.19.765" transform="translate(-47.516 0)" fill="#955e37"/>
        <path id="Trazado_158423" data-name="Trazado 158423" d="M316.708,132.035H422.217v-6.707c0-3.441-2.457-6.638-5.884-6.945-37-3.319-54.909-3.209-93.74,0-3.429.284-5.884,3.5-5.884,6.945Z" transform="translate(-43.684 -15.991)" fill="#683424"/>
        <rect id="Rectángulo_11758" data-name="Rectángulo 11758" width="105.509" height="2.587" transform="translate(273.024 109.253)" fill="#420010"/>
        <path id="Trazado_158424" data-name="Trazado 158424" d="M312.428,139.617H425.206v-6.133a3.75,3.75,0,0,0-3.75-3.75H316.178a3.75,3.75,0,0,0-3.75,3.75Z" transform="translate(-43.094 -17.894)" fill="#683424"/>
        <g id="Grupo_71279" data-name="Grupo 71279" transform="translate(0 121.742)" opacity="0.4" style="mix-blend-mode: multiply;isolation: isolate">
          <g id="Grupo_71278" data-name="Grupo 71278">
            <g id="Grupo_71277" data-name="Grupo 71277" clip-path="url(#clip-path-4)">
              <path id="Trazado_158425" data-name="Trazado 158425" d="M2.768,146.756H397.232a2.768,2.768,0,1,0,0-5.535H2.768a2.768,2.768,0,1,0,0,5.535" transform="translate(0 -141.221)" fill="#afafaf"/>
            </g>
          </g>
        </g>
      </g>
    </g>
  </g>
</svg>
