<svg xmlns="http://www.w3.org/2000/svg" xmlns:xlink="http://www.w3.org/1999/xlink" width="295" height="160.688" viewBox="0 0 295 160.688">
  <defs>
    <clipPath id="clip-path">
      <rect id="Rectángulo_11754" data-name="Rectángulo 11754" width="78.012" height="7.717" fill="none"/>
    </clipPath>
    <clipPath id="clip-path-2">
      <rect id="Rectángulo_11783" data-name="Rectángulo 11783" width="149.731" height="151.107" fill="none"/>
    </clipPath>
  </defs>
  <g id="Grupo_71326" data-name="Grupo 71326" transform="translate(-915 -1726.313)">
    <g id="Grupo_71325" data-name="Grupo 71325" transform="translate(93 5)">
      <path id="Trazado_158591" data-name="Trazado 158591" d="M15.195,64.623c-8.9,0-8.9,43.42,0,43.42h97.139V103.23H108.4V69.436h3.938V64.623Z" transform="translate(933.268 1764.377)" fill="#d44f4a"/>
      <path id="Trazado_158592" data-name="Trazado 158592" d="M125.252,64.623h-4.594c-8.9,0-8.9,43.42,0,43.42h4.594c-8.9,0-8.9-43.42,0-43.42" transform="translate(887.587 1764.377)" fill="#ca9f4b"/>
      <path id="Trazado_158593" data-name="Trazado 158593" d="M31.736,64.623H27.142c-8.9,0-8.9,43.42,0,43.42h4.594c-8.9,0-8.9-43.42,0-43.42" transform="translate(928.093 1764.377)" fill="#ca9f4b"/>
      <g id="Grupo_71324" data-name="Grupo 71324" transform="translate(943.076 1864.703)" opacity="0.4" style="mix-blend-mode: multiply;isolation: isolate">
        <g id="Grupo_71275" data-name="Grupo 71275">
          <g id="Grupo_71274" data-name="Grupo 71274" clip-path="url(#clip-path)">
            <path id="Trazado_158412" data-name="Trazado 158412" d="M10.79,127.607c1.106,4.581,2.851,7.717,5.24,7.717H88.8v-7.717Z" transform="translate(-10.79 -127.607)" fill="#092039"/>
          </g>
        </g>
      </g>
      <path id="Trazado_158594" data-name="Trazado 158594" d="M143.14,64.623c-8.9,0-8.9,43.42,0,43.42H225.3a1.855,1.855,0,0,0,1.855-1.855v-1.1a1.856,1.856,0,0,0-1.855-1.856h-2.083V69.436H225.3a1.855,1.855,0,0,0,1.855-1.855v-1.1a1.855,1.855,0,0,0-1.855-1.855Z" transform="translate(877.849 1764.377)" fill="#760904"/>
      <path id="Trazado_158595" data-name="Trazado 158595" d="M226.974,73.114h-75.75c-8.1,0-8.1,33.794,0,33.794h75.75Z" transform="translate(874.088 1760.698)" fill="#bad1c7"/>
      <rect id="Rectángulo_11784" data-name="Rectángulo 11784" width="70.721" height="1.969" transform="translate(1030.341 1839.652)" fill="#729ba4"/>
      <rect id="Rectángulo_11785" data-name="Rectángulo 11785" width="59.125" height="1.969" transform="translate(1041.937 1858.687)" fill="#729ba4"/>
    </g>
    <g id="Grupo_71323" data-name="Grupo 71323" transform="translate(926 1726.313)">
      <rect id="Rectángulo_11781" data-name="Rectángulo 11781" width="6.308" height="121.999" transform="translate(71.525 12.112)" fill="#420010"/>
      <g id="Grupo_71322" data-name="Grupo 71322">
        <g id="Grupo_71321" data-name="Grupo 71321" clip-path="url(#clip-path-2)">
          <path id="Trazado_158556" data-name="Trazado 158556" d="M85.606,133.006a.72.72,0,0,1-.511-.214.7.7,0,0,1-.214-.511.751.751,0,0,1,.209-.517.731.731,0,0,1,1.248.517.72.72,0,0,1-.214.511.733.733,0,0,1-.517.214" transform="translate(-38.221 -59.241)" fill="#e5cc63"/>
          <path id="Trazado_158557" data-name="Trazado 158557" d="M65.933,78.677a.728.728,0,1,1,.929.445.719.719,0,0,1-.242.038.727.727,0,0,1-.687-.484m-.956-2.716a.728.728,0,1,1,.929.445.75.75,0,0,1-.242.044.724.724,0,0,1-.687-.489m-.956-2.71a.728.728,0,1,1,.929.445.765.765,0,0,1-.242.038.727.727,0,0,1-.687-.484m-.956-2.716a.728.728,0,1,1,.929.445.777.777,0,0,1-.242.044.724.724,0,0,1-.687-.489m-.956-2.71a.728.728,0,1,1,.929.445.765.765,0,0,1-.242.038.727.727,0,0,1-.687-.484m-.956-2.716a.728.728,0,1,1,.929.445.777.777,0,0,1-.242.044.724.724,0,0,1-.687-.489M60.194,62.4a.721.721,0,0,1,.445-.924.726.726,0,1,1,.484,1.369.645.645,0,0,1-.242.044.724.724,0,0,1-.687-.489m-.956-2.71a.733.733,0,1,1,.682.484.721.721,0,0,1-.682-.484m-.956-2.716a.726.726,0,1,1,.929.445.777.777,0,0,1-.242.044.724.724,0,0,1-.687-.489m-.956-2.71a.722.722,0,0,1,.44-.929.728.728,0,1,1,.484,1.374.733.733,0,0,1-.924-.445m-.962-2.716a.728.728,0,1,1,.929.445.724.724,0,0,1-.242.044.735.735,0,0,1-.687-.489m-.956-2.71a.728.728,0,1,1,.929.44.609.609,0,0,1-.242.044.737.737,0,0,1-.687-.484m-.956-2.716a.728.728,0,1,1,.929.445.739.739,0,0,1-.929-.445M53.493,43.4a.728.728,0,1,1,.929.445.609.609,0,0,1-.242.044.73.73,0,0,1-.687-.489m-.956-2.71a.728.728,0,1,1,.929.445.742.742,0,0,1-.242.038.727.727,0,0,1-.687-.484m-.956-2.716a.728.728,0,1,1,.929.445.75.75,0,0,1-.242.044.724.724,0,0,1-.687-.489m-.956-2.71a.728.728,0,1,1,.929.445.742.742,0,0,1-.242.038.727.727,0,0,1-.687-.484m-.956-2.716A.728.728,0,1,1,50.6,33a.777.777,0,0,1-.242.044.724.724,0,0,1-.687-.489m-.956-2.71a.728.728,0,1,1,.929.44.645.645,0,0,1-.242.044.727.727,0,0,1-.687-.484m-.956-2.716a.728.728,0,1,1,.929.445.765.765,0,0,1-.242.038.727.727,0,0,1-.687-.484m-.956-2.71a.729.729,0,1,1,.929.44.777.777,0,0,1-.242.044.727.727,0,0,1-.687-.484M45.841,21.7a.727.727,0,0,1,.44-.929.729.729,0,1,1,.489,1.374.765.765,0,0,1-.242.038.727.727,0,0,1-.687-.484m-.956-2.716a.713.713,0,1,1,.682.489.727.727,0,0,1-.682-.489" transform="translate(-20.192 -8.112)" fill="#e5cc63"/>
          <path id="Trazado_158558" data-name="Trazado 158558" d="M43.831,14.546a.723.723,0,0,1-.517-.214.711.711,0,0,1-.214-.511.733.733,0,0,1,.214-.517.755.755,0,0,1,1.028,0,.733.733,0,0,1,.214.517.711.711,0,0,1-.214.511.72.72,0,0,1-.511.214" transform="translate(-19.408 -5.899)" fill="#e5cc63"/>
          <path id="Trazado_158559" data-name="Trazado 158559" d="M3.552,79.123a.739.739,0,1,1,.242.038.719.719,0,0,1-.242-.038m.956-2.716a.719.719,0,1,1,.242.044.729.729,0,0,1-.242-.044m.956-2.71a.739.739,0,1,1,.242.038.719.719,0,0,1-.242-.038m.956-2.716a.719.719,0,1,1,.242.044.75.75,0,0,1-.242-.044m.956-2.71a.739.739,0,1,1,.242.038.765.765,0,0,1-.242-.038m.956-2.716a.719.719,0,1,1,.242.044.777.777,0,0,1-.242-.044m.956-2.716a.719.719,0,1,1,.242.044.645.645,0,0,1-.242-.044m.956-2.71a.739.739,0,1,1,.242.038.765.765,0,0,1-.242-.038m.956-2.716a.719.719,0,1,1,.242.044.777.777,0,0,1-.242-.044m.956-2.71a.739.739,0,1,1,.242.038.765.765,0,0,1-.242-.038m.956-2.716a.719.719,0,1,1,.247.044.782.782,0,0,1-.247-.044m.962-2.716a.715.715,0,1,1,.242.044.609.609,0,0,1-.242-.044m.956-2.71a.728.728,0,1,1,.929-.445.737.737,0,0,1-.687.484.719.719,0,0,1-.242-.038m.956-2.716a.729.729,0,0,1-.445-.929.728.728,0,0,1,1.374.484.735.735,0,0,1-.687.489.609.609,0,0,1-.242-.044m.956-2.71a.739.739,0,1,1,.242.038.719.719,0,0,1-.242-.038m.956-2.716a.729.729,0,0,1-.445-.929.728.728,0,0,1,1.374.484.719.719,0,0,1-.929.445m.956-2.71a.739.739,0,1,1,.242.038.742.742,0,0,1-.242-.038M19.818,33a.719.719,0,1,1,.242.044A.777.777,0,0,1,19.818,33m.956-2.716a.721.721,0,1,1,.242.044.645.645,0,0,1-.242-.044m.956-2.71a.739.739,0,1,1,.242.038.765.765,0,0,1-.242-.038m.956-2.716a.719.719,0,1,1,.242.044.777.777,0,0,1-.242-.044m.956-2.71a.739.739,0,1,1,.242.038.765.765,0,0,1-.242-.038M24.6,19.43a.719.719,0,1,1,.242.044.777.777,0,0,1-.242-.044" transform="translate(-1.38 -8.112)" fill="#e5cc63"/>
          <path id="Trazado_158560" data-name="Trazado 158560" d="M2.051,133.006a.733.733,0,0,1-.517-.214.72.72,0,0,1-.214-.511.733.733,0,0,1,.214-.517.755.755,0,0,1,1.028,0,.733.733,0,0,1,.214.517.732.732,0,0,1-.726.726" transform="translate(-0.594 -59.241)" fill="#e5cc63"/>
          <path id="Trazado_158561" data-name="Trazado 158561" d="M7.944,138.16H40.9a7.944,7.944,0,0,0,7.944-7.944H0a7.944,7.944,0,0,0,7.944,7.944" transform="translate(0 -58.635)" fill="#e5cc63"/>
          <path id="Trazado_158562" data-name="Trazado 158562" d="M3.107,139.15a7.924,7.924,0,0,0,6.236,3.033H42.3a7.923,7.923,0,0,0,6.235-3.033Z" transform="translate(-1.399 -62.658)" fill="#ae8146"/>
          <path id="Trazado_158563" data-name="Trazado 158563" d="M58.828,135.007a15.113,15.113,0,0,0,.744-4.79H44.442v4.79Z" transform="translate(-20.012 -58.635)" fill="#fffb77"/>
          <path id="Trazado_158564" data-name="Trazado 158564" d="M269.136,167.426a.714.714,0,0,1-.511-.209.73.73,0,0,1,0-1.033.755.755,0,0,1,1.028,0,.73.73,0,0,1,0,1.033.718.718,0,0,1-.517.209" transform="translate(-120.862 -74.74)" fill="#e5cc63"/>
          <path id="Trazado_158565" data-name="Trazado 158565" d="M249.465,113.1a.728.728,0,1,1,.929.445.724.724,0,0,1-.242.044.735.735,0,0,1-.687-.489m-.956-2.71a.728.728,0,1,1,.929.445.717.717,0,0,1-.242.038.737.737,0,0,1-.687-.484m-.956-2.716a.728.728,0,1,1,.928.445.723.723,0,0,1-.241.044.734.734,0,0,1-.687-.489m-.957-2.71a.728.728,0,1,1,.929.445.719.719,0,0,1-.242.038.727.727,0,0,1-.687-.484m-.956-2.716a.728.728,0,1,1,.93.445.771.771,0,0,1-.242.038.727.727,0,0,1-.687-.484m-.956-2.716a.728.728,0,1,1,.929.445.777.777,0,0,1-.242.044.724.724,0,0,1-.687-.489m-.956-2.71a.728.728,0,1,1,.928.445.762.762,0,0,1-.241.038.726.726,0,0,1-.687-.484m-.957-2.716a.728.728,0,1,1,.929.445.777.777,0,0,1-.242.044.725.725,0,0,1-.687-.489m-.956-2.71a.728.728,0,1,1,.93.445.771.771,0,0,1-.242.038.727.727,0,0,1-.687-.484m-.956-2.716a.728.728,0,1,1,.929.445.775.775,0,0,1-.242.044.724.724,0,0,1-.687-.489m-.956-2.71a.726.726,0,1,1,.928.445.764.764,0,0,1-.241.038.726.726,0,0,1-.687-.484m-.957-2.716a.722.722,0,0,1,.44-.929.73.73,0,0,1,.93.445.722.722,0,0,1-.44.929.771.771,0,0,1-.247.038.726.726,0,0,1-.682-.484m-.956-2.716a.713.713,0,1,1,.682.489.719.719,0,0,1-.682-.489m-.962-2.71a.74.74,0,1,1,.687.484.737.737,0,0,1-.687-.484m-.956-2.716a.728.728,0,1,1,.929.445.724.724,0,0,1-.242.044.735.735,0,0,1-.687-.489m-.956-2.71a.728.728,0,1,1,.929.445.719.719,0,0,1-.242.038.738.738,0,0,1-.687-.484m-.956-2.716a.728.728,0,1,1,.928.445.723.723,0,0,1-.241.044.734.734,0,0,1-.687-.489m-.957-2.71a.728.728,0,1,1,.93.445.745.745,0,0,1-.242.038.733.733,0,0,1-.687-.484m-.956-2.716a.719.719,0,1,1,.687.489.729.729,0,0,1-.687-.489m-.956-2.716a.728.728,0,1,1,.929.445.777.777,0,0,1-.242.044.724.724,0,0,1-.687-.489m-.956-2.71a.728.728,0,1,1,.929.445.763.763,0,0,1-.242.038.727.727,0,0,1-.687-.484m-.956-2.716a.728.728,0,1,1,.929.445.777.777,0,0,1-.242.044.725.725,0,0,1-.687-.489m-.957-2.71a.728.728,0,1,1,.93.445.768.768,0,0,1-.242.038.727.727,0,0,1-.687-.484" transform="translate(-102.835 -23.614)" fill="#e5cc63"/>
          <path id="Trazado_158566" data-name="Trazado 158566" d="M227.361,48.972a.732.732,0,0,1-.517-.214.723.723,0,0,1-.214-.517.731.731,0,0,1,.214-.511.745.745,0,0,1,1.029,0,.709.709,0,0,1,.213.511.732.732,0,0,1-.213.517.72.72,0,0,1-.512.214" transform="translate(-102.049 -21.4)" fill="#e5cc63"/>
          <path id="Trazado_158567" data-name="Trazado 158567" d="M187.082,113.545a.719.719,0,1,1,.242.044.777.777,0,0,1-.242-.044m.957-2.71a.739.739,0,1,1,.242.038.765.765,0,0,1-.242-.038m.956-2.716a.719.719,0,1,1,.242.044.777.777,0,0,1-.242-.044m.956-2.716a.721.721,0,1,1,.242.044.645.645,0,0,1-.242-.044m.956-2.71a.739.739,0,1,1,.242.038.765.765,0,0,1-.242-.038m.962-2.716a.715.715,0,1,1,.236.044.6.6,0,0,1-.236-.044m.956-2.71a.733.733,0,1,1,.242.038.723.723,0,0,1-.242-.038m.956-2.716a.713.713,0,1,1,.242.044.725.725,0,0,1-.242-.044m.957-2.71a.728.728,0,1,1,.929-.445.737.737,0,0,1-.687.484.719.719,0,0,1-.242-.038m.956-2.716a.719.719,0,1,1,.242.044.729.729,0,0,1-.242-.044m.956-2.716a.726.726,0,1,1,.929-.44.737.737,0,0,1-.687.484.609.609,0,0,1-.242-.044m.956-2.71a.739.739,0,1,1,.242.038.719.719,0,0,1-.242-.038m.956-2.716a.721.721,0,1,1,.242.044.627.627,0,0,1-.242-.044m.957-2.71a.739.739,0,1,1,.242.038.742.742,0,0,1-.242-.038m.956-2.716a.719.719,0,1,1,.242.044.75.75,0,0,1-.242-.044m.956-2.71a.739.739,0,1,1,.242.038.742.742,0,0,1-.242-.038m.956-2.716a.719.719,0,1,1,.242.044.777.777,0,0,1-.242-.044m.956-2.716a.721.721,0,1,1,.242.044.645.645,0,0,1-.242-.044m.956-2.71a.739.739,0,1,1,.242.038.765.765,0,0,1-.242-.038m.956-2.716a.719.719,0,1,1,.247.044.783.783,0,0,1-.247-.044m.956-2.71a.739.739,0,1,1,.242.038.765.765,0,0,1-.242-.038m.956-2.716a.719.719,0,1,1,.242.044.777.777,0,0,1-.242-.044m.962-2.71a.733.733,0,1,1,.242.038.719.719,0,0,1-.242-.038" transform="translate(-84.022 -23.614)" fill="#e5cc63"/>
          <path id="Trazado_158568" data-name="Trazado 158568" d="M185.586,167.426a.723.723,0,0,1-.726-.726.751.751,0,0,1,.209-.517.762.762,0,0,1,1.033,0,.751.751,0,0,1,.209.517.718.718,0,0,1-.209.517.727.727,0,0,1-.517.209" transform="translate(-83.241 -74.74)" fill="#e5cc63"/>
          <path id="Trazado_158569" data-name="Trazado 158569" d="M191.476,172.584H224.43a7.944,7.944,0,0,0,7.944-7.944H183.532a7.944,7.944,0,0,0,7.944,7.944" transform="translate(-82.643 -74.136)" fill="#e5cc63"/>
          <path id="Trazado_158570" data-name="Trazado 158570" d="M186.31,173.133a7.926,7.926,0,0,0,6.417,3.275h32.954a7.926,7.926,0,0,0,6.417-3.275Z" transform="translate(-83.894 -77.96)" fill="#ae8146"/>
          <path id="Trazado_158571" data-name="Trazado 158571" d="M242.319,169.309a11.555,11.555,0,0,0,.935-4.669H228.477v4.669Z" transform="translate(-102.881 -74.136)" fill="#fffb77"/>
          <path id="Trazado_158572" data-name="Trazado 158572" d="M36.081,9.916l53.63,17.526L91.6,17.43,37.161,4.195Z" transform="translate(-16.247 -1.889)" fill="#420010"/>
          <path id="Trazado_158573" data-name="Trazado 158573" d="M189.971,41.505l-56.329-3.222,1.889-10.013,55.519,7.513Z" transform="translate(-60.178 -12.73)" fill="#420010"/>
          <path id="Trazado_158574" data-name="Trazado 158574" d="M132.858,5.868h0a3.654,3.654,0,0,1,3.654,3.654v5.232H129.2V9.522a3.654,3.654,0,0,1,3.654-3.654" transform="translate(-58.179 -2.642)" fill="#420010"/>
          <path id="Trazado_158575" data-name="Trazado 158575" d="M116.435,183.4c0,15.121,4.779,20.1,10.673,20.1s10.673-4.98,10.673-20.1c0-10.427-5.075-26.414-8.226-35.335a2.6,2.6,0,0,0-4.894,0c-3.151,8.921-8.226,24.908-8.226,35.335" transform="translate(-52.43 -65.894)" fill="#683424"/>
          <path id="Trazado_158576" data-name="Trazado 158576" d="M116.6,219.914c.673,12.487,5.152,16.721,10.582,16.721s9.91-4.233,10.582-16.721c0,8.41-21.165,8.41-21.165,0" transform="translate(-52.504 -99.025)" fill="#420010"/>
          <path id="Trazado_158577" data-name="Trazado 158577" d="M122.778,129.967c0,2.119,3.217,3.836,7.186,3.836s7.186-1.717,7.186-3.836-3.217-3.836-7.186-3.836-7.186,1.718-7.186,3.836" transform="translate(-55.286 -56.796)" fill="#683424"/>
          <path id="Trazado_158578" data-name="Trazado 158578" d="M122.778,102.973a7.187,7.187,0,1,0,7.186-7.294,7.24,7.24,0,0,0-7.186,7.294" transform="translate(-55.286 -43.083)" fill="#683424"/>
          <path id="Trazado_158579" data-name="Trazado 158579" d="M122.778,28.657c0,6.127,3.217,11.093,7.186,11.093s7.186-4.966,7.186-11.093-3.217-11.093-7.186-11.093-7.186,4.966-7.186,11.093" transform="translate(-55.286 -7.909)" fill="#683424"/>
          <path id="Trazado_158580" data-name="Trazado 158580" d="M50.233,255.811h94.13v-5.031a5.287,5.287,0,0,0-4.414-5.21,255.574,255.574,0,0,0-85.3,0,5.287,5.287,0,0,0-4.414,5.21Z" transform="translate(-22.619 -108.964)" fill="#683424"/>
          <path id="Trazado_158581" data-name="Trazado 158581" d="M128.93,250.6a2.886,2.886,0,0,0-2.674-2.744,245.282,245.282,0,0,0-29.908.035,2.889,2.889,0,0,0-2.711,2.71Z" transform="translate(-42.164 -111.409)" fill="#955e37"/>
          <rect id="Rectángulo_11782" data-name="Rectángulo 11782" width="94.13" height="1.941" transform="translate(27.614 141.752)" fill="#420010"/>
          <path id="Trazado_158582" data-name="Trazado 158582" d="M41.11,268.813H145.187v-2.8a4.615,4.615,0,0,0-4.615-4.615H45.725a4.615,4.615,0,0,0-4.615,4.615Z" transform="translate(-18.511 -117.705)" fill="#683424"/>
          <path id="Trazado_158583" data-name="Trazado 158583" d="M33.492,6.01A6.01,6.01,0,1,0,39.5,0a6.01,6.01,0,0,0-6.009,6.01" transform="translate(-15.081)" fill="#683424"/>
          <path id="Trazado_158584" data-name="Trazado 158584" d="M218.894,41.562a6.01,6.01,0,1,0,6.01-6.01,6.01,6.01,0,0,0-6.01,6.01" transform="translate(-98.566 -16.009)" fill="#683424"/>
          <path id="Trazado_158585" data-name="Trazado 158585" d="M38.81,4.568c0,.76.954,1.374,2.13,1.374s2.13-.615,2.13-1.374-.954-1.374-2.13-1.374-2.13.616-2.13,1.374" transform="translate(-17.476 -1.438)" fill="#955e37"/>
          <path id="Trazado_158586" data-name="Trazado 158586" d="M129.767,24.644c0,.759.954,1.374,2.13,1.374s2.13-.615,2.13-1.374-.954-1.374-2.13-1.374-2.13.615-2.13,1.374" transform="translate(-58.433 -10.478)" fill="#955e37"/>
          <path id="Trazado_158587" data-name="Trazado 158587" d="M224.082,40.394c0,.759.954,1.374,2.13,1.374s2.13-.615,2.13-1.374-.954-1.374-2.13-1.374-2.13.615-2.13,1.374" transform="translate(-100.902 -17.57)" fill="#955e37"/>
          <path id="Trazado_158588" data-name="Trazado 158588" d="M130.114,101.144c0,.759.954,1.374,2.13,1.374s2.13-.615,2.13-1.374-.954-1.374-2.13-1.374-2.13.615-2.13,1.374" transform="translate(-58.589 -44.925)" fill="#955e37"/>
          <path id="Trazado_158589" data-name="Trazado 158589" d="M130.114,129.09c0,.759.954,1.374,2.13,1.374s2.13-.615,2.13-1.374-.954-1.374-2.13-1.374-2.13.615-2.13,1.374" transform="translate(-58.589 -57.509)" fill="#955e37"/>
          <path id="Trazado_158590" data-name="Trazado 158590" d="M130.114,174.967c0,2.6.954,4.707,2.13,4.707s2.13-2.107,2.13-4.707-.954-4.707-2.13-4.707-2.13,2.107-2.13,4.707" transform="translate(-58.589 -76.666)" fill="#8b553a"/>
        </g>
      </g>
    </g>
    <rect id="Rectángulo_11786" data-name="Rectángulo 11786" width="295" height="10" transform="translate(915 1877)" fill="#e8e8e8"/>
  </g>
</svg>
