<svg xmlns="http://www.w3.org/2000/svg" xmlns:xlink="http://www.w3.org/1999/xlink" width="609.949" height="110.137" viewBox="0 0 609.949 110.137">
  <defs>
    <linearGradient id="linear-gradient" x1="0.5" x2="0.5" y2="1" gradientUnits="objectBoundingBox">
      <stop offset="0" stop-color="#fff" stop-opacity="0"/>
      <stop offset="1" stop-color="#fff"/>
    </linearGradient>
  </defs>
  <g id="Grupo_72152" data-name="Grupo 72152" transform="translate(-13987 10685)">
    <g id="Grupo_72151" data-name="Grupo 72151" transform="translate(13491.949 -11216.863)">
      <g id="Grupo_71356" data-name="Grupo 71356" transform="translate(495 531.813)">
        <g id="Grupo_71357" data-name="Grupo 71357" transform="translate(0 0)">
          <path id="Trazado_158760" data-name="Trazado 158760" d="M9.26,0H598.639a9.26,9.26,0,0,1,9.26,9.26V93.986a9.26,9.26,0,0,1-9.26,9.26H9.26A9.26,9.26,0,0,1,0,93.986V9.26A9.26,9.26,0,0,1,9.26,0Z" transform="translate(1.051 1.051)" stroke="#d44f4a" stroke-width="2" fill="url(#linear-gradient)"/>
          <rect id="Rect치ngulo_11817" data-name="Rect치ngulo 11817" width="190" height="11" rx="5.5" transform="translate(420 99.188)" fill="#d44f4a"/>
        </g>
      </g>
    </g>
    <g id="Grupo_72145" data-name="Grupo 72145" transform="translate(62 93.79)">
      <path id="Trazado_160088" data-name="Trazado 160088" d="M0,214.636a9.341,9.341,0,0,1,3.036-6.8q3.315-3.312,3.315-5.858v-1.188H9.912v1.573a9.266,9.266,0,0,1-3.036,6.722q-3.315,3.285-3.315,5.658v3.036q0,2.607,2.419,2.606h.031q2.45,0,2.452-2.606v-3.716h3.562v3.716q0,6.121-6.028,6.122-6,0-6-6.122Zm10.174-17.389H5.935v-4.239h4.239Z" transform="translate(13954 -10930.219)" fill="#636363"/>
      <path id="Trazado_160089" data-name="Trazado 160089" d="M10.267,190.822h6.49q5.534.017,5.534,6.122v18.145q0,6.089-5.842,6.1H10.267Zm3.56,3.5v23.37h2.467q2.438,0,2.437-2.6V196.944q0-2.622-2.437-2.621Z" transform="translate(13960.538 -10931.61)" fill="#636363"/>
      <path id="Trazado_160090" data-name="Trazado 160090" d="M19.874,193.045h10.76v3.084h-7.2v8.742h6.2v3.1h-6.2v8.742h7.2v3.067H19.874Z" transform="translate(13966.655 -10930.195)" fill="#636363"/>
      <path id="Trazado_160091" data-name="Trazado 160091" d="M45.048,215.357q0,4.795-4.981,5.349.14,1.682,4.981,1.712V224.9a12.5,12.5,0,0,1-4.811-.648q-1.7-.754-1.742-3.529-5.475-.354-5.473-5.365V198.491q0-5.379,6.012-5.38t6.014,5.38Zm-3.562-16.866q0-2.283-2.436-2.3h-.031q-2.438,0-2.436,2.3v16.866q0,2.281,2.45,2.282t2.452-2.282Z" transform="translate(13975.028 -10930.152)" fill="#636363"/>
      <path id="Trazado_160092" data-name="Trazado 160092" d="M54.56,214.882q0,5.365-6.012,5.38-6.015,0-6.014-5.38v-21.8H46.1v21.8q0,2.281,2.452,2.282T51,214.882v-21.8H54.56Z" transform="translate(13981.085 -10930.171)" fill="#636363"/>
      <path id="Trazado_160093" data-name="Trazado 160093" d="M52.236,194.85H63v3.084H55.8v8.742h6.2v3.1H55.8v8.742H63v3.067H52.236Zm10.128-4.162-4.04,2.591H56.151L59.5,190.21h2.868Z" transform="translate(13987.264 -10932)" fill="#636363"/>
      <path id="Trazado_160094" data-name="Trazado 160094" d="M65.95,193.045H76.71v3.084h-7.2v8.742h6.2v3.1h-6.2v11.809H65.95Z" transform="translate(13995.996 -10930.195)" fill="#636363"/>
      <path id="Trazado_160095" data-name="Trazado 160095" d="M86.151,215.05q0,5.362-6.014,5.38-6.013,0-6.012-5.38V198.183q0-5.365,6.012-5.364t6.014,5.364Zm-3.562-16.867q0-2.281-2.436-2.282h-.031q-2.438,0-2.436,2.282V215.05q0,2.3,2.45,2.3t2.452-2.3Z" transform="translate(14001.202 -10930.339)" fill="#636363"/>
      <path id="Trazado_160096" data-name="Trazado 160096" d="M83.732,193.044h6.1q5.536.017,5.536,5.38v4.149q0,3.344-3.684,4.547l5.01,12.656H92.765L88.68,207.615l-1.388.169v11.993h-3.56Zm3.56,3.084v8.742H88.8a5.586,5.586,0,0,0,1.481-.139,2.118,2.118,0,0,0,1.525-2.157v-4.149q0-2.3-2.436-2.3Z" transform="translate(14007.32 -10930.195)" fill="#636363"/>
      <path id="Trazado_160097" data-name="Trazado 160097" d="M102.518,213.271l5.642-20.226h3.655v26.732h-3.377V200.846l-4.717,18.931h-2.3l-4.842-18.823v18.823H93.16V193.045h3.67Z" transform="translate(14013.323 -10930.194)" fill="#636363"/>
      <path id="Trazado_160098" data-name="Trazado 160098" d="M119.171,210.482l1.417,9.3h-3.624l-.877-5.842h-5.442l-.894,5.842h-3.593l1.388-9.264,3.13-17.468h5.38Zm-3.547.354-2.265-15.106-2.267,15.106Z" transform="translate(14021.601 -10930.194)" fill="#636363"/>
      <path id="Trazado_160099" data-name="Trazado 160099" d="M121.171,198.183q0-5.365,6.012-5.364t6.015,5.364v3.3h-3.562v-3.3q0-2.281-2.437-2.282h-.031q-2.438,0-2.437,2.282v2.5q0,2.065,4.441,4.856,4.024,2.526,4.027,6.028v3.485q0,5.379-6,5.38-6.027-.017-6.028-5.38v-3.285h3.56v3.285q0,2.3,2.468,2.3,2.436,0,2.437-2.3V211.9q0-2.2-4.442-5.01-4.024-2.529-4.023-6.12Z" transform="translate(14031.161 -10930.339)" fill="#636363"/>
      <path id="Trazado_160100" data-name="Trazado 160100" d="M130.779,193.045h10.76v3.084h-7.2v8.742h6.2v3.1h-6.2v8.742h7.2v3.067h-10.76Z" transform="translate(14037.279 -10930.195)" fill="#636363"/>
      <path id="Trazado_160101" data-name="Trazado 160101" d="M153.166,219.777h-5.38l-3.13-17.452-1.388-9.281h3.591l3.609,24.049,3.608-24.049H157.7l-1.419,9.312Z" transform="translate(14045.232 -10930.195)" fill="#636363"/>
      <path id="Trazado_160102" data-name="Trazado 160102" d="M165.849,210.482l1.417,9.3h-3.622l-.879-5.842h-5.442l-.894,5.842h-3.591l1.386-9.264,3.131-17.468h5.38Zm-3.545.354-2.267-15.106-2.267,15.106Z" transform="translate(14051.326 -10930.194)" fill="#636363"/>
      <path id="Trazado_160103" data-name="Trazado 160103" d="M163.254,193.045h3.653l5.149,19.209V193.107l3.223-.046v26.716h-3.655l-4.979-18.715v18.715h-3.391Z" transform="translate(14057.959 -10930.195)" fill="#636363"/>
      <path id="Trazado_160104" data-name="Trazado 160104" d="M190,210.482l1.417,9.3h-3.622l-.879-5.842h-5.442l-.894,5.842h-3.591l1.386-9.264,3.131-17.468h5.38Zm-3.545.354-2.267-15.106-2.267,15.106Z" transform="translate(14066.704 -10930.194)" fill="#636363"/>
      <path id="Trazado_160105" data-name="Trazado 160105" d="M204.026,215.05q0,5.365-6.014,5.38-6.01,0-6.012-5.38V198.183q0-5.362,6.012-5.364t6.014,5.364v3.3h-3.562v-3.3q0-2.278-2.436-2.28H198q-2.436,0-2.436,2.28V215.05q0,2.3,2.45,2.3t2.452-2.3v-6.893h-2.282v-3.084h5.843Z" transform="translate(14076.265 -10930.339)" fill="#636363"/>
      <path id="Trazado_160106" data-name="Trazado 160106" d="M201.607,193.045h10.76v3.084h-7.2v8.742h6.2v3.1h-6.2v8.742h7.2v3.067h-10.76Z" transform="translate(14082.382 -10930.195)" fill="#636363"/>
      <path id="Trazado_160107" data-name="Trazado 160107" d="M210.16,193.045h3.653l5.149,19.209V193.107l3.223-.046v26.716H218.53l-4.979-18.715v18.715H210.16Z" transform="translate(14087.828 -10930.195)" fill="#636363"/>
      <path id="Trazado_160108" data-name="Trazado 160108" d="M219.955,193.045h10.76v3.084h-7.2v8.742h6.2v3.1h-6.2v8.742h7.2v3.067h-10.76Z" transform="translate(14094.065 -10930.195)" fill="#636363"/>
      <path id="Trazado_160109" data-name="Trazado 160109" d="M228.507,193.044h6.105q5.534.017,5.536,5.38v4.149q0,3.344-3.686,4.547l5.01,12.656h-3.93l-4.085-12.161-1.388.169v11.993h-3.562Zm3.562,3.084v8.742h1.511a5.571,5.571,0,0,0,1.48-.139,2.119,2.119,0,0,0,1.527-2.157v-4.149q0-2.3-2.437-2.3Z" transform="translate(14099.512 -10930.195)" fill="#636363"/>
      <path id="Trazado_160110" data-name="Trazado 160110" d="M250.1,210.482l1.417,9.3h-3.622l-.879-5.842h-5.442l-.894,5.842h-3.591l1.386-9.264,3.131-17.468h5.38Zm-3.545.354-2.267-15.106-2.267,15.106Z" transform="translate(14104.976 -10930.194)" fill="#636363"/>
      <path id="Trazado_160111" data-name="Trazado 160111" d="M247.5,193.044h6.105q5.534.017,5.536,5.38v4.149q0,3.344-3.686,4.547l5.01,12.656h-3.93l-4.085-12.161-1.388.169v11.993H247.5Zm3.562,3.084v8.742h1.511a5.572,5.572,0,0,0,1.48-.139,2.119,2.119,0,0,0,1.527-2.157v-4.149q0-2.3-2.437-2.3Z" transform="translate(14111.608 -10930.195)" fill="#636363"/>
      <rect id="Rect치ngulo_12290" data-name="Rect치ngulo 12290" width="3.562" height="26.732" transform="translate(14381.975 -10737.149)" fill="#636363"/>
      <path id="Trazado_160112" data-name="Trazado 160112" d="M266.144,193.045H269.8l5.149,19.209V193.107l3.223-.046v26.716h-3.655l-4.979-18.715v18.715h-3.391Z" transform="translate(14123.479 -10930.195)" fill="#636363"/>
      <path id="Trazado_160113" data-name="Trazado 160113" d="M287.776,215.05q0,5.365-6.014,5.38-6.01,0-6.012-5.38V198.183q0-5.362,6.012-5.364t6.014,5.364v3.3h-3.562v-3.3q0-2.278-2.436-2.28h-.031q-2.436,0-2.436,2.28V215.05q0,2.3,2.45,2.3t2.452-2.3v-6.893h-2.282v-3.084h5.843Z" transform="translate(14129.597 -10930.339)" fill="#636363"/>
      <path id="Trazado_160114" data-name="Trazado 160114" d="M285.358,193.044h6.105q5.534.017,5.536,5.38v4.149q0,3.344-3.686,4.547l5.01,12.656h-3.93l-4.085-12.161-1.388.169v11.993h-3.562Zm3.562,3.084v8.742h1.511a5.572,5.572,0,0,0,1.48-.139,2.119,2.119,0,0,0,1.527-2.157v-4.149q0-2.3-2.437-2.3Z" transform="translate(14135.714 -10930.195)" fill="#636363"/>
      <path id="Trazado_160115" data-name="Trazado 160115" d="M294.278,193.045h10.76v3.084h-7.2v8.742h6.2v3.1h-6.2v8.742h7.2v3.067h-10.76Z" transform="translate(14141.394 -10930.195)" fill="#636363"/>
      <path id="Trazado_160116" data-name="Trazado 160116" d="M302.641,198.183q0-5.365,6.012-5.364t6.014,5.364v3.3H311.1v-3.3q0-2.281-2.436-2.282h-.031q-2.436,0-2.436,2.282v2.5q0,2.065,4.441,4.856,4.022,2.526,4.023,6.028v3.485q0,5.379-6,5.38-6.028-.017-6.028-5.38v-3.285H306.2v3.285q0,2.3,2.467,2.3,2.436,0,2.436-2.3V211.9q0-2.2-4.441-5.01-4.024-2.529-4.023-6.12Z" transform="translate(14146.72 -10930.339)" fill="#636363"/>
      <path id="Trazado_160117" data-name="Trazado 160117" d="M324.086,215.05q0,5.362-6.014,5.38-6.01,0-6.012-5.38V198.183q0-5.365,6.012-5.364t6.014,5.364Zm-3.562-16.867q0-2.281-2.436-2.282h-.031q-2.435,0-2.436,2.282V215.05q0,2.3,2.45,2.3t2.452-2.3Z" transform="translate(14152.718 -10930.339)" fill="#636363"/>
      <path id="Trazado_160118" data-name="Trazado 160118" d="M321.479,198.183q0-5.365,6.012-5.364t6.014,5.364v3.3h-3.562v-3.3q0-2.281-2.436-2.282h-.031q-2.436,0-2.436,2.282v2.5q0,2.065,4.441,4.856,4.022,2.526,4.023,6.028v3.485q0,5.379-6,5.38-6.027-.017-6.028-5.38v-3.285h3.562v3.285q0,2.3,2.467,2.3,2.436,0,2.436-2.3V211.9q0-2.2-4.441-5.01-4.024-2.529-4.023-6.12Z" transform="translate(14158.716 -10930.339)" fill="#636363"/>
      <path id="Trazado_160119" data-name="Trazado 160119" d="M343.016,199.777a9.339,9.339,0,0,1-3.036,6.8q-3.314,3.314-3.315,5.858v1.187h-3.56V212.05a9.257,9.257,0,0,1,3.036-6.722q3.314-3.285,3.314-5.658v-3.036q0-2.607-2.421-2.606h-.029q-2.453,0-2.454,2.606v3.714h-3.56v-3.714q0-6.121,6.027-6.122,6,0,6,6.122Zm-10.173,17.391h4.239v4.239h-4.239Z" transform="translate(14164.773 -10931.809)" fill="#636363"/>
    </g>
  </g>
</svg>
