<svg xmlns="http://www.w3.org/2000/svg" width="84" height="84.102" viewBox="0 0 84 84.102">
  <g id="Grupo_72138" data-name="Grupo 72138" transform="translate(-8894.756 8743)">
    <g id="Grupo_72135" data-name="Grupo 72135" transform="translate(-0.244)">
      <circle id="Elipse_5371" data-name="Elipse 5371" cx="42" cy="42" r="42" transform="translate(8895 -8743)" fill="#d44f4a"/>
      <path id="Intersección_1" data-name="Intersección 1" d="M13.277,80.456c20.575,3.355,59.423,3.549,75.1-37.651a42.009,42.009,0,0,1-75.1,37.651Z" transform="translate(8886.407 -8762.061)" fill="#b1403c"/>
    </g>
    <path id="Trazado_159999" data-name="Trazado 159999" d="M9258.961-8723.69s7.41-13.471,23.573-15.491" transform="translate(-352.504 2)" fill="none" stroke="#e67a76" stroke-linecap="round" stroke-width="3"/>
    <g id="estrategia" transform="translate(8896.909 -8725.753)">
      <g id="Grupo_72110" data-name="Grupo 72110" transform="translate(21.334)">
        <g id="Grupo_72109" data-name="Grupo 72109">
          <path id="Trazado_159989" data-name="Trazado 159989" d="M58.54,13.436V5.168A5.174,5.174,0,0,0,53.373,0H30.635A1.034,1.034,0,0,0,29.9.3L21.637,8.571a1.034,1.034,0,0,0-.3.731V44.441A5.174,5.174,0,0,0,26.5,49.608H53.373a5.174,5.174,0,0,0,5.168-5.168V42.374H56.473v2.067a3.1,3.1,0,0,1-3.1,3.1H26.5a3.1,3.1,0,0,1-3.1-3.1V9.729l7.662-7.662H53.373a3.1,3.1,0,0,1,3.1,3.1v8.268H58.54Z" transform="translate(-21.334)" fill="#fff"/>
        </g>
      </g>
      <g id="Grupo_72112" data-name="Grupo 72112" transform="translate(26.502 1.034)">
        <g id="Grupo_72111" data-name="Grupo 72111">
          <path id="Trazado_159990" data-name="Trazado 159990" d="M77.768,10.667v6.2A1.034,1.034,0,0,1,76.734,17.9H74.667v2.067h2.067a3.1,3.1,0,0,0,3.1-3.1v-6.2Z" transform="translate(-74.667 -10.667)" fill="#fff"/>
        </g>
      </g>
      <g id="Grupo_72114" data-name="Grupo 72114" transform="translate(47.172 15.503)">
        <g id="Grupo_72113" data-name="Grupo 72113">
          <path id="Trazado_159991" data-name="Trazado 159991" d="M299.369,160H289.034A1.034,1.034,0,0,0,288,161.034v4.134a1.034,1.034,0,0,0,1.034,1.034h10.335a1.034,1.034,0,0,0,1.034-1.034v-4.134A1.034,1.034,0,0,0,299.369,160Zm-1.033,4.134h-8.268v-2.067h8.268Z" transform="translate(-288 -160)" fill="#fff"/>
        </g>
      </g>
      <g id="Grupo_72116" data-name="Grupo 72116" transform="translate(47.172 24.804)">
        <g id="Grupo_72115" data-name="Grupo 72115">
          <path id="Trazado_159992" data-name="Trazado 159992" d="M299.369,256H289.034A1.034,1.034,0,0,0,288,257.034v4.134a1.034,1.034,0,0,0,1.034,1.034h10.335a1.034,1.034,0,0,0,1.034-1.034v-4.134A1.034,1.034,0,0,0,299.369,256Zm-1.033,4.134h-8.268v-2.067h8.268Z" transform="translate(-288 -256)" fill="#fff"/>
        </g>
      </g>
      <g id="Grupo_72118" data-name="Grupo 72118" transform="translate(47.172 34.106)">
        <g id="Grupo_72117" data-name="Grupo 72117">
          <path id="Trazado_159993" data-name="Trazado 159993" d="M299.369,352H289.034A1.034,1.034,0,0,0,288,353.034v4.134a1.034,1.034,0,0,0,1.034,1.034h10.335a1.034,1.034,0,0,0,1.034-1.034v-4.134A1.034,1.034,0,0,0,299.369,352Zm-1.033,4.134h-8.268v-2.067h8.268Z" transform="translate(-288 -352)" fill="#fff"/>
        </g>
      </g>
      <g id="Grupo_72120" data-name="Grupo 72120" transform="translate(61.641 16.536)">
        <g id="Grupo_72119" data-name="Grupo 72119">
          <path id="Trazado_159994" data-name="Trazado 159994" d="M439.4,170.667h-2.067v2.067H439.4a1.034,1.034,0,0,1,1.034,1.034v15.5A1.034,1.034,0,0,1,439.4,190.3h-2.067v2.067H439.4a3.1,3.1,0,0,0,3.1-3.1v-15.5A3.1,3.1,0,0,0,439.4,170.667Z" transform="translate(-437.334 -170.667)" fill="#fff"/>
        </g>
      </g>
      <g id="Grupo_72122" data-name="Grupo 72122" transform="translate(39.937 26.871)">
        <g id="Grupo_72121" data-name="Grupo 72121">
          <path id="Trazado_159995" data-name="Trazado 159995" d="M218.5,279.4v-2.067h-4.134a1.034,1.034,0,0,0-1.034,1.034V285.6a3.1,3.1,0,0,0,3.1,3.1H218.5v-2.067h-2.067A1.034,1.034,0,0,1,215.4,285.6v-6.2h3.1Z" transform="translate(-213.333 -277.334)" fill="#fff"/>
        </g>
      </g>
      <g id="Grupo_72124" data-name="Grupo 72124" transform="translate(30.635 23.771)">
        <g id="Grupo_72123" data-name="Grupo 72123">
          <path id="Trazado_159996" data-name="Trazado 159996" d="M120.434,248.434A1.034,1.034,0,0,1,119.4,247.4v-2.067h-2.067V247.4a3.1,3.1,0,0,0,3.1,3.1h7.235v-2.067Z" transform="translate(-117.333 -245.333)" fill="#fff"/>
        </g>
      </g>
      <g id="Grupo_72126" data-name="Grupo 72126" transform="translate(26.502 14.469)">
        <g id="Grupo_72125" data-name="Grupo 72125">
          <path id="Trazado_159997" data-name="Trazado 159997" d="M79.835,149.333A5.168,5.168,0,1,0,85,154.5,5.167,5.167,0,0,0,79.835,149.333Zm0,8.268a3.1,3.1,0,1,1,3.1-3.1A3.1,3.1,0,0,1,79.835,157.6Z" transform="translate(-74.667 -149.333)" fill="#fff"/>
        </g>
      </g>
      <g id="Grupo_72128" data-name="Grupo 72128" transform="translate(49.239 4.134)">
        <g id="Grupo_72127" data-name="Grupo 72127">
          <path id="Trazado_159998" data-name="Trazado 159998" d="M311.4,42.667h-2.067v2.067H311.4a1.034,1.034,0,0,1,1.034,1.034v2.067H314.5V45.768A3.1,3.1,0,0,0,311.4,42.667Z" transform="translate(-309.334 -42.667)" fill="#fff"/>
        </g>
      </g>
      <g id="Grupo_72130" data-name="Grupo 72130" transform="translate(45.105 4.134)">
        <g id="Grupo_72129" data-name="Grupo 72129">
          <rect id="Rectángulo_12284" data-name="Rectángulo 12284" width="2.067" height="2.067" fill="#fff"/>
        </g>
      </g>
      <g id="Grupo_72132" data-name="Grupo 72132" transform="translate(26.502 42.374)">
        <g id="Grupo_72131" data-name="Grupo 72131">
          <rect id="Rectángulo_12285" data-name="Rectángulo 12285" width="2.067" height="2.067" fill="#fff"/>
        </g>
      </g>
      <g id="Grupo_72134" data-name="Grupo 72134" transform="translate(30.635 42.374)">
        <g id="Grupo_72133" data-name="Grupo 72133">
          <rect id="Rectángulo_12286" data-name="Rectángulo 12286" width="14.469" height="2.067" fill="#fff"/>
        </g>
      </g>
    </g>
  </g>
</svg>
