<svg xmlns="http://www.w3.org/2000/svg" xmlns:xlink="http://www.w3.org/1999/xlink" width="609.949" height="110.137" viewBox="0 0 609.949 110.137">
  <defs>
    <linearGradient id="linear-gradient" x1="0.5" x2="0.5" y2="1" gradientUnits="objectBoundingBox">
      <stop offset="0" stop-color="#fff" stop-opacity="0"/>
      <stop offset="1" stop-color="#fff"/>
    </linearGradient>
  </defs>
  <g id="Grupo_72155" data-name="Grupo 72155" transform="translate(-13987 11218)">
    <g id="Grupo_72146" data-name="Grupo 72146" transform="translate(13491.949 -11749.863)">
      <g id="Grupo_71356" data-name="Grupo 71356" transform="translate(495 531.813)">
        <g id="Grupo_71357" data-name="Grupo 71357" transform="translate(0 0)">
          <path id="Trazado_158760" data-name="Trazado 158760" d="M9.26,0H598.639a9.26,9.26,0,0,1,9.26,9.26V93.986a9.26,9.26,0,0,1-9.26,9.26H9.26A9.26,9.26,0,0,1,0,93.986V9.26A9.26,9.26,0,0,1,9.26,0Z" transform="translate(1.051 1.051)" stroke="#d44f4a" stroke-width="2" fill="url(#linear-gradient)"/>
          <rect id="Rect치ngulo_11817" data-name="Rect치ngulo 11817" width="190" height="11" rx="5.5" transform="translate(420 99.188)" fill="#d44f4a"/>
        </g>
      </g>
    </g>
    <g id="Grupo_72142" data-name="Grupo 72142" transform="translate(96.415 -302.831)">
      <path id="Trazado_160026" data-name="Trazado 160026" d="M0,79.216A10.479,10.479,0,0,1,3.406,71.59q3.718-3.715,3.718-6.571V63.687h4v1.764A10.393,10.393,0,0,1,7.713,72.99Q4,76.675,4,79.338v3.408q0,2.922,2.714,2.921h.035q2.749,0,2.75-2.921v-4.17h4v4.17q0,6.863-6.762,6.865Q0,89.61,0,82.745ZM11.413,59.71H6.658V54.955h4.755Z" transform="translate(13954 -10929.661)" fill="#636363"/>
      <path id="Trazado_160027" data-name="Trazado 160027" d="M23.567,80.753q0,6.142-5.587,6.832.157,2.143,5.587,2.178v3.165a12.448,12.448,0,0,1-5.4-.83q-1.9-.969-1.954-4.495-6.142-.454-6.14-6.85V59.259q0-6.847,6.744-6.847t6.746,6.847Zm-4-21.495q0-2.906-2.732-2.923h-.035q-2.735,0-2.732,2.923V80.753q0,2.925,2.749,2.923t2.75-2.923Z" transform="translate(13962.426 -10931.786)" fill="#636363"/>
      <path id="Trazado_160028" data-name="Trazado 160028" d="M33.081,79.482q0,6.018-6.746,6.035-6.747,0-6.746-6.035V55.03h4V79.482q0,2.559,2.75,2.559t2.749-2.559V55.03h4Z" transform="translate(13970.379 -10929.598)" fill="#636363"/>
      <path id="Trazado_160029" data-name="Trazado 160029" d="M29.292,57.362h12.07v3.459H33.285v9.806h6.953V74.1H33.285v9.806h8.077v3.441H29.292Zm11.361-4.669L36.122,55.6H33.684l3.753-3.443h3.217Z" transform="translate(13978.49 -10932)" fill="#636363"/>
      <path id="Trazado_160030" data-name="Trazado 160030" d="M53.259,84.978H47.224L43.714,65.4l-1.555-10.41h4.028l4.047,26.977L54.28,54.992h4.065L56.753,65.437Z" transform="translate(13989.247 -10929.63)" fill="#636363"/>
      <path id="Trazado_160031" data-name="Trazado 160031" d="M66.324,74.551l1.59,10.427H63.849l-.984-6.553h-6.1l-1,6.553h-4.03l1.557-10.392,3.511-19.594H62.83Zm-3.979.4L59.8,58,57.261,74.948Z" transform="translate(13997.246 -10929.63)" fill="#636363"/>
      <path id="Trazado_160032" data-name="Trazado 160032" d="M62.144,84.978V54.992h3.993V81.538h8.077v3.441Z" transform="translate(14005.955 -10929.63)" fill="#636363"/>
      <path id="Trazado_160033" data-name="Trazado 160033" d="M83.62,79.7q0,6.015-6.746,6.035-6.745,0-6.744-6.035V60.784q0-6.018,6.744-6.017t6.746,6.017Zm-4-18.92q0-2.559-2.732-2.559h-.035q-2.735,0-2.732,2.559V79.7q0,2.575,2.749,2.576t2.75-2.576Z" transform="translate(14012.633 -10929.818)" fill="#636363"/>
      <path id="Trazado_160034" data-name="Trazado 160034" d="M79.739,54.992h6.847q6.21.019,6.209,6.035v4.654q0,3.751-4.133,5.1l5.62,14.2h-4.41L85.289,71.336l-1.557.189V84.978H79.739Zm3.993,3.459v9.806h1.695a6.265,6.265,0,0,0,1.662-.156,2.376,2.376,0,0,0,1.711-2.42V61.027q0-2.575-2.732-2.576Z" transform="translate(14020.666 -10929.63)" fill="#636363"/>
      <path id="Trazado_160035" data-name="Trazado 160035" d="M103.913,84.978H97.878L94.367,65.4l-1.555-10.41H96.84l4.047,26.977,4.047-26.977H109l-1.592,10.445Z" transform="translate(14031.594 -10929.63)" fill="#636363"/>
      <path id="Trazado_160036" data-name="Trazado 160036" d="M116.978,74.551l1.59,10.427H114.5l-.984-6.553h-6.1l-1,6.553h-4.03l1.557-10.392,3.511-19.594h6.035Zm-3.979.4L110.458,58l-2.543,16.945Z" transform="translate(14039.596 -10929.63)" fill="#636363"/>
      <path id="Trazado_160037" data-name="Trazado 160037" d="M131.332,74.551l1.59,10.427h-4.065l-.984-6.553h-6.1l-1,6.553h-4.03l1.557-10.392L121.8,54.992h6.035Zm-3.979.4L124.812,58l-2.543,16.945Z" transform="translate(14051.596 -10929.63)" fill="#636363"/>
      <path id="Trazado_160038" data-name="Trazado 160038" d="M145.685,74.551l1.59,10.427h-4.063l-.986-6.553h-6.1l-1,6.553H131.09l1.555-10.392,3.512-19.594h6.035Zm-3.977.4L139.165,58l-2.543,16.945Z" transform="translate(14063.598 -10929.63)" fill="#636363"/>
      <path id="Trazado_160039" data-name="Trazado 160039" d="M141.506,54.992h6.848q6.208.019,6.21,6.035v4.654q0,4.442-4.48,5.723a11.885,11.885,0,0,1-3.217.327H145.5V84.978h-4Zm4,3.459v9.806H147.2a6.249,6.249,0,0,0,1.66-.156,2.377,2.377,0,0,0,1.713-2.42V61.027q0-2.575-2.734-2.576Z" transform="translate(14072.305 -10929.63)" fill="#636363"/>
      <path id="Trazado_160040" data-name="Trazado 160040" d="M163.9,79.7q0,6.015-6.746,6.035-6.742,0-6.744-6.035V60.784q0-6.018,6.744-6.017t6.746,6.017Zm-4-18.92q0-2.559-2.732-2.559h-.035q-2.732,0-2.732,2.559V79.7q0,2.575,2.749,2.576T159.9,79.7Z" transform="translate(14079.748 -10929.818)" fill="#636363"/>
      <path id="Trazado_160041" data-name="Trazado 160041" d="M160.014,54.992h6.848q6.208.019,6.21,6.035v4.654q0,3.751-4.135,5.1l5.62,14.2h-4.408l-4.583-13.642-1.557.189V84.978h-4Zm4,3.459v9.806H165.7a6.249,6.249,0,0,0,1.66-.156,2.377,2.377,0,0,0,1.713-2.42V61.027q0-2.575-2.734-2.576Z" transform="translate(14087.779 -10929.63)" fill="#636363"/>
      <path id="Trazado_160042" data-name="Trazado 160042" d="M181.735,54.992v3.459H177V84.978H173V58.451h-4.757V54.992Z" transform="translate(14094.661 -10929.63)" fill="#636363"/>
      <path id="Trazado_160043" data-name="Trazado 160043" d="M191.036,74.551l1.59,10.427h-4.063l-.986-6.553h-6.1l-1,6.553h-4.028L178,74.586l3.512-19.594h6.035Zm-3.977.4L184.516,58l-2.543,16.945Z" transform="translate(14101.513 -10929.63)" fill="#636363"/>
      <path id="Trazado_160044" data-name="Trazado 160044" d="M186.858,54.992h6.848q6.208.019,6.21,6.035v4.654q0,3.751-4.135,5.1l5.62,14.2h-4.408L192.41,71.336l-1.557.189V84.978h-4Zm4,3.459v9.806h1.695a6.248,6.248,0,0,0,1.66-.156,2.377,2.377,0,0,0,1.713-2.42V61.027q0-2.575-2.734-2.576Z" transform="translate(14110.221 -10929.63)" fill="#636363"/>
      <path id="Trazado_160045" data-name="Trazado 160045" d="M200.779,84.978V54.992h4V81.538h8.075v3.441Z" transform="translate(14121.86 -10929.63)" fill="#636363"/>
      <path id="Trazado_160046" data-name="Trazado 160046" d="M222.7,74.551l1.59,10.427h-4.063l-.986-6.553h-6.1l-1,6.553h-4.028l1.555-10.392,3.512-19.594h6.035Zm-3.977.4L216.181,58l-2.543,16.945Z" transform="translate(14127.985 -10929.63)" fill="#636363"/>
      <rect id="Rect치ngulo_12288" data-name="Rect치ngulo 12288" width="3.995" height="29.986" transform="translate(14364.091 -10874.638)" fill="#636363"/>
      <path id="Trazado_160047" data-name="Trazado 160047" d="M228.027,54.992h7.28q6.21.019,6.209,6.035V78.962q0,6-6.555,6.017h-6.935Zm4,3.459V81.538h2.767q2.732,0,2.732-2.576V61.027q0-2.575-2.732-2.576Z" transform="translate(14144.642 -10929.63)" fill="#636363"/>
      <path id="Trazado_160048" data-name="Trazado 160048" d="M237.634,54.992H249.7v3.459H241.63v9.806h6.951v3.474H241.63v9.806H249.7v3.441h-12.07Z" transform="translate(14152.673 -10929.63)" fill="#636363"/>
      <path id="Trazado_160049" data-name="Trazado 160049" d="M259.934,74.551l1.59,10.427h-4.063l-.986-6.553h-6.1l-1,6.553h-4.028l1.555-10.392,3.512-19.594h6.035Zm-3.977.4L253.414,58l-2.543,16.945Z" transform="translate(14159.114 -10929.63)" fill="#636363"/>
      <path id="Trazado_160050" data-name="Trazado 160050" d="M269.149,62.851a10.473,10.473,0,0,1-3.406,7.627q-3.718,3.718-3.718,6.571V78.38h-3.993V76.618a10.377,10.377,0,0,1,3.406-7.539q3.718-3.685,3.718-6.349V59.324q0-2.925-2.716-2.923H262.4q-2.751,0-2.75,2.923v4.168h-3.993V59.324q0-6.866,6.76-6.865,6.731,0,6.727,6.865ZM257.738,82.359h4.755v4.755h-4.755Z" transform="translate(14167.744 -10931.747)" fill="#636363"/>
    </g>
  </g>
</svg>
