<svg xmlns="http://www.w3.org/2000/svg" width="84" height="84.102" viewBox="0 0 84 84.102">
  <g id="Grupo_72137" data-name="Grupo 72137" transform="translate(-9245.513 8743)">
    <g id="Grupo_72068" data-name="Grupo 72068" transform="translate(350.513)">
      <circle id="Elipse_5371" data-name="Elipse 5371" cx="42" cy="42" r="42" transform="translate(8895 -8743)" fill="#d44f4a"/>
      <path id="Intersecci칩n_1" data-name="Intersecci칩n 1" d="M13.277,80.456c20.575,3.355,59.423,3.549,75.1-37.651a42.009,42.009,0,0,1-75.1,37.651Z" transform="translate(8886.407 -8762.061)" fill="#b1403c"/>
    </g>
    <g id="politica" transform="translate(9268.999 -8725.753)">
      <g id="Grupo_72070" data-name="Grupo 72070" transform="translate(0.001)">
        <g id="Grupo_72069" data-name="Grupo 72069">
          <path id="Trazado_159974" data-name="Trazado 159974" d="M37.207,27.9V5.167A5.174,5.174,0,0,0,32.039,0H9.3a1.034,1.034,0,0,0-.731.3L.3,8.571A1.033,1.033,0,0,0,0,9.3V44.44a5.174,5.174,0,0,0,5.167,5.167H32.039a5.174,5.174,0,0,0,5.167-5.167V42.373H35.14V44.44a3.1,3.1,0,0,1-3.1,3.1H5.168a3.1,3.1,0,0,1-3.1-3.1V9.729L9.73,2.067H32.039a3.1,3.1,0,0,1,3.1,3.1V27.9Z" transform="translate(-0.001)" fill="#fff"/>
        </g>
      </g>
      <g id="Grupo_72072" data-name="Grupo 72072" transform="translate(5.168 1.034)">
        <g id="Grupo_72071" data-name="Grupo 72071">
          <path id="Trazado_159975" data-name="Trazado 159975" d="M56.434,10.667v6.2A1.034,1.034,0,0,1,55.4,17.9H53.334v2.067H55.4a3.1,3.1,0,0,0,3.1-3.1v-6.2Z" transform="translate(-53.334 -10.667)" fill="#fff"/>
        </g>
      </g>
      <g id="Grupo_72074" data-name="Grupo 72074" transform="translate(28.939 21.704)">
        <g id="Grupo_72073" data-name="Grupo 72073">
          <path id="Trazado_159976" data-name="Trazado 159976" d="M319.037,227.166l-2.862-2.862a1.034,1.034,0,0,0-1.461,0l-15.741,15.741a1.034,1.034,0,0,0,0,1.461l2.862,2.862a1.033,1.033,0,0,0,1.461,0l15.741-15.741A1.033,1.033,0,0,0,319.037,227.166Zm-16.472,15.011-1.4-1.4,14.28-14.28,1.4,1.4Z" transform="translate(-298.67 -224.002)" fill="#fff"/>
        </g>
      </g>
      <g id="Grupo_72076" data-name="Grupo 72076" transform="translate(28.939 38.239)">
        <g id="Grupo_72075" data-name="Grupo 72075">
          <path id="Trazado_159977" data-name="Trazado 159977" d="M300.735,396.734v-2.067h-2.067v3.1A1.034,1.034,0,0,0,299.7,398.8h3.1v-2.067Z" transform="translate(-298.668 -394.667)" fill="#fff"/>
        </g>
      </g>
      <g id="Grupo_72078" data-name="Grupo 72078" transform="translate(27.905 4.134)">
        <g id="Grupo_72077" data-name="Grupo 72077">
          <path id="Trazado_159978" data-name="Trazado 159978" d="M290.068,42.667H288v2.067h2.067a1.034,1.034,0,0,1,1.034,1.034v2.067h2.067V45.767A3.1,3.1,0,0,0,290.068,42.667Z" transform="translate(-288.001 -42.667)" fill="#fff"/>
        </g>
      </g>
      <g id="Grupo_72080" data-name="Grupo 72080" transform="translate(9.302 14.469)">
        <g id="Grupo_72079" data-name="Grupo 72079">
          <path id="Trazado_159979" data-name="Trazado 159979" d="M113.57,149.333H97.035A1.034,1.034,0,0,0,96,150.367v14.469a1.033,1.033,0,0,0,.579.93l7.188,3.514a3.139,3.139,0,0,0,1.55.413h0a2.943,2.943,0,0,0,1.465-.379l7.243-3.548a1.033,1.033,0,0,0,.579-.93V150.367A1.034,1.034,0,0,0,113.57,149.333Zm-1.033,14.858-6.722,3.3a1.075,1.075,0,0,1-1.083-.031l-6.664-3.265V151.4h14.469v12.79Z" transform="translate(-96.001 -149.333)" fill="#fff"/>
        </g>
      </g>
      <g id="Grupo_72082" data-name="Grupo 72082" transform="translate(13.739 20.096)">
        <g id="Grupo_72081" data-name="Grupo 72081">
          <path id="Trazado_159980" data-name="Trazado 159980" d="M151.094,207.413l-5.47,5.47-2.37-2.37-1.461,1.461,3.1,3.1a1.033,1.033,0,0,0,1.461,0l6.2-6.2Z" transform="translate(-141.792 -207.413)" fill="#fff"/>
        </g>
      </g>
      <g id="Grupo_72084" data-name="Grupo 72084" transform="translate(17.57 37.206)">
        <g id="Grupo_72083" data-name="Grupo 72083">
          <path id="Trazado_159981" data-name="Trazado 159981" d="M184.434,387.1a1.034,1.034,0,0,1-1.034-1.034V384h-2.067v2.067a3.1,3.1,0,0,0,3.1,3.1h6.2V387.1Z" transform="translate(-181.334 -384)" fill="#fff"/>
        </g>
      </g>
      <g id="Grupo_72086" data-name="Grupo 72086" transform="translate(23.771 4.134)">
        <g id="Grupo_72085" data-name="Grupo 72085">
          <rect id="Rect치ngulo_12278" data-name="Rect치ngulo 12278" width="2.067" height="2.067" fill="#fff"/>
        </g>
      </g>
    </g>
    <path id="Trazado_159982" data-name="Trazado 159982" d="M9258.961-8723.69s7.41-13.471,23.573-15.491" transform="translate(-1.748 2)" fill="none" stroke="#e67a76" stroke-linecap="round" stroke-width="3"/>
  </g>
</svg>
