<svg xmlns="http://www.w3.org/2000/svg" xmlns:xlink="http://www.w3.org/1999/xlink" width="1030" height="246" viewBox="0 0 1030 246">
  <defs>
    <linearGradient id="linear-gradient" x1="0.5" x2="0.5" y2="1" gradientUnits="objectBoundingBox">
      <stop offset="0" stop-color="#d4d4d4"/>
      <stop offset="1" stop-color="#fff"/>
    </linearGradient>
    <linearGradient id="linear-gradient-2" x1="0.5" x2="0.5" y2="1" gradientUnits="objectBoundingBox">
      <stop offset="0" stop-color="#f6f6f6"/>
      <stop offset="1" stop-color="#fff"/>
    </linearGradient>
    <clipPath id="clip-path">
      <rect id="Rectángulo_12337" data-name="Rectángulo 12337" width="55.251" height="193.905" fill="none"/>
    </clipPath>
  </defs>
  <g id="Grupo_72172" data-name="Grupo 72172" transform="translate(-285 -1058)">
    <ellipse id="Elipse_5375" data-name="Elipse 5375" cx="515" cy="96.5" rx="515" ry="96.5" transform="translate(1315 1280) rotate(180)" fill="url(#linear-gradient)"/>
    <g id="Grupo_72171" data-name="Grupo 72171">
      <g id="Grupo_72168" data-name="Grupo 72168" transform="translate(0 4)">
        <g id="Grupo_72167" data-name="Grupo 72167" transform="translate(0.5 -2.137)">
          <rect id="Rectángulo_12300" data-name="Rectángulo 12300" width="239" height="64" transform="translate(842.5 1066.317)" fill="#e8e8e8"/>
          <rect id="Rectángulo_12304" data-name="Rectángulo 12304" width="239" height="64" transform="translate(589.854 1066.317)" fill="#e8e8e8"/>
          <rect id="Rectángulo_12321" data-name="Rectángulo 12321" width="239" height="64" transform="translate(409.463 1147.727)" fill="#e8e8e8"/>
          <rect id="Rectángulo_12309" data-name="Rectángulo 12309" width="239" height="64" transform="translate(337.5 1066.317)" fill="#e8e8e8"/>
          <rect id="Rectángulo_12313" data-name="Rectángulo 12313" width="239" height="64" transform="translate(918.5 1151.317)" fill="#e8e8e8"/>
          <rect id="Rectángulo_12317" data-name="Rectángulo 12317" width="239" height="64" transform="translate(663.981 1151.317)" fill="#e8e8e8"/>
          <rect id="Rectángulo_12325" data-name="Rectángulo 12325" width="239" height="64" transform="translate(1023.5 1229.136)" fill="#e8e8e8"/>
          <rect id="Rectángulo_12329" data-name="Rectángulo 12329" width="239" height="64" transform="translate(772.369 1229.136)" fill="#e8e8e8"/>
          <rect id="Rectángulo_12333" data-name="Rectángulo 12333" width="239" height="64" transform="translate(518.5 1229.136)" fill="#e8e8e8"/>
          <path id="Rectángulo_12301" data-name="Rectángulo 12301" d="M0,0H211a19,19,0,0,1,19,19V38a19,19,0,0,1-19,19H0a0,0,0,0,1,0,0V0A0,0,0,0,1,0,0Z" transform="translate(1077.5 1127) rotate(180)" fill="url(#linear-gradient-2)"/>
          <path id="Rectángulo_12305" data-name="Rectángulo 12305" d="M0,0H211a19,19,0,0,1,19,19V38a19,19,0,0,1-19,19H0a0,0,0,0,1,0,0V0A0,0,0,0,1,0,0Z" transform="translate(824.5 1127) rotate(180)" fill="url(#linear-gradient-2)"/>
          <path id="Rectángulo_12322" data-name="Rectángulo 12322" d="M0,0H211a19,19,0,0,1,19,19V38a19,19,0,0,1-19,19H0a0,0,0,0,1,0,0V0A0,0,0,0,1,0,0Z" transform="translate(644.5 1208) rotate(180)" fill="url(#linear-gradient-2)"/>
          <path id="Rectángulo_12310" data-name="Rectángulo 12310" d="M0,0H211a19,19,0,0,1,19,19V38a19,19,0,0,1-19,19H0a0,0,0,0,1,0,0V0A0,0,0,0,1,0,0Z" transform="translate(572.5 1127) rotate(180)" fill="url(#linear-gradient-2)"/>
          <path id="Rectángulo_12314" data-name="Rectángulo 12314" d="M0,0H211a19,19,0,0,1,19,19V38a19,19,0,0,1-19,19H0a0,0,0,0,1,0,0V0A0,0,0,0,1,0,0Z" transform="translate(1153.5 1212) rotate(180)" fill="url(#linear-gradient-2)"/>
          <path id="Rectángulo_12318" data-name="Rectángulo 12318" d="M0,0H211a19,19,0,0,1,19,19V38a19,19,0,0,1-19,19H0a0,0,0,0,1,0,0V0A0,0,0,0,1,0,0Z" transform="translate(898.5 1212) rotate(180)" fill="url(#linear-gradient-2)"/>
          <path id="Rectángulo_12326" data-name="Rectángulo 12326" d="M0,0H211a19,19,0,0,1,19,19V38a19,19,0,0,1-19,19H0a0,0,0,0,1,0,0V0A0,0,0,0,1,0,0Z" transform="translate(1258.5 1290) rotate(180)" fill="url(#linear-gradient-2)"/>
          <path id="Rectángulo_12330" data-name="Rectángulo 12330" d="M0,0H211a19,19,0,0,1,19,19V38a19,19,0,0,1-19,19H0a0,0,0,0,1,0,0V0A0,0,0,0,1,0,0Z" transform="translate(1006.5 1290) rotate(180)" fill="url(#linear-gradient-2)"/>
          <path id="Rectángulo_12334" data-name="Rectángulo 12334" d="M0,0H211a19,19,0,0,1,19,19V38a19,19,0,0,1-19,19H0a0,0,0,0,1,0,0V0A0,0,0,0,1,0,0Z" transform="translate(753.5 1290) rotate(180)" fill="url(#linear-gradient-2)"/>
          <g id="Grupo_72161" data-name="Grupo 72161" transform="translate(-14667.488 11306)">
            <path id="Trazado_160231" data-name="Trazado 160231" d="M774.43,8.1h-2.342V12.75h-2.1V.664h4.25a4.942,4.942,0,0,1,3.229.938A3.32,3.32,0,0,1,778.6,4.319a3.41,3.41,0,0,1-.585,2.031,3.73,3.73,0,0,1-1.631,1.259l2.714,5.032v.109h-2.249Zm-2.342-1.693h2.158a2.4,2.4,0,0,0,1.66-.535,1.869,1.869,0,0,0,.6-1.466,1.987,1.987,0,0,0-.552-1.5,2.345,2.345,0,0,0-1.647-.548h-2.217Z" transform="translate(14593 -10129)" fill="#995754"/>
            <path id="Trazado_160232" data-name="Trazado 160232" d="M784.356,12.916a4.171,4.171,0,0,1-3.108-1.208,4.379,4.379,0,0,1-1.191-3.216v-.25a5.382,5.382,0,0,1,.519-2.4,3.949,3.949,0,0,1,1.456-1.648,3.853,3.853,0,0,1,2.092-.589,3.523,3.523,0,0,1,2.835,1.17,4.949,4.949,0,0,1,1,3.312V8.9h-5.869a2.688,2.688,0,0,0,.743,1.759,2.227,2.227,0,0,0,1.639.648,2.734,2.734,0,0,0,2.258-1.121l1.087,1.038a3.634,3.634,0,0,1-1.44,1.249,4.512,4.512,0,0,1-2.022.444m-.24-7.7a1.7,1.7,0,0,0-1.341.581,3.016,3.016,0,0,0-.651,1.619h3.844V7.272a2.453,2.453,0,0,0-.54-1.531,1.684,1.684,0,0,0-1.312-.52" transform="translate(14593 -10129)" fill="#995754"/>
            <rect id="Rectángulo_12297" data-name="Rectángulo 12297" width="2.018" height="12.75" transform="translate(15382.652 -10129)" fill="#995754"/>
            <path id="Trazado_160233" data-name="Trazado 160233" d="M799.233,12.75a3.119,3.119,0,0,1-.233-.839,3.138,3.138,0,0,1-2.357,1.005,3.174,3.174,0,0,1-2.209-.772,2.473,2.473,0,0,1-.855-1.909,2.55,2.55,0,0,1,1.067-2.2,5.169,5.169,0,0,1,3.051-.768h1.237V6.674a1.572,1.572,0,0,0-.391-1.116,1.54,1.54,0,0,0-1.187-.42,1.777,1.777,0,0,0-1.129.345,1.066,1.066,0,0,0-.44.876H793.77a2.237,2.237,0,0,1,.49-1.382,3.25,3.25,0,0,1,1.332-1.009,4.676,4.676,0,0,1,1.881-.365,3.76,3.76,0,0,1,2.515.793,2.826,2.826,0,0,1,.963,2.228v4.051a4.591,4.591,0,0,0,.34,1.934v.141ZM797.016,11.3a2.305,2.305,0,0,0,1.125-.29,1.948,1.948,0,0,0,.793-.78V8.533h-1.088a2.973,2.973,0,0,0-1.685.39,1.266,1.266,0,0,0-.565,1.1,1.179,1.179,0,0,0,.387.926,1.491,1.491,0,0,0,1.033.344" transform="translate(14593 -10129)" fill="#995754"/>
            <path id="Trazado_160234" data-name="Trazado 160234" d="M806.752,11.306a1.821,1.821,0,0,0,1.254-.44,1.5,1.5,0,0,0,.531-1.087h1.9a2.965,2.965,0,0,1-.523,1.564,3.434,3.434,0,0,1-1.328,1.15,3.961,3.961,0,0,1-1.81.423,3.832,3.832,0,0,1-2.988-1.22,4.84,4.84,0,0,1-1.1-3.37V8.118a4.763,4.763,0,0,1,1.1-3.283A3.8,3.8,0,0,1,806.77,3.6a3.693,3.693,0,0,1,2.61.933,3.354,3.354,0,0,1,1.058,2.454h-1.9a1.849,1.849,0,0,0-.527-1.271,1.7,1.7,0,0,0-1.258-.5,1.775,1.775,0,0,0-1.51.71,3.627,3.627,0,0,0-.54,2.154v.324a3.677,3.677,0,0,0,.528,2.179,1.77,1.77,0,0,0,1.522.718" transform="translate(14593 -10129)" fill="#995754"/>
            <path id="Trazado_160235" data-name="Trazado 160235" d="M811.965,1.436a1.067,1.067,0,0,1,.295-.772A1.111,1.111,0,0,1,813.1.357a1.124,1.124,0,0,1,.846.307,1.062,1.062,0,0,1,.3.772,1.04,1.04,0,0,1-.3.76,1.134,1.134,0,0,1-.846.3,1.12,1.12,0,0,1-.843-.3,1.045,1.045,0,0,1-.295-.76m2.142,11.314h-2.018V3.769h2.018Z" transform="translate(14593 -10129)" fill="#995754"/>
            <path id="Trazado_160236" data-name="Trazado 160236" d="M815.925,8.176a5.291,5.291,0,0,1,.523-2.378,3.819,3.819,0,0,1,1.47-1.627,4.134,4.134,0,0,1,2.173-.568,3.924,3.924,0,0,1,2.952,1.17,4.6,4.6,0,0,1,1.224,3.1l.008.474a5.349,5.349,0,0,1-.51,2.374,3.776,3.776,0,0,1-1.461,1.618,4.165,4.165,0,0,1-2.2.573,3.9,3.9,0,0,1-3.043-1.265,4.851,4.851,0,0,1-1.141-3.375Zm2.017.175a3.615,3.615,0,0,0,.573,2.171,1.862,1.862,0,0,0,1.594.784,1.842,1.842,0,0,0,1.589-.8,4,4,0,0,0,.569-2.333,3.567,3.567,0,0,0-.586-2.158,1.972,1.972,0,0,0-3.158-.012,3.916,3.916,0,0,0-.581,2.345" transform="translate(14593 -10129)" fill="#995754"/>
            <path id="Trazado_160237" data-name="Trazado 160237" d="M827.852,3.769l.058,1.037a3.231,3.231,0,0,1,2.615-1.2q2.8,0,2.855,3.212V12.75h-2.017V6.931a1.855,1.855,0,0,0-.369-1.266,1.556,1.556,0,0,0-1.207-.411,1.945,1.945,0,0,0-1.819,1.105V12.75h-2.017V3.769Z" transform="translate(14593 -10129)" fill="#995754"/>
            <path id="Trazado_160238" data-name="Trazado 160238" d="M839.39,12.916a4.171,4.171,0,0,1-3.108-1.208,4.379,4.379,0,0,1-1.191-3.216v-.25a5.382,5.382,0,0,1,.519-2.4,3.949,3.949,0,0,1,1.456-1.648,3.853,3.853,0,0,1,2.092-.589,3.523,3.523,0,0,1,2.835,1.17,4.949,4.949,0,0,1,1,3.312V8.9h-5.869a2.688,2.688,0,0,0,.743,1.759,2.227,2.227,0,0,0,1.639.648,2.734,2.734,0,0,0,2.258-1.121l1.087,1.038a3.634,3.634,0,0,1-1.44,1.249,4.512,4.512,0,0,1-2.022.444m-.24-7.7a1.7,1.7,0,0,0-1.341.581,3.016,3.016,0,0,0-.651,1.619H841V7.272a2.453,2.453,0,0,0-.54-1.531,1.684,1.684,0,0,0-1.312-.52" transform="translate(14593 -10129)" fill="#995754"/>
            <path id="Trazado_160239" data-name="Trazado 160239" d="M849.594,10.31a.914.914,0,0,0-.444-.822,4.728,4.728,0,0,0-1.474-.5,7.57,7.57,0,0,1-1.719-.548,2.291,2.291,0,0,1-1.509-2.116,2.391,2.391,0,0,1,.978-1.943,3.873,3.873,0,0,1,2.49-.78,4.031,4.031,0,0,1,2.6.8,2.528,2.528,0,0,1,.992,2.066h-2.017a1.248,1.248,0,0,0-.431-.967,1.662,1.662,0,0,0-1.147-.385,1.794,1.794,0,0,0-1.083.306.971.971,0,0,0-.419.823.815.815,0,0,0,.391.721,5.356,5.356,0,0,0,1.576.52,7.479,7.479,0,0,1,1.864.622,2.632,2.632,0,0,1,1,.867,2.21,2.21,0,0,1,.328,1.229,2.341,2.341,0,0,1-1,1.963,4.285,4.285,0,0,1-2.631.751,4.632,4.632,0,0,1-1.967-.4,3.241,3.241,0,0,1-1.346-1.1,2.6,2.6,0,0,1-.48-1.5h1.959a1.421,1.421,0,0,0,.539,1.1,2.1,2.1,0,0,0,1.32.386,2.043,2.043,0,0,0,1.211-.3.939.939,0,0,0,.416-.793" transform="translate(14593 -10129)" fill="#995754"/>
            <path id="Trazado_160240" data-name="Trazado 160240" d="M861.255,11.306a1.821,1.821,0,0,0,1.254-.44,1.5,1.5,0,0,0,.531-1.087h1.9a2.966,2.966,0,0,1-.523,1.564,3.435,3.435,0,0,1-1.328,1.15,3.961,3.961,0,0,1-1.81.423,3.832,3.832,0,0,1-2.988-1.22,4.841,4.841,0,0,1-1.1-3.37V8.118a4.763,4.763,0,0,1,1.095-3.283A3.8,3.8,0,0,1,861.273,3.6a3.693,3.693,0,0,1,2.61.933,3.354,3.354,0,0,1,1.058,2.454h-1.9a1.849,1.849,0,0,0-.527-1.271,1.7,1.7,0,0,0-1.258-.5,1.775,1.775,0,0,0-1.51.71,3.627,3.627,0,0,0-.54,2.154v.324a3.677,3.677,0,0,0,.528,2.179,1.77,1.77,0,0,0,1.522.718" transform="translate(14593 -10129)" fill="#995754"/>
            <path id="Trazado_160241" data-name="Trazado 160241" d="M866.086,8.176a5.291,5.291,0,0,1,.523-2.378,3.819,3.819,0,0,1,1.47-1.627,4.138,4.138,0,0,1,2.174-.568,3.922,3.922,0,0,1,2.951,1.17,4.6,4.6,0,0,1,1.224,3.1l.008.474a5.362,5.362,0,0,1-.509,2.374,3.782,3.782,0,0,1-1.461,1.618,4.17,4.17,0,0,1-2.2.573,3.9,3.9,0,0,1-3.044-1.265,4.851,4.851,0,0,1-1.141-3.375Zm2.018.175a3.608,3.608,0,0,0,.573,2.171,1.86,1.86,0,0,0,1.594.784,1.84,1.84,0,0,0,1.588-.8,4,4,0,0,0,.569-2.333,3.567,3.567,0,0,0-.586-2.158,1.971,1.971,0,0,0-3.157-.012,3.916,3.916,0,0,0-.581,2.345" transform="translate(14593 -10129)" fill="#995754"/>
            <path id="Trazado_160242" data-name="Trazado 160242" d="M878.015,3.769l.058,1.037a3.231,3.231,0,0,1,2.615-1.2q2.8,0,2.855,3.212V12.75h-2.017V6.931a1.855,1.855,0,0,0-.369-1.266,1.556,1.556,0,0,0-1.207-.411,1.945,1.945,0,0,0-1.819,1.105V12.75h-2.017V3.769Z" transform="translate(14593 -10129)" fill="#995754"/>
            <path id="Trazado_160243" data-name="Trazado 160243" d="M893.519,11.306a1.821,1.821,0,0,0,1.254-.44,1.5,1.5,0,0,0,.531-1.087h1.9a2.966,2.966,0,0,1-.523,1.564,3.434,3.434,0,0,1-1.328,1.15,3.961,3.961,0,0,1-1.81.423,3.832,3.832,0,0,1-2.988-1.22,4.84,4.84,0,0,1-1.1-3.37V8.118a4.763,4.763,0,0,1,1.095-3.283A3.8,3.8,0,0,1,893.537,3.6a3.693,3.693,0,0,1,2.61.933,3.354,3.354,0,0,1,1.058,2.454h-1.9a1.849,1.849,0,0,0-.527-1.271,1.7,1.7,0,0,0-1.258-.5,1.775,1.775,0,0,0-1.51.71,3.628,3.628,0,0,0-.54,2.154v.324A3.677,3.677,0,0,0,892,10.588a1.77,1.77,0,0,0,1.522.718" transform="translate(14593 -10129)" fill="#995754"/>
            <rect id="Rectángulo_12298" data-name="Rectángulo 12298" width="2.018" height="12.75" transform="translate(15491.857 -10129)" fill="#995754"/>
            <path id="Trazado_160244" data-name="Trazado 160244" d="M903.074,1.436a1.071,1.071,0,0,1,.3-.772,1.113,1.113,0,0,1,.843-.307,1.128,1.128,0,0,1,.847.307,1.061,1.061,0,0,1,.3.772,1.04,1.04,0,0,1-.3.76,1.138,1.138,0,0,1-.847.3,1.122,1.122,0,0,1-.843-.3,1.049,1.049,0,0,1-.3-.76m2.143,11.314H903.2V3.769h2.018Z" transform="translate(14593 -10129)" fill="#995754"/>
            <path id="Trazado_160245" data-name="Trazado 160245" d="M911.367,12.916a4.171,4.171,0,0,1-3.108-1.208,4.379,4.379,0,0,1-1.191-3.216v-.25a5.383,5.383,0,0,1,.519-2.4,3.949,3.949,0,0,1,1.456-1.648,3.853,3.853,0,0,1,2.092-.589,3.523,3.523,0,0,1,2.835,1.17,4.949,4.949,0,0,1,1,3.312V8.9H909.1a2.688,2.688,0,0,0,.743,1.759,2.227,2.227,0,0,0,1.639.648,2.734,2.734,0,0,0,2.258-1.121l1.087,1.038a3.634,3.634,0,0,1-1.44,1.249,4.512,4.512,0,0,1-2.022.444m-.24-7.7a1.7,1.7,0,0,0-1.341.581,3.016,3.016,0,0,0-.651,1.619h3.844V7.272a2.453,2.453,0,0,0-.54-1.531,1.684,1.684,0,0,0-1.312-.52" transform="translate(14593 -10129)" fill="#995754"/>
            <path id="Trazado_160246" data-name="Trazado 160246" d="M918.406,3.769l.058,1.037a3.231,3.231,0,0,1,2.615-1.2q2.8,0,2.855,3.212V12.75h-2.017V6.931a1.855,1.855,0,0,0-.369-1.266,1.556,1.556,0,0,0-1.207-.411,1.945,1.945,0,0,0-1.819,1.105V12.75h-2.017V3.769Z" transform="translate(14593 -10129)" fill="#995754"/>
            <path id="Trazado_160247" data-name="Trazado 160247" d="M928.516,1.585V3.769H930.1V5.263h-1.586v5.013a1.107,1.107,0,0,0,.2.744.949.949,0,0,0,.726.227,3.083,3.083,0,0,0,.706-.083v1.561a4.942,4.942,0,0,1-1.328.191q-2.325,0-2.325-2.565V5.263h-1.477V3.769H926.5V1.585Z" transform="translate(14593 -10129)" fill="#995754"/>
            <path id="Trazado_160248" data-name="Trazado 160248" d="M935.6,12.916a4.171,4.171,0,0,1-3.108-1.208A4.379,4.379,0,0,1,931.3,8.492v-.25a5.382,5.382,0,0,1,.519-2.4,3.949,3.949,0,0,1,1.456-1.648,3.853,3.853,0,0,1,2.092-.589,3.523,3.523,0,0,1,2.835,1.17,4.949,4.949,0,0,1,1,3.312V8.9h-5.869a2.688,2.688,0,0,0,.743,1.759,2.227,2.227,0,0,0,1.639.648,2.734,2.734,0,0,0,2.258-1.121l1.087,1.038a3.634,3.634,0,0,1-1.44,1.249,4.512,4.512,0,0,1-2.022.444m-.24-7.7a1.7,1.7,0,0,0-1.341.581,3.016,3.016,0,0,0-.651,1.619h3.844V7.272a2.453,2.453,0,0,0-.54-1.531,1.684,1.684,0,0,0-1.312-.52" transform="translate(14593 -10129)" fill="#995754"/>
            <path id="Trazado_160249" data-name="Trazado 160249" d="M945.8,10.31a.914.914,0,0,0-.444-.822,4.726,4.726,0,0,0-1.474-.5,7.57,7.57,0,0,1-1.719-.548,2.291,2.291,0,0,1-1.509-2.116,2.391,2.391,0,0,1,.978-1.943,3.873,3.873,0,0,1,2.49-.78,4.031,4.031,0,0,1,2.6.8,2.528,2.528,0,0,1,.992,2.066H945.7a1.248,1.248,0,0,0-.431-.967,1.663,1.663,0,0,0-1.147-.385,1.794,1.794,0,0,0-1.083.306.97.97,0,0,0-.419.823.815.815,0,0,0,.391.721,5.355,5.355,0,0,0,1.576.52,7.479,7.479,0,0,1,1.864.622,2.632,2.632,0,0,1,1,.867,2.21,2.21,0,0,1,.328,1.229,2.341,2.341,0,0,1-1,1.963,4.285,4.285,0,0,1-2.631.751,4.632,4.632,0,0,1-1.967-.4,3.242,3.242,0,0,1-1.346-1.1,2.6,2.6,0,0,1-.48-1.5h1.959a1.421,1.421,0,0,0,.539,1.1,2.1,2.1,0,0,0,1.32.386,2.043,2.043,0,0,0,1.211-.3.939.939,0,0,0,.416-.793" transform="translate(14593 -10129)" fill="#995754"/>
          </g>
          <rect id="Rectángulo_12302" data-name="Rectángulo 12302" width="16" height="78" transform="translate(842.5 1059.317)" fill="#d44f4a"/>
          <rect id="Rectángulo_12307" data-name="Rectángulo 12307" width="16" height="78" transform="translate(589.854 1059.317)" fill="#fa9300"/>
          <rect id="Rectángulo_12323" data-name="Rectángulo 12323" width="16" height="78" transform="translate(409.463 1140.727)" fill="#fa9300"/>
          <rect id="Rectángulo_12311" data-name="Rectángulo 12311" width="16" height="78" transform="translate(337.5 1059.317)" fill="#edc596"/>
          <rect id="Rectángulo_12315" data-name="Rectángulo 12315" width="16" height="78" transform="translate(918.5 1144.317)" fill="#edc596"/>
          <rect id="Rectángulo_12319" data-name="Rectángulo 12319" width="16" height="78" transform="translate(663.981 1144.317)" fill="#d44f4a"/>
          <rect id="Rectángulo_12327" data-name="Rectángulo 12327" width="16" height="78" transform="translate(1023.5 1222.136)" fill="#ffc200"/>
          <rect id="Rectángulo_12331" data-name="Rectángulo 12331" width="16" height="78" transform="translate(772.369 1222.136)" fill="#edc596"/>
          <rect id="Rectángulo_12335" data-name="Rectángulo 12335" width="16" height="78" transform="translate(518.5 1222.136)" fill="#d44f4a"/>
          <path id="Trazado_160250" data-name="Trazado 160250" d="M15978.246-10627l-3.388-7.181v7.181Z" transform="translate(-15116.5 11693.317)" fill="#8f2925"/>
          <path id="Trazado_160253" data-name="Trazado 160253" d="M15978.246-10627l-3.388-7.181v7.181Z" transform="translate(-15369.146 11693.317)" fill="#8f2925"/>
          <path id="Trazado_160260" data-name="Trazado 160260" d="M15978.246-10627l-3.388-7.181v7.181Z" transform="translate(-15549.537 11774.727)" fill="#8f2925"/>
          <path id="Trazado_160255" data-name="Trazado 160255" d="M15978.246-10627l-3.388-7.181v7.181Z" transform="translate(-15621.5 11693.317)" fill="#8f2925"/>
          <path id="Trazado_160257" data-name="Trazado 160257" d="M15978.246-10627l-3.388-7.181v7.181Z" transform="translate(-15040.5 11778.317)" fill="#8f2925"/>
          <path id="Trazado_160259" data-name="Trazado 160259" d="M15978.246-10627l-3.388-7.181v7.181Z" transform="translate(-15295.019 11778.317)" fill="#8f2925"/>
          <path id="Trazado_160263" data-name="Trazado 160263" d="M15978.246-10627l-3.388-7.181v7.181Z" transform="translate(-14935.5 11856.136)" fill="#8f2925"/>
          <path id="Trazado_160265" data-name="Trazado 160265" d="M15978.246-10627l-3.388-7.181v7.181Z" transform="translate(-15186.631 11856.136)" fill="#8f2925"/>
          <path id="Trazado_160267" data-name="Trazado 160267" d="M15978.246-10627l-3.388-7.181v7.181Z" transform="translate(-15440.5 11856.136)" fill="#8f2925"/>
          <path id="Trazado_160251" data-name="Trazado 160251" d="M3.388,0,0,7.181V0Z" transform="translate(858.5 1130.138)" fill="#8f2925"/>
          <path id="Trazado_160252" data-name="Trazado 160252" d="M3.388,0,0,7.181V0Z" transform="translate(605.854 1130.138)" fill="#8f2925"/>
          <path id="Trazado_160261" data-name="Trazado 160261" d="M3.388,0,0,7.181V0Z" transform="translate(425.463 1211.547)" fill="#8f2925"/>
          <path id="Trazado_160254" data-name="Trazado 160254" d="M3.388,0,0,7.181V0Z" transform="translate(353.5 1130.138)" fill="#8f2925"/>
          <path id="Trazado_160256" data-name="Trazado 160256" d="M3.388,0,0,7.181V0Z" transform="translate(934.5 1215.138)" fill="#8f2925"/>
          <path id="Trazado_160258" data-name="Trazado 160258" d="M3.388,0,0,7.181V0Z" transform="translate(679.981 1215.138)" fill="#8f2925"/>
          <path id="Trazado_160262" data-name="Trazado 160262" d="M3.388,0,0,7.181V0Z" transform="translate(1039.5 1292.956)" fill="#8f2925"/>
          <path id="Trazado_160264" data-name="Trazado 160264" d="M3.388,0,0,7.181V0Z" transform="translate(788.369 1292.956)" fill="#8f2925"/>
          <path id="Trazado_160266" data-name="Trazado 160266" d="M3.388,0,0,7.181V0Z" transform="translate(534.5 1292.956)" fill="#8f2925"/>
          <rect id="Rectángulo_12303" data-name="Rectángulo 12303" width="20" height="20" transform="translate(1061.5 1117.317)" fill="#d44f4a"/>
          <rect id="Rectángulo_12306" data-name="Rectángulo 12306" width="20" height="20" transform="translate(808.854 1117.317)" fill="#ffc200"/>
          <rect id="Rectángulo_12320" data-name="Rectángulo 12320" width="20" height="20" transform="translate(628.463 1198.727)" fill="#ffc200"/>
          <rect id="Rectángulo_12308" data-name="Rectángulo 12308" width="20" height="20" transform="translate(556.5 1117.317)" fill="#edc596"/>
          <rect id="Rectángulo_12312" data-name="Rectángulo 12312" width="20" height="20" transform="translate(1137.5 1202.317)" fill="#edc596"/>
          <rect id="Rectángulo_12316" data-name="Rectángulo 12316" width="20" height="20" transform="translate(882.981 1202.317)" fill="#d44f4a"/>
          <rect id="Rectángulo_12324" data-name="Rectángulo 12324" width="20" height="20" transform="translate(1242.5 1280.136)" fill="#ffc200"/>
          <rect id="Rectángulo_12328" data-name="Rectángulo 12328" width="20" height="20" transform="translate(991.369 1280.136)" fill="#edc596"/>
          <rect id="Rectángulo_12332" data-name="Rectángulo 12332" width="20" height="20" transform="translate(737.5 1280.136)" fill="#d44f4a"/>
          <g id="Grupo_72160" data-name="Grupo 72160" transform="translate(-14709.846 11301)">
            <path id="Trazado_160215" data-name="Trazado 160215" d="M573.446,8.267V12.75h-2.1V.664h4.623a4.673,4.673,0,0,1,3.217,1.055,3.55,3.55,0,0,1,1.192,2.792,3.431,3.431,0,0,1-1.166,2.767,4.906,4.906,0,0,1-3.267.989Zm0-1.693h2.523a2.489,2.489,0,0,0,1.711-.527,1.939,1.939,0,0,0,.589-1.524,2.091,2.091,0,0,0-.6-1.564,2.307,2.307,0,0,0-1.644-.6h-2.582Z" transform="translate(14593 -10129)" fill="#995754"/>
            <path id="Trazado_160216" data-name="Trazado 160216" d="M586.72,5.611a4.921,4.921,0,0,0-.822-.066,1.847,1.847,0,0,0-1.867,1.062V12.75h-2.018V3.768h1.926l.05,1a2.273,2.273,0,0,1,2.025-1.17,1.881,1.881,0,0,1,.714.116Z" transform="translate(14593 -10129)" fill="#995754"/>
            <path id="Trazado_160217" data-name="Trazado 160217" d="M587.317,8.176A5.291,5.291,0,0,1,587.84,5.8a3.819,3.819,0,0,1,1.47-1.627,4.134,4.134,0,0,1,2.173-.568,3.924,3.924,0,0,1,2.952,1.17,4.6,4.6,0,0,1,1.224,3.1l.008.474a5.348,5.348,0,0,1-.51,2.374,3.776,3.776,0,0,1-1.461,1.618,4.165,4.165,0,0,1-2.2.573,3.9,3.9,0,0,1-3.043-1.265,4.851,4.851,0,0,1-1.141-3.375Zm2.017.175a3.615,3.615,0,0,0,.573,2.171,1.862,1.862,0,0,0,1.594.784,1.842,1.842,0,0,0,1.589-.8,4,4,0,0,0,.569-2.333,3.567,3.567,0,0,0-.586-2.158,1.972,1.972,0,0,0-3.158-.012,3.916,3.916,0,0,0-.581,2.345" transform="translate(14593 -10129)" fill="#995754"/>
            <path id="Trazado_160218" data-name="Trazado 160218" d="M605.24,8.351a5.34,5.34,0,0,1-.948,3.324,3.285,3.285,0,0,1-4.9.27V16.2H597.37V3.769h1.859l.084.913A2.957,2.957,0,0,1,601.727,3.6,3.063,3.063,0,0,1,604.3,4.827a5.5,5.5,0,0,1,.935,3.4Zm-2.009-.175a3.746,3.746,0,0,0-.536-2.133,1.74,1.74,0,0,0-1.531-.789,1.855,1.855,0,0,0-1.776,1.022V10.26a1.873,1.873,0,0,0,1.792,1.046,1.738,1.738,0,0,0,1.507-.776,4.13,4.13,0,0,0,.544-2.354" transform="translate(14593 -10129)" fill="#995754"/>
            <path id="Trazado_160219" data-name="Trazado 160219" d="M612.386,11.87a3.13,3.13,0,0,1-2.523,1.046,2.785,2.785,0,0,1-2.212-.856,3.633,3.633,0,0,1-.751-2.473V3.768h2.016V9.562q0,1.71,1.419,1.71a1.993,1.993,0,0,0,1.985-1.054V3.768h2.017V12.75h-1.9Z" transform="translate(14593 -10129)" fill="#995754"/>
            <path id="Trazado_160220" data-name="Trazado 160220" d="M620.346,12.916a4.171,4.171,0,0,1-3.109-1.208,4.378,4.378,0,0,1-1.19-3.216v-.25a5.382,5.382,0,0,1,.518-2.4,3.949,3.949,0,0,1,1.456-1.648,3.856,3.856,0,0,1,2.093-.589,3.523,3.523,0,0,1,2.834,1.17,4.949,4.949,0,0,1,1,3.312V8.9h-5.869a2.687,2.687,0,0,0,.742,1.759,2.231,2.231,0,0,0,1.64.648,2.736,2.736,0,0,0,2.258-1.121l1.086,1.038a3.627,3.627,0,0,1-1.44,1.249,4.508,4.508,0,0,1-2.021.444m-.24-7.7a1.7,1.7,0,0,0-1.341.581,3.008,3.008,0,0,0-.651,1.619h3.844V7.272a2.459,2.459,0,0,0-.541-1.531,1.682,1.682,0,0,0-1.311-.52" transform="translate(14593 -10129)" fill="#995754"/>
            <path id="Trazado_160221" data-name="Trazado 160221" d="M630.548,10.31a.914.914,0,0,0-.444-.822,4.727,4.727,0,0,0-1.474-.5,7.568,7.568,0,0,1-1.719-.548A2.291,2.291,0,0,1,625.4,6.326a2.391,2.391,0,0,1,.978-1.943,3.873,3.873,0,0,1,2.49-.78,4.031,4.031,0,0,1,2.6.8,2.529,2.529,0,0,1,.992,2.066h-2.017a1.248,1.248,0,0,0-.431-.967,1.663,1.663,0,0,0-1.147-.385,1.794,1.794,0,0,0-1.083.306.971.971,0,0,0-.419.823.815.815,0,0,0,.391.721,5.356,5.356,0,0,0,1.576.52,7.479,7.479,0,0,1,1.864.622,2.632,2.632,0,0,1,1,.867,2.21,2.21,0,0,1,.328,1.229,2.341,2.341,0,0,1-1,1.963,4.285,4.285,0,0,1-2.631.751,4.632,4.632,0,0,1-1.967-.4,3.241,3.241,0,0,1-1.346-1.1,2.6,2.6,0,0,1-.48-1.5h1.959a1.42,1.42,0,0,0,.539,1.1,2.1,2.1,0,0,0,1.32.386,2.043,2.043,0,0,0,1.211-.3.939.939,0,0,0,.416-.793" transform="translate(14593 -10129)" fill="#995754"/>
            <path id="Trazado_160222" data-name="Trazado 160222" d="M636.815,1.585V3.769H638.4V5.263h-1.586v5.013a1.112,1.112,0,0,0,.2.744.949.949,0,0,0,.727.227,3.09,3.09,0,0,0,.706-.083v1.561a4.955,4.955,0,0,1-1.329.191q-2.324,0-2.325-2.565V5.263H633.32V3.769H634.8V1.585Z" transform="translate(14593 -10129)" fill="#995754"/>
            <path id="Trazado_160223" data-name="Trazado 160223" d="M645.308,12.75a3.119,3.119,0,0,1-.233-.839,3.138,3.138,0,0,1-2.357,1.005,3.174,3.174,0,0,1-2.209-.772,2.474,2.474,0,0,1-.855-1.909,2.55,2.55,0,0,1,1.067-2.2,5.169,5.169,0,0,1,3.051-.768h1.237V6.674a1.572,1.572,0,0,0-.391-1.116,1.54,1.54,0,0,0-1.187-.42,1.777,1.777,0,0,0-1.129.345,1.066,1.066,0,0,0-.44.876h-2.017a2.237,2.237,0,0,1,.49-1.382,3.25,3.25,0,0,1,1.332-1.009,4.675,4.675,0,0,1,1.881-.365,3.761,3.761,0,0,1,2.515.793,2.826,2.826,0,0,1,.963,2.228v4.051a4.59,4.59,0,0,0,.34,1.934v.141ZM643.091,11.3a2.305,2.305,0,0,0,1.125-.29,1.948,1.948,0,0,0,.793-.78V8.533h-1.088a2.973,2.973,0,0,0-1.685.39,1.266,1.266,0,0,0-.565,1.1,1.179,1.179,0,0,0,.387.926,1.491,1.491,0,0,0,1.033.344" transform="translate(14593 -10129)" fill="#995754"/>
            <path id="Trazado_160224" data-name="Trazado 160224" d="M654.173,10.31a.914.914,0,0,0-.444-.822,4.727,4.727,0,0,0-1.474-.5,7.568,7.568,0,0,1-1.719-.548,2.291,2.291,0,0,1-1.509-2.116,2.391,2.391,0,0,1,.978-1.943,3.873,3.873,0,0,1,2.49-.78,4.031,4.031,0,0,1,2.6.8,2.529,2.529,0,0,1,.992,2.066h-2.017a1.248,1.248,0,0,0-.431-.967,1.663,1.663,0,0,0-1.147-.385,1.794,1.794,0,0,0-1.083.306.971.971,0,0,0-.419.823.815.815,0,0,0,.391.721,5.356,5.356,0,0,0,1.576.52,7.479,7.479,0,0,1,1.864.622,2.632,2.632,0,0,1,1,.867,2.21,2.21,0,0,1,.328,1.229,2.341,2.341,0,0,1-1,1.963,4.285,4.285,0,0,1-2.631.751,4.632,4.632,0,0,1-1.967-.4,3.241,3.241,0,0,1-1.346-1.1,2.6,2.6,0,0,1-.48-1.5h1.959a1.42,1.42,0,0,0,.539,1.1,2.1,2.1,0,0,0,1.32.386,2.043,2.043,0,0,0,1.211-.3.939.939,0,0,0,.416-.793" transform="translate(14593 -10129)" fill="#995754"/>
            <path id="Trazado_160225" data-name="Trazado 160225" d="M661.767,8.192a5.337,5.337,0,0,1,.963-3.332A3.083,3.083,0,0,1,665.311,3.6a2.933,2.933,0,0,1,2.308,1V0h2.018V12.75H667.81l-.1-.93a2.974,2.974,0,0,1-2.416,1.1,3.068,3.068,0,0,1-2.553-1.271,5.534,5.534,0,0,1-.975-3.453m2.017.175a3.747,3.747,0,0,0,.527,2.138,1.712,1.712,0,0,0,1.5.767,1.905,1.905,0,0,0,1.81-1.1V6.333a1.877,1.877,0,0,0-1.793-1.079,1.725,1.725,0,0,0-1.511.776,4.166,4.166,0,0,0-.531,2.337" transform="translate(14593 -10129)" fill="#995754"/>
            <path id="Trazado_160226" data-name="Trazado 160226" d="M675.7,12.916a4.171,4.171,0,0,1-3.108-1.208A4.379,4.379,0,0,1,671.4,8.492v-.25a5.382,5.382,0,0,1,.519-2.4,3.949,3.949,0,0,1,1.456-1.648,3.853,3.853,0,0,1,2.092-.589,3.523,3.523,0,0,1,2.835,1.17,4.949,4.949,0,0,1,1,3.312V8.9H673.43a2.688,2.688,0,0,0,.743,1.759,2.227,2.227,0,0,0,1.639.648,2.734,2.734,0,0,0,2.258-1.121l1.087,1.038a3.634,3.634,0,0,1-1.44,1.249,4.512,4.512,0,0,1-2.022.444m-.24-7.7a1.7,1.7,0,0,0-1.341.581,3.016,3.016,0,0,0-.651,1.619h3.844V7.272a2.453,2.453,0,0,0-.54-1.531,1.684,1.684,0,0,0-1.312-.52" transform="translate(14593 -10129)" fill="#995754"/>
            <path id="Trazado_160227" data-name="Trazado 160227" d="M688.264,10.193l1.9-6.425h2.083l-3.112,8.982h-1.752l-3.138-8.982h2.092Z" transform="translate(14593 -10129)" fill="#995754"/>
            <path id="Trazado_160228" data-name="Trazado 160228" d="M698.747,12.75a3.119,3.119,0,0,1-.233-.839,3.138,3.138,0,0,1-2.357,1.005,3.174,3.174,0,0,1-2.209-.772,2.474,2.474,0,0,1-.855-1.909,2.55,2.55,0,0,1,1.067-2.2,5.169,5.169,0,0,1,3.051-.768h1.237V6.674a1.572,1.572,0,0,0-.391-1.116,1.54,1.54,0,0,0-1.187-.42,1.777,1.777,0,0,0-1.129.345,1.066,1.066,0,0,0-.44.876h-2.017a2.237,2.237,0,0,1,.49-1.382,3.25,3.25,0,0,1,1.332-1.009,4.675,4.675,0,0,1,1.881-.365A3.761,3.761,0,0,1,699.5,4.4a2.826,2.826,0,0,1,.963,2.228v4.051a4.591,4.591,0,0,0,.34,1.934v.141ZM696.53,11.3a2.305,2.305,0,0,0,1.125-.29,1.948,1.948,0,0,0,.793-.78V8.533H697.36a2.973,2.973,0,0,0-1.685.39,1.266,1.266,0,0,0-.565,1.1,1.179,1.179,0,0,0,.387.926,1.491,1.491,0,0,0,1.033.344" transform="translate(14593 -10129)" fill="#995754"/>
            <rect id="Rectángulo_12296" data-name="Rectángulo 12296" width="2.018" height="12.75" transform="translate(15295.706 -10129)" fill="#995754"/>
            <path id="Trazado_160229" data-name="Trazado 160229" d="M706.542,8.176a5.291,5.291,0,0,1,.523-2.378,3.819,3.819,0,0,1,1.47-1.627,4.134,4.134,0,0,1,2.173-.568,3.924,3.924,0,0,1,2.952,1.17,4.6,4.6,0,0,1,1.224,3.1l.008.474a5.349,5.349,0,0,1-.51,2.374,3.776,3.776,0,0,1-1.461,1.618,4.165,4.165,0,0,1-2.2.573,3.9,3.9,0,0,1-3.043-1.265,4.851,4.851,0,0,1-1.141-3.375Zm2.017.175a3.615,3.615,0,0,0,.573,2.171,1.862,1.862,0,0,0,1.594.784,1.842,1.842,0,0,0,1.589-.8,4,4,0,0,0,.569-2.333,3.566,3.566,0,0,0-.586-2.158,1.971,1.971,0,0,0-3.158-.012,3.916,3.916,0,0,0-.581,2.345" transform="translate(14593 -10129)" fill="#995754"/>
            <path id="Trazado_160230" data-name="Trazado 160230" d="M721.3,5.611a4.922,4.922,0,0,0-.822-.066,1.847,1.847,0,0,0-1.867,1.062V12.75h-2.018V3.768h1.926l.05,1a2.273,2.273,0,0,1,2.025-1.17,1.881,1.881,0,0,1,.714.116Z" transform="translate(14593 -10129)" fill="#995754"/>
          </g>
          <g id="Grupo_72157" data-name="Grupo 72157" transform="translate(-14187.5 11221)">
            <path id="Trazado_160120" data-name="Trazado 160120" d="M6.931,9.637a1.463,1.463,0,0,0-.56-1.229A6.759,6.759,0,0,0,4.35,7.537a9.807,9.807,0,0,1-2.324-.979A3.1,3.1,0,0,1,.374,3.852,2.942,2.942,0,0,1,1.565,1.445,4.822,4.822,0,0,1,4.658.5,5.224,5.224,0,0,1,6.907.963,3.689,3.689,0,0,1,8.458,2.287a3.39,3.39,0,0,1,.565,1.9H6.931A1.894,1.894,0,0,0,6.338,2.71a2.454,2.454,0,0,0-1.7-.535,2.561,2.561,0,0,0-1.6.44,1.464,1.464,0,0,0-.568,1.228,1.324,1.324,0,0,0,.614,1.108,7.086,7.086,0,0,0,2.026.864A9.268,9.268,0,0,1,7.38,6.77,3.581,3.581,0,0,1,8.633,8a3.2,3.2,0,0,1,.4,1.622,2.875,2.875,0,0,1-1.159,2.4,5.025,5.025,0,0,1-3.141.892,5.914,5.914,0,0,1-2.411-.485A4.052,4.052,0,0,1,.611,11.09,3.333,3.333,0,0,1,0,9.1H2.1a1.957,1.957,0,0,0,.68,1.594,2.983,2.983,0,0,0,1.951.564,2.589,2.589,0,0,0,1.647-.444,1.434,1.434,0,0,0,.552-1.175" transform="translate(14593 -10129)" fill="#995754"/>
            <path id="Trazado_160121" data-name="Trazado 160121" d="M10.3,8.176A5.291,5.291,0,0,1,10.824,5.8a3.819,3.819,0,0,1,1.47-1.627A4.134,4.134,0,0,1,14.467,3.6a3.924,3.924,0,0,1,2.952,1.17,4.6,4.6,0,0,1,1.224,3.1l.008.474a5.348,5.348,0,0,1-.51,2.374,3.776,3.776,0,0,1-1.461,1.618,4.165,4.165,0,0,1-2.2.573,3.9,3.9,0,0,1-3.043-1.265A4.851,4.851,0,0,1,10.3,8.276Zm2.017.175a3.614,3.614,0,0,0,.573,2.171,1.862,1.862,0,0,0,1.594.784,1.842,1.842,0,0,0,1.589-.8,4,4,0,0,0,.569-2.333,3.566,3.566,0,0,0-.586-2.158A1.972,1.972,0,0,0,12.9,6.006a3.916,3.916,0,0,0-.581,2.345" transform="translate(14593 -10129)" fill="#995754"/>
            <path id="Trazado_160122" data-name="Trazado 160122" d="M24.047,11.306a1.821,1.821,0,0,0,1.254-.44,1.5,1.5,0,0,0,.531-1.087h1.9a2.966,2.966,0,0,1-.523,1.564,3.434,3.434,0,0,1-1.328,1.15,3.961,3.961,0,0,1-1.81.423,3.832,3.832,0,0,1-2.988-1.22,4.84,4.84,0,0,1-1.1-3.37V8.118a4.763,4.763,0,0,1,1.095-3.283A3.8,3.8,0,0,1,24.065,3.6a3.693,3.693,0,0,1,2.61.933A3.354,3.354,0,0,1,27.733,6.99h-1.9a1.849,1.849,0,0,0-.527-1.271,1.7,1.7,0,0,0-1.258-.5,1.775,1.775,0,0,0-1.51.71A3.627,3.627,0,0,0,22,8.085v.324a3.677,3.677,0,0,0,.528,2.179,1.77,1.77,0,0,0,1.522.718" transform="translate(14593 -10129)" fill="#995754"/>
            <path id="Trazado_160123" data-name="Trazado 160123" d="M29.26,1.436a1.067,1.067,0,0,1,.3-.772A1.11,1.11,0,0,1,30.4.357a1.125,1.125,0,0,1,.847.307,1.062,1.062,0,0,1,.3.772,1.04,1.04,0,0,1-.3.76,1.135,1.135,0,0,1-.847.3,1.12,1.12,0,0,1-.842-.3,1.045,1.045,0,0,1-.3-.76M31.4,12.75H29.384V3.769H31.4Z" transform="translate(14593 -10129)" fill="#995754"/>
            <path id="Trazado_160124" data-name="Trazado 160124" d="M33.219,8.176A5.291,5.291,0,0,1,33.742,5.8a3.819,3.819,0,0,1,1.47-1.627A4.134,4.134,0,0,1,37.385,3.6a3.924,3.924,0,0,1,2.952,1.17,4.6,4.6,0,0,1,1.224,3.1l.008.474a5.348,5.348,0,0,1-.51,2.374A3.776,3.776,0,0,1,39.6,12.343a4.165,4.165,0,0,1-2.195.573,3.9,3.9,0,0,1-3.043-1.265,4.851,4.851,0,0,1-1.141-3.375Zm2.017.175a3.614,3.614,0,0,0,.573,2.171,1.862,1.862,0,0,0,1.594.784,1.842,1.842,0,0,0,1.589-.8,4,4,0,0,0,.569-2.333,3.566,3.566,0,0,0-.586-2.158,1.972,1.972,0,0,0-3.158-.012,3.916,3.916,0,0,0-.581,2.345" transform="translate(14593 -10129)" fill="#995754"/>
            <path id="Trazado_160125" data-name="Trazado 160125" d="M48.312,10.31a.916.916,0,0,0-.444-.822,4.745,4.745,0,0,0-1.475-.5,7.586,7.586,0,0,1-1.719-.548,2.29,2.29,0,0,1-1.508-2.116,2.39,2.39,0,0,1,.977-1.943,3.873,3.873,0,0,1,2.49-.78,4.027,4.027,0,0,1,2.6.8,2.529,2.529,0,0,1,.993,2.066H48.211A1.248,1.248,0,0,0,47.78,5.5a1.659,1.659,0,0,0-1.147-.385,1.794,1.794,0,0,0-1.083.306.97.97,0,0,0-.418.823.814.814,0,0,0,.39.721,5.355,5.355,0,0,0,1.576.52,7.479,7.479,0,0,1,1.864.622,2.632,2.632,0,0,1,1,.867,2.21,2.21,0,0,1,.328,1.229,2.341,2.341,0,0,1-1,1.963,4.284,4.284,0,0,1-2.63.751,4.637,4.637,0,0,1-1.968-.4,3.232,3.232,0,0,1-1.345-1.1,2.6,2.6,0,0,1-.481-1.5h1.96a1.417,1.417,0,0,0,.538,1.1,2.1,2.1,0,0,0,1.32.386,2.048,2.048,0,0,0,1.212-.3.942.942,0,0,0,.416-.793" transform="translate(14593 -10129)" fill="#995754"/>
            <path id="Trazado_160126" data-name="Trazado 160126" d="M59.973,11.306a1.821,1.821,0,0,0,1.254-.44,1.5,1.5,0,0,0,.531-1.087h1.9a2.966,2.966,0,0,1-.523,1.564,3.435,3.435,0,0,1-1.328,1.15,3.961,3.961,0,0,1-1.81.423A3.832,3.832,0,0,1,57.01,11.7a4.84,4.84,0,0,1-1.1-3.37V8.118A4.763,4.763,0,0,1,57,4.835,3.8,3.8,0,0,1,59.991,3.6a3.693,3.693,0,0,1,2.61.933A3.354,3.354,0,0,1,63.659,6.99h-1.9a1.849,1.849,0,0,0-.527-1.271,1.7,1.7,0,0,0-1.258-.5,1.775,1.775,0,0,0-1.51.71,3.627,3.627,0,0,0-.54,2.154v.324a3.677,3.677,0,0,0,.528,2.179,1.77,1.77,0,0,0,1.522.718" transform="translate(14593 -10129)" fill="#995754"/>
            <rect id="Rectángulo_12291" data-name="Rectángulo 12291" width="2.018" height="12.75" transform="translate(14658.31 -10129)" fill="#995754"/>
            <path id="Trazado_160127" data-name="Trazado 160127" d="M74.89,12.75a3.118,3.118,0,0,1-.233-.839A3.138,3.138,0,0,1,72.3,12.916a3.174,3.174,0,0,1-2.209-.772,2.474,2.474,0,0,1-.855-1.909,2.55,2.55,0,0,1,1.067-2.2,5.169,5.169,0,0,1,3.051-.768h1.237V6.674A1.572,1.572,0,0,0,74.2,5.558a1.54,1.54,0,0,0-1.187-.42,1.777,1.777,0,0,0-1.129.345,1.066,1.066,0,0,0-.44.876H69.427a2.237,2.237,0,0,1,.49-1.382,3.25,3.25,0,0,1,1.332-1.009A4.675,4.675,0,0,1,73.13,3.6a3.761,3.761,0,0,1,2.515.793,2.826,2.826,0,0,1,.963,2.228v4.051a4.591,4.591,0,0,0,.34,1.934v.141ZM72.673,11.3a2.305,2.305,0,0,0,1.125-.29,1.948,1.948,0,0,0,.793-.78V8.533H73.5a2.973,2.973,0,0,0-1.685.39,1.266,1.266,0,0,0-.565,1.1,1.179,1.179,0,0,0,.387.926,1.49,1.49,0,0,0,1.033.344" transform="translate(14593 -10129)" fill="#995754"/>
            <path id="Trazado_160128" data-name="Trazado 160128" d="M81.763,10.193l1.9-6.425h2.083L82.635,12.75H80.883L77.745,3.768h2.092Z" transform="translate(14593 -10129)" fill="#995754"/>
            <path id="Trazado_160129" data-name="Trazado 160129" d="M90.851,12.916a4.171,4.171,0,0,1-3.108-1.208,4.379,4.379,0,0,1-1.191-3.216v-.25a5.383,5.383,0,0,1,.519-2.4,3.949,3.949,0,0,1,1.456-1.648A3.853,3.853,0,0,1,90.619,3.6a3.523,3.523,0,0,1,2.835,1.17,4.949,4.949,0,0,1,1,3.312V8.9H88.586a2.688,2.688,0,0,0,.743,1.759,2.227,2.227,0,0,0,1.639.648,2.734,2.734,0,0,0,2.258-1.121l1.087,1.038a3.634,3.634,0,0,1-1.44,1.249,4.512,4.512,0,0,1-2.022.444m-.24-7.7A1.7,1.7,0,0,0,89.27,5.8a3.016,3.016,0,0,0-.651,1.619h3.844V7.272a2.453,2.453,0,0,0-.54-1.531,1.684,1.684,0,0,0-1.312-.52" transform="translate(14593 -10129)" fill="#995754"/>
            <path id="Trazado_160130" data-name="Trazado 160130" d="M101.054,10.31a.914.914,0,0,0-.444-.822,4.727,4.727,0,0,0-1.474-.5,7.569,7.569,0,0,1-1.719-.548,2.291,2.291,0,0,1-1.509-2.116,2.391,2.391,0,0,1,.978-1.943,3.873,3.873,0,0,1,2.49-.78,4.031,4.031,0,0,1,2.6.8,2.528,2.528,0,0,1,.992,2.066h-2.017a1.248,1.248,0,0,0-.431-.967,1.663,1.663,0,0,0-1.147-.385,1.794,1.794,0,0,0-1.083.306.971.971,0,0,0-.419.823.815.815,0,0,0,.391.721,5.355,5.355,0,0,0,1.576.52,7.479,7.479,0,0,1,1.864.622,2.632,2.632,0,0,1,1,.867,2.21,2.21,0,0,1,.328,1.229,2.341,2.341,0,0,1-1,1.963,4.285,4.285,0,0,1-2.631.751,4.632,4.632,0,0,1-1.967-.4,3.241,3.241,0,0,1-1.346-1.1,2.6,2.6,0,0,1-.48-1.5h1.959a1.421,1.421,0,0,0,.539,1.1,2.1,2.1,0,0,0,1.32.386,2.043,2.043,0,0,0,1.211-.3.939.939,0,0,0,.416-.793" transform="translate(14593 -10129)" fill="#995754"/>
          </g>
          <g id="Grupo_72165" data-name="Grupo 72165" transform="translate(-13711.246 11235.524)">
            <path id="Trazado_160146" data-name="Trazado 160146" d="M136.35,79.291a4.368,4.368,0,0,1-1.428,3.018,4.873,4.873,0,0,1-3.312,1.083,4.716,4.716,0,0,1-2.544-.685,4.49,4.49,0,0,1-1.7-1.946,7.014,7.014,0,0,1-.622-2.931V76.7a7.078,7.078,0,0,1,.606-3.013,4.55,4.55,0,0,1,1.738-2.008,4.849,4.849,0,0,1,2.619-.706,4.672,4.672,0,0,1,3.221,1.083,4.526,4.526,0,0,1,1.42,3.067h-2.092a2.983,2.983,0,0,0-.76-1.88,2.507,2.507,0,0,0-1.789-.577,2.453,2.453,0,0,0-2.1,1,5.009,5.009,0,0,0-.751,2.937v1.073a5.3,5.3,0,0,0,.7,2.99,2.327,2.327,0,0,0,2.055,1.03,2.719,2.719,0,0,0,1.859-.555,2.908,2.908,0,0,0,.789-1.852Z" transform="translate(14593 -10129)" fill="#995754"/>
            <path id="Trazado_160147" data-name="Trazado 160147" d="M143.4,83.225a3.108,3.108,0,0,1-.233-.838,3.14,3.14,0,0,1-2.357,1,3.174,3.174,0,0,1-2.209-.771,2.475,2.475,0,0,1-.855-1.909,2.551,2.551,0,0,1,1.067-2.205,5.176,5.176,0,0,1,3.051-.767H143.1v-.59a1.572,1.572,0,0,0-.391-1.116,1.543,1.543,0,0,0-1.187-.419,1.777,1.777,0,0,0-1.129.344,1.068,1.068,0,0,0-.44.876h-2.017a2.239,2.239,0,0,1,.49-1.382,3.267,3.267,0,0,1,1.332-1.009,4.692,4.692,0,0,1,1.881-.365,3.766,3.766,0,0,1,2.515.793,2.828,2.828,0,0,1,.963,2.228V81.15a4.592,4.592,0,0,0,.34,1.935v.14Zm-2.217-1.452a2.3,2.3,0,0,0,1.125-.291,1.936,1.936,0,0,0,.793-.78V79.008H142.01a2.965,2.965,0,0,0-1.685.391,1.264,1.264,0,0,0-.565,1.1,1.176,1.176,0,0,0,.387.926,1.491,1.491,0,0,0,1.033.345" transform="translate(14593 -10129)" fill="#995754"/>
            <path id="Trazado_160148" data-name="Trazado 160148" d="M149.1,74.244l.058,1.038a3.228,3.228,0,0,1,2.615-1.2q2.8,0,2.855,3.213v5.934H152.61V77.407a1.856,1.856,0,0,0-.369-1.267,1.556,1.556,0,0,0-1.207-.41,1.944,1.944,0,0,0-1.819,1.1v6.391H147.2V74.244Z" transform="translate(14593 -10129)" fill="#995754"/>
            <path id="Trazado_160149" data-name="Trazado 160149" d="M162.049,83.225a3.109,3.109,0,0,1-.233-.838,3.14,3.14,0,0,1-2.357,1,3.174,3.174,0,0,1-2.209-.771,2.475,2.475,0,0,1-.855-1.909,2.551,2.551,0,0,1,1.067-2.205,5.176,5.176,0,0,1,3.051-.767h1.237v-.59a1.572,1.572,0,0,0-.391-1.116,1.543,1.543,0,0,0-1.187-.419,1.777,1.777,0,0,0-1.129.344,1.068,1.068,0,0,0-.44.876h-2.017a2.239,2.239,0,0,1,.49-1.382,3.267,3.267,0,0,1,1.332-1.009,4.692,4.692,0,0,1,1.881-.365,3.766,3.766,0,0,1,2.515.793,2.828,2.828,0,0,1,.963,2.228V81.15a4.593,4.593,0,0,0,.34,1.935v.14Zm-2.217-1.452a2.3,2.3,0,0,0,1.125-.291,1.936,1.936,0,0,0,.793-.78V79.008h-1.088a2.965,2.965,0,0,0-1.685.391,1.264,1.264,0,0,0-.565,1.1,1.176,1.176,0,0,0,.387.926,1.491,1.491,0,0,0,1.033.345" transform="translate(14593 -10129)" fill="#995754"/>
            <rect id="Rectángulo_12293" data-name="Rectángulo 12293" width="2.018" height="12.75" transform="translate(14759.007 -10058.524)" fill="#995754"/>
            <path id="Trazado_160150" data-name="Trazado 160150" d="M174.175,83.391a4.171,4.171,0,0,1-3.108-1.208,4.378,4.378,0,0,1-1.191-3.215v-.25a5.387,5.387,0,0,1,.519-2.4,3.947,3.947,0,0,1,1.456-1.647,3.845,3.845,0,0,1,2.092-.59,3.524,3.524,0,0,1,2.835,1.171,4.946,4.946,0,0,1,1,3.311v.814H171.91a2.69,2.69,0,0,0,.743,1.76,2.23,2.23,0,0,0,1.639.647,2.733,2.733,0,0,0,2.258-1.12l1.087,1.037a3.619,3.619,0,0,1-1.44,1.249,4.5,4.5,0,0,1-2.022.444m-.239-7.694a1.7,1.7,0,0,0-1.342.581,3.012,3.012,0,0,0-.651,1.618h3.844v-.149a2.449,2.449,0,0,0-.54-1.531,1.686,1.686,0,0,0-1.311-.519" transform="translate(14593 -10129)" fill="#995754"/>
            <path id="Trazado_160151" data-name="Trazado 160151" d="M184.378,80.785a.913.913,0,0,0-.444-.821,4.675,4.675,0,0,0-1.474-.5,7.671,7.671,0,0,1-1.719-.548,2.292,2.292,0,0,1-1.509-2.117,2.394,2.394,0,0,1,.978-1.943,3.878,3.878,0,0,1,2.49-.78,4.031,4.031,0,0,1,2.6.8,2.53,2.53,0,0,1,.992,2.067h-2.017a1.248,1.248,0,0,0-.431-.968,1.663,1.663,0,0,0-1.147-.385,1.787,1.787,0,0,0-1.083.307.969.969,0,0,0-.419.822.817.817,0,0,0,.391.722,5.393,5.393,0,0,0,1.576.519,7.48,7.48,0,0,1,1.864.622,2.625,2.625,0,0,1,1,.868,2.208,2.208,0,0,1,.328,1.229,2.341,2.341,0,0,1-1,1.962,4.278,4.278,0,0,1-2.631.751,4.632,4.632,0,0,1-1.967-.4,3.241,3.241,0,0,1-1.346-1.1,2.6,2.6,0,0,1-.48-1.5h1.959a1.42,1.42,0,0,0,.539,1.1,2.1,2.1,0,0,0,1.32.386,2.036,2.036,0,0,0,1.211-.3.938.938,0,0,0,.416-.793" transform="translate(14593 -10129)" fill="#995754"/>
          </g>
          <g id="Grupo_72164" data-name="Grupo 72164" transform="translate(-14305.693 11311.524)">
            <path id="Trazado_160152" data-name="Trazado 160152" d="M276.124,80.113a1.462,1.462,0,0,0-.56-1.229,6.755,6.755,0,0,0-2.021-.872,9.725,9.725,0,0,1-2.324-.979,3.1,3.1,0,0,1-1.652-2.706,2.945,2.945,0,0,1,1.191-2.407,4.822,4.822,0,0,1,3.093-.947,5.239,5.239,0,0,1,2.249.465,3.7,3.7,0,0,1,1.551,1.324,3.393,3.393,0,0,1,.565,1.906h-2.092a1.9,1.9,0,0,0-.593-1.483,2.454,2.454,0,0,0-1.7-.535,2.555,2.555,0,0,0-1.6.441,1.463,1.463,0,0,0-.568,1.228,1.324,1.324,0,0,0,.614,1.107,7.058,7.058,0,0,0,2.026.864,9.307,9.307,0,0,1,2.266.955,3.589,3.589,0,0,1,1.253,1.228,3.2,3.2,0,0,1,.4,1.623,2.875,2.875,0,0,1-1.159,2.4,5.019,5.019,0,0,1-3.141.892,5.914,5.914,0,0,1-2.411-.485,4.044,4.044,0,0,1-1.71-1.341,3.328,3.328,0,0,1-.611-1.992h2.1a1.954,1.954,0,0,0,.68,1.594,2.978,2.978,0,0,0,1.951.564,2.583,2.583,0,0,0,1.647-.444,1.433,1.433,0,0,0,.552-1.174" transform="translate(14593 -10129)" fill="#995754"/>
            <path id="Trazado_160153" data-name="Trazado 160153" d="M283.827,83.391a4.171,4.171,0,0,1-3.108-1.208,4.378,4.378,0,0,1-1.191-3.215v-.25a5.387,5.387,0,0,1,.519-2.4,3.94,3.94,0,0,1,1.456-1.647,3.845,3.845,0,0,1,2.092-.59,3.524,3.524,0,0,1,2.835,1.171,4.946,4.946,0,0,1,1,3.311v.814h-5.869a2.69,2.69,0,0,0,.743,1.76,2.23,2.23,0,0,0,1.639.647,2.733,2.733,0,0,0,2.258-1.12l1.087,1.037a3.626,3.626,0,0,1-1.44,1.249,4.5,4.5,0,0,1-2.022.444m-.24-7.694a1.7,1.7,0,0,0-1.341.581A3.012,3.012,0,0,0,281.6,77.9h3.844v-.149a2.455,2.455,0,0,0-.54-1.531,1.687,1.687,0,0,0-1.312-.519" transform="translate(14593 -10129)" fill="#995754"/>
            <path id="Trazado_160154" data-name="Trazado 160154" d="M288.642,78.669a5.256,5.256,0,0,1,.984-3.342,3.16,3.16,0,0,1,2.611-1.249,2.959,2.959,0,0,1,2.415,1.072l.091-.906h1.818v8.708a3.618,3.618,0,0,1-1.1,2.789,4.19,4.19,0,0,1-2.968,1.021,4.784,4.784,0,0,1-1.93-.411,3.448,3.448,0,0,1-1.433-1.074l.956-1.212a2.885,2.885,0,0,0,2.291,1.1,2.225,2.225,0,0,0,1.586-.544,2.085,2.085,0,0,0,.58-1.6v-.606a2.967,2.967,0,0,1-2.325.971,3.152,3.152,0,0,1-2.577-1.253,5.423,5.423,0,0,1-1-3.47m2.009.174a3.614,3.614,0,0,0,.552,2.129,1.777,1.777,0,0,0,1.532.776,1.941,1.941,0,0,0,1.809-1.046V76.751a1.912,1.912,0,0,0-1.793-1.02,1.781,1.781,0,0,0-1.548.788,4.05,4.05,0,0,0-.552,2.324" transform="translate(14593 -10129)" fill="#995754"/>
            <path id="Trazado_160155" data-name="Trazado 160155" d="M300.528,74.244l.059.938a3.23,3.23,0,0,1,2.589-1.1,2.482,2.482,0,0,1,2.465,1.378,3.19,3.19,0,0,1,2.756-1.378,2.8,2.8,0,0,1,2.213.822,3.619,3.619,0,0,1,.742,2.424v5.9h-2.016V77.382a1.779,1.779,0,0,0-.374-1.253,1.633,1.633,0,0,0-1.237-.4,1.683,1.683,0,0,0-1.125.369,1.947,1.947,0,0,0-.609.967L306,83.225h-2.018v-5.91a1.438,1.438,0,0,0-1.618-1.585,1.774,1.774,0,0,0-1.718.988v6.507h-2.017V74.244Z" transform="translate(14593 -10129)" fill="#995754"/>
            <path id="Trazado_160156" data-name="Trazado 160156" d="M317.379,83.391a4.171,4.171,0,0,1-3.108-1.208,4.378,4.378,0,0,1-1.191-3.215v-.25a5.387,5.387,0,0,1,.519-2.4,3.94,3.94,0,0,1,1.456-1.647,3.845,3.845,0,0,1,2.092-.59,3.524,3.524,0,0,1,2.835,1.171,4.946,4.946,0,0,1,1,3.311v.814h-5.869a2.69,2.69,0,0,0,.743,1.76,2.23,2.23,0,0,0,1.639.647,2.733,2.733,0,0,0,2.258-1.12l1.087,1.037a3.626,3.626,0,0,1-1.44,1.249,4.5,4.5,0,0,1-2.022.444m-.24-7.694a1.7,1.7,0,0,0-1.341.581,3.012,3.012,0,0,0-.651,1.618h3.844v-.149a2.455,2.455,0,0,0-.54-1.531,1.687,1.687,0,0,0-1.312-.519" transform="translate(14593 -10129)" fill="#995754"/>
            <path id="Trazado_160157" data-name="Trazado 160157" d="M324.418,74.244l.058,1.038a3.228,3.228,0,0,1,2.615-1.2q2.8,0,2.855,3.213v5.934h-2.017V77.407a1.856,1.856,0,0,0-.369-1.267,1.556,1.556,0,0,0-1.207-.41,1.944,1.944,0,0,0-1.819,1.1v6.391h-2.017V74.244Z" transform="translate(14593 -10129)" fill="#995754"/>
            <path id="Trazado_160158" data-name="Trazado 160158" d="M334.528,72.062v2.183h1.586v1.494h-1.586v5.013a1.1,1.1,0,0,0,.2.744.944.944,0,0,0,.726.228,3.14,3.14,0,0,0,.706-.083V83.2a4.981,4.981,0,0,1-1.328.19q-2.325,0-2.325-2.564V75.739h-1.477V74.245h1.477V72.062Z" transform="translate(14593 -10129)" fill="#995754"/>
            <path id="Trazado_160159" data-name="Trazado 160159" d="M337.028,78.652a5.3,5.3,0,0,1,.523-2.379,3.825,3.825,0,0,1,1.47-1.627,4.134,4.134,0,0,1,2.173-.568,3.925,3.925,0,0,1,2.952,1.171,4.6,4.6,0,0,1,1.224,3.1l.008.473a5.345,5.345,0,0,1-.51,2.374,3.779,3.779,0,0,1-1.461,1.619,4.165,4.165,0,0,1-2.2.572,3.9,3.9,0,0,1-3.043-1.265,4.848,4.848,0,0,1-1.141-3.374Zm2.017.174A3.612,3.612,0,0,0,339.618,81a1.862,1.862,0,0,0,1.594.784,1.842,1.842,0,0,0,1.589-.8,4,4,0,0,0,.569-2.332,3.564,3.564,0,0,0-.586-2.158,1.972,1.972,0,0,0-3.158-.013,3.918,3.918,0,0,0-.581,2.345" transform="translate(14593 -10129)" fill="#995754"/>
            <path id="Trazado_160160" data-name="Trazado 160160" d="M352.118,80.785a.913.913,0,0,0-.444-.821,4.675,4.675,0,0,0-1.474-.5,7.671,7.671,0,0,1-1.719-.548,2.292,2.292,0,0,1-1.509-2.117,2.394,2.394,0,0,1,.978-1.943,3.878,3.878,0,0,1,2.49-.78,4.031,4.031,0,0,1,2.6.8,2.53,2.53,0,0,1,.992,2.067h-2.017a1.248,1.248,0,0,0-.431-.968,1.663,1.663,0,0,0-1.147-.385,1.788,1.788,0,0,0-1.083.307.969.969,0,0,0-.419.822.817.817,0,0,0,.391.722,5.393,5.393,0,0,0,1.576.519,7.48,7.48,0,0,1,1.864.622,2.625,2.625,0,0,1,1,.868,2.208,2.208,0,0,1,.328,1.229,2.341,2.341,0,0,1-1,1.962,4.278,4.278,0,0,1-2.631.751,4.632,4.632,0,0,1-1.967-.4,3.241,3.241,0,0,1-1.346-1.1,2.6,2.6,0,0,1-.48-1.5h1.959a1.42,1.42,0,0,0,.539,1.1,2.1,2.1,0,0,0,1.32.386,2.036,2.036,0,0,0,1.211-.3.938.938,0,0,0,.416-.793" transform="translate(14593 -10129)" fill="#995754"/>
            <path id="Trazado_160161" data-name="Trazado 160161" d="M359.713,78.669a5.338,5.338,0,0,1,.963-3.333,3.083,3.083,0,0,1,2.581-1.258,2.933,2.933,0,0,1,2.308,1v-4.6h2.018v12.75h-1.827l-.1-.93a2.974,2.974,0,0,1-2.416,1.1,3.067,3.067,0,0,1-2.553-1.27,5.536,5.536,0,0,1-.975-3.453m2.017.174a3.744,3.744,0,0,0,.527,2.138,1.712,1.712,0,0,0,1.5.767,1.906,1.906,0,0,0,1.81-1.1V76.81a1.876,1.876,0,0,0-1.793-1.079,1.724,1.724,0,0,0-1.511.775,4.169,4.169,0,0,0-.531,2.337" transform="translate(14593 -10129)" fill="#995754"/>
            <path id="Trazado_160162" data-name="Trazado 160162" d="M373.641,83.391a4.171,4.171,0,0,1-3.108-1.208,4.378,4.378,0,0,1-1.191-3.215v-.25a5.387,5.387,0,0,1,.519-2.4,3.94,3.94,0,0,1,1.456-1.647,3.845,3.845,0,0,1,2.092-.59,3.524,3.524,0,0,1,2.835,1.171,4.946,4.946,0,0,1,1,3.311v.814h-5.869a2.69,2.69,0,0,0,.743,1.76,2.23,2.23,0,0,0,1.639.647,2.733,2.733,0,0,0,2.258-1.12L377.1,81.7a3.626,3.626,0,0,1-1.44,1.249,4.5,4.5,0,0,1-2.022.444M373.4,75.7a1.7,1.7,0,0,0-1.341.581,3.012,3.012,0,0,0-.651,1.618h3.844v-.149a2.455,2.455,0,0,0-.54-1.531A1.687,1.687,0,0,0,373.4,75.7" transform="translate(14593 -10129)" fill="#995754"/>
            <path id="Trazado_160163" data-name="Trazado 160163" d="M386.731,81.781a1.825,1.825,0,0,0,1.254-.439,1.506,1.506,0,0,0,.531-1.088h1.9a2.96,2.96,0,0,1-.523,1.564,3.427,3.427,0,0,1-1.328,1.15,3.948,3.948,0,0,1-1.81.423,3.831,3.831,0,0,1-2.988-1.219,4.842,4.842,0,0,1-1.1-3.37v-.209a4.765,4.765,0,0,1,1.1-3.283,3.8,3.8,0,0,1,2.989-1.232,3.693,3.693,0,0,1,2.61.933,3.354,3.354,0,0,1,1.058,2.454h-1.9a1.847,1.847,0,0,0-.527-1.27,1.7,1.7,0,0,0-1.258-.5,1.775,1.775,0,0,0-1.51.709,3.627,3.627,0,0,0-.54,2.154v.325a3.674,3.674,0,0,0,.528,2.178,1.77,1.77,0,0,0,1.522.718" transform="translate(14593 -10129)" fill="#995754"/>
            <rect id="Rectángulo_12294" data-name="Rectángulo 12294" width="2.018" height="12.75" transform="translate(14985.069 -10058.524)" fill="#995754"/>
            <path id="Trazado_160164" data-name="Trazado 160164" d="M396.286,71.912a1.073,1.073,0,0,1,.295-.772,1.117,1.117,0,0,1,.843-.307,1.132,1.132,0,0,1,.847.307,1.063,1.063,0,0,1,.3.772,1.036,1.036,0,0,1-.3.759,1.139,1.139,0,0,1-.847.3,1.123,1.123,0,0,1-.843-.3,1.045,1.045,0,0,1-.295-.759m2.143,11.314h-2.018V74.245h2.018Z" transform="translate(14593 -10129)" fill="#995754"/>
            <path id="Trazado_160165" data-name="Trazado 160165" d="M404.579,83.391a4.171,4.171,0,0,1-3.108-1.208,4.378,4.378,0,0,1-1.191-3.215v-.25a5.387,5.387,0,0,1,.519-2.4,3.94,3.94,0,0,1,1.456-1.647,3.845,3.845,0,0,1,2.092-.59,3.524,3.524,0,0,1,2.835,1.171,4.946,4.946,0,0,1,1,3.311v.814h-5.869a2.69,2.69,0,0,0,.743,1.76,2.23,2.23,0,0,0,1.639.647,2.733,2.733,0,0,0,2.258-1.12l1.087,1.037a3.626,3.626,0,0,1-1.44,1.249,4.5,4.5,0,0,1-2.022.444m-.24-7.694a1.7,1.7,0,0,0-1.341.581,3.013,3.013,0,0,0-.651,1.618h3.844v-.149a2.455,2.455,0,0,0-.54-1.531,1.687,1.687,0,0,0-1.312-.519" transform="translate(14593 -10129)" fill="#995754"/>
            <path id="Trazado_160166" data-name="Trazado 160166" d="M411.618,74.244l.058,1.038a3.228,3.228,0,0,1,2.615-1.2q2.805,0,2.855,3.213v5.934h-2.017V77.407a1.856,1.856,0,0,0-.369-1.267,1.556,1.556,0,0,0-1.207-.41,1.944,1.944,0,0,0-1.819,1.1v6.391h-2.017V74.244Z" transform="translate(14593 -10129)" fill="#995754"/>
            <path id="Trazado_160167" data-name="Trazado 160167" d="M421.728,72.062v2.183h1.586v1.494h-1.586v5.013a1.11,1.11,0,0,0,.2.744.947.947,0,0,0,.727.228,3.138,3.138,0,0,0,.705-.083V83.2a4.981,4.981,0,0,1-1.328.19q-2.324,0-2.325-2.564V75.739h-1.477V74.245h1.477V72.062Z" transform="translate(14593 -10129)" fill="#995754"/>
            <path id="Trazado_160168" data-name="Trazado 160168" d="M428.808,83.391a4.17,4.17,0,0,1-3.108-1.208,4.378,4.378,0,0,1-1.191-3.215v-.25a5.387,5.387,0,0,1,.519-2.4,3.94,3.94,0,0,1,1.456-1.647,3.845,3.845,0,0,1,2.092-.59,3.524,3.524,0,0,1,2.835,1.171,4.946,4.946,0,0,1,1,3.311v.814h-5.869a2.69,2.69,0,0,0,.743,1.76,2.23,2.23,0,0,0,1.639.647,2.733,2.733,0,0,0,2.258-1.12L432.27,81.7a3.626,3.626,0,0,1-1.44,1.249,4.5,4.5,0,0,1-2.022.444m-.24-7.694a1.7,1.7,0,0,0-1.341.581,3.013,3.013,0,0,0-.651,1.618h3.844v-.149a2.455,2.455,0,0,0-.54-1.531,1.687,1.687,0,0,0-1.312-.519" transform="translate(14593 -10129)" fill="#995754"/>
          </g>
          <g id="Grupo_72163" data-name="Grupo 72163" transform="translate(-14274.981 11313.524)">
            <path id="Trazado_160169" data-name="Trazado 160169" d="M503.546,77.83h-4.965v3.719h5.8v1.677h-7.9V71.14h7.843v1.693h-5.744V76.17h4.965Z" transform="translate(14593 -10129)" fill="#995754"/>
            <path id="Trazado_160170" data-name="Trazado 160170" d="M510.934,80.785a.913.913,0,0,0-.444-.821,4.675,4.675,0,0,0-1.474-.5,7.67,7.67,0,0,1-1.719-.548,2.292,2.292,0,0,1-1.509-2.117,2.394,2.394,0,0,1,.978-1.943,3.879,3.879,0,0,1,2.49-.78,4.031,4.031,0,0,1,2.6.8,2.53,2.53,0,0,1,.992,2.067h-2.017a1.248,1.248,0,0,0-.431-.968,1.663,1.663,0,0,0-1.147-.385,1.788,1.788,0,0,0-1.083.307.969.969,0,0,0-.419.822.817.817,0,0,0,.391.722,5.393,5.393,0,0,0,1.576.519,7.479,7.479,0,0,1,1.864.622,2.625,2.625,0,0,1,1,.868,2.208,2.208,0,0,1,.328,1.229,2.341,2.341,0,0,1-1,1.962,4.278,4.278,0,0,1-2.631.751,4.632,4.632,0,0,1-1.967-.4,3.241,3.241,0,0,1-1.346-1.1,2.6,2.6,0,0,1-.48-1.5h1.959a1.42,1.42,0,0,0,.539,1.1,2.1,2.1,0,0,0,1.32.386,2.036,2.036,0,0,0,1.211-.3.938.938,0,0,0,.416-.793" transform="translate(14593 -10129)" fill="#995754"/>
            <path id="Trazado_160171" data-name="Trazado 160171" d="M517.2,72.062v2.183h1.586v1.494H517.2v5.013a1.1,1.1,0,0,0,.2.744.944.944,0,0,0,.726.228,3.14,3.14,0,0,0,.706-.083V83.2a4.98,4.98,0,0,1-1.328.19q-2.325,0-2.325-2.564V75.739h-1.477V74.245h1.477V72.062Z" transform="translate(14593 -10129)" fill="#995754"/>
            <path id="Trazado_160172" data-name="Trazado 160172" d="M525.028,76.087a5.03,5.03,0,0,0-.822-.066,1.849,1.849,0,0,0-1.867,1.062v6.143h-2.018V74.244h1.926l.05,1a2.273,2.273,0,0,1,2.025-1.171,1.9,1.9,0,0,1,.714.116Z" transform="translate(14593 -10129)" fill="#995754"/>
            <path id="Trazado_160173" data-name="Trazado 160173" d="M531.743,82.346a3.13,3.13,0,0,1-2.523,1.046,2.788,2.788,0,0,1-2.212-.855,3.635,3.635,0,0,1-.751-2.473v-5.82h2.016v5.794q0,1.711,1.419,1.71a1.994,1.994,0,0,0,1.985-1.053V74.244h2.017v8.982h-1.9Z" transform="translate(14593 -10129)" fill="#995754"/>
            <path id="Trazado_160174" data-name="Trazado 160174" d="M539.438,81.781a1.824,1.824,0,0,0,1.253-.439,1.506,1.506,0,0,0,.531-1.088h1.9a2.959,2.959,0,0,1-.523,1.564,3.426,3.426,0,0,1-1.328,1.15,3.948,3.948,0,0,1-1.81.423,3.831,3.831,0,0,1-2.988-1.219,4.842,4.842,0,0,1-1.1-3.37v-.209a4.765,4.765,0,0,1,1.1-3.283,3.8,3.8,0,0,1,2.989-1.232,3.693,3.693,0,0,1,2.61.933,3.354,3.354,0,0,1,1.058,2.454h-1.9a1.847,1.847,0,0,0-.527-1.27,1.694,1.694,0,0,0-1.257-.5,1.775,1.775,0,0,0-1.511.709,3.627,3.627,0,0,0-.54,2.154v.325a3.674,3.674,0,0,0,.528,2.178,1.771,1.771,0,0,0,1.523.718" transform="translate(14593 -10129)" fill="#995754"/>
            <path id="Trazado_160175" data-name="Trazado 160175" d="M547.174,72.062v2.183h1.586v1.494h-1.586v5.013a1.1,1.1,0,0,0,.2.744.944.944,0,0,0,.726.228,3.14,3.14,0,0,0,.706-.083V83.2a4.98,4.98,0,0,1-1.328.19q-2.325,0-2.325-2.564V75.739H543.68V74.245h1.477V72.062Z" transform="translate(14593 -10129)" fill="#995754"/>
            <path id="Trazado_160176" data-name="Trazado 160176" d="M555.741,82.346a3.13,3.13,0,0,1-2.523,1.046,2.788,2.788,0,0,1-2.212-.855,3.635,3.635,0,0,1-.751-2.473v-5.82h2.016v5.794q0,1.711,1.419,1.71a1.994,1.994,0,0,0,1.985-1.053V74.244h2.017v8.982h-1.9Z" transform="translate(14593 -10129)" fill="#995754"/>
            <path id="Trazado_160177" data-name="Trazado 160177" d="M564.448,76.087a5.03,5.03,0,0,0-.822-.066,1.849,1.849,0,0,0-1.867,1.062v6.143h-2.018V74.244h1.926l.05,1a2.274,2.274,0,0,1,2.025-1.171,1.9,1.9,0,0,1,.714.116Z" transform="translate(14593 -10129)" fill="#995754"/>
            <path id="Trazado_160178" data-name="Trazado 160178" d="M570.841,83.225a3.109,3.109,0,0,1-.233-.838,3.14,3.14,0,0,1-2.357,1,3.174,3.174,0,0,1-2.209-.771,2.475,2.475,0,0,1-.855-1.909,2.551,2.551,0,0,1,1.067-2.205,5.176,5.176,0,0,1,3.051-.767h1.237v-.59a1.572,1.572,0,0,0-.391-1.116,1.543,1.543,0,0,0-1.187-.419,1.777,1.777,0,0,0-1.129.344,1.068,1.068,0,0,0-.44.876h-2.017a2.239,2.239,0,0,1,.49-1.382,3.267,3.267,0,0,1,1.332-1.009,4.692,4.692,0,0,1,1.881-.365,3.766,3.766,0,0,1,2.515.793,2.828,2.828,0,0,1,.963,2.228V81.15a4.593,4.593,0,0,0,.34,1.935v.14Zm-2.217-1.452a2.3,2.3,0,0,0,1.125-.291,1.936,1.936,0,0,0,.793-.78V79.008h-1.088a2.965,2.965,0,0,0-1.685.391,1.264,1.264,0,0,0-.565,1.1,1.176,1.176,0,0,0,.387.926,1.491,1.491,0,0,0,1.033.345" transform="translate(14593 -10129)" fill="#995754"/>
            <path id="Trazado_160179" data-name="Trazado 160179" d="M578.526,78.669a5.338,5.338,0,0,1,.963-3.333,3.083,3.083,0,0,1,2.581-1.258,2.933,2.933,0,0,1,2.308,1v-4.6H586.4v12.75h-1.827l-.1-.93a2.974,2.974,0,0,1-2.416,1.1,3.067,3.067,0,0,1-2.553-1.27,5.536,5.536,0,0,1-.975-3.453m2.017.174a3.744,3.744,0,0,0,.527,2.138,1.712,1.712,0,0,0,1.5.767,1.906,1.906,0,0,0,1.81-1.1V76.81a1.876,1.876,0,0,0-1.793-1.079,1.724,1.724,0,0,0-1.511.775,4.168,4.168,0,0,0-.531,2.337" transform="translate(14593 -10129)" fill="#995754"/>
            <path id="Trazado_160180" data-name="Trazado 160180" d="M592.454,83.391a4.171,4.171,0,0,1-3.108-1.208,4.378,4.378,0,0,1-1.191-3.215v-.25a5.387,5.387,0,0,1,.519-2.4,3.94,3.94,0,0,1,1.456-1.647,3.845,3.845,0,0,1,2.092-.59,3.524,3.524,0,0,1,2.835,1.171,4.946,4.946,0,0,1,1,3.311v.814h-5.869a2.69,2.69,0,0,0,.743,1.76,2.23,2.23,0,0,0,1.639.647,2.733,2.733,0,0,0,2.258-1.12l1.087,1.037a3.626,3.626,0,0,1-1.44,1.249,4.5,4.5,0,0,1-2.022.444m-.24-7.694a1.7,1.7,0,0,0-1.341.581,3.013,3.013,0,0,0-.651,1.618h3.844v-.149a2.455,2.455,0,0,0-.54-1.531,1.687,1.687,0,0,0-1.312-.519" transform="translate(14593 -10129)" fill="#995754"/>
            <path id="Trazado_160181" data-name="Trazado 160181" d="M605.545,81.781a1.825,1.825,0,0,0,1.254-.439,1.506,1.506,0,0,0,.531-1.088h1.9a2.96,2.96,0,0,1-.523,1.564,3.426,3.426,0,0,1-1.328,1.15,3.948,3.948,0,0,1-1.81.423,3.831,3.831,0,0,1-2.988-1.219,4.842,4.842,0,0,1-1.1-3.37v-.209a4.765,4.765,0,0,1,1.095-3.283,3.8,3.8,0,0,1,2.989-1.232,3.693,3.693,0,0,1,2.61.933,3.354,3.354,0,0,1,1.058,2.454h-1.9a1.847,1.847,0,0,0-.527-1.27,1.7,1.7,0,0,0-1.258-.5,1.775,1.775,0,0,0-1.51.709,3.628,3.628,0,0,0-.54,2.154v.325a3.674,3.674,0,0,0,.528,2.178,1.77,1.77,0,0,0,1.522.718" transform="translate(14593 -10129)" fill="#995754"/>
            <path id="Trazado_160182" data-name="Trazado 160182" d="M610.377,78.652a5.3,5.3,0,0,1,.523-2.379,3.825,3.825,0,0,1,1.47-1.627,4.134,4.134,0,0,1,2.173-.568,3.925,3.925,0,0,1,2.952,1.171,4.6,4.6,0,0,1,1.224,3.1l.008.473a5.345,5.345,0,0,1-.51,2.374,3.779,3.779,0,0,1-1.461,1.619,4.165,4.165,0,0,1-2.2.572,3.9,3.9,0,0,1-3.043-1.265,4.848,4.848,0,0,1-1.141-3.374Zm2.017.174A3.612,3.612,0,0,0,612.967,81a1.862,1.862,0,0,0,1.594.784,1.842,1.842,0,0,0,1.589-.8,4,4,0,0,0,.569-2.332,3.564,3.564,0,0,0-.586-2.158,1.972,1.972,0,0,0-3.158-.013,3.918,3.918,0,0,0-.581,2.345" transform="translate(14593 -10129)" fill="#995754"/>
            <path id="Trazado_160183" data-name="Trazado 160183" d="M625.468,80.785a.913.913,0,0,0-.444-.821,4.675,4.675,0,0,0-1.474-.5,7.671,7.671,0,0,1-1.719-.548,2.292,2.292,0,0,1-1.509-2.117,2.394,2.394,0,0,1,.978-1.943,3.879,3.879,0,0,1,2.49-.78,4.031,4.031,0,0,1,2.6.8,2.53,2.53,0,0,1,.992,2.067h-2.017a1.248,1.248,0,0,0-.431-.968,1.663,1.663,0,0,0-1.147-.385,1.788,1.788,0,0,0-1.083.307.969.969,0,0,0-.419.822.817.817,0,0,0,.391.722,5.393,5.393,0,0,0,1.576.519,7.48,7.48,0,0,1,1.864.622,2.625,2.625,0,0,1,1,.868,2.208,2.208,0,0,1,.328,1.229,2.341,2.341,0,0,1-1,1.962,4.279,4.279,0,0,1-2.631.751,4.632,4.632,0,0,1-1.967-.4,3.241,3.241,0,0,1-1.346-1.1,2.6,2.6,0,0,1-.48-1.5h1.959a1.42,1.42,0,0,0,.539,1.1,2.1,2.1,0,0,0,1.32.386,2.036,2.036,0,0,0,1.211-.3.938.938,0,0,0,.416-.793" transform="translate(14593 -10129)" fill="#995754"/>
            <path id="Trazado_160184" data-name="Trazado 160184" d="M631.733,72.062v2.183h1.586v1.494h-1.586v5.013a1.1,1.1,0,0,0,.2.744.944.944,0,0,0,.726.228,3.14,3.14,0,0,0,.706-.083V83.2a4.981,4.981,0,0,1-1.328.19q-2.325,0-2.325-2.564V75.739h-1.477V74.245h1.477V72.062Z" transform="translate(14593 -10129)" fill="#995754"/>
            <path id="Trazado_160185" data-name="Trazado 160185" d="M638.814,83.391a4.171,4.171,0,0,1-3.108-1.208,4.378,4.378,0,0,1-1.191-3.215v-.25a5.387,5.387,0,0,1,.519-2.4,3.94,3.94,0,0,1,1.456-1.647,3.845,3.845,0,0,1,2.092-.59,3.524,3.524,0,0,1,2.835,1.171,4.946,4.946,0,0,1,1,3.311v.814h-5.869a2.69,2.69,0,0,0,.743,1.76,2.23,2.23,0,0,0,1.639.647,2.733,2.733,0,0,0,2.258-1.12l1.087,1.037a3.626,3.626,0,0,1-1.44,1.249,4.5,4.5,0,0,1-2.022.444m-.24-7.694a1.7,1.7,0,0,0-1.341.581,3.013,3.013,0,0,0-.651,1.618h3.844v-.149a2.456,2.456,0,0,0-.54-1.531,1.687,1.687,0,0,0-1.312-.519" transform="translate(14593 -10129)" fill="#995754"/>
            <path id="Trazado_160186" data-name="Trazado 160186" d="M649.017,80.785a.913.913,0,0,0-.444-.821,4.675,4.675,0,0,0-1.474-.5,7.671,7.671,0,0,1-1.719-.548,2.292,2.292,0,0,1-1.509-2.117,2.394,2.394,0,0,1,.978-1.943,3.878,3.878,0,0,1,2.49-.78,4.031,4.031,0,0,1,2.6.8,2.53,2.53,0,0,1,.992,2.067h-2.017a1.248,1.248,0,0,0-.431-.968,1.663,1.663,0,0,0-1.147-.385,1.788,1.788,0,0,0-1.083.307.969.969,0,0,0-.419.822.816.816,0,0,0,.391.722,5.392,5.392,0,0,0,1.576.519,7.481,7.481,0,0,1,1.864.622,2.626,2.626,0,0,1,1,.868A2.208,2.208,0,0,1,651,80.678a2.341,2.341,0,0,1-1,1.962,4.278,4.278,0,0,1-2.631.751,4.632,4.632,0,0,1-1.967-.4,3.241,3.241,0,0,1-1.346-1.1,2.6,2.6,0,0,1-.48-1.5h1.959a1.42,1.42,0,0,0,.539,1.1,2.1,2.1,0,0,0,1.32.386,2.036,2.036,0,0,0,1.211-.3.938.938,0,0,0,.416-.793" transform="translate(14593 -10129)" fill="#995754"/>
          </g>
          <g id="Grupo_72162" data-name="Grupo 72162" transform="translate(-14223.034 11311.524)">
            <path id="Trazado_160187" data-name="Trazado 160187" d="M704.5,78.1h-4.865v5.121h-2.1V71.14h7.678v1.694h-5.578v3.594H704.5Z" transform="translate(14593 -10129)" fill="#995754"/>
            <path id="Trazado_160188" data-name="Trazado 160188" d="M711.937,82.346a3.131,3.131,0,0,1-2.523,1.046,2.792,2.792,0,0,1-2.213-.855,3.64,3.64,0,0,1-.75-2.473v-5.82h2.015v5.794q0,1.711,1.419,1.71a1.993,1.993,0,0,0,1.985-1.053V74.244h2.018v8.982h-1.9Z" transform="translate(14593 -10129)" fill="#995754"/>
            <path id="Trazado_160189" data-name="Trazado 160189" d="M719.9,83.391a4.171,4.171,0,0,1-3.108-1.208,4.378,4.378,0,0,1-1.191-3.215v-.25a5.387,5.387,0,0,1,.519-2.4,3.94,3.94,0,0,1,1.456-1.647,3.846,3.846,0,0,1,2.092-.59,3.524,3.524,0,0,1,2.835,1.171,4.946,4.946,0,0,1,1,3.311v.814H717.63a2.69,2.69,0,0,0,.743,1.76,2.23,2.23,0,0,0,1.639.647,2.733,2.733,0,0,0,2.258-1.12l1.087,1.037a3.626,3.626,0,0,1-1.44,1.249,4.5,4.5,0,0,1-2.022.444m-.24-7.694a1.7,1.7,0,0,0-1.341.581,3.012,3.012,0,0,0-.651,1.618h3.844v-.149a2.456,2.456,0,0,0-.54-1.531,1.687,1.687,0,0,0-1.312-.519" transform="translate(14593 -10129)" fill="#995754"/>
            <path id="Trazado_160190" data-name="Trazado 160190" d="M726.935,74.244l.058,1.038a3.228,3.228,0,0,1,2.615-1.2q2.805,0,2.855,3.213v5.934h-2.017V77.407a1.856,1.856,0,0,0-.369-1.267,1.556,1.556,0,0,0-1.207-.41,1.944,1.944,0,0,0-1.819,1.1v6.391h-2.017V74.244Z" transform="translate(14593 -10129)" fill="#995754"/>
            <path id="Trazado_160191" data-name="Trazado 160191" d="M737.046,72.062v2.183h1.586v1.494h-1.586v5.013a1.1,1.1,0,0,0,.2.744.944.944,0,0,0,.726.228,3.14,3.14,0,0,0,.706-.083V83.2a4.98,4.98,0,0,1-1.328.19q-2.325,0-2.325-2.564V75.739h-1.477V74.245h1.477V72.062Z" transform="translate(14593 -10129)" fill="#995754"/>
            <path id="Trazado_160192" data-name="Trazado 160192" d="M744.126,83.391a4.171,4.171,0,0,1-3.108-1.208,4.378,4.378,0,0,1-1.191-3.215v-.25a5.387,5.387,0,0,1,.519-2.4,3.94,3.94,0,0,1,1.456-1.647,3.845,3.845,0,0,1,2.092-.59,3.524,3.524,0,0,1,2.835,1.171,4.946,4.946,0,0,1,1,3.311v.814h-5.869a2.69,2.69,0,0,0,.743,1.76,2.23,2.23,0,0,0,1.639.647,2.733,2.733,0,0,0,2.258-1.12l1.087,1.037a3.626,3.626,0,0,1-1.44,1.249,4.5,4.5,0,0,1-2.022.444m-.24-7.694a1.7,1.7,0,0,0-1.341.581,3.013,3.013,0,0,0-.651,1.618h3.844v-.149a2.455,2.455,0,0,0-.54-1.531,1.687,1.687,0,0,0-1.312-.519" transform="translate(14593 -10129)" fill="#995754"/>
            <path id="Trazado_160193" data-name="Trazado 160193" d="M754.329,80.785a.913.913,0,0,0-.444-.821,4.675,4.675,0,0,0-1.474-.5,7.669,7.669,0,0,1-1.719-.548,2.292,2.292,0,0,1-1.509-2.117,2.394,2.394,0,0,1,.978-1.943,3.878,3.878,0,0,1,2.49-.78,4.031,4.031,0,0,1,2.6.8,2.53,2.53,0,0,1,.992,2.067h-2.017a1.248,1.248,0,0,0-.431-.968,1.662,1.662,0,0,0-1.147-.385,1.788,1.788,0,0,0-1.083.307.969.969,0,0,0-.419.822.817.817,0,0,0,.391.722,5.394,5.394,0,0,0,1.576.519,7.479,7.479,0,0,1,1.864.622,2.625,2.625,0,0,1,1,.868,2.208,2.208,0,0,1,.328,1.229,2.341,2.341,0,0,1-1,1.962,4.278,4.278,0,0,1-2.631.751,4.632,4.632,0,0,1-1.967-.4,3.241,3.241,0,0,1-1.346-1.1,2.6,2.6,0,0,1-.48-1.5h1.959a1.42,1.42,0,0,0,.539,1.1,2.1,2.1,0,0,0,1.32.386,2.036,2.036,0,0,0,1.211-.3.938.938,0,0,0,.416-.793" transform="translate(14593 -10129)" fill="#995754"/>
            <path id="Trazado_160194" data-name="Trazado 160194" d="M761.923,78.669a5.338,5.338,0,0,1,.963-3.333,3.083,3.083,0,0,1,2.581-1.258,2.933,2.933,0,0,1,2.308,1v-4.6h2.018v12.75h-1.827l-.1-.93a2.974,2.974,0,0,1-2.416,1.1,3.067,3.067,0,0,1-2.553-1.27,5.535,5.535,0,0,1-.975-3.453m2.017.174a3.744,3.744,0,0,0,.527,2.138,1.712,1.712,0,0,0,1.5.767,1.906,1.906,0,0,0,1.81-1.1V76.81a1.876,1.876,0,0,0-1.793-1.079,1.724,1.724,0,0,0-1.511.775,4.168,4.168,0,0,0-.531,2.337" transform="translate(14593 -10129)" fill="#995754"/>
            <path id="Trazado_160195" data-name="Trazado 160195" d="M775.851,83.391a4.171,4.171,0,0,1-3.108-1.208,4.378,4.378,0,0,1-1.191-3.215v-.25a5.387,5.387,0,0,1,.519-2.4,3.94,3.94,0,0,1,1.456-1.647,3.846,3.846,0,0,1,2.092-.59,3.524,3.524,0,0,1,2.835,1.171,4.946,4.946,0,0,1,1,3.311v.814h-5.869a2.69,2.69,0,0,0,.743,1.76,2.23,2.23,0,0,0,1.639.647,2.733,2.733,0,0,0,2.258-1.12l1.087,1.037a3.626,3.626,0,0,1-1.44,1.249,4.5,4.5,0,0,1-2.022.444m-.24-7.694a1.7,1.7,0,0,0-1.341.581,3.012,3.012,0,0,0-.651,1.618h3.844v-.149a2.455,2.455,0,0,0-.54-1.531,1.687,1.687,0,0,0-1.312-.519" transform="translate(14593 -10129)" fill="#995754"/>
            <path id="Trazado_160196" data-name="Trazado 160196" d="M785.257,71.912a1.069,1.069,0,0,1,.295-.772,1.115,1.115,0,0,1,.843-.307,1.128,1.128,0,0,1,.846.307,1.064,1.064,0,0,1,.3.772,1.037,1.037,0,0,1-.3.759,1.135,1.135,0,0,1-.846.3,1.121,1.121,0,0,1-.843-.3,1.041,1.041,0,0,1-.295-.759M787.4,83.226h-2.018V74.245H787.4Z" transform="translate(14593 -10129)" fill="#995754"/>
            <path id="Trazado_160197" data-name="Trazado 160197" d="M791.466,74.244l.058,1.038a3.228,3.228,0,0,1,2.615-1.2q2.8,0,2.855,3.213v5.934h-2.017V77.407a1.856,1.856,0,0,0-.369-1.267,1.556,1.556,0,0,0-1.207-.41,1.944,1.944,0,0,0-1.819,1.1v6.391h-2.017V74.244Z" transform="translate(14593 -10129)" fill="#995754"/>
            <path id="Trazado_160198" data-name="Trazado 160198" d="M798.7,78.669a5.256,5.256,0,0,1,.984-3.342,3.16,3.16,0,0,1,2.611-1.249,2.959,2.959,0,0,1,2.415,1.072l.091-.906h1.818v8.708a3.618,3.618,0,0,1-1.1,2.789,4.19,4.19,0,0,1-2.968,1.021,4.784,4.784,0,0,1-1.93-.411,3.448,3.448,0,0,1-1.433-1.074l.956-1.212a2.885,2.885,0,0,0,2.291,1.1,2.225,2.225,0,0,0,1.586-.544,2.085,2.085,0,0,0,.58-1.6v-.606a2.967,2.967,0,0,1-2.325.971,3.152,3.152,0,0,1-2.577-1.253,5.423,5.423,0,0,1-1-3.47m2.009.174a3.615,3.615,0,0,0,.552,2.129,1.777,1.777,0,0,0,1.532.776A1.941,1.941,0,0,0,804.6,80.7V76.751a1.912,1.912,0,0,0-1.793-1.02,1.781,1.781,0,0,0-1.548.788,4.05,4.05,0,0,0-.552,2.324" transform="translate(14593 -10129)" fill="#995754"/>
            <path id="Trazado_160199" data-name="Trazado 160199" d="M813.389,76.087a5.029,5.029,0,0,0-.822-.066,1.849,1.849,0,0,0-1.867,1.062v6.143h-2.018V74.244h1.926l.05,1a2.273,2.273,0,0,1,2.025-1.171,1.9,1.9,0,0,1,.714.116Z" transform="translate(14593 -10129)" fill="#995754"/>
            <path id="Trazado_160200" data-name="Trazado 160200" d="M818.46,83.391a4.171,4.171,0,0,1-3.108-1.208,4.378,4.378,0,0,1-1.191-3.215v-.25a5.387,5.387,0,0,1,.519-2.4,3.94,3.94,0,0,1,1.456-1.647,3.846,3.846,0,0,1,2.092-.59,3.524,3.524,0,0,1,2.835,1.171,4.946,4.946,0,0,1,1,3.311v.814H816.2a2.69,2.69,0,0,0,.743,1.76,2.23,2.23,0,0,0,1.639.647,2.733,2.733,0,0,0,2.258-1.12l1.087,1.037a3.626,3.626,0,0,1-1.44,1.249,4.5,4.5,0,0,1-2.022.444m-.24-7.694a1.7,1.7,0,0,0-1.341.581,3.012,3.012,0,0,0-.651,1.618h3.844v-.149a2.456,2.456,0,0,0-.54-1.531,1.687,1.687,0,0,0-1.312-.519" transform="translate(14593 -10129)" fill="#995754"/>
            <path id="Trazado_160201" data-name="Trazado 160201" d="M828.662,80.785a.913.913,0,0,0-.444-.821,4.675,4.675,0,0,0-1.474-.5,7.669,7.669,0,0,1-1.719-.548,2.292,2.292,0,0,1-1.509-2.117,2.394,2.394,0,0,1,.978-1.943,3.878,3.878,0,0,1,2.49-.78,4.031,4.031,0,0,1,2.6.8,2.53,2.53,0,0,1,.992,2.067h-2.017a1.248,1.248,0,0,0-.431-.968,1.662,1.662,0,0,0-1.147-.385,1.788,1.788,0,0,0-1.083.307.969.969,0,0,0-.419.822.817.817,0,0,0,.391.722,5.394,5.394,0,0,0,1.576.519,7.479,7.479,0,0,1,1.864.622,2.625,2.625,0,0,1,1,.868,2.208,2.208,0,0,1,.328,1.229,2.341,2.341,0,0,1-1,1.962,4.279,4.279,0,0,1-2.631.751,4.632,4.632,0,0,1-1.967-.4,3.241,3.241,0,0,1-1.346-1.1,2.6,2.6,0,0,1-.48-1.5h1.959a1.42,1.42,0,0,0,.539,1.1,2.1,2.1,0,0,0,1.32.386,2.036,2.036,0,0,0,1.211-.3.938.938,0,0,0,.416-.793" transform="translate(14593 -10129)" fill="#995754"/>
            <path id="Trazado_160202" data-name="Trazado 160202" d="M832.024,78.652a5.3,5.3,0,0,1,.523-2.379,3.825,3.825,0,0,1,1.47-1.627,4.134,4.134,0,0,1,2.173-.568,3.925,3.925,0,0,1,2.952,1.171,4.6,4.6,0,0,1,1.224,3.1l.008.473a5.345,5.345,0,0,1-.51,2.374,3.779,3.779,0,0,1-1.461,1.619,4.165,4.165,0,0,1-2.2.572,3.9,3.9,0,0,1-3.043-1.265,4.848,4.848,0,0,1-1.141-3.374Zm2.017.174A3.612,3.612,0,0,0,834.614,81a1.862,1.862,0,0,0,1.594.784,1.842,1.842,0,0,0,1.589-.8,3.994,3.994,0,0,0,.569-2.332,3.564,3.564,0,0,0-.586-2.158,1.972,1.972,0,0,0-3.158-.013,3.918,3.918,0,0,0-.581,2.345" transform="translate(14593 -10129)" fill="#995754"/>
            <path id="Trazado_161258" data-name="Trazado 161258" d="M754.329,80.785a.913.913,0,0,0-.444-.821,4.675,4.675,0,0,0-1.474-.5,7.669,7.669,0,0,1-1.719-.548,2.292,2.292,0,0,1-1.509-2.117,2.394,2.394,0,0,1,.978-1.943,3.878,3.878,0,0,1,2.49-.78,4.031,4.031,0,0,1,2.6.8,2.53,2.53,0,0,1,.992,2.067h-2.017a1.248,1.248,0,0,0-.431-.968,1.662,1.662,0,0,0-1.147-.385,1.788,1.788,0,0,0-1.083.307.969.969,0,0,0-.419.822.817.817,0,0,0,.391.722,5.394,5.394,0,0,0,1.576.519,7.479,7.479,0,0,1,1.864.622,2.625,2.625,0,0,1,1,.868,2.208,2.208,0,0,1,.328,1.229,2.341,2.341,0,0,1-1,1.962,4.278,4.278,0,0,1-2.631.751,4.632,4.632,0,0,1-1.967-.4,3.241,3.241,0,0,1-1.346-1.1,2.6,2.6,0,0,1-.48-1.5h1.959a1.42,1.42,0,0,0,.539,1.1,2.1,2.1,0,0,0,1.32.386,2.036,2.036,0,0,0,1.211-.3.938.938,0,0,0,.416-.793" transform="translate(14685.869 -10129)" fill="#995754"/>
          </g>
          <g id="Grupo_72159" data-name="Grupo 72159" transform="translate(-14062.365 11221)">
            <path id="Trazado_160203" data-name="Trazado 160203" d="M379.307,8.1h-2.342V12.75h-2.1V.664h4.25a4.942,4.942,0,0,1,3.229.938,3.32,3.32,0,0,1,1.138,2.717A3.41,3.41,0,0,1,382.9,6.35a3.73,3.73,0,0,1-1.631,1.259l2.714,5.032v.109h-2.249Zm-2.342-1.693h2.158a2.4,2.4,0,0,0,1.66-.535,1.869,1.869,0,0,0,.6-1.466,1.987,1.987,0,0,0-.552-1.5,2.344,2.344,0,0,0-1.647-.548h-2.217Z" transform="translate(14593 -10129)" fill="#995754"/>
            <path id="Trazado_160204" data-name="Trazado 160204" d="M389.233,12.916a4.171,4.171,0,0,1-3.108-1.208,4.379,4.379,0,0,1-1.191-3.216v-.25a5.382,5.382,0,0,1,.519-2.4,3.949,3.949,0,0,1,1.456-1.648A3.853,3.853,0,0,1,389,3.6a3.523,3.523,0,0,1,2.835,1.17,4.949,4.949,0,0,1,1,3.312V8.9h-5.869a2.688,2.688,0,0,0,.743,1.759,2.227,2.227,0,0,0,1.639.648,2.734,2.734,0,0,0,2.258-1.121l1.087,1.038a3.634,3.634,0,0,1-1.44,1.249,4.512,4.512,0,0,1-2.022.444m-.24-7.7a1.7,1.7,0,0,0-1.341.581A3.016,3.016,0,0,0,387,7.421h3.844V7.272a2.453,2.453,0,0,0-.54-1.531,1.684,1.684,0,0,0-1.312-.52" transform="translate(14593 -10129)" fill="#995754"/>
            <path id="Trazado_160205" data-name="Trazado 160205" d="M398.09,11.306a1.821,1.821,0,0,0,1.254-.44,1.5,1.5,0,0,0,.531-1.087h1.9a2.966,2.966,0,0,1-.523,1.564,3.434,3.434,0,0,1-1.328,1.15,3.961,3.961,0,0,1-1.81.423,3.832,3.832,0,0,1-2.988-1.22,4.84,4.84,0,0,1-1.1-3.37V8.118a4.763,4.763,0,0,1,1.1-3.283A3.8,3.8,0,0,1,398.108,3.6a3.693,3.693,0,0,1,2.61.933,3.353,3.353,0,0,1,1.058,2.454h-1.9a1.849,1.849,0,0,0-.527-1.271,1.7,1.7,0,0,0-1.258-.5,1.775,1.775,0,0,0-1.51.71,3.627,3.627,0,0,0-.54,2.154v.324a3.677,3.677,0,0,0,.528,2.179,1.77,1.77,0,0,0,1.522.718" transform="translate(14593 -10129)" fill="#995754"/>
            <path id="Trazado_160206" data-name="Trazado 160206" d="M408.74,11.87a3.13,3.13,0,0,1-2.523,1.046,2.785,2.785,0,0,1-2.212-.856,3.633,3.633,0,0,1-.751-2.473V3.768h2.016V9.562q0,1.71,1.419,1.71a1.993,1.993,0,0,0,1.985-1.054V3.768h2.017V12.75h-1.9Z" transform="translate(14593 -10129)" fill="#995754"/>
            <path id="Trazado_160207" data-name="Trazado 160207" d="M417.449,5.611a4.921,4.921,0,0,0-.822-.066,1.847,1.847,0,0,0-1.867,1.062V12.75h-2.018V3.768h1.926l.05,1a2.273,2.273,0,0,1,2.025-1.17,1.881,1.881,0,0,1,.714.116Z" transform="translate(14593 -10129)" fill="#995754"/>
            <path id="Trazado_160208" data-name="Trazado 160208" d="M423.758,10.31a.914.914,0,0,0-.444-.822,4.727,4.727,0,0,0-1.474-.5,7.569,7.569,0,0,1-1.719-.548,2.291,2.291,0,0,1-1.509-2.116,2.391,2.391,0,0,1,.978-1.943,3.873,3.873,0,0,1,2.49-.78,4.031,4.031,0,0,1,2.6.8,2.528,2.528,0,0,1,.992,2.066h-2.017a1.248,1.248,0,0,0-.431-.967,1.662,1.662,0,0,0-1.147-.385A1.794,1.794,0,0,0,421,5.42a.97.97,0,0,0-.419.823.815.815,0,0,0,.391.721,5.355,5.355,0,0,0,1.576.52,7.479,7.479,0,0,1,1.864.622,2.632,2.632,0,0,1,1,.867,2.21,2.21,0,0,1,.328,1.229,2.341,2.341,0,0,1-1,1.963,4.285,4.285,0,0,1-2.631.751,4.632,4.632,0,0,1-1.967-.4,3.241,3.241,0,0,1-1.346-1.1,2.6,2.6,0,0,1-.48-1.5h1.959a1.421,1.421,0,0,0,.539,1.1,2.1,2.1,0,0,0,1.32.386,2.043,2.043,0,0,0,1.211-.3.939.939,0,0,0,.416-.793" transform="translate(14593 -10129)" fill="#995754"/>
            <path id="Trazado_160209" data-name="Trazado 160209" d="M427.119,8.176a5.291,5.291,0,0,1,.523-2.378,3.819,3.819,0,0,1,1.47-1.627,4.134,4.134,0,0,1,2.173-.568,3.924,3.924,0,0,1,2.952,1.17,4.6,4.6,0,0,1,1.224,3.1l.008.474a5.348,5.348,0,0,1-.51,2.374,3.776,3.776,0,0,1-1.461,1.618,4.165,4.165,0,0,1-2.195.573,3.9,3.9,0,0,1-3.043-1.265,4.851,4.851,0,0,1-1.141-3.375Zm2.017.175a3.614,3.614,0,0,0,.573,2.171,1.862,1.862,0,0,0,1.594.784,1.842,1.842,0,0,0,1.589-.8,4,4,0,0,0,.569-2.333,3.567,3.567,0,0,0-.586-2.158,1.972,1.972,0,0,0-3.158-.012,3.916,3.916,0,0,0-.581,2.345" transform="translate(14593 -10129)" fill="#995754"/>
            <path id="Trazado_160210" data-name="Trazado 160210" d="M442.21,10.31a.914.914,0,0,0-.444-.822,4.727,4.727,0,0,0-1.474-.5,7.569,7.569,0,0,1-1.719-.548,2.291,2.291,0,0,1-1.509-2.116,2.391,2.391,0,0,1,.978-1.943,3.873,3.873,0,0,1,2.49-.78,4.031,4.031,0,0,1,2.6.8,2.528,2.528,0,0,1,.992,2.066H442.11a1.248,1.248,0,0,0-.431-.967,1.662,1.662,0,0,0-1.147-.385,1.794,1.794,0,0,0-1.083.306.971.971,0,0,0-.419.823.815.815,0,0,0,.391.721,5.355,5.355,0,0,0,1.576.52,7.479,7.479,0,0,1,1.864.622,2.632,2.632,0,0,1,1,.867,2.21,2.21,0,0,1,.328,1.229,2.341,2.341,0,0,1-1,1.963,4.285,4.285,0,0,1-2.631.751,4.632,4.632,0,0,1-1.967-.4,3.241,3.241,0,0,1-1.346-1.1,2.6,2.6,0,0,1-.48-1.5h1.959a1.421,1.421,0,0,0,.539,1.1,2.1,2.1,0,0,0,1.32.386,2.043,2.043,0,0,0,1.211-.3.939.939,0,0,0,.416-.793" transform="translate(14593 -10129)" fill="#995754"/>
            <path id="Trazado_160211" data-name="Trazado 160211" d="M453.871,11.306a1.821,1.821,0,0,0,1.254-.44,1.5,1.5,0,0,0,.531-1.087h1.9a2.966,2.966,0,0,1-.523,1.564,3.434,3.434,0,0,1-1.328,1.15,3.961,3.961,0,0,1-1.81.423,3.832,3.832,0,0,1-2.988-1.22,4.84,4.84,0,0,1-1.1-3.37V8.118a4.763,4.763,0,0,1,1.1-3.283A3.8,3.8,0,0,1,453.889,3.6a3.693,3.693,0,0,1,2.61.933,3.354,3.354,0,0,1,1.058,2.454h-1.9a1.849,1.849,0,0,0-.527-1.271,1.7,1.7,0,0,0-1.258-.5,1.775,1.775,0,0,0-1.51.71,3.627,3.627,0,0,0-.54,2.154v.324a3.677,3.677,0,0,0,.528,2.179,1.77,1.77,0,0,0,1.522.718" transform="translate(14593 -10129)" fill="#995754"/>
            <rect id="Rectángulo_12295" data-name="Rectángulo 12295" width="2.018" height="12.75" transform="translate(15052.209 -10129)" fill="#995754"/>
            <path id="Trazado_160212" data-name="Trazado 160212" d="M468.789,12.75a3.118,3.118,0,0,1-.233-.839,3.138,3.138,0,0,1-2.357,1.005,3.174,3.174,0,0,1-2.209-.772,2.473,2.473,0,0,1-.855-1.909,2.55,2.55,0,0,1,1.067-2.2,5.169,5.169,0,0,1,3.051-.768h1.237V6.674a1.572,1.572,0,0,0-.391-1.116,1.54,1.54,0,0,0-1.187-.42,1.777,1.777,0,0,0-1.129.345,1.066,1.066,0,0,0-.44.876h-2.017a2.237,2.237,0,0,1,.49-1.382,3.25,3.25,0,0,1,1.332-1.009,4.675,4.675,0,0,1,1.881-.365,3.761,3.761,0,0,1,2.515.793,2.826,2.826,0,0,1,.963,2.228v4.051a4.591,4.591,0,0,0,.34,1.934v.141ZM466.572,11.3a2.305,2.305,0,0,0,1.125-.29,1.948,1.948,0,0,0,.793-.78V8.533H467.4a2.973,2.973,0,0,0-1.685.39,1.266,1.266,0,0,0-.565,1.1,1.179,1.179,0,0,0,.387.926,1.49,1.49,0,0,0,1.033.344" transform="translate(14593 -10129)" fill="#995754"/>
            <path id="Trazado_160213" data-name="Trazado 160213" d="M475.661,10.193l1.9-6.425h2.083l-3.112,8.982h-1.752l-3.138-8.982h2.092Z" transform="translate(14593 -10129)" fill="#995754"/>
            <path id="Trazado_160214" data-name="Trazado 160214" d="M484.75,12.916a4.171,4.171,0,0,1-3.108-1.208,4.379,4.379,0,0,1-1.191-3.216v-.25a5.382,5.382,0,0,1,.519-2.4,3.949,3.949,0,0,1,1.456-1.648,3.853,3.853,0,0,1,2.092-.589,3.523,3.523,0,0,1,2.835,1.17,4.949,4.949,0,0,1,1,3.312V8.9h-5.869a2.688,2.688,0,0,0,.743,1.759,2.227,2.227,0,0,0,1.639.648,2.734,2.734,0,0,0,2.258-1.121l1.087,1.038a3.634,3.634,0,0,1-1.44,1.249,4.512,4.512,0,0,1-2.022.444m-.24-7.7a1.7,1.7,0,0,0-1.341.581,3.016,3.016,0,0,0-.651,1.619h3.844V7.272a2.453,2.453,0,0,0-.54-1.531,1.684,1.684,0,0,0-1.312-.52" transform="translate(14593 -10129)" fill="#995754"/>
          </g>
          <g id="Grupo_72166" data-name="Grupo 72166" transform="translate(-14125.147 11221)">
            <path id="Trazado_160131" data-name="Trazado 160131" d="M183.492,9.935H178.81l-.98,2.815h-2.183L180.212.664H182.1L186.67,12.75h-2.191ZM179.4,8.242h3.5L181.15,3.228Z" transform="translate(14593 -10129)" fill="#995754"/>
            <path id="Trazado_160132" data-name="Trazado 160132" d="M191.535,11.306a1.821,1.821,0,0,0,1.254-.44,1.5,1.5,0,0,0,.531-1.087h1.9a2.966,2.966,0,0,1-.523,1.564,3.435,3.435,0,0,1-1.328,1.15,3.961,3.961,0,0,1-1.81.423,3.832,3.832,0,0,1-2.988-1.22,4.84,4.84,0,0,1-1.1-3.37V8.118a4.763,4.763,0,0,1,1.1-3.283A3.8,3.8,0,0,1,191.553,3.6a3.693,3.693,0,0,1,2.61.933,3.354,3.354,0,0,1,1.058,2.454h-1.9a1.849,1.849,0,0,0-.527-1.271,1.7,1.7,0,0,0-1.258-.5,1.775,1.775,0,0,0-1.51.71,3.627,3.627,0,0,0-.54,2.154v.324a3.677,3.677,0,0,0,.528,2.179,1.77,1.77,0,0,0,1.522.718" transform="translate(14593 -10129)" fill="#995754"/>
            <path id="Trazado_160133" data-name="Trazado 160133" d="M199.271,1.585V3.769h1.586V5.263h-1.586v5.013a1.107,1.107,0,0,0,.2.744.948.948,0,0,0,.726.227,3.083,3.083,0,0,0,.706-.083v1.561a4.943,4.943,0,0,1-1.328.191q-2.325,0-2.325-2.565V5.263h-1.477V3.769h1.477V1.585Z" transform="translate(14593 -10129)" fill="#995754"/>
            <path id="Trazado_160134" data-name="Trazado 160134" d="M202.4,1.436a1.071,1.071,0,0,1,.3-.772,1.114,1.114,0,0,1,.843-.307,1.127,1.127,0,0,1,.847.307,1.062,1.062,0,0,1,.3.772,1.04,1.04,0,0,1-.3.76,1.136,1.136,0,0,1-.847.3,1.123,1.123,0,0,1-.843-.3,1.049,1.049,0,0,1-.3-.76m2.143,11.314h-2.018V3.769h2.018Z" transform="translate(14593 -10129)" fill="#995754"/>
            <path id="Trazado_160135" data-name="Trazado 160135" d="M209.905,10.193l1.9-6.425h2.083l-3.112,8.982h-1.752l-3.138-8.982h2.092Z" transform="translate(14593 -10129)" fill="#995754"/>
            <path id="Trazado_160136" data-name="Trazado 160136" d="M215.15,1.436a1.071,1.071,0,0,1,.3-.772,1.114,1.114,0,0,1,.843-.307,1.127,1.127,0,0,1,.847.307,1.062,1.062,0,0,1,.3.772,1.04,1.04,0,0,1-.3.76,1.136,1.136,0,0,1-.847.3,1.123,1.123,0,0,1-.843-.3,1.049,1.049,0,0,1-.3-.76m2.143,11.314h-2.018V3.769h2.018Z" transform="translate(14593 -10129)" fill="#995754"/>
            <path id="Trazado_160137" data-name="Trazado 160137" d="M219.111,8.192a5.337,5.337,0,0,1,.963-3.332A3.083,3.083,0,0,1,222.655,3.6a2.933,2.933,0,0,1,2.308,1V0h2.018V12.75h-1.827l-.1-.93a2.974,2.974,0,0,1-2.416,1.1,3.068,3.068,0,0,1-2.553-1.271,5.534,5.534,0,0,1-.975-3.453m2.017.175a3.746,3.746,0,0,0,.527,2.138,1.712,1.712,0,0,0,1.5.767,1.905,1.905,0,0,0,1.81-1.1V6.333a1.877,1.877,0,0,0-1.793-1.079,1.725,1.725,0,0,0-1.511.776,4.166,4.166,0,0,0-.531,2.337" transform="translate(14593 -10129)" fill="#995754"/>
            <path id="Trazado_160138" data-name="Trazado 160138" d="M234.451,12.75a3.118,3.118,0,0,1-.233-.839,3.138,3.138,0,0,1-2.357,1.005,3.174,3.174,0,0,1-2.209-.772,2.474,2.474,0,0,1-.855-1.909,2.55,2.55,0,0,1,1.067-2.2,5.169,5.169,0,0,1,3.051-.768h1.237V6.674a1.572,1.572,0,0,0-.391-1.116,1.54,1.54,0,0,0-1.187-.42,1.777,1.777,0,0,0-1.129.345,1.066,1.066,0,0,0-.44.876h-2.017a2.237,2.237,0,0,1,.49-1.382,3.25,3.25,0,0,1,1.332-1.009,4.675,4.675,0,0,1,1.881-.365,3.761,3.761,0,0,1,2.515.793,2.826,2.826,0,0,1,.963,2.228v4.051a4.591,4.591,0,0,0,.34,1.934v.141ZM232.234,11.3a2.305,2.305,0,0,0,1.125-.29,1.948,1.948,0,0,0,.793-.78V8.533h-1.088a2.973,2.973,0,0,0-1.685.39,1.266,1.266,0,0,0-.565,1.1,1.179,1.179,0,0,0,.387.926,1.49,1.49,0,0,0,1.033.344" transform="translate(14593 -10129)" fill="#995754"/>
            <path id="Trazado_160139" data-name="Trazado 160139" d="M237.9,8.192a5.337,5.337,0,0,1,.963-3.332A3.083,3.083,0,0,1,241.448,3.6a2.933,2.933,0,0,1,2.308,1V0h2.018V12.75h-1.827l-.1-.93a2.974,2.974,0,0,1-2.416,1.1,3.068,3.068,0,0,1-2.553-1.271,5.534,5.534,0,0,1-.975-3.453m2.017.175a3.746,3.746,0,0,0,.527,2.138,1.712,1.712,0,0,0,1.5.767,1.905,1.905,0,0,0,1.81-1.1V6.333a1.877,1.877,0,0,0-1.793-1.079,1.725,1.725,0,0,0-1.511.776,4.166,4.166,0,0,0-.531,2.337" transform="translate(14593 -10129)" fill="#995754"/>
            <path id="Trazado_160140" data-name="Trazado 160140" d="M251.832,12.916a4.171,4.171,0,0,1-3.108-1.208,4.379,4.379,0,0,1-1.191-3.216v-.25a5.382,5.382,0,0,1,.519-2.4,3.949,3.949,0,0,1,1.456-1.648A3.853,3.853,0,0,1,251.6,3.6a3.523,3.523,0,0,1,2.835,1.17,4.949,4.949,0,0,1,1,3.312V8.9h-5.869a2.688,2.688,0,0,0,.743,1.759,2.227,2.227,0,0,0,1.639.648,2.734,2.734,0,0,0,2.258-1.121l1.087,1.038a3.634,3.634,0,0,1-1.44,1.249,4.512,4.512,0,0,1-2.022.444m-.24-7.7a1.7,1.7,0,0,0-1.341.581,3.016,3.016,0,0,0-.651,1.619h3.844V7.272a2.453,2.453,0,0,0-.54-1.531,1.684,1.684,0,0,0-1.312-.52" transform="translate(14593 -10129)" fill="#995754"/>
            <path id="Trazado_160141" data-name="Trazado 160141" d="M262.034,10.31a.914.914,0,0,0-.444-.822,4.727,4.727,0,0,0-1.474-.5,7.569,7.569,0,0,1-1.719-.548,2.291,2.291,0,0,1-1.509-2.116,2.391,2.391,0,0,1,.978-1.943,3.873,3.873,0,0,1,2.49-.78,4.031,4.031,0,0,1,2.6.8,2.528,2.528,0,0,1,.992,2.066h-2.017A1.248,1.248,0,0,0,261.5,5.5a1.662,1.662,0,0,0-1.147-.385,1.794,1.794,0,0,0-1.083.306.97.97,0,0,0-.419.823.815.815,0,0,0,.391.721,5.355,5.355,0,0,0,1.576.52,7.479,7.479,0,0,1,1.864.622,2.632,2.632,0,0,1,1,.867,2.21,2.21,0,0,1,.328,1.229,2.341,2.341,0,0,1-1,1.963,4.285,4.285,0,0,1-2.631.751,4.632,4.632,0,0,1-1.967-.4,3.241,3.241,0,0,1-1.346-1.1,2.6,2.6,0,0,1-.48-1.5h1.959a1.421,1.421,0,0,0,.539,1.1,2.1,2.1,0,0,0,1.32.386,2.043,2.043,0,0,0,1.211-.3.939.939,0,0,0,.416-.793" transform="translate(14593 -10129)" fill="#995754"/>
            <path id="Trazado_160142" data-name="Trazado 160142" d="M273.7,11.306a1.821,1.821,0,0,0,1.254-.44,1.5,1.5,0,0,0,.531-1.087h1.9a2.966,2.966,0,0,1-.523,1.564,3.435,3.435,0,0,1-1.328,1.15,3.961,3.961,0,0,1-1.81.423,3.832,3.832,0,0,1-2.988-1.22,4.84,4.84,0,0,1-1.1-3.37V8.118a4.763,4.763,0,0,1,1.1-3.283A3.8,3.8,0,0,1,273.713,3.6a3.693,3.693,0,0,1,2.61.933,3.354,3.354,0,0,1,1.058,2.454h-1.9a1.849,1.849,0,0,0-.527-1.271,1.7,1.7,0,0,0-1.258-.5,1.775,1.775,0,0,0-1.51.71,3.627,3.627,0,0,0-.54,2.154v.324a3.677,3.677,0,0,0,.528,2.179,1.77,1.77,0,0,0,1.522.718" transform="translate(14593 -10129)" fill="#995754"/>
            <rect id="Rectángulo_12292" data-name="Rectángulo 12292" width="2.018" height="12.75" transform="translate(14872.033 -10129)" fill="#995754"/>
            <path id="Trazado_160143" data-name="Trazado 160143" d="M288.613,12.75a3.194,3.194,0,0,1-.233-.839,3.138,3.138,0,0,1-2.357,1.005,3.17,3.17,0,0,1-2.208-.772,2.474,2.474,0,0,1-.855-1.909,2.55,2.55,0,0,1,1.066-2.2,5.17,5.17,0,0,1,3.052-.768h1.237V6.674a1.568,1.568,0,0,0-.392-1.116,1.539,1.539,0,0,0-1.186-.42,1.773,1.773,0,0,0-1.129.345,1.066,1.066,0,0,0-.44.876h-2.017a2.237,2.237,0,0,1,.49-1.382,3.237,3.237,0,0,1,1.332-1.009,4.667,4.667,0,0,1,1.88-.365,3.759,3.759,0,0,1,2.515.793,2.827,2.827,0,0,1,.964,2.228v4.051a4.575,4.575,0,0,0,.34,1.934v.141ZM286.4,11.3a2.311,2.311,0,0,0,1.125-.29,1.948,1.948,0,0,0,.793-.78V8.533h-1.088a2.971,2.971,0,0,0-1.685.39,1.264,1.264,0,0,0-.565,1.1,1.179,1.179,0,0,0,.386.926,1.5,1.5,0,0,0,1.034.344" transform="translate(14593 -10129)" fill="#995754"/>
            <path id="Trazado_160144" data-name="Trazado 160144" d="M295.485,10.193l1.9-6.425h2.083l-3.112,8.982h-1.752l-3.138-8.982h2.092Z" transform="translate(14593 -10129)" fill="#995754"/>
            <path id="Trazado_160145" data-name="Trazado 160145" d="M304.574,12.916a4.171,4.171,0,0,1-3.108-1.208,4.379,4.379,0,0,1-1.191-3.216v-.25a5.382,5.382,0,0,1,.519-2.4,3.949,3.949,0,0,1,1.456-1.648,3.853,3.853,0,0,1,2.092-.589,3.523,3.523,0,0,1,2.835,1.17,4.949,4.949,0,0,1,1,3.312V8.9h-5.869a2.688,2.688,0,0,0,.743,1.759,2.227,2.227,0,0,0,1.639.648,2.734,2.734,0,0,0,2.258-1.121l1.087,1.038a3.634,3.634,0,0,1-1.44,1.249,4.512,4.512,0,0,1-2.022.444m-.24-7.7a1.7,1.7,0,0,0-1.341.581,3.016,3.016,0,0,0-.651,1.619h3.844V7.272a2.453,2.453,0,0,0-.54-1.531,1.684,1.684,0,0,0-1.312-.52" transform="translate(14593 -10129)" fill="#995754"/>
          </g>
        </g>
        <rect id="Rectángulo_12336" data-name="Rectángulo 12336" width="1030" height="246" transform="translate(285 1054)" fill="none"/>
      </g>
      <g id="Grupo_72170" data-name="Grupo 72170" transform="translate(1182.373 1061)">
        <g id="Grupo_72169" data-name="Grupo 72169" clip-path="url(#clip-path)">
          <path id="Trazado_160268" data-name="Trazado 160268" d="M16.126,56.668a149.523,149.523,0,0,0,8.317-24.426l-1.36-2.131s-5.645-.632-10.627,9.473S1.794,59.819,4.642,64.349c3.379,1.828,5.578-1.4,11.484-7.681" transform="translate(-0.597 -4.632)" fill="#442020"/>
          <path id="Trazado_160269" data-name="Trazado 160269" d="M11.093,189.486s-2.059,2.239-4.809,4.919c-2.544,2.481-3.332,3.2-5.694,5.5-1.379,1.346-.244,2.583,2.385,2.482a47.169,47.169,0,0,0,10.469-2.265,53.228,53.228,0,0,0,7.84-4.086,5.194,5.194,0,0,0,2.326-2.942v-4.139Z" transform="translate(0 -29.072)" fill="#602b2b"/>
          <path id="Trazado_160270" data-name="Trazado 160270" d="M45.718,204.807s-.477,4.242-.77,9.571.46,10.035,2.09,10.622,6.267.512,8.906-6.888a29.4,29.4,0,0,0,1.065-14.576Z" transform="translate(-6.906 -31.315)" fill="#602b2b"/>
          <path id="Trazado_160271" data-name="Trazado 160271" d="M50.862,104.948c.973-15.185-7.4-23.167-7.4-23.167.666-5.117-23.069,2.044-23.069,2.044s-5.082,27.509-7.229,41.994c-2.44,16.463-1.372,45.852-1.372,45.852s.309,3.579,6.441,3.555c4.705-.019,8.585-3.847,8.585-3.847l.487-34.309,6.374-23.52s-.128,23.413,2.593,32.924c4.056,14.181,2.765,41.325,2.765,41.325s7.961,2.84,13.411.115,4.38-5.77,4.38-5.77,1.775-23.3-5.233-39.073c-.585-11.973-1.181-31.148-.734-38.123" transform="translate(-1.779 -12.299)" fill="#441c1c"/>
          <path id="Trazado_160272" data-name="Trazado 160272" d="M25.064,31.612S16.872,38.229,15.9,47.578c-.483,4.644.933,20.284.976,30.536C16.9,83.864,14.609,100,14.609,100a52.831,52.831,0,0,0,7.509,4.134,57.721,57.721,0,0,1,1.547-10.487s.465,7.207.465,11.174a28.283,28.283,0,0,0,8.358,1.23c7.587-.036,20.067-5.307,20.067-5.307s0-17.264-2.3-26.8c-2.461-10.184,1.271-27.3.905-30.045-.613-4.6-11.036-9.577-11.036-9.577S32.725,28.6,25.064,31.612" transform="translate(-2.248 -4.729)" fill="#602b2b"/>
          <path id="Trazado_160273" data-name="Trazado 160273" d="M29.047,30.735a48.237,48.237,0,0,0-7.655,7.876,15.8,15.8,0,0,0-2.412,4.341l2.412,2.356L17.964,46.95s-1.918,12.919.683,17.258S24.387,79.4,24.387,79.4s3.618-11.208,5.2-14,7.58-10.521,7.58-10.521l-3-4.531L37.986,49.1s7.977-9,7.257-11.613a8.466,8.466,0,0,0-6.028-5.876Z" transform="translate(-2.659 -4.729)" fill="#441c1c"/>
          <path id="Trazado_160274" data-name="Trazado 160274" d="M25.339,41.194a111.983,111.983,0,0,0-3.014,11.224c-1.066,5.33,2.809,23.062,2.809,23.062s1.727-17.332,5.2-22.264a112.111,112.111,0,0,1,9.473-11.394s-10.923-1.991-14.47-.629" transform="translate(-3.406 -6.265)" fill="#fff"/>
          <path id="Trazado_160275" data-name="Trazado 160275" d="M27.575,42.429,27,46.983a12.4,12.4,0,0,0-3.265,5.775c-.575,3.178.034,14.685.034,14.685l1.576,8.177.689-5.462s1.233-7.072,2.29-11.437a26.77,26.77,0,0,1,.476-3.964,31.315,31.315,0,0,0,.882-6.565l2.843-3.4-2.711-3.164Z" transform="translate(-3.613 -6.404)" fill="#e93b3b"/>
          <path id="Trazado_160276" data-name="Trazado 160276" d="M30.331,30.175l-.494,7.2a19.328,19.328,0,0,0,3.381,3.483c2.6-.811,8.643-6.416,8.643-6.416L39.849,23.261Z" transform="translate(-4.591 -3.579)" fill="#ffad97"/>
          <path id="Trazado_160277" data-name="Trazado 160277" d="M41.788,10.269c-1.87-3.97-8.812-8.543-15.433-2.357-6.943,6.487-4.208,19.548.9,20.449,2.6.459,7.788-.819,11.236-4.342,3.881-3.966,4.744-10.666,3.292-13.75" transform="translate(-3.414 -0.751)" fill="#ffc5b3"/>
          <path id="Trazado_160278" data-name="Trazado 160278" d="M29.447,34.726l.646,5.839L25.348,42.5s-.544-6.235,4.1-7.774" transform="translate(-3.897 -5.343)" fill="#ddccd3"/>
          <path id="Trazado_160279" data-name="Trazado 160279" d="M41.619,33.756a13.23,13.23,0,0,1-4.878,4.664,32.5,32.5,0,0,1-5.783,2l1.785,5.356s5.649-2.29,8.422-4.488c0,0,3.682-4.364.454-7.528" transform="translate(-4.763 -5.194)" fill="#ddccd3"/>
          <path id="Trazado_160280" data-name="Trazado 160280" d="M34.717,78.37c1.449,2.534,4.233,2.589,7.827,0C50.132,72.9,55.1,60.526,56.607,54.035c1.89-8.15-1.282-11.287-5.651-13.178-2.417.6-4.6,4.561-7.371,12.194-2.479,6.842-11.41,20.875-8.868,25.319" transform="translate(-5.272 -6.286)" fill="#441c1c"/>
          <path id="Trazado_160281" data-name="Trazado 160281" d="M39.264,4.733C36.037-1.682,28.493-1.055,24.673,3.5,21,7.894,21.154,7.9,18.346,9.539c6.207,6.536,14.164,3.275,16.993,2.261-1.354,3.943.365,7.7.9,7.636.859-1.65,1.706-1.889,2.394-.952.778,1.06-.1,4.242-.1,4.242a12.144,12.144,0,0,0,5.581-7.62c.745-3.3,1.111-8.511-4.85-10.372" transform="translate(-2.823 0)" fill="#602b2b"/>
          <path id="Trazado_160282" data-name="Trazado 160282" d="M32.89,42.858s.278-6.343.461-7.642a28.014,28.014,0,0,1,.816-4.136c.613-1.807.657-2.938-.556-2.043s-1.543,2.292-2.692,2.867-2.869-2.689-5.194-3.683-3.531-1.98-4.083-.877a10.512,10.512,0,0,0-.272,5.38c.454,1.865,3.965,2.415,5.928,4.468a3.373,3.373,0,0,1,1.008,1.659,34.059,34.059,0,0,1,.315,3.6Z" transform="translate(-3.253 -4.132)" fill="#ffc5b3"/>
          <path id="Trazado_160283" data-name="Trazado 160283" d="M28.823,47.314V41.541a5.707,5.707,0,0,0,2.432.39,14.827,14.827,0,0,0,3.983-.859s.5,4.465.455,5.7-6.707,1.971-6.87.545" transform="translate(-4.435 -6.319)" fill="#fff"/>
          <path id="Trazado_160284" data-name="Trazado 160284" d="M35.949,44.91a20.675,20.675,0,0,1-7.844.724,137.821,137.821,0,0,0,.2,17.875c.832,7.754,1.094,14.467,3.813,16.385s7.343-1.519,7.343-1.519,1.275-12.548,0-19.565c-1.555-8.56-1.735-8.6-3.512-13.9" transform="translate(-4.292 -6.91)" fill="#441c1c"/>
          <path id="Trazado_160285" data-name="Trazado 160285" d="M22.476,70.1a31.2,31.2,0,0,0,8.309,6.283c.749.369,5.567,1.385,3.691,2.828-1.279.984-6.012-1.719-5.063.984.877,2.5,9,1.741,7.667,4.442C33.887,87.2,29.247,85.874,26.9,84.06c-1.051-.811-5.985-8.051-5.985-8.051Z" transform="translate(-3.217 -10.785)" fill="#ffc5b3"/>
          <path id="Trazado_160286" data-name="Trazado 160286" d="M21.961,68.69a28.254,28.254,0,0,1,4.72,3.325,12.046,12.046,0,0,0-3.942,7.96,35.874,35.874,0,0,0-4.1-2.7Z" transform="translate(-2.868 -10.568)" fill="#fff"/>
          <path id="Trazado_160287" data-name="Trazado 160287" d="M8.654,62.416s-4.547.421-4.771,2.552c-.389,3.7-1.347,5.557,1.176,7.564,2.837,2.258,9.976,5.137,13.9,6.284-1.5-5.549,3.407-10.274,3.407-10.274S15.8,62,8.654,62.416" transform="translate(-0.52 -9.6)" fill="#442020"/>
          <path id="Trazado_160288" data-name="Trazado 160288" d="M23.392,26.99a7.864,7.864,0,0,1,3.1,1.434c1.57,1.181,2.839,2.489,3.307,2.868-.454-.579-1.119-2.726-3.2-3.883s-3.2-.419-3.2-.419" transform="translate(-3.599 -4.117)" fill="#ffad97"/>
          <path id="Trazado_160289" data-name="Trazado 160289" d="M33.832,31.341s1.047-1.725,1.731-2.037.976,0,.976,0-.37-1.156-1.354-.5a4.684,4.684,0,0,0-1.354,2.535" transform="translate(-5.205 -4.401)" fill="#ffad97"/>
        </g>
      </g>
    </g>
  </g>
</svg>
